<?xml version="1.0" encoding="UTF-8"?>
<svg enable-background="new 0 0 3839 835.7" version="1.1" viewBox="0 0 3839 835.7" xml:space="preserve" xmlns="http://www.w3.org/2000/svg">
<style type="text/css">
	.st0{fill:#00A041;}
	.st1{fill:#FFF200;}
	.st2{fill:#FFFFFF;}
</style>

	
		<path d="m1866 404c-12.9-186.6-112.2-404-233.2-404s-220.3 217.4-233.2 404h466.4z"/>
		<path d="m1392.1 448.4c2.8 156.6 156.7 222.9 240.7 222.9s237.9-66.3 240.7-222.9h-481.4z"/>
		
			<rect transform="matrix(-1.837e-16 1 -1 -1.837e-16 2320.9 -944.75)" x="1598.9" y="665.9" width="67.8" height="44.4"/>
		<path d="m1372.6 635.9v17.6c128.3 26.7 322.4 89.9 463.7 182.2l76.4-29.5c-106.6-65-353.6-141.2-540.1-170.3z"/>
	
	
		
			<path d="m2223.4 452.1h-210.8c3 24.1 12.4 43.1 28 57.1s34.8 20.9 57.4 20.9c16.6 0 32-3.4 46.2-10.3s26.1-17.4 35.6-31.6l43.5 19.6c-13.7 21.4-31.7 37.5-54 48.4-22.2 10.9-46.5 16.4-72.6 16.4-27.1 0-51.2-5.7-72.3-17s-37.4-27.1-49.2-47.4c-11.7-20.3-17.6-43.1-17.6-68.4 0-25.2 5.8-47.9 17.3-68.2 11.6-20.3 27.4-36.1 47.5-47.5s42.3-17.1 66.5-17.1c26.5 0 49.6 5.9 69.3 17.6s35.2 28.5 46.5 50.2c11.6 21.9 17.7 47.6 18.7 77.3zm-133.3-103.8c-18.7 0-35 6.3-49 18.8s-23 29.1-27 49.6h157.4c-4.6-20.6-14.4-37.1-29.4-49.6-15-12.6-32.3-18.8-52-18.8z"/>
			<path d="m2356.2 521.3v44h-132.3v-44h44.5v-273h-44.5v-43.5h94v316.5h38.3z"/>
			<path d="m2618.8 452.1h-210.8c3 24.1 12.4 43.1 28 57.1s34.8 20.9 57.4 20.9c16.6 0 32-3.4 46.2-10.3s26.1-17.4 35.6-31.6l43.5 19.6c-13.7 21.4-31.7 37.5-54 48.4-22.2 10.9-46.5 16.4-72.6 16.4-27.1 0-51.2-5.7-72.3-17s-37.4-27.1-49.2-47.4c-11.7-20.3-17.6-43.1-17.6-68.4 0-25.2 5.8-47.9 17.3-68.2 11.6-20.3 27.4-36.1 47.5-47.5s42.3-17.1 66.5-17.1c26.5 0 49.6 5.9 69.3 17.6s35.2 28.5 46.5 50.2c11.6 21.9 17.7 47.6 18.7 77.3zm-133.3-103.8c-18.7 0-35 6.3-49 18.8s-23 29.1-27 49.6h157.4c-4.6-20.6-14.4-37.1-29.4-49.6-15.1-12.6-32.4-18.8-52-18.8z"/>
			<path d="m2832.5 332v-18.2h44v95.2h-44c-1.9-18.3-9.3-32.3-22-42-12.8-9.6-27.5-14.5-44.3-14.5-14.4 0-27.2 3.8-38.6 11.5s-20.2 18-26.4 31.1-9.3 27.4-9.3 42.8c0 26.3 7 47.8 21.1 64.5 14 16.7 32.5 25 55.5 25 35.6 0 60.7-16.5 75.4-49.5l41.2 19.6c-23.1 50.1-62.7 75.1-118.7 75.1-25 0-47.3-5.9-66.7-17.7-19.5-11.8-34.5-28-45.1-48.6s-15.9-43.4-15.9-68.4c0-24.6 5.4-46.9 16.1-67 10.8-20.1 25.6-35.8 44.4-47s39.8-16.9 62.9-16.9c27.3 0.1 50.8 8.4 70.4 25z"/>
			<path d="m3033.3 313.8v44.3h-45.9v131.8c0 13.7 1.5 22.6 4.4 26.7s8 6.1 15.2 6.1c8.8 0 17.5-1.5 26.3-4.5v44.7c-15.3 4.5-27.7 6.7-37.1 6.7-20.7 0-35.6-5.2-44.7-15.7-9.1-10.4-13.6-28.4-13.6-53.7v-142.1h-32.9v-44.3h32.8v-38l49.5-45.2v83.3h46z"/>
			<path d="m3170.6 464.3v56.9h54.8v44h-154.3v-44h50.5v-163.1h-50.5v-44.3h89.7v56.9c10-22.5 22.5-38.2 37.4-47 14.9-8.9 36.2-13.3 64-13.3h11.2v50h-10.8c-26.8 0-46.7 3.5-59.8 10.5s-21.7 17.6-26 31.8c-4 14.3-6.2 34.8-6.2 61.6z"/>
			<path d="m3537.7 439.9c0 24.4-5.8 46.7-17.5 67-11.6 20.3-27.5 36.3-47.6 48.1s-42.3 17.7-66.8 17.7c-25.2 0-47.9-5.9-68.2-17.7s-36-27.8-47.3-48.1c-11.2-20.3-16.9-42.6-16.9-67 0-25.5 5.6-48.3 16.9-68.4 11.2-20.1 26.9-35.8 47-47.3 20.1-11.4 42.9-17.1 68.4-17.1 24.7 0 47.1 6 67.2 18.1 20.1 12 35.9 28.2 47.4 48.4 11.7 20.3 17.4 42.4 17.4 66.3zm-131.8 84.7c14.7 0 28.1-3.8 40.4-11.5s21.8-17.9 28.7-30.9c6.9-12.9 10.3-27 10.3-42.3 0-15-3.4-28.9-10.3-41.9-6.9-12.9-16.4-23.3-28.7-31.2s-25.9-11.8-40.9-11.8c-14.7 0-28.2 3.9-40.4 11.6-12.3 7.7-21.9 18.1-28.9 31.2s-10.5 27.1-10.5 42.1 3.5 29 10.5 42.1 16.7 23.4 29.2 31.1 25.9 11.5 40.6 11.5z"/>
			<path d="m3796.9 396.1v125.1h42.1v44h-91.6v-166c0-15.8-2.3-27.1-6.8-34s-12-10.3-22.4-10.3c-22 0-46.7 10.8-74.2 32.5v133.7h43.3v44h-136.4v-44h44.3v-163h-44.3v-44.3h93.1v30.4c30.8-22.5 59.7-33.7 86.8-33.7 22.5 0 39.1 6.9 49.9 20.8s16.2 35.5 16.2 64.8z"/>
		
	
	
		
			<path d="m208.4 402.6v118.7h42.1v44h-85.7v-30.9c-23.9 23.4-50.6 35.2-79.9 35.2-15.5 0-29.6-3.6-42.5-10.8-12.8-7.2-23.1-16.8-30.8-28.8-7.7-12.1-11.6-25.4-11.6-40.1 0-15.8 4.3-29.9 12.8-42.2 8.5-12.4 20.1-21.9 34.6-28.6s29.1-10 43.8-10c24.6 0 47.4 7.2 68.7 21.5v-27c0-19.6-4.1-33.7-12.4-42.1-8.3-8.5-21.9-12.7-40.9-12.7-13.4 0-24.6 2.4-33.6 7.3s-16.5 12.2-22.4 22.1l-47.5-11.7c10.7-19.9 25.1-34.8 43.3-44.6s39.8-14.7 64.8-14.7c33.7 0 58.3 7.7 73.8 23 15.6 15.2 23.4 39.4 23.4 72.4zm-116.8 128.9c24.2 0 47-10.1 68.2-30.4v-29.4c-21.5-16.7-43.1-25.1-64.6-25.1-13.1 0-24.4 4.1-33.9 12.3s-14.2 18.5-14.2 31c0 12 4.1 21.9 12.4 29.8 8.4 7.9 19.1 11.8 32.1 11.8z"/>
			<path d="m454.9 332v-18.2h44v95.2h-44c-1.9-18.3-9.3-32.3-22-42-12.8-9.6-27.5-14.5-44.3-14.5-14.4 0-27.2 3.8-38.6 11.5s-20.2 18-26.4 31.1-9.3 27.4-9.3 42.8c0 26.3 7 47.8 21.1 64.5 14 16.7 32.5 25 55.5 25 35.6 0 60.7-16.5 75.4-49.5l41.2 19.6c-23.1 50.1-62.7 75.1-118.7 75.1-25 0-47.3-5.9-66.7-17.7-19.5-11.8-34.5-28-45.1-48.6s-15.9-43.4-15.9-68.4c0-24.6 5.4-46.9 16.1-67 10.8-20.1 25.6-35.8 44.4-47s39.8-16.9 62.9-16.9c27.2 0.1 50.8 8.4 70.4 25z"/>
			<path d="m784.1 439.9c0 24.4-5.8 46.7-17.5 67-11.6 20.3-27.5 36.3-47.6 48.1s-42.3 17.7-66.7 17.7c-25.2 0-47.9-5.9-68.2-17.7s-36-27.8-47.3-48.1c-11.2-20.3-16.9-42.6-16.9-67 0-25.5 5.6-48.3 16.9-68.4 11.2-20.1 26.9-35.8 47-47.3 20.1-11.4 42.9-17.1 68.4-17.1 24.7 0 47.1 6 67.2 18.1 20.1 12 35.9 28.2 47.4 48.4 11.6 20.3 17.3 42.4 17.3 66.3zm-131.8 84.7c14.7 0 28.1-3.8 40.4-11.5s21.8-17.9 28.7-30.9c6.9-12.9 10.3-27 10.3-42.3 0-15-3.4-28.9-10.3-41.9-6.9-12.9-16.4-23.3-28.7-31.2s-25.9-11.8-40.9-11.8c-14.7 0-28.2 3.9-40.4 11.6-12.3 7.7-21.9 18.1-28.9 31.2s-10.5 27.1-10.5 42.1 3.5 29 10.5 42.1 16.7 23.4 29.2 31.1c12.4 7.7 25.9 11.5 40.6 11.5z"/>
			<path d="m895.5 464.3v56.9h54.8v44h-154.4v-44h50.5v-163.1h-50.5v-44.3h89.7v56.9c10-22.5 22.5-38.2 37.4-47 14.9-8.9 36.2-13.3 64-13.3h11.2v50h-10.8c-26.8 0-46.7 3.5-59.8 10.5s-21.7 17.6-26 31.8c-4 14.3-6.1 34.8-6.1 61.6z"/>
			<path d="m1257.5 396.1v125.1h42.1v44h-91.6v-166c0-15.8-2.3-27.1-6.8-34s-12-10.3-22.4-10.3c-22 0-46.7 10.8-74.2 32.5v133.7h43.3v44h-136.4v-44h44.3v-163h-44.3v-44.3h93.1v30.4c30.8-22.5 59.7-33.7 86.8-33.7 22.5 0 39.1 6.9 49.9 20.8s16.2 35.5 16.2 64.8z"/>
		
	

</svg>
