<?xml version="1.0" encoding="UTF-8"?>
<svg enable-background="new 0 0 3839 611.6" version="1.1" viewBox="0 0 3839 611.6" xml:space="preserve" xmlns="http://www.w3.org/2000/svg">
<style type="text/css">
	.st0{fill:#FA3101;}
	.st1{fill:#A41A10;}
	.st2{fill:#FFFFFF;}
	.st3{fill:#0046B7;}
	.st4{fill:#E41F28;}
	.st5{display:none;}
	.st6{display:inline;fill:#FFFFFF;}
</style>

	
		
			<path class="st2" d="m3156.2 604c-39.7 0-78.6-11-112.4-31.7l-7.2-4.4v30.3h-158.5v-6.1l-6.3 2.3c-17.3 6.3-35.8 9.5-54.9 9.5-19.3 0-37.9-3.3-55.3-9.8l-6.3-2.4v6.5h-158.5v-38.1l-12.6 38.1h-129.1l-32.9-90.2h-105.4v90.2h-311.5l-14.9-21v21h-158.5v-12.1l-6.6 3c-21.8 9.8-45.2 14.8-69.5 14.8-41.3 0-80.1-14.4-109.3-40.5-3.9-3.5-7.8-7.3-11.3-11.3l-8.2-9.1v55.1h-270l-57.7-90.2h-5.6v90.2h-344.7v-90.2h-27l-62.9 90.2h-138.7v-33.8l-7.1 4.2c-33.8 19.9-72.7 29.6-119.1 29.6h-233.4v-89.8h-16.7l-61.4 89.8h-192.7l60.4-88h-136l156.7-228.3h136l70.4-102.5h218.4c45.2 0 84.7 10.1 117.4 30.1l7.1 4.4v-34.4h158.6v104.7h5.7l73.3-104.7h314l60.9 95.2v-95.2h650.4c24.4 0 46.6 3.1 65.9 9.3l6.1 2v-11.3h417.3l36.6 104.7h13.5l33.1-104.7h199.4v7.4l6.4-2.6c17.4-7 36-10.5 55.2-10.5s37.6 3.3 54.8 9.9l6.4 2.4v-6.5h158.5v30.3l7.2-4.4c33.8-20.7 72.7-31.7 112.4-31.7 40.1 0 79 10.6 112.5 30.8l7.1 4.3v-29.3h136.8l60.9 95.2v-95.2h158.6v102.5h192.6l-156.7 228.3h-35.9v88h-134.4l-57.7-90.2h-5.6v90.2h-158.5v-30.1l-7.1 4.4c-33.9 20.5-72.7 31.4-112.5 31.4z"/>
			<path d="m3156.2 181.3c38.8 0 76.3 10.3 108.6 29.7l18.6 11.2v-35.2h125.1l50 78.2 16.9 26.5h5.7v-104.7h143.4v102.5h185.8l-146.3 213.2h-39.5v88h-122.6l-57.7-90.2h-17.4v90.2h-143.4v-36.1l-18.7 11.4c-32.6 19.9-70.1 30.4-108.5 30.4-38.3 0-75.9-10.6-108.5-30.6l-18.7-11.5v36.2h-143.4v-9.3l-16.5 6c-16.5 6-34.1 9.1-52.3 9.1-18.4 0-36.1-3.2-52.6-9.4l-16.6-6.2v9.8h-143.4v-77.5l-23.9 72.6-1.7 5.1h-118.4l-30-82.1-2.9-8.1h-118.3v90.2h-300l-4.1-5.8-22.3-31.3v37.1h-143.4v-16.2l-17.3 7.8c-20.8 9.4-43.1 14.2-66.4 14.2-39.4 0-76.4-13.7-104.2-38.5-3.7-3.3-7.4-6.9-10.7-10.7l-21.4-23.8v67.3h-258.2l-57.7-90.2h-17.4v90.2h-329.3v-90.2h-38.6l-62.9 90.2h-127.1v-39.5l-18.5 10.9c-32.6 19.2-70.3 28.6-115.2 28.6h-226v-89.8h-28.3l-3.7 5.3-57.7 84.4h-174.2l47.2-68.8 13.2-19.2h-136l146.3-213.2h136l3.7-5.3 66.7-97.2h214.5c43.8 0 81.9 9.7 113.4 28.9l18.7 11.4v-40.3h143.4v104.7h17.2l73.2-104.7h305.9l50 78.2 16.9 26.5h5.7v-104.7h642.8c23.6 0 45.1 3 63.6 9l16 5.1v-14.1h404.3l36.6 104.7h24.5l33.1-104.7h186.3v11l16.9-6.8c16.5-6.6 34.1-10 52.4-10 18.2 0 35.8 3.2 52.2 9.4l16.6 6.3v-9.9h143.3v36.2l18.7-11.5c32.7-19.9 70.2-30.4 108.5-30.4m0-15.2c-39.4 0-78 10.4-112 30.2v-24.5h-173.8v3.2c-17-5.9-35-8.9-53.6-8.9-18.8 0-36.9 3.2-54.1 9.6v-3.8h-212.6l-3.3 10.6-29.8 94.1h-2.6l-33.1-94.5-3.6-10.2h-430.3v8.5c-19.2-5.7-40.8-8.5-64.5-8.5h-658v76.8l-44.7-69.9-4.5-7h-321.7l-4.5 6.5-62.9 89.9v-96.4h-173.8v28.6c-33-19-72.3-28.6-116.9-28.6h-222.4l-4.5 6.6-65.8 95.9h-136l-4.5 6.6-146.4 213.2-16.3 23.7h136l-44.1 64.3-16.3 23.7h211.1l4.5-6.6 56.9-83.2h5.1v89.8h241.1c45.8 0 84.7-9.2 118.6-28.2v28.2h150.1l4.5-6.5 58.4-83.7h15.5v90.2h359.9v-80.7l47.1 73.7 4.5 7h281.7v-43.2c2.2 2.3 4.6 4.5 6.9 6.6 30.6 27.3 71.2 42.4 114.3 42.4 23.9 0 47-4.6 68.6-13.7v8h500.2v-90.2h92.5l29.3 80.2 3.6 10h313.3v-3.2c17.1 5.9 35.3 8.9 54.1 8.9 18.6 0 36.6-2.9 53.6-8.6v2.9h173.2v-24.4c34 19.7 72.6 30.2 112 30.2s78.1-10.4 112-30.1v24.3h173.8v-80.7l47.1 73.7 4.5 7h146.1v-88h32.3l4.5-6.6 146.3-213.2 16.3-23.7h-199.4v-102.6h-173.8v76.9l-44.7-69.8-4.5-7h-148.6v23.5c-33.5-19.2-72.1-29.3-111.9-29.3z"/>
		
		
			<polygon points="3656.9 485.4 59.1 485.4 181.6 306.8 3779.4 306.8"/>
			<path d="m133.1 575.5h137.6l61.4-89.8h51.4v89.8h210.8c59.5 0 106.3-17.7 143.3-54.1 2-2 3.8-4 5.6-6.1v60.2h104.1l124.4-178.5v178.6h299.1v-154l98.5 154h99.2v-264h22.5v264h113v-264h15.1v131.3c0 43.3 14.7 79.2 42.3 103.8 25 22.4 58.4 34.7 94.1 34.7s69.1-12.3 94-34.6c1.7-1.5 3.2-3.2 4.8-4.8v33.7h113.1v-69.4l49.4 69.4h277.2v-109.5h-103v-24.1h103v-109.4h-103v-21.2h103v-109.3h-216v26.5c-23.4-17.8-54.5-26.5-94.8-26.5h-204.2v239.4c0 30.4-17.6 30.4-23.4 30.4s-23.4 0-23.4-30.4v-239.4h-376.9v150.2l-96-150.2h-291.6l-111.5 164.6v-164.6h-113v63.8c-33-41.7-83.7-63.8-147.3-63.8h-206.5l-222.9 324.7-33.4 48.6"/>
			<path d="m3496.2 202.2v150.2l-96-150.2h-101.7v55.8c-35-38.1-85.4-61.6-142.3-61.6-56.3 0-107 24.2-142.3 62.7v-57h-113v25c-21.4-19.3-50.4-30.8-83.9-30.8-33.2 0-62.9 12.7-84.4 33.4v-27.7h-160l-55.1 174.1-61-174.1h-121.8l136.3 373.5h96.8l51.7-156.8v156.8h113v-24.1c22.1 18.9 51.2 29.9 84.4 29.9 33 0 62-10.6 83.9-28.9v23.1h113v-57c35.3 38.5 86 62.7 142.3 62.7s107-24.1 142.3-62.5v56.7h113v-154l98.5 154h99.2v-373.2h-112.9z"/>
			
				<path class="st2" d="M829.3,541.2h-51.9V236.5h44.5v240.9h0.8l163.1-240.9h56L829.3,541.2z"/>
				<path class="st2" d="m417.8 541.2v-89.8h-103.8l-61.4 89.8h-54.4l209.2-304.8h54.8v304.8h-44.4zm0-247.1h-0.8l-75 116.6h75.8v-116.6z"/>
				<path class="st2" d="m713.3 497.2c-33.4 32.9-73.3 44.1-119 44.1h-97.2v-304.8h98.8c49 0 95.1 14.8 124.4 56 19.8 27.6 31.3 63 31.3 97.2 0 35.4-12.8 81.9-38.3 107.5zm-15.2-154.1c-18.1-44.1-55.6-65.9-102.6-65.9h-54v223.2h53.1c69.2 0 112.4-40.4 112.4-110.8 0.1-15.6-3.2-31.6-8.9-46.5z"/>
				<path class="st2" d="M1006,541.2V236.5h147.5v40.8h-103V367h103v40.8h-103v92.7h103v40.8H1006z"/>
				<path class="st2" d="M2112.3,541.2V236.5h147.5v40.8h-103V367h103v40.8h-103v92.7h103v40.8H2112.3z"/>
				<path class="st2" d="M1388.2,541.2l-150.7-235.6h-0.8v235.6h-44.5V236.5h48.6L1389,468.3h0.8V236.5h44.5v304.8H1388.2z"/>
				<path class="st2" d="m1569.9 277.2v264h-44.5v-264h-58.5v-40.8h161.4v40.8h-58.4z"/>
				<path class="st2" d="m1827 521.1c-19.4 17.3-45.3 25.9-71.3 25.9-25.9 0-51.9-8.6-71.3-25.9-22.7-20.2-30.9-48.6-30.9-78.3v-206.3h44.5v205.1c0 36.2 19.8 64.7 57.7 64.7s57.7-28.4 57.7-64.7v-205.1h44.5v206.3c0 29.7-8.3 58.1-30.9 78.3z"/>
				<path class="st2" d="m2034.7 421.8c-9.1 3.3-19.8 5.8-29.7 5.8l85.3 113.7h-55.6l-100.5-141.3h-0.8v141.3h-44.5v-304.8h94.3c28.8 0 59.7 4.5 81.1 25.5 19.4 18.5 28 45.7 28 72.1 0 41.2-18.1 73.7-57.6 87.7zm-54.4-144.6h-47v116.6h30.5c39.5 0 84-11.1 84-59.7 0.1-38.7-32.1-56.9-67.5-56.9z"/>
				<path class="st2" d="m2653.8 541.2v-304.7h44.5v304.8h-44.5z"/>
				<path class="st2" d="m2816.9 547c-55.6 0-93.9-40.8-93.9-96h44.5c0 29.7 17.3 55.2 49.4 55.2 30.5 0 49-21.8 49-51.5 0-32.5-23.5-40-49-49.8-47.4-18.1-85.3-32.1-85.3-91.4 0-47.4 38.7-82.8 85.3-82.8 50.7 0 87.3 33.4 87.3 84.8h-44.5c0-26.4-16.5-44.1-42.8-44.1-22.2 0-40.8 19.4-40.8 41.6 0 64.7 134.3 25.9 134.3 141.7 0 54.8-39.1 92.3-93.5 92.3z"/>
				<path class="st2" d="m3156.2 547c-87.3 0-158.6-70.8-158.6-158.2 0-88.1 70.8-158.2 158.6-158.2 89 0 158.6 70.4 158.6 159 0 87-71.7 157.4-158.6 157.4zm0-275.5c-47.4 0-84.8 25.5-103.4 68.8-6.6 15.2-10.7 31.7-10.7 48.6s4.1 33.8 10.7 49.4c18.9 42.8 56.4 68 103.4 68 50.2 0 89-28.8 106.3-75.4 4.9-12.8 7.8-26.8 7.8-40.8 0-64.7-47.8-118.6-114.1-118.6z"/>
				<path class="st2" d="m2935.1 541.2v-304.7h44.5v304.8h-44.5z"/>
				<path class="st2" d="m3528.9 541.2-150.7-235.6h-0.8v235.6h-44.5v-304.7h48.6l148.3 231.9h0.8v-231.9h44.5v304.8h-46.2z"/>
				<polygon class="st2" points="2597.6 236.5 2519 484.8 2432.1 236.5 2383.7 236.5 2494.9 541.2 2543 541.2 2643.5 236.5"/>
			
		
	
	
		
			<path d="m2303.1 62.8c0-26.3 13.5-49.4 33.9-62.8h-835c20.4 13.4 33.9 36.6 33.9 62.8s-13.5 49.4-33.9 62.8h835c-20.4-13.4-33.9-36.5-33.9-62.8z"/>
			<path d="m2378.3 40.4c-12.4 0-22.5 10.1-22.5 22.5s10.1 22.5 22.5 22.5 22.5-10.1 22.5-22.5c0-12.5-10.1-22.5-22.5-22.5z"/>
			<path d="m2378.3 5.2c-31.8 0-57.6 25.8-57.6 57.6s25.8 57.6 57.6 57.6 57.6-25.8 57.6-57.6c0.1-31.8-25.7-57.6-57.6-57.6zm0 97.7c-22.1 0-40-17.9-40-40s17.9-40 40-40 40 17.9 40 40c0.1 22-17.8 40-40 40z"/>
			<path d="m1460.7 40.4c-12.4 0-22.5 10.1-22.5 22.5s10.1 22.5 22.5 22.5 22.5-10.1 22.5-22.5-10.1-22.5-22.5-22.5z"/>
			<path d="m1460.7 5.2c-31.8 0-57.6 25.8-57.6 57.6s25.8 57.6 57.6 57.6 57.6-25.8 57.6-57.6-25.8-57.6-57.6-57.6zm0 97.7c-22.1 0-40-17.9-40-40s17.9-40 40-40 40 17.9 40 40-17.9 40-40 40z"/>
		
		<path class="st2" d="m1565.4 37.8v73.7h31.6v-37.6h28.8v37.6h31.6v-73.7c0-13.1-10.6-23.7-23.7-23.7h-44.5c-13.2 0-23.8 10.7-23.8 23.7zm60.3 14h-28.8v-9.6h28.8v9.6z"/>
		<path class="st2" d="m1934.4 37.8v73.7h31.6v-37.6h28.8v37.6h31.6v-73.7c0-13.1-10.6-23.7-23.7-23.7h-44.5c-13.2 0-23.8 10.7-23.8 23.7zm60.3 14h-28.8v-9.6h28.8v9.6z"/>
		<path class="st2" d="m2065.4 14.1v97.4h71.6c13.1 0 23.7-10.6 23.7-23.7v-50c0-13.1-10.6-23.7-23.7-23.7h-71.6zm63.7 69.4h-32.1v-41.3h32.2v41.3z"/>
		<path class="st2" d="m1782.1 37.8c0-6.5-2.7-12.5-6.9-16.8-2.1-2.1-4.7-3.9-7.5-5.1s-6-1.9-9.2-1.9h-68.2v97.3h31.6v-37.4h28.8v37.6h31.6v-29.3c0-8-4-15.1-10.1-19.4 6.1-4.3 10.1-11.4 10.1-19.4v-5.6zm-31.6 14h-28.8v-9.6h28.8v9.6z"/>
		<path class="st2" d="m2272.8 42.2v-28h-57.8c-12.8 0-23.2 10.6-23.2 23.7v50c0 13.1 10.4 23.7 23.2 23.7h57.8v-28h-50.1v-9.6h50.1v-22.2h-50.1v-9.6h50.1z"/>
		<path class="st2" d="m1899.5 42.2v-28h-63.5c-13.1 0-23.7 10.6-23.7 23.7v50c0 13.1 10.6 23.7 23.7 23.7h63.5v-28h-55.7v-41.4h55.7z"/>
	

</svg>
