<?xml version="1.0" encoding="UTF-8"?>
<svg enable-background="new 0 0 3839 1257.818" version="1.1" viewBox="0 0 3839 1257.8" xml:space="preserve" xmlns="http://www.w3.org/2000/svg">
<style type="text/css">
	.st0{fill:#0F2166;}
	.st1{fill:#FD2537;}
	.st2{fill:url(#SVGID_1_);}
	.st3{fill:url(#SVGID_00000064320000187446846170000013892235681109538189_);}
	.st4{fill:url(#SVGID_00000155828906384627224720000009226300137033927856_);}
	.st5{fill:url(#SVGID_00000176011581262620328200000018152215146701817240_);}
	.st6{fill:url(#SVGID_00000103240165916519092020000005348531717753319856_);}
	.st7{fill:url(#SVGID_00000057125646463475129700000006094104407531115660_);}
	.st8{fill:url(#SVGID_00000129176018665845732140000007251433811802186884_);}
	.st9{fill:url(#SVGID_00000159436624901877176630000017485462802190965413_);}
	.st10{fill:url(#SVGID_00000051366730035066872650000017874207936635112086_);}
	.st11{fill:url(#SVGID_00000097494195645674297220000003317679119461658754_);}
	.st12{fill:url(#SVGID_00000053547172763585227790000018054738173915750292_);}
	.st13{fill:#8B8B8B;}
	
		.st14{fill:url(#SVGID_00000112622219279116353850000015166581976313454244_);stroke:#000000;stroke-width:4.8265;stroke-linecap:round;stroke-linejoin:round;}
	
		.st15{fill:url(#SVGID_00000014606508503002084610000015592016625226473389_);stroke:#000000;stroke-width:4.8265;stroke-linecap:round;stroke-linejoin:round;}
	
		.st16{fill:url(#SVGID_00000072238841786933751200000011252297472426952378_);stroke:#000000;stroke-width:4.8265;stroke-linecap:round;stroke-linejoin:round;}
	
		.st17{fill:url(#SVGID_00000047752674083568745100000017950365762676168380_);stroke:#000000;stroke-width:4.8265;stroke-linecap:round;stroke-linejoin:round;}
	.st18{fill:url(#SVGID_00000149347524591285156070000010038848434903907751_);}
	.st19{fill:#FFFFFF;}
	.st20{fill:url(#SVGID_00000121996440247156904460000007253721636282699170_);}
	.st21{fill:url(#SVGID_00000109727710233827786740000010444886606682280348_);}
	.st22{fill:url(#SVGID_00000097481114264031411310000016195109160066701224_);}
	.st23{fill:url(#SVGID_00000007400874081246786930000003654754847345262742_);}
	.st24{fill:url(#SVGID_00000170247937170518925540000007001300354271666052_);}
	.st25{fill:url(#SVGID_00000044887037986253788450000014610890301194849949_);}
	.st26{fill:url(#SVGID_00000065786934741001401950000007191313130714879140_);}
	.st27{fill:url(#SVGID_00000119798941202224880560000001814947604207996075_);}
	.st28{fill:url(#SVGID_00000126288988765281985650000001808939348214595991_);}
	.st29{fill:url(#SVGID_00000165209408443869322890000010304847955809015698_);}
	.st30{fill:url(#SVGID_00000121276553209040055770000001313626849421157815_);}
	.st31{fill:url(#SVGID_00000005955425480761348900000002933298431787565460_);}
	.st32{fill:url(#SVGID_00000172400637781906732930000014310509338765823373_);}
	.st33{fill:url(#SVGID_00000060719049666856691770000000432297446556294060_);}
	.st34{fill:url(#SVGID_00000050629645383636057040000006811990269930564234_);}
	.st35{fill:url(#SVGID_00000165925522364718814670000018083162435240505513_);}
	.st36{fill:url(#SVGID_00000080911929575501138600000017820628708978988448_);}
	.st37{fill:url(#SVGID_00000063609979490917314240000012578751507387927216_);}
	.st38{fill:url(#SVGID_00000114039530201801013930000007474808597248274833_);}
	.st39{fill:url(#SVGID_00000062896920496215201440000000914489527992128440_);}
	
		.st40{fill:url(#SVGID_00000032626735832845430550000011042188566446943397_);stroke:#FFFFFF;stroke-width:4.8265;stroke-linecap:round;stroke-linejoin:round;}
	
		.st41{fill:url(#SVGID_00000029032388451937072610000017676694343408982199_);stroke:#FFFFFF;stroke-width:4.8265;stroke-linecap:round;stroke-linejoin:round;}
	
		.st42{fill:url(#SVGID_00000088855331924552671690000010802676518400326578_);stroke:#FFFFFF;stroke-width:4.8265;stroke-linecap:round;stroke-linejoin:round;}
	
		.st43{fill:url(#SVGID_00000096775858436036923510000015800888216680320393_);stroke:#FFFFFF;stroke-width:4.8265;stroke-linecap:round;stroke-linejoin:round;}
	.st44{fill:url(#SVGID_00000014613246228244158300000000817762679137199505_);}
	.st45{fill:url(#SVGID_00000138575527123598422090000003092887818893351838_);}
	.st46{fill:url(#SVGID_00000079474414207242600210000001401337692201796269_);}
	.st47{fill:url(#SVGID_00000171678268659179932510000000989430744306183081_);}
	.st48{fill:url(#SVGID_00000162317296247819200460000005701394951967947154_);}
	.st49{fill:url(#SVGID_00000097476727235292241920000005320107488936425892_);}
	.st50{fill:url(#SVGID_00000165203148349776174860000006675998584014839463_);}
</style>

	
		
			<path class="st19" d="m1516.3 1211.8c-0.182-0.158-0.339-0.329-0.529-0.484-0.18-0.155-0.336-0.324-0.525-0.476-0.181-0.158-0.338-0.329-0.528-0.482-0.181-0.158-0.337-0.327-0.527-0.482-0.181-0.155-0.338-0.327-0.527-0.479-0.18-0.158-0.337-0.327-0.526-0.479-0.182-0.158-0.339-0.329-0.529-0.482-0.18-0.158-0.336-0.327-0.525-0.479-0.181-0.158-0.338-0.329-0.528-0.482-0.181-0.158-0.338-0.327-0.527-0.479-0.181-0.158-0.338-0.329-0.527-0.482-0.18-0.158-0.337-0.327-0.526-0.479-0.181-0.158-0.338-0.327-0.528-0.482-0.181-0.155-0.338-0.327-0.527-0.479-0.181-0.158-0.338-0.329-0.527-0.482-0.181-0.155-0.338-0.327-0.527-0.479-0.181-0.158-0.337-0.327-0.527-0.482-0.181-0.155-0.338-0.327-0.527-0.479-0.18-0.158-0.337-0.327-0.526-0.479-0.182-0.158-0.339-0.329-0.529-0.482-0.18-0.158-0.336-0.327-0.525-0.479-0.181-0.158-0.339-0.329-0.528-0.482-0.181-0.158-0.338-0.327-0.527-0.479-0.181-0.158-0.337-0.329-0.527-0.482-0.18-0.158-0.337-0.327-0.526-0.479-0.181-0.158-0.338-0.327-0.528-0.482-0.181-0.155-0.338-0.327-0.527-0.479-0.181-0.158-0.337-0.329-0.527-0.482-0.18-0.155-0.337-0.327-0.526-0.479-0.182-0.158-0.339-0.329-0.529-0.482-0.18-0.158-0.336-0.327-0.525-0.479-0.181-0.158-0.338-0.327-0.528-0.482-0.181-0.155-0.337-0.327-0.527-0.479-0.181-0.158-0.337-0.327-0.527-0.479-0.18-0.158-0.337-0.327-0.526-0.482-0.182-0.158-0.339-0.327-0.529-0.482-0.18-0.155-0.336-0.327-0.525-0.479-0.181-0.155-0.338-0.327-0.528-0.479-0.181-0.158-0.338-0.329-0.528-0.482-0.18-0.158-0.336-0.327-0.525-0.479-0.181-0.158-0.339-0.327-0.528-0.482-0.18-0.155-0.337-0.327-0.526-0.479-0.182-0.158-0.339-0.329-0.529-0.482-0.18-0.155-0.336-0.327-0.525-0.479-0.181-0.158-0.339-0.327-0.528-0.482-0.181-0.155-0.337-0.327-0.527-0.479-0.181-0.158-0.337-0.327-0.526-0.479-0.18-0.158-0.337-0.327-0.526-0.482-0.182-0.158-0.339-0.327-0.529-0.482-0.18-0.155-0.336-0.327-0.525-0.479-0.181-0.155-0.338-0.327-0.528-0.479-0.181-0.158-0.337-0.327-0.526-0.482-0.181-0.155-0.338-0.327-0.527-0.479-0.18-0.158-0.337-0.327-0.526-0.479-0.181-0.158-0.338-0.329-0.528-0.482-0.181-0.158-0.337-0.327-0.527-0.482-0.181-0.155-0.338-0.327-0.527-0.479-0.18-0.158-0.337-0.327-0.526-0.479-0.182-0.158-0.339-0.329-0.529-0.482-0.18-0.158-0.336-0.327-0.525-0.479-0.181-0.158-0.338-0.329-0.528-0.482-0.181-0.158-0.338-0.327-0.527-0.479-0.181-0.158-0.337-0.329-0.527-0.482-0.181-0.158-0.338-0.327-0.527-0.479-0.181-0.158-0.337-0.327-0.527-0.482-0.181-0.158-0.338-0.327-0.527-0.479-0.18-0.158-0.337-0.327-0.526-0.479-0.181-0.158-0.338-0.329-0.528-0.482-0.181-0.158-0.337-0.327-0.527-0.482-0.181-0.155-0.338-0.327-0.527-0.479-0.18-0.158-0.337-0.327-0.526-0.479-0.182-0.158-0.339-0.329-0.529-0.482-0.18-0.158-0.336-0.327-0.525-0.479-0.181-0.158-0.338-0.329-0.528-0.482-0.181-0.158-0.338-0.327-0.527-0.479-0.696-0.607-1.473-1.173-2.294-1.714-0.563-1.736-1.112-3.483-1.475-5.288-2.191-10.867-3.286-25.342-3.286-43.429l-27.875-450.88c0-24.052-2.558-39.673-7.643-46.896-0.754-1.067-1.633-2.027-2.576-2.934-0.165-0.171-0.357-0.318-0.529-0.484-0.164-0.169-0.355-0.313-0.525-0.476-0.165-0.171-0.357-0.318-0.528-0.482-0.164-0.171-0.356-0.316-0.527-0.482-0.165-0.169-0.356-0.316-0.527-0.479-0.164-0.169-0.356-0.316-0.526-0.479-0.165-0.171-0.358-0.318-0.529-0.482-0.164-0.169-0.355-0.316-0.525-0.479-0.165-0.169-0.357-0.318-0.528-0.482-0.164-0.169-0.356-0.316-0.527-0.482-0.165-0.169-0.356-0.316-0.527-0.479-0.164-0.169-0.355-0.316-0.526-0.479-0.165-0.169-0.357-0.318-0.529-0.482-0.164-0.169-0.355-0.316-0.526-0.479-0.164-0.171-0.355-0.316-0.526-0.479-0.165-0.171-0.357-0.318-0.528-0.482-0.164-0.171-0.356-0.316-0.527-0.482-0.165-0.169-0.356-0.316-0.527-0.479-0.164-0.169-0.355-0.316-0.526-0.479-0.165-0.171-0.358-0.318-0.529-0.482-0.164-0.169-0.355-0.316-0.525-0.479-0.165-0.169-0.357-0.318-0.528-0.482-0.164-0.169-0.356-0.316-0.527-0.482-0.165-0.169-0.356-0.316-0.527-0.479-0.164-0.169-0.355-0.316-0.526-0.479-0.165-0.169-0.358-0.318-0.529-0.482-0.164-0.169-0.355-0.316-0.525-0.479-0.165-0.169-0.357-0.316-0.528-0.482-0.164-0.169-0.355-0.316-0.526-0.479-0.165-0.169-0.357-0.318-0.529-0.482-0.164-0.169-0.355-0.316-0.525-0.479-0.165-0.169-0.357-0.316-0.528-0.482-0.164-0.169-0.356-0.316-0.527-0.479-0.165-0.169-0.356-0.316-0.527-0.482-0.164-0.169-0.355-0.313-0.526-0.479-0.165-0.169-0.358-0.316-0.529-0.482-0.164-0.169-0.355-0.316-0.526-0.479-0.164-0.169-0.355-0.316-0.526-0.479-0.165-0.169-0.358-0.318-0.529-0.482-0.164-0.169-0.355-0.316-0.525-0.479-0.165-0.169-0.357-0.316-0.528-0.482-0.164-0.169-0.355-0.316-0.526-0.479-0.165-0.169-0.357-0.318-0.529-0.482-0.164-0.169-0.355-0.316-0.525-0.479-0.165-0.169-0.357-0.316-0.528-0.482-0.164-0.169-0.356-0.316-0.527-0.479-0.165-0.169-0.356-0.316-0.527-0.482-0.164-0.169-0.355-0.313-0.526-0.479-0.165-0.169-0.358-0.316-0.529-0.482-0.164-0.169-0.355-0.313-0.525-0.479-0.165-0.169-0.357-0.316-0.528-0.479-0.164-0.171-0.356-0.318-0.527-0.482-0.165-0.169-0.356-0.316-0.527-0.479-0.164-0.171-0.355-0.316-0.526-0.479-0.165-0.171-0.358-0.318-0.529-0.484-0.164-0.169-0.355-0.313-0.525-0.476-0.165-0.171-0.357-0.318-0.528-0.482-0.164-0.169-0.356-0.316-0.526-0.479-0.165-0.171-0.358-0.318-0.529-0.482-0.164-0.169-0.355-0.316-0.525-0.479-0.165-0.169-0.357-0.318-0.528-0.482-0.165-0.171-0.357-0.316-0.528-0.482-0.164-0.169-0.355-0.313-0.525-0.479-0.165-0.169-0.357-0.316-0.528-0.479-0.164-0.171-0.356-0.318-0.527-0.482-0.165-0.169-0.356-0.316-0.527-0.479-0.164-0.171-0.355-0.316-0.526-0.479-0.165-0.171-0.358-0.318-0.529-0.484-0.164-0.169-0.355-0.313-0.525-0.476-0.165-0.171-0.357-0.318-0.528-0.482-0.164-0.169-0.355-0.316-0.526-0.479-0.165-0.171-0.357-0.318-0.529-0.482-0.164-0.169-0.355-0.316-0.525-0.479-0.165-0.169-0.357-0.318-0.528-0.482-0.164-0.169-0.356-0.316-0.527-0.482-5.406-5.568-14.161-8.363-26.273-8.363-12.589 0-21.888 2.406-27.875 7.193-5.996 4.809-16.184 17.983-30.572 39.564l-284.15 404.62-16.184 23.377-16.188 22.482-15.286 23.377-35.051 44.074c-10.789 11.395-24.123 17.983-40.015 19.782-15.874 1.799-26.667 4.648-32.372 8.54-5.686 3.905-8.541 10.341-8.541 19.336 0 5.427 1.828 9.481 5.468 12.178 0.185 0.152 0.331 0.335 0.527 0.482 0.185 0.152 0.331 0.335 0.527 0.479 0.185 0.152 0.33 0.335 0.526 0.479 0.185 0.155 0.332 0.338 0.528 0.482 0.185 0.152 0.331 0.335 0.527 0.482 0.185 0.152 0.331 0.335 0.527 0.479 0.185 0.152 0.331 0.335 0.527 0.479 0.185 0.152 0.332 0.337 0.527 0.482 0.185 0.152 0.331 0.335 0.526 0.479 0.185 0.152 0.331 0.335 0.526 0.482 0.186 0.152 0.332 0.335 0.528 0.479 0.185 0.155 0.33 0.335 0.525 0.479 0.185 0.155 0.331 0.338 0.527 0.482 0.185 0.152 0.332 0.335 0.527 0.482 0.185 0.152 0.331 0.335 0.526 0.479 0.185 0.152 0.331 0.335 0.526 0.479 0.185 0.155 0.331 0.337 0.527 0.482 0.185 0.152 0.332 0.335 0.527 0.482 0.185 0.152 0.331 0.335 0.526 0.479 0.185 0.152 0.331 0.335 0.526 0.479 0.186 0.155 0.332 0.338 0.528 0.482 0.185 0.152 0.33 0.335 0.525 0.479 0.185 0.152 0.331 0.335 0.527 0.482 0.185 0.152 0.332 0.335 0.527 0.479 0.185 0.152 0.331 0.337 0.527 0.482 0.185 0.152 0.33 0.335 0.526 0.479 0.186 0.152 0.332 0.335 0.528 0.482 0.185 0.152 0.33 0.335 0.525 0.479 0.185 0.152 0.332 0.335 0.528 0.482 0.185 0.152 0.332 0.335 0.528 0.479 0.185 0.152 0.33 0.335 0.525 0.479 0.185 0.155 0.331 0.335 0.527 0.482 0.185 0.152 0.331 0.335 0.526 0.479 0.186 0.155 0.332 0.338 0.528 0.482 0.185 0.152 0.33 0.335 0.525 0.479 0.185 0.152 0.331 0.335 0.527 0.482 0.185 0.152 0.332 0.335 0.527 0.479 0.185 0.152 0.331 0.335 0.526 0.482 0.185 0.152 0.331 0.335 0.526 0.479 0.186 0.152 0.332 0.335 0.528 0.482 0.185 0.152 0.33 0.335 0.525 0.479 0.185 0.152 0.331 0.335 0.527 0.479 0.185 0.155 0.332 0.338 0.527 0.482 0.185 0.152 0.331 0.335 0.526 0.479 0.185 0.155 0.331 0.335 0.526 0.482 0.185 0.152 0.331 0.335 0.527 0.479 0.185 0.152 0.332 0.337 0.527 0.482 0.185 0.152 0.331 0.335 0.527 0.479 0.185 0.155 0.33 0.335 0.526 0.482 0.186 0.152 0.332 0.335 0.528 0.479 0.185 0.152 0.33 0.335 0.525 0.479 0.185 0.155 0.332 0.337 0.528 0.482 0.185 0.155 0.332 0.335 0.528 0.482 0.185 0.152 0.33 0.335 0.525 0.479 0.185 0.152 0.331 0.335 0.527 0.479 0.185 0.155 0.332 0.337 0.527 0.482 0.185 0.152 0.331 0.335 0.526 0.479 0.185 0.155 0.331 0.335 0.526 0.482 0.185 0.152 0.331 0.335 0.527 0.479 0.185 0.152 0.332 0.338 0.527 0.482 0.185 0.152 0.331 0.335 0.526 0.479 0.185 0.152 0.331 0.335 0.526 0.482 0.186 0.152 0.332 0.335 0.528 0.479 0.185 0.155 0.33 0.335 0.525 0.479 0.185 0.155 0.331 0.338 0.527 0.482 0.185 0.152 0.332 0.335 0.527 0.482 0.185 0.152 0.331 0.335 0.526 0.479 0.185 0.152 0.331 0.335 0.526 0.479 0.186 0.155 0.332 0.337 0.528 0.482 0.185 0.152 0.33 0.335 0.525 0.479 0.185 0.155 0.331 0.335 0.527 0.482 0.185 0.152 0.332 0.335 0.527 0.479 0.185 0.155 0.331 0.338 0.527 0.482 0.185 0.152 0.33 0.335 0.526 0.479 0.185 0.152 0.332 0.335 0.528 0.482 3.589 2.964 9.101 4.485 16.641 4.485h24.276l76.43-5.397 59.344 3.23 34.171 2.166c19.177 0 28.773-6.912 28.773-20.767 0-4.741-1.473-8.662-4.255-11.852-0.744-0.944-1.585-1.834-2.555-2.651-0.177-0.158-0.343-0.324-0.528-0.479-0.176-0.161-0.341-0.327-0.525-0.479-0.177-0.161-0.343-0.327-0.527-0.482-0.177-0.161-0.343-0.327-0.528-0.482-0.176-0.158-0.341-0.324-0.525-0.479-0.177-0.158-0.343-0.324-0.528-0.479-0.176-0.161-0.342-0.327-0.526-0.482-0.177-0.161-0.343-0.324-0.528-0.482-0.176-0.158-0.341-0.324-0.525-0.479-0.177-0.158-0.343-0.324-0.527-0.479-0.176-0.161-0.343-0.327-0.527-0.482-0.176-0.161-0.342-0.324-0.527-0.479-0.176-0.161-0.342-0.324-0.526-0.482-0.177-0.158-0.343-0.324-0.528-0.479-0.176-0.161-0.341-0.327-0.525-0.479-0.177-0.161-0.343-0.327-0.527-0.482-0.176-0.161-0.343-0.324-0.527-0.482-0.176-0.158-0.342-0.324-0.527-0.479-0.176-0.161-0.342-0.324-0.526-0.479-0.177-0.161-0.343-0.327-0.528-0.482-0.176-0.161-0.341-0.324-0.525-0.479-0.177-0.161-0.343-0.327-0.527-0.482-0.176-0.158-0.342-0.324-0.526-0.479-0.177-0.161-0.343-0.327-0.528-0.482-0.176-0.161-0.341-0.324-0.525-0.479-0.177-0.161-0.343-0.327-0.527-0.482-0.176-0.158-0.343-0.324-0.527-0.479-0.176-0.161-0.342-0.327-0.526-0.482-0.176-0.158-0.343-0.324-0.527-0.479-0.176-0.161-0.342-0.324-0.527-0.482-0.176-0.158-0.342-0.324-0.527-0.479-0.176-0.161-0.342-0.324-0.526-0.479-0.177-0.161-0.343-0.327-0.528-0.482-0.176-0.161-0.341-0.324-0.525-0.479-0.177-0.161-0.343-0.327-0.527-0.482-0.176-0.158-0.342-0.324-0.526-0.479-0.177-0.161-0.343-0.327-0.528-0.482-0.176-0.161-0.341-0.324-0.525-0.479-0.177-0.161-0.343-0.327-0.527-0.482-0.176-0.158-0.343-0.324-0.527-0.479-0.176-0.161-0.342-0.327-0.527-0.482-0.176-0.158-0.342-0.324-0.526-0.479-0.177-0.161-0.343-0.327-0.528-0.482-0.176-0.158-0.341-0.324-0.525-0.479-0.177-0.158-0.343-0.327-0.527-0.479-0.176-0.161-0.343-0.327-0.527-0.482-0.176-0.161-0.342-0.324-0.526-0.479-0.176-0.161-0.342-0.327-0.526-0.482-0.177-0.158-0.343-0.324-0.527-0.479-0.176-0.161-0.343-0.327-0.527-0.482-0.176-0.161-0.342-0.324-0.526-0.479-0.176-0.161-0.343-0.327-0.527-0.482-0.176-0.158-0.342-0.324-0.527-0.479-0.176-0.161-0.343-0.327-0.527-0.482-0.176-0.158-0.342-0.324-0.526-0.479-0.177-0.161-0.343-0.327-0.528-0.482-0.176-0.158-0.341-0.324-0.525-0.479-0.177-0.158-0.343-0.327-0.527-0.479-0.176-0.161-0.343-0.327-0.527-0.482-0.176-0.161-0.342-0.324-0.526-0.479-0.176-0.161-0.342-0.327-0.526-0.482-0.177-0.158-0.343-0.324-0.528-0.479-0.176-0.161-0.341-0.327-0.525-0.479-0.177-0.161-0.343-0.327-0.527-0.482-0.176-0.161-0.342-0.324-0.526-0.482-0.177-0.158-0.343-0.324-0.528-0.479-0.176-0.161-0.341-0.327-0.525-0.479-0.177-0.161-0.343-0.327-0.527-0.482-0.176-0.161-0.343-0.327-0.527-0.482-0.176-0.158-0.342-0.324-0.526-0.479-0.176-0.161-0.342-0.324-0.526-0.479-0.177-0.161-0.343-0.327-0.528-0.482-0.176-0.161-0.341-0.324-0.525-0.479-0.259-0.234-0.536-0.457-0.812-0.68-0.594-0.512-1.321-0.95-2.002-1.41-0.321-0.207-0.579-0.446-0.918-0.642-3.865-2.354-8.938-4.033-15.318-4.988-4.452-0.528-8.62-1.165-12.511-1.905 1.185-7.849 4.606-17.009 10.355-27.516 3.02-7.22 8.15-16.862 15.398-28.902 3.626-6.009 9.358-15.354 17.211-28.001l28.073-42.443h143.15l2.437 42.631v36.867c0 16.786-2.697 28.629-8.092 35.515-5.395 6.896-15.892 11.242-31.47 13.041-15.595 1.796-26.232 4.493-31.923 8.094-5.704 3.592-8.541 9.299-8.541 17.08 0 5.791 1.797 10.091 5.355 12.938 0.178 0.158 0.339 0.329 0.528 0.482 0.178 0.158 0.339 0.329 0.527 0.479 0.178 0.158 0.339 0.329 0.527 0.482 0.178 0.158 0.339 0.329 0.526 0.479 0.178 0.158 0.34 0.329 0.528 0.482 0.178 0.158 0.338 0.329 0.525 0.479 0.178 0.158 0.339 0.329 0.528 0.479 0.178 0.161 0.339 0.329 0.526 0.482 0.178 0.158 0.34 0.329 0.528 0.479 0.178 0.158 0.338 0.332 0.525 0.479 0.178 0.161 0.339 0.332 0.528 0.482 0.178 0.158 0.339 0.332 0.527 0.482 0.178 0.158 0.339 0.329 0.527 0.479 0.177 0.158 0.339 0.329 0.526 0.479 0.178 0.161 0.34 0.332 0.528 0.482 0.178 0.158 0.339 0.329 0.526 0.482 0.178 0.158 0.339 0.329 0.526 0.479 0.178 0.158 0.34 0.329 0.528 0.482 0.178 0.158 0.338 0.329 0.525 0.479 0.178 0.158 0.339 0.329 0.528 0.479 0.178 0.161 0.339 0.329 0.526 0.482 0.178 0.158 0.34 0.329 0.528 0.479 0.178 0.158 0.338 0.332 0.525 0.479 0.178 0.161 0.339 0.332 0.528 0.482 0.178 0.158 0.339 0.332 0.527 0.482 0.178 0.158 0.339 0.329 0.527 0.479 0.177 0.158 0.338 0.329 0.526 0.479 0.178 0.161 0.34 0.332 0.528 0.482 0.177 0.158 0.338 0.329 0.525 0.479 0.178 0.158 0.339 0.332 0.528 0.482 0.177 0.158 0.339 0.329 0.527 0.479 0.178 0.161 0.339 0.332 0.527 0.482 0.178 0.158 0.339 0.329 0.526 0.479 0.178 0.158 0.34 0.332 0.528 0.482 0.178 0.158 0.338 0.329 0.525 0.479 0.178 0.158 0.339 0.332 0.528 0.482 0.178 0.158 0.339 0.329 0.526 0.479 0.178 0.158 0.34 0.332 0.528 0.482 0.177 0.158 0.338 0.329 0.525 0.479 0.178 0.158 0.339 0.329 0.528 0.482 0.178 0.158 0.34 0.329 0.528 0.479 0.177 0.158 0.338 0.329 0.525 0.479 0.178 0.158 0.34 0.332 0.528 0.482 0.177 0.158 0.339 0.329 0.527 0.479 0.178 0.161 0.339 0.332 0.527 0.482 0.178 0.158 0.339 0.329 0.526 0.479 0.178 0.158 0.34 0.332 0.528 0.482 0.178 0.158 0.338 0.329 0.525 0.479 0.178 0.158 0.339 0.332 0.528 0.482 0.178 0.158 0.339 0.329 0.526 0.479 0.178 0.158 0.34 0.332 0.528 0.482 0.178 0.158 0.338 0.329 0.525 0.479 0.178 0.158 0.339 0.329 0.528 0.482 0.178 0.158 0.339 0.329 0.527 0.479 0.178 0.158 0.339 0.329 0.527 0.482 0.178 0.158 0.339 0.329 0.526 0.479 0.178 0.158 0.34 0.329 0.528 0.482 0.178 0.158 0.338 0.329 0.525 0.479 0.178 0.158 0.339 0.329 0.528 0.479 0.178 0.161 0.339 0.332 0.527 0.482 0.178 0.158 0.339 0.329 0.527 0.479 0.177 0.158 0.338 0.329 0.526 0.479 0.178 0.161 0.339 0.332 0.528 0.482 0.178 0.158 0.339 0.332 0.528 0.482 0.178 0.158 0.338 0.329 0.525 0.479 0.178 0.158 0.339 0.329 0.528 0.482 0.178 0.158 0.339 0.329 0.527 0.479 0.178 0.158 0.339 0.329 0.527 0.482 0.178 0.158 0.339 0.329 0.526 0.479 0.178 0.158 0.34 0.329 0.528 0.482 0.178 0.158 0.338 0.329 0.525 0.479 0.178 0.158 0.339 0.329 0.528 0.479 0.178 0.161 0.339 0.332 0.527 0.482 0.178 0.158 0.339 0.329 0.527 0.479 0.177 0.158 0.338 0.329 0.526 0.479 3.441 3.064 8.696 4.632 15.852 4.632h29.675c22.772-0.898 44.198-2.025 64.29-3.372 20.075-1.353 38.507-2.025 55.296-2.025l52.964 2.697 28.772 2.7c17.984 0 26.977-6.602 26.977-19.839 0.026-5.646-2.114-10.191-6.373-13.633zm-324.27-254.79 79.36-117.42 4.554 117.42h-83.914z"/>
			<path class="st19" d="m2635.8 1210c-0.159-0.169-0.357-0.316-0.526-0.479-0.16-0.171-0.359-0.318-0.528-0.482-0.16-0.171-0.358-0.316-0.526-0.479-0.16-0.172-0.359-0.316-0.527-0.482-0.16-0.172-0.358-0.316-0.527-0.482-0.16-0.169-0.359-0.316-0.527-0.479-0.16-0.169-0.358-0.316-0.526-0.479-0.16-0.171-0.359-0.316-0.528-0.482-0.16-0.169-0.357-0.316-0.526-0.479-0.16-0.171-0.359-0.316-0.528-0.482-0.16-0.169-0.359-0.316-0.527-0.479-0.159-0.172-0.357-0.316-0.525-0.479-0.16-0.172-0.359-0.318-0.528-0.482-0.159-0.169-0.357-0.316-0.526-0.479-0.16-0.171-0.359-0.318-0.528-0.482-0.16-0.171-0.358-0.316-0.526-0.479-0.16-0.171-0.359-0.316-0.527-0.482-0.16-0.171-0.358-0.316-0.527-0.482-0.16-0.169-0.359-0.316-0.527-0.479-0.16-0.169-0.358-0.316-0.526-0.479-0.16-0.172-0.359-0.316-0.528-0.482-0.159-0.169-0.357-0.316-0.526-0.479-0.16-0.171-0.358-0.316-0.527-0.482-0.16-0.169-0.359-0.316-0.527-0.479-0.16-0.171-0.358-0.316-0.527-0.482-0.16-0.169-0.358-0.313-0.526-0.479-0.16-0.169-0.359-0.316-0.527-0.482-0.16-0.169-0.359-0.316-0.527-0.479-0.16-0.172-0.359-0.316-0.527-0.479-0.159-0.171-0.357-0.316-0.526-0.482-0.16-0.169-0.359-0.316-0.528-0.482-0.16-0.169-0.358-0.313-0.526-0.479-0.16-0.169-0.359-0.316-0.527-0.479-0.16-0.172-0.359-0.316-0.528-0.482-0.159-0.171-0.357-0.316-0.526-0.479-0.16-0.172-0.358-0.316-0.527-0.482-0.16-0.169-0.359-0.316-0.527-0.479-0.16-0.172-0.358-0.316-0.527-0.482-0.16-0.169-0.358-0.313-0.526-0.479-0.16-0.169-0.359-0.316-0.527-0.482-0.16-0.169-0.359-0.316-0.527-0.479-0.16-0.171-0.359-0.316-0.527-0.479-0.159-0.172-0.357-0.316-0.526-0.482-0.16-0.169-0.359-0.316-0.528-0.482-0.16-0.169-0.358-0.313-0.526-0.479-0.16-0.169-0.359-0.316-0.527-0.479-0.16-0.171-0.358-0.316-0.527-0.482-0.16-0.169-0.359-0.316-0.527-0.479-0.16-0.171-0.358-0.316-0.526-0.482-0.16-0.169-0.359-0.316-0.528-0.479-0.16-0.172-0.358-0.316-0.526-0.479-0.16-0.172-0.359-0.318-0.528-0.482-0.16-0.172-0.358-0.316-0.527-0.482-0.16-0.169-0.359-0.316-0.527-0.479-0.16-0.169-0.358-0.316-0.526-0.479-0.16-0.171-0.359-0.316-0.527-0.482-0.16-0.171-0.359-0.316-0.527-0.482-0.16-0.169-0.358-0.316-0.527-0.479-0.16-0.169-0.358-0.316-0.527-0.479-0.159-0.172-0.358-0.316-0.527-0.482-0.16-0.169-0.359-0.316-0.527-0.479-0.16-0.171-0.358-0.316-0.526-0.482-0.16-0.169-0.359-0.316-0.528-0.479-0.16-0.171-0.358-0.316-0.526-0.479-0.16-0.172-0.358-0.318-0.527-0.482-0.16-0.172-0.358-0.316-0.527-0.482-0.16-0.169-0.359-0.316-0.527-0.479-0.16-0.169-0.358-0.316-0.526-0.479-0.16-0.171-0.359-0.316-0.527-0.482-0.16-0.171-0.359-0.316-0.527-0.482-0.16-0.169-0.359-0.316-0.527-0.479-0.159-0.169-0.357-0.316-0.526-0.479-0.16-0.172-0.359-0.316-0.528-0.482-0.16-0.169-0.358-0.316-0.526-0.479-4.482-4.765-12.47-7.342-23.752-7.862 0.463-9.993 3.112-23.633 7.996-41.009l113.29-394.74c5.987-19.782 11.691-32.668 17.086-38.663 5.395-5.987 16.031-10.341 31.918-13.038 15.879-2.697 26.821-5.848 32.821-9.443 5.987-3.595 8.994-9.286 8.994-17.085 0-5.878-1.635-10.211-4.835-13.057-0.168-0.166-0.35-0.321-0.528-0.479-0.168-0.169-0.349-0.324-0.527-0.482-0.168-0.166-0.349-0.321-0.527-0.479-0.168-0.169-0.349-0.324-0.526-0.482-0.168-0.166-0.349-0.321-0.527-0.479-0.168-0.169-0.349-0.324-0.527-0.482-0.168-0.166-0.349-0.321-0.527-0.479-0.168-0.166-0.349-0.321-0.526-0.479-0.168-0.169-0.35-0.324-0.528-0.482-0.168-0.169-0.348-0.321-0.525-0.479-0.168-0.169-0.35-0.324-0.528-0.482-0.168-0.166-0.349-0.321-0.527-0.479-0.168-0.169-0.349-0.324-0.527-0.482-0.168-0.166-0.349-0.321-0.526-0.479-0.168-0.169-0.35-0.324-0.528-0.482-0.168-0.166-0.348-0.321-0.525-0.479-0.168-0.166-0.35-0.324-0.528-0.482-0.168-0.166-0.349-0.321-0.526-0.479-0.168-0.169-0.35-0.324-0.528-0.482-0.168-0.166-0.349-0.321-0.526-0.479-0.168-0.169-0.349-0.321-0.526-0.479-0.168-0.169-0.35-0.324-0.528-0.482-0.168-0.169-0.348-0.321-0.525-0.479-0.168-0.169-0.35-0.324-0.528-0.482-0.168-0.166-0.349-0.321-0.527-0.479-0.168-0.169-0.349-0.324-0.527-0.482-0.168-0.166-0.349-0.321-0.526-0.479-0.168-0.169-0.35-0.324-0.528-0.482-0.168-0.166-0.348-0.321-0.525-0.479-0.168-0.166-0.35-0.324-0.528-0.482-0.168-0.166-0.349-0.321-0.526-0.479-0.168-0.169-0.35-0.324-0.528-0.482-0.168-0.166-0.348-0.321-0.526-0.479-0.168-0.166-0.349-0.321-0.527-0.482-0.168-0.166-0.349-0.321-0.527-0.479-0.168-0.169-0.349-0.321-0.527-0.479-0.167-0.169-0.349-0.324-0.526-0.482-0.168-0.166-0.35-0.324-0.528-0.482-0.168-0.166-0.348-0.321-0.525-0.479-0.168-0.166-0.35-0.321-0.528-0.479-0.168-0.169-0.349-0.324-0.527-0.482-0.168-0.166-0.349-0.321-0.527-0.479-0.168-0.169-0.349-0.324-0.526-0.482-0.168-0.166-0.35-0.321-0.528-0.479-0.168-0.169-0.349-0.324-0.526-0.482-0.168-0.166-0.349-0.321-0.526-0.479-0.168-0.166-0.349-0.321-0.527-0.482-0.168-0.166-0.349-0.321-0.527-0.479-0.168-0.169-0.349-0.321-0.527-0.479-0.168-0.169-0.349-0.324-0.526-0.482-0.168-0.166-0.35-0.324-0.528-0.482-0.167-0.166-0.348-0.321-0.525-0.479-0.168-0.166-0.35-0.321-0.528-0.479-0.168-0.169-0.349-0.324-0.527-0.482-0.168-0.166-0.349-0.321-0.527-0.479-0.168-0.169-0.349-0.324-0.526-0.482-0.168-0.166-0.35-0.321-0.528-0.479-0.168-0.169-0.348-0.321-0.525-0.479-0.168-0.169-0.35-0.324-0.528-0.482-0.168-0.169-0.349-0.321-0.526-0.479-0.168-0.169-0.35-0.324-0.528-0.482-0.168-0.169-0.348-0.321-0.526-0.479-0.168-0.169-0.349-0.324-0.527-0.482-0.168-0.166-0.349-0.321-0.527-0.479-0.168-0.169-0.349-0.324-0.527-0.482-0.168-0.166-0.349-0.321-0.526-0.479-0.168-0.169-0.35-0.324-0.528-0.482-0.168-0.166-0.349-0.321-0.526-0.479-0.168-0.169-0.349-0.324-0.526-0.482-0.168-0.166-0.35-0.321-0.528-0.479-0.168-0.169-0.348-0.321-0.525-0.479-0.168-0.169-0.35-0.324-0.528-0.482-0.168-0.169-0.349-0.321-0.526-0.479-0.168-0.169-0.35-0.324-0.528-0.482-0.168-0.169-0.348-0.321-0.526-0.479-2.996-2.988-7.539-4.507-13.674-4.507l-47.658 2.879c-22.79 2.879-62.944 4.311-120.49 4.311h-28.772-20.685-41.361c-8.402 0-14.99 2.011-19.779 6.028-4.807 4.022-7.194 9.457-7.194 16.342 0 4.477 1.509 8.05 4.433 10.78 0.163 0.166 0.353 0.318 0.527 0.479 0.163 0.169 0.353 0.318 0.526 0.479 0.163 0.169 0.354 0.321 0.528 0.482 0.163 0.169 0.354 0.318 0.527 0.479 0.163 0.169 0.354 0.321 0.527 0.482 0.163 0.166 0.354 0.318 0.526 0.479 0.163 0.169 0.354 0.318 0.528 0.482 0.162 0.169 0.353 0.318 0.526 0.479 0.163 0.169 0.354 0.321 0.527 0.482 0.163 0.166 0.354 0.318 0.527 0.479 0.163 0.169 0.354 0.318 0.527 0.482 0.163 0.166 0.354 0.318 0.526 0.479 0.163 0.169 0.354 0.318 0.528 0.482 0.162 0.166 0.353 0.318 0.526 0.479 0.163 0.169 0.354 0.318 0.527 0.482 0.163 0.166 0.354 0.318 0.527 0.479 0.163 0.169 0.354 0.318 0.527 0.479 0.163 0.169 0.354 0.321 0.527 0.482 0.163 0.166 0.354 0.318 0.526 0.479 0.163 0.169 0.354 0.321 0.528 0.482 0.162 0.169 0.353 0.318 0.526 0.479 0.163 0.169 0.354 0.321 0.527 0.482 0.163 0.166 0.354 0.318 0.527 0.479 0.163 0.169 0.354 0.318 0.527 0.482 0.163 0.166 0.354 0.318 0.526 0.479 0.163 0.169 0.354 0.318 0.528 0.482 0.162 0.166 0.353 0.318 0.526 0.479 0.163 0.169 0.354 0.318 0.527 0.482 0.163 0.166 0.354 0.316 0.526 0.479 0.163 0.169 0.354 0.318 0.528 0.482 0.162 0.166 0.353 0.318 0.526 0.479 0.163 0.166 0.354 0.318 0.528 0.482 0.163 0.166 0.354 0.316 0.527 0.479 0.163 0.169 0.354 0.318 0.527 0.479 0.163 0.169 0.354 0.318 0.526 0.482 0.163 0.166 0.354 0.318 0.528 0.482 0.162 0.166 0.353 0.316 0.526 0.479 0.163 0.166 0.354 0.318 0.527 0.479 0.163 0.169 0.354 0.318 0.528 0.482 0.162 0.166 0.353 0.318 0.526 0.479 0.163 0.169 0.354 0.318 0.527 0.482 0.163 0.166 0.354 0.318 0.527 0.479 0.163 0.169 0.353 0.318 0.527 0.479 0.163 0.169 0.353 0.321 0.526 0.482 0.163 0.166 0.354 0.318 0.528 0.482 0.163 0.166 0.354 0.316 0.527 0.479 0.163 0.169 0.354 0.318 0.527 0.479 0.163 0.169 0.354 0.318 0.526 0.482 0.163 0.166 0.354 0.318 0.528 0.482 0.162 0.166 0.353 0.316 0.526 0.479 0.163 0.166 0.354 0.318 0.527 0.479 0.163 0.169 0.354 0.318 0.527 0.482 0.163 0.166 0.354 0.318 0.527 0.479 0.163 0.169 0.354 0.318 0.526 0.479 0.163 0.169 0.354 0.321 0.528 0.482 0.162 0.169 0.353 0.318 0.526 0.479 0.163 0.169 0.354 0.321 0.527 0.482 0.163 0.166 0.353 0.318 0.526 0.479 0.163 0.169 0.354 0.321 0.528 0.482 0.162 0.169 0.353 0.318 0.525 0.479 0.163 0.169 0.354 0.321 0.527 0.482 0.163 0.166 0.354 0.318 0.527 0.479 0.163 0.169 0.354 0.318 0.527 0.482 0.163 0.166 0.354 0.318 0.527 0.479 0.163 0.169 0.354 0.318 0.527 0.482 0.163 0.166 0.354 0.318 0.527 0.479 0.163 0.169 0.354 0.318 0.526 0.479 0.163 0.169 0.354 0.321 0.528 0.482 0.162 0.169 0.353 0.318 0.526 0.479 0.163 0.169 0.354 0.321 0.527 0.482 0.163 0.166 0.353 0.318 0.526 0.479 0.163 0.169 0.354 0.321 0.528 0.482 0.162 0.169 0.353 0.318 0.525 0.479 0.163 0.169 0.354 0.321 0.528 0.482 0.163 0.166 0.354 0.318 0.527 0.479 3.273 3.372 8.693 5.459 16.111 6.355-1.035 4.482-2.454 9.843-4.302 16.198l-112.4 392.94c-9.6 34.168-16.498 54.399-20.681 60.696-4.205 6.292-15.892 11.395-35.069 15.286-19.19 3.905-31.474 7.195-36.869 9.892-5.394 2.697-8.092 7.642-8.092 14.832 0 3.018 0.498 5.652 1.484 7.911-0.084-0.076-0.193-0.136-0.278-0.209-0.174-0.161-0.343-0.324-0.525-0.479-0.175-0.161-0.345-0.324-0.528-0.479-0.174-0.163-0.345-0.327-0.527-0.482-0.174-0.161-0.344-0.324-0.526-0.479-0.174-0.161-0.344-0.324-0.526-0.482-0.175-0.161-0.345-0.324-0.529-0.482-0.174-0.161-0.343-0.321-0.525-0.476-0.175-0.163-0.344-0.327-0.528-0.482-0.174-0.161-0.345-0.324-0.527-0.482-0.174-0.161-0.344-0.324-0.527-0.479-0.174-0.161-0.344-0.324-0.526-0.479-0.175-0.163-0.345-0.327-0.528-0.482-0.174-0.161-0.344-0.324-0.527-0.482-0.174-0.161-0.344-0.324-0.527-0.479-0.174-0.161-0.344-0.324-0.526-0.479-0.175-0.163-0.346-0.327-0.529-0.482-0.174-0.161-0.343-0.324-0.525-0.479-0.175-0.161-0.345-0.324-0.528-0.482-0.174-0.161-0.345-0.324-0.527-0.479-0.174-0.163-0.344-0.324-0.527-0.482-0.174-0.161-0.344-0.324-0.527-0.479-0.174-0.161-0.344-0.324-0.527-0.482-0.174-0.161-0.344-0.324-0.527-0.479-0.174-0.161-0.344-0.324-0.526-0.479-0.175-0.163-0.345-0.327-0.528-0.482-0.174-0.161-0.344-0.324-0.527-0.482-0.174-0.161-0.344-0.324-0.527-0.479-0.174-0.161-0.344-0.324-0.526-0.479-0.175-0.163-0.346-0.327-0.529-0.482-0.174-0.161-0.343-0.324-0.525-0.479-0.175-0.161-0.345-0.324-0.528-0.482-0.174-0.161-0.345-0.324-0.527-0.479-0.174-0.163-0.344-0.324-0.527-0.482-0.174-0.161-0.344-0.324-0.526-0.479-0.175-0.161-0.345-0.324-0.528-0.482-0.174-0.161-0.343-0.324-0.525-0.479-0.175-0.161-0.345-0.324-0.528-0.482-0.174-0.161-0.344-0.324-0.526-0.479-0.175-0.161-0.346-0.324-0.529-0.482-0.174-0.161-0.343-0.324-0.525-0.479-0.174-0.161-0.344-0.324-0.528-0.479-0.174-0.163-0.344-0.327-0.527-0.482-0.174-0.161-0.344-0.324-0.527-0.479-0.174-0.161-0.344-0.324-0.526-0.482-0.175-0.161-0.346-0.324-0.529-0.482-0.174-0.161-0.344-0.324-0.526-0.479-0.174-0.161-0.344-0.324-0.526-0.479-0.175-0.161-0.345-0.324-0.529-0.482-0.174-0.161-0.343-0.324-0.525-0.479-0.175-0.161-0.344-0.324-0.528-0.482-0.174-0.161-0.345-0.324-0.527-0.479-0.174-0.161-0.344-0.324-0.527-0.482-0.174-0.158-0.344-0.321-0.526-0.479-0.174-0.161-0.344-0.324-0.528-0.479-0.174-0.163-0.344-0.327-0.527-0.482-0.174-0.161-0.344-0.324-0.527-0.479-0.174-0.161-0.344-0.324-0.526-0.482-3.895-3.592-9.808-6.022-17.807-7.247-0.097-0.016-0.183-0.033-0.28-0.049 0.369-5.348 1.508-13.784 3.45-25.415 2.388-14.358 4.789-26.637 7.194-36.81l88.117-367.22c5.395-22.139 10.636-36.356 15.735-42.653 5.089-6.278 17.983-10.467 38.668-12.557 20.681-2.098 31.021-10.624 31.021-25.6 0-5.467-1.722-9.533-5.125-12.225-0.179-0.161-0.339-0.332-0.528-0.482-0.178-0.158-0.337-0.329-0.526-0.479-0.178-0.158-0.338-0.332-0.527-0.482-0.178-0.158-0.338-0.329-0.527-0.479-0.178-0.158-0.338-0.332-0.527-0.482-0.178-0.158-0.337-0.329-0.526-0.479-0.179-0.158-0.339-0.332-0.528-0.482-0.178-0.158-0.337-0.329-0.525-0.479-0.179-0.158-0.338-0.332-0.527-0.482-0.178-0.158-0.337-0.329-0.526-0.479-0.178-0.158-0.338-0.332-0.528-0.482-0.178-0.158-0.337-0.329-0.526-0.479-0.179-0.158-0.338-0.329-0.527-0.482-0.178-0.158-0.338-0.329-0.527-0.479-0.178-0.158-0.338-0.332-0.527-0.479-0.178-0.158-0.337-0.332-0.526-0.482-0.178-0.158-0.338-0.329-0.528-0.482-0.178-0.155-0.337-0.329-0.526-0.479-0.178-0.158-0.338-0.329-0.527-0.479-0.178-0.158-0.338-0.332-0.528-0.482-0.178-0.158-0.337-0.329-0.525-0.479-0.179-0.158-0.338-0.332-0.527-0.482-0.178-0.158-0.337-0.329-0.526-0.479-0.178-0.158-0.338-0.332-0.528-0.482-0.178-0.158-0.337-0.329-0.526-0.479-0.179-0.158-0.338-0.329-0.527-0.482-0.178-0.158-0.338-0.329-0.527-0.479-0.178-0.158-0.338-0.332-0.527-0.479-0.178-0.158-0.337-0.332-0.526-0.482-0.178-0.158-0.338-0.329-0.528-0.482-0.178-0.155-0.337-0.329-0.526-0.479-0.178-0.158-0.338-0.329-0.527-0.479-0.178-0.158-0.338-0.332-0.527-0.482-0.178-0.158-0.338-0.329-0.527-0.479-0.178-0.158-0.337-0.332-0.526-0.479-0.179-0.161-0.339-0.332-0.528-0.482-0.178-0.158-0.337-0.332-0.526-0.479-0.178-0.158-0.338-0.332-0.527-0.482-0.178-0.158-0.338-0.329-0.526-0.479-0.178-0.161-0.339-0.332-0.528-0.482-0.178-0.158-0.337-0.332-0.526-0.479-0.178-0.158-0.339-0.332-0.527-0.482-0.178-0.158-0.338-0.329-0.528-0.482-0.178-0.155-0.337-0.329-0.526-0.479-0.178-0.158-0.338-0.329-0.527-0.479-0.178-0.158-0.338-0.332-0.527-0.482-0.178-0.158-0.338-0.329-0.527-0.479-0.178-0.158-0.337-0.332-0.526-0.479-0.179-0.161-0.339-0.332-0.528-0.482-0.178-0.158-0.337-0.332-0.526-0.479-0.178-0.158-0.338-0.332-0.527-0.482-0.178-0.158-0.338-0.329-0.526-0.479-0.178-0.161-0.338-0.332-0.528-0.482-0.178-0.158-0.337-0.329-0.526-0.479-0.179-0.158-0.339-0.332-0.527-0.482-0.178-0.158-0.338-0.329-0.527-0.479-0.178-0.158-0.338-0.332-0.527-0.482-0.178-0.158-0.337-0.329-0.526-0.479-0.179-0.158-0.338-0.332-0.528-0.482-0.178-0.158-0.337-0.329-0.526-0.479-0.178-0.158-0.338-0.332-0.527-0.482-0.178-0.158-0.338-0.329-0.527-0.479-0.178-0.158-0.338-0.332-0.527-0.479-0.178-0.158-0.337-0.332-0.526-0.482-0.178-0.158-0.338-0.332-0.527-0.482-0.178-0.158-0.339-0.329-0.528-0.479-0.178-0.158-0.337-0.329-0.526-0.479-0.179-0.158-0.339-0.332-0.527-0.482-0.178-0.158-0.338-0.329-0.527-0.479-0.178-0.158-0.338-0.332-0.527-0.482-0.178-0.158-0.337-0.329-0.526-0.479-0.178-0.158-0.338-0.332-0.528-0.482-0.178-0.158-0.337-0.329-0.526-0.479-0.178-0.158-0.338-0.332-0.527-0.482-0.178-0.158-0.338-0.329-0.527-0.479-3.294-2.917-8.328-4.411-15.184-4.411h-96.199-39.561-34.167-8.994c-7.194 0-11.996 0.857-14.388 2.572-2.401 1.728-6.602 7.163-12.589 16.323l-206.38 318.62-10.757-274.94c0-11.985-0.902-19.475-2.697-22.482-0.326-0.642-0.906-1.184-1.662-1.655-0.168-0.136-0.275-0.297-0.473-0.425-0.186-0.155-0.304-0.337-0.527-0.479-0.186-0.155-0.304-0.34-0.527-0.482-0.186-0.155-0.304-0.337-0.526-0.479-0.186-0.155-0.305-0.337-0.528-0.482-0.186-0.155-0.303-0.337-0.526-0.479-0.186-0.155-0.304-0.337-0.527-0.479-0.186-0.158-0.304-0.34-0.527-0.482-0.186-0.155-0.304-0.337-0.527-0.479-0.186-0.158-0.304-0.34-0.527-0.482-0.186-0.155-0.304-0.337-0.528-0.479-0.186-0.158-0.303-0.34-0.526-0.482-0.186-0.155-0.304-0.337-0.527-0.479-0.186-0.158-0.304-0.337-0.527-0.479-0.186-0.158-0.304-0.34-0.528-0.482-0.186-0.155-0.303-0.34-0.526-0.479-0.186-0.158-0.304-0.34-0.527-0.482-0.186-0.155-0.304-0.337-0.527-0.479-0.186-0.158-0.304-0.34-0.526-0.482-0.186-0.155-0.304-0.337-0.527-0.479-0.186-0.158-0.304-0.34-0.528-0.482-0.186-0.155-0.303-0.337-0.526-0.479-0.186-0.158-0.304-0.34-0.527-0.482-0.186-0.155-0.305-0.337-0.528-0.479-0.185-0.158-0.303-0.34-0.526-0.482-0.186-0.155-0.304-0.337-0.527-0.479-0.186-0.158-0.304-0.34-0.527-0.482-0.186-0.155-0.304-0.337-0.527-0.479-0.186-0.155-0.304-0.337-0.527-0.479-0.186-0.158-0.304-0.34-0.527-0.482-0.186-0.155-0.304-0.337-0.527-0.479-0.186-0.158-0.304-0.34-0.527-0.482-0.186-0.155-0.304-0.337-0.527-0.479-0.186-0.158-0.304-0.34-0.528-0.482-0.186-0.155-0.303-0.337-0.526-0.479-0.186-0.158-0.304-0.34-0.527-0.482-0.186-0.155-0.304-0.337-0.527-0.479-0.186-0.158-0.304-0.34-0.527-0.482-0.186-0.155-0.304-0.337-0.527-0.479-0.186-0.158-0.304-0.34-0.528-0.482-0.186-0.155-0.303-0.337-0.526-0.479-0.186-0.155-0.304-0.34-0.527-0.482-0.186-0.155-0.304-0.337-0.527-0.479-0.186-0.155-0.304-0.337-0.528-0.482-0.186-0.155-0.303-0.337-0.526-0.479-0.186-0.155-0.304-0.337-0.527-0.479-0.186-0.158-0.305-0.34-0.528-0.482-0.185-0.155-0.303-0.337-0.526-0.479-0.186-0.158-0.304-0.34-0.527-0.482-0.186-0.155-0.304-0.337-0.527-0.479-0.186-0.158-0.304-0.34-0.527-0.482-0.186-0.155-0.304-0.337-0.526-0.479-0.186-0.158-0.305-0.34-0.528-0.482-0.186-0.155-0.303-0.337-0.526-0.479-0.186-0.155-0.304-0.34-0.527-0.482-0.186-0.155-0.304-0.337-0.527-0.479-0.186-0.155-0.304-0.337-0.528-0.482-0.186-0.155-0.303-0.337-0.526-0.479-0.186-0.155-0.304-0.337-0.527-0.479-0.186-0.158-0.304-0.34-0.527-0.482-0.186-0.155-0.304-0.337-0.527-0.479-0.186-0.158-0.304-0.34-0.527-0.482-0.186-0.155-0.304-0.337-0.528-0.479-0.186-0.158-0.303-0.34-0.526-0.482-0.186-0.155-0.304-0.337-0.527-0.479-0.186-0.158-0.304-0.34-0.527-0.482-0.186-0.155-0.304-0.337-0.527-0.479-0.186-0.155-0.304-0.337-0.527-0.479-0.186-0.158-0.304-0.34-0.528-0.482-0.186-0.155-0.304-0.337-0.526-0.479-0.186-0.158-0.304-0.34-0.526-0.482-0.186-0.155-0.304-0.337-0.527-0.479-0.186-0.158-0.304-0.34-0.527-0.482-0.186-0.155-0.304-0.337-0.527-0.479-0.172-0.144-0.261-0.321-0.464-0.454-1.855-1.633-5.625-2.504-11.57-2.504h-169.04l-33.269-3.6c-6.606 0-12.297 2.112-17.086 6.297-4.807 4.202-7.194 8.989-7.194 14.385 0 4.058 1.437 7.495 4.189 10.363 0.151 0.171 0.367 0.316 0.528 0.482 0.15 0.171 0.366 0.313 0.525 0.479 0.151 0.171 0.367 0.313 0.528 0.482 0.151 0.171 0.367 0.313 0.527 0.479 0.151 0.171 0.367 0.316 0.527 0.482 0.151 0.171 0.366 0.313 0.526 0.479 0.151 0.171 0.367 0.313 0.528 0.482 0.151 0.169 0.367 0.313 0.527 0.479 0.151 0.171 0.367 0.313 0.527 0.482 0.151 0.169 0.366 0.313 0.526 0.479 0.151 0.171 0.367 0.313 0.528 0.482 0.15 0.169 0.366 0.313 0.526 0.479 0.151 0.171 0.367 0.313 0.528 0.479 0.151 0.171 0.367 0.316 0.527 0.482 0.151 0.171 0.367 0.313 0.527 0.479 0.151 0.171 0.366 0.313 0.526 0.482 0.151 0.169 0.367 0.313 0.528 0.482 0.15 0.169 0.366 0.31 0.526 0.476 0.151 0.171 0.367 0.316 0.528 0.482 0.151 0.172 0.366 0.313 0.526 0.482 0.151 0.169 0.367 0.313 0.528 0.479 0.15 0.171 0.366 0.313 0.526 0.479 0.151 0.172 0.367 0.316 0.528 0.482 0.151 0.171 0.367 0.313 0.526 0.482 0.151 0.169 0.367 0.313 0.527 0.479 0.151 0.171 0.367 0.313 0.527 0.482 0.151 0.169 0.367 0.313 0.527 0.479 0.151 0.171 0.367 0.313 0.527 0.479 0.151 0.171 0.366 0.313 0.526 0.482 0.151 0.169 0.368 0.313 0.528 0.482 0.15 0.169 0.366 0.31 0.526 0.476 0.151 0.171 0.367 0.316 0.528 0.482 0.151 0.171 0.366 0.313 0.526 0.482 0.151 0.169 0.367 0.313 0.528 0.479 0.15 0.171 0.366 0.313 0.526 0.479 0.151 0.171 0.367 0.316 0.528 0.482 0.151 0.171 0.367 0.313 0.527 0.482 0.151 0.169 0.367 0.313 0.527 0.479 0.151 0.171 0.366 0.313 0.526 0.479 0.151 0.171 0.367 0.316 0.528 0.482 0.15 0.171 0.366 0.313 0.526 0.479 0.151 0.171 0.367 0.313 0.528 0.482 0.151 0.171 0.367 0.313 0.527 0.479 0.151 0.171 0.367 0.316 0.527 0.482 0.151 0.171 0.366 0.313 0.526 0.479 0.151 0.171 0.367 0.313 0.528 0.482 0.15 0.169 0.366 0.313 0.526 0.479 0.151 0.171 0.367 0.313 0.528 0.482 0.151 0.171 0.367 0.313 0.527 0.479 0.151 0.171 0.367 0.313 0.527 0.482 0.151 0.169 0.367 0.313 0.527 0.479 0.151 0.171 0.366 0.313 0.526 0.479 0.151 0.171 0.368 0.316 0.528 0.482 0.15 0.171 0.366 0.313 0.526 0.479 0.151 0.171 0.367 0.313 0.528 0.482 0.151 0.171 0.367 0.313 0.527 0.479 0.151 0.171 0.367 0.316 0.527 0.482 0.151 0.171 0.366 0.313 0.526 0.479 0.151 0.171 0.367 0.313 0.528 0.482 0.15 0.169 0.366 0.313 0.526 0.479 0.151 0.171 0.367 0.313 0.528 0.482 0.151 0.169 0.366 0.313 0.526 0.479 0.151 0.171 0.367 0.313 0.528 0.482 0.15 0.169 0.366 0.313 0.526 0.479 0.151 0.171 0.367 0.313 0.528 0.479 0.151 0.171 0.367 0.316 0.527 0.482 0.151 0.172 0.367 0.313 0.527 0.479 0.151 0.171 0.366 0.313 0.526 0.482 0.151 0.169 0.367 0.313 0.528 0.482 0.15 0.169 0.366 0.31 0.526 0.476 0.151 0.171 0.367 0.316 0.528 0.482 0.151 0.171 0.367 0.316 0.528 0.482 0.15 0.171 0.366 0.313 0.525 0.479 0.151 0.171 0.367 0.313 0.528 0.482 0.15 0.171 0.366 0.313 0.526 0.479 4.072 4.616 11.541 7.762 22.413 9.449 0.314 0.049 0.592 0.098 0.902 0.147-2.515 10.638-7.161 26.131-13.96 46.528l-116.89 329.1c-19.191 53.362-32.075 84.073-38.664 92.167 0 0-2.579 2.838-5.715 6.289-6.313 6.94-14.302 12.295-23.313 14.913-15.828 4.597-23.746 11.773-23.746 21.51 0 6.044 1.99 10.554 5.949 13.55 0.184 0.155 0.334 0.335 0.528 0.482 0.184 0.152 0.333 0.332 0.527 0.479 0.184 0.155 0.333 0.335 0.526 0.482 0.184 0.152 0.333 0.332 0.526 0.479 0.184 0.155 0.334 0.335 0.528 0.482 0.183 0.152 0.332 0.332 0.525 0.479 0.184 0.152 0.334 0.335 0.528 0.482 0.184 0.152 0.334 0.332 0.528 0.479 0.183 0.155 0.332 0.335 0.525 0.479 0.184 0.155 0.334 0.335 0.528 0.482 0.184 0.152 0.333 0.332 0.526 0.479 0.184 0.155 0.334 0.335 0.528 0.482 0.183 0.152 0.332 0.335 0.525 0.479 0.184 0.155 0.334 0.335 0.528 0.482 0.184 0.152 0.333 0.335 0.527 0.479 0.184 0.155 0.333 0.335 0.526 0.482 0.184 0.152 0.333 0.332 0.526 0.479 0.184 0.155 0.334 0.335 0.528 0.482 0.183 0.152 0.332 0.332 0.525 0.479 0.184 0.152 0.334 0.335 0.528 0.482 0.184 0.152 0.333 0.332 0.527 0.479 0.184 0.155 0.333 0.335 0.526 0.482 0.184 0.152 0.333 0.332 0.527 0.479 0.184 0.152 0.334 0.335 0.527 0.479 0.184 0.155 0.333 0.335 0.527 0.482 0.184 0.155 0.333 0.335 0.527 0.479 0.184 0.155 0.333 0.335 0.526 0.482 0.184 0.152 0.334 0.332 0.528 0.479 0.183 0.155 0.332 0.335 0.525 0.479 0.184 0.155 0.334 0.335 0.528 0.482 0.184 0.155 0.333 0.335 0.527 0.482 0.184 0.152 0.333 0.332 0.526 0.479 0.184 0.155 0.334 0.335 0.527 0.482 0.184 0.152 0.333 0.332 0.527 0.479 0.184 0.155 0.333 0.335 0.526 0.482 0.184 0.152 0.333 0.332 0.526 0.479 0.184 0.152 0.334 0.335 0.528 0.479 0.184 0.155 0.333 0.335 0.527 0.482 0.184 0.155 0.333 0.335 0.527 0.479 0.184 0.155 0.333 0.335 0.526 0.482 0.184 0.152 0.334 0.332 0.528 0.479 0.183 0.155 0.332 0.335 0.525 0.479 0.184 0.155 0.334 0.335 0.528 0.482 0.184 0.155 0.333 0.335 0.527 0.482 0.184 0.152 0.333 0.332 0.526 0.479 0.184 0.155 0.333 0.335 0.527 0.479 0.184 0.155 0.334 0.335 0.528 0.482 0.183 0.155 0.332 0.335 0.525 0.479 0.184 0.155 0.334 0.335 0.528 0.482 0.184 0.152 0.333 0.335 0.527 0.479 0.184 0.155 0.333 0.335 0.526 0.482 0.184 0.152 0.333 0.335 0.527 0.479 0.184 0.155 0.334 0.335 0.527 0.482 0.184 0.152 0.333 0.332 0.527 0.479 0.184 0.155 0.333 0.335 0.527 0.482 0.184 0.152 0.333 0.332 0.527 0.479 0.184 0.155 0.333 0.335 0.527 0.482 0.184 0.152 0.333 0.332 0.526 0.479 0.184 0.152 0.333 0.335 0.526 0.479 0.184 0.155 0.334 0.335 0.528 0.482 0.183 0.155 0.332 0.335 0.525 0.479 0.184 0.155 0.334 0.335 0.528 0.482 0.184 0.152 0.333 0.335 0.527 0.479 0.184 0.155 0.333 0.335 0.526 0.482 0.184 0.152 0.333 0.332 0.526 0.479 0.184 0.155 0.334 0.335 0.528 0.482 0.184 0.152 0.333 0.335 0.527 0.479 0.184 0.155 0.333 0.335 0.527 0.482 0.184 0.152 0.333 0.332 0.526 0.479 0.184 0.155 0.334 0.335 0.528 0.482 0.183 0.152 0.332 0.332 0.525 0.479 0.184 0.152 0.334 0.335 0.528 0.482 0.184 0.152 0.333 0.332 0.527 0.479 0.184 0.155 0.333 0.335 0.526 0.482 0.184 0.152 0.333 0.332 0.527 0.479 3.89 3.249 9.842 4.912 17.956 4.912l69.859-2.697 53.052 2.161 33.269 3.233c19.177 0 28.773-7.223 28.773-21.665 0-6.091-2.197-10.771-6.45-14.13-0.16-0.144-0.317-0.291-0.484-0.433-0.175-0.161-0.343-0.327-0.526-0.479-0.176-0.163-0.344-0.327-0.528-0.482-0.175-0.161-0.343-0.327-0.526-0.482-0.175-0.158-0.343-0.324-0.526-0.479-0.175-0.161-0.344-0.327-0.528-0.482-0.175-0.161-0.342-0.324-0.525-0.479-0.175-0.161-0.344-0.324-0.528-0.479-0.175-0.161-0.343-0.327-0.527-0.482-0.175-0.161-0.343-0.324-0.527-0.479-0.175-0.161-0.343-0.327-0.526-0.479-0.175-0.163-0.344-0.327-0.528-0.482-0.175-0.161-0.343-0.327-0.527-0.482-0.175-0.161-0.343-0.324-0.527-0.479-0.175-0.161-0.343-0.327-0.526-0.479-0.175-0.163-0.344-0.327-0.528-0.482-0.175-0.161-0.342-0.324-0.525-0.479-0.175-0.161-0.344-0.327-0.528-0.482-0.175-0.161-0.343-0.327-0.527-0.479-0.175-0.161-0.343-0.327-0.527-0.482-0.174-0.161-0.343-0.324-0.526-0.479-0.175-0.161-0.344-0.327-0.528-0.482-0.174-0.161-0.342-0.324-0.525-0.479-0.175-0.161-0.344-0.327-0.528-0.482-0.174-0.161-0.343-0.324-0.526-0.479-0.176-0.161-0.344-0.327-0.528-0.482-0.174-0.161-0.343-0.324-0.526-0.479-0.175-0.161-0.343-0.327-0.526-0.479-0.175-0.163-0.344-0.327-0.528-0.482-0.175-0.161-0.342-0.324-0.525-0.479-0.175-0.161-0.344-0.327-0.528-0.482-0.175-0.161-0.343-0.327-0.527-0.479-0.175-0.161-0.343-0.327-0.527-0.482-0.175-0.161-0.343-0.324-0.526-0.479-0.175-0.161-0.344-0.327-0.528-0.482-0.174-0.161-0.342-0.324-0.525-0.479-0.175-0.161-0.344-0.327-0.528-0.482-0.175-0.161-0.343-0.324-0.527-0.479-0.175-0.161-0.343-0.327-0.527-0.482-0.175-0.158-0.343-0.324-0.526-0.479-0.175-0.161-0.344-0.327-0.528-0.482-0.175-0.161-0.343-0.324-0.527-0.479-0.175-0.161-0.343-0.324-0.527-0.482-0.175-0.158-0.343-0.324-0.526-0.479-0.175-0.161-0.344-0.327-0.528-0.482-0.175-0.161-0.342-0.324-0.525-0.479-0.175-0.161-0.344-0.324-0.528-0.479-0.175-0.161-0.343-0.327-0.527-0.482-0.175-0.161-0.343-0.324-0.527-0.479-0.175-0.161-0.344-0.327-0.527-0.482-0.175-0.161-0.343-0.324-0.527-0.479-0.175-0.161-0.343-0.327-0.527-0.482-0.175-0.158-0.343-0.324-0.526-0.479-0.175-0.161-0.344-0.327-0.528-0.482-0.175-0.161-0.343-0.324-0.527-0.479-0.175-0.161-0.343-0.324-0.527-0.482-0.175-0.158-0.343-0.324-0.526-0.479-0.175-0.161-0.344-0.327-0.528-0.482-0.175-0.161-0.342-0.324-0.525-0.479-0.175-0.161-0.344-0.324-0.528-0.479-0.175-0.161-0.343-0.327-0.527-0.482-0.175-0.161-0.343-0.324-0.527-0.479-0.174-0.161-0.343-0.327-0.526-0.479-0.175-0.163-0.344-0.327-0.528-0.484-0.175-0.158-0.342-0.321-0.525-0.476-0.175-0.161-0.344-0.327-0.528-0.482-0.174-0.161-0.343-0.327-0.526-0.479-0.175-0.163-0.344-0.327-0.528-0.482-0.175-0.161-0.342-0.324-0.525-0.479-0.175-0.161-0.344-0.327-0.528-0.482-0.175-0.161-0.343-0.327-0.527-0.479-0.175-0.161-0.343-0.327-0.527-0.482-0.16-0.147-0.308-0.302-0.475-0.444-3.72-3.821-9.571-6.27-17.705-7.247-7.552-1.208-14.21-2.425-20.164-3.655-8e-3 -0.468-0.043-0.898-0.043-1.377 0-12.633 0.898-23.012 2.697-31.133 1.795-8.123 8.384-31.149 19.779-69.07l14.388-48.738 55.226-150.57 9.942 295.6c0 18.03 2.096 29.748 6.297 35.156 0.596 0.77 1.293 1.469 2.048 2.131 0.171 0.163 0.348 0.324 0.528 0.482 0.171 0.163 0.347 0.321 0.527 0.479 0.171 0.163 0.347 0.324 0.527 0.482 0.17 0.161 0.346 0.321 0.526 0.479 0.171 0.163 0.348 0.324 0.529 0.482 0.171 0.163 0.347 0.321 0.526 0.479 0.171 0.163 0.346 0.321 0.526 0.479 0.171 0.163 0.348 0.324 0.528 0.482 0.17 0.163 0.347 0.324 0.527 0.479 0.171 0.163 0.347 0.324 0.527 0.482 0.17 0.163 0.346 0.321 0.526 0.479 0.172 0.163 0.348 0.324 0.529 0.482 0.17 0.163 0.346 0.321 0.525 0.479 0.171 0.163 0.348 0.324 0.528 0.482 0.171 0.163 0.347 0.321 0.527 0.479 0.171 0.163 0.347 0.324 0.527 0.482 0.17 0.161 0.346 0.321 0.526 0.479 0.171 0.163 0.348 0.324 0.529 0.482 0.17 0.161 0.346 0.321 0.525 0.479 0.171 0.163 0.348 0.324 0.528 0.479 0.17 0.163 0.346 0.324 0.526 0.482 0.171 0.163 0.348 0.324 0.529 0.482 0.17 0.161 0.346 0.321 0.525 0.476 0.171 0.166 0.348 0.324 0.528 0.482 0.171 0.163 0.347 0.324 0.527 0.482 0.171 0.163 0.347 0.321 0.527 0.479 0.17 0.163 0.346 0.324 0.526 0.479 0.171 0.166 0.348 0.324 0.529 0.482 0.17 0.163 0.347 0.324 0.526 0.482 0.17 0.161 0.346 0.321 0.526 0.479 0.171 0.163 0.348 0.324 0.529 0.482 0.17 0.161 0.346 0.321 0.525 0.479 0.171 0.163 0.348 0.324 0.528 0.479 0.17 0.163 0.347 0.324 0.527 0.482 0.171 0.163 0.347 0.321 0.527 0.479 0.17 0.163 0.346 0.324 0.526 0.479 0.171 0.166 0.348 0.324 0.528 0.482 0.171 0.163 0.347 0.324 0.527 0.482 0.171 0.163 0.347 0.321 0.527 0.479 0.17 0.163 0.346 0.324 0.526 0.479 0.171 0.166 0.348 0.324 0.529 0.482 0.17 0.163 0.346 0.324 0.525 0.479 0.171 0.163 0.348 0.324 0.528 0.482 0.171 0.163 0.347 0.324 0.527 0.479 0.171 0.163 0.347 0.324 0.527 0.482 0.17 0.163 0.346 0.321 0.526 0.479 0.171 0.163 0.348 0.324 0.529 0.482 0.17 0.163 0.346 0.321 0.525 0.479 0.171 0.163 0.348 0.324 0.528 0.482 0.17 0.163 0.346 0.321 0.526 0.479 0.172 0.163 0.348 0.324 0.529 0.482 0.17 0.163 0.347 0.321 0.526 0.479 0.17 0.163 0.346 0.324 0.526 0.479 0.172 0.163 0.348 0.324 0.529 0.482 0.17 0.163 0.346 0.324 0.525 0.479 0.171 0.163 0.348 0.324 0.528 0.482 0.17 0.163 0.347 0.324 0.527 0.479 0.171 0.163 0.347 0.324 0.527 0.482 0.171 0.163 0.346 0.321 0.526 0.479 0.171 0.163 0.348 0.324 0.529 0.482 0.17 0.163 0.346 0.321 0.525 0.479 0.171 0.163 0.348 0.324 0.528 0.482 0.17 0.163 0.346 0.321 0.526 0.479 0.172 0.163 0.348 0.324 0.529 0.482 0.17 0.163 0.346 0.321 0.525 0.479 0.171 0.163 0.348 0.324 0.528 0.482 0.171 0.163 0.347 0.321 0.527 0.479 0.171 0.163 0.347 0.324 0.527 0.482 0.17 0.161 0.346 0.321 0.526 0.479 0.171 0.163 0.348 0.324 0.529 0.482 0.17 0.161 0.346 0.321 0.525 0.479 0.171 0.163 0.348 0.324 0.528 0.479 0.171 0.163 0.347 0.324 0.527 0.482 0.171 0.163 0.347 0.321 0.527 0.479 0.17 0.163 0.346 0.324 0.526 0.479 4.486 4.297 12.06 6.455 22.754 6.455 11.395 0 20.385-2.697 26.991-8.091 6.589-5.397 16.776-18.571 30.572-39.548l204.2-304.4-51.831 202.24c-8.401 32.973-15.147 53.501-20.232 61.591-5.098 8.091-13.644 12.742-25.626 13.936l-9.892 1.799-10.789 0.901-15.286 2.7c-10.789 3.595-16.184 10.491-16.184 20.68 0 6.398 1.955 11.15 5.825 14.296 0.177 0.161 0.34 0.329 0.526 0.482 0.178 0.158 0.342 0.329 0.528 0.482 0.177 0.158 0.34 0.327 0.525 0.479 0.177 0.158 0.341 0.329 0.528 0.479 0.177 0.158 0.34 0.329 0.527 0.482 0.177 0.158 0.341 0.329 0.527 0.479 0.177 0.158 0.34 0.329 0.526 0.482 0.177 0.158 0.342 0.329 0.528 0.479 0.177 0.161 0.34 0.329 0.525 0.479 0.178 0.161 0.341 0.329 0.528 0.482 0.177 0.158 0.34 0.329 0.526 0.479 0.177 0.161 0.342 0.329 0.528 0.482 0.177 0.158 0.34 0.329 0.525 0.479 0.178 0.161 0.341 0.329 0.528 0.482 0.177 0.158 0.341 0.329 0.527 0.479 0.177 0.161 0.341 0.329 0.527 0.482 0.177 0.158 0.34 0.329 0.526 0.479 0.178 0.161 0.342 0.329 0.528 0.482 0.177 0.158 0.34 0.329 0.525 0.479 0.178 0.161 0.341 0.329 0.528 0.482 0.177 0.158 0.341 0.329 0.527 0.479 0.177 0.158 0.341 0.329 0.527 0.479 0.177 0.161 0.34 0.332 0.527 0.482 0.177 0.158 0.34 0.329 0.526 0.479 0.177 0.161 0.342 0.329 0.528 0.482 0.177 0.158 0.34 0.329 0.525 0.479 0.178 0.161 0.341 0.329 0.528 0.482 0.177 0.158 0.341 0.329 0.527 0.479 0.177 0.161 0.341 0.329 0.527 0.482 0.177 0.158 0.34 0.329 0.526 0.479 0.178 0.161 0.342 0.329 0.528 0.482 0.177 0.158 0.34 0.329 0.525 0.479 0.178 0.161 0.341 0.329 0.528 0.482 0.177 0.158 0.341 0.329 0.527 0.479 0.177 0.158 0.341 0.329 0.527 0.479 0.177 0.161 0.34 0.329 0.526 0.482 0.178 0.158 0.341 0.329 0.528 0.482 0.177 0.158 0.341 0.327 0.527 0.479 0.177 0.158 0.341 0.329 0.527 0.479 0.177 0.161 0.34 0.329 0.526 0.482 0.178 0.158 0.342 0.329 0.528 0.482 0.177 0.158 0.34 0.327 0.525 0.479 0.177 0.158 0.341 0.329 0.528 0.479 0.177 0.158 0.34 0.329 0.527 0.482 0.177 0.158 0.341 0.329 0.527 0.479 0.177 0.158 0.341 0.329 0.527 0.482 0.177 0.158 0.341 0.329 0.527 0.479 0.177 0.158 0.341 0.329 0.527 0.479 0.177 0.161 0.34 0.329 0.526 0.482 0.178 0.158 0.342 0.329 0.528 0.482 0.177 0.158 0.34 0.327 0.525 0.479 0.178 0.158 0.341 0.329 0.528 0.479 0.177 0.161 0.34 0.329 0.526 0.482 0.178 0.158 0.342 0.329 0.528 0.482 0.177 0.158 0.34 0.327 0.525 0.479 0.178 0.158 0.341 0.329 0.528 0.479 0.177 0.158 0.34 0.329 0.527 0.482 0.177 0.158 0.341 0.329 0.527 0.479 0.177 0.158 0.34 0.329 0.526 0.482 0.177 0.158 0.342 0.329 0.528 0.479 0.177 0.161 0.34 0.329 0.525 0.479 0.178 0.161 0.341 0.329 0.528 0.482 0.177 0.158 0.341 0.329 0.527 0.482 0.177 0.158 0.341 0.327 0.527 0.479 0.177 0.158 0.34 0.329 0.526 0.479 0.178 0.161 0.341 0.329 0.528 0.482 0.177 0.158 0.341 0.329 0.527 0.479 0.177 0.161 0.341 0.329 0.527 0.482 0.177 0.158 0.341 0.329 0.527 0.479 0.177 0.161 0.341 0.329 0.527 0.482 0.177 0.158 0.341 0.329 0.526 0.479 0.177 0.161 0.341 0.329 0.526 0.482 0.177 0.158 0.342 0.329 0.528 0.479 0.177 0.161 0.34 0.329 0.525 0.479 0.178 0.161 0.341 0.329 0.528 0.482 3.741 3.353 9.44 5.065 17.177 5.065l44.961-3.595c21.578-2.392 47.348-3.6 77.328-3.6 26.977 0 61.737 2.406 104.3 7.195h28.772c20.977 0 31.474-6.885 31.474-20.656 0-3.217-0.696-6.033-1.946-8.532 0.018 0.014 0.042 0.022 0.06 0.035 0.184 0.155 0.333 0.335 0.526 0.482 0.185 0.152 0.334 0.335 0.528 0.482 0.183 0.152 0.333 0.332 0.525 0.479 0.184 0.152 0.334 0.332 0.528 0.479 0.184 0.155 0.333 0.335 0.526 0.482 0.184 0.152 0.334 0.335 0.528 0.479 0.184 0.155 0.333 0.335 0.526 0.482 0.184 0.152 0.333 0.332 0.526 0.479 0.185 0.152 0.334 0.335 0.528 0.482 0.183 0.152 0.333 0.332 0.525 0.479 0.184 0.152 0.334 0.335 0.528 0.482 0.184 0.152 0.333 0.332 0.527 0.479 0.184 0.152 0.333 0.335 0.527 0.479 0.184 0.155 0.333 0.335 0.526 0.482 0.184 0.152 0.334 0.335 0.528 0.482 0.183 0.152 0.333 0.332 0.525 0.479 0.184 0.152 0.334 0.332 0.528 0.479 0.184 0.155 0.333 0.335 0.526 0.482 0.184 0.152 0.334 0.335 0.528 0.479 0.183 0.155 0.332 0.335 0.525 0.479 0.184 0.155 0.334 0.335 0.528 0.482 0.184 0.155 0.333 0.335 0.527 0.482 0.184 0.152 0.333 0.332 0.527 0.479 0.184 0.155 0.333 0.335 0.526 0.479 0.184 0.155 0.334 0.335 0.528 0.482 0.183 0.152 0.332 0.332 0.525 0.479 0.184 0.155 0.334 0.335 0.528 0.482 0.184 0.152 0.333 0.335 0.527 0.479 0.184 0.155 0.333 0.335 0.527 0.482 0.184 0.152 0.334 0.332 0.527 0.479 0.184 0.155 0.333 0.335 0.527 0.482 0.184 0.152 0.333 0.332 0.527 0.479 0.184 0.155 0.333 0.335 0.526 0.482 0.184 0.152 0.334 0.332 0.528 0.479 0.184 0.155 0.333 0.335 0.527 0.482 0.184 0.152 0.333 0.332 0.527 0.479 0.184 0.155 0.333 0.335 0.526 0.479 0.184 0.155 0.334 0.335 0.528 0.482 0.183 0.152 0.332 0.332 0.525 0.479 0.184 0.155 0.334 0.335 0.528 0.482 0.184 0.152 0.333 0.335 0.527 0.479 0.184 0.155 0.333 0.335 0.527 0.482 0.184 0.152 0.333 0.332 0.526 0.479 0.185 0.155 0.334 0.335 0.528 0.482 0.183 0.152 0.333 0.332 0.525 0.479 0.184 0.152 0.334 0.335 0.528 0.482 0.184 0.152 0.333 0.332 0.526 0.479 0.184 0.152 0.334 0.335 0.528 0.482 0.183 0.152 0.332 0.332 0.525 0.479 0.184 0.152 0.334 0.335 0.528 0.482 0.184 0.152 0.333 0.332 0.527 0.479 0.184 0.152 0.333 0.335 0.527 0.479 0.184 0.155 0.333 0.335 0.526 0.482 0.184 0.152 0.334 0.335 0.528 0.482 0.184 0.152 0.333 0.332 0.526 0.479 0.184 0.152 0.333 0.332 0.526 0.479 0.185 0.155 0.334 0.335 0.528 0.482 0.183 0.152 0.333 0.332 0.525 0.479 3.891 3.249 9.843 4.909 17.954 4.909h3.6c37.766-3.595 61.436-5.685 71.036-6.292 9.582-0.591 23.67-0.898 42.259-0.898l97.111 3.595h52.15c18.576 0 27.875-6.45 27.875-19.347 0-5.255-1.695-9.454-4.978-12.66-0.169-0.171-0.368-0.318-0.536-0.481z"/>
			<path class="st19" d="m3832.4 1211.6c-0.184-0.155-0.333-0.329-0.525-0.479-0.185-0.158-0.335-0.329-0.529-0.482-0.184-0.155-0.333-0.329-0.525-0.479-0.184-0.155-0.335-0.329-0.527-0.482-0.185-0.155-0.335-0.329-0.527-0.479-0.185-0.158-0.335-0.329-0.527-0.482-0.184-0.155-0.334-0.329-0.526-0.479-0.185-0.155-0.335-0.329-0.528-0.482-0.184-0.155-0.333-0.327-0.525-0.479-0.185-0.155-0.335-0.329-0.528-0.479-0.184-0.158-0.334-0.329-0.526-0.482-0.185-0.155-0.334-0.329-0.527-0.479-0.185-0.155-0.334-0.329-0.527-0.482-0.185-0.155-0.335-0.329-0.527-0.479-0.184-0.158-0.334-0.329-0.527-0.482-0.184-0.155-0.333-0.329-0.527-0.479-0.184-0.155-0.333-0.329-0.527-0.482-0.184-0.155-0.335-0.329-0.527-0.479-0.185-0.158-0.335-0.329-0.527-0.482-0.184-0.155-0.334-0.329-0.526-0.479-0.185-0.155-0.335-0.329-0.528-0.482-0.184-0.155-0.333-0.327-0.525-0.479-0.185-0.155-0.335-0.329-0.528-0.479-0.184-0.158-0.333-0.329-0.527-0.482-0.184-0.155-0.333-0.329-0.527-0.479-0.184-0.155-0.333-0.329-0.526-0.482-0.184-0.155-0.335-0.329-0.527-0.479-0.185-0.158-0.335-0.329-0.527-0.482-0.185-0.155-0.334-0.329-0.527-0.479-0.184-0.155-0.334-0.329-0.526-0.482-0.185-0.155-0.335-0.329-0.528-0.479-0.184-0.158-0.333-0.329-0.525-0.479-0.185-0.158-0.335-0.332-0.528-0.482-0.184-0.155-0.334-0.329-0.527-0.482-0.184-0.155-0.334-0.327-0.527-0.479-0.184-0.155-0.334-0.329-0.527-0.479-0.184-0.158-0.335-0.332-0.528-0.482-0.184-0.155-0.333-0.329-0.525-0.479-0.185-0.155-0.335-0.329-0.528-0.482-0.184-0.155-0.333-0.329-0.527-0.479-0.184-0.158-0.333-0.329-0.527-0.482-0.184-0.155-0.334-0.329-0.527-0.479-0.184-0.155-0.334-0.329-0.527-0.482-0.184-0.155-0.335-0.329-0.528-0.479-0.184-0.158-0.333-0.329-0.525-0.479-0.185-0.158-0.335-0.332-0.528-0.482-0.184-0.155-0.333-0.329-0.527-0.482-0.184-0.155-0.333-0.327-0.527-0.479-0.184-0.155-0.333-0.329-0.526-0.479-0.184-0.158-0.335-0.332-0.529-0.482-0.184-0.155-0.333-0.329-0.525-0.479-0.184-0.155-0.335-0.329-0.527-0.482-0.184-0.155-0.334-0.329-0.527-0.479-0.184-0.158-0.334-0.329-0.527-0.482-0.184-0.155-0.333-0.329-0.525-0.479-0.185-0.155-0.335-0.329-0.528-0.482-0.184-0.155-0.334-0.329-0.527-0.479-0.184-0.158-0.335-0.329-0.527-0.482-0.184-0.155-0.334-0.329-0.527-0.479-0.184-0.155-0.335-0.329-0.528-0.482-0.184-0.155-0.333-0.327-0.525-0.479-0.185-0.155-0.335-0.329-0.528-0.479-0.184-0.158-0.333-0.329-0.527-0.482-0.184-0.155-0.333-0.329-0.527-0.479-0.184-0.155-0.334-0.329-0.527-0.482-0.184-0.155-0.335-0.329-0.527-0.479-0.184-0.158-0.334-0.329-0.527-0.482-0.184-0.155-0.334-0.329-0.526-0.479-0.185-0.155-0.335-0.329-0.528-0.482-0.184-0.155-0.333-0.329-0.526-0.479-0.184-0.158-0.334-0.329-0.527-0.482-0.184-0.155-0.333-0.329-0.526-0.479-0.184-0.155-0.335-0.329-0.529-0.482-0.184-0.155-0.333-0.327-0.525-0.479-0.184-0.155-0.335-0.329-0.527-0.479-4.341-3.668-10.964-6.15-19.968-7.394-0.61-0.084-1.16-0.21-1.756-0.302-2.091-10.78-3.17-24.887-3.17-42.552l-27.876-450.88c0-24.052-2.558-39.673-7.642-46.896-0.754-1.067-1.634-2.027-2.577-2.936-0.164-0.169-0.356-0.316-0.527-0.479-0.165-0.171-0.356-0.318-0.527-0.482-0.165-0.169-0.356-0.316-0.527-0.479-0.165-0.171-0.356-0.316-0.527-0.482-0.165-0.169-0.356-0.316-0.527-0.479-0.165-0.169-0.356-0.316-0.526-0.479-0.165-0.171-0.357-0.318-0.529-0.482-0.164-0.169-0.355-0.316-0.525-0.479-0.165-0.169-0.356-0.318-0.528-0.482-0.164-0.169-0.356-0.316-0.527-0.482-0.165-0.169-0.356-0.316-0.527-0.479-0.164-0.169-0.355-0.316-0.525-0.479-0.165-0.169-0.358-0.318-0.529-0.482-0.163-0.169-0.355-0.316-0.525-0.479-0.165-0.169-0.357-0.316-0.528-0.482-0.164-0.169-0.356-0.316-0.526-0.479-0.165-0.169-0.357-0.316-0.529-0.482-0.164-0.169-0.354-0.316-0.525-0.479-0.165-0.169-0.356-0.316-0.528-0.482-0.165-0.169-0.356-0.316-0.527-0.479-0.165-0.169-0.356-0.316-0.527-0.482-0.165-0.169-0.356-0.313-0.526-0.479-0.165-0.169-0.357-0.316-0.529-0.482-0.164-0.169-0.355-0.313-0.525-0.479-0.165-0.169-0.356-0.316-0.528-0.479-0.164-0.171-0.356-0.318-0.527-0.482-0.165-0.169-0.356-0.316-0.527-0.479-0.165-0.171-0.356-0.318-0.527-0.482-0.165-0.169-0.356-0.316-0.526-0.479-0.165-0.169-0.357-0.318-0.529-0.482-0.164-0.169-0.355-0.316-0.525-0.479-0.165-0.169-0.356-0.316-0.528-0.482-0.164-0.169-0.356-0.316-0.527-0.479-0.165-0.169-0.356-0.316-0.527-0.482-0.164-0.169-0.355-0.313-0.525-0.479-0.165-0.169-0.358-0.316-0.529-0.482-0.163-0.169-0.355-0.313-0.524-0.479-0.165-0.169-0.357-0.316-0.528-0.479-0.164-0.171-0.356-0.318-0.527-0.482-0.165-0.169-0.356-0.316-0.527-0.479-0.163-0.171-0.355-0.316-0.525-0.479-0.165-0.171-0.356-0.318-0.528-0.482-0.165-0.171-0.357-0.316-0.527-0.482-0.165-0.169-0.357-0.316-0.527-0.479-0.165-0.169-0.356-0.316-0.526-0.479-0.166-0.171-0.357-0.318-0.529-0.482-0.164-0.169-0.355-0.316-0.525-0.479-0.165-0.169-0.356-0.318-0.528-0.482-0.164-0.169-0.356-0.316-0.527-0.482-0.165-0.169-0.356-0.316-0.526-0.479-0.165-0.169-0.357-0.316-0.527-0.479-0.165-0.171-0.357-0.318-0.527-0.482-0.165-0.169-0.357-0.316-0.527-0.479-0.164-0.171-0.356-0.316-0.526-0.479-0.165-0.171-0.357-0.318-0.529-0.484-0.164-0.169-0.354-0.313-0.524-0.476-0.165-0.171-0.356-0.318-0.528-0.482-0.164-0.169-0.355-0.316-0.525-0.479-0.165-0.171-0.358-0.318-0.529-0.482-0.163-0.169-0.355-0.316-0.525-0.479-0.165-0.169-0.357-0.318-0.528-0.482-0.164-0.169-0.356-0.316-0.527-0.482-0.165-0.169-0.356-0.316-0.527-0.479-0.163-0.169-0.355-0.316-0.525-0.479-0.165-0.169-0.358-0.318-0.529-0.482-0.163-0.169-0.354-0.316-0.524-0.479-0.165-0.169-0.357-0.316-0.528-0.482-0.165-0.169-0.356-0.316-0.527-0.479-0.165-0.169-0.356-0.316-0.527-0.482-0.164-0.169-0.356-0.313-0.526-0.479-0.165-0.169-0.357-0.316-0.528-0.482-0.164-0.169-0.356-0.316-0.527-0.479-0.165-0.169-0.356-0.316-0.527-0.482-0.165-0.169-0.356-0.316-0.527-0.479-0.165-0.169-0.356-0.316-0.527-0.482-5.406-5.568-14.161-8.363-26.274-8.363-12.588 0-21.887 2.406-27.874 7.193-5.997 4.809-16.184 17.983-30.573 39.564l-284.15 404.62-16.184 23.377-16.188 22.482-15.286 23.377-35.051 44.074c-8.248 8.708-10.967 14.6-18.881 17.703 9.285-31.873 26.553-92.705 26.553-92.705 6.589-23.377 14.079-39.562 22.48-48.556 8.388-8.989 20.371-13.487 35.967-13.487 24.572-2.289 36.864-10.605 36.864-24.966 0-4.137-1.261-7.408-3.667-9.89-0.152-0.174-0.364-0.31-0.528-0.479-0.152-0.177-0.363-0.313-0.527-0.482-0.152-0.174-0.364-0.31-0.527-0.479-0.152-0.177-0.363-0.313-0.526-0.482-0.153-0.174-0.365-0.31-0.528-0.479-0.152-0.177-0.363-0.313-0.526-0.479-0.152-0.177-0.364-0.313-0.528-0.482-0.152-0.177-0.363-0.313-0.527-0.482-0.152-0.174-0.364-0.31-0.527-0.479-0.152-0.177-0.364-0.313-0.527-0.479-0.152-0.177-0.363-0.313-0.526-0.482-0.153-0.177-0.365-0.313-0.528-0.482-0.152-0.174-0.363-0.31-0.526-0.479-0.152-0.174-0.364-0.31-0.528-0.479-0.152-0.177-0.363-0.313-0.527-0.482-0.152-0.174-0.364-0.31-0.527-0.479-0.152-0.177-0.363-0.313-0.526-0.482-0.153-0.174-0.365-0.31-0.528-0.479-0.152-0.177-0.363-0.313-0.526-0.479-0.152-0.177-0.364-0.313-0.528-0.482-0.152-0.177-0.363-0.313-0.527-0.482-0.152-0.174-0.364-0.31-0.527-0.479-0.152-0.177-0.363-0.31-0.526-0.479-0.152-0.177-0.364-0.313-0.528-0.482-0.152-0.177-0.363-0.313-0.527-0.479-0.152-0.177-0.364-0.313-0.527-0.482-0.153-0.174-0.363-0.31-0.526-0.479-0.153-0.177-0.364-0.313-0.528-0.482-0.152-0.177-0.363-0.31-0.526-0.479-0.152-0.177-0.364-0.313-0.528-0.482-0.152-0.174-0.363-0.31-0.527-0.479-0.152-0.177-0.364-0.313-0.527-0.482-0.152-0.174-0.363-0.31-0.526-0.479-0.153-0.177-0.365-0.313-0.528-0.482-0.152-0.174-0.363-0.31-0.527-0.479-0.152-0.177-0.363-0.31-0.526-0.479-0.152-0.177-0.364-0.313-0.528-0.482-0.152-0.177-0.363-0.313-0.527-0.479-0.152-0.177-0.364-0.313-0.527-0.482-0.153-0.174-0.363-0.31-0.526-0.479-0.153-0.177-0.364-0.313-0.528-0.482-0.152-0.177-0.363-0.31-0.526-0.479-0.152-0.177-0.364-0.313-0.528-0.482-0.152-0.174-0.363-0.31-0.527-0.479-0.152-0.177-0.364-0.313-0.527-0.482-0.152-0.174-0.363-0.31-0.526-0.479-0.153-0.177-0.365-0.313-0.528-0.482-0.152-0.174-0.363-0.31-0.526-0.479-0.152-0.174-0.364-0.31-0.528-0.479-0.152-0.177-0.363-0.313-0.527-0.482-0.152-0.177-0.364-0.313-0.527-0.479-0.152-0.177-0.363-0.313-0.526-0.482-0.152-0.174-0.364-0.31-0.528-0.479-0.153-0.177-0.363-0.313-0.527-0.482-0.152-0.174-0.364-0.31-0.527-0.479-0.152-0.177-0.363-0.313-0.526-0.482-0.153-0.174-0.364-0.31-0.528-0.479-0.152-0.177-0.363-0.313-0.527-0.482-0.152-0.174-0.363-0.31-0.526-0.479-0.153-0.177-0.365-0.313-0.528-0.482-0.152-0.174-0.363-0.31-0.526-0.479-0.152-0.174-0.364-0.31-0.528-0.479-0.152-0.177-0.363-0.313-0.527-0.482-0.152-0.177-0.364-0.313-0.527-0.479-0.152-0.177-0.363-0.313-0.526-0.482-0.152-0.174-0.364-0.31-0.528-0.479-0.153-0.177-0.363-0.313-0.527-0.482-0.152-0.174-0.364-0.31-0.527-0.479-0.152-0.177-0.363-0.313-0.526-0.482-0.153-0.174-0.364-0.31-0.528-0.479-0.152-0.177-0.363-0.313-0.526-0.479-0.152-0.177-0.364-0.313-0.528-0.482-0.152-0.177-0.363-0.313-0.527-0.482-0.152-0.174-0.364-0.31-0.527-0.479-0.153-0.177-0.363-0.31-0.526-0.479-3.508-4.055-9.952-6.088-19.335-6.088h-43.161c-20.99 2.406-44.664 3.598-71.036 3.598h-9.891-11.687l-80.927-2.697-44.961-0.901c-20.99 0-31.47 6.605-31.47 19.782 0 7.127 2.275 12.078 6.714 14.968 0.135 0.128 0.288 0.242 0.429 0.365 0.17 0.166 0.347 0.327 0.527 0.482 0.17 0.166 0.348 0.324 0.528 0.482 0.17 0.163 0.346 0.321 0.525 0.479 0.17 0.163 0.348 0.324 0.528 0.479 0.17 0.166 0.347 0.327 0.527 0.482 0.17 0.163 0.347 0.324 0.527 0.479 0.17 0.166 0.347 0.324 0.526 0.482 0.17 0.163 0.348 0.324 0.528 0.479 0.17 0.166 0.346 0.324 0.526 0.479 0.17 0.166 0.347 0.327 0.527 0.482 0.17 0.166 0.347 0.324 0.527 0.482 0.17 0.163 0.347 0.324 0.527 0.479 0.17 0.163 0.346 0.324 0.526 0.479 0.17 0.166 0.347 0.327 0.527 0.482 0.17 0.166 0.347 0.324 0.527 0.482 0.17 0.163 0.347 0.321 0.527 0.479 0.17 0.163 0.347 0.324 0.526 0.479 0.17 0.166 0.348 0.327 0.528 0.482 0.17 0.166 0.346 0.324 0.525 0.479 0.17 0.166 0.348 0.324 0.528 0.482 0.17 0.163 0.347 0.324 0.527 0.479 0.17 0.166 0.347 0.324 0.527 0.482 0.17 0.163 0.347 0.324 0.526 0.479 0.171 0.166 0.348 0.324 0.528 0.482 0.17 0.163 0.347 0.324 0.526 0.479 0.17 0.163 0.346 0.324 0.526 0.479 0.17 0.166 0.348 0.327 0.528 0.482 0.17 0.166 0.346 0.324 0.525 0.479 0.17 0.166 0.347 0.324 0.527 0.482 0.17 0.163 0.347 0.324 0.526 0.479 0.17 0.166 0.348 0.327 0.528 0.482 0.17 0.166 0.346 0.324 0.525 0.479 0.17 0.166 0.348 0.324 0.528 0.482 0.17 0.163 0.347 0.324 0.527 0.479 0.17 0.166 0.347 0.324 0.527 0.482 0.17 0.163 0.347 0.324 0.526 0.479 0.171 0.166 0.348 0.324 0.528 0.482 0.17 0.163 0.346 0.324 0.526 0.479 0.17 0.163 0.347 0.324 0.527 0.479 0.17 0.166 0.347 0.327 0.527 0.482 0.17 0.166 0.347 0.324 0.527 0.479 0.17 0.166 0.347 0.324 0.526 0.482 0.17 0.163 0.347 0.324 0.527 0.479 0.17 0.166 0.347 0.327 0.527 0.482 0.17 0.163 0.347 0.324 0.527 0.479 0.17 0.166 0.347 0.324 0.526 0.482 0.17 0.163 0.348 0.324 0.528 0.479 0.17 0.166 0.347 0.324 0.526 0.482 0.17 0.163 0.347 0.324 0.526 0.479 0.171 0.166 0.348 0.324 0.528 0.482 0.17 0.163 0.346 0.324 0.526 0.479 0.17 0.163 0.347 0.324 0.527 0.479 0.17 0.166 0.347 0.327 0.527 0.482 0.17 0.166 0.347 0.324 0.527 0.479 0.17 0.166 0.347 0.324 0.526 0.482 0.17 0.163 0.347 0.324 0.527 0.479 0.17 0.166 0.347 0.327 0.527 0.482 0.17 0.163 0.347 0.324 0.527 0.479 0.17 0.166 0.347 0.324 0.526 0.482 0.17 0.163 0.348 0.324 0.528 0.479 0.17 0.166 0.346 0.324 0.525 0.479 0.17 0.166 0.348 0.327 0.528 0.482 0.17 0.166 0.347 0.324 0.527 0.482 0.17 0.163 0.347 0.324 0.527 0.479 0.17 0.163 0.347 0.324 0.526 0.479 0.17 0.166 0.348 0.327 0.528 0.482 0.17 0.166 0.346 0.324 0.526 0.479 0.17 0.166 0.347 0.324 0.527 0.482 0.17 0.163 0.347 0.324 0.527 0.479 0.091 0.09 0.159 0.199 0.253 0.283 3.099 3.775 8.107 5.729 15.171 5.729 4.009 0.514 7.654 1.045 11.134 1.584-0.203 7.43-1.345 14.165-3.511 20.128l-33.269 117.28c-4.807 16.13-10.044 26.431-15.735 30.894-5.704 4.485-16.044 6.719-31.021 6.719-33.163 0-61.629-7.236-85.465-21.633-23.609-31.318-35.453-71.963-35.453-122 0-53.43 12.279-105.06 36.864-154.91 24.572-49.835 58.137-91.873 100.71-126.1 35.967-28.812 74.025-51.027 114.19-66.637 40.154-15.607 79.424-23.418 117.79-23.418 0.405 0 0.771 0.027 1.17 0.033 0.102 1.837 0.156 3.742 0.156 5.729l-1.795 45.859c0 15.618 3.166 26.226 9.452 31.92 0.171 0.169 0.352 0.321 0.528 0.482 0.171 0.166 0.35 0.318 0.525 0.479 0.171 0.166 0.351 0.321 0.528 0.482 0.171 0.166 0.351 0.318 0.527 0.479 0.171 0.169 0.351 0.321 0.527 0.479 0.171 0.169 0.35 0.321 0.526 0.482 0.171 0.166 0.352 0.321 0.528 0.482 0.171 0.166 0.35 0.318 0.525 0.479 0.171 0.166 0.351 0.321 0.528 0.479 0.171 0.169 0.35 0.321 0.526 0.482 0.171 0.166 0.352 0.321 0.528 0.482 0.17 0.166 0.35 0.318 0.525 0.479 0.171 0.166 0.352 0.321 0.528 0.479 0.171 0.169 0.351 0.321 0.527 0.482 0.171 0.166 0.351 0.318 0.527 0.479 0.171 0.166 0.35 0.321 0.526 0.479 0.171 0.169 0.352 0.324 0.528 0.482 0.171 0.169 0.35 0.321 0.525 0.479 0.171 0.169 0.352 0.321 0.528 0.482 0.171 0.166 0.351 0.321 0.527 0.479 0.171 0.169 0.351 0.321 0.527 0.482 0.171 0.166 0.351 0.321 0.527 0.479 0.171 0.169 0.351 0.321 0.527 0.482 0.171 0.166 0.351 0.321 0.527 0.479 0.171 0.169 0.35 0.321 0.526 0.482 0.172 0.166 0.352 0.321 0.528 0.479 0.171 0.169 0.351 0.321 0.527 0.482 0.171 0.166 0.351 0.318 0.527 0.479 0.171 0.166 0.35 0.321 0.526 0.479 0.171 0.169 0.352 0.324 0.528 0.482 0.171 0.169 0.35 0.321 0.525 0.479 0.171 0.169 0.352 0.321 0.528 0.482 0.171 0.166 0.351 0.321 0.527 0.479 0.171 0.169 0.351 0.321 0.527 0.482 0.171 0.166 0.35 0.321 0.526 0.479 0.171 0.169 0.352 0.321 0.528 0.482 0.171 0.166 0.35 0.321 0.525 0.479 0.171 0.166 0.351 0.321 0.528 0.482 0.171 0.166 0.35 0.321 0.526 0.479 0.172 0.169 0.352 0.321 0.528 0.482 0.17 0.166 0.35 0.318 0.526 0.479 0.171 0.166 0.351 0.321 0.528 0.482 0.171 0.166 0.351 0.318 0.527 0.479 0.171 0.169 0.351 0.321 0.527 0.479 0.171 0.169 0.351 0.321 0.527 0.482 0.171 0.166 0.351 0.321 0.527 0.479 0.171 0.169 0.351 0.321 0.527 0.482 0.171 0.166 0.35 0.321 0.526 0.479 0.171 0.169 0.352 0.321 0.528 0.482 0.171 0.166 0.35 0.321 0.525 0.479 0.171 0.166 0.351 0.321 0.528 0.482 0.171 0.166 0.35 0.321 0.526 0.479 0.172 0.169 0.352 0.321 0.528 0.482 0.17 0.166 0.35 0.318 0.526 0.479 0.171 0.166 0.351 0.321 0.528 0.482 0.171 0.166 0.351 0.318 0.527 0.479 0.171 0.169 0.351 0.321 0.527 0.479 0.171 0.169 0.35 0.321 0.526 0.482 0.171 0.166 0.352 0.321 0.528 0.482 0.171 0.166 0.35 0.318 0.525 0.479 0.171 0.166 0.352 0.321 0.528 0.479 0.171 0.169 0.351 0.321 0.526 0.482 0.171 0.166 0.351 0.321 0.527 0.479 0.171 0.166 0.35 0.321 0.526 0.482 0.171 0.166 0.352 0.321 0.528 0.479 0.171 0.169 0.35 0.321 0.525 0.479 0.171 0.169 0.352 0.321 0.528 0.482 0.171 0.166 0.35 0.321 0.526 0.479 0.171 0.169 0.351 0.324 0.528 0.482 0.171 0.169 0.351 0.321 0.527 0.479 0.171 0.169 0.35 0.321 0.526 0.482 0.171 0.166 0.352 0.321 0.528 0.482 0.171 0.166 0.35 0.318 0.525 0.479 0.172 0.166 0.352 0.321 0.528 0.479 0.171 0.169 0.351 0.321 0.526 0.482 3.682 3.598 8.485 5.429 14.452 5.429 14.388 0 26.075-15.583 35.069-46.762l22.476-68.332c3.599-8.349 5.399-15.161 5.399-20.443 0-4.703-1.895-8.668-5.672-11.898-0.232-0.218-0.44-0.441-0.688-0.65-0.176-0.161-0.342-0.324-0.527-0.479-0.176-0.161-0.341-0.324-0.526-0.482-0.177-0.161-0.343-0.324-0.528-0.482-0.176-0.158-0.341-0.321-0.525-0.476-0.177-0.161-0.342-0.327-0.528-0.482-0.177-0.161-0.342-0.324-0.528-0.482-0.176-0.158-0.34-0.321-0.525-0.479-0.177-0.161-0.342-0.324-0.528-0.482-0.176-0.158-0.341-0.324-0.526-0.479-0.176-0.161-0.342-0.324-0.527-0.479-0.176-0.161-0.341-0.324-0.526-0.482-0.177-0.158-0.342-0.324-0.528-0.479-0.176-0.161-0.341-0.327-0.527-0.482-0.176-0.161-0.342-0.324-0.527-0.479-0.176-0.161-0.341-0.324-0.526-0.482-0.177-0.158-0.343-0.324-0.529-0.482-0.176-0.158-0.34-0.321-0.525-0.476-0.177-0.161-0.342-0.327-0.528-0.482-0.176-0.161-0.342-0.324-0.527-0.482-0.176-0.158-0.341-0.321-0.526-0.479-0.176-0.161-0.341-0.324-0.526-0.479-0.177-0.161-0.343-0.327-0.528-0.482-0.176-0.161-0.341-0.324-0.525-0.479-0.177-0.161-0.342-0.324-0.528-0.482-0.176-0.161-0.341-0.324-0.526-0.479-0.177-0.161-0.343-0.327-0.528-0.482-0.176-0.161-0.341-0.324-0.525-0.479-0.177-0.161-0.342-0.324-0.528-0.482-0.177-0.161-0.342-0.324-0.528-0.482-0.176-0.158-0.34-0.321-0.525-0.476-0.177-0.161-0.342-0.327-0.528-0.482-0.176-0.161-0.341-0.324-0.527-0.482-0.176-0.158-0.342-0.321-0.527-0.479-0.176-0.161-0.341-0.324-0.526-0.479-0.177-0.161-0.343-0.327-0.529-0.482-0.176-0.161-0.34-0.324-0.525-0.479-0.177-0.161-0.342-0.324-0.528-0.482-0.176-0.161-0.34-0.324-0.525-0.479-0.177-0.161-0.343-0.327-0.529-0.482-0.176-0.161-0.34-0.324-0.525-0.479-0.177-0.161-0.342-0.324-0.528-0.482-0.176-0.161-0.342-0.324-0.527-0.479-0.176-0.161-0.342-0.324-0.527-0.482-0.176-0.158-0.341-0.324-0.526-0.479-0.177-0.161-0.343-0.324-0.528-0.482-0.176-0.161-0.34-0.321-0.525-0.479-0.177-0.161-0.342-0.324-0.528-0.482-0.176-0.158-0.342-0.324-0.527-0.479-0.176-0.161-0.341-0.324-0.526-0.479-0.176-0.161-0.341-0.324-0.526-0.482-0.177-0.161-0.343-0.324-0.528-0.482-0.176-0.158-0.341-0.321-0.525-0.476-0.177-0.161-0.342-0.327-0.528-0.482-0.176-0.161-0.342-0.324-0.527-0.482-0.176-0.161-0.341-0.324-0.527-0.479-0.176-0.161-0.342-0.324-0.527-0.482-0.176-0.158-0.341-0.324-0.526-0.479-0.177-0.161-0.343-0.324-0.529-0.482-0.176-0.158-0.34-0.321-0.525-0.479-0.177-0.161-0.342-0.324-0.528-0.482-0.176-0.158-0.341-0.324-0.527-0.479-0.176-0.161-0.342-0.324-0.527-0.479-0.176-0.161-0.341-0.324-0.526-0.482-0.177-0.158-0.343-0.324-0.529-0.482-0.176-0.158-0.34-0.321-0.525-0.476-0.177-0.161-0.342-0.327-0.528-0.482-0.176-0.161-0.341-0.324-0.526-0.482-0.177-0.161-0.343-0.324-0.528-0.482-0.176-0.158-0.341-0.321-0.525-0.476-0.177-0.161-0.342-0.327-0.528-0.482-0.176-0.161-0.342-0.324-0.527-0.482-0.176-0.158-0.342-0.324-0.527-0.479-0.176-0.161-0.341-0.324-0.526-0.479-0.225-0.204-0.456-0.405-0.695-0.604-3.747-3.296-9.404-5.846-17.006-7.636-29.378-6.436-63.253-9.669-101.61-9.669-56.957 0-114.96 8.404-173.99 25.179-59.053 16.789-114.05 40.168-165 70.139-62.351 36.568-110.6 80.334-144.76 131.28-34.172 50.956-51.253 104.91-51.253 161.85 0 66.931 24.792 122.24 74.386 165.94 0.178 0.158 0.345 0.321 0.524 0.476 0.181 0.161 0.352 0.327 0.534 0.487 0.177 0.158 0.343 0.318 0.52 0.474 0.18 0.161 0.349 0.324 0.53 0.484 0.179 0.158 0.348 0.321 0.527 0.482 0.178 0.158 0.347 0.321 0.526 0.479 0.178 0.158 0.345 0.318 0.524 0.476 0.18 0.161 0.349 0.324 0.53 0.484 0.179 0.158 0.348 0.321 0.527 0.479 0.179 0.161 0.347 0.324 0.526 0.482s0.348 0.321 0.527 0.479 0.348 0.324 0.527 0.482c0.178 0.158 0.347 0.321 0.526 0.479 0.178 0.158 0.345 0.321 0.524 0.476 0.181 0.161 0.352 0.327 0.534 0.487 0.177 0.158 0.343 0.318 0.52 0.474 0.18 0.161 0.349 0.324 0.53 0.484 0.179 0.158 0.348 0.321 0.527 0.482 0.178 0.158 0.347 0.321 0.526 0.479 0.178 0.158 0.345 0.318 0.524 0.476 0.18 0.161 0.349 0.324 0.53 0.484 0.179 0.158 0.348 0.321 0.527 0.479 0.179 0.161 0.347 0.324 0.526 0.482 0.178 0.158 0.345 0.318 0.523 0.476 0.181 0.161 0.352 0.327 0.534 0.487 0.177 0.155 0.343 0.316 0.52 0.474 0.18 0.158 0.349 0.324 0.53 0.484 0.179 0.158 0.348 0.321 0.527 0.479s0.347 0.321 0.526 0.479c0.178 0.158 0.345 0.321 0.523 0.479 0.181 0.161 0.352 0.327 0.534 0.484 0.177 0.158 0.343 0.318 0.52 0.476 0.18 0.158 0.349 0.324 0.53 0.482 0.179 0.158 0.348 0.324 0.527 0.482 0.178 0.158 0.347 0.321 0.526 0.479s0.348 0.324 0.527 0.482c0.178 0.158 0.345 0.318 0.523 0.476 0.181 0.161 0.352 0.327 0.534 0.487 0.177 0.155 0.343 0.316 0.52 0.474 0.18 0.158 0.349 0.324 0.53 0.484 0.179 0.158 0.348 0.321 0.527 0.479s0.347 0.321 0.526 0.479c0.178 0.158 0.345 0.321 0.523 0.479 0.181 0.161 0.352 0.327 0.534 0.484 0.177 0.158 0.343 0.318 0.52 0.476 0.18 0.158 0.349 0.324 0.53 0.482 0.179 0.158 0.348 0.324 0.527 0.482 0.178 0.158 0.347 0.321 0.526 0.479 0.178 0.158 0.345 0.321 0.524 0.476 0.18 0.161 0.349 0.327 0.53 0.484 0.179 0.158 0.348 0.324 0.527 0.482s0.347 0.321 0.526 0.479c0.178 0.158 0.345 0.321 0.523 0.476 0.181 0.161 0.352 0.327 0.534 0.487 0.177 0.158 0.343 0.318 0.52 0.474 0.18 0.161 0.349 0.324 0.53 0.484 0.179 0.158 0.348 0.321 0.527 0.482 0.179 0.158 0.347 0.321 0.526 0.479s0.348 0.321 0.527 0.479 0.348 0.324 0.527 0.482c0.178 0.158 0.347 0.321 0.526 0.479 0.178 0.158 0.345 0.321 0.524 0.476 0.18 0.161 0.349 0.327 0.53 0.484 0.179 0.158 0.348 0.324 0.527 0.482s0.347 0.321 0.526 0.479c0.178 0.158 0.345 0.321 0.523 0.476 0.181 0.161 0.352 0.327 0.534 0.487 0.177 0.158 0.343 0.318 0.52 0.474 0.18 0.161 0.349 0.324 0.53 0.484 0.179 0.158 0.348 0.321 0.527 0.482 0.179 0.158 0.347 0.321 0.526 0.479 0.178 0.158 0.345 0.318 0.523 0.476 0.181 0.161 0.352 0.327 0.534 0.487 0.177 0.155 0.343 0.318 0.52 0.474 0.18 0.161 0.349 0.324 0.53 0.484 3.439 3.045 6.984 6.044 10.663 8.981 56.338 44.955 129.48 67.434 219.4 67.434 77.54 0 145.96-23.581 187.01-49.753 0.013 8e-3 0.031 0.016 0.043 0.025 0.186 0.155 0.332 0.337 0.528 0.482 0.185 0.152 0.33 0.335 0.525 0.479 0.185 0.152 0.332 0.335 0.528 0.482 0.185 0.152 0.331 0.335 0.527 0.479 0.185 0.152 0.331 0.338 0.527 0.482 0.185 0.152 0.331 0.335 0.527 0.479 0.185 0.152 0.332 0.335 0.527 0.482 0.185 0.152 0.331 0.335 0.526 0.479 0.185 0.152 0.331 0.335 0.526 0.479 0.185 0.155 0.331 0.337 0.527 0.482 0.186 0.152 0.332 0.335 0.527 0.482 0.185 0.152 0.331 0.335 0.526 0.479 0.185 0.152 0.331 0.335 0.526 0.479 0.186 0.155 0.333 0.338 0.528 0.482 0.185 0.152 0.33 0.335 0.525 0.479 0.185 0.152 0.331 0.335 0.527 0.482 0.186 0.152 0.332 0.335 0.527 0.479 0.185 0.152 0.331 0.335 0.526 0.482 0.185 0.152 0.331 0.335 0.526 0.479 0.186 0.152 0.332 0.335 0.528 0.482 0.185 0.152 0.33 0.335 0.525 0.479 0.186 0.152 0.332 0.335 0.527 0.479 0.185 0.155 0.332 0.337 0.527 0.482 0.185 0.152 0.331 0.335 0.526 0.479 0.185 0.155 0.331 0.335 0.526 0.482 0.185 0.152 0.332 0.335 0.528 0.479 0.185 0.155 0.331 0.338 0.527 0.482 0.185 0.152 0.331 0.335 0.527 0.479 0.185 0.155 0.33 0.335 0.526 0.482 0.186 0.152 0.332 0.335 0.528 0.479 0.185 0.155 0.331 0.337 0.526 0.482 0.185 0.152 0.331 0.335 0.526 0.479 0.186 0.152 0.332 0.335 0.528 0.482 0.185 0.152 0.33 0.335 0.525 0.479 0.186 0.152 0.331 0.335 0.527 0.479 0.185 0.155 0.332 0.338 0.527 0.482 0.185 0.152 0.331 0.335 0.526 0.479 0.185 0.155 0.331 0.335 0.526 0.482 0.185 0.152 0.331 0.335 0.527 0.479 0.185 0.152 0.332 0.337 0.527 0.482 0.185 0.152 0.331 0.335 0.526 0.479 0.185 0.152 0.331 0.335 0.526 0.482 0.186 0.152 0.333 0.335 0.528 0.479 0.185 0.155 0.33 0.335 0.525 0.479 0.185 0.155 0.331 0.337 0.527 0.482 0.186 0.152 0.332 0.335 0.527 0.482 0.185 0.152 0.331 0.335 0.526 0.479 0.185 0.152 0.331 0.335 0.526 0.479 0.186 0.155 0.332 0.337 0.528 0.482 0.185 0.152 0.33 0.335 0.525 0.479 0.185 0.155 0.332 0.338 0.528 0.482 0.185 0.152 0.33 0.335 0.526 0.479 0.186 0.155 0.332 0.338 0.528 0.482 0.185 0.152 0.331 0.335 0.526 0.479 0.185 0.152 0.331 0.335 0.526 0.482 0.186 0.152 0.333 0.335 0.528 0.479 0.185 0.155 0.33 0.335 0.525 0.479 0.185 0.155 0.331 0.338 0.527 0.482 0.186 0.152 0.332 0.335 0.527 0.482 0.185 0.152 0.331 0.335 0.526 0.479 0.185 0.152 0.331 0.335 0.526 0.479 0.186 0.155 0.333 0.337 0.528 0.482 0.185 0.152 0.33 0.335 0.525 0.479 0.186 0.155 0.332 0.335 0.527 0.482 0.186 0.152 0.332 0.335 0.527 0.479 0.185 0.155 0.331 0.338 0.526 0.482 0.185 0.152 0.331 0.335 0.526 0.479 0.185 0.152 0.331 0.335 0.527 0.482 3.589 2.961 9.101 4.485 16.641 4.485l57.019-3.47c21.083-1.285 42.221-1.35 63.311-0.201l27.683 1.505 34.172 2.166c19.177 0 28.772-6.912 28.772-20.767 0-4.741-1.473-8.662-4.255-11.852-0.744-0.944-1.584-1.834-2.555-2.651-0.177-0.158-0.343-0.324-0.528-0.479-0.176-0.161-0.341-0.327-0.525-0.479-0.177-0.161-0.343-0.327-0.527-0.482-0.176-0.161-0.343-0.324-0.527-0.482-0.176-0.158-0.342-0.324-0.527-0.479-0.176-0.161-0.342-0.324-0.526-0.479-0.177-0.161-0.343-0.327-0.527-0.482-0.176-0.161-0.343-0.324-0.527-0.479-0.176-0.161-0.342-0.327-0.527-0.482-0.176-0.158-0.342-0.324-0.526-0.479-0.177-0.161-0.343-0.327-0.528-0.482-0.176-0.161-0.341-0.324-0.525-0.479-0.177-0.161-0.343-0.327-0.527-0.482-0.176-0.158-0.343-0.324-0.527-0.479-0.176-0.161-0.342-0.327-0.526-0.482-0.176-0.158-0.342-0.324-0.526-0.479-0.177-0.161-0.343-0.327-0.528-0.482-0.176-0.158-0.342-0.324-0.526-0.479-0.176-0.161-0.342-0.324-0.526-0.479-0.177-0.161-0.343-0.327-0.528-0.482-0.176-0.161-0.341-0.324-0.525-0.479-0.177-0.161-0.343-0.327-0.527-0.482-0.176-0.158-0.342-0.324-0.526-0.479-0.177-0.161-0.343-0.327-0.528-0.482-0.176-0.161-0.341-0.324-0.525-0.479-0.177-0.161-0.343-0.327-0.527-0.482-0.176-0.158-0.343-0.324-0.527-0.479-0.176-0.161-0.342-0.327-0.527-0.482-0.176-0.158-0.342-0.324-0.526-0.479-0.177-0.161-0.343-0.327-0.528-0.482-0.176-0.158-0.341-0.324-0.525-0.479-0.177-0.158-0.343-0.327-0.527-0.479-0.176-0.161-0.343-0.327-0.527-0.482-0.176-0.161-0.342-0.324-0.526-0.479-0.176-0.161-0.342-0.327-0.526-0.482-0.177-0.158-0.343-0.324-0.527-0.479-0.176-0.161-0.343-0.327-0.527-0.482-0.176-0.161-0.342-0.324-0.526-0.479-0.176-0.161-0.342-0.327-0.526-0.482-0.177-0.158-0.343-0.324-0.528-0.479-0.176-0.161-0.342-0.327-0.526-0.482-0.176-0.158-0.342-0.324-0.526-0.479-0.177-0.161-0.343-0.327-0.528-0.482-0.176-0.158-0.341-0.324-0.525-0.479-0.177-0.158-0.343-0.327-0.527-0.479-0.176-0.161-0.343-0.327-0.527-0.482-0.176-0.161-0.342-0.324-0.527-0.479-0.176-0.161-0.342-0.327-0.526-0.482-0.177-0.158-0.343-0.324-0.527-0.479-0.176-0.161-0.343-0.327-0.527-0.482-0.176-0.161-0.342-0.324-0.527-0.479-0.176-0.161-0.342-0.324-0.526-0.482-0.177-0.158-0.343-0.324-0.528-0.479-0.176-0.161-0.341-0.327-0.525-0.479-0.177-0.161-0.343-0.327-0.527-0.482-0.176-0.161-0.343-0.324-0.527-0.482-0.176-0.158-0.342-0.324-0.527-0.479-0.176-0.161-0.342-0.324-0.526-0.479-0.177-0.161-0.343-0.327-0.528-0.482-0.176-0.161-0.341-0.324-0.525-0.479-0.177-0.161-0.343-0.327-0.527-0.482-0.176-0.158-0.343-0.324-0.527-0.479-0.176-0.161-0.342-0.327-0.526-0.482-0.176-0.158-0.342-0.324-0.526-0.479-0.177-0.161-0.343-0.327-0.527-0.482-0.177-0.158-0.343-0.324-0.528-0.479-0.176-0.161-0.341-0.327-0.525-0.479-0.177-0.161-0.343-0.327-0.527-0.482-0.176-0.161-0.343-0.324-0.527-0.482-0.176-0.158-0.342-0.324-0.527-0.479-0.176-0.161-0.342-0.324-0.526-0.479-0.177-0.161-0.343-0.327-0.528-0.482-0.176-0.161-0.341-0.324-0.525-0.479-0.259-0.234-0.536-0.457-0.812-0.68-0.594-0.512-1.321-0.95-2.002-1.41-0.321-0.207-0.579-0.446-0.918-0.642-3.865-2.354-8.938-4.033-15.318-4.988-4.451-0.528-8.62-1.165-12.511-1.905 1.185-7.849 4.606-17.009 10.354-27.516 3.021-7.22 8.15-16.862 15.398-28.902 3.626-6.009 9.358-15.354 17.212-28.001l28.072-42.443h143.15l2.438 42.631v36.867c0 16.786-2.697 28.629-8.092 35.515-5.395 6.896-15.892 11.242-31.469 13.041-15.596 1.796-26.232 4.493-31.923 8.094-5.704 3.592-8.541 9.299-8.541 17.08 0 5.791 1.797 10.091 5.355 12.938 0.178 0.158 0.339 0.329 0.528 0.482 0.177 0.158 0.339 0.329 0.527 0.479 0.178 0.158 0.339 0.329 0.527 0.482 0.177 0.158 0.339 0.329 0.527 0.479 0.178 0.158 0.339 0.329 0.527 0.479 0.178 0.161 0.339 0.332 0.527 0.482 0.177 0.158 0.338 0.329 0.526 0.479 0.178 0.158 0.339 0.332 0.528 0.482 0.177 0.158 0.339 0.329 0.527 0.479 0.178 0.158 0.339 0.332 0.527 0.482 0.178 0.158 0.339 0.329 0.526 0.479 0.178 0.158 0.34 0.332 0.528 0.482 0.178 0.158 0.338 0.329 0.525 0.479 0.178 0.158 0.339 0.329 0.528 0.482 0.177 0.158 0.339 0.329 0.527 0.479 0.178 0.158 0.339 0.329 0.527 0.482 0.177 0.158 0.338 0.329 0.526 0.479 0.178 0.158 0.34 0.329 0.528 0.482 0.177 0.158 0.338 0.329 0.525 0.479 0.178 0.158 0.34 0.329 0.528 0.479 0.177 0.161 0.338 0.329 0.526 0.482 0.178 0.158 0.34 0.329 0.528 0.479 0.177 0.158 0.338 0.332 0.525 0.479 0.178 0.161 0.34 0.332 0.528 0.482 0.177 0.158 0.339 0.332 0.527 0.482 0.178 0.158 0.339 0.329 0.527 0.479 0.178 0.158 0.339 0.332 0.527 0.482 0.177 0.158 0.339 0.329 0.527 0.479 0.178 0.158 0.339 0.329 0.527 0.482 0.177 0.158 0.338 0.329 0.526 0.479 0.178 0.158 0.34 0.329 0.528 0.482 0.177 0.158 0.338 0.329 0.525 0.479 0.178 0.158 0.34 0.329 0.528 0.479 0.177 0.161 0.339 0.332 0.527 0.482 0.178 0.158 0.339 0.329 0.527 0.479 0.177 0.158 0.338 0.329 0.526 0.479 0.178 0.161 0.34 0.332 0.528 0.482 0.177 0.158 0.339 0.332 0.527 0.482 0.178 0.158 0.339 0.329 0.527 0.479 0.178 0.158 0.339 0.329 0.526 0.479 0.178 0.161 0.34 0.332 0.528 0.482 0.178 0.158 0.338 0.329 0.525 0.479 0.178 0.158 0.339 0.332 0.528 0.482 0.178 0.158 0.339 0.329 0.527 0.479 0.178 0.161 0.339 0.332 0.527 0.482 0.178 0.158 0.339 0.329 0.526 0.479 0.178 0.161 0.34 0.332 0.528 0.482 0.178 0.158 0.338 0.329 0.525 0.479 0.178 0.158 0.339 0.332 0.528 0.482 0.177 0.158 0.338 0.329 0.526 0.479 0.178 0.158 0.34 0.332 0.528 0.482 0.177 0.158 0.339 0.329 0.526 0.479 0.178 0.158 0.339 0.329 0.526 0.479 0.178 0.161 0.34 0.332 0.528 0.482 0.178 0.158 0.338 0.329 0.525 0.479 0.178 0.158 0.339 0.332 0.528 0.482 0.177 0.158 0.339 0.329 0.527 0.479 0.178 0.161 0.339 0.332 0.527 0.482 0.178 0.158 0.339 0.329 0.526 0.479 0.178 0.158 0.34 0.332 0.528 0.482 0.178 0.158 0.338 0.329 0.525 0.479 0.178 0.158 0.339 0.332 0.528 0.482 0.177 0.158 0.338 0.329 0.526 0.479 0.178 0.158 0.34 0.332 0.528 0.482 0.177 0.158 0.338 0.329 0.525 0.479 0.178 0.158 0.34 0.329 0.528 0.482 0.178 0.158 0.339 0.329 0.527 0.479 0.178 0.158 0.339 0.329 0.527 0.482 0.177 0.158 0.338 0.329 0.526 0.479 0.178 0.158 0.34 0.329 0.528 0.482 0.177 0.158 0.338 0.329 0.525 0.479 0.178 0.158 0.34 0.329 0.528 0.479 0.177 0.161 0.339 0.332 0.527 0.482 0.178 0.158 0.339 0.329 0.527 0.479 0.178 0.158 0.339 0.332 0.527 0.482 3.44 3.064 8.696 4.629 15.851 4.629h29.674c22.772-0.898 44.198-2.025 64.29-3.372 20.075-1.353 38.507-2.025 55.297-2.025l71.035 2.697 28.773 2.7c17.983 0 26.977-6.602 26.977-19.839 0.033-5.75-2.187-10.355-6.601-13.822zm-342.11-254.6 79.36-117.42 4.553 117.42h-83.913z"/>
		
		
			
				<path d="m1279.5 1001.9h-181.1l-28.072 42.443c-7.854 12.647-13.585 21.991-17.211 28-7.248 12.041-12.378 21.681-15.398 28.903-7.248 13.249-10.856 24.388-10.856 33.408 0 17.463 17.674 28.297 53.048 32.511 16.188 2.419 24.28 9.344 24.28 20.779 0 13.854-9.595 20.766-28.772 20.766l-34.172-2.163-59.344-3.231-76.43 5.395h-24.276c-14.388 0-21.583-5.395-21.583-16.184 0-8.994 2.854-15.43 8.541-19.334 5.704-3.891 16.498-6.741 32.372-8.541 15.892-1.8 29.226-8.388 40.015-19.783l35.051-44.072 15.286-23.378 16.188-22.48 16.184-23.378 284.15-404.62c14.388-21.578 24.576-34.755 30.572-39.562 5.987-4.789 15.286-7.194 27.875-7.194 13.783 0 23.225 3.613 28.324 10.82 5.085 7.221 7.643 22.844 7.643 46.895l27.875 450.88c0 18.087 1.095 32.563 3.286 43.431 1.864 9.246 6.418 17.708 12.891 24.568 5.732 6.076 12.725 10.991 20.687 13.518 10.73 3.407 16.1 9.599 16.1 18.574 0 13.235-8.994 19.837-26.977 19.837l-28.772-2.697-52.963-2.697c-16.79 0-35.222 0.673-55.296 2.024-20.093 1.346-41.518 2.473-64.29 3.37h-29.674c-13.796 0-20.681-5.691-20.681-17.086 0-7.782 2.836-13.486 8.541-17.081 5.691-3.599 16.327-6.297 31.923-8.092 15.578-1.8 26.075-6.144 31.47-13.042 5.395-6.885 8.092-18.728 8.092-35.513v-36.869l-4.53-79.127zm-3.568-44.956-8.065-207.96-140.55 207.96h148.62z"/>
				<path d="m2654.3 694.4-113.3 394.74c-5.395 19.195-8.092 33.875-8.092 44.063 0 22.184 11.983 33.269 35.967 33.269 21.578 0 32.367 6.741 32.367 20.214 0 12.898-9.299 19.348-27.875 19.348h-52.15l-97.111-3.595c-18.589 0-32.677 0.305-42.259 0.898-9.6 0.606-33.27 2.697-71.036 6.292h-3.599c-15.578 0-23.378-5.983-23.378-17.983 0-7.19 2.697-12.135 8.092-14.833s17.678-5.987 36.869-9.891c19.177-3.891 30.864-8.994 35.069-15.286 4.183-6.297 11.081-26.528 20.681-60.695l112.4-392.94c4.183-14.384 6.292-23.966 6.292-28.772 0-15.582-11.099-23.378-33.269-23.378-19.191 0-28.772-5.731-28.772-17.198 0-6.885 2.388-12.32 7.194-16.341 4.789-4.017 11.377-6.027 19.779-6.027h41.361 20.685 28.772c57.545 0 97.699-1.432 120.49-4.313l47.658-2.877c11.983 0 17.983 5.704 17.983 17.081 0 7.8-3.007 13.491-8.994 17.086-6 3.595-16.942 6.745-32.821 9.443-15.887 2.697-26.524 7.051-31.918 13.038-5.395 5.995-11.1 18.88-17.086 38.663z"/>
				<path d="m3206.4 1033.4s-19.08 67.218-27.914 97.365c-10.318 35.214-107.75 90.565-226.55 90.565-89.921 0-163.06-22.48-219.4-67.436-56.355-44.961-84.522-103.1-84.522-174.44 0-56.943 17.081-110.89 51.253-161.85 34.167-50.943 82.413-94.71 144.76-131.28 50.948-29.971 105.95-53.349 165-70.138 59.035-16.776 117.03-25.178 173.99-25.178 38.354 0 72.23 3.231 101.61 9.667 14.976 3.528 22.48 9.977 22.48 19.348 0 5.282-1.8 12.095-5.399 20.443l-22.476 68.334c-8.994 31.178-20.681 46.76-35.069 46.76-15.596 0-23.378-12.279-23.378-36.869l1.795-45.858c0-15.578-3.146-26.524-9.438-32.816-6.297-6.297-16.947-9.443-31.923-9.443-38.368 0-77.637 7.809-117.79 23.418-40.167 15.609-78.226 37.825-114.19 66.638-42.573 34.225-76.139 76.264-100.71 126.1-24.585 49.848-36.864 101.48-36.864 154.91 0 55.247 14.384 99.081 43.161 131.51 28.772 32.426 68.024 48.627 117.79 48.627 14.976 0 25.317-2.235 31.021-6.719 5.691-4.466 10.928-14.766 15.735-30.895l33.27-117.28c2.387-6.575 3.595-14.038 3.595-22.395 0-13.123-2.697-21.637-8.092-25.514s-19.783-7.306-43.161-10.3c-12.589 0-18.881-5.982-18.881-17.983 0-13.177 10.479-19.783 31.47-19.783l44.96 0.902 80.927 2.697h11.687 9.892c26.371 0 50.045-1.194 71.036-3.599h43.161c14.976 0 22.476 5.17 22.476 15.497 0 14.362-12.292 22.678-36.864 24.967-15.596 0-27.579 4.497-35.967 13.486-8.404 8.993-15.894 25.176-22.483 48.554z"/>
				<path d="m3577.7 1001.9h-181.1l-28.073 42.443c-7.854 12.647-13.585 21.991-17.211 28-7.248 12.041-12.378 21.681-15.398 28.903-7.248 13.249-10.856 24.388-10.856 33.408 0 17.463 17.674 28.297 53.048 32.511 16.188 2.419 24.28 9.344 24.28 20.779 0 13.854-9.595 20.766-28.772 20.766l-34.171-2.163-27.683-1.507c-21.09-1.148-42.229-1.081-63.311 0.202l-57.019 3.469c-14.388 0-21.583-5.395-21.583-16.184 0-8.994 2.854-15.43 8.541-19.334 5.704-3.891 16.498-6.741 32.372-8.541 15.892-1.8 17.188-8.388 27.977-19.783l35.051-44.072 15.286-23.378 16.188-22.48 16.184-23.378 284.15-404.62c14.389-21.578 24.576-34.755 30.572-39.562 5.987-4.789 15.286-7.194 27.875-7.194 13.783 0 23.225 3.613 28.324 10.82 5.085 7.221 7.643 22.844 7.643 46.895l27.875 450.88c0 30.657 3.146 50.943 9.443 60.861 6.292 9.923 18.123 16.089 35.518 18.49 17.378 2.401 26.075 9.317 26.075 20.739 0 13.235-8.994 19.837-26.977 19.837l-28.772-2.697-71.036-2.697c-16.79 0-35.222 0.673-55.296 2.024-20.093 1.346-41.518 2.473-64.29 3.37h-29.675c-13.796 0-20.68-5.691-20.68-17.086 0-7.782 2.836-13.486 8.541-17.081 5.691-3.599 16.327-6.297 31.923-8.092 15.578-1.8 26.075-6.144 31.47-13.042 5.395-6.885 8.092-18.728 8.092-35.513v-36.869l-4.528-79.126zm-3.568-44.956-8.065-207.96-140.55 207.96h148.62z"/>
			
			<path d="m2141 727.66-284.12 423.53c-13.796 20.977-23.984 34.154-30.572 39.548-6.606 5.395-15.596 8.092-26.991 8.092-11.996 0-20.093-2.697-24.276-8.105-4.201-5.408-6.297-17.126-6.297-35.154l-14.429-429.02-90.774 247.48-14.389 48.739c-11.395 37.919-17.983 60.947-19.778 69.07-1.8 8.119-2.697 18.499-2.697 31.133 0 14.442 3.442 23.925 10.34 28.436 6.885 4.524 23.517 8.877 49.902 13.091 14.976 1.8 22.48 8.42 22.48 19.855 0 14.442-9.595 21.663-28.772 21.663l-33.269-3.231-53.052-2.163-69.859 2.697c-15.582 0-23.378-5.987-23.378-17.983 0-9.736 7.918-16.912 23.746-21.51 9.011-2.617 17-7.972 23.313-14.914 3.136-3.448 5.715-6.288 5.715-6.288 6.588-8.092 19.473-38.803 38.664-92.165l116.89-329.1c10.789-32.367 16.184-52.447 16.184-60.242 0-6.588-2.85-11.381-8.541-14.388-5.704-2.993-17.238-5.843-34.62-8.541-17.391-2.697-26.075-9.133-26.075-19.334 0-5.395 2.388-10.183 7.194-14.384 4.789-4.187 10.479-6.297 17.086-6.297l33.269 3.599h169.04c7.194 0 11.377 1.207 12.589 3.595 1.795 3.007 2.697 10.497 2.697 22.48l14.384 367.65 242.79-374.83c5.987-9.16 10.188-14.595 12.589-16.323 2.392-1.714 7.194-2.572 14.388-2.572h8.994 34.167 39.562 96.199c13.177 0 19.783 5.395 19.783 16.157 0 14.976-10.34 23.504-31.021 25.599-20.685 2.091-33.579 6.279-38.668 12.557-5.098 6.297-10.34 20.515-15.735 42.654l-88.117 367.22c-2.406 10.174-4.806 22.453-7.194 36.81-2.401 14.375-3.595 23.957-3.595 28.732 0 10.17 2.836 17.66 8.541 22.449 5.691 4.793 16.327 8.388 31.918 10.78 15.582 2.388 23.382 9.272 23.382 20.636 0 13.769-10.497 20.654-31.474 20.654h-28.772c-42.569-4.789-77.328-7.194-104.3-7.194-29.98 0-55.75 1.207-77.328 3.599l-44.961 3.595c-14.99 0-22.476-6.292-22.476-18.881 0-10.188 5.395-17.086 16.184-20.681l15.286-2.697 10.789-0.902 9.891-1.8c11.983-1.194 20.528-5.843 25.626-13.935 5.085-8.092 11.83-28.62 20.232-61.593l91.717-357.87z"/>
		
	
	
		
			
				<polygon points="405.68 750.35 218.22 750.35 550.64 1234 738.1 1234"/>
			
			
				
					<polygon class="st19" points="717.81 1234 738.1 1234 405.68 750.35 385.4 750.35"/>
				
			
			
				<polygon points="187.46 750.35 0 750.35 332.42 1234 519.88 1234"/>
			
			
				
					<polygon class="st19" points="499.59 1234 519.88 1234 187.46 750.35 167.18 750.35"/>
				
			
			<polygon points="1180.5 0 332.42 1234 519.88 1234 1368 0"/>
			<polygon points="1398.8 0 550.64 1234 738.1 1234 1586.2 0"/>
			
				<polygon class="st19" points="1565.9 0 717.81 1234 738.1 1234 1586.2 0"/>
			
			
				<polygon class="st19" points="1347.7 0 499.59 1234 519.88 1234 1368 0"/>
			
		
		
			<polyline class="st19" points="435.67 1066.7 441.53 1075.3 535.26 938.88 529.4 930.36"/>
			<polyline class="st19" points="326.56 1225.5 332.42 1234 426.15 1097.6 420.29 1089.1"/>
		
		
			<polyline class="st19" points="644.37 1097.6 638.51 1089.1 544.78 1225.5 550.64 1234"/>
		
	

</svg>
