<?xml version="1.0" encoding="UTF-8"?>
<svg enable-background="new 0 0 3839.5 501.2" version="1.1" viewBox="0 0 3839.5 501.2" xml:space="preserve" xmlns="http://www.w3.org/2000/svg">
<style type="text/css">
	.st0{fill:url(#SVGID_1_);}
	.st1{fill:url(#SVGID_2_);}
	.st2{fill:#DC3639;}
	.st3{clip-path:url(#SVGID_4_);}
	.st4{fill:url(#SVGID_5_);}
	.st5{fill:url(#SVGID_6_);}
	.st6{fill:url(#SVGID_7_);}
	.st7{fill:url(#SVGID_8_);}
	.st8{fill:url(#SVGID_9_);}
	.st9{fill:#A02F2F;}
	.st10{clip-path:url(#SVGID_11_);}
	.st11{fill:url(#SVGID_12_);}
	.st12{fill:url(#SVGID_13_);}
	.st13{fill:url(#SVGID_14_);}
	.st14{fill:#FFFFFF;}
	.st15{clip-path:url(#SVGID_16_);}
	.st16{clip-path:url(#SVGID_18_);}
	.st17{clip-path:url(#SVGID_20_);fill:#FFFFFF;}
	.st18{clip-path:url(#SVGID_22_);fill:#FFFFFF;}
</style>

	
		<path d="m3128.8 181.7c-0.2-63.2-51.4-114.3-114.6-114.3h-311.6v433h312.2c63.4 0 114.8-51.5 114.6-114.9l-0.6-203.8zm-321.5 214v-223.6h184c18.6 0 33.7 15.1 33.7 33.7v156.2c0 18.6-15.1 33.7-33.7 33.7h-184z"/>
		<path d="m2673.3 230.6-0.4-50.5c-0.5-62.9-51.6-113.7-114.5-113.7h-197.3c-63.3 0-114.5 51.3-114.5 114.5v203.9c0 63.3 51.3 114.5 114.5 114.5h197.7c63.3 0 114.5-51.3 114.5-114.5v-49.6h-104.7v25.9c0 18.6-15 33.6-33.6 33.6h-150.1c-18.6 0-33.6-15-33.6-33.6v-156.4c0-18.6 15-33.6 33.6-33.6h150.1c18.6 0 33.6 15 33.6 33.6v25.9h104.7z"/>
	
	
		
			<path d="m3481.9 228.7c-5.6 23.3-26.1 34.6-48.2 39-20.1 4-41 5.2-61.5 5.6-25.7 0.8-51 1.2-76.8 1.2-31.3 0-88.8 1.6-113.7-20.5-19.7-17.7-17.7-55.1-17.7-79.2h78v4.8c0 8.8-1.2 20.1 6.4 26.5 6.8 5.6 28.9 4.8 37.4 4.8 12.5 0 25.3 0.4 37.8 0.4 14.5 0 28.9-0.4 43.4-0.8 20.5-0.4 39 0.8 39-23.7 0-4.4 0-10-2.8-13.7-5.6-8.8-27.3-8-36.2-8.4-26.1-0.8-51.8-1.2-78-0.8v-57.5h61.9c11.2 0 24.9 0 36.2-2.8s13.7-10 13.7-20.9c0-5.6-0.8-10.8-5.2-14.9-8.4-7.6-65.5-6-77.6-6-12.5 0-24.9 0.4-37.4 0.4-9.6 0-24.9-0.4-32.5 6.4-6.8 6-5.2 19.7-5.2 28.1h-78v-13.9c0-12.5 0.4-25.7 3.6-37.8 6.4-23.7 28.1-34.6 50.6-38.6 36.6-6.4 79.2-6.4 116.5-6.4 16.9 0 33.4 0 50.2 0.8 26.1 0.8 58.3 1.2 78.4 20.9 14.1 13.7 15.7 36.6 15.7 55.1 0 34.6-9.2 49.4-43.8 56.7 7.2 2 14.9 3.2 21.7 6 26.1 10 27.3 34.2 27.3 58.7 0 10-0.8 20.4-3.2 30.5z"/>
			<path d="m3519.6 271.2c0-10.4-0.8-21.3-0.8-31.7 0-21.7-0.4-43.4 3.2-64.7 7.2-44.6 45.8-50.2 84.4-53.4l101.3-8c12.9-1.2 26.9-1.2 39.4-5.6 11.7-4 11.7-10.8 11.7-22.1 0-7.6 0-16.1-6.8-20.9-10.1-7.6-53.4-5.6-65.1-5.6-24.5 0-51-1.2-75.6 2.8-18.5 2.8-16.5 16.1-16.5 32.1v8.8h-79.2v-10.9c0-22.1 0.4-52.6 16.9-69.9 18.5-19.3 59.5-20.1 84-21.3 17.3-0.8 34.5-0.8 51.8-0.8h7.6l66.3 0.4c25.7 0 58.7 0.4 78 20.1 14.9 15.3 14.9 45.8 14.9 65.5 0 20.1-0.4 41.4-11.7 59.1-14.9 23.7-57.1 26.9-82 28.5-19.3 1.2-38.2 2.4-57.5 3.6-15.3 0.8-30.5 2-45.8 3.2-6.8 0.4-24.1 1.6-30.5 4-12.9 4.8-12.9 13.7-12.9 25.3h244.7v61.5h-319.8z"/>
		
	
	
		
			
				<path d="m436.1 477.9c-0.1-5-1.5-8.4-4.2-10.2-2.7-1.7-6.4-2.8-11.1-3.3-15.7-2.6-25.1-8.6-28.1-18-3-9.5-4.5-21.6-4.3-36.4l-15.9-305.2c0.1-11-1-20.2-3.1-27.6s-9.2-11.3-21.4-11.5c-11.1 0.3-19.2 3.5-24.2 9.7-5.1 6.2-10.2 13.5-15.5 22.1l-195.8 275.2-33 46.5c-6.5 9.9-13.6 19.1-21.3 27.7-7.7 8.5-17.5 13.8-29.5 15.7-6.8 0.6-13.2 1.9-19.2 4s-9.2 7.1-9.6 15c0.2 4.7 1.8 7.8 5 9.2 3.1 1.4 6.8 2 10.9 1.8 11.3-0.2 22.8-0.8 34.3-1.8 11.6-1.1 23.2-1.7 34.8-1.8 10.4 0.1 20.8 0.6 31.2 1.5s20.8 1.4 31.2 1.5c4.8 0.1 9.2-1 13.2-3.1 4-2.2 6.1-5.8 6.3-10.9-0.7-7.6-5.3-11.9-13.8-13.2s-17.1-2.9-25.6-5-13.1-8.3-13.8-18.5c1.5-10.9 8.7-26.5 21.6-46.7 12.8-20.2 22.2-34.4 28-42.6h122.3c0.7 12.9 1.3 25.8 2 38.8s1 26 1.1 38.8c-0.7 17.9-5.4 28.5-14.1 31.6s-17.5 4.8-26.2 5.2-13.4 5.5-14.1 15.2c0.1 4.2 1.4 7.1 4 8.7 2.5 1.6 5.7 2.4 9.5 2.3 16.8-0.2 33.8-0.8 50.8-1.8 17-1.1 33.9-1.7 50.8-1.8 11.3 0.1 22.6 0.5 33.9 1.2s22.6 1.1 33.9 1.2c5.1 0.2 9.5-0.6 13.2-2.4 3.7-1.7 5.6-5.4 5.8-11.1zm-151.1-156h-102.1l97.2-141.9 4.9 141.9z"/>
				<path d="m1321.3 89.5c-0.1-3.7-1.3-6.4-3.6-8.3-2.3-1.8-5.2-2.8-8.6-2.8-5.5 0-10.9 0.3-16.2 0.8s-10.7 1-16.2 1.7c-13.5 1.5-27.2 2.4-41.1 2.7s-27.7 0.4-41.5 0.4c-10.1-0.1-20.2-0.5-30.3-1.2s-20.2-1.1-30.3-1.2c-4.8 0-9.1 1.4-12.9 4.1s-5.8 6.6-6 11.9c1.7 9.2 8.7 13.6 20.8 13s19.1 4.7 20.8 15.7c-0.1 3.1-0.4 6.2-1.1 9.5-0.7 3.2-1.6 6.4-2.5 9.5l-77.1 267.3c-2.9 12.5-6.2 23.3-9.9 32.5-3.6 9.2-12 15.3-25 18.3-6 0.9-13 2.3-21 4.4-8 2-12.4 6.7-13.2 14 0.2 4.2 1.8 7.2 4.9 9s6.5 2.7 10.4 2.6c13.2-0.2 26.4-1 39.8-2.4s26.8-2.2 40.3-2.4c14.4 0.1 28.9 0.6 43.4 1.5 14.6 0.9 29 1.4 43.4 1.5 5.9 0.4 12.7 0.2 20.4-0.8 7.7-0.9 11.9-5.2 12.6-12.7-0.6-7.8-4.5-12-11.9-12.5s-14.7-1.7-22.1-3.5c-7.4-1.9-11.3-8.7-11.9-20.7 0.1-4.9 0.7-9.9 1.9-15s2.6-10.1 4.2-15l77.1-268.5c2.8-11 6.2-19.1 10.1-24.1s11.5-8.6 22.9-10.8c5.8-0.7 12-2.3 18.6-4.8 6.6-2.6 10.2-7.1 10.8-13.7z"/>
				<path d="m1723.6 92.6c-0.9-6.6-7.6-11.3-20.1-14-12.5-2.8-25.7-4.4-39.5-4.9s-23.1-0.7-27.8-0.6c-51.1 0.1-104.6 10.5-160.5 31.1s-103.5 50.8-142.9 90.5-60 88.3-61.8 145.7c0.7 36.5 11.3 66.6 31.6 90.4s46 41.5 77 53.1 62.9 17.4 95.6 17.4c20 0 40-1.2 60.1-3.6s39.8-5.9 59.2-10.5c7.4-1.5 13.7-3.4 19-5.7s9.4-7.1 12.2-14.4c5.4-15.3 10.2-30.8 14.5-46.6 4.2-15.7 8.6-31.4 13.1-47 7.4-22.3 16.1-35.3 26.2-39.2s19.1-5.7 26.9-5.5 11.9-4.7 12.3-14.7c-0.2-4.2-1.8-7.2-4.9-9s-6.6-2.7-10.4-2.6c-15.3 0.2-30.6 0.9-45.9 2.1-15.4 1.2-30.8 2-46.4 2.1-14.7-0.2-29.4-0.8-44-1.8-14.7-1.1-29.4-1.7-44-1.8-4.9-0.1-9.6 0.8-14.1 2.7s-6.9 5.7-7.3 11.4c0.6 6.9 4.7 10.8 12.2 11.5 7.6 0.8 15.1 2.3 22.7 4.5s11.6 8.9 12.2 20.1c-0.7 11.5-4.2 27.2-10.6 47.2s-11.6 36.1-15.7 48.2c-2.4 9.4-5.6 16-9.6 20-4 3.9-11 5.8-21 5.7-35.8-0.8-62.9-12.4-81.3-34.8-18.3-22.4-27.5-51-27.6-85.7 0.3-32 6.9-63 19.9-93.1s30.6-56.6 52.9-79.4c22-22.1 49.2-41 81.6-56.7s64.3-23.9 95.8-24.6c15-0.2 24.2 2.8 27.6 8.7 3.4 6 4.8 15.9 4.2 29.8-0.1 3.7-0.3 7.3-0.6 11-0.4 3.7-0.6 7.3-0.6 11-0.2 6.1 0.8 11.6 3 16.6s6.7 7.6 13.5 7.9c7.5-0.6 13-4.3 16.6-11.2s6.2-13.6 7.9-20c1.6-4.7 5-15 10.2-31 5-16.2 8-26.2 8.6-30.3z"/>
				<path d="m2074.4 477.9c-0.1-5-1.5-8.4-4.2-10.2-2.7-1.7-6.4-2.8-11.1-3.3-15.7-2.6-25.1-8.6-28.1-18-3-9.5-4.5-21.6-4.3-36.4l-15.9-305.2c0.1-11-1-20.2-3.1-27.6s-9.2-11.3-21.4-11.5c-11.1 0.3-19.2 3.5-24.2 9.7-5.1 6.2-10.2 13.5-15.5 22.1l-195.7 275.2-33 46.5c-6.5 9.9-13.6 19.1-21.3 27.7-7.7 8.5-17.5 13.8-29.5 15.7-6.8 0.6-13.2 1.9-19.2 4s-9.2 7.1-9.6 15c0.2 4.7 1.8 7.8 5 9.2 3.1 1.4 6.8 2 10.9 1.8 11.3-0.2 22.8-0.8 34.3-1.8 11.6-1.1 23.2-1.7 34.8-1.8 10.4 0.1 20.8 0.6 31.2 1.5s20.8 1.4 31.2 1.5c4.8 0.1 9.2-1 13.2-3.1 4-2.2 6.1-5.8 6.3-10.9-0.7-7.6-5.3-11.9-13.8-13.2-8.5-1.2-17.1-2.9-25.6-5s-13.1-8.3-13.8-18.5c1.5-10.9 8.7-26.5 21.6-46.7 12.8-20.2 22.2-34.4 28-42.6h122.3c0.7 12.9 1.3 25.8 2 38.8s1 26 1.1 38.8c-0.7 17.9-5.4 28.5-14.1 31.6s-17.5 4.8-26.2 5.2-13.4 5.5-14.1 15.2c0.1 4.2 1.4 7.1 4 8.7 2.5 1.6 5.7 2.4 9.5 2.3 16.8-0.2 33.8-0.8 50.8-1.8 17-1.1 33.9-1.7 50.8-1.8 11.3 0.1 22.6 0.5 33.9 1.2s22.6 1.1 33.9 1.2c5.1 0.2 9.5-0.6 13.2-2.4 3.6-1.7 5.5-5.4 5.7-11.1zm-151.1-156h-102.1l97.3-141.9 4.8 141.9z"/>
				<path d="m1062.1 92c-0.1-3.9-1.3-6.8-3.7-8.5s-5.4-2.6-9.2-2.5c-12.9 0.1-25.8 0.4-38.8 0.9s-26 0.8-38.8 0.9c-6.8-0.3-17-0.7-30.7-1.1-13.6-0.4-22.8 1.2-27.4 4.8-0.9 1.3-1.7 2.7-2.4 4.3s-1.6 3-2.4 4.3l-168.4 254.4-6.7-250.2c0.3-4.8 0.1-8.9-0.5-12.3-0.7-3.5-3.8-5.3-9.3-5.4-14.1 0.1-28.3 0.4-42.5 0.8s-28.4 0.4-42.5-0.2c-8-0.4-15.9-0.9-23.8-1.5s-15.7-0.9-23.3-1c-5.2-0.2-10.2 0.5-15 2.1s-7.3 5.4-7.6 11.3c1.9 9.7 9.7 14.5 23.2 14.4 13.6-0.1 21.3 4.7 23.2 14.4-0.2 6.8-1.6 13.8-4.2 20.9s-5.1 13.8-7.4 20c-14.9 41.3-29.8 82.7-44.6 124.1s-30.1 82.6-45.9 123.6c-6 17.5-11.8 29.8-17.5 36.8s-17.8 12.1-36.3 15.2c-5.1 0.8-9.6 2.3-13.5 4.6s-5.9 6.3-6.1 11.9c0.2 5 2 8.3 5.4 9.7s7.3 2.1 11.8 1.9c10.7-0.1 21.5-0.4 32.4-0.9s21.7-0.8 32.4-0.9c10.1 0.1 20 0.6 29.9 1.5 9.8 0.9 19.7 1.4 29.4 1.5 4.6 0 8.9-1.1 13-3.4s6.3-6.1 6.6-11.2c-0.7-8.6-5.4-13.2-14.3-13.8-8.8-0.6-17.7-2-26.5-4.3-8.8-2.2-13.6-10.1-14.3-23.6 0.9-19.3 7.7-47.9 20.4-85.9s26.2-74.8 40.3-110.5 23.6-59.7 28.6-72.1l6.7 291.1c-0.2 9 0.8 16.1 2.8 21.3 2.1 5.2 8 7.9 18 8 10.1-0.4 18-3.9 23.8-10.5 5.7-6.6 11.1-13.9 16-21.9l195.7-288.1-64.8 243.4c-2 10.5-4.9 21-8.8 31.7-3.9 10.6-11.6 17.2-23 19.7-6.6 0.5-13.9 1.5-22.1 3.2s-12.6 6.7-13.4 15.1c0.1 4.5 1.7 7.7 4.7 9.6 3 1.8 6.5 2.7 10.6 2.7 14.1-0.2 28.3-1 42.5-2.4s28.4-2.2 42.5-2.4c14.7 0.2 29.4 1 44 2.4 14.7 1.4 29.4 2.2 44 2.4 5.4 0.2 10.3-0.8 14.6-2.8s6.6-6 6.8-11.9c-0.5-7.4-4.2-11.6-11.1-12.8-6.9-1.1-13.7-2.8-20.6-4.9s-10.6-8.3-11.1-18.5c0.1-7.4 1-14.9 2.6-22.6 1.6-7.6 3.4-15 5.4-22.1l62.4-250.2c2.2-11 5-19.6 8.5-25.8s11-10 22.7-11.5c6.2-0.4 12.3-1.6 18.1-3.8 5.9-1.7 9-6.3 9.5-13.4z"/>
			
		
	

</svg>
