<?xml version="1.0" encoding="UTF-8"?>
<svg enable-background="new 0 0 3840 670.5" version="1.1" viewBox="0 0 3840 670.5" xml:space="preserve" xmlns="http://www.w3.org/2000/svg">
<style type="text/css">
	.st0{fill:url(#SVGID_1_);}
	.st1{fill:#FFFFFF;}
	.st2{opacity:0.5;fill:#FFFFFF;}
	.st3{opacity:0.4;}
	.st4{opacity:0.7;fill:#FFFFFF;}
	.st5{opacity:0.5;}
	.st6{opacity:0.7;}
</style>

	
		<path d="m2588.6 565.7v-461c0-67.2 34.6-102.8 98-102.8h277.6v169h-70.1v-102.6h-190.2c-28.8 0-40.3 18.2-40.3 54.7v424.5c0 36.5 11.5 54.7 40.3 54.7h190.2v-109.4h70.1v175.8h-277.6c-63.4-0.1-98-35.6-98-102.9z"/>
		<path d="M3003.5,602.2h58.6v-534h-58.6V2h317.9c63.4,0,98,35.5,98,102.8v152.7c0,67.2-34.6,102.8-98,102.8H3137v242h60.5v66.3    h-194V602.2z M3304.1,294c28.8,0,40.3-18.2,40.3-54.7V123c0-36.5-11.5-54.7-40.3-54.7H3137V294H3304.1z"/>
		<path d="m3464.5 565.7v-461c0-67.2 34.6-102.8 98-102.8h277.5v169h-70.1v-102.6h-190.2c-28.8 0-40.3 18.2-40.3 54.7v424.5c0 36.5 11.5 54.7 40.3 54.7h190.2v-109.4h70.1v175.8h-277.6c-63.3-0.1-97.9-35.6-97.9-102.9z"/>
	
	
		
			<path d="M338.7,668.5H206.2l-11-131.5h-53.8l-10,131.5H0L83.7,4H256L338.7,668.5z M168.4,169.4l-18.9,258h37.9L168.4,169.4z"/>
			<path d="M785,668.5H658.5V291.9l-49.8,376.6H527l-52.8-378.6v378.6H347.7V4H533l32.9,293.9L600.7,4H785V668.5z"/>
			<path d="m992.2 232.1v-78.7c0-20.9-1-27.9-3-32.9-4-7-10-12-16.9-12-7 0-14.9 5-17.9 12-2 6-3 11-3 32.9v48.8c0 21.9 6 29.9 31.9 43.8l59.7 33c78.7 43.8 89.7 61.8 89.7 151.4v106.6c0 57.8-4 76.7-19.9 97.6-21.9 29.9-45.8 35.9-149.4 35.9-82.7 0-105.6-5-127.5-29.9-13-13.9-18.9-29.9-21.9-54.8-2-13-2-27.9-2-72.7v-119.6h139.5v128.5c0 26.9 6 37.9 20.9 37.9 13 0 19.9-11 19.9-29.9v-90.6l-1-13.9c-1-24.9-4-29.9-27.9-42.8-9-5-15.9-8-16.9-9l-58.8-32.9c-64.8-36.9-75.7-57.8-75.7-140.5v-77.7c0-54.8 6-78.7 26.9-97.6 21.8-20 47.7-25 144.3-25 84.7 0 107.6 6 128.5 33.9 16.9 21.9 20.9 42.8 20.9 104.6v93.7h-140.4z"/>
			<path d="M1352.6,668.5h-140.5V111.6h-70.7V4h280v107.6h-68.7V668.5z"/>
			<path d="m1579.5 4 49.8 1c97.6 2 121.5 27.9 121.5 128.5v69.7c0 92.7-13.9 124.5-62.8 137.5 23.9 8 37.9 18.9 47.8 36.9 13 22.9 14.9 40.8 14.9 118.6v172.4h-139.5v-199.3c0-65.8 0-64.8-34.9-65.8h-6v265h-140.3v-664.5h149.5zm0.9 277.9c26.9 0 30.9-6 30.9-48.8v-71.7l-1-17.9c0-23.9-6-30.9-24.9-30.9h-15v169.4c5.1-0.1 8.1-0.1 10-0.1z"/>
			<path d="m2093.5 668.5h-132.5l-11-131.5h-53.8l-10 131.5h-131.5l83.7-664.5h172.4l82.7 664.5zm-170.4-499.1-18.9 258h37.9l-19-258z"/>
			<path d="m2238.9 4c120.6 0 137.5 3 160.4 29.9 20.9 23.9 25.9 49.8 25.9 141.5v327.8c0 81.7-3 103.6-18.9 127.5-18.9 27.9-46.8 36.9-115.6 36.9l-70.7 1h-117.6v-664.6h136.5zm16.9 555.9c21.9 0 26.9-7 26.9-34.9v-13.9-32.9-328.7c0-29.9-5-36.9-26.9-36.9-3 0-8 1-13 1v446.3h13z"/>
		
	

</svg>
