<?xml version="1.0" encoding="UTF-8"?>
<svg enable-background="new 0 0 788.203 387.422" version="1.1" viewBox="0 0 788.2 387.42" xml:space="preserve" xmlns="http://www.w3.org/2000/svg">


	<rect width="788.2" height="387.42" fill="#424242"/>
	<polygon points="546.77 0 346.2 387.42 502.42 387.42 703 0" fill="#4b4b4b"/>

<g fill="#fff">
	<path d="m662.63 336.66h72.366c14.068 0 23.82-9.618 23.82-23.499v-145.38c0-13.879-9.752-23.499-23.82-23.499h-72.366v192.37zm42.749-31.621v-129.13h0.146c9.392 0 10.541 6.453 10.541 15.777v97.577c0 9.325-1.149 15.777-10.541 15.777h-0.146z"/>
	<path d="m531.93 243.14c14.066 0 23.818-9.619 23.818-23.499v-51.86c0-13.879-9.752-23.499-23.818-23.499h-72.369v192.37h42.752v-75.251h0.147c9.39 0 10.539 6.452 10.539 15.777v59.474h42.75v-70.017c-1e-3 -13.88-9.753-23.499-23.819-23.499zm-29.618-67.238h0.147c9.39 0 10.539 6.453 10.539 15.777v17.422c0 9.326-1.31 15.923-10.686 15.923v-49.122z"/>
	<path d="m344.9 336.66c14.068 0 23.82-9.618 23.82-23.499v-62.668c-0.16-18.877-53.437-40.078-53.437-40.078v-32.061c0-2.953 2.392-5.345 5.344-5.345 2.953 0 5.344 2.392 5.344 5.345l0.041 32.061h42.708v-43.298c0-13.879-9.751-23.499-23.82-23.499h-48.547c-14.067 0-23.82 9.619-23.82 23.499v51.982c0.173 18.865 53.437 40.078 53.437 40.078v42.752c0 2.95-2.391 5.342-5.344 5.342-2.952 0-5.344-2.392-5.344-5.342l-0.04-42.752h-42.71v53.984c0 13.881 9.752 23.499 23.82 23.499h48.548z"/>
	<path d="m57.445 144.28-25.382 192.37h37.406l3.3-37.405h17.446l3.301 37.405h37.407l-25.383-192.37h-48.095zm17.915 125.58 6.132-69.468 6.133 69.468h-12.265z"/>
	<path d="m583.8 144.28-25.383 192.37h37.407l3.3-37.405h17.445l3.301 37.405h37.408l-25.387-192.37h-48.091zm17.914 125.58 6.133-69.468 6.133 69.468h-12.266z"/>
	<polygon points="392.77 176.34 392.77 336.66 435.52 336.66 435.52 176.34 454.22 176.34 454.22 144.28 371.39 144.28 371.39 176.34"/>
	<polygon points="227.11 240.47 227.11 336.66 264.52 336.66 264.52 144.28 211.08 144.28 200.39 221.23 189.7 144.28 136.27 144.28 136.27 336.66 173.67 336.66 173.67 240.47 187.03 336.66 213.75 336.66"/>
</g>
</svg>
