<?xml version="1.0" encoding="UTF-8"?>
<svg enable-background="new 0 0 3839 585" version="1.1" viewBox="0 0 3839 585" xml:space="preserve" xmlns="http://www.w3.org/2000/svg">
<style type="text/css">
	.st0{fill:#FFFFFF;}
	.st1{fill:#3DDC84;}
	.st2{fill:#A6F34E;}
	.st3{fill:none;stroke:#FFFFFF;stroke-width:32.5695;stroke-linecap:round;}
	.st4{fill:none;stroke:#FFFFFF;stroke-width:65.1391;stroke-linecap:round;}
	.st5{fill:#A4C639;}
	.st6{fill:none;stroke:#FFFFFF;stroke-width:13.0278;stroke-linecap:round;}
	.st7{fill:none;stroke:#A4C639;stroke-width:6.5139;stroke-linecap:round;}
	.st8{fill:none;stroke:#A4C639;stroke-width:39.0835;stroke-linecap:round;}
	.st9{fill:none;stroke:#FFFFFF;stroke-width:15;stroke-linecap:square;}
	.st10{fill:#A4C639;stroke:#FFFFFF;stroke-width:14.4;}
	.st11{fill:#A4C639;stroke:#FFFFFF;stroke-width:7.2;}
	.st12{fill:#FFFFFF;stroke:#FFFFFF;stroke-width:7.2;}
	.st13{fill:#0268AA;}
</style>

	<path d="M183.9,187.9c55,0,100.6,28.4,122.3,58.9v-51.4H390V577h-60.3c-13.3,0-23.9-10.6-23.9-23.9v-27.5   c-21.3,31-66.9,59.4-121.9,59.4C79.3,585,0,495.4,0,386.4S79.3,187.9,183.9,187.9 M199,264.1c-67.8,0-113.9,53.6-113.9,122.3   S130.7,508.7,199,508.7c67.8,0,113.9-53.6,113.9-122.3S267.2,264.1,199,264.1"/>
	<path d="m485.2 195.4h84.2v51.8c23-38.1 66.5-59.4 116.1-59.4 88.6 0 145.8 62.5 145.8 159.5v229.7h-60.3c-13.3 0-23.9-10.6-23.9-23.9v-191.9c0-60.3-30.6-97-79.3-97-55.8 0-98.4 43.4-98.4 125v187.8h-60.3c-13.3 0-23.9-10.6-23.9-23.9v-357.7z"/>
	<path d="m1081.7 187.9c55 0 100.6 28.4 122.3 58.9v-241.9h83.8v572.5h-60.3c-13.3 0-23.9-10.6-23.9-23.9v-27.5c-21.3 30.6-67.4 58.9-122.3 58.9-104.6 0-183.9-89.5-183.9-198.5 0.4-109 79.7-198.5 184.3-198.5m15.1 76.2c-67.8 0-113.9 53.6-113.9 122.3s45.6 122.3 113.9 122.3c67.8 0 113.9-53.6 113.9-122.3s-46.1-122.3-113.9-122.3"/>
	<path d="m1383.1 195.4h83.8v67.8c14.6-43.4 57.2-71.8 100.6-71.8 10.6 0 21.3 0.9 32.8 3.1v86.5c-14.6-4.4-26.6-7.1-42.1-7.1-48.3 0-91.7 40.3-91.7 117v186.1h-60.3c-13.3 0-23.9-10.6-23.9-23.9v-357.7h0.8z"/>
	<path d="m1827.1 585c-113 0-199.9-87.7-199.9-198.5s86.9-198.5 199.9-198.5 199.9 87.6 199.9 198.4-86.9 198.6-199.9 198.6m0-78c67.4 0 114.3-52.7 114.3-120.5s-47.4-120.5-114.3-120.5c-67.8 0-115.2 52.7-115.2 120.5s47.4 120.5 115.2 120.5"/>
	<path d="m2136.9 112.1c-30.6 0-56.3-25.3-56.3-56.3 0-30.6 26.1-55.8 56.3-55.8 31.5 0 55.8 25.3 55.8 55.8 0 31.5-24.4 56.3-55.8 56.3m-41.7 83.3h83.8v381.6h-59.8c-13.3 0-23.9-10.6-23.9-23.9-0.1 0-0.1-357.7-0.1-357.7z"/>
	<path d="m2432 187.9c55 0 100.6 28.4 122.3 58.9v-241.9h83.8v572.5h-60.3c-13.3 0-23.9-10.6-23.9-23.9v-27.5c-21.3 30.6-67.4 58.9-122.3 58.9-104.6 0-183.9-89.5-183.9-198.5 0.4-109 79.7-198.5 184.3-198.5m15.5 76.2c-67.8 0-113.9 53.6-113.9 122.3s45.6 122.3 113.9 122.3c67.8 0 113.9-53.6 113.9-122.3s-46.1-122.3-113.9-122.3"/>
	<path d="m3564.7 433c-23.5 0-42.5-19.1-42.5-42.5s19.1-42.5 42.5-42.5 42.5 19.1 42.5 42.5-19 42.5-42.5 42.5m-468.4 0c-23.5 0-42.5-19.1-42.5-42.5s19.1-42.5 42.5-42.5 42.5 19.1 42.5 42.5-19 42.5-42.5 42.5m483.5-255.3 85-146.7c4.9-8.4 1.8-19.1-6.6-23.9s-19.1-1.8-23.9 6.6l-86 148.5c-65.6-30.1-139.1-47-217.6-47s-152.4 16.8-218 46.5l-86-148.5c-4.9-8.4-15.5-11.5-23.9-6.6s-11.5 15.5-6.6 23.9l84.6 146.7c-145.4 79.3-245.1 226.4-259.7 400.6h1017.9c-14.2-173.6-113.4-320.8-259.2-400.1"/>

</svg>
