<?xml version="1.0" encoding="UTF-8"?>
<svg enable-background="new 0 0 3839 841.4" version="1.1" viewBox="0 0 3839 841.4" xml:space="preserve" xmlns="http://www.w3.org/2000/svg">
<style type="text/css">
	.st0{enable-background:new    ;}
	.st1{fill:#FFFFFF;}
</style>

	
		
			
				
					
						<path d="m1799.8 741c0-4-3.2-7.2-7.2-7.2h-46.7c-4 0-7.2 3.2-7.2 7.2v34.5c0 4-3.2 7.2-7.2 7.2h-10.2c-4 0-7.2 3.2-7.2 7.2v43.9c0 4 3.2 7.2 7.2 7.2h71.2c4 0 7.2-3.2 7.2-7.2s-3.2-7.2-7.2-7.2h-56.9c-4 0-7.2-3.2-7.2-7.2v-15.3c0-4 3.2-7.2 7.2-7.2h56.8c4 0 7.2-3.2 7.2-7.2s-3.2-7.2-7.2-7.2h-14.4c-4 0-7.2-3.2-7.2-7.2v-20c0-4 3.2-7.2 7.2-7.2h14.4c4.2 0.2 7.4-3 7.4-7.1z"/>
					
				
				
					
						<path d="m2008.4 741c0-4-3.2-7.2-7.2-7.2h-46.7c-4 0-7.2 3.2-7.2 7.2v34.5c0 4-3.2 7.2-7.2 7.2h-10.2c-4 0-7.2 3.2-7.2 7.2v43.9c0 4 3.2 7.2 7.2 7.2h71.2c4 0 7.2-3.2 7.2-7.2s-3.2-7.2-7.2-7.2h-56.8c-4 0-7.2-3.2-7.2-7.2v-15.3c0-4 3.2-7.2 7.2-7.2h56.8c4 0 7.2-3.2 7.2-7.2s-3.2-7.2-7.2-7.2h-14.4c-4 0-7.2-3.2-7.2-7.2v-20c0-4 3.2-7.2 7.2-7.2h14.4c4.1 0.2 7.3-3 7.3-7.1z"/>
					
				
				
					
						<path d="m2179.1 741c0-4-3.2-7.2-7.2-7.2h-46.7c-4 0-7.2 3.2-7.2 7.2v34.5c0 4-3.2 7.2-7.2 7.2h-10.3c-4 0-7.2 3.2-7.2 7.2v43.9c0 4 3.2 7.2 7.2 7.2h71.2c4 0 7.2-3.2 7.2-7.2s-3.2-7.2-7.2-7.2h-56.8c-4 0-7.2-3.2-7.2-7.2v-15.3c0-4 3.2-7.2 7.2-7.2h56.8c4 0 7.2-3.2 7.2-7.2s-3.2-7.2-7.2-7.2h-14.4c-4 0-7.2-3.2-7.2-7.2v-20c0-4 3.2-7.2 7.2-7.2h14.4c4.2 0.2 7.4-3 7.4-7.1z"/>
					
				
				
					
						<path d="m1870.1 808.7h-32.5c-4 0-7.2-3.2-7.2-7.2v-60.5c0-4-3.2-7.2-7.2-7.2s-7.2 3.2-7.2 7.2v92.8c0 4 3.2 7.2 7.2 7.2h46.9c4 0 7.2-3.2 7.2-7.2v-17.8c0.2-4.1-3.2-7.3-7.2-7.3z"/>
					
				
				
					
						<path d="m2075.7 808.8h-32.5c-4 0-7.2-3.2-7.2-7.2v-60.6c0-4-3.2-7.2-7.2-7.2s-7.2 3.2-7.2 7.2v92.8c0 4 3.2 7.2 7.2 7.2h46.9c4 0 7.2-3.2 7.2-7.2v-17.8c0-4.1-3.2-7.2-7.2-7.2z"/>
					
				
				
					
						<path d="m2421 775.4v-34.5c0-4-3.2-7.2-7.2-7.2h-56.8c-4 0-7.2 3.2-7.2 7.2v92.8c0 4 3.2 7.2 7.2 7.2h17.9c4 0 7.2-3.2 7.2-7.2v-29.6c0-4 3.2-7.2 7.2-7.2h24.5c4 0 7.2 3.2 7.2 7.2v29.6c0 4 3.2 7.2 7.2 7.2s7.2-3.2 7.2-7.2v-44.1c0-4-3.2-7.2-7.2-7.2-3.9 0.2-7.2-3.1-7.2-7zm-49.4-27.1h28c4 0 7.2 3.2 7.2 7.2v20c0 4-3.2 7.2-7.2 7.2h-28c-4 0-7.2-3.2-7.2-7.2v-20c-0.1-4.1 3.2-7.2 7.2-7.2z"/>
					
				
				
					
						<path d="m2261.2 758.9v-17.9c0-4-3.2-7.2-7.2-7.2h-53.1c-4 0-7.2 3.2-7.2 7.2v92.8c0 4 3.2 7.2 7.2 7.2h53.1c4 0 7.2-3.2 7.2-7.2s-3.2-7.2-7.2-7.2h-38.8c-4 0-7.2-3.2-7.2-7.2v-46.2c0-4 3.2-7.2 7.2-7.2h38.8c4.1 0.2 7.2-3.1 7.2-7.1z"/>
					
				
				
					
						<path d="m2751.7 758.9v-17.9c0-4-3.2-7.2-7.2-7.2h-53.1c-4 0-7.2 3.2-7.2 7.2v92.8c0 4 3.2 7.2 7.2 7.2h53.1c4 0 7.2-3.2 7.2-7.2s-3.2-7.2-7.2-7.2h-38.8c-4 0-7.2-3.2-7.2-7.2v-46.2c0-4 3.2-7.2 7.2-7.2h38.8c4 0.2 7.2-3.1 7.2-7.1z"/>
					
				
				
					
						<path d="m1517 738.3-30.5 71.2c-1.7 4.1-8 2.9-8-1.6v-66.8c0-4-3.2-7.2-7.2-7.2h-15.5c-2.9 0-5.5 1.7-6.7 4.4l-21.1 49.4c-1.6 3.8-7.2 3.2-7.9-0.9l-7.9-46.9c-0.6-3.5-3.6-6.1-7.1-6.1h-33.3c-4 0-7.2 3.2-7.2 7.2v92.6c0 4 3.1 7.3 7 7.5 4.1 0.1 7.3-3.1 7.3-7.2v-60.3c0-4 3.2-7.2 7.2-7.2h9.7c3.5 0 6.6 2.6 7.1 6.1l5.6 33.2c0.6 3.5 3.6 6.1 7.1 6.1h12.9c2.9 0 5.5-1.7 6.7-4.4l20.8-48.5c1.7-4.1 8-2.9 8 1.6v73.7c0 4 3.2 7.2 7.2 7.2h12.5c2.9 0 5.5-1.7 6.7-4.4l13.9-32.5c1.1-2.7 3.7-4.4 6.7-4.4h23.8c4 0 7.2 3.2 7.2 7.2v26.7c0 4 3.2 7.2 7.2 7.2h17.9c4 0 7.2-3.2 7.2-7.2v-92.7c0-4-3.2-7.2-7.2-7.2h-43.5c-2.8-0.2-5.5 1.5-6.6 4.2zm16.1 10h19.6c4 0 7.2 3.2 7.2 7.2v22.8c0 4-3.2 7.2-7.2 7.2h-29.3c-5.1 0-8.6-5.3-6.7-10.1l9.7-22.8c1.2-2.6 3.8-4.3 6.7-4.3z"/>
					
				
				
					
						<path d="m2339.6 741c0-4-3.2-7.2-7.2-7.2h-53.3c-4 0-7.2 3.2-7.2 7.2v17.9c0 4 3.2 7.2 7.2 7.2h12.2c4 0 7.2 3.2 7.2 7.2v60.5c0 4 3.2 7.2 7.2 7.2s7.2-3.2 7.2-7.2v-60.5c0-4 3.2-7.2 7.2-7.2h12.2c4 0 7.2-3.2 7.2-7.2v-17.9h0.1z"/>
					
				
				
					
						<path d="m2663 802.9v-63.3c0-3.2-2.7-5.8-5.8-5.8h-2.7c-3.2 0-5.8 2.7-5.8 5.8v63.2c0 3.2-2.7 5.8-5.8 5.8h-8.1c-3.2 0-5.8 2.7-5.8 5.8v20.6c0 3.2 2.7 5.8 5.8 5.8h34.3c3.2 0 5.8-2.7 5.8-5.8v-20.5c0-3.2-2.7-5.8-5.8-5.8-3.6 0.1-6.1-2.6-6.1-5.8z"/>
					
				
				
					
						<path d="m2600.9 733.8h-54.8c-4 0-7.2 3.2-7.2 7.2v92.8c0 4 3.2 7.2 7.2 7.2s7.2-3.2 7.2-7.2v-60.5c0-4 3.2-7.2 7.2-7.2h33.2c4 0 7.2 3.2 7.2 7.2v60.5c0 4 3.2 7.2 7.2 7.2s7.2-3.2 7.2-7.2v-92.8c0-4-3.2-7.2-7.2-7.2h-7.2z"/>
					
				
				
					
						<path d="m2455.9 733.8h-1.1c-4 0-7.2 3.3-7.2 7.2v92.8c0 4 3.2 7.2 7.2 7.2h62.1c4 0 7.2-3.2 7.2-7.2v-92.8c0-4-3.2-7.2-7.2-7.2h-61zm5.9 67.8v-46.2c0-4 3.2-7.2 7.2-7.2h33.2c4 0 7.2 3.2 7.2 7.2v46.2c0 4-3.2 7.2-7.2 7.2h-33.2c-4 0-7.2-3.3-7.2-7.2z"/>
					
				
				
					
						<path d="m2784.7 775.4v-20c0-4 3.2-7.2 7.2-7.2h38.2c4 0 7.2-3.2 7.2-7.2s-3.2-7.2-7.2-7.2h-52.5c-4 0-7.2 3.2-7.2 7.2v48.8c0 4 3.2 7.2 7.2 7.2h29.8c4 0 7.2 3.2 7.2 7.2v15.3c0 4-3.2 7.2-7.2 7.2h-38.9c-4 0-7.2 3.2-7.2 7.2s3.2 7.2 7.2 7.2h71.2c4 0 7.2-3.2 7.2-7.2v-44.1c0-4-3.2-7.2-7.2-7.2h-47.8c-4 0-7.2-3.3-7.2-7.2z"/>
					
				
				<path d="m1690 733.8h-95.5c-4 0-7.2 3.2-7.2 7.2v17.9c0 4 3.2 7.2 7.2 7.2h12c4 0 7.2 3.2 7.2 7.2v60.2c0 4 3.1 7.3 7 7.5 4.1 0.1 7.3-3.1 7.3-7.2v-60.5c0-4 3.2-7.2 7.2-7.2h33c4 0 7.2 3.2 7.2 7.2v60.2c0 4 3.1 7.3 7 7.5 4.1 0.1 7.3-3.1 7.3-7.2v-60.5c0-4 3.2-7.2 7.2-7.2h12c4 0 7.2-3.2 7.2-7.2v-17.9c0-4-3.2-7.2-7.2-7.2h-18.9z"/>
			
		
		
			
				
					
						<polygon points="812.5 103.4 992.8 88.8 1181.2 364.4 1100.5 541.3"/>
						<path class="st1" d="m990.3 94 185.2 270.9-75.8 166.1-278.4-423.3 169-13.7m5-10.5-191.6 15.6 297.6 452.5 85.7-187.7-191.7-280.4z"/>
					
					
						<polygon points="679.5 138.3 801.5 104.9 1101.5 561 1022 659.1"/>
						<path class="st1" d="m799.3 110.6 296 450.1-72.9 89.9-335-509.4 111.9-30.6m4.4-11.5-132.2 36.2 350.1 532.3 86.1-106.2-304-462.3z"/>
					
					
						<polygon points="580.1 222.3 662.5 130.7 1014.1 665.2 901.5 710.9"/>
						<path class="st1" d="m661.9 138.9 344.6 524-103.1 41.9-317-482 75.5-83.9m1.2-16.4-89.3 99.3 325.8 495.3 122-49.6-358.5-545z"/>
					
				
				
					<polygon points="503.1 397.3 588.1 252.6 873.7 686.9 707.9 711"/>
					<path class="st1" d="m588.4 262.1 276.8 420.9-154.8 22.5-201.4-308.3 79.4-135.1m-0.5-18.9-90.7 154.3 208.3 318.9 176.7-25.7-294.3-447.5z"/>
				
				
					
						
							<path class="st1" d="m1160.4 833.8-86.5-131.8-6.3 4.5c-65.7 47-143.1 71.8-223.9 71.8-81.7 0-159.7-25.2-225.6-73-31.7-23-59.7-50.6-83.2-82-23.7-31.8-42.3-66.8-55.3-104.1l-0.1-0.2-7.1-18.6h-242.6l-80.7 152.6h-136.7l290.4-549.3h163.4l38.9 104.1 8-13.3c33.7-55.9 81.4-102.8 137.9-135.5 58.3-33.7 124.9-51.5 192.6-51.5 174.9 0 328.1 118 372.7 286.9l9.8 37 29.3-227.6h138l-45.9 356.4c-2.2 16.9 3 33.9 14.3 46.7 11.2 12.8 27.5 20.1 44.5 20.1h150.3l54.5-423.3h138l-50.8 394.5 208.5-394.5h163.2l137 366.3 47.2-366.3 277.2 0.1c53.2 0 99.2 17 132.9 49.1 29.9 28.5 49.7 68.5 55.6 112.8 6.1 45.3-2.4 91.1-23.8 128.9-23.4 41.4-60.2 69.9-106.4 82.6l-9.4 2.6 100.7 173.3h-147.6l-155.9-268.5h117.5c54.4 0 83.7-43.4 83.7-84.2 0-18.8-6.3-36.1-17.6-48.7-12.9-14.2-31.5-21.8-53.9-21.8l-131.3-0.1-19.9 154.7-34.7 268.5h-188.1l-57.1-152.6h-242.6l-80.5 152.7h-399.8c-32.7 0-63.7-10.4-89.6-30.2-24.9-18.9-43.5-45.8-52.4-75.6l-5.9-19.6-8.2 18.7c-7.7 17.7-16.7 34.8-26.8 50.9l-2.6 4.1 152.7 232.3-160 0.1zm-316.8-706c-146.2 0-265.1 118.9-265.1 265.1s118.9 265.1 265.1 265.1 265.1-118.9 265.1-265.1c0.1-146.2-118.9-265.1-265.1-265.1zm1051.2 256.8h138l-57.2-152.8-80.8 152.8zm-1603.7 0h138l-57.2-152.8-80.8 152.8z"/>
							<path d="m843.6 15c42.9 0 85 7.1 125.1 21.2 38.8 13.6 74.9 33.4 107.4 58.8 32.2 25.2 60 55.1 82.5 89.1 22.9 34.5 39.9 72.3 50.4 112.3l19.5 74.1 9.8-76 23.6-183.1h122.9l-44.8 348c-2.5 19 3.4 38.2 16.1 52.6s30.9 22.7 50.1 22.7h156.9l1.7-13.1 52.9-410.2h122.9l-44.5 345-10.6 82 38.6-73.1 187.1-353.9h153.7l124.6 333.2 21.1 56.5 7.7-59.9 42.5-329.9 270.6 0.1c26.7 0 51.5 4.3 73.7 12.9 20.4 7.9 38.6 19.4 54.1 34.1 28.7 27.3 47.6 65.8 53.4 108.4 5.9 43.7-2.3 87.8-22.9 124.3-22.4 39.6-57.6 66.9-101.9 79l-18.8 5.1 9.8 16.8 89.2 153.6h-130.3l-147.3-253.6h104.5c59.2 0 91.2-47.2 91.2-91.6 0-20.7-6.9-39.8-19.6-53.7-14.3-15.9-34.9-24.2-59.4-24.2l-124.7-0.1h-13.2l-1.7 13.1-18 139.8-2.2 16.9-32.7 253.6h-176.4l-53.4-142.9-3.6-9.7h-252.2l-4.2 8-76.5 144.7h-395.3c-31.1 0-60.5-9.9-85.1-28.6-23.6-18-41.3-43.5-49.7-71.8l-11.7-39.2-16.3 37.5c-7.6 17.4-16.4 34.1-26.3 49.9l-5.1 8.1 5.3 8 142.4 216.7h-142l-80.1-121.9-8.6-13-12.7 9.1c-64.4 46.1-140.3 70.4-219.5 70.4-40.5 0-80.3-6.4-118.3-18.9-36.8-12.1-71.4-29.8-102.9-52.7-31.1-22.5-58.6-49.6-81.6-80.4-23.3-31.1-41.5-65.5-54.2-102l-0.2-0.4-5.3-13.8-3.7-9.6h-252.1l-4.2 8-76.5 144.7h-119.8l282.5-534.4h153.7l31.7 84.7 10.9 29 16-26.6c33-54.9 79.8-100.9 135.3-133 28.1-16.3 58.2-28.8 89.4-37.3 32.2-9 65.6-13.4 99.3-13.4m0 650.5c150.3 0 272.6-122.3 272.6-272.6s-122.3-272.6-272.6-272.6-272.6 122.3-272.6 272.6 122.3 272.6 272.6 272.6m1038.8-273.4h161.2l-7.6-20.2-47.5-127.1-11.7-31.2-15.6 29.5-67.2 127.1-11.6 21.9m-1603.8 0h161.2l-7.6-20.2-47.5-127.1-11.7-31.3-15.5 29.5-67.2 127.1-11.7 22m565-392.1c-143 0-268.2 76.5-336.9 190.8l-35.3-94.4h-173.1l-298.3 564.2h153.6l80.7-152.6h232.9l5.3 13.8c53.4 153.7 199.3 264 371.2 264 85.1 0 163.9-27.2 228.2-73.2l84.5 128.6h177.9l-157.6-239.9c10.3-16.5 19.5-33.8 27.3-51.9 19 63.6 77.9 111.1 149.2 111.1h404.3l80.7-152.6h232.8l57.1 152.6h199.9l36.5-283.5 164.5 283.5h164.9l-102.3-176.1c201.8-55.3 181.7-388.1-60.3-388.1l-283.8-0.1-44.2 342.9-128.2-342.8h-173.1l-191.3 361.9 46.6-361.9h-153.1l-54.5 423.3h-143.7c-31.2 0-55.3-27.4-51.3-58.4l47-364.9h-153.1l-25.3 196.2c-44.1-168.3-197.4-292.5-379.7-292.5zm0 650.6c-142.3 0-257.6-115.4-257.6-257.7s115.4-257.6 257.6-257.6c142.3 0 257.6 115.4 257.6 257.6 0.1 142.3-115.3 257.7-257.6 257.7zm1520.9-273.5 18-139.8 124.7 0.1c93.1 0 80.9 139.7-12.2 139.7h-130.5zm-457.3 0 67.2-127.1 47.5 127.1h-114.7zm-1603.7 0 67.2-127.1 47.5 127.1h-114.7z"/>
						
						
							<polygon class="st1" points="2702.4 653.1 2773.2 103.8 2911.2 103.8 2840.4 653.1"/>
							<path d="m2902.7 111.3-68.9 534.4h-122.9l68.9-534.4h122.9m17-15h-153.1l-72.7 564.3h153l72.8-564.3z"/>
						
						
							<path class="st1" d="m3049.5 653.1c-42.6 0-83.1-18.3-111.3-50.3-28.1-32-41.1-74.6-35.7-116.8l49.3-382.2h138l-45.9 356.4c-2.2 16.9 3 33.9 14.3 46.7 11.2 12.8 27.5 20.1 44.5 20.1h150.3l54.5-423.3h138l-70.8 549.3-325.2 0.1z"/>
							<path d="m3436.8 111.3-68.9 534.4h-318.5c-20.7 0-40.6-4.4-59.1-13-17.8-8.3-33.5-20-46.5-34.8-13.1-14.9-22.7-31.9-28.6-50.6-6.2-19.5-7.9-39.8-5.3-60.3l48.4-375.7h122.9l-44.8 348c-2.5 19 3.4 38.2 16.1 52.6s30.9 22.7 50.1 22.7h156.9l1.7-13.1 52.9-410.2h122.7m17-15h-153.1l-54.5 423.3h-143.7c-31.2 0-55.3-27.4-51.3-58.4l47-364.9h-153.1l-50.1 388.7c-12 93.1 60.5 175.6 154.4 175.6h331.6l72.8-564.3z"/>
						
						
							<path class="st1" d="m3613.2 717.8c-69.9 0-120.2-26.8-150.2-49.2-27.1-20.3-42.9-40.8-47.6-47.4l23.3-180.7c20.4 45.4 48.3 75.2 69.7 93 32.7 27.2 70.2 42.9 102.8 42.9 31.8 0 56-14.4 68.2-40.6 6.6-14.1 7.4-28.1 2.5-41.5-12.9-35.3-62.3-58.2-95.1-73.4-4.3-2-8.4-3.9-11.9-5.6-29.1-14.1-51.6-31.2-68.7-52.3-25.1-30.9-37.8-70-37.8-116.1 0-48.1 22.8-93.8 64.1-128.7 37.6-31.8 86.7-50.8 131.2-50.8 75.9 0 125.8 30.4 138.7 39.3l-16.3 127.3c-25.7-30.2-69.4-44.1-103.6-44.1-35.3 0-60.1 13.4-66.4 35.7-15.2 53.8 69.6 79.5 76.1 81.4 53.2 19.2 92.1 51.4 115.6 95.5 23.8 44.7 24.8 88.6 23.2 110.8-2.5 35.5-11.2 67.6-25.8 95.2-13.1 24.7-30.9 45.9-53 63.1-38 29.4-88.6 46.2-139 46.2z"/>
							<path d="m3663.8 74.8c44.6 0 79.5 10.9 101 20 13.6 5.8 23.7 11.6 29.7 15.5l-13.9 107.6c-27.6-24.2-66.7-35.5-98.2-35.5-38.8 0-66.3 15.4-73.6 41.2-4.3 15.3-5.2 44.8 37 70.9 19.5 12 40.2 18.5 43.9 19.6 51.3 18.6 88.8 49.5 111.3 91.9 22.9 43.1 23.9 85.4 22.4 106.8-2.4 34.5-10.8 65.5-24.9 92.2-12.6 23.8-29.7 44.2-51 60.7-36.7 28.4-85.6 44.8-134.4 44.8-29.8 0-58.5-5-85.1-14.8-21.4-7.9-41.6-18.8-60.1-32.6-23.9-17.8-38.8-35.8-44.8-43.8l19.8-153.5c43.1 77.1 113.9 118.2 168.2 118.2 34.4 0 61.7-16.4 75-44.9 7.4-16 8.4-31.9 2.8-47.3-13.9-38.2-65.1-61.9-98.9-77.7-4.3-2-8.4-3.9-11.8-5.6-28.1-13.6-49.7-30.1-66.2-50.3-24-29.5-36.2-67-36.2-111.4 0-45.8 21.8-89.5 61.5-123 36.4-30.7 83.6-49 126.5-49m0-15c-92.4 0-202.8 77.8-202.8 187s68.4 154.6 110.7 175.1c37.5 18.2 128 52.8 101 110.7-11.5 24.6-34.1 36.3-61.4 36.3-60.1 0-142.5-56.8-176.2-158.5l-27.4 212.7s65.8 102.2 205.6 102.2c93.3 0 214.4-57.2 225.2-211.5 4.6-65.4-20.8-169.6-144-214 0 0-84.7-24.1-71.2-72.2 5.7-20.2 30.2-30.3 59.2-30.3 40 0 88.7 19.2 108.5 57.2l19.5-151.4c0 0.1-54.3-43.3-146.7-43.3z"/>
						
					
				
			
		
	

</svg>
