<?xml version="1.0" encoding="UTF-8"?>
<svg enable-background="new 0 0 3839 1181.4" version="1.1" viewBox="0 0 3839 1181.4" xml:space="preserve" xmlns="http://www.w3.org/2000/svg" xmlns:xlink="http://www.w3.org/1999/xlink">
<style type="text/css">
	.st0{fill:#FFFFFF;}
	.st1{fill:none;}
	.st2{fill:none;stroke:#2C72FF;stroke-width:26.2223;stroke-linecap:round;stroke-linejoin:round;stroke-miterlimit:10;}
	.st3{fill:none;stroke:#000000;stroke-width:26.2223;stroke-linecap:round;stroke-linejoin:round;stroke-miterlimit:10;}
	.st4{fill:none;stroke:#FFFFFF;stroke-width:13.1112;stroke-linecap:round;stroke-linejoin:round;stroke-miterlimit:10;}
	.st5{fill:none;stroke:#2C72FF;stroke-width:26.8516;stroke-linecap:round;stroke-linejoin:round;stroke-miterlimit:10;}
	.st6{fill:none;stroke:#000000;stroke-width:26.8516;stroke-linecap:round;stroke-linejoin:round;stroke-miterlimit:10;}
	.st7{fill:none;stroke:#FFFFFF;stroke-width:13.4258;stroke-linecap:round;stroke-linejoin:round;stroke-miterlimit:10;}
	.st8{fill:#FF00ED;}
	.st9{fill:#00FF12;}
	.st10{fill:none;stroke:#D38D00;stroke-width:26.8516;stroke-linecap:round;stroke-linejoin:round;stroke-miterlimit:10;}
	.st11{fill:none;stroke:#FFFFFF;stroke-width:26.8516;stroke-linecap:round;stroke-linejoin:round;stroke-miterlimit:10;}
</style>

	<polygon class="st0" points="3811.2 807.1 53 790.8 304.5 65.6 3811.2 65.6"/>
	
		
			<path d="M470.2,294.8H462L421.2,483h90L485,374.2C478.4,348,474.3,321,470.2,294.8z"/>
			<path class="st1" d="m1051.4 137.9c-0.6 0-1.2 0.1-1.8 0.2l-194.9 42.9v525.3h219.4v-211.9l25.7-48.5c0.6-1.2 1-2.6 1-3.9v-48.6c0-3.9-2.7-7.3-6.5-8.2l-44.8-10.1c-6.2-1.4-11-6.1-12.5-12.2l-27.5-111.2c-1.3-5.2 1.1-10.7 5.9-13.2l50.8-27c6.8-3.6 10.2-11.6 7.9-19l-14.6-48.7c-1.1-3.5-4.5-5.9-8.1-5.9z"/>
			
				<defs>
					<path id="a" d="m1074.1 550.7v-56.3l25.7-48.5 0.6-1.5c0.2-0.8 0.4-1.6 0.4-2.4v-48.6-0.1c0-0.5 0-0.9-0.1-1.3 0-0.1 0-0.1-0.1-0.2l-0.3-1.2v-0.1c-1-2.6-3.2-4.6-6-5.3l-44.8-10.1c-6.2-1.4-11-6.1-12.5-12.2l-26-104.9-1.6-6.3c-1.3-5.2 1.1-10.7 5.9-13.2l42.3-22.4 8.5-4.5c3.6-1.9 6.2-5.1 7.6-8.7 1.2-3.2 1.4-6.8 0.4-10.3l-1.5-4.9-13.1-43.8c-0.2-0.8-0.6-1.6-1.1-2.2-0.1-0.1-0.1-0.2-0.2-0.3-0.5-0.6-1-1.2-1.6-1.6-0.1-0.1-0.2-0.2-0.4-0.3-0.6-0.4-1.3-0.8-2.1-1.1-0.1 0-0.2 0-0.3-0.1-0.7-0.2-1.5-0.3-2.3-0.4h-0.2-0.1c-0.6 0-1.1 0.1-1.7 0.2l-11.1 2.4-183.7 40.5v525.3h219.4v-155.6"/>
				</defs>
				<clipPath>
					<use xlink:href="#a"/>
				</clipPath>
			
			<path d="m1091 258h-59.5l23.8 104.7h34.1c36.8 0 73.6-5.7 73.6-51.5 0-47.5-33.5-53.2-72-53.2z"/>
			
				<path d="m3015.9 320.6c-20.6-20.6-47.9-31.9-77-31.9-7.4 0-13.4 6-13.4 13.4s6 13.4 13.4 13.4c21.9 0 42.5 8.5 58 24s24 36.1 24 58c0 7.4 6 13.4 13.4 13.4s13.4-6 13.4-13.4c0.1-29-11.2-56.3-31.8-76.9z"/>
				<path d="m2938.9 235c-89.7 0-162.6 72.9-162.6 162.6s72.9 162.6 162.6 162.6 162.6-72.9 162.6-162.6-73-162.6-162.6-162.6zm0 298.4c-75 0-135.8-60.8-135.8-135.8s60.8-135.8 135.8-135.8 135.8 60.8 135.8 135.8c-0.1 75-60.8 135.8-135.8 135.8z"/>
				<path d="m2938.9 479.7c-45.2 0-82.1-36.8-82.1-82.1 0-21.9 8.5-42.5 24-58 5.2-5.2 5.2-13.7 0-19-5.2-5.2-13.7-5.2-19 0-20.6 20.6-31.9 47.9-31.9 77 0 60.1 48.9 108.9 108.9 108.9 7.4 0 13.4-6 13.4-13.4 0.1-7.4-5.9-13.4-13.3-13.4z"/>
			
			<path d="m2318.9 546-26.9-2.3v149.2c0 7.4 6 13.4 13.4 13.4s13.4-6 13.4-13.4v-146.9z"/>
			<path class="st6" d="m2277.9 302.1c24.4 0 48.9 9.3 67.5 28 18.6 18.6 28 43.1 28 67.5"/>
			<path class="st6" d="m2277.9 302.1c24.4 0 48.9 9.3 67.5 28"/>
			
				<path d="m651.1 0h-374.6l-276.5 795.8h3839v-795.8h-3187.9zm-80.3 706.3-20.4-76.9h-169.3l-18 76.9h-237.2l214.3-616.8h247.8l220 616.8h-237.2zm529.9-264.3c0 0.8-0.2 1.6-0.4 2.4-0.2 0.5-0.3 1-0.6 1.5l-25.7 48.5v211.8h-219.3v-525.2l183.8-40.4 11.1-2.4c0.6-0.1 1.1-0.2 1.7-0.2h0.1 0.2c0.8 0 1.5 0.1 2.3 0.4 0.1 0 0.2 0 0.3 0.1 0.7 0.3 1.4 0.6 2 1.1 0.1 0.1 0.2 0.2 0.4 0.3 0.6 0.5 1.1 1 1.6 1.6 0.1 0.1 0.1 0.2 0.2 0.3 0.5 0.7 0.8 1.4 1.1 2.2l13.1 43.8 1.5 4.9c1 3.5 0.8 7.1-0.4 10.3-1.3 3.6-3.9 6.8-7.6 8.7l-8.5 4.5-42.3 22.4c-4.8 2.5-7.2 8-5.9 13.2l1.5 6.3 26 104.9c1.5 6.1 6.4 10.9 12.5 12.2l44.8 10.1c2.8 0.6 5 2.7 6 5.3v0.1l0.3 1.2c0 0.1 0 0.1 0.1 0.2 0.1 0.4 0.1 0.9 0.1 1.3v0.1 48.5zm75.4 264.3-75.2-151.6v-53.5l22.5-42.5c1.3-2.5 2-4.6 2.6-6.3 1-3.4 1.6-6.9 1.6-10.3v-50.3l-0.1-0.7c-0.1-1.2-0.2-2.4-0.4-3.5l-0.3-1.7-0.3-1.1c-0.3-1.1-0.6-2.3-1-3.4l-0.5-1.5-0.3-0.6c-4.5-10.3-13.5-17.8-24.6-20.3l-38.7-8.7-23.2-93.6 40.4-21.4c9.3-4.9 16.5-13.1 20.2-23.1 3.3-8.9 3.6-18.3 0.9-27.3l-14.6-48.7c-0.9-3.2-2.4-6.2-4.3-9.1l-1.2-1.8c-1.9-2.6-4.1-4.9-6.7-6.8l-1-0.7-0.6-0.4c-2.7-1.9-5.6-3.4-8.6-4.4l-1.5-0.5-0.8-0.2c-1.5-0.4-3.1-0.7-4.7-0.9l-1.3-0.3h-5.1l-0.8 0.1c-1.7 0.1-3.3 0.4-4.9 0.7l-189.2 41.6v-64h270.8c139.1 0 256.8 58.9 256.8 214.3 0 93.3-36 132.5-119.4 160.3v4.9c11.5 9 25.4 18.8 37.6 36.8l134.2 200.4h-258.3zm609.4-188.2c51.5 0 92.4-22.1 128.4-57.3l-6.5 230.7c-36 17.2-119.4 24.5-159.5 24.5-175.9 0-313.3-136.6-313.3-312.5 0-180 141.5-323.9 322.3-323.9 50.7 0 103.1 9 150.5 25.4l6.5 234.8c-36-33.5-81-62.2-131.7-62.2-67.1 0-121.9 53.2-121.9 120.2 0.1 68 58.1 120.3 125.2 120.3zm493.1 228.4c-22.2 0-40.3-18-40.3-40.3v-178.7c-31.2-9.5-57.6-29.9-74.8-56.7-0.2-0.2-0.3-0.5-0.5-0.7-1.8-2.8-3.5-5.7-5.1-8.7l-0.3-0.6c-1.5-2.9-2.9-5.8-4.3-8.9l-0.3-0.6c-1.3-3-2.5-6-3.5-9.1-0.2-0.5-0.4-1.1-0.6-1.6-1-3.1-2-6.2-2.8-9.4-0.1-0.3-0.1-0.5-0.2-0.8-0.7-3-1.4-6.1-1.9-9.1-0.1-0.6-0.2-1.1-0.3-1.7-0.5-3.2-0.9-6.4-1.2-9.7-0.1-0.7-0.1-1.3-0.2-2-0.3-3.4-0.4-6.8-0.4-10.2 0-75 60.8-135.8 135.8-135.8s135.8 60.8 135.8 135.8c0 3.4-0.2 6.8-0.4 10.1 0 0.7-0.1 1.4-0.2 2-0.3 3.2-0.7 6.4-1.2 9.6-0.1 0.5-0.2 1.1-0.3 1.6-0.5 3-1.1 5.9-1.8 8.9-0.1 0.4-0.2 0.7-0.3 1.1-0.8 3.1-1.7 6.2-2.7 9.3-0.2 0.6-0.4 1.1-0.6 1.7-1.1 3.1-2.2 6.1-3.5 9.1 0 0.1-0.1 0.2-0.1 0.3-1.3 3-2.7 5.9-4.2 8.8-0.2 0.3-0.3 0.6-0.5 1-1.5 2.9-3.2 5.7-4.9 8.5-0.2 0.3-0.3 0.5-0.5 0.8-3.6 5.7-7.7 11.2-12.1 16.3-0.1 0.1-0.2 0.3-0.3 0.4-16.2 18.5-37.2 32.5-61.2 40.1v179.2 0.1c0.2 21.9-17.8 39.9-40.1 39.9zm103.9-40.2h-36.8v-160.9c57.4-26.2 94.8-83.3 94.8-147.8 0-89.7-72.9-162.6-162.6-162.6s-162.6 72.9-162.6 162.6c0 65.2 37.9 122.6 96.2 148.4v160.2h-274l214.3-616.8h247.9l220 616.8h-237.2zm569.3 0h-283.8v-616.8h228.2c207 0 365.6 90.8 365.6 317.4 0 183.2-129.2 299.4-310 299.4zm797.7 0h-421.3v-616.8h414.7v168.5h-189v58.9h172.6v160.3h-172.5v60.5h195.5v168.6z"/>
			
			<path d="m2277.8 533.4c-13.7 0-27-2.1-39.5-5.9v27.9c12.6 3.2 25.8 4.9 39.5 4.9 14.2 0 28-1.9 41.1-5.3v-28c-13 4.1-26.8 6.4-41.1 6.4z"/>
			
				
					<path d="m1063.9 479.4 21.1-39.8v-40.9l-39.1-8.8c-12-2.7-21.4-11.8-24.3-23.8l-27.5-111.2c-3-12.3 2.6-24.9 13.8-30.9l50.8-27c0.2-0.1 0.3-0.4 0.2-0.6l-12.6-42.2-129.5 28.5 147.1 296.7z"/>
					<polygon points="870.4 270.5 870.4 330.9 1048.4 689.9 1058.3 689.9 1058.3 649.4"/>
					<polygon points="870.4 689.9 1018.5 689.9 870.4 391.3"/>
				
			
		
	
	
		
			<polygon points="134 1181.4 3705 1181.4 3839 795.8 0 795.8"/>
			
				<path class="st0" d="m1128.4 925c-15-18.6-38.1-30-64.2-30-50.4 0-98 43.8-105.8 93.6-8.1 49.8 26.1 93.5 76.8 93.5 25.5 0 52.5-12 73.2-30l-4.8 31.2c-21.9 14.1-47.1 22.2-71.1 22.2-63.9 0-109.7-51.9-99.5-116 10.2-64.8 71.7-117.8 136.4-117.8 25.2 0 46.5 7.2 64.2 22.2l-5.2 31.1z"/>
				<path class="st0" d="m1261.8 1078.2h62.4l-3.6 23.4h-87.6l35.7-226.1h25.2l-32.1 202.7z"/>
				<path class="st0" d="m1479.5 1037.4-37.5 64.2h-27.6l141.8-236.9 64.2 236.9h-27.9l-16.5-64.2h-96.5zm66.9-113.9-53.1 90.6h76.5l-23.4-90.6z"/>
				<path class="st0" d="m1866.3 919.6c-6.6-15.6-15.9-24.6-35.1-24.6-20.1 0-39.6 14.4-42.9 35.1-3.3 19.5 15.6 28.5 29.7 35.4l13.8 6.6c27.6 12.9 50.1 27.6 44.4 63.6-6.3 39.6-42.9 69.9-82.2 69.9-36.3 0-59.7-23.4-61.2-58.5l25.5-6.9c-0.3 23.1 14.4 42 38.7 42s49.5-18.6 53.7-44.1c4.2-26.4-15.3-35.4-34.8-45l-12.6-6c-24.6-12-45.3-25.5-40.2-57.9 5.7-35.1 38.7-57.6 72.3-57.6 25.2 0 44.7 12.9 53.1 35.1l-22.2 12.9z"/>
				<path class="st0" d="m2123.8 919.6c-6.6-15.6-15.9-24.6-35.1-24.6-20.1 0-39.6 14.4-42.9 35.1-3.3 19.5 15.6 28.5 29.7 35.4l13.8 6.6c27.6 12.9 50.1 27.6 44.4 63.6-6.3 39.6-42.9 69.9-82.2 69.9-36.3 0-59.7-23.4-61.2-58.5l25.5-6.9c-0.3 23.1 14.4 42 38.7 42s49.5-18.6 53.7-44.1c4.2-26.4-15.3-35.4-34.8-45l-12.6-6c-24.6-12-45.3-25.5-40.2-57.9 5.7-35.1 38.7-57.6 72.3-57.6 25.2 0 44.7 12.9 53.1 35.1l-22.2 12.9z"/>
				<path class="st0" d="m2275.8 1101.6h-25.2l35.7-226.1h25.2l-35.7 226.1z"/>
				<path class="st0" d="m2611.9 925c-15-18.6-38.1-30-64.2-30-50.4 0-98 43.8-105.8 93.6-8.1 49.8 26.1 93.5 76.8 93.5 25.5 0 52.5-12 73.2-30l-4.8 31.2c-21.9 14.1-47.1 22.2-71.1 22.2-63.9 0-109.7-51.9-99.5-116 10.2-64.8 71.7-117.8 136.4-117.8 25.2 0 46.5 7.2 64.2 22.2l-5.2 31.1z"/>
				<path class="st0" d="m2847.8 919.6c-6.6-15.6-15.9-24.6-35.1-24.6-20.1 0-39.6 14.4-42.9 35.1-3.3 19.5 15.6 28.5 29.7 35.4l13.8 6.6c27.6 12.9 50.1 27.6 44.4 63.6-6.3 39.6-42.9 69.9-82.2 69.9-36.3 0-59.7-23.4-61.2-58.5l25.5-6.9c-0.3 23.1 14.4 42 38.7 42s49.5-18.6 53.7-44.1c4.2-26.4-15.3-35.4-34.8-45l-12.6-6c-24.6-12-45.3-25.5-40.2-57.9 5.7-35.1 38.7-57.6 72.3-57.6 25.2 0 44.7 12.9 53.1 35.1l-22.2 12.9z"/>
			
		
		<line class="st7" x1="842.6" x2="2996.4" y1="795.8" y2="795.8"/>
	

</svg>
