<?xml version="1.0" encoding="UTF-8"?>
<svg enable-background="new 0 0 3839 676.7" version="1.1" viewBox="0 0 3839 676.7" xml:space="preserve" xmlns="http://www.w3.org/2000/svg">
<style type="text/css">
	.st0{fill:#C70A11;}
	.st1{fill:#2FBB37;}
	.st2{fill:#1E35A0;}
	.st3{fill:#FFFFFF;}
</style>

	
		
			<path d="m1540.4 0-4.8 13.8c16.6 0.9 49.3-3.2 47.5 16.2-0.9 9.8-9.7 32.1-13.4 41.8l-52.4 144c-8.7 24.7-38.9 38.9-67.3 38.9l-4.8 13.8h226.6l26.9-74.2h-13.7c-25.8 45.1-20.9 56.4-68.7 56.4-18.3 0-41.2-2-39.1-25.2 0.5-6.5 6.8-22.3 9-28.8l22.9-62.9h18.9c18.5 0 31.5 18.2 25.6 35.7l-4.4 12.9h11.4l31.4-92.2h-11.4l-0.5 1.6c-4.9 14.4-18.4 24-33.6 24h-31l27.2-75.1c9-24.3 8.9-23.1 33.7-23.1 56.9 0 67.2 14.3 59.3 36.2h13.8l19.5-53.8h-228.6z"/>
			<path d="m1726.7 178.5c6.6-17.3 22.7-61.4 24.2-78.1 0.3-3.7-1.1-8.7-5.7-8.7-9 0-22.4 23.9-26.6 31.1l-7.3-3.7c12-21.7 30.9-51.7 58.4-51.7 15.2 0 22.9 10.9 21.6 25.7-0.6 8-2.5 15.9-4.8 22.8l0.6 0.8c13.1-21.7 36.8-49.2 64.3-49.2 15.6 0 25.6 9 24.2 25.3-0.6 8-3.2 15.9-5.3 23.1l0.6 0.8c14.3-22.4 34.6-49.2 64-49.2 18.4 0 28.4 10.1 26.8 28.2-1.1 11.9-7.6 29.3-12.3 40.9l-8.7 21c-3.2 7.6-14.7 31.8-15.4 39-0.3 3.2 1.8 8 5.5 8 5.1 0 11-5.7 16.3-12.4 5.5-6.8 10.2-14.5 12.7-18l6.9 4c-3.8 6.5-8.2 13.6-13.3 20.3-11.9 15.7-27.6 29.6-46.4 29.6-15.2 0-25.1-10.4-23.8-25.7 0.9-10.1 8.4-30 12.6-40.1l9.1-21.7c3.7-9 14.9-34 15.6-42.3 0.4-4.7-2.5-9-7.2-9-25 0-58.2 74.1-66 93.2l-16.6 40.9h-39l33.2-86.7c3.7-8.7 11.4-27.1 12.2-35.8 0.4-5.4-0.4-11.6-6.6-11.6-27.4 0-54.9 68.7-63.5 89.3l-18.7 44.8h-39.4l17.8-44.9z"/>
			<path d="m2098.7 181.1c-18.8 24.6-43.9 47-75 47-32.9 0-50.2-20.7-47.3-53.9 4.7-53.9 49-106.6 105.1-106.6 18.8 0 43.5 7.6 41.4 30.3-3.5 40.9-68.7 54.5-100.9 62.5-1.7 6.9-3.3 13.8-4 20.7-1.2 14.1 5.3 27.1 20.8 27.1 20.2 0 38.2-19.5 51.4-34l8.5 6.9zm-9.6-87.9c0.8-8.3-3.4-14.8-12-14.8-26 0-43.8 50.5-50.7 70.4 24.8-7 60.2-26.9 62.7-55.6z"/>
			<path d="m2155.4 223.4h-40.4l18.1-45.2c7.9-19.9 20.4-56.4 22.3-77 0.3-4 0.1-9-4.6-9-10.1 0-22.3 23.4-26.6 31.4l-7.6-3.7c12-22 31.7-52.4 59.6-52.4 14.8 0 21 11.9 19.8 25.3-1 10.4 24.6-25.3 53.1-25.3 14.4 0 24.8 9.4 23.6 24.2-1.2 13-10.9 21.3-23.6 21.3-15.6 0-13.6-14.8-22.2-14.8-19.5 0-48.1 70.1-54.9 86.4l-16.6 38.8z"/>
			<path d="m2280.2 114.2c2.8-31.4 34.1-46.7 62-46.7 17.7 0 42.8 6.1 40.9 28.6-0.8 8.7-7.9 15.2-16.5 15.2-10.9 0-14.3-9.8-13.9-18.8 0.4-8.7-1.8-12.7-11.5-12.7-11.6 0-20 5.8-21 17-1.2 13.3 9.1 23.1 16.8 31.4 12.8 14.4 23.4 28.9 21.6 50.2-2.7 31.1-36.1 49.5-64 49.5-20.2 0-48-9.8-45.7-34.7 0.9-9.8 7.3-17 17.4-17 9 0 16.1 6.1 15.3 15.9l-0.9 6.1-0.9 5.8c-0.6 8 7.3 11.6 13.8 11.6 12.3 0 22.6-10.4 23.7-22.4 1.1-12.3-5.2-19.1-12-27.9-11.4-14.2-26.8-31.2-25.1-51.1z"/>
			<path d="m2381.9 166c4.4-50.7 46.6-98.3 98.6-98.3 36.9 0 57.6 27.1 54.5 62.5-4.3 48.8-48 98-98.5 98-36.8-0.1-57.7-26.1-54.6-62.2zm57.8-40.2c-8.1 18.1-18.1 45.5-19.8 65.1-1 11.2 2.2 25 15.9 25 33.2 0 59.4-87.4 61.6-113.1 1-11.6-3.4-22.8-16.5-22.8-21.3-0.1-34.3 29.2-41.2 45.8z"/>
			<path d="m2563.7 166c6.1-16.2 19-48.4 20.4-64.7 0.3-4-1-9.8-6-9.8-9.8 0-22.2 22.4-26.9 30.3l-7-2.9c11.8-23.1 30.5-51.3 58.7-51.3 15.9 0 22.3 9.4 21 25l-3.5 20.7-1.7 6.9 0.6 0.8c14.2-25.7 38.6-53.1 69.7-53.1 18.4 0 28.4 10.1 26.8 28.2-1.1 11.9-7.6 29.3-12.3 40.9l-8.7 21c-3.2 7.6-14.7 31.8-15.4 39-0.3 3.2 1.8 8 5.5 8 10.1 0 24.1-23.4 29-30.3l6.9 4c-12.4 21.3-32.9 49.9-59.7 49.9-15.2 0-25.1-10.4-23.8-25.7 0.9-10.1 8.4-30 12.6-40.1l9.1-21.7c3.7-9 14.9-34 15.6-42.3 0.4-4.7-2.5-9-7.2-9-31.5 0.8-56.7 65.8-66.6 88.2l-19.9 45.9h-38l20.8-57.9z"/>
			<ellipse cx="1503.3" cy="49.3" rx="20.8" ry="19.8"/>
			<path d="m1535.6 13.8c-9.7 0-38.6 0.3-17.1 22.2 4.4 4.4-1.1 10.9-1.1 10.9l-15.6 2.5-17.8 6.6s-24.1-56 56.6-56"/>
		
		
			
				<path d="m1271.1 162.3c11.8 0 21.5-9.7 21.5-21.5s-9.6-21.5-21.5-21.5-21.5 9.6-21.5 21.5 9.6 21.5 21.5 21.5"/>
				<path d="m1236.3 95 3.8-2.4c3.1-1.9 6.3-3.9 9.6-6.1 1.6 4.6 3.3 8.5 4.8 11.7-17 6.7-29 23.2-29 42.5 0 16.6 8.8 31 22 39-3.9 2.3-10.3 2.8-16.2 1.3-19.7-5.3-25.7-24.2-25.7-39.5-0.1-18.4 14.8-36.5 30.7-46.5m24.5-60.8c0.4 0 1.7 0 3 2 1 1.5 2.2 4.5 2.2 10 0 12.3-4.9 18.2-11.9 24.7-1.7-6.5-2.8-11-2.8-17.9-0.3-12.6 5.9-18.8 9.5-18.8m10.3 75.3c17.3 0 31.3 14 31.3 31.3s-14 31.3-31.3 31.3-31.3-14-31.3-31.3 14-31.3 31.3-31.3m-34.9 80.4c8.4 1 14.3 0.5 19.3-0.8 5.9 2.5 11.4 6.3 11.4 12.6 0 13.9-4.4 22.3-11.4 16.8-6.9-5.5-27.2-5.9-27.2 8.9s23.2 21.7 36.6 5.4c13.3-16.3 14.3-36 8.9-46.5 0-0.1-0.1-0.1-0.1-0.1 24-1.3 43.1-21.2 43.1-45.5 0-25.2-20.5-45.7-45.7-45.7-3 0-6 0.3-8.8 0.9-1.7-3.7-3.9-8.6-5.9-14.4 9.6-8 17.4-18.6 17.4-35.4 0-6-1.1-10.8-3.3-14.3-2.4-3.7-5.7-5.7-9.7-5.7-8.7 0-17.6 10-17.6 26.9 0 8.9 1.7 17.7 4 25.6-3.5 2.6-7.3 4.8-11.1 7.2l-3.9 2.4c-18.6 11.6-44 31.7-44 53.2 0 27.8 22.8 45.5 48 48.5"/>
			
			<path d="m1118.2 0v268.6h268.6v-268.6h-268.6zm134.3 257.9c-68.3 0-123.7-55.4-123.7-123.7s55.4-123.7 123.7-123.7 123.7 55.4 123.7 123.7c-0.1 68.3-55.5 123.7-123.7 123.7z"/>
		
	
	
		
			
				<path d="m1183.8 558.1c31.5-27 54-53.2 54-104.1 0-50.4-26.1-95.9-129.7-95.9h-82.8c-25.4 0-46 20.5-46 46v263.5h100v-220.5h28.8c29.7 0 41.6 37.1 11.2 47.6-31.5 11-39.1 64.7-19.1 97.1l46.7 75.6h104.6l-67.7-109.3z"/>
			
			
				<rect x="2105.4" y="358.2" width="100" height="309.5"/>
			
			
				<path d="m3023.2 533.6c29.5-23.1 45-60.2 39.5-97.3-0.5-2.8-1.1-4.9-1.5-6.5-36.7-114.1-210.7-114-247.3 0.2-3.7 11.5-6 24.3-6.6 38.3 0 0.5 0.4 1 1 1h99.1c-0.5-3.3-0.6-6.6-0.3-9.8 0.5-11.4 7.5-20 16.6-24.6 26.6-13.6 49.5 24.7 25.9 43.2l-132.3 103.7c-35.9 28.2-16 85.9 29.7 85.9h4.9c0.1 0 0.3-0.1 0.5-0.1l-0.1 0.1h211.4v-89.1h-97.9l57.4-45z"/>
			
			
				<rect x="2585.3" y="482.7" width="142.2" height="89.1"/>
			
			
				<path d="m3692.2 341.4v89.2h34.2c7 0 12.6 5.7 12.6 12.6v224.6h100v-272.5c0-29.7-24.1-53.8-53.8-53.8l-93-0.1z"/>
			
			
				<path d="m1923.4 358.7-15.9-0.5h-61.4c-25.4 0-46 20.5-46 46v217.6c0 25.4 20.5 45.9 46 45.9h77.4c210.4-13.7 210.4-295.4-0.1-309zm-16.1 219.9h-7.3v-131.4h7.3c98.5 0.1 98.5 131.4 0 131.4z"/>
			
			
				<path d="m1425.3 447.2h38v-89.1h-38c-231.8 0-231.8 309.5 0 309.4v0.1h38v-89.1h-38v-0.1c-98.4 0.1-98.4-131.2 0-131.2z"/>
			
			
				<path d="m862.6 667.7h100l-91.7-267.7c-21.3-62.2-109.3-62.2-130.5 0l-91.7 267.7h100l10.2-41.9h93.4l10.3 41.9zm-86.3-113.2 23.2-95.2c1.2-6.8 10.9-6.8 12 0l23.2 95.2h-58.4z"/>
			
			
				<path d="m1688.6 667.7h100l-91.7-267.7c-21.3-62.2-109.3-62.2-130.5 0l-91.7 267.7h100l10.2-41.9h93.4l10.3 41.9zm-86.3-113.2 23.2-95.2c1.2-6.8 10.9-6.8 12 0l23.2 95.2h-58.4z"/>
			
			
				<path d="m2435.1 667.7h100l-91.7-267.7c-21.3-62.2-109.3-62.2-130.5 0l-91.7 267.7h100l10.2-41.9h93.4l10.3 41.9zm-86.1-113.2 23.2-95.2c1.2-6.8 10.9-6.8 12 0l23.2 95.2h-58.4z"/>
			
			
				<path d="m3232.1 338.8c-103.7 0-142 75.6-142 169s38.3 169 142 169 142-75.6 142-169-38.3-169-142-169zm0 248.9c-23.2 0-42.1-19.4-42.1-79.9s18.7-79.9 42.1-79.9c23.2 0 42.1 19.4 42.1 79.9s-19 79.9-42.1 79.9z"/>
			
			
				<path d="m3539 338.8c-103.7 0-142 75.6-142 169s38.3 169 142 169 142-75.6 142-169-38.2-169-142-169zm0 248.9c-23.2 0-42.1-19.4-42.1-79.9s18.7-79.9 42.1-79.9c23.2 0 42.1 19.4 42.1 79.9s-18.8 79.9-42.1 79.9z"/>
			
		
		<polygon points="3063.5 578.6 3063.5 667.7 2852.2 667.7 2918.9 578.6"/>
		<rect x="1425.5" y="578.6" width="38" height="89.1"/>
		<rect x="1425.5" y="358.2" width="38" height="89.1"/>
		
			
				<polygon points="107.6 354.1 0 667.7 158.1 667.7 265.7 354.1"/>
				<polygon points="323.7 354.1 216.2 667.7 374.4 667.7 481.9 354.1"/>
				<polygon points="540 354.1 432.5 667.7 590.6 667.7 698.1 354.1"/>
			
		
	

</svg>
