<?xml version="1.0" encoding="UTF-8"?>
<svg enable-background="new 0 0 3839 1668.5" version="1.1" viewBox="0 0 3839 1668.5" xml:space="preserve" xmlns="http://www.w3.org/2000/svg">
<style type="text/css">
	.st0{fill:#FFFFFF;}
</style>

	<rect class="st0" y="762" width="3771.3" height="873.2"/>
	
		
			
				
					<path d="m1023.7 1202.5 1.6 1.6c41.4-59.4 59.4-73.4 93-73.4 10.2 0 17.2 0.8 28.9 5.5v75c-15.6-8.6-26.6-11.7-40.6-11.7-34.4 0-57.8 21.1-94.5 89.8l-27.3 197.7h-66.4l49.2-350.8h66.4l-10.3 66.3z"/>
					<path d="m1412.7 1472.8c-33.6 18-61.7 25-97.7 25-94.5 0-154.7-63.3-154.7-161.7 0-114.1 89.1-210.9 227.4-210.9 18 0 38.3 2.3 60.2 6.2l-8.6 58.6c-18-3.9-34.4-5.5-50.8-5.5-97.7 0-160.2 73.4-160.2 147.7 0 66.4 36.7 106.3 96.1 106.3 35.2 0 63.3-10.2 96.1-29.7l-7.8 64z"/>
					<path d="m1574.4 1192.3 1.6 1.6c39.1-45.3 80.5-68.7 121.9-68.7 63.3 0 89.1 55.5 79.7 122.7l-33.6 239.1h-66.4l33.6-243c6.3-44.5-10.9-68.7-39.8-68.7-32 0-72.7 37.5-106.2 83.6l-32 228.1h-66.4l75-532.8h66.4l-33.8 238.1z"/>
					<path d="m1861.9 1486.9h-66.4l49.2-350.8h66.4l-49.2 350.8zm66.4-461c0 21.1-17.2 38.3-38.3 38.3s-38.3-17.2-38.3-38.3 17.2-38.3 38.3-38.3c21.2 0 38.3 17.2 38.3 38.3z"/>
					<path d="m2025.2 1197 1.6 1.6c43-48.4 82-68 121.1-68 28.9 0 70.3 14.8 79.7 78.9 50.8-62.5 96.9-78.9 131.2-78.9 50.8 0 93.8 38.3 80.5 128.9l-32 227.4h-66.4l32.8-230.5c7-46.1-7-73.4-35.9-73.4-23.4 0-61.7 17.2-110.2 81.2l-32 222.7h-66.4l31.3-221.9c7.8-50.8-1.6-82-39.1-82-25.8 0-68.7 32-105.5 81.2l-31.3 222.7h-66.4l50-350.8h66.4l-9.4 60.9z"/>
					<path d="m2733.8 1458.7c-35.2 25.8-75 39.1-117.2 39.1-89.1 0-146.9-67.2-146.9-169.5 0-114.8 72.7-203.1 166.4-203.1 78.1 0 136.7 72.7 121.9 179.7h-218.8c-16.4 93.8 35.2 138.3 89.8 138.3 32.8 0 70.3-15.6 114.1-47.7l-9.3 63.2zm-37.5-200c0-44.5-19.5-78.9-63.3-78.9-39.1 0-65.6 25.8-83.6 78.9h146.9z"/>
					<path d="m3072.8 1486.9c-28.1 7.8-55.5 10.9-89.8 10.9-118 0-184.4-57.8-184.4-162.5 0-75 63.3-210.2 230.5-210.2h28.1l24.2-171.1h66.4l-75 532.9zm-23.4-306.3h-17.2c-108.6 0-165.6 78.1-165.6 153.1 0 69.5 41.4 109.4 116.4 109.4 10.2 0 19.5 0 30.5-1.6l35.9-260.9z"/>
					<path d="m3411.1 1458.7c-35.2 25.8-75 39.1-117.2 39.1-89.1 0-146.9-67.2-146.9-169.5 0-114.8 72.7-203.1 166.4-203.1 78.1 0 136.7 72.7 121.9 179.7h-218.8c-16.4 93.8 35.2 138.3 89.8 138.3 32.8 0 70.3-15.6 114.1-47.7l-9.3 63.2zm-37.5-200c0-44.5-19.5-78.9-63.3-78.9-39.1 0-65.6 25.8-83.6 78.9h146.9z"/>
					<path d="m3704.1 1231.4c-39.8-30.5-76.6-46.1-105.5-46.1-27.3 0-47.7 16.4-47.7 36.7 0 50 139.8 74.2 139.8 171.1 0 63.3-46.9 104.7-108.6 104.7-43.7 0-71.9-10.9-121.9-46.1l11.7-64.1c46.1 36.7 79.7 52.3 107.8 52.3 26.6 0 45.3-16.4 45.3-39.1 0-58.6-137.5-79.7-137.5-175 0-60.2 43-100.8 110.2-100.8 36.7 0 73.4 14.1 106.3 36.7v69.7z"/>
				
				<polygon class="st0" points="283.7 1645.8 53.3 1628.9 443.2 1151.5 628.8 1111.4 781.2 1201.8 769.6 1645.8"/>
				<polygon class="st0" points="438.5 1134.7 559.2 953.4 776 731.8 781.2 1201.8 602.7 1102.3"/>
				<path d="m413.7 1230.9c111.6-139.6 304.3-80.9 342.5-8.9 0 0 42.1-43.7 35.8-51.2-41.2-49.5-121.1-83.4-202.3-83.4-87.9 0-166.7 38-221.8 106.9l-78.8 98.6 124.6-62z"/>
				<polygon points="0 718.1 0 1645.8 66.1 1645.8 66.5 718.1"/>
				<polygon points="3772.5 718.1 3772.5 1645.8 3838.6 1645.8 3839 718.1"/>
				<polygon points="3777.2 718.1 0 718.1 0 784.2 3777.2 784.6"/>
				<polygon points="3839 1602 0 1602 0 1668.1 3839 1668.5"/>
			
		
		
			<polygon points="734.9 725.1 40.5 1602 119.6 1602 808.1 733.2 781.2 733.1"/>
		
		<polygon points="807.7 1602 808 728.6 748 728.3 748 1602"/>
	
	
		<path d="m2901.9 330.4c-10.6-152.6-91.7-330.4-190.7-330.4s-180.2 177.8-190.7 330.4h381.4z"/>
		<path d="m2514.3 366.7c2.3 128.1 128.2 182.3 196.9 182.3s194.6-54.2 196.9-182.3h-393.8z"/>
		
			<rect transform="matrix(-1.837e-16 1 -1 -1.837e-16 3273.9 -2148.5)" x="2683.5" y="544.6" width="55.4" height="36.3"/>
		<path d="m2498.4 520.1v14.4c104.9 21.9 263.7 73.5 379.3 149l62.5-24.1c-87.3-53.3-289.3-115.5-441.8-139.3z"/>
		
			
				<path d="m1043.9 379.8-46.8 140.3h62.6v14.4h-116.5v-14.4h34.5l162.6-465.5h21.6l154.7 465.5h51.1v14.4h-195v-14.4h62.6l-47.5-140.3h-143.9zm72.7-213.7-67.6 199.3h134.5l-66.9-199.3z"/>
				<path d="m1584.2 443.1c-25.2 67.6-62.6 98.6-118 98.6-74.1 0-138.1-68.3-138.1-146.8 0-81.3 66.2-150.4 144.6-150.4 54.7 0 100.7 33.8 100.7 74.1 0 22.3-13.7 37.4-33.8 37.4-18.7 0-32.4-14.4-32.4-33.8 0-10.8 5-23 14.4-33.8 2.2-2.2 2.9-2.9 2.9-5 0-10.8-25.9-22.3-49.6-22.3-25.9 0-45.3 10.1-56.1 29.5-9.4 18-14.4 59.7-14.4 123.7 0 52.5 3.6 73.4 15.1 88.5 11.5 14.4 29.5 22.3 51.1 22.3 44.6 0 77.7-28.8 95.7-82h17.9z"/>
				<path d="m1882.7 394.9c0 80.6-66.2 146.8-145.3 146.8-81.3 0-146-66.2-146-148.9 0-81.3 65.5-148.2 145.3-148.2 82-0.1 146 66.1 146 150.3zm-206.5-103.6c-7.2 14.4-7.9 24.5-7.9 101.4 0 83.5 0.7 91.4 11.5 107.2 11.5 17.3 29.5 25.2 57.6 25.2 29.5 0 49.6-10.1 60.4-30.9 7.2-13.7 7.9-24.5 7.9-100 0-84.2-0.7-92.8-11.5-107.9-11.5-17.3-29.5-25.2-58.3-25.2-28.7 0-48.9 10.1-59.7 30.2z"/>
				<path d="m1917.2 266.1h-48.2v-14.4h113v68.3c19.4-51.1 44.6-75.5 77.7-75.5 26.6 0 45.3 17.3 45.3 41.7 0 20.9-15.1 36.7-35.3 36.7-18.7 0-30.9-13-32.4-33.8-0.7-13-1.4-15.1-7.2-15.1-5 0-13 7.2-19.4 18-21.6 36.7-28.8 77.7-28.8 161.2v66.9h47.5v14.4h-160.4v-14.4h48.2v-254z"/>
				<path d="m2160.4 266.1h-48.2v-14.4h113v37.4c23.7-30.9 51.8-44.6 89.9-44.6 29.5 0 58.3 10.8 74.1 28.1 15.8 18 20.2 34.5 20.2 87.8v159.7h47.5v14.4h-155.4v-14.4h43.2v-110.8c0-85.6-2.9-111.5-13.7-125.9-7.9-10.8-20.9-17.3-35.3-17.3-18.7 0-41 11.5-52.5 28.8-14.4 20.1-18 51.1-18 139.6v85.6h43.2v14.4h-156.1v-14.4h48.2v-254z"/>
			
		
	

</svg>
