<?xml version="1.0" encoding="UTF-8"?>
<svg enable-background="new 0 0 3839 1736.4" version="1.1" viewBox="0 0 3839 1736.4" xml:space="preserve" xmlns="http://www.w3.org/2000/svg">
<style type="text/css">
	.st0{fill:#FFFFFF;}
	.st1{fill:none;stroke:#000000;stroke-width:15;stroke-linecap:round;stroke-linejoin:round;stroke-miterlimit:10;}
	.st2{stroke:#000000;stroke-width:15;stroke-linecap:round;stroke-linejoin:round;stroke-miterlimit:10;}
	.st3{fill:none;stroke:#000000;stroke-width:15;stroke-miterlimit:10;}
</style>

	
		<polygon class="st0" points="3608.3 1047.4 3839 756.5 3535.7 559.3 3830.9 559.3 3830.9 232.6 3830.9 232.6 2851.9 0 2692.1 0 2672.8 24.3 2646.5 0 2558.7 0 2470.9 110.6 2383.2 0 2295.3 0 1309.9 232.6 1869.8 938.4 1309.9 1736.4 1309.9 1736.4 1708 1736.4 2105.4 1235.4 2502.9 1736.4 3608.3 1736.4 3839 1445.6 3839 1445.6 3505.9 1047.4"/>
		<path d="m3769.7 293.8v204.3h-689v319.6h631.6l-133.6 168.4h-498v520.6h631.6l-133.6 168.4h-778.9v-689h-212.2l549.2-692.4h632.9m-995.5 0.1-517.7 652.7-30.2 38 30.2 38 434.2 547.3 83.6 105.4h-241.8l-379.1-477.9-48-60.5-48 60.5-379.1 477.9h-241.7l517.7-652.7 30.2-38-30.2-38-517.7-652.7h241.7l379.1 477.9 48 60.5 48-60.5 379.1-477.9h241.7m-1066.2-61.2h-398l596.5 751.9-596.5 751.9h398l397.5-501.1 397.5 501.1h1105.4l230.7-290.9h-697.2v-398.2h466.4l230.7-290.8h-697.1v-197.2h689.1v-326.7h-723.7l-646.3 814.8h277.7v484.4l-434.2-547.3 596.5-751.9h-398l-397.5 501.1"/>
		
			
				
					<path d="m220.6 729.4c13.7 0 27.2 4.4 37.7 13.5 10 8.4 16.8 20 20.5 32.2 45.1 154.8 90.1 309.4 135.2 464.2h-79.6c-12.5-42.6-24.7-85.4-37.2-128.1-17.1-0.1-34.2-0.1-51.3-0.1-34.2 0-68.4 0.1-102.6 0.1-12.6 42.6-24.9 85.4-37.3 128.1h-79.2c42.8-147.6 85.5-295.2 128.5-442.8 4.9-15.4 6.8-32.6 18.1-45.2 11.1-14.3 29.2-21.9 47.2-21.9m-19.1 309.4c24.9 0 49.7-0.1 74.5-0.1-18.6-64.2-37.2-128.3-55.9-192.5-18.8 64.2-37.3 128.3-55.9 192.5 12.4 0.1 24.8 0.1 37.3 0.1m19.1-329.4c-11.9 0-23.8 2.6-34.5 7.4-11.2 5-20.9 12.6-28.3 21.8-11.3 13-15.3 28-18.8 41.3-1 3.8-1.9 7.4-3 10.7l-0.2 0.4c-39.6 136-79.6 274.2-118.4 407.9l-10.1 34.9-7.3 25.7h120.9l4.2-14.4c4-13.8 8.1-27.9 12-41.5 6.9-23.7 13.9-48.1 21-72.2h36.4 51.2 36.2c4.1 14.2 8.2 28.4 12.2 42.3 6.8 23.4 13.8 47.7 20.8 71.5l4.2 14.4h121.3l-7.5-25.7c-21.5-74-43.5-149.3-64.6-222-23.1-79.4-47-161.4-70.5-242.2v-0.1-0.1c-5-16.8-14.3-31.2-26.7-41.7-13.4-11.9-31.4-18.4-50.5-18.4zm-29.8 309.3c9.6-33.2 19.4-67 29.3-100.8 9.8 33.8 19.6 67.6 29.2 100.8h-10.5-37.3-10.7z"/>
				
			
			
				
					<path d="m782.2 729.2c4.8 0 9.7 0.6 14.4 1.8 21.6 4.9 38 23.5 43.6 44.5 44.9 154.6 90.1 309.2 135 463.8-26.6 0.2-53.1 0-79.8 0.2-12.3-42.8-24.5-85.4-37-128.1h-153.7c-12.3 42.8-24.9 85.4-37.2 128.1h-79.1c42.8-148.5 85.9-296.8 129-445.1 4.4-13.5 6.1-28.2 14.9-39.8 11.3-15.9 30.5-25.4 49.9-25.4m-56.2 309.7h111.5c-18.4-64.3-37.3-128.5-55.8-192.8-18.6 64.1-37.3 128.5-55.7 192.8m56.2-329.7c-12.7 0-25.6 3.1-37.1 8.9-11.7 5.9-21.7 14.5-29 24.9-8.6 11.5-11.9 24-14.8 35.1-1 3.6-1.9 7-2.9 10.2l-0.2 0.6-4.5 15.5c-40.9 140.8-83.2 286.3-124.5 429.6l-7.4 25.6h120.8l4.2-14.5c6.2-21.7 12.7-43.8 18.9-65.2 4.6-15.9 9.4-32.2 14.1-48.4h123.6c11.7 40.1 23 79.6 32.8 113.6l4.2 14.6h121.6s-120.4-413.5-142.5-489.6c-3.7-13.8-10.8-26.5-20.6-36.7-10.5-11-23.5-18.6-37.6-21.9-6.1-1.5-12.6-2.3-19.1-2.3zm-29.6 309.6c9.7-33.6 19.5-67.5 29.1-100.6 2.9 10 5.8 20 8.7 29.8 6.7 23.2 13.7 47 20.5 70.8h-58.3z"/>
				
			
			
				
					<path d="m642.4 730.4v77.7h-106.1v431.6h-75.9v-431.6h-106.1v-77.7h288.1m20-20.1h-328.2v117.8h106.1v431.6h116.1v-431.6h106.1v-117.8h-0.1z"/>
				
			
			
				
					<path d="m1080.6 730.3h1.9c10.1 0.1 20.2 0.1 30.3 0.1 20.2 0 40.3-0.1 60.5-0.1 51 0.9 99.6 32.6 121.7 78.5 15.3 29.8 16.8 64.5 13 97.1-2.6 34.2-17 68.4-43.3 91.2-13.8 12.4-31.2 19.8-46.1 30.9-8.2 6.1-8.6 18.2-4.4 27 40.1 62.1 82 123.1 123.1 184.6h-90.1c-39.3-59.1-78.2-118.3-117.3-177.4-11.6-16.8-14.6-39.1-7.7-58.2 5.4-14.7 18.2-25.4 32.6-31 27.3-10.5 54.3-26.8 69.4-52.6 11.6-19.5 10.9-43.3 5.8-64.5-6-26.9-31.7-48.2-59.4-48.2h-2c-6.5 0.1-13.1 0.1-19.6 0.1-13.1 0-26.2-0.1-39.3-0.1h-0.3c-8.8 0-16.9 7.6-16.9 16.5-0.2 138.5 0 277.1 0 415.6h-76.6v-447.4c0.4-26.3 18.9-51 43.8-58.9 6.8-2.2 13.9-3.2 20.9-3.2m0-20c-9.6 0-18.8 1.4-27.1 4.2-8.1 2.6-15.9 6.5-22.9 11.7-6.8 5-12.9 11-18.1 17.9-5.1 6.9-9.2 14.5-12 22.4-3 8.4-4.5 17-4.7 25.6v0.1 467.5l20.1 0.1h76.6l20.1-0.1v-20-138.5-28.9c0.2 0.3 0.5 0.7 0.7 1 15 22.6 30.2 45.7 44.9 68 23.6 35.8 48.1 72.9 72.3 109.3l6 9h138.4l-20.8-31.2c-13.7-20.6-27.7-41.4-41.3-61.5-26.7-39.7-54.3-80.7-80.7-121.4-0.3-0.8-0.4-1.6-0.4-2.2 5.1-3.7 10.8-7.1 16.8-10.7 9.9-5.9 20.1-12 29.6-20.5 14.8-12.9 26.8-29 35.5-48 4.1-8.8 7.4-18.2 9.8-27.8 2.4-9.3 3.9-18.8 4.7-28.5 2.2-19.2 2.5-37.3 0.6-53.8-2.2-20-7.5-38.2-15.6-54.2-6.2-12.9-14.4-25-24.2-36-9.6-10.7-20.7-20.2-32.9-28.1s-25.4-14.1-39.1-18.5c-14.1-4.5-28.7-6.9-43.1-7.1h-0.2-0.2-30.3-30.2c-11.2 0-21 0-30-0.1-0.8 0.3-1.5 0.3-2.3 0.3zm68.4 117.5c7.4 0 13.9 0 19.8-0.1h0.3 0.3 1.2c8.7 0 17.6 3.4 25.1 9.5 7.5 6.2 12.7 14.3 14.7 23v0.2 0.2c2.4 9.8 3.3 18.9 2.8 27.1-0.5 8.7-2.6 16.2-6.4 22.5v0.1 0.1c-10.6 18.1-30.6 32.9-59.3 44-9.7 3.8-18.6 9.3-25.9 16-3.4 3.1-6.4 6.4-9 9.9 0-50.8 0-101.9 0.1-152.5h16.7 19.6z"/>
				
			
			
				
					<path d="m1457.9 730.4v509.2h-80.5v-509.2h80.5m20-20.1h-120.7v549.4h120.7v-549.4z"/>
				
			
		
	



</svg>
