<?xml version="1.0" encoding="UTF-8"?>
<svg enable-background="new 0 0 3840 1285.2" version="1.1" viewBox="0 0 3840 1285.2" xml:space="preserve" xmlns="http://www.w3.org/2000/svg">
<style type="text/css">
	.st0{fill-rule:evenodd;clip-rule:evenodd;fill:#21ADCA;}
	.st1{fill-rule:evenodd;clip-rule:evenodd;fill:#2EB897;}
	.st2{fill-rule:evenodd;clip-rule:evenodd;fill:#3BC264;}
	.st3{fill-rule:evenodd;clip-rule:evenodd;fill:#0F2166;}
	.st4{fill-rule:evenodd;clip-rule:evenodd;fill:#1D4C59;}
	.st5{fill-rule:evenodd;clip-rule:evenodd;fill:#2C774C;}
	.st6{fill-rule:evenodd;clip-rule:evenodd;fill:#3AA13E;}
	.st7{fill-rule:evenodd;clip-rule:evenodd;fill:#48CC31;}
	.st8{fill-rule:evenodd;clip-rule:evenodd;fill:#6AD434;}
	.st9{fill-rule:evenodd;clip-rule:evenodd;fill:#8BDC37;}
	.st10{fill-rule:evenodd;clip-rule:evenodd;fill:#AEE53A;}
	.st11{fill-rule:evenodd;clip-rule:evenodd;fill:#D0ED3D;}
	.st12{fill-rule:evenodd;clip-rule:evenodd;fill:#F2F540;}
	.st13{fill-rule:evenodd;clip-rule:evenodd;fill:#F5D630;}
	.st14{fill-rule:evenodd;clip-rule:evenodd;fill:#F8B621;}
	.st15{fill-rule:evenodd;clip-rule:evenodd;fill:#FA9711;}
	.st16{fill-rule:evenodd;clip-rule:evenodd;fill:#FD7801;}
	.st17{fill-rule:evenodd;clip-rule:evenodd;fill:#FD5C13;}
	.st18{fill-rule:evenodd;clip-rule:evenodd;fill:#FD4125;}
	.st19{fill-rule:evenodd;clip-rule:evenodd;fill:#FD2537;}
	.st20{fill:#0F2166;}
	.st21{fill:#FD2537;}
	.st22{fill:#FFFFFF;}
	.st23{fill-rule:evenodd;clip-rule:evenodd;}
	.st24{fill-rule:evenodd;clip-rule:evenodd;fill:#FFFFFF;}
</style>

	
		
			
				<polygon class="st23" points="237.5 631.8 237.5 631.8 237.5 1277.4 163.7 1277.4 163.7 631.8"/>
			
			
				<polygon class="st23" points="401.2 631.8 401.2 631.8 401.2 1277.4 327.4 1277.4 327.4 631.8"/>
			
			
				<polygon class="st23" points="564.9 631.8 564.9 631.8 564.9 1277.4 491.1 1277.4 491.1 631.8"/>
			
		
		
			
				
					<polygon class="st23" points="73.8 631.8 73.8 631.8 73.8 1277.4 0 1277.4 0 631.8"/>
					<polygon class="st23" points="237.5 631.8 237.5 631.8 237.5 1277.4 163.7 1277.4 163.7 631.8"/>
					<polygon class="st23" points="401.2 631.8 401.2 631.8 401.2 1277.4 327.4 1277.4 327.4 631.8"/>
					<polygon class="st23" points="564.9 631.8 564.9 631.8 564.9 1277.4 491.1 1277.4 491.1 631.8"/>
					<polygon class="st23" points="728.6 631.8 728.6 631.8 728.6 1277.4 654.8 1277.4 654.8 631.8"/>
				
			
			
				<polygon class="st23" points="892.3 631.8 892.3 631.8 892.3 1277.4 818.5 1277.4 818.5 631.8"/>
			
			
				<polygon class="st23" points="1056 631.8 1056 631.8 1056 1277.4 982.2 1277.4 982.2 631.8"/>
			
			
				<polygon class="st23" points="1219.7 631.8 1219.7 631.8 1219.7 1277.4 1145.9 1277.4 1145.9 631.8"/>
			
			
				<polygon class="st23" points="1383.4 631.8 1383.4 631.8 1383.4 1277.4 1309.6 1277.4 1309.6 631.8"/>
			
		
		
			
				<polygon class="st23" points="1547.1 631.8 1547.1 631.8 1547.1 1277.4 1473.3 1277.4 1473.3 631.8"/>
			
			
				<polygon class="st23" points="1710.8 631.8 1710.8 631.8 1710.8 1277.4 1637 1277.4 1637 631.8"/>
			
			
				<polygon class="st23" points="1874.5 631.8 1874.5 631.8 1874.5 1277.4 1800.7 1277.4 1800.7 631.8"/>
			
			
				<polygon class="st23" points="2038.2 631.8 2038.2 631.8 2038.2 1277.4 1964.4 1277.4 1964.4 631.8"/>
			
		
		
			<polygon class="st23" points="2201.9 631.8 2201.9 631.8 2201.9 1277.4 2128.1 1277.4 2128.1 631.8"/>
			<polygon class="st23" points="2365.6 631.8 2365.6 631.8 2365.6 1277.4 2291.8 1277.4 2291.8 631.8"/>
			<polygon class="st23" points="2529.3 631.8 2529.3 631.8 2529.3 1277.4 2455.5 1277.4 2455.5 631.8"/>
			<polygon class="st23" points="2693 631.8 2693 631.8 2693 1277.4 2619.2 1277.4 2619.2 631.8"/>
		
	
	
		<path d="m881.7 265.2c-3.6-33.6-39.8-32.7-65.3-32.7-13.9 0-42.9 0.5-54.1 10.1-10.7 9.2-10.7 33.2-10.7 46.1 0 12.4 0.4 29 9.8 38.3 11.2 11.1 42 12 56.3 12 9.8 0 19.2 0 29.1-1.4 19.7-2.8 31.3-8.8 34.4-30.4h80.5c-0.9 24.4-2.2 47.9-19.7 66.4-18.3 19.8-46.5 24-72 25.4-19.2 0.9-38 1.4-57.2 1.4-34.4 0-83.6 0.9-113.1-20.3-28.6-20.7-27.3-64.1-27.3-95.9 0-31.3-0.4-68.7 25-90.8 27.7-24 85.4-22.1 119.4-22.1s93-1.4 121.1 22.1c7.6 6.5 12.5 12.9 16.5 22.6 6.7 16.1 7.2 31.8 7.6 49.3h-80.3z"/>
		<path d="m1284.9 324.2c-1.8 21.2-7.2 40.1-23.2 54.4-27.3 24.4-91.6 21.7-125.2 21.7-34.9 0-96.6 3.2-125.2-21.7-8-6.9-13-14.3-17-24-8.9-22.6-7.6-51.2-7.6-75.1 0-12 0-24.4 1.3-36.4 1.8-20.7 9.4-39.2 25.9-52.1 26.8-21.2 90.7-19.8 122.5-19.8 32.2 0 95.2-1.4 122.5 19.8 7.6 6 12.5 12 17 20.7 11.6 21.2 10.3 48.4 10.3 71.9 0 13.4-0.4 27.2-1.3 40.6zm-87.6-79.7c-11.6-11.5-45.6-12-60.3-12-14.3 0-29.1 0.5-42.9 3.2-27.7 5.5-28.2 27.7-28.2 52.5 0 12-0.4 28.1 8 37.3 12.1 13.4 46.9 13.4 63 13.4 15.2 0 31.3 0 46-4.1 24.6-6.9 24.1-30 24.1-52.5 0.1-12.5-0.3-28.6-9.7-37.8z"/>
		<path d="m1700.2 394.7v-101.9c0-47-4.9-60.4-53.6-60.4-54.5 0-58.6 22.1-58.6 72.4v89.9h-79.1v-117.1c0-39.6-16.5-45.2-52.3-45.2-56.3 0-59.9 20.7-59.9 72.4v89.9h-79.1v-218h74.7v32.7h3.6c14.8-33.6 54.1-38.3 85.8-38.3 40.2 0 75.5 6.9 96.1 45.6 16.1-40.6 53.6-45.6 91.6-45.6 30.8 0 65.3 3.7 87.6 28.1 7.6 8.3 13.4 17.1 16.5 28.1 6.3 21.2 5.8 43.8 5.8 65.4v101.9h-79.1z"/>
		<path d="m2195.9 394.7v-101.9c0-47-4.9-60.4-53.6-60.4-54.5 0-58.6 22.1-58.6 72.4v89.9h-79.1v-117.1c0-39.6-16.5-45.2-52.3-45.2-56.3 0-59.9 20.7-59.9 72.4v89.9h-79.1v-218h74.7v32.7h3.6c14.8-33.6 54.1-38.3 85.8-38.3 40.2 0 75.5 6.9 96.1 45.6 16.1-40.6 53.6-45.6 91.6-45.6 30.8 0 65.3 3.7 87.6 28.1 7.6 8.3 13.4 17.1 16.5 28.1 6.3 21.2 5.8 43.8 5.8 65.4v101.9h-79.1z"/>
		<path d="m2602.7 324.2c-1.8 21.2-7.2 40.1-23.2 54.4-27.3 24.4-91.6 21.7-125.2 21.7-34.9 0-96.6 3.2-125.2-21.7-8-6.9-13-14.3-17-24-8.9-22.6-7.6-51.2-7.6-75.1 0-12 0-24.4 1.3-36.4 1.8-20.7 9.4-39.2 25.9-52.1 26.8-21.2 90.7-19.8 122.5-19.8 32.2 0 95.2-1.4 122.5 19.8 7.6 6 12.5 12 17 20.7 11.6 21.2 10.3 48.4 10.3 71.9 0 13.4-0.4 27.2-1.3 40.6zm-87.6-79.7c-11.6-11.5-45.6-12-60.3-12-14.3 0-29.1 0.5-42.9 3.2-27.7 5.5-28.2 27.7-28.2 52.5 0 12-0.4 28.1 8 37.3 12.1 13.4 46.9 13.4 63 13.4 15.2 0 31.3 0 46-4.1 24.6-6.9 24.1-30 24.1-52.5 0.1-12.5-0.4-28.6-9.7-37.8z"/>
		<path d="m2853.9 394.7v-28.6h-4c-5.4 9.2-9.4 15.2-18.3 20.7-19.7 12.4-52.7 13.4-75.1 13.4-32.6 0-76.9 0.5-102.8-23-23.2-21.2-22.8-63.1-22.8-92.6 0-34.1 0.9-75.6 31.3-96.8 26.8-18.4 64.4-16.6 95.2-16.6 23.2 0 48.7-0.5 69.3 12 10.3 6 13.9 12 19.7 22.6h3.1v-118.5h79.1v307.4h-74.7zm-8-142c-9.4-22.1-43.4-20.3-62.6-20.3-19.7 0-59.5-2.3-69.3 20.7-3.6 9.2-4 21.2-4 30.9 0 12.9-0.4 32.7 8.9 42.9 10.7 12 45.2 12 59.5 12 16.1 0 35.8-0.9 51-6 21.5-6.9 21-28.1 21-47.9-0.1-10.1-0.5-22.6-4.5-32.3z"/>
		<path d="m3258 324.2c-1.8 21.2-7.2 40.1-23.2 54.4-27.3 24.4-91.6 21.7-125.2 21.7-34.9 0-96.6 3.2-125.2-21.7-8-6.9-13-14.3-17-24-8.9-22.6-7.6-51.2-7.6-75.1 0-12 0-24.4 1.3-36.4 1.8-20.7 9.4-39.2 25.9-52.1 26.8-21.2 90.7-19.8 122.5-19.8 32.2 0 95.2-1.4 122.5 19.8 7.6 6 12.5 12 17 20.7 11.6 21.2 10.3 48.4 10.3 71.9 0 13.4-0.4 27.2-1.3 40.6zm-87.6-79.7c-11.6-11.5-45.6-12-60.3-12-14.3 0-29.1 0.5-42.9 3.2-27.7 5.5-28.2 27.7-28.2 52.5 0 12-0.4 28.1 8 37.3 12.1 13.4 46.9 13.4 63 13.4 15.2 0 31.3 0 46-4.1 24.6-6.9 24.1-30 24.1-52.5 0.1-12.5-0.3-28.6-9.7-37.8z"/>
		<path d="m3535.6 273.5h-74.2c0-32.3-10.3-41-41.6-41-48.7 0-50.1 31.8-50.1 71.9v90.3h-79.1v-218h74.7v32.7h3.6c18.3-33.6 47.8-38.3 82.3-38.3 24.6 0 54.1 3.2 70.6 24.4 14.8 18.9 14.3 46.1 14.3 69.1-0.1 2.9-0.5 6.1-0.5 8.9z"/>
		<path d="m3839.6 303.4h-206.6c0 12.4-0.4 26.7 9.8 35.5 10.7 8.8 40.7 9.2 53.6 9.2 13 0 49.2 0.5 57.7-9.2 3.6-3.7 4.5-8.8 5.4-13.8h78.7c-1.8 20.7-5.8 36.9-21 51.2-27.3 25.3-92.5 24-127 24-31.3 0-83.6 0.5-109.5-20.3-8-6.5-13.4-13.8-17.9-23-9.8-21.2-8.9-47.5-8.9-70.1 0-13.8 0-27.7 1.3-41 2.2-22.1 9.4-41.9 27.3-55.3 27.7-20.7 83.1-19.4 115.8-19.4 30 0 62.6-0.9 91.6 7.8 46.9 14.3 50.1 58.5 50.1 102.3 0 7.4 0 14.8-0.4 22.1zm-79.2-49.7c0-8.3-0.4-14.7-6.3-21.2-9.4-10.6-41.6-10.6-54.5-10.6-12.1 0-24.1 0-35.8 1.8-22.4 3.2-30.4 12-30.8 35h127.4v-5z"/>
	
	
		<path d="M129.6,284.4c0-83.1,65.6-150.8,146.2-150.8c25.9,0,50.2,7,71.3,19.2V9.7C324.4,3.4,300.5,0,275.8,0    C123.5,0,0,127.3,0,284.4s123.5,284.4,275.8,284.4c24.7,0,48.6-3.4,71.3-9.7V416c-21.1,12.2-45.4,19.2-71.3,19.2    C195.2,435.2,129.6,367.5,129.6,284.4z"/>
		<polygon points="347.1 274 477.2 274 587.5 160.3 347.1 160.3"/>
		<polygon points="347.1 294.8 347.1 408.5 587.5 408.5 477.2 294.8"/>
	
	
		<path d="M2809,1277.4V632.2h199.8v645.2H2809z"/>
		<path d="m3633.6 813.1c0-9.7-0.9-23.2-9.4-30-8.4-6.8-21.6-7.7-31-8.7-48.8-4.8-99.4-4.8-149.2-4.8-46 0-95.7 0-140.7 8.7-10.3 1.9-19.7 4.8-28.1 11.6-21.6 17.4-19.7 65.8-19.7 90.9v35.7c11.3-11.6 22.5-21.3 36.6-29 52.5-31 157.6-28.1 216.7-28.1 63.8 0 141.6 1 202.6 21.3 22.5 7.7 41.3 18.4 58.2 35.8 37.5 37.7 38.5 110.3 38.5 160.6 0 91.9-15 174.1-114.4 194.4-38.5 7.7-77.9 10.6-116.3 11.6-56.3 1-111.6 1.9-167.9 1.9-78.8 0-226.1 4.8-286.1-51.3-43.2-39.7-46-117-47.8-172.2-0.9-42.6-1.9-86.1-1.9-128.6 0-77.4-8.4-203.1 53.5-258.3 59.1-53.2 260.8-50.3 334.9-50.3 41.3 0 82.5 0 123.8 1.9 57.2 1.9 153.8 4.8 197 50.3 30 31.9 29.1 94.8 29.1 136.4h-178.4zm-54.4 197.3c-50.7-7.7-105.1-5.8-156.7-5.8-37.5 0-76-1.9-113.5 3.9-36.6 5.8-50.7 29-50.7 65.8 0 16.4 3.8 37.7 15 50.3 18.8 20.3 124.8 15.5 149.2 15.5 32.8 0 64.7-1 97.6-1.9 23.5-1 71.3 1.9 90.1-16.4 11.3-11.6 13.1-32.9 13.1-48.4 0-35.9-7.5-57.2-44.1-63z"/>
	

</svg>
