<?xml version="1.0" encoding="UTF-8"?>
<svg enable-background="new 0 0 3839 546.4" version="1.1" viewBox="0 0 3839 546.4" xml:space="preserve" xmlns="http://www.w3.org/2000/svg">
<style type="text/css">
	.st0{fill:#FFFFFF;}
</style>

	
		<path d="m1093.6 135.3c-31 0-93.9 0.3-94 0v273.4h76.5l0.4-68.3h34.2c72.9 0 111.1-35.2 111.1-102.5-0.2-74.1-47.9-102.6-128.2-102.6zm0 153.7h-17.1v-102.4c4.6-0.2 13.1 0 17.1 0 38.6 0 52.6 19.8 52.6 52.9-0.1 34.3-12 49.5-52.6 49.5z"/>
		<polygon points="410.1 408.7 410.1 297.6 333.2 297.6 333.2 408.7 256.3 408.7 256.3 135.3 333.2 135.3 333.2 246.4 410.1 246.4 410.1 135.3 487 135.3 487 408.7"/>
		<polygon points="546.7 408.7 546.7 135.3 615.1 135.3 623.7 135.3 623.7 408.7"/>
		<polygon points="828.1 408.7 683.5 408.7 683.5 135.3 760.3 135.3 760.3 357.5 837.2 357.5"/>
		<rect x="862.9" y="135.3" width="76.9" height="273.4"/>
		<path d="m1324.2 203.6v8.6c0 42 128.2 22.7 128.2 111.1 0 66.3-45.7 85.4-111.1 85.4-25.7 0-67.2-4.8-94-8.5v-59.8c23.6 12.2 68.2 17.1 94 17.1 28.9 0 34.2-9 34.2-25.7 0-47.1-128.2-26.8-128.2-119.6 0-53.8 52.7-76.9 115.9-76.9 44.8 0 51.7 4.1 72.1 8.6v51.2c-18.2-7.7-43.7-8.5-68.3-8.5-22.6 0-42.8 2.6-42.8 17z"/>
		<path d="m94 135.3c-31.1 0-94 0.3-94 0v273.4h76.5l0.4-68.3h34.2c72.9 0 111.1-35.2 111.1-102.5-0.1-74.1-47.9-102.6-128.2-102.6zm0 153.7h-17.1v-102.4c4.6-0.2 13.1 0 17.1 0 38.6 0 52.6 19.8 52.6 52.9-0.1 34.3-12 49.5-52.6 49.5z"/>
	
	
		<rect x="1539.2" width="2299.8" height="546.4"/>
		
			<rect class="st0" x="3644.3" y="215.7" width="87.1" height="184.6"/>
			<rect class="st0" x="3644.3" y="126.2" width="87.1" height="62.4"/>
			<path class="st0" d="m2197 262.4c-15.5-15.3-59.1-25.6-108.3-25.6-55.7 0-115 13.9-115 39.6s59.2 39.6 115 39.6 115-13.9 115-39.5c0-5-2.3-9.7-6.7-14.1zm-108.3-8.2c50.6 0 81.6 12.9 81.6 22.2 0 9-31.8 22.2-81.6 22.2s-81.6-13.1-81.6-22.2c0-9.3 31-22.2 81.6-22.2z"/>
			<path class="st0" d="m2087.9 420.1c-118.9 0-230.8-14.7-315-41.5-85.9-27.3-133.3-64.3-133.3-104.1s47.3-76.8 133.3-104.1c84.2-26.8 196.1-41.5 315-41.5 206.2 0 384.8 44.9 434.4 109.1l5.9 7.7h-111.3l-1.4-1.4c-45.9-44.2-177.5-73.9-327.6-73.9-186.1 0-343.2 47.7-343.2 104.1s157.2 104.1 343.2 104.1c150.1 0 281.7-29.7 327.6-73.9l1.4-1.4 111.3-0.2-5.9 7.7c-49.5 64.5-228.2 109.3-434.4 109.3z"/>
			<rect class="st0" x="2557.4" y="133.8" width="87.1" height="273.4"/>
			<polygon class="st0" points="3351.1 223 3351.1 308.2 3587.8 265.6"/>
			<path class="st0" d="m3292.4 270.4c0-86.2-212.5-136.7-452.9-136.7h-221.6v40.7h221.6c188.8 0 341.8 39.2 341.8 96v0.1c0 56.7-153 96-341.8 96h-221.6v40.7h221.6c240.4 0 452.9-50.4 452.9-136.7v-0.1z"/>
		
	

</svg>
