<?xml version="1.0" encoding="UTF-8"?>
<svg enable-background="new 0 0 3839 1272.2" version="1.1" viewBox="0 0 3839 1272.2" xml:space="preserve" xmlns="http://www.w3.org/2000/svg">
<style type="text/css">
	.st0{fill:#FFE000;}
	.st1{fill:#FFFFFF;}
	.st2{fill:#FF001F;}
</style>

	
		
			
				<rect x="2345.7" y="176.3" width="50.4" height="160.2"/>
			
			
				<rect x="1448.8" y="176.3" width="50.4" height="159.9"/>
			
			
				<polygon points="928.8 176.3 928.8 221.8 928.8 256.5 928.8 294 928.8 336.4 979.1 336.4 979.1 294 1134.4 294 1134.4 256.5 979.1 256.5 979.1 221.8 1134.4 221.8 1134.4 176.3 979.1 176.3"/>
			
			
				<polygon points="2250.9 233.7 2128.9 233.7 2128.9 176.3 2078.6 176.3 2078.6 233.7 2078.6 279.3 2078.6 336.4 2128.9 336.4 2128.9 279.3 2250.9 279.3 2250.9 336.1 2301.3 336.1 2301.3 279.3 2301.3 233.7 2301.3 176.3 2250.9 176.3"/>
			
			
				<path d="m2843.8 176.3h-178.1v159.9h32.2v0.4h145.9c30.1 0 54.5-21.4 54.5-71.7v-16.9c-0.1-50.3-24.4-71.7-54.5-71.7zm8.2 79.8v7.8c0 17.8-10.7 27-23.8 27h-112.1v-69h112.1c13.2 0 23.8 9.1 23.8 27v7.2z"/>
			
			
				<polygon points="2490.9 176.3 2440.4 176.3 2440.4 290.5 2440.4 336.1 2440.4 336.4 2490.9 336.4 2490.9 336.1 2646.1 336.1 2646.1 290.5 2490.9 290.5"/>
			
			
				<path d="m1983.4 176.3h-115.6c-34.5 0-62.5 28-62.5 62.5v34.9c0 34.5 28 62.5 62.5 62.5h115.6c34.5 0 62.5-28 62.5-62.5v-1.9h-50.4v0.4c0 10.2-8.2 18.4-18.4 18.4h-102.9c-10.2 0-18.4-8.2-18.4-18.4v-31.8c0-10.2 8.2-18.4 18.4-18.4h102.9c10.2 0 18.4 8.2 18.4 18.4v0.4h50.4v-1.9c0-34.7-28-62.6-62.5-62.6z"/>
			
			
				<path d="m1773.9 254.2v-29.5c0-26.8-21.7-48.5-48.5-48.5h-181.9v159.9h50.4v-42.1h84l40.2 42.1h62.7l-40.7-42.5c19.1-3 33.8-19.5 33.8-39.4zm-63.6 2.3h-116.4v-34.7h116.4c9.6 0 17.4 7.8 17.4 17.4s-7.8 17.3-17.4 17.3z"/>
			
			
				<path d="m1325.3 176.3h-96l-92.9 160.2h60.8l22-42.4h126.8l22 42.4h60.8l-93-160.2h-10.5zm-86.8 80.2 18-34.7h52.1l18 34.7h-88.1z"/>
			
		
		
			<rect x="928.8" width="1969.5" height="134.4"/>
		
		
			<rect x="928.8" y="378.3" width="1969.5" height="134.4"/>
		
	
	
		
			<polygon points="2053.3 948.5 1854.5 677.3 1752.7 677.3 1752.7 1179.4 1880 1179.4 1880 927.5 2064.7 1179.4 2180.5 1179.4 2180.5 677.3 2053.3 677.3"/>
			<polygon points="1583.4 948.5 1384.5 677.3 1282.8 677.3 1282.8 1179.4 1410 1179.4 1410 927.5 1594.8 1179.4 1710.7 1179.4 1710.7 677.3 1583.4 677.3"/>
			<polygon points="2248.6 677.3 2222.6 677.3 2222.6 1179.4 2248.6 1179.4 2248.6 1179.4 2502.8 1179.4 2502.8 1052 2350 1052 2350 996 2502.8 996 2502.8 868.7 2350 868.7 2350 804.6 2502.8 804.6 2502.8 677.2 2248.6 677.2"/>
			<polygon points="2672.2 1052.1 2672.2 677.3 2544.8 677.3 2544.8 1179.4 2560.5 1179.4 2560.5 1179.5 2814.8 1179.5 2814.8 1052.1"/>
			<path d="m1113.4 677.3h-99.8l-202 425.8v-425.8h-127.3v183.4h-142.6v-183.4h-127.4v502.1h127.4v-191.5h142.7v191.5h233.3l87.1-183.5h108.8v183.5h127.3v-502.1h-127.5zm-48.4 191.4 48.4-102v102h-48.4z"/>
			<path d="m263.3 1060.8c-78.8 0-131.7-55.5-131.7-132.3 0-75.5 52.3-134.9 129.7-134.9 43.2 0 85.2 18.8 111 53.6l-0.1-151.6c-37.4-15.5-74.9-24.5-115.5-24.5-68.4 0-137.4 29.7-185.2 78.7-46.3 47.8-71.5 111.7-71.5 178.2 0 72.3 24.5 135.5 78.3 184 50.3 45.8 114.8 71.6 182.6 71.6 39.3 0 69.6-9.7 111.6-22.6v-151.7c-26.6 31.5-67.9 51.5-109.2 51.5z"/>
		
		
			
				<path class="st1" d="m3827 927.4c0-98.4-19.8-188.4-33.5-238.8-7.6-27.9-29.1-49.9-57-57.6-104.5-29-267.9-36.4-369.5-36.4s-265 7.4-369.5 36.4c-27.8 7.7-49.4 29.7-57 57.6-13.7 50.4-33.5 140.4-33.5 238.8s19.8 188.4 33.5 238.8c7.6 27.9 29.1 49.9 57 57.6 104.5 29 267.9 36.4 369.5 36.4s265-7.4 369.5-36.4c27.8-7.7 49.4-29.7 57-57.6 13.7-50.5 33.5-140.5 33.5-238.8z"/>
				<path d="m3367 1272.2c-56.3 0-249.4-2.7-372.7-36.8-31.7-8.8-56.7-34.1-65.4-66.1-12.6-46.7-33.9-140.2-33.9-242s21.2-195.3 33.9-241.9c8.7-32 33.7-57.3 65.4-66 123.2-34.2 316.4-36.8 372.7-36.8s249.5 2.7 372.7 36.8c31.7 8.8 56.7 34.1 65.4 66 12.7 46.7 33.9 140.2 33.9 241.9 0 101.9-21.2 195.3-33.9 242-8.7 32-33.7 57.3-65.4 66.1-123.1 34.1-316.4 36.8-372.7 36.8zm0-665.7c-55.5 0-246 2.6-366.3 35.9-23.5 6.5-42.1 25.4-48.6 49.2-12.3 45.5-33.1 136.7-33.1 235.7s20.7 190.2 33.1 235.7c6.5 23.8 25.1 42.7 48.6 49.2 120.3 33.3 310.7 35.9 366.3 35.9s245.9-2.6 366.3-35.9c23.5-6.5 42.1-25.4 48.6-49.2 12.3-45.5 33.1-136.7 33.1-235.7s-20.7-190.2-33.1-235.7c-6.4-23.8-25.1-42.7-48.6-49.2-120.2-33.3-310.7-35.9-366.3-35.9z"/>
			
			<polygon points="3526.4 777.4 3526.4 649.7 3335.3 649.7 3207.7 649.7 3207.7 777.4 3207.7 1205 3335.3 1205 3335.3 995.2 3526.4 995.2 3526.4 867.6 3335.3 867.6 3335.3 777.4"/>
		
	

</svg>
