<?xml version="1.0" encoding="UTF-8"?>
<svg width="833" height="111" version="1.1" viewBox="0 0 220.4 29.369" xmlns="http://www.w3.org/2000/svg" xmlns:cc="http://creativecommons.org/ns#" xmlns:dc="http://purl.org/dc/elements/1.1/" xmlns:rdf="http://www.w3.org/1999/02/22-rdf-syntax-ns#">
<metadata>
<rdf:RDF>
<cc:Work rdf:about="">
<dc:format>image/svg+xml</dc:format>
<dc:type rdf:resource="http://purl.org/dc/dcmitype/StillImage"/>
<dc:title/>
</cc:Work>
</rdf:RDF>
</metadata>
<g fill="#fff">
<path transform="translate(0 -267.63)" d="m100.14 297c-17.163 0-17.859-1.3728-17.859-9.525h8.7312c0 3.4282 0.82841 3.175 8.2021 3.175 6.9064 0 10.06 0.12938 10.054-2.5135-6e-3 -2.6429-2.8619-2.5135-3.7042-2.5135h-12.965c-5.2905 0-10.583-0.53142-10.583-8.5986s3.396-9.3931 17.462-9.3931c14.066 0 17.462 0.59595 17.462 9.2604l-8.7427 0.0135c0-3.2622-2.458-2.9239-6.9999-2.9239-7.7303 0-10.451-0.10151-10.451 2.5135s3.6187 2.5135 4.7625 2.5135h10.848c9.0753 0 11.642 1.6572 11.642 8.9958s-2.5609 8.9958-17.859 8.9958zm46.17-7.6729c0-3.9033 0.96149-5.5947 4.7625-7.2761-3.4312-0.84263-4.4979-2.7065-4.4979-6.6146 0-8.1019 5.8201-7.5406 16.669-7.5406s16.669-0.61582 16.669 7.5406c0 3.919-0.81409 5.9628-4.4979 6.6146 4.1128 1.3582 4.7624 3.3623 4.7624 7.0115 0 8.6682-7.8205 7.9375-16.933 7.9375s-16.933 0.70867-16.933-7.6729zm16.933 1.5875c4.9232 0 8.7312 0.39372 8.7312-3.0427s-3.7471-3.0427-8.7312-3.0427c-4.9842 0-8.7312-0.3817-8.7312 3.0427s3.808 3.0427 8.7312 3.0427zm8.4667-14.552c0-3.3627-3.8214-2.9104-8.4667-2.9104s-8.4667-0.42168-8.4667 2.9104 3.8213 2.9104 8.4667 2.9104 8.4667 0.45229 8.4667-2.9104zm30.692 20.638c-14.482 0-17.992 0.0342-17.992-14.684 0-14.719 4.2736-14.684 17.992-14.684s17.992-0.0195 17.992 14.684c0 14.704-3.5098 14.684-17.992 14.684zm0-7.1438c9.3796 0 9.525-0.29587 9.525-7.5406s-0.61061-7.8052-9.525-7.8052-9.525 0.56168-9.525 7.8052 0.14545 7.5406 9.525 7.5406zm-189.71 6.8792v-21.431h-12.7v-7.4083h34.396v7.4083h-12.7v21.431zm26.988 3e-5v-28.84h26.987c7.5173 0 9.2604 3.1015 9.2604 9.525s-2.3618 7.4094-4.7625 8.2778c3.2934 0.83353 4.4979 2.341 4.4979 5.4805l3e-6 5.5562h-9.2604l-3e-6 -3.9688c-1e-6 -1.603-0.01966-3.1749-2.9104-3.1749h-14.817v7.1438zm22.49-14.552c4.7626 0 4.7625-0.629 4.7625-3.4396s-4.95e-4 -3.4395-4.7625-3.4395h-13.494v6.9zm59.531 4.2334v-9.2604h21.167v9.2604z" stroke-width=".26458"/>
</g>
</svg>
