<?xml version="1.0" encoding="UTF-8"?>
<svg enable-background="new 0 0 3840 1220.2" version="1.1" viewBox="0 0 3840 1220.2" xml:space="preserve" xmlns="http://www.w3.org/2000/svg">
<style type="text/css">
	.st0{fill:#D8D8D8;}
	.st1{fill:url(#SVGID_1_);}
	.st2{fill:#FFFFFF;}
	.st3{fill:url(#SVGID_2_);}
	.st4{fill:url(#SVGID_3_);}
	.st5{fill:#999999;}
	.st6{fill:url(#SVGID_4_);}
	.st7{fill:#666666;}
</style>

	
		<path class="st7" d="m1129.3 369.5v-91.9h-219.9v91.9h219.9z"/>
		<path class="st7" d="m3539.3 370.8v-91.9h-219.9v91.9h219.9z"/>
		<path class="st7" d="m2598.8 940.2v-91.9h-219.9v91.9h219.9z"/>
	
	
		
			<path d="m1028.5 1167v-595h276.4v646.8h-224.6c-28.6 0-51.8-23.2-51.8-51.8z"/>
			<path d="m1887.1 1167v-595h275.6v646.8h-223.8c-28.6 0-51.8-23.2-51.8-51.8z"/>
			<path d="m1220.3 1218.8v-252.7h70.6c-43.3-39.3-70.6-96-70.6-159v-20.5c0-118.3 96.3-214.6 214.6-214.6h519.6v252.7h-53.7c43.3 39.3 70.6 96 70.6 159v20.5c0 118.3-96.3 214.6-214.6 214.6h-536.5z"/>
			<path d="M821.2,649.5c-117.2,0-212.5-95.3-212.5-212.5V212.5C608.6,95.3,704,0,821.2,0l396.5,0.4     C1334.7,0.5,1430,95.9,1430,212.9v224c0,117.2-95.3,212.5-212.5,212.5H821.2z"/>
			<path d="m3231.2 650.8c-117.2 0-212.5-95.3-212.5-212.5v-224.5c0-117.2 95.3-212.5 212.5-212.5l396.5 0.4c117 0.1 212.3 95.4 212.3 212.5v224c0 117.2-95.3 212.5-212.5 212.5h-396.3z"/>
			<path d="m2290.7 1220.2c-117.2 0-212.5-95.3-212.5-212.5v-224.5c0-117.2 95.3-212.5 212.5-212.5l396.5 0.4c117.1 0.1 212.3 95.5 212.3 212.5v224c0 117.2-95.3 212.5-212.5 212.5h-396.3z"/>
			<path d="M212.5,650.8C95.2,650.8,0,555.6,0,438.2V213.8C0,96.6,95.3,1.3,212.6,1.3l438.8,0.2c28.6,0,51.8,23.2,51.8,51.8     l138.3,597.5H212.5z"/>
			<path d="m2622.7 650.8c-117.4 0-212.5-95.2-212.5-212.5v-224.5c0-117.2 95.3-212.5 212.5-212.5l438.8 0.2c28.6 0 51.8 23.2 51.8 51.8v597.5h-490.6z"/>
			<path d="M1547.8,649.8c-117.4,0-212.5-95.2-212.5-212.5V1.8H1559c28.6,0,51.8,23.2,51.8,51.8v341.2h285.7v254.9H1547.8z"/>
			<path d="m2014.3 650.8c-117.4 0-212.5-95.2-212.5-212.5v-437.2l651.4 0.4c28.6 0 51.8 23.2 51.8 51.8v200.5h-36.7v142.1h36.7v254.9h-490.7z"/>
			<path d="m3360.6 1165.1v-341.9h-270.2v395.6h-223.8c-28.6 0-51.8-23.2-51.8-51.8v-596.4h270.3v0.1l338.8 0.3c117.3 0.1 212.3 95.2 212.3 212.5v435.9l-224.3-2.6c-28.5-0.2-51.3-23.3-51.3-51.7z"/>
			<polygon points="528.2 1218.8 154.8 572 473 572 656.3 889.4 839.5 572 1157.8 572 784.3 1218.8"/>
		
		<rect x="1357" y="555.5" width="46.5" height="46.5"/>
	
	
		
			<path class="st2" d="m821.2 588.5h396.3c83.7 0 151.6-67.9 151.6-151.6v-224c0-83.6-67.8-151.5-151.4-151.6l-396.4-0.3c-83.8-0.1-151.7 67.8-151.7 151.6v224.4c0 83.7 67.9 151.5 151.6 151.5zm2.1-338.2c0-32.5 26.3-58.8 58.8-58.8h274.6c32.5 0 58.8 26.3 58.8 58.8v146.5c0 32.5-26.3 58.8-58.8 58.8h-274.7c-32.5 0-58.8-26.3-58.8-58.8v-146.5zm2804.3-187.6-396.3-0.4c-83.8-0.1-151.7 67.8-151.7 151.6v224.4c0 83.7 67.9 151.6 151.6 151.6h396.3c83.7 0 151.6-67.9 151.6-151.6v-224c-0.1-83.7-67.8-151.6-151.5-151.6zm-2.2 335.4c0 32.5-26.3 58.8-58.8 58.8h-274.6c-32.5 0-58.8-26.3-58.8-58.8v-146.5c0-32.5 26.3-58.8 58.8-58.8h274.6c32.5 0 58.8 26.3 58.8 58.8v146.5zm-2983.2 58.8h-368.8c-32.5 0-58.8-26.3-58.8-58.8v-146.5c0-32.5 26.3-58.8 58.8-58.8h368.8v-130.4l-429.5-0.2c-83.8 0-151.7 67.8-151.7 151.6v224.4c0 83.7 67.9 151.6 151.6 151.6h429.7v-132.9zm1980.5 132.9h429.7v-132.9h-368.8c-32.5 0-58.8-26.3-58.8-58.8v-146.5c0-32.5 26.3-58.8 58.8-58.8h368.8v-130.4l-429.5-0.2c-83.8-0.1-151.7 67.8-151.7 151.6v224.4c-0.1 83.7 67.8 151.6 151.5 151.6zm-1075-1h287.8v-132.9h-227c-32.5 0-58.8-26.3-58.8-58.8v-334.3h-153.6v374.4c0.1 83.7 67.9 151.6 151.6 151.6zm466.6 1h429.7v-132.9h-388.3c-21.7 0-39.3-17.6-39.3-39.3s17.6-39.3 39.3-39.3h351.6v-104.6h-350.5c-22.3 0-40.4-18.1-40.4-40.4s18.1-40.4 40.4-40.4h387.2v-130.4l-581.2-0.4v376.1c-0.1 83.7 67.8 151.6 151.5 151.6zm-924.8 568h154.4v-524.8h-154.4v524.8zm858.5 0h153.6v-524.8h-153.6v524.8zm-191.2-327.8h-288.7c-18.3 0-33.2-14.9-33.2-33.2s14.8-33.2 33.2-33.2h425.4v-130.6h-458.6c-84.8 0-153.6 68.8-153.6 153.6v20.5c0 84.8 68.8 153.6 153.6 153.6h288.7c18.3 0 33.2 14.9 33.2 33.2s-14.8 33.2-33.2 33.2h-442.3v130.7h475.5c84.8 0 153.6-68.8 153.6-153.6v-20.5c0-84.9-68.8-153.7-153.6-153.7zm930.3-198-396.3-0.4c-83.8-0.1-151.7 67.8-151.7 151.6v224.4c0 83.7 67.9 151.6 151.6 151.6h396.3c83.7 0 151.6-67.9 151.6-151.6v-224c-0.1-83.7-67.9-151.5-151.5-151.6zm-2.2 335.5c0 32.5-26.3 58.8-58.8 58.8h-274.6c-32.5 0-58.8-26.3-58.8-58.8v-146.5c0-32.5 26.3-58.8 58.8-58.8h274.6c32.5 0 58.8 26.3 58.8 58.8v146.5zm738.9-335.5-396.3-0.4c-1.2 0-2.3 0.1-3.4 0.2v-0.2h-148.3v526.2h153.6v-336.8c0-32.5 26.3-58.8 58.8-58.8h274.6c32.5 0 58.8 26.3 58.8 58.8v335.1l153.6 1.7v-374.2c0-83.7-67.8-151.5-151.4-151.6zm-2767.5 379.4-218.5-378.4h-177.4l303 524.8h185.7l303-524.8h-177.4l-218.4 378.4z"/>
		
	

</svg>
