<?xml version="1.0" encoding="UTF-8"?>
<svg enable-background="new 0 0 3839 1046.05" version="1.1" viewBox="0 0 3839 1046" xml:space="preserve" xmlns="http://www.w3.org/2000/svg">
<style type="text/css">
	.st0{fill:#FF681D;}
	.st1{fill:#FF0000;}
	.st2{fill:url(#SVGID_1_);}
	.st3{fill:url(#SVGID_2_);}
	.st4{fill:#00CFFF;}
	.st5{fill:#004CC6;}
	.st6{fill:url(#SVGID_3_);}
	.st7{fill:url(#SVGID_4_);}
	.st8{fill:#D8D8D8;}
	.st9{fill:url(#SVGID_5_);}
	.st10{fill:url(#SVGID_6_);}
	.st11{fill:url(#SVGID_7_);}
	.st12{fill:#FFFFFF;}
	.st13{fill:url(#SVGID_8_);}
	.st14{fill:url(#SVGID_9_);}
	.st15{fill:url(#SVGID_10_);}
	.st16{fill:url(#SVGID_11_);}
	.st17{fill:url(#SVGID_12_);}
	.st18{fill:url(#SVGID_13_);}
	.st19{fill:url(#SVGID_14_);}
	.st20{fill:#666666;}
	.st21{fill:#999999;}
</style>

	
		
			<path class="st12" d="m1226 14.26h-283.99l-94.02 205.41h100.29c21.35 0 38.66 17.31 38.66 38.66v561.5h633.68c91.05 0 164.86-73.81 164.86-164.86v-475.85c0-91.05-73.81-164.86-164.86-164.86h-394.62zm304.87 600.16h-327.97v-394.75h327.96c21.35 0 38.66 17.31 38.66 38.66v317.43c0.01 21.35-17.3 38.66-38.65 38.66z"/>
			<path class="st12" d="m2392.5 14.26h-438.76l-94.02 205.41h80.52c27.52 0 46.21 27.96 35.69 53.39l-226.21 546.77h233.71l52.98-128.07h402.66l52.98 128.07h233.71l-333.26-805.57zm-271.07 472.09 108.26-261.69c2.97-7.18 13.14-7.18 16.12 0l99.66 240.78c4.12 9.96-3.2 20.91-13.98 20.91h-210.06z"/>
			<path class="st12" d="m642.78 14.26h-438.76l-94.02 205.41h80.52c27.52 0 46.21 27.96 35.69 53.39l-226.21 546.77h233.71l52.98-128.07h402.66l52.98 128.07h233.71l-333.26-805.57zm-271.07 472.09 108.27-261.69c2.97-7.18 13.14-7.18 16.12 0l99.66 240.78c4.12 9.96-3.2 20.91-13.98 20.91h-210.07z"/>
			<path class="st12" d="m3423.1 12.92-147.01 464.6v1.34l-147.01-464.6h-449.36l-94.02 205.41h110c21.35 0 38.66 17.31 38.66 38.66v561.5h215.96v-590.47c0-11.33 15.95-13.8 19.37-2.99l187.78 593.46 237.24-1.34 187.78-593.46c3.42-10.8 19.37-8.34 19.37 2.99v590.47h215.96v-805.57h-394.72z"/>
		
		
			<path d="m1247.2 1.35h-283.99l-94.02 205.41h100.29c21.35 0 38.66 17.31 38.66 38.66v561.5h633.68c91.05 0 164.86-73.81 164.86-164.86v-475.85c0-91.05-73.81-164.86-164.86-164.86h-394.62zm304.86 600.16h-327.97v-394.75h327.96c21.35 0 38.66 17.31 38.66 38.66v317.43c0.01 21.35-17.3 38.66-38.65 38.66z"/>
			<path d="m2413.7 1.35h-438.76l-94.02 205.41h80.52c27.52 0 46.21 27.96 35.69 53.39l-226.2 546.77h233.71l52.98-128.07h402.66l52.98 128.07h233.71l-333.27-805.57zm-271.06 472.09 108.26-261.69c2.97-7.18 13.14-7.18 16.12 0l99.66 240.78c4.12 9.96-3.2 20.91-13.98 20.91h-210.06z"/>
			<path d="m663.98 1.35h-438.76l-94.02 205.41h80.52c27.52 0 46.21 27.96 35.69 53.39l-226.2 546.77h233.71l52.98-128.07h402.66l52.98 128.07h233.71l-333.27-805.57zm-271.07 472.09 108.26-261.69c2.97-7.18 13.14-7.18 16.12 0l99.66 240.78c4.12 9.96-3.2 20.91-13.98 20.91h-210.06z"/>
			<path d="m3444.3 0.01-147.01 464.6v1.34l-147.01-464.6h-449.36l-94.02 205.41h110c21.35 0 38.66 17.31 38.66 38.66v561.5h215.96v-590.47c0-11.33 15.95-13.8 19.37-2.99l187.78 593.46 237.24-1.34 187.78-593.46c3.42-10.8 19.37-8.34 19.37 2.99v590.47h215.96v-805.58l-394.72 0.01z"/>
		
	
	<path d="m577.35 984.69v-78.49c0-8.43-6.83-15.26-15.26-15.26h-104.47c-23.96 0-43.38 19.42-43.38 43.38v63.36c0 23.96 19.42 43.38 43.38 43.38h146.84v-56.37h-27.11z"/>
	<path d="m1583.8 1030.4v-122.59h56.77v133.25h-46.11c-5.88 0.01-10.66-4.77-10.66-10.66z"/>
	<path d="m1666.9 1041.3c-24.15 0-43.79-19.64-43.79-43.79v-46.23c0-24.15 19.64-43.79 43.79-43.79l81.7 0.08c24.13 0.02 43.75 19.66 43.75 43.79v46.15c0 24.15-19.64 43.79-43.79 43.79h-81.66z"/>
	<path d="m1887.4 1030v-70.45h-55.67v81.51h-46.11c-5.91 0-10.69-4.78-10.69-10.69v-122.84h55.69v0.02l69.8 0.06c24.17 0.02 43.75 19.62 43.75 43.79v89.82l-46.23-0.52c-5.85-0.08-10.54-4.84-10.54-10.7z"/>
	
		<path d="M0.01,931.34v-23.82h115.13v23.82H71.09v109.72H42.66V931.34H0.01z"/>
		<path d="m238.09 1041.1h-28.43v-55.07h-51.45v55.07h-28.44v-133.55h28.44v54.66h51.45v-54.66h28.43v133.55z"/>
		<path d="m365.47 931.34h-37.04c-19.22 0-26.43 2.2-32.24 9.81-4 5.42-4.81 8.41-5.81 21.63h75.08v23.82h-75.08c2 22.82 12.02 30.64 39.25 30.64h35.84v23.82h-37.04c-28.44 0-42.05-3.81-52.66-15.02-11.41-11.81-17.62-30.44-17.62-52.65 0-23.63 7.81-42.45 22.62-55.07 9.41-8 18.62-10.81 36.64-10.81h48.05v23.83h0.01z"/>
	
	
		<path d="m2100.8 985.96h-79.45v55.04h-28.42v-69.64c0-17.21 1.8-31.02 5-38.03 5.8-12.4 16.61-20.61 31.82-23.81 7.41-1.61 11.61-2 25.02-2h46.03v23.81h-42.42c-11.41 0-21.61 1.41-26.22 3.4-7.2 3.41-10.8 10.21-10.8 20.21v7.21h79.45v23.81h-0.01z"/>
		<path d="m2155.2 907.52h32.62l55.23 133.48h-33.22l-12.81-31.02h-50.83l-12.81 31.02h-33.42l55.24-133.48zm-2.6 78.65h38.02l-19.01-46.63-19.01 46.63z"/>
		<path d="m2332 1011.8 35.02-104.26h41.42v133.48h-27.01v-100.26l-35.02 100.26h-29.22l-33.02-100.26v100.26h-27.01v-133.48h41.62l33.22 104.26z"/>
		<path d="M2435.66,907.52h28.42V1041h-28.42V907.52z"/>
		<path d="m2518.3 907.52v74.84c1 23.22 1.4 24.42 6.61 29.01 5.2 4.61 11.2 5.81 29.21 5.81h27.22v23.81h-30.21c-18.81 0-23.22-0.4-30.02-2.2-13.61-3.6-23.81-12.81-28.01-25.62-2-6.01-3.2-17.01-3.2-30.82v-74.84h28.4v0.01z"/>
		<path d="m2565 907.52h33.42l30.62 52.03 32.22-52.03h33.61l-52.03 76.04v57.44h-28.42v-58.44l-49.42-75.04z"/>
		<path d="m2860.2 1041h-46.43c-23.01 0-34.02-3.2-44.42-13.2-11.4-11.01-17.61-29.42-17.61-53.23 0-30.02 10.61-52.23 29.42-61.03 7.6-3.61 20.81-6.01 33.82-6.01h45.23v23.81h-41.82c-13.21 0-22.62 3.61-28.42 10.81-4.41 5.4-6.81 16.01-6.81 29.82 0 19.62 4.2 33.43 12.21 39.22 5.2 4 13.2 6.01 24.01 6.01h40.82v23.8z"/>
		<path d="m2987.9 927.13c8.21 10.61 13.01 28.42 13.01 48.43 0 43.63-21.81 66.24-63.84 66.24-25.61 0-45.83-8.41-56.23-23.41-7.81-11.01-11.61-25.62-11.61-43.63 0-25.42 7-44.83 20.21-55.23 10.4-8.41 26.81-13.01 46.22-13.01 23.03 0 42.44 7.6 52.24 20.61zm-81.24 15.41c-4.2 6.6-6.21 17.21-6.21 31.41 0 31.22 10.81 45.43 34.82 45.43 23.81 0 34.42-14.21 34.42-45.63 0-30.82-10.8-44.63-34.82-44.63-12.61 0.01-22.81 4.82-28.21 13.42z"/>
		<path d="m3095.6 1011.8 35.02-104.26h41.42v133.48h-27.01v-100.26l-35.02 100.26h-29.22l-33.02-100.26v100.26h-27.01v-133.48h41.62l33.22 104.26z"/>
		<path d="m3227.7 1041h-28.42v-133.48h66.63c23.41 0 31.62 2.4 40.42 12.2 7.81 8.41 12.01 19.42 12.01 31.23 0 14.01-5.61 27.01-14.81 34.81-7.81 6.6-15.01 8.6-30.22 8.6h-45.62v46.64h0.01zm38.62-70.44c7.6 0 12.01-1 15.01-3.81 3.6-2.99 5.8-9.4 5.8-16.8 0-8.81-3.6-15.22-9.8-17.42-2.2-0.79-5.8-1.2-10.41-1.2h-39.22v39.23h38.62z"/>
		<path d="m3363.6 987.57c0 13.01 2 19.41 7.41 24.42 5.2 4.6 14.01 7.6 23.01 7.6 13.01 0 23.22-4.81 26.81-12.81 1.6-3.81 2.4-9.61 2.4-19.21v-80.05h28.42v78.65c0 21.41-4.4 34.42-14.41 42.82-10.61 8.8-24.61 13.01-43.82 13.01-21.41 0-36.42-4.81-46.03-14.41-9.21-9.4-12.21-19-12.21-39.42v-80.64h28.42v80.04z"/>
		<path d="M3464.73,931.33v-23.81h115.06v23.81h-44.02V1041h-28.42V931.33H3464.73z"/>
		<path d="m3694.5 931.33h-37.02c-19.21 0-26.42 2.2-32.22 9.8-4 5.41-4.8 8.41-5.8 21.62h75.05v23.81h-75.05c2 22.81 12.01 30.62 39.23 30.62h35.82v23.81h-37.02c-28.42 0-42.03-3.81-52.63-15.01-11.4-11.81-17.61-30.42-17.61-52.63 0-23.62 7.81-42.43 22.61-55.04 9.41-8 18.61-10.81 36.62-10.81h48.03v23.83h-0.01z"/>
		<path d="m3745.4 1041h-28.42v-133.48h65.24c20.21 0 32.02 2.2 40.02 7.8 9.4 6.4 14.8 17.21 14.8 29.42 0 20.41-8.2 33.02-25.41 39.02 15.61 4.2 23.21 16.22 24.21 37.03 1 12.41 1.4 15.21 3.2 20.21h-31.82c-1-3-1.2-4.2-1.6-7.21-0.4-3.6-1-9.2-1.2-11.81-2.6-24.21-11-31.61-36.22-31.61h-22.81v50.63h0.01zm39.82-74.45c14.61 0 20.42-5.4 20.42-18.41 0-8-3.6-13.61-9.81-15.81-2.2-0.59-5.8-1-10.61-1h-39.82v35.22h39.82z"/>
	
	
		
			<path d="m1666.9 1043.7c-8.58 0-16.81-2.33-24.03-6.77v4.12c0 1.3-1.05 2.35-2.35 2.35h-46.11c-5.21 0-9.82-3.14-11.87-7.72-7.62 5.06-16.41 7.72-25.63 7.72h-139.39c-7.18 0-13.02-5.84-13.02-13.02v-62.53l-42.94 74.37c-0.42 0.73-1.2 1.17-2.04 1.17h-58.76c-0.84 0-1.61-0.45-2.03-1.17l-86.71-150.09c-0.42-0.73-0.42-1.62 0-2.35s1.2-1.18 2.04-1.18h71.33c0.84 0 1.62 0.45 2.04 1.17l42.73 74.01 42.73-74.01c0.42-0.73 1.2-1.17 2.04-1.17h71.26c0.84 0 1.62 0.45 2.04 1.18s0.42 1.62 0 2.35l-7.69 13.31h23.26c1.3 0 2.35 1.05 2.35 2.35v4.61c7.33-4.55 15.69-6.94 24.43-6.94h92.87c0.1-0.01 0.2-0.02 0.31-0.02h56.77c1.3 0 2.35 1.05 2.35 2.35v4.14c7.23-4.44 15.45-6.77 24.03-6.77l81.7 0.08c8.54 0.01 16.73 2.32 23.93 6.73v-4.46c0-1.3 1.05-2.35 2.35-2.35h55.69c0.11 0 0.21 0.01 0.32 0.02l69.48 0.06c25.42 0.02 46.1 20.72 46.1 46.14v89.82c0 0.63-0.25 1.23-0.7 1.67-0.44 0.44-1.03 0.68-1.65 0.68-0.01 0-46.26-0.52-46.26-0.52-7.1-0.1-12.86-5.96-12.86-13.06v-68.1h-50.97v79.16c0 1.3-1.05 2.35-2.35 2.35h-46.11c-5.06 0-9.55-2.92-11.7-7.29-7.53 4.97-16.21 7.58-25.31 7.58h-81.67v0.03zm-316-17.56 53.59-92.83v-25.51c0-0.77 0.37-1.45 0.94-1.88h-22.06l-51.18 88.87c-0.42 0.73-1.2 1.18-2.04 1.18s-1.62-0.45-2.04-1.17l-51.34-88.88h-36.8l69.38 120.21 41.55 0.01z"/>
			<path class="st12" d="m1446.2 890.95-9.72 16.84h27.33v9.08c7.44-5.68 16.72-9.06 26.78-9.06h93.18v-0.02h56.77v8.59c7.34-5.56 16.48-8.87 26.38-8.87l81.7 0.08c9.86 0.01 18.96 3.29 26.28 8.82v-8.9h55.69v0.02l69.8 0.06c24.17 0.02 43.75 19.62 43.75 43.79v89.82l-46.23-0.52c-5.84-0.08-10.54-4.84-10.54-10.71v-70.45h-55.67v81.51h-46.11c-5.22 0-9.55-3.73-10.49-8.68-7.37 5.62-16.55 8.97-26.52 8.97h-81.66c-9.9 0-19.04-3.31-26.38-8.87v8.57h-46.11c-5.39 0-9.84-4.01-10.55-9.2-7.47 5.76-16.81 9.2-26.96 9.2h-139.4c-5.89 0-10.67-4.78-10.67-10.67v-71.29l-47.32 81.96h-58.75l-86.71-150.09h71.32l44.77 77.53 44.77-77.53h71.27m-116.02 102.68-52.01-90.05h-42.23l72.1 124.91h44.25l54.58-94.55v-26.14h15.09l2.44-4.23h-42.36l-51.86 90.06m116.02-107.36h-71.26c-1.68 0-3.23 0.9-4.07 2.35l-40.7 70.48-40.7-70.48c-0.84-1.45-2.39-2.35-4.07-2.35h-71.32c-1.68 0-3.23 0.9-4.07 2.35-0.84 1.46-0.84 3.25 0 4.7l86.71 150.09c0.84 1.45 2.39 2.35 4.07 2.35h58.75c1.68 0 3.23-0.9 4.07-2.35l38.55-66.77v53.75c0 8.47 6.89 15.37 15.37 15.37h139.4c8.84 0 17.31-2.32 24.8-6.77 2.79 4.1 7.49 6.77 12.71 6.77h46.11c2.6 0 4.7-2.1 4.7-4.7v-0.12c6.69 3.37 14.05 5.12 21.68 5.12h81.66c8.74 0 17.12-2.29 24.53-6.67 2.82 3.9 7.41 6.38 12.47 6.38h46.11c2.6 0 4.7-2.1 4.7-4.7v-76.81h46.27v65.75c0 8.38 6.81 15.29 15.17 15.41l46.25 0.52h0.05c1.24 0 2.42-0.49 3.3-1.36 0.89-0.88 1.4-2.09 1.4-3.34v-89.82c0-26.71-21.73-48.47-48.45-48.49l-69.35-0.06c-0.15-0.01-0.3-0.02-0.45-0.02h-55.69c-2.6 0-4.7 2.1-4.7 4.7v0.47c-6.66-3.34-13.98-5.08-21.58-5.08l-81.7-0.08c-7.64 0-15 1.75-21.69 5.12v-0.14c0-2.6-2.1-4.7-4.7-4.7h-56.77c-0.15 0-0.3 0.01-0.44 0.02h-92.73c-7.78 0-15.28 1.8-22.08 5.27v-0.59c0-2.6-2.1-4.7-4.7-4.7h-19.19l5.65-9.79c0.84-1.45 0.84-3.25 0-4.7-0.84-1.49-2.39-2.38-4.07-2.38zm0 9.4zm-61.44 12.61h17.41v24.4l-52.6 91.11h-38.81l-66.67-115.51h31.37l50.66 87.7c0.84 1.45 2.39 2.35 4.07 2.35s3.23-0.9 4.07-2.35l50.5-87.7z"/>
		
		
			
				<path class="st12" d="m1596.3 1028.5h31.64v-108.12h-31.64v108.12zm-39.41-67.52h-59.49c-3.78 0-6.83-3.07-6.83-6.83 0-3.78 3.07-6.83 6.83-6.83h87.65v-26.93h-94.47c-17.47 0-31.64 14.17-31.64 31.64v4.22c0 17.47 14.17 31.64 31.64 31.64h59.49c3.78 0 6.83 3.07 6.83 6.83s-3.07 6.83-6.83 6.83h-91.13v26.93h97.96c17.47 0 31.64-14.17 31.64-31.64v-4.22c0-17.47-14.17-31.64-31.65-31.64zm191.68-40.79-81.64-0.08c-17.26-0.02-31.27 13.96-31.27 31.23v46.23c0 17.24 13.98 31.23 31.23 31.23h81.64c17.24 0 31.23-13.98 31.23-31.23v-46.15c0-17.24-13.97-31.23-31.19-31.23zm-0.46 69.11c0 6.68-5.43 12.11-12.11 12.11h-56.57c-6.68 0-12.11-5.43-12.11-12.11v-30.18c0-6.68 5.43-12.11 12.11-12.11h56.57c6.68 0 12.11 5.43 12.11 12.11v30.18zm152.25-69.11-81.64-0.08c-0.23 0-0.48 0.02-0.71 0.04v-0.04h-30.56v108.42h31.64v-69.4c0-6.68 5.43-12.11 12.11-12.11h56.57c6.68 0 12.11 5.43 12.11 12.11v69.05l31.64 0.35v-77.11c0.03-17.24-13.94-31.23-31.16-31.23zm-518.22-16.6-51.99 90.07-52.02-90.07h-42.23l72.13 124.92h44.2l72.13-124.92h-42.22zm37.26 124.91h31.81v-108.12h-31.81v108.12z"/>
			
		
	
	
		
			<path d="m848.99 1043.7c-0.11 0-0.22-0.01-0.32-0.02-7.58-0.05-14.95-1.94-21.56-5.51v2.95c0 1.3-1.05 2.35-2.35 2.35h-71.88c-13.06 0-25.32-5.44-34.06-15.02-8.75 9.54-20.98 14.96-33.98 14.96h-227.23c-25.22 0-45.73-20.51-45.73-45.73v-63.36c0-25.22 20.51-45.73 45.73-45.73h104.47c9.71 0 17.61 7.9 17.61 17.61v5.16c7.1-4.23 15.15-6.45 23.5-6.45l81.69 0.08c7.68 0.01 15.16 1.91 21.86 5.54v-2.9c0-1.3 1.05-2.35 2.35-2.35h46.1c7.19 0 13.04 5.85 13.04 13.04v67.94h34.62v-78.77c0-0.62 0.25-1.22 0.69-1.66s1.04-0.69 1.66-0.69l134.2 0.08c4.66 0 8.95 2.56 11.24 6.49 7.15-4.29 15.27-6.55 23.67-6.55l90.41 0.04c4.68 0 8.97 2.57 11.26 6.52 7.15-4.3 15.29-6.56 23.69-6.56l81.69 0.08c25.42 0.02 46.09 20.72 46.09 46.14v46.14c0 25.44-20.7 46.14-46.14 46.14h-81.33c-0.1 0.01-0.21 0.02-0.31 0.02-7.72 0-15.22-1.91-21.94-5.56v3.21c0 1.3-1.05 2.35-2.35 2.35h-101.08c-7.71 0-15.2-1.9-21.9-5.52v3.19c0 1.3-1.05 2.35-2.35 2.35h-101.06z"/>
			<path class="st12" d="m562.09 890.95c8.43 0 15.26 6.83 15.26 15.26v9.53c7.25-5.32 16.19-8.48 25.85-8.48l81.69 0.08c8.95 0.01 17.27 2.72 24.21 7.35v-7.06h46.1c5.91 0 10.69 4.78 10.69 10.69v70.29h39.32v-81.12l134.2 0.08c4.81 0 8.88 3.2 10.21 7.6 7.04-4.83 15.55-7.66 24.71-7.66l90.41 0.04c4.83 0 8.91 3.22 10.22 7.64 7.04-4.84 15.56-7.68 24.74-7.68l81.69 0.08c24.13 0.02 43.74 19.66 43.74 43.79v46.14c0 24.15-19.64 43.79-43.79 43.79h-81.65v0.02c-8.98 0-17.34-2.72-24.29-7.38v7.38h-101.08c-8.97 0-17.31-2.7-24.25-7.33v7.35h-101.08v-0.02c-8.96 0-17.29-2.7-24.23-7.31v7.11h-71.88c-13.76 0-26.03-6.35-34.06-16.27-8.03 9.88-20.28 16.21-33.98 16.21h-227.23c-23.96 0-43.38-19.42-43.38-43.38v-63.36c0-23.96 19.42-43.38 43.38-43.38h104.48m0-4.7h-104.47c-26.51 0-48.08 21.57-48.08 48.08v63.36c0 26.51 21.57 48.08 48.08 48.08h227.23c12.82 0 24.93-5.02 33.97-13.92 9.04 8.95 21.18 13.98 34.07 13.98h71.88c2.33 0 4.26-1.69 4.64-3.92 5.99 2.65 12.48 4.06 19.13 4.12 0.15 0.02 0.31 0.02 0.47 0.02h101.08c2.41 0 4.39-1.81 4.67-4.14 6.13 2.71 12.78 4.12 19.58 4.12h101.08c2.41 0 4.4-1.81 4.67-4.15 6.15 2.73 12.81 4.15 19.62 4.15 0.15 0 0.3-0.01 0.45-0.02h81.2c26.74 0 48.49-21.75 48.49-48.49v-46.14c0-26.71-21.73-48.46-48.44-48.49l-81.69-0.08c-8.1 0-15.95 2-22.99 5.81-2.86-3.55-7.25-5.77-11.97-5.77l-90.41-0.04c-8.09 0-15.94 1.99-22.97 5.8-2.87-3.53-7.24-5.74-11.94-5.74l-134.19-0.08c-1.25 0-2.44 0.49-3.32 1.38-0.88 0.88-1.38 2.08-1.38 3.32v76.42h-29.92v-65.59c0-8.48-6.9-15.39-15.39-15.39h-46.1c-2.31 0-4.23 1.67-4.63 3.86-6.13-2.73-12.78-4.15-19.58-4.15l-81.69-0.08c-7.42 0-14.61 1.66-21.16 4.86v-1.22c-0.04-11-8.99-19.95-19.99-19.95z"/>
		
		
			
				<path class="st12" d="m684.87 919.91-81.65-0.08c-17.26-0.02-31.26 13.96-31.26 31.22v46.23c0.02 17.24 14 31.22 31.24 31.22h81.62c17.24 0 31.22-13.98 31.22-31.22v-46.14c0.01-17.25-13.96-31.21-31.17-31.23zm-0.48 69.1c0 6.68-5.43 12.1-12.1 12.1h-56.56c-6.68 0-12.1-5.43-12.1-12.1v-30.18c0-6.68 5.43-12.11 12.1-12.11h56.56c6.68 0 12.1 5.43 12.1 12.11v30.18zm496.96-68.85-81.62-0.08c-17.26-0.02-31.26 13.96-31.26 31.22v46.23c0 17.24 13.98 31.22 31.22 31.22h81.62c17.24 0 31.22-13.98 31.22-31.22v-46.14c0-17.23-13.96-31.21-31.18-31.23zm-0.46 69.12c0 6.68-5.43 12.1-12.1 12.1h-56.56c-6.68 0-12.1-5.43-12.1-12.1v-30.2c0-6.68 5.43-12.1 12.1-12.1h56.56c6.68 0 12.1 5.43 12.1 12.1v30.2zm-754.13-49.79v53.27c0 19.89 16.11 36 35.98 36h102v-31.55h-87.54c-7.7 0-13.95-6.25-13.95-13.95v-34.8c0-7.7 6.25-13.95 13.95-13.95h87.54v-30.95l-101.98-0.05c-19.86 0-36 16.11-36 35.98zm516.31 11.81v46.23c0.02 17.26 14 31.24 31.24 31.24h88.51v-27.38h-75.97c-6.68 0-12.1-5.43-12.1-12.1v-30.2c0-6.68 5.43-12.1 12.1-12.1h75.97v-26.86l-88.49-0.04c-17.25-0.04-31.26 13.95-31.26 31.21zm-189.75 37.77v-68.87h-31.66v77.14c0 17.24 13.96 31.22 31.22 31.22h59.29v-27.38h-46.75c-6.67 0-12.1-5.43-12.1-12.11zm64.45 8.45c0 17.26 13.96 31.24 31.22 31.24h88.51v-27.38h-80c-4.47 0-8.1-3.63-8.1-8.1s3.63-8.1 8.1-8.1h72.44v-21.56h-72.21c-4.59 0-8.33-3.74-8.33-8.33s3.74-8.33 8.33-8.33h79.77v-26.86l-119.73-0.08v77.5z"/>
			
		
	

</svg>
