<?xml version="1.0" encoding="UTF-8"?>
<svg enable-background="new 0 0 3839 1076.3" version="1.1" viewBox="0 0 3839 1076.3" xml:space="preserve" xmlns="http://www.w3.org/2000/svg">
<style type="text/css">
	.st0{fill-rule:evenodd;clip-rule:evenodd;fill:#FFFFFF;}
	.st1{fill:#231F20;}
	.st2{fill:#FFFFFF;}
	.st3{fill-rule:evenodd;clip-rule:evenodd;}
</style>

	<path class="st3" d="m450.1 764.6h2938.6c86.1 0 155.9 69.8 155.9 155.9s-69.8 155.8-155.8 155.8h-2938.7c-86.1 0-155.8-69.8-155.8-155.8 0.1-86.1 69.8-155.9 155.8-155.9z"/>
	
		<path class="st2" d="m907.1 849.5h60.8c35.9 0 59 18.4 59 49.9v0.4c0 33.5-25.7 51.1-61 51.1h-19.5v40.6h-39.3v-142zm58 70.6c14 0 22.5-7.3 22.5-18.5v-0.4c0-12.2-8.5-18.7-22.7-18.7h-18.4v37.5l18.6 0.1z"/>
		<path class="st2" d="m1104.4 849.5h39.3v107.5h68.7v34.5h-108.1l0.1-142z"/>
		<path class="st2" d="m1339.1 848.5h37.9l60.4 142.9h-42.2l-10.3-25.3h-54.7l-10.1 25.3h-41.4l60.4-142.9zm34.5 87-15.8-40.4-16 40.4h31.8z"/>
		<path class="st2" d="m1530.8 938.3-53.9-88.8h44.8l29.2 51.7 29.4-51.7h44l-53.9 88.2v53.7h-39.5l-0.1-53.1z"/>
		<path class="st2" d="m1803.4 970.4 21.9-26.2c14 11.2 29.6 17 46 17 10.5 0 16.2-3.6 16.2-9.7v-0.4c0-5.9-4.7-9.1-23.9-13.6-30.2-6.9-53.5-15.4-53.5-44.6v-0.4c0-26.4 20.9-45.4 54.9-45.4 24.1 0 43 6.5 58.4 18.9l-19.7 27.8c-13-9.1-27.2-14-39.7-14-9.5 0-14.2 4.1-14.2 9.1v0.4c0 6.5 4.9 9.3 24.5 13.8 32.6 7.1 52.9 17.6 52.9 44.2v0.4c0 29-22.9 46.2-57.4 46.2-25 0-49-7.9-66.4-23.5z"/>
		<path class="st2" d="m2042 938.3-53.9-88.8h44.8l29.2 51.7 29.4-51.7h44l-53.9 88.2v53.7h-39.5l-0.1-53.1z"/>
		<path class="st2" d="m2190.6 970.4 21.9-26.2c14 11.2 29.6 17 46 17 10.5 0 16.2-3.6 16.2-9.7v-0.4c0-5.9-4.7-9.1-23.9-13.6-30.2-6.9-53.5-15.4-53.5-44.6v-0.4c0-26.4 20.9-45.4 54.9-45.4 24.1 0 43 6.5 58.4 18.9l-19.7 27.8c-13-9.1-27.2-14-39.7-14-9.5 0-14.2 4.1-14.2 9.1v0.4c0 6.5 4.9 9.3 24.5 13.8 32.6 7.1 52.9 17.6 52.9 44.2v0.4c0 29-22.9 46.2-57.4 46.2-25 0-48.9-7.9-66.4-23.5z"/>
		<path class="st2" d="M2425,884h-42.6v-34.5h124.5V884h-42.6v107.5H2425V884z"/>
		<path class="st2" d="M2585,849.5h114.2V883H2624v21.5h68.1v31H2624V958h76.2v33.5H2585V849.5z"/>
		<path class="st2" d="m2781 849.5h41.6l33.9 54.9 33.9-54.9h41.6v141.9h-39.1v-81.5l-36.3 55.6h-0.8l-36.1-55.2v81.1h-38.5v-141.9h-0.2z"/>
	
	
		<path class="st1" d="m1507.3 167.6v238.9s160.9-67 160.9-161.6c0-116.9-160.9-77.3-160.9-77.3"/>
		<path class="st1" d="m2751.9 155.5c-70.2 0-164.4 41.3-164.4 206.3s83.9 206.3 164.4 206.3c80.4 0 166.1-51.6 166.1-206.3s-95.9-206.3-166.1-206.3"/>
		<polyline class="st1" points="887.6 363.5 1000.5 363.5 942.4 200.2 887.6 363.5"/>
		<path class="st1" d="m570.9 642.1h-178.1c-212.3 0-330.4-166.8-330.4-287.1 0-184.5 159.8-286.9 304.7-286.9 140.4 0 225.1 107.7 225.1 107.7l-96.7 101.9s-5.1 2.6-9.4 2.6-10.3-4.3-10.3-4.3l-12-10.3s-3.4-0.8-3.4-4.3c0-3.4 9.4-12 9.4-28.3s-3.4-84.2-107.8-84.2-150.7 98-150.7 178.8 49.7 228.7 212.3 228.7c94.6 0 114.7-53.3 114.7-53.3h32.5v139zm696.7 1.7h-214.9v-41.3s13.7 1.7 20.6-10.3 6.9-21.5 1.7-33.5c-5.1-12-41.1-107.5-41.1-107.5h-175.4s-36 96.2-39.4 104.9c-3.4 8.6-3.4 22.4 0 30.9 5.7 14.3 25.7 16.4 25.7 16.4v40.4h-172v-40.4s15.6-5.4 27.3-17.2c12.9-12.9 17.1-26.6 17.1-26.6l174.6-476.2h146.4l178 467.5c5.1 12.9 13.8 25 22.3 35.2 8.5 10.3 29.1 17.2 29.1 17.2v40.5zm407.4-220.1c-73.1 33.8-169.4 60.2-169.4 60.2v89.4s0.8 6 9.4 16.4c8.6 10.3 18 12.9 18 12.9v41.3h-198.6v-40.4s12-2.6 20.6-11.2 10.3-18.9 10.3-18.9v-404s0.8-17.2-6-24.1c-6.9-6.9-23.1-16.3-23.1-16.3v-45.6h273.9c101 0 202 36.1 202 153s-73.7 158.1-137.1 187.3zm500-274c-104.4 0-150.7 98-150.7 178.8s49.7 228.7 212.3 228.7c94.7 0 114.7-53.3 114.7-53.3h32.5v139.1h-178.1c-212.3 0-330.4-166.7-330.4-287.1 0-184.5 159.8-286.9 304.7-286.9 140.4 0 225.1 107.7 225.1 107.7l-96.7 101.9s-5.1 2.5-9.4 2.5-10.3-4.3-10.3-4.3l-12-10.3s-3.4-0.9-3.4-4.3 9.4-12 9.4-28.3c0.1-16.3-3.3-84.2-107.7-84.2zm576.9 510.2c-184.9 0-317.8-135.6-317.8-300.6s136.3-292.9 317.8-292.9c181.4 0 317.8 127.9 317.8 292.9s-132.9 300.6-317.8 300.6zm1028-15.8h-204.6v-37.2s18-2.6 24-11.2 8.6-13.8 6.9-27.5c-1.7-13.8-50.5-326.6-50.5-326.6l-89.1 276.7h-107.8l-88.2-259.5-44.5 305.9s-1.7 18.4 5.2 28.4c9.4 13.8 26.5 13.8 26.5 13.8v37h-177.2v-39.6s14.1-2.2 24.4-14.1c10.3-12 12-27.5 12-27.5l64.6-403.6s3.8-15-0.4-21.9c-4.5-7.2-28.7-13.3-28.7-13.3v-40h203.8l73.6 228.3 78.7-228.7h213.2v33.5s-14.3 6-20.6 13.8c-7.7 9.4-7.7 16.3-6 30.1s56.5 386.8 58.2 400.5c1.7 13.8 3.4 21.5 6.8 31 3.4 9.4 19.7 17.1 19.7 17.1v34.6z"/>
		<path class="st2" d="m1507.3 167.6v238.9s160.9-67 160.9-161.6c0-116.9-160.9-77.3-160.9-77.3"/>
		<path class="st2" d="m2751.9 155.5c-70.2 0-164.4 41.3-164.4 206.3s83.9 206.3 164.4 206.3c80.4 0 166.1-51.6 166.1-206.3s-95.9-206.3-166.1-206.3"/>
		<polyline class="st2" points="887.6 363.5 1000.5 363.5 942.4 200.2 887.6 363.5"/>
		<path d="m678.7 172.8-181.5 192.5-119.8-82.5s39.4-37.8 3.4-65.3c-28.1-21.4-106.7 24.1-103.4 113.5 4 103.1 67.5 161.5 137.6 161.5 65 0 82.1-52.7 82.1-52.7h145.9v121.5l205.2-543.3h234.5l188.3 488.2s13.7 25.8 27.4 32.7c0 0 0.8-320.3 0.8-329.3s-1.2-18.9-6.8-25.3c-9.2-10.7-24.8-15-24.8-15v-151.3h328.7c170.4 0 214.2 46.5 263.6 135.8 68.3-92.3 162.2-153 296.2-153 137.9 0 235.4 51 291.1 135.8 77.8-93.3 203-136.6 317.6-136.6 140.8 0 258.4 68.4 319.3 174.5v-156.5h316.7l33.4 85.1 24.8-85.1h327v147.8c-23.1 11.2-32.4 22.6-28.3 49l45.7 292.2c1.9 9.5 5.2 19.4 13.4 26.7 9.5 8.5 22.3 6.9 22.3 6.9v168.5h-328.7v-127.3h-188.4v127.6h-309v-82.9s-112.9 99.7-258.5 99.7c-186.2 0-310.7-137.5-310.7-137.5v120.3h-219.2c-195 0-362.4-107.2-409.2-302.5-22.2 21.2-119.9 91.3-237.1 117.7-9.1 2-13.7 5.5-13.7 15.5 0 18.1 38.6 24.5 38.6 24.5v144.8h-1201.8c-222.6 0.1-401.4-152.9-401.4-347.1s139.4-359.4 370.5-359.4c220.9 0 308.2 170.3 308.2 170.3"/>
		<path class="st2" d="m891.8 83.3h146.4l178.1 467.6c5.1 12.9 13.7 24.9 22.3 35.2 8.5 10.3 29.1 17.2 29.1 17.2v40.4h-214.9v-41.3s13.7 1.8 20.6-10.3c6.9-12 6.9-21.5 1.7-33.5-5.1-12-41.1-107.5-41.1-107.5h-175.5s-36 96.3-39.4 104.9-3.4 22.4 0 30.9c5.7 14.3 25.7 16.4 25.7 16.4v40.4h-172v-40.4s15.6-5.4 27.3-17.2c12.9-12.9 17.2-26.7 17.2-26.7l174.5-476.1m-4.2 280.2h113l-58.2-163.3-54.8 163.3z"/>
		<path class="st2" d="m1336.1 83.3h273.9c101 0 202 36.1 202 153s-73.6 158.1-137 187.3c-73.1 33.8-169.5 60.2-169.5 60.2v89.3s0.8 6 9.4 16.4c8.5 10.3 18 12.9 18 12.9v41.3h-198.6v-40.4s12-2.6 20.6-11.2 10.3-18.9 10.3-18.9v-404s0.8-17.2-6-24.1c-6.9-6.9-23.1-16.3-23.1-16.3v-45.5m171.2 84.3v238.9s160.9-67 160.9-161.6c0-116.9-160.9-77.3-160.9-77.3z"/>
		<path class="st2" d="m2751.9 659.9c-184.9 0-317.8-135.6-317.8-300.6s136.3-293 317.8-293 317.8 127.9 317.8 293-132.9 300.6-317.8 300.6m-164.3-298c0 165 83.9 206.3 164.4 206.3 80.4 0 166.1-51.6 166.1-206.3s-95.9-206.3-166.1-206.3c-70.3 0-164.4 41.2-164.4 206.3z"/>
		<path class="st2" d="m3152.5 83.7h203.7l73.6 228.3 78.7-228.7h213.1v33.5s-14.2 6-20.6 13.8c-7.7 9.4-7.7 16.4-6 30.1 1.7 13.8 56.5 386.8 58.2 400.5 1.7 13.8 3.5 21.5 6.9 31 3.4 9.4 19.7 17.2 19.7 17.2v34.6h-204.6v-37.2s18-2.6 23.9-11.2c6-8.6 8.6-13.8 6.8-27.5-1.7-13.8-50.5-326.6-50.5-326.6l-89 276.8h-107.8l-88.2-259.6-44.5 306s-1.7 18.3 5.1 28.3c9.4 13.8 26.5 13.8 26.5 13.8v36.9h-177.2v-39.5s14.1-2.2 24.4-14.2 12-27.5 12-27.5l64.6-403.5s3.9-15.1-0.4-21.9c-4.5-7.2-28.7-13.4-28.7-13.4v-40"/>
		<path class="st2" d="m592.2 175.7-95.5 100.6c-5 5.3-13.3 5.8-18.9 1.2l-16.2-13.3c-0.7-0.6-1.1-1.6-1.1-2.9 0-3.4 9.4-12 9.4-28.3 0-16.4-3.4-84.2-107.8-84.2s-150.7 98-150.7 178.8 49.7 228.7 212.3 228.7c94.6 0 114.7-53.3 114.7-53.3h32.5v139h-178.1c-212.3 0-330.4-166.7-330.4-287 0-184.5 159.8-286.9 304.7-286.9 140.4 0 225.1 107.6 225.1 107.6"/>
		<path class="st2" d="m2405.3 176.7-95.5 100.6c-5 5.3-13.3 5.8-18.9 1.2l-16.2-13.3c-0.7-0.6-1.1-1.6-1.1-2.9 0-3.4 9.4-12 9.4-28.3 0-16.4-3.4-84.2-107.8-84.2s-150.7 98-150.7 178.8 49.7 228.7 212.3 228.7c94.6 0 114.7-53.3 114.7-53.3h32.5v139h-178.1c-212.3 0-330.4-166.7-330.4-287.1 0-184.5 159.8-286.9 304.7-286.9 140.3 0.1 225.1 107.7 225.1 107.7"/>
	

</svg>
