<?xml version="1.0" encoding="UTF-8"?>
<svg enable-background="new 0 0 3839 773.36" version="1.1" viewBox="0 0 3839 773.36" xml:space="preserve" xmlns="http://www.w3.org/2000/svg">
<style type="text/css">
	.st0{fill:none;stroke:#000000;stroke-width:54.1005;stroke-miterlimit:10;}
	.st1{fill:none;stroke:#000000;stroke-width:55.7397;stroke-miterlimit:10;}
	.st2{fill:#FFEF00;}
	.st3{fill:url(#SVGID_1_);}
	.st4{fill:#FFFFFF;}
	.st5{fill:url(#SVGID_2_);}
	.st6{fill:url(#SVGID_3_);}
	.st7{fill:url(#SVGID_4_);}
	.st8{fill:url(#SVGID_5_);}
	.st9{fill:url(#SVGID_6_);}
	.st10{fill:url(#SVGID_7_);}
	.st11{fill:url(#SVGID_8_);}
	.st12{fill:url(#SVGID_9_);}
	.st13{fill:url(#SVGID_10_);}
	.st14{fill:url(#SVGID_11_);}
	.st15{fill:url(#SVGID_12_);}
	.st16{fill:url(#SVGID_13_);}
	.st17{fill:url(#SVGID_14_);}
	.st18{fill:url(#SVGID_15_);}
	.st19{fill:url(#SVGID_16_);}
	.st20{fill:url(#SVGID_17_);}
	.st21{fill:url(#SVGID_18_);}
	.st22{fill:url(#SVGID_19_);}
	.st23{fill:url(#SVGID_20_);}
	.st24{fill:url(#SVGID_21_);}
</style>

	
		<path d="m685.41 605.47h-24.64c-38.35 0-69.56-31.2-69.56-69.56v-33.11c0-29.14-23.71-52.84-52.84-52.84h-46.27c-36.41 0-66.03-29.62-66.03-66.03s29.62-66.03 66.03-66.03h46.27c29.14 0 52.84-23.71 52.84-52.84s-23.71-52.84-52.84-52.84h-82.46c-29.14 0-52.84 23.71-52.84 52.84v270.85c0 38.35-31.2 69.56-69.56 69.56h-106.79c-59.33 0-115.54-22.62-158.29-63.7-43.12-41.44-67.42-96.84-68.4-155.98-1.01-60.44 21.76-117.44 64.1-160.51 42.36-43.07 98.95-66.79 159.35-66.79h84.47v53.72h-84.47c-45.88 0-88.87 18.02-121.05 50.74-32.17 32.71-49.46 76.02-48.69 121.94 0.75 44.73 19.18 86.69 51.91 118.14 32.69 31.41 75.68 48.71 121.07 48.71h106.79c8.73 0 15.84-7.1 15.84-15.84v-270.84c0-58.76 47.81-106.56 106.57-106.56h82.46c58.76 0 106.57 47.8 106.57 106.56s-47.8 106.56-106.57 106.56h-46.27c-6.78 0-12.3 5.52-12.3 12.3s5.52 12.3 12.3 12.3h46.27c58.76 0 106.57 47.8 106.57 106.56v33.11c0 8.73 7.1 15.84 15.84 15.84h24.64v53.74z"/>
	
	
		<path d="m1536.5 605.47c-36.41 0-66.03-29.62-66.03-66.03v-311.39c0-8.73-7.1-15.84-15.84-15.84h-112.82v-53.72h112.82c38.35 0 69.56 31.2 69.56 69.56v311.39c0 6.78 5.52 12.3 12.3 12.3s12.3-5.52 12.3-12.3v-311.39c0-38.35 31.2-69.56 69.56-69.56h116.71v53.72h-116.71c-8.73 0-15.84 7.1-15.84 15.84v311.39c0.02 36.41-29.6 66.03-66.01 66.03z"/>
	
	
		<rect x="2873.3" y="158.49" width="53.72" height="446.97"/>
	
	
		<rect x="1775.2" y="158.49" width="53.72" height="446.97"/>
	
	
		<rect x="2436.8" y="158.49" width="53.72" height="446.97"/>
	
	
		<path d="m1438.3 605.47h-37.27c-29.29 0-55.61-18.53-65.49-46.11l-17.89-49.97c-2.43-6.78-8.9-11.34-16.1-11.34h-104.74c-36.41 0-66.03-29.62-66.03-66.03s29.62-66.03 66.03-66.03h51.91c5.59 0 8.74-3.29 10.13-5.25 1.38-1.96 3.42-6.04 1.53-11.31l-45.34-126.64c-5-13.97-17.64-15.06-21.39-15.06s-16.39 1.09-21.39 15.06l-121.06 338.09c-9.55 26.67-35 44.58-63.32 44.58h-171.96c-58.76 0-106.57-47.81-106.57-106.57v-36.71c0-36.37 29.59-65.96 65.96-65.96h127.48c6.75 0 12.23-5.49 12.23-12.24v-0.14c0-6.75-5.49-12.24-12.23-12.24h-127.48c-36.37 0-65.96-29.59-65.96-65.96v-40.6c0-58.76 47.81-106.57 106.57-106.57h152.86v53.72h-152.86c-29.14 0-52.85 23.71-52.85 52.85v40.6c0 6.75 5.49 12.24 12.23 12.24h127.48c36.37 0 65.96 29.59 65.96 65.96v0.16c0 36.37-29.59 65.96-65.96 65.96h-127.47c-6.75 0-12.23 5.49-12.23 12.24v36.71c0 29.14 23.71 52.85 52.85 52.85h171.96c5.7 0 10.82-3.61 12.74-8.97l121.06-338.09c11.02-30.78 39.27-50.67 71.97-50.67s60.95 19.89 71.97 50.67l45.33 126.63c7.24 20.22 4.18 42.78-8.19 60.34s-32.57 28.05-54.05 28.05h-51.91c-6.78 0-12.3 5.52-12.3 12.3 0 6.79 5.52 12.3 12.3 12.3h104.74c29.83 0 56.62 18.87 66.68 46.95l17.89 49.97c2.25 6.28 8.24 10.5 14.91 10.5h37.27v53.73z"/>
	
	
		<path d="m2127 773.36c-16.25 0-31.75-4.81-44.8-13.9-14.26-9.93-24.52-24.31-29.68-41.59l-195-652.84c-1.99-6.66-8.23-11.3-15.17-11.3h-35.53v-53.73h35.53c15.09 0 29.46 4.76 41.55 13.78 12.1 9.01 20.78 21.42 25.09 35.87l195.01 652.85c4.75 15.9 18.81 17.14 23.01 17.14s18.26-1.24 23.01-17.14l195.01-652.85c4.32-14.45 12.99-26.86 25.09-35.87 12.09-9.02 26.46-13.78 41.55-13.78h35.53v53.72h-35.53c-6.95 0-13.18 4.65-15.17 11.3l-195.01 652.85c-5.16 17.27-15.42 31.65-29.68 41.59-13.06 9.09-28.55 13.9-44.81 13.9z"/>
	
	
		
			<path d="m2705.2 605.47h-165.88v-53.72h165.88c39.4 0 71.45-32.05 71.45-71.45s-32.05-71.45-71.45-71.45h-46.61c-69.02 0-125.17-56.15-125.17-125.17s56.15-125.17 125.17-125.17h165.31v53.72h-165.31c-39.4 0-71.45 32.05-71.45 71.45s32.05 71.45 71.45 71.45h46.61c69.02 0 125.17 56.15 125.17 125.17s-56.15 125.17-125.17 125.17z"/>
		
	
	
		<path d="m3192.9 612.59c-61.51 0-119.33-23.95-162.82-67.44s-67.44-101.31-67.44-162.82 23.95-119.33 67.44-162.82 101.31-67.44 162.82-67.44 119.33 23.95 162.82 67.44 67.44 101.31 67.44 162.82-23.95 119.33-67.44 162.82-101.32 67.44-162.82 67.44zm0-405.16c-96.45 0-174.91 78.46-174.91 174.91s78.46 174.91 174.91 174.91 174.91-78.46 174.91-174.91-78.47-174.91-174.91-174.91z"/>
	
	
		<path d="m3729.9 605.47c-28.89 0-54.85-18.28-64.59-45.48l-126.23-352.58c-3.01-8.4-9.79-8.56-13.56-7.9-3.77 0.65-10.1 3.09-10.1 12.01v324.39c0 38.35-31.2 69.56-69.56 69.56h-24.64v-53.72h24.64c8.73 0 15.84-7.1 15.84-15.84v-324.39c0-32.65 22.47-59.35 54.63-64.94 32.17-5.59 62.32 11.98 73.33 42.72l126.24 352.58c2.11 5.9 7.74 9.87 14.01 9.87 8.21 0 14.88-6.68 14.88-14.88v-308.82c0-38.35 31.2-69.56 69.56-69.56h24.63v53.72h-24.64c-8.73 0-15.84 7.1-15.84 15.84v308.81c0.01 37.83-30.77 68.61-68.6 68.61z"/>
	

</svg>
