<?xml version="1.0" encoding="UTF-8"?>
<svg enable-background="new 0 0 3839 1042.4" version="1.1" viewBox="0 0 3839 1042.4" xml:space="preserve" xmlns="http://www.w3.org/2000/svg">
<style type="text/css">
	.st0{fill:#E5B623;}
	.st1{fill:url(#SVGID_1_);}
	.st2{fill:#DDA544;}
	.st3{fill:#D3AC6E;}
	.st4{fill:url(#SVGID_2_);}
	.st5{fill:#BB924A;}
	.st6{fill:url(#SVGID_3_);}
	.st7{fill:url(#SVGID_4_);}
	.st8{fill:url(#SVGID_5_);}
	.st9{fill:url(#SVGID_6_);}
	.st10{fill:url(#SVGID_7_);}
	.st11{fill:#806530;}
	.st12{fill:url(#SVGID_8_);}
	.st13{fill:url(#SVGID_9_);}
	.st14{fill:url(#SVGID_10_);}
	.st15{fill:url(#SVGID_11_);}
	.st16{fill:url(#SVGID_12_);}
	.st17{fill:#8B7035;}
	.st18{fill:url(#SVGID_13_);}
	.st19{fill:url(#SVGID_14_);}
	.st20{fill:url(#SVGID_15_);}
	.st21{fill:url(#SVGID_16_);}
	.st22{fill:url(#SVGID_17_);}
	.st23{fill:url(#SVGID_18_);}
	.st24{fill:url(#SVGID_19_);}
	.st25{fill:url(#SVGID_20_);}
	.st26{fill:url(#SVGID_21_);}
	.st27{fill:url(#SVGID_22_);}
	.st28{fill:url(#SVGID_23_);}
	.st29{fill:url(#SVGID_24_);}
	.st30{fill:url(#SVGID_25_);}
	.st31{fill:url(#SVGID_26_);}
	.st32{fill:url(#SVGID_27_);}
	.st33{fill:url(#SVGID_28_);}
	.st34{fill:url(#SVGID_29_);}
	.st35{fill:url(#SVGID_30_);}
	.st36{fill:url(#SVGID_31_);}
	.st37{fill:url(#SVGID_32_);}
	.st38{fill:url(#SVGID_33_);}
	.st39{fill:url(#SVGID_34_);}
	.st40{fill:url(#SVGID_35_);}
	.st41{fill:url(#SVGID_36_);}
	.st42{fill:url(#SVGID_37_);}
	.st43{fill:url(#SVGID_38_);}
	.st44{fill:url(#SVGID_39_);}
	.st45{fill:url(#SVGID_40_);}
	.st46{fill:url(#SVGID_41_);}
	.st47{fill:url(#SVGID_42_);}
	.st48{fill:url(#SVGID_43_);}
	.st49{fill:url(#SVGID_44_);}
	.st50{fill:url(#SVGID_45_);}
	.st51{fill:url(#SVGID_46_);}
	.st52{fill:url(#SVGID_47_);}
	.st53{fill:url(#SVGID_48_);}
	.st54{fill:url(#SVGID_49_);}
	.st55{fill:url(#SVGID_50_);}
	.st56{fill:url(#SVGID_51_);}
	.st57{fill:url(#SVGID_52_);}
	.st58{fill:url(#SVGID_53_);}
	.st59{fill:url(#SVGID_54_);}
	.st60{fill:url(#SVGID_55_);}
	.st61{fill:url(#SVGID_56_);}
	.st62{fill:url(#SVGID_57_);}
	.st63{fill:url(#SVGID_58_);}
	.st64{fill:url(#SVGID_59_);}
	.st65{fill:url(#SVGID_60_);}
	.st66{fill:url(#SVGID_61_);}
	.st67{fill:url(#SVGID_62_);}
	.st68{fill:url(#SVGID_63_);}
	.st69{fill:url(#SVGID_64_);}
	.st70{fill:url(#SVGID_65_);}
	.st71{fill:url(#SVGID_66_);}
	.st72{fill:url(#SVGID_67_);}
	.st73{fill:url(#SVGID_68_);}
	.st74{fill:url(#SVGID_69_);}
	.st75{fill:url(#SVGID_70_);}
	.st76{fill:url(#SVGID_71_);}
	.st77{fill:url(#SVGID_72_);}
	.st78{fill:url(#SVGID_73_);}
	.st79{fill:url(#SVGID_74_);}
	.st80{fill:url(#SVGID_75_);}
	.st81{fill:url(#SVGID_76_);}
	.st82{fill:url(#SVGID_77_);}
	.st83{fill:url(#SVGID_78_);}
	.st84{fill:url(#SVGID_79_);}
	.st85{fill:url(#SVGID_80_);}
	.st86{fill:url(#SVGID_81_);}
	.st87{fill:url(#SVGID_82_);}
	.st88{fill:url(#SVGID_83_);}
	.st89{fill:#70572B;}
	.st90{fill:#F4BC1E;}
	.st91{fill:url(#SVGID_84_);}
	.st92{fill:url(#SVGID_85_);}
	.st93{fill:url(#SVGID_86_);}
	.st94{fill:url(#SVGID_87_);}
	.st95{fill:url(#SVGID_88_);}
	.st96{fill:url(#SVGID_89_);}
	.st97{fill:#FFFFFF;}
</style>

	<path d="m3396.4 555.9c2.5-20.3 5.9-39.9 10.1-58.7 57.7 7.2 115.4 14.8 173 22.9 16.7 2.3 21.9 18.6 9.8 27 32-18.1 64.3-40.4 94.7-65.2-87.5-12.9-175.1-24.9-262.8-35.9 33.3-93.6 98-154.9 209.3-139.3 129.4 18.6 110.4 123.7 110.4 123.6 45.3-45.8 81.6-95.4 98-140.6 0 0-14.7 12.5-28.2 10.4-125.6-19.6-251.3-37.2-377.3-52.9-16.4-2-32.7-4-49.1-6-16.1-1.9-32.1-3.8-48.2-5.7-0.2 1.9-0.5 3.9-0.7 5.8 5.7 0.7 11.2 2 16.2 4 17.3 6.7 21.4 27.9 7.9 39.6-29 25.2-76.4 87.8-87.2 184.1-39.1 364.2 181 519.5 392.5 567.5-227.6-76.1-294.3-267.8-268.4-480.6z"/>
	<path d="m2523.8 168.3c-17.3-0.8-34.6-1.7-51.9-2.4-0.1 2-0.2 3.9-0.3 5.9 28.7 1.3 51.1 20.2 50 42.2-2.5 51-5 102-7.5 153.1-76.2-3.7-152.3-6.7-228.6-9 1.5-51.1 3.1-102.1 4.6-153.2 0.6-22 24.4-39.1 53.1-38.1 0.1-2 0.1-3.9 0.2-5.9-17.3-0.6-34.6-1.1-52-1.7-40.2-1.2-80.4-2.2-120.5-3-17.3-0.3-34.7-0.7-52-0.9 0 2-0.1 3.9-0.1 5.9 28.7 0.4 51.6 18.7 51.2 40.7l-13.2 658.5c-0.5 22-22.7 39.3-49.6 38.9 0 2-0.1 3.9-0.1 5.9 16.3 0.3 32.5 0.5 48.8 0.9 37.7 0.8 75.4 1.7 113.1 2.8 16.3 0.5 32.5 1 48.8 1.6 0.1-2 0.1-3.9 0.2-5.9-26.9-0.9-48.2-19.4-47.6-41.3 4.5-150.8 9-301.7 13.5-452.5 75.9 2.3 151.7 5.3 227.6 9-7.4 150.7-14.8 301.5-22.2 452.2-1.1 22-23.8 38.7-50.7 37.5-0.1 2-0.2 3.9-0.3 5.9 16.3 0.7 32.5 1.5 48.8 2.3 37.7 1.8 75.4 3.9 113 6.1 16.2 1 32.5 1.9 48.7 3 0.1-2 0.2-3.9 0.4-5.9-26.9-1.7-47.7-20.8-46.4-42.7 12.9-219.2 25.8-438.3 38.7-657.5 1.3-21.9 25.5-38.4 54.2-36.6 0.1-2 0.2-3.9 0.4-5.9-17.3-1.1-34.6-2.1-51.9-3.2-40.1-2.6-80.3-4.8-120.4-6.7z"/>
	<path d="m3276.3 228.5c-17.2-1.9-34.5-3.8-51.8-5.6l-45.6-4.8c-17.3-1.8-34.5-3.5-51.8-5.2-0.2 1.9-0.4 3.9-0.6 5.8 28.6 2.8 49.9 22.9 47.7 44.8-6.9 67.2-13.9 134.5-20.8 201.7-43.3-121.2-145.8-233.6-334.8-294.9-0.3-0.2-114.8 109.5-114.5 109.7 17.5-0.2 32 2.1 43.6 6.8 17 6.4 20.8 16.1 19.9 29.6-13.3 189.8-26.5 379.7-39.8 569.5-1.5 21.9-24.6 38.2-51.5 36.4-0.1 2-0.3 3.9-0.4 5.9 16.2 1.1 32.5 2.2 48.7 3.3 14.3 1 28.6 2 42.9 3.1 16.2 1.2 32.5 2.4 48.7 3.7 0.2-1.9 0.3-3.9 0.5-5.8-26.9-2.1-47.4-21.5-45.8-43.4 14.2-192.6 28.4-385.3 42.5-577.9 81.7 5.5 204.1 98.7 265 229.6 61.8 131 62.3 299.6-80.2 457.3 89.9-53.7 157.7-137.6 178.8-333.5 14.1-132.1 28.2-264.1 42.4-396.2 2.3-21.8 27.4-37.1 56-33.9 0.5-2.1 0.7-4.1 0.9-6z"/>
	<path d="m1878.2 143c-55.4 0.2-121.2 15.9-181.7 36-103.6 34.3-191.7 81.4-191.7 81.4 1.1 1.8 2.1 3.6 3.2 5.3 37.1-16.1 54.1-3.1 54.5 9.8 5.9 195.8 11.8 391.7 17.7 587.5 0.6 22-20.7 40.4-47.6 41.3 0.1 2 0.1 3.9 0.2 5.9 16.3-0.6 32.5-1.1 48.8-1.6 37.7-1.1 75.4-2.1 113.1-2.8 16.3-0.3 32.5-0.6 48.8-0.9 0-2-0.1-3.9-0.1-5.9-26.9 0.4-49.1-16.9-49.6-38.9-3.5-174.6-7.1-349.2-10.6-523.8-0.2-44.8 14.6-81.2 40-109 25.4-27.7 62.5-41.9 110.9-42.3 73.7-0.5 123.1 70.9 123 70.9-27.6 39.7-54.9 79.5-82 119.3-50.1 30-99.7 60.4-149.1 91 77.2-24.7 155-48.7 233.1-71.9-0.5-0.3 150.5-133.5 158.1-140.9 0.4 0.4-80.4-110.9-239-110.4z"/>
	<path d="m1311.1 169.1c-106.8 5.4-213.6 12.2-320.4 20.4 0.1 1.9 0.3 3.9 0.4 5.9 16.4-1.3 31.4 3.5 41.6 11.8 10.4 8.6 10.8 23.8 1.4 33.5-84.9 83.8-236.6 578.3 139.2 758-201.5-210.8-178-756.4 140-783.7 2.5 49.1 4.9 98.1 7.4 147.2l0.3 5.7c-57.2 2.9-114.3 6.2-171.4 9.9-13.6 24.8-24.5 51.9-32.9 80.4 0 0 10.6-26.2 49.1-28.7 52.6-3.4 105.2-6.4 157.9-9 7.6 150.7 15.2 301.4 22.8 452.2 1.1 22-19.9 40.8-46.8 42.3 0.1 2 0.2 3.9 0.3 5.9 16.2-0.9 32.5-1.7 48.7-2.6 37.7-1.9 75.4-3.6 113.1-5.1 16.3-0.7 32.5-1.3 48.8-1.9-0.1-2-0.1-3.9-0.2-5.9-26.9 1-49.5-15.9-50.4-37.9l-18.3-452.4c-0.7-17.5-1.4-35.1-2.1-52.6-2.1-51-4.1-102.1-6.2-153.1-0.9-21.9 21.6-40.7 50.3-41.8-0.1-2-0.1-3.9-0.2-5.9-41.7 1.5-83.4 3.2-125.2 5.2-15.7 0.7-31.5 1.4-47.2 2.2z"/>
	<path d="m880.4 97.8c-45.6-40.3-252.5-117.4-452.6-93.2-203.5 23.9-392.5 149.3-427.8 200.3 0.3 1.9 0.6 3.9 0.9 5.8 37.3-5.9 71.1 12.4 75.5 40.6 37.6 246.1 75.2 492.3 112.7 738.4 4.3 28.4-7.8 39.6-42.7 45.1 0.4 2.5 0.8 5 1.2 7.6 92.9-14.6 185.8-28 278.9-40.3 0 0 44.4-25 114.8-65.6 255.2-147 365-442.3 352-617-4.5-57-24.9-119.6-56.9-198.4 11.3-9.4 26.9-15.9 44.5-17.4-0.1-2-0.3-3.9-0.5-5.9zm-153.8 294.7c-2.4 158.6-105.2 387.8-359.7 540.2-20.1 12-36.3-5.7-39.3-26.7-18-129.1-83.4-597.9-83.4-597.9-10.7-76-7.7-210.5 191.4-235.3 256.9-30.1 292.7 208.3 291 319.7z"/>

</svg>
