<?xml version="1.0" encoding="UTF-8"?>
<svg enable-background="new 0 0 3840 679.2" version="1.1" viewBox="0 0 3840 679.2" xml:space="preserve" xmlns="http://www.w3.org/2000/svg">
<style type="text/css">
	.st0{fill:#FDBC1A;}
	.st1{fill:none;}
	.st2{fill:#FFFFFF;}
	.st3{fill:#FFFFFF;stroke:#000000;stroke-width:9;stroke-miterlimit:10;}
</style>

	
		
			<path class="st2" d="m664.2 503.1v-13l10.9-7c31.3-20 50-53.9 50-90.7s-18.7-70.6-50-90.7l-10.9-7v-226.8c0-23.7-19.3-43.1-43-43.1h-493.6c-23.7 0-43.1 19.3-43.1 43.1v226.9l-10.9 7c-31.3 20-49.9 53.9-49.9 90.7s18.7 70.6 49.9 90.7l10.9 7v81.8l-22.2 1.4c-21.7 1.4-38.6 19.3-38.6 40.9 0 22.8 18.5 41.3 41.2 41.3h219.6c10.5-39.8 46.8-69.2 89.8-69.2s79.4 29.4 89.8 69.2h219.6c22.8 0 41.2-18.5 41.2-41.3 0-21.6-17-39.5-38.7-40.9l-22.2-1.4v-22.3l0.2-46.6z"/>
		
		
			
				
					<path d="m519.4 153.1c28.8 0 55.9 11.2 76.2 31.6 20.4 20.4 31.6 47.4 31.6 76.3s-11.2 55.9-31.6 76.2c-20.4 20.4-47.5 31.6-76.2 31.6s-55.9-11.2-76.2-31.6c-20.4-20.4-31.6-47.5-31.6-76.2s11.2-55.9 31.6-76.3c20.3-20.4 47.4-31.6 76.2-31.6m0-23.7c-72.6 0-131.5 58.9-131.5 131.5s58.9 131.5 131.5 131.5 131.6-58.9 131.6-131.5-58.9-131.5-131.6-131.5z"/>
				
			
			<circle cx="430.3" cy="260.9" r="31.8"/>
		
		
			
				
					<path d="m229.4 153.1c28.8 0 55.9 11.2 76.2 31.6 20.4 20.4 31.6 47.4 31.6 76.3s-11.2 55.9-31.6 76.2c-20.4 20.4-47.5 31.6-76.2 31.6s-55.9-11.2-76.2-31.6c-20.4-20.4-31.6-47.5-31.6-76.2s11.2-55.9 31.6-76.3c20.3-20.4 47.4-31.6 76.2-31.6m0-23.7c-72.6 0-131.5 58.9-131.5 131.5s58.9 131.5 131.5 131.5 131.5-58.9 131.5-131.5-58.9-131.5-131.5-131.5z"/>
				
			
			<circle cx="318.5" cy="260.9" r="31.8"/>
		
		<path d="m621.2 24.8c23.7 0 43 19.3 43 43.1v226.9l10.9 7c31.3 20 50 53.9 50 90.7s-18.7 70.6-50 90.7l-10.9 7v81.8l22.2 1.4c21.7 1.4 38.7 19.3 38.7 40.9 0 22.8-18.5 41.3-41.2 41.3h-219.7c-10.5-39.8-46.8-69.2-89.8-69.2s-79.4 29.4-89.8 69.2h-219.7c-22.8 0-41.2-18.5-41.2-41.3 0-21.6 17-39.5 38.6-40.9l22.2-1.4v-82l-10.9-7c-31.3-20-49.9-53.9-49.9-90.7s18.7-70.6 49.9-90.7l10.9-7v-226.7c0-23.7 19.3-43.1 43.1-43.1h493.6m0-23.7h-493.6c-36.9 0-66.8 29.9-66.8 66.8v213.9c-36.4 23.4-60.8 64.1-60.8 110.6 0 46.6 24.4 87.3 60.9 110.6v46.7c-34 2.2-60.9 30.1-60.9 64.6 0 35.9 29.1 65 64.9 65h240.2c0-38.2 31-69.2 69.2-69.2s69.2 31 69.2 69.2h240.2c35.9 0 64.9-29.1 64.9-65 0-34.5-26.9-62.4-60.9-64.5v-46.7c36.5-23.4 60.9-64 60.9-110.6s-24.3-87.3-60.9-110.6v-214c0.2-36.9-29.7-66.8-66.5-66.8z"/>
	
	
		<path d="m1028.2 222.1h-200.5v457.1h200.6c38.1 0 69-30.9 69-69v-319.1c-0.1-38.1-31-69-69.1-69zm45.4 388.1c0 25-20.3 45.3-45.3 45.3h-177v-409.8h176.9c25 0 45.3 20.3 45.3 45.3v319.2z"/>
		<path d="m1515.3 452.6-116-77.7v-30.7c0-7.2 6.4-12.9 13.8-11.6 5.8 1 9.8 6.4 9.8 12.3v25.1l123 82.6v-161.6c0-38.1-30.9-69-69-69h-131.6c-38.1 0-69 30.9-69 69v100.3c0 23 11.5 44.5 30.6 57.3l116 77.7v30.7c0 7.2-6.4 12.8-13.8 11.6-5.8-0.9-9.8-6.4-9.8-12.3v-25.1l-123-82.6v161.6c0 38.1 30.9 69 69 69h131.6c38.1 0 69-30.9 69-69v-89.7 22.1-32.6c0-23.1-11.5-44.6-30.6-57.4zm6.9 67.9v89.7c0 25-20.3 45.3-45.3 45.3h-131.6c-25 0-45.3-20.3-45.3-45.3v-117.1l75.7 50.8v12.6c0 17.8 12.5 32.8 29.7 35.6 1.9 0.3 3.8 0.5 5.8 0.5 8.4 0 16.5-3 23-8.4 7.9-6.8 12.5-16.6 12.5-27v-43.3l-10.5-7-116-77.7c-12.6-8.4-20.1-22.5-20.1-37.7v-100.4c0-25 20.3-45.3 45.3-45.3h131.6c25 0 45.3 20.3 45.3 45.3v117.2l-75.7-50.8v-12.6c0-17.9-12.5-32.8-29.7-35.6-1.9-0.3-3.8-0.5-5.8-0.5-8.4 0-16.5 3-23 8.4-7.9 6.8-12.5 16.6-12.5 27v43.3l10.5 7 116 77.7c12.6 8.4 20.1 22.5 20.1 37.7v10.6z"/>
		<path d="m2864.4 452.6-116-77.7v-30.7c0-7.2 6.4-12.9 13.8-11.6 5.8 1 9.8 6.4 9.8 12.3v25.1l123 82.6v-161.6c0-38.1-30.9-69-69-69h-131.6c-38.1 0-69 30.9-69 69v100.3c0 23 11.5 44.5 30.6 57.3l116 77.7v30.7c0 7.2-6.4 12.8-13.8 11.6-5.8-0.9-9.8-6.4-9.8-12.3v-25.1l-123-82.6v161.6c0 38.1 30.9 69 69 69h131.6c38.1 0 69-30.9 69-69v-89.7 22.1-32.6c-0.1-23.1-11.5-44.6-30.6-57.4zm6.9 67.9v89.7c0 25-20.3 45.3-45.3 45.3h-131.6c-25 0-45.3-20.3-45.3-45.3v-117.1l75.7 50.8v12.6c0 17.8 12.5 32.8 29.7 35.6 1.9 0.3 3.9 0.5 5.8 0.5 8.4 0 16.5-3 23-8.4 7.9-6.8 12.5-16.6 12.5-27v-43.3l-10.5-7-116-77.7c-12.6-8.4-20.1-22.5-20.1-37.7v-100.4c0-25 20.3-45.3 45.3-45.3h131.6c25 0 45.3 20.3 45.3 45.3v117.2l-75.6-50.8v-12.6c0-17.9-12.5-32.8-29.7-35.6-1.9-0.3-3.9-0.5-5.8-0.5-8.4 0-16.5 3-23 8.4-7.9 6.8-12.5 16.6-12.5 27v43.3l10.5 7 116 77.7c12.6 8.4 20.1 22.5 20.1 37.7l-0.1 10.6z"/>
		<path d="m2278 452.6-116-77.7v-30.7c0-7.2 6.4-12.9 13.8-11.6 5.8 1 9.8 6.4 9.8 12.3v25.1l123 82.6v-161.6c0-38.1-30.9-69-69-69h-131.6c-38.1 0-69 30.9-69 69v100.3c0 23 11.5 44.5 30.6 57.3l116 77.7v30.7c0 7.2-6.4 12.8-13.8 11.6-5.8-0.9-9.8-6.4-9.8-12.3v-25.1l-123-82.6v161.6c0 38.1 30.9 69 69 69h131.6c38.1 0 69-30.9 69-69v-89.7 22.1-32.6c0-23.1-11.5-44.6-30.6-57.4zm7 67.9v89.7c0 25-20.3 45.3-45.3 45.3h-131.7c-25 0-45.3-20.3-45.3-45.3v-117.1l75.7 50.8v12.6c0 17.8 12.5 32.8 29.7 35.6 1.9 0.3 3.9 0.5 5.8 0.5 8.4 0 16.5-3 23-8.4 7.9-6.8 12.5-16.6 12.5-27v-43.3l-10.5-7-116-77.7c-12.6-8.4-20.1-22.5-20.1-37.7v-100.4c0-25 20.3-45.3 45.3-45.3h131.6c25 0 45.3 20.3 45.3 45.3v117.2l-75.6-50.8v-12.6c0-17.9-12.5-32.8-29.7-35.6-1.9-0.3-3.9-0.5-5.8-0.5-8.4 0-16.5 3-23 8.4-7.9 6.8-12.5 16.6-12.5 27v43.3l10.5 7 116 77.7c12.6 8.4 20.1 22.5 20.1 37.7v10.6z"/>
		<path d="m1128.2 222.1v457.1h123v-457.1h-123zm99.4 433.5h-75.7v-409.9h75.7v409.9z"/>
		<path d="m3098.8 222.1h-182.9v110.5h59.9v346.6h123v-346.6h59.9v-110.5h-59.9zm36.1 86.8h-59.9v346.7h-75.7v-346.7h-59.9v-63.2h195.4l0.1 63.2z"/>
		<path d="m959.5 308.9h-32.5v283.6h32.5c21.2 0 38.4-17.2 38.4-38.4v-206.8c0-21.1-17.2-38.4-38.4-38.4zm14.8 245.2c0 8.2-6.6 14.8-14.8 14.8h-8.8v-236.3h8.8c8.2 0 14.8 6.6 14.8 14.8v206.7z"/>
		<path d="m1835.7 222.1h-123v119.3l-23.6 23.6v-142.9h-123v457.1h123v-142.9l23.6 23.6v119.3h123v-170.3l-58.2-58.2 58.2-58.2v-170.4zm-23.6 160.5-68 68 68 68v136.9h-75.7v-105.4l-70.9-70.9v176.3h-75.7v-409.8h75.7v176.3l70.9-70.9v-105.4h75.7v136.9z"/>
		<path d="m2477.5 222.1v200.2h-23.6v-200.2h-123v164.7 66.3 23.1c0 38.1 30.9 69 69 69h77.6v23.6h-123v110.3h176.9c38.1 0 69-30.9 69-69v-388h-122.9zm99.3 388.1c0 25-20.3 45.3-45.3 45.3h-153.3v-63h123v-71h-101.3c-25 0-45.3-20.3-45.3-45.3v-23.1-66.3-141.1h75.7v200.3h71v-200.3h75.7l-0.2 364.5z"/>
		<path d="m3301.9 332.6h90.2v-110.5h-213.1v457.1h213.1v-110.3h-90.2v-63h90.2v-110.5h-90.2v-62.8zm66.5 86.5v63.2h-90.2v110.3h90.2v63h-165.8v-409.9h165.8v63.2h-90.2v110.2h90.2z"/>
		<path d="m3771 222.1h-93.9c-17.4 0-33.2 6.5-45.4 17.1-12.1-10.6-28-17.1-45.4-17.1h-162.9v457.1h123v-334.7c0-6.6 5.3-11.9 11.9-11.9s11.9 5.3 11.9 11.9v334.8h123v-334.9c0-6.6 5.3-11.9 11.9-11.9s11.9 5.3 11.9 11.9v334.8h123v-388.1c0-38.1-30.9-69-69-69zm45.3 433.5h-75.7v-309.9c0-18.1-12.9-34.2-30.9-36.5-21.7-2.8-40.2 14.1-40.2 35.2v311.1h-75.5v-309.8c0-18.1-12.9-34.2-30.9-36.5-21.7-2.8-40.2 14.1-40.2 35.2v311.1h-75.7v-409.8h139.2c11.7 0 22.4 4.5 30.4 11.8 6.8 6.2 11.8 22.3 13.9 29.9 0.3 1.1 1.8 1.1 2.1 0 2.1-7.6 7-23.6 13.8-29.9 8.1-7.3 18.7-11.8 30.4-11.8h93.9c25 0 45.3 20.3 45.3 45.3v364.6z"/>
	
	
		<path class="st2" d="m2825.9 655.6c25 0 45.3-20.3 45.3-45.3v-100.2c0-15.1-7.5-29.2-20.1-37.7l-116-77.7-10.5-7v-43.3c0-10.4 4.6-20.3 12.5-27 6.5-5.5 14.6-8.4 23-8.4 1.9 0 3.8 0.1 5.8 0.5 17.2 2.8 29.7 17.8 29.7 35.6v12.6l75.6 50.8v-117.2c0-25-20.3-45.3-45.3-45.3h-131.6c-25 0-45.3 20.3-45.3 45.3v100.3c0 15.1 7.5 29.2 20.1 37.7l116 77.7 10.5 7v43.3c0 10.4-4.6 20.3-12.5 27-6.5 5.5-14.6 8.4-23 8.4-1.9 0-3.8-0.2-5.8-0.5-17.2-2.8-29.7-17.8-29.7-35.6v-12.6l-75.7-50.8v117.2c0 25 20.3 45.3 45.3 45.3l131.7-0.1z"/>
		<path class="st2" d="m2239.6 655.6c25 0 45.3-20.3 45.3-45.3v-100.2c0-15.1-7.5-29.2-20.1-37.7l-116-77.7-10.5-7v-43.3c0-10.4 4.6-20.3 12.5-27 6.5-5.5 14.6-8.4 23-8.4 1.9 0 3.8 0.1 5.8 0.5 17.2 2.8 29.7 17.8 29.7 35.6v12.6l75.6 50.8v-117.2c0-25-20.3-45.3-45.3-45.3h-131.6c-25 0-45.3 20.3-45.3 45.3v100.3c0 15.1 7.5 29.2 20.1 37.7l116 77.7 10.5 7v43.3c0 10.4-4.6 20.3-12.5 27-6.5 5.5-14.6 8.4-23 8.4-1.9 0-3.8-0.2-5.8-0.5-17.2-2.8-29.7-17.8-29.7-35.6v-12.6l-75.7-50.8v117.2c0 25 20.3 45.3 45.3 45.3l131.7-0.1z"/>
		<path class="st2" d="m2576.8 610.2v-364.5h-75.7v200.3h-71v-200.3h-75.7v141.1 66.3 23.1c0 25 20.3 45.3 45.3 45.3h101.3v71h-123v63h153.3c25.2 0.1 45.5-20.3 45.5-45.3z"/>
		<polygon class="st2" points="1736.4 655.6 1812.1 655.6 1812.1 518.7 1744.1 450.7 1812.1 382.6 1812.1 245.7 1736.4 245.7 1736.4 351.1 1665.5 422.1 1665.5 245.7 1589.8 245.7 1589.8 655.6 1665.5 655.6 1665.5 479.2 1736.4 550.2"/>
		<rect class="st2" x="1151.9" y="245.7" width="75.7" height="409.8"/>
		<path class="st2" d="m1476.8 655.6c25 0 45.3-20.3 45.3-45.3v-100.2c0-15.1-7.5-29.2-20.1-37.7l-116-77.7-10.5-7v-43.3c0-10.4 4.6-20.3 12.5-27 6.5-5.5 14.6-8.4 23-8.4 1.9 0 3.8 0.1 5.8 0.5 17.2 2.8 29.7 17.8 29.7 35.6v12.6l75.7 50.8v-117.2c0-25-20.3-45.3-45.3-45.3h-131.6c-25 0-45.3 20.3-45.3 45.3v100.3c0 15.1 7.5 29.2 20.1 37.7l116 77.7 10.5 7v43.3c0 10.4-4.6 20.3-12.5 27-6.5 5.5-14.6 8.4-23 8.4-1.9 0-3.8-0.2-5.8-0.5-17.2-2.8-29.7-17.8-29.7-35.6v-12.6l-75.7-50.8v117.2c0 25 20.3 45.3 45.3 45.3l131.6-0.1z"/>
		<path class="st2" d="m1073.6 610.2v-319.1c0-25-20.3-45.3-45.3-45.3h-177v409.8h176.9c25 0 45.4-20.4 45.4-45.4zm-75.7-56.1c0 21.2-17.2 38.4-38.4 38.4h-32.5v-283.6h32.5c21.2 0 38.4 17.2 38.4 38.4v206.8z"/>
		<path class="st2" d="m3740.7 345.7v309.9h75.7v-364.5c0-25-20.3-45.3-45.3-45.3h-93.9c-11.7 0-22.4 4.5-30.4 11.8-6.9 6.2-11.8 22.2-13.8 29.9-0.3 1.1-1.8 1.1-2.1 0-2.1-7.6-7.1-23.7-13.9-29.9-8.1-7.3-18.7-11.8-30.4-11.8h-139.2v409.8h75.7v-311.2c0-21.1 18.5-38 40.2-35.2 17.9 2.3 30.9 18.4 30.9 36.5v309.9h75.7v-311.2c0-21.1 18.5-38 40.2-35.2 17.6 2.3 30.6 18.4 30.6 36.5z"/>
		<polygon class="st2" points="2999.4 655.6 3075.1 655.6 3075.1 308.9 3134.9 308.9 3134.9 245.7 2939.6 245.7 2939.6 308.9 2999.4 308.9"/>
		<polygon class="st2" points="3368.4 592.5 3278.2 592.5 3278.2 482.2 3368.4 482.2 3368.4 419.1 3278.2 419.1 3278.2 308.9 3368.4 308.9 3368.4 245.7 3202.6 245.7 3202.6 655.6 3368.4 655.6"/>
	
	
		<path d="m1441.4 84.4c-0.4 46.1 36.6 83.9 82.8 84.4 30.9-0.1 59.1-17.6 73.1-45.1l0.3-0.7h-36.4c-9.9 9.8-23.1 15.3-37 15.4-29.8-0.8-53.4-25.6-52.6-55.4 0.8-28.7 23.9-51.9 52.6-52.6 13.7 0 26.9 5.5 36.6 15.2l36.8 0.1-0.3-0.7c-14-27.5-42.2-44.9-73.1-45-46.1 0.5-83.1 38.2-82.8 84.4zm157.9 0.4c0.9 45.7 38.7 82 84.4 81.1s82-38.7 81.1-84.4c-0.9-45.1-37.7-81.1-82.7-81.2-46.2 0.6-83.2 38.4-82.8 84.5zm29.8 0c0.6-29.2 24.8-52.4 54-51.8s52.4 24.8 51.8 54c-0.6 28.8-24.1 51.8-52.9 51.8-29.5-0.3-53.1-24.5-52.9-54zm732.1-83.7h-83.4v166.2h83.8v-32h-52.4v-33.3h52.4v-32h-52.4v-37h52.4v-32l-0.4 0.1zm-1340.8 0h-24.7l-114.5 166.3h35.5s17.7-25.8 17.9-26.1h56.1v26.1h30.2v-166.3h-0.5zm-63.5 107.5 33.8-49.4v52.3h-35.7c0.6-0.9 1.9-2.9 1.9-2.9zm987-107.5h-35s-48.8 112.8-49.6 114.6c-0.8-1.8-49.8-114.6-49.8-114.6h-35.3v166.3h31.3v-82.8c0.5-0.1 3-0.7 3.5-0.8l36.3 83.6h27.9s36-82.8 36.2-83.5c0.5 0.1 3 0.7 3.5 0.8v82.7h31.3v-166.3h-0.3zm230 0h-31v112.2c0.2 11.9-9.4 21.7-21.2 21.9s-21.7-9.3-21.9-21.2v-0.6-112.3h-31.4v112.2c-0.5 29.3 22.8 53.3 52.1 53.8s53.3-22.8 53.8-52.1v-1.7-112.1l-0.4-0.1zm197.7 0.1h-0.5v166.8h31.4v-87.8c1.6 2.6 51.8 87.2 51.8 87.2h35.3s-35.4-59.7-35.9-60.6c0.7-0.2 2.1-0.8 2.1-0.8 28-10.5 42.2-41.7 31.8-69.7-7.7-20.6-27.1-34.5-49.1-35.2l-66.9 0.1zm66.9 31.9c11.9 0.4 21.2 10.2 21.1 22.1 0.2 11.9-9.2 21.7-21.1 22h-36v-44h36v-0.1zm-484.1-31.9h-0.4v166.2h31.4v-59.2h22.4c29.6-0.6 53.1-25 52.5-54.5-0.5-28.8-23.7-52-52.5-52.5h-53.4zm53.3 31.9c11.9 0.2 21.4 10.1 21.2 22-0.2 11.6-9.6 20.9-21.2 21.1h-22.4v-43.1h22.4zm260.8-31.9h-85.2v31.9h27.1v134.3h31.4v-134.3h27.2v-31.9h-0.5zm-845.5 0h-32.5s-33.4 65-34.1 66.6c-0.8-1.5-34.1-66.6-34.1-66.6h-33.2l51.6 102.2-0.1 64.1h31.5l0.1-64.2c0.1 0 51.2-101.3 51.2-101.3l0.3-0.7-0.7-0.1zm-142.5 0h-30.9v166.2h73.8v-32h-42.4v-134.2h-0.5zm-40.9 0h-29.4v166.2h29.8v-166.2h-0.4zm-39.4 0h-35s-48.8 112.7-49.6 114.5l-49.8-114.5h-35.3v166.2h31.3v-82.8c0.5-0.1 3-0.7 3.5-0.8 0.3 0.7 36.3 83.5 36.3 83.5h27.9l36.3-83.5c0.5 0.1 3 0.7 3.5 0.8v82.7h31.3v-166.1h-0.4zm-282 0h-85.7v166.2h31.9v-65.5h54.2v-31.8h-54.2v-38.3h54.2v-30.6h-0.4z"/>
	

</svg>
