<?xml version="1.0" encoding="UTF-8"?>
<svg enable-background="new 0 0 3840 1672.1" version="1.1" viewBox="0 0 3840 1672.1" xml:space="preserve" xmlns="http://www.w3.org/2000/svg">
<style type="text/css">
	.st0{fill:#FFFFFF;}
</style>

	
		<g transform="translate(-398.57 -700.48)">
			<g transform="matrix(4.2524 0 0 -4.2524 426.91 839.41)">
				<path d="m285.2-64.3h17.7c3.4 0 6.5-2.5 6.7-5.7h0.2v13.4h-24.6v23.5h23.7c3.4 0 6.5-2.4 6.7-5.7h0.2v13.4h-49.7v-0.1c3.3-0.2 5.9-3.7 5.9-7v-61.4c0-3.3-2.5-6.9-5.9-7v-0.1h25.1v0.1c-3.4 0.2-5.9 3.7-5.9 7l-0.1 29.6z"/>
			</g>
			<g transform="matrix(4.2524 0 0 -4.2524 499.93 863.1)">
				<path d="m319.4-75.3c0-7.9 6.6-14.7 14.7-14.7s14.7 6.9 14.7 14.8v48.2c0 3.3-2.5 6.9-5.9 7v0.1h25.1v-0.2c-3.4-0.2-5.9-3.7-5.9-7v-46.8c0-15.1-12.5-23.8-28-23.8s-28.1 8.8-28.1 23.8v46.8c0 3.3-2.5 6.9-5.9 7v0.2h25.1v-0.2c-3.3-0.2-5.9-3.7-5.9-7l0.1-48.2z"/>
			</g>
			<g transform="matrix(4.2524 0 0 -4.2524 791.72 801.68)">
				<path d="m455.8-46.6c-4.2 6.8-13.8 6-13.8 6-15.7 0-15-11.9-15-11.9s-1.1-6 6.8-10.1l15.7-8.3c15.1-8.1 13.4-19.6 13.4-19.6s0.7-21.5-31-21.5c0 0-9.2-0.3-14.4 1.7l-4.5 13.8h0.2c4.8-6.9 18.8-7.9 18.8-7.9 17.8 0.8 17.9 12.8 17.9 12.8s0.8 5.2-6.2 9l-15.6 8.3c-16.2 8.6-14.4 20.3-14.4 20.3s-0.4 21.2 27.6 21.2c0 0 12.6-0.3 14.6-2.3v-11.5h-0.1z"/>
			</g>
			<g transform="matrix(4.2524 0 0 -4.2524 617.71 746.69)">
				<path d="m374.4-20.9c2.8-2.7 6.7-4.4 10.9-4.4 8.5 0 15.4 6.7 15.4 15s-6.9 15-15.4 15c0 0-11.9 1.1-17.2-13.7v11.1c4 5.1 10.1 8.7 17.2 8.7 12 0 21.8-9.5 21.8-21.2s-9.7-21.2-21.8-21.2c-6 0-11.5 2.4-15.4 6.2l-7.5 8.2c-2.1 2-4.9 3.2-8 3.2-6.2 0-11.3-4.9-11.3-11s5.1-11 11.3-11c0 0 8.3-1.1 13.6 9v-8.9c-3.2-3.8-8.2-6.2-13.6-6.2-9.7 0-17.6 7.7-17.6 17.2s7.9 17.1 17.6 17.1c4.9 0 9.3-1.9 12.5-5l7.5-8.1z"/>
			</g>
			<g transform="matrix(4.2524 0 0 -4.2524 623.42 794.23)">
				<path d="m377.1-43.1c0 3.3-2.5 6.7-5.9 6.9v0.1h25v-0.1c-3.3-0.2-5.9-3.6-5.9-6.9v-61.6c0-3.3 2.5-6.9 5.9-7.1v-0.1h-25v0.1c3.3 0.2 5.9 3.8 5.9 7.1v61.6z"/>
			</g>
			<g transform="matrix(4.2524 0 0 -4.2524 601.05 794.46)">
				<path d="m366.6-43.2c0 3.3 2.5 6.9 5.9 7v0.1h-25.1v-0.1c3.4-0.2 5.9-3.7 5.9-7v-77s-0.3-13.6-11.2-21.4v-0.1c2.2 0.4 24.6 4.5 24.6 26.1l-0.1 72.4z"/>
			</g>
			<g transform="matrix(4.2524 0 0 -4.2524 650.57 803.65)">
				<path d="m389.8-47.5h0.1c3.4 5.9 8.6 6 8.6 6h13.6v-61c0-3.3-2.5-6.8-5.9-7v-0.1h25.1v0.1c-3.4 0.2-5.9 3.8-5.9 7v61h11.3c3.4 0 6.2-2.7 6.3-6h0.1l4.2 13.7h-53.3l-4.2-13.7z"/>
			</g>
			<g transform="matrix(4.2524 0 0 -4.2524 828.41 863.1)">
				<path d="m473-75.3c0-7.9 6.6-14.7 14.7-14.7s14.7 6.9 14.7 14.8v48.2c0 3.3-2.5 6.9-5.9 7v0.1h25.1v-0.2c-3.3-0.2-5.9-3.7-5.9-7v-46.8c0-15.1-12.5-23.8-28-23.8s-28.1 8.8-28.1 23.8v46.8c0 3.3-2.5 6.9-5.9 7v0.2h25.1v-0.2c-3.4-0.2-5.9-3.7-5.9-7l0.1-48.2z"/>
			</g>
		</g>
	
	<rect x="2174.7" y="1131.7" width="397.1" height="152.7"/>
	
		<path d="m3397.3 1609.5h-276.8s2.3-408.7 300.2-588.5c4.1-2.5 278.8-0.6 276.8 0-299.9 82.4-300.2 588.5-300.2 588.5z"/>
		<path d="m3697.5 825.2h-848v306.5h152.7v-40.8c0-38.6 31.3-69.9 69.9-69.9h625.5v-195.8z"/>
	
	<path d="m3808.5 794v846.7h-1070.1v-846.7h1070.1m31.5-31.5h-1133v909.7h1133.1v-909.7h-0.1z"/>
	
		
			<rect x="88.7" y="977.4" width="242.9" height="523.1"/>
			<rect x="1758.6" y="948.4" width="242.9" height="575.1"/>
			<polygon points="1595.6 1397.9 1426.5 1609.5 1092.9 897.2 1327.1 824.5"/>
			<rect x="210.1" y="1158.5" width="397.5" height="152.8"/>
			<rect transform="matrix(-1.837e-16 1 -1 -1.837e-16 2350.4 72.536)" x="850" y="1135" width="577.9" height="152.8"/>
			<rect y="824.5" width="905" height="152.8"/>
			<polygon points="973.8 977.4 1259.9 977.4 1327.1 824.5 973.8 824.5"/>
			<rect x="1758.6" y="824.5" width="331.6" height="152.8"/>
			<rect y="1456.6" width="420.2" height="152.8"/>
			<rect x="1669.9" y="1456.6" width="420.2" height="152.8"/>
			<rect x="973.8" y="1456.6" width="330.2" height="152.8"/>
			<rect x="709" y="884.2" width="196" height="247"/>
			<polygon points="1739.4 824.5 1408.9 1490.8 1520.7 1609.5 1910 824.5"/>
			<rect x="1426.5" y="1475.6" width="94.1" height="133.9"/>
		
	

</svg>
