<?xml version="1.0" encoding="UTF-8"?>
<svg enable-background="new 0 0 3839 2772.2" version="1.1" viewBox="0 0 3839 2772.2" xml:space="preserve" xmlns="http://www.w3.org/2000/svg">
<style type="text/css">
	.st0{fill:#04D300;}
	.st1{fill:#00AD14;}
	.st2{fill:#FFFFFF;}
</style>

	
		<path d="m113.2 2772.2c-89.8 0-112.4-24.2-113.2-63.2 0-13.3 2.3-24.2 5.5-37.5l16.4-71.8h22.6c0 16.4 26.6 32 67.9 32h60.9c81.2 0 89-43.7 94.5-68.7l9.4-43-1.6-1.6-22.6 30.5c-21.1 28.1-39 39-106.2 39-47.6 0-103.9-1.6-103.9-72.6 0-49.2 46.9-235.8 92.9-272.5 30.5-24.2 78.1-35.9 157.8-35.9h172.6c40.6 0 67.9 14.8 67.9 52.3 0 11.7-1.6 30.5-3.9 39.8l-63.2 265.5c-29.7 123.4-48.4 207.7-216.3 207.7h-137.5zm145.3-338.9c-1.6 3.9-1.6 7.8-1.6 11.7 0 10.9 6.2 18 21.1 18h13.3l33.6-139h-16.4c-20.3 0-25.8 12.5-31.2 34.4l-18.8 74.9z"/>
		<path d="m592 2664.5c-53.9 0-86.7-28.1-86.7-78.1 0-28.1 18.7-142.1 63.3-182 19.5-18 38.3-35.9 117.9-35.9h73.4c23.4 0 38.3-4.7 38.3-23.4 0-17.2-10.2-21.1-31.2-21.1h-92.2c-26.6 0-47.6-1.6-47.6-36.7 0-5.5 0.8-13.3 1.6-17.2l14.1-63.3h256.9c97.6 0 100 53.9 100 81.2 0 14.8-2.3 33.6-5.5 46.9l-57.8 239.7c-2.3 10.2-6.2 28.1-6.2 39 0 13.3 7.8 20.3 24.2 20.3l-5.5 23.4h-169.6c-32.8 0-46.1-15.6-46.1-33.6 0-7.8 3.9-18 6.2-26.6l-1.6-1.6-33.6 36.7c-20.3 21.9-41.4 32-75 32h-37.3zm181.1-221.1h-21.9c-15.6 0-22.6 7-27.3 24.2-4.7 14.8-10.9 46.9-10.9 57 0 10.9 7 18 21.1 18h18l21-99.2z"/>
		<path d="m1158.9 2664.5c-89 0-171.8-6.2-171.8-93.7 0-6.2 28.9-264.7 113.2-332.7 48.4-38.3 153.1-38.3 163.2-38.3h60.1c91.4 0 142.1 23.4 142.1 101.5 0 33.6-14.1 107.8-33.6 128.1-22.6 25-29.7 25-113.2 25h-110.1l-4.7 19.5c-1.6 7.8-3.1 8.6-3.1 16.4 0 24.2 25 33.6 64 33.6h46.1c67.9 0 71.1-8.6 87.5-29.7h21.1l-20.3 91.4c-16.4 73.4-55.4 78.9-134.3 78.9h-106.2zm68.7-288.2h46.1c2.3-11.7 7.8-27.3 7.8-40.6 0-10.2-7.8-18.7-21.1-18.7-12.5 0-20.3 7-25.8 29.7l-7 29.6z"/>
		<path d="m1468.9 2657.4c-37.5 0-39-24.2-39-32.8 0-9.4 4.7-29.7 7.8-43l96.1-414.7c2.3-9.4 6.2-28.1 6.2-39 0-13.3-7.8-20.3-24.2-20.3l5.5-23.4h183.5c37.5 0 39 24.2 39 32.8 0 9.4-4.7 29.7-7.8 43l-96.1 414.7c-2.3 9.4-6.2 28.1-6.2 39 0 13.3 7.8 20.3 24.2 20.3l-5.5 23.4h-183.5z"/>
		<path d="m2032.8 2591.8c-11.7 50.8-35.9 72.6-114.8 72.6h-93.7c-87.5 0-136.7-15.6-136.7-91.4 0-14.8 37.5-271 101.5-328 27.3-25 44.5-38.3 139.8-38.3h171l-18 77.3c-9.4 40.6-28.1 47.6-56.2 47.6h-37.5c-38.3 0-57 11.7-66.4 53.9l-17.2 77.3c-2.3 10.9-3.1 14.8-3.1 21.9 0 29.7 20.3 39 47.6 39h32c35.1 0 43-14.8 50.8-28.1h23.4l-22.5 96.2z"/>
		<path d="m2220.2 2664.5c-97.6 0-157-7-157-87.5 0-39 46.1-279.6 101.5-331.9 32.8-30.5 68.7-45.3 139.8-45.3h110.1c95.3 0 145.3 12.5 145.3 82 0 39.8-33.6 265.5-104.6 338.1-27.3 28.1-61.7 44.5-151.5 44.5h-83.6zm54.7-168c-1.6 7.8-3.9 18-3.9 26.6 0 9.4 8.6 16.4 18 16.4 18 0 22.6-13.3 28.9-42.2l32-143.7c1.6-7 2.3-11.7 2.3-17.2 0-10.2-7.8-19.5-18-19.5-14.8 0-21.1 8.6-27.3 36.7l-32 142.9z"/>
	
	<path d="m2839.3 0c1501.2 462.8 1198.8 2442.5-157.6 2643.2l157.6-1536c-193.3 691-1290.4 707.5-1317.9-232.8-64.2 302.4 162 949.8 736.9 1068.6 171 35.3 384.5 53 614.1-31.2 272.6-100 590.5-400 634.2-747.9 44.2-352 5.4-876.1-667.3-1163.9z"/>

</svg>
