<?xml version="1.0" encoding="UTF-8"?>
<svg enable-background="new 0 0 3840 715" version="1.1" viewBox="0 0 3840 715" xml:space="preserve" xmlns="http://www.w3.org/2000/svg">
<style type="text/css">
	.st0{fill:#E7362E;}
	.st1{fill:#FFFFFF;}
</style>

	
		
			<rect transform="matrix(-1.837e-16 1 -1 -1.837e-16 770.86 183.11)" x="240.4" y="363.8" width="106.9" height="226.4"/>
		
			<rect x="671.4" y="398.3" width="106.9" height="310.1"/>
			<path d="m778.3 398.3h-106.9c0-46.5-69.7-46.5-69.7 0h-106.9c-0.1-189 283.5-189 283.5 0z"/>
			<rect x="494.7" y="398.3" width="106.9" height="310.1"/>
			
				<rect transform="matrix(-1.837e-16 1 -1 -1.837e-16 1169.2 -108.34)" x="585.3" y="400.4" width="106.9" height="260.1"/>
		
		
			<rect x="2990.3" y="327.4" width="106.9" height="381"/>
			
				<rect transform="matrix(-1.837e-16 1 -1 -1.837e-16 3353.7 -2733.7)" x="2990.3" y="187.7" width="106.9" height="244.6"/>
		
		
			<rect x="2417.1" y="398.3" width="106.9" height="310.1"/>
			<path d="m2524 398.3h-106.9c0-46.5-69.7-46.5-69.7 0h-106.9c0-189 283.5-189 283.5 0z"/>
			<rect x="2240.5" y="398.3" width="106.9" height="310.1"/>
			
				<rect transform="matrix(-1.837e-16 1 -1 -1.837e-16 2915 -1854.1)" x="2331.1" y="400.4" width="106.9" height="260.1"/>
		
		
			<rect x="1008.1" y="393.7" width="106.9" height="314.7"/>
			<rect x="831.5" y="393.7" width="106.9" height="314.7"/>
			<path d="m1061.6 398.3h-53.5c0-46.5-69.7-46.5-69.7 0h-106.9c0-189 230.1-189 230.1 0z"/>
			<path d="m1291.7 398.3h-106.9c0-46.5-69.7-46.5-69.7 0h-53.5c0-189 230.1-189 230.1 0z"/>
			<rect x="1184.8" y="393.7" width="106.9" height="314.7"/>
		
		
			<rect x="1903.7" y="393.7" width="106.9" height="314.7"/>
			<rect x="1727" y="393.7" width="106.9" height="314.7"/>
			<path d="m1957.2 398.3h-53.5c0-46.5-69.7-46.5-69.7 0h-106.9c-0.1-189 230.1-189 230.1 0z"/>
			<path d="m2187.3 398.3h-106.9c0-46.5-69.7-46.5-69.7 0h-53.5c0-189 230.1-189 230.1 0z"/>
			<rect x="2080.3" y="393.7" width="106.9" height="314.7"/>
		
		
			
				<rect transform="matrix(-1.837e-16 1 -1 -1.837e-16 1955.2 -990.24)" x="1419.3" y="386.1" width="106.9" height="192.8"/>
			
				
					<rect transform="matrix(-1.837e-16 1 -1 -1.837e-16 1782.7 -1162.7)" x="1419.3" y="213.6" width="106.9" height="192.8"/>
				<path d="M1451.8,601.5v-345h-106.9v365.7c0,47.6,38.6,86.2,86.2,86.2h138V601.5H1451.8z"/>
			
		
		
			
				
					<rect transform="matrix(-1.837e-16 1 -1 -1.837e-16 3816.9 -2852)" x="3281" y="386.1" width="106.9" height="192.8"/>
				
					
						<rect transform="matrix(-1.837e-16 1 -1 -1.837e-16 3644.5 -3024.5)" x="3281" y="213.6" width="106.9" height="192.8"/>
					<path d="M3313.6,601.5v-345h-106.9v365.7c0,47.6,38.6,86.2,86.2,86.2h138V601.5H3313.6z"/>
				
			
			
				<rect x="3484.1" y="413" width="106.9" height="295.4"/>
				<polygon points="3697.6 511.6 3675 534.3 3591 468.5 3622.1 587.2 3749.9 715 3825.5 639.4"/>
				<path d="m3662 235c-98.3 0-178 79.7-178 178 0 73 44 135.7 106.9 163.1v-107.6l30.8 117.7c13 3 26.4 4.7 40.2 4.7 98.3 0 178-79.7 178-178 0.1-98.2-79.6-177.9-177.9-177.9zm0 249.1c-39.2 0-71.1-31.8-71.1-71.1 0-39.2 31.8-71.1 71.1-71.1s71.1 31.8 71.1 71.1-31.8 71.1-71.1 71.1z"/>
			
		
		<path d="m2880.8 256.6h-62.9c-62.5 0-115.9 45.2-126.1 106.9l-32.9 198.3c-3.8 22.9-23.6 39.8-46.9 39.8h-47.4v106.9h70c62.5 0 115.9-45.2 126.1-106.9l32.9-198.3c3.8-22.9 23.6-39.8 46.9-39.8h40.3v-106.9z"/>
		<path d="m380.1 423.5-40.8 40.8c0.2 2.6 0.4 5.1 0.4 7.7 0 64.3-52.1 116.4-116.4 116.4s-116.4-52.1-116.4-116.4 52.1-116.3 116.4-116.3c37.7 0 71 18 92.3 45.7l76-76c-40.9-46.9-101.1-76.6-168.3-76.6-123.3 0-223.3 99.9-223.3 223.3s100 223.3 223.3 223.3 223.3-100 223.3-223.3c0-16.7-1.8-32.9-5.3-48.5h-61.2z"/>
	
	
		<path d="M1297.8,3.5h54.1v57.1h49.4V3.5h54.1v161.7h-54.1v-58h-49.4v58h-54.1V3.5z"/>
		<path d="m1537.6 2.3h53.6l68.2 162.9h-58.7l-8.6-21.7h-56.6l-8.3 21.7h-57.8l68.2-162.9zm41.1 102.8-14.8-39.3-14.8 39.3h29.6z"/>
		<path d="m1673.4 3.5h79c28.6 0 46.9 7.2 58.2 18.5 9.7 9.7 14.8 21.7 14.8 38.3v0.5c0 23.6-12.2 40-31.9 49.4l37.7 55h-61.7l-30.5-46.2h-11.6v46.2h-54.1v-161.7zm77.4 76.9c12.9 0 20.8-5.8 20.8-15.7v-0.5c0-10.4-8.1-15.5-20.6-15.5h-23.6v31.6h23.4z"/>
		<path d="M1887.3,49.2h-47.6V3.5H1989v45.7h-47.6v116h-54.1V49.2z"/>
		<path d="m2007.2 92.6v-89.1h55v88.5c0 20.1 10.4 28.6 24.9 28.6s24.9-7.9 24.9-27.5v-89.6h55v88c0 55.2-32.1 76.9-80.4 76.9-48.2 0-79.4-22.2-79.4-75.8z"/>
		<path d="M2191.5,3.5h50.6l57.5,71.4V3.5h53.6v161.7h-48.1l-60.1-74.6v74.6h-53.6V3.5z"/>
		<path d="m2375.4 84.8v-0.5c0-48.3 38.1-84.3 89.2-84.3 27.7 0 50.1 9.2 67.7 24.5l-30.3 36.5c-10.6-9-22.4-14.1-35.8-14.1-21 0-36.3 16.2-36.3 38.1v0.5c0 22.9 15.9 38.6 38.6 38.6 9.2 0 14.3-1.4 18.5-3.7v-16.2h-27.7v-34.7h78.3v74.8c-17.6 14.3-42 24.3-71.4 24.3-50.4 0.1-90.8-33.7-90.8-83.8z"/>
	

</svg>
