<?xml version="1.0" encoding="UTF-8" standalone="no"?>
<svg
   enable-background="new 0 0 3839 682.7"
   version="1.1"
   viewBox="0 0 3839 1300.6999"
   xml:space="preserve"
   id="svg4"
   sodipodi:docname="Gameboy2P.svg"
   width="3839"
   height="1300.7"
   inkscape:version="1.4.4 (dcaf3e7d9e, 2026-05-05)"
   xmlns:inkscape="http://www.inkscape.org/namespaces/inkscape"
   xmlns:sodipodi="http://sodipodi.sourceforge.net/DTD/sodipodi-0.dtd"
   xmlns="http://www.w3.org/2000/svg"
   xmlns:svg="http://www.w3.org/2000/svg"><defs
   id="defs4" /><sodipodi:namedview
   id="namedview4"
   pagecolor="#ffffff"
   bordercolor="#000000"
   borderopacity="0.25"
   inkscape:showpageshadow="2"
   inkscape:pageopacity="0.0"
   inkscape:pagecheckerboard="0"
   inkscape:deskcolor="#d1d1d1"
   inkscape:zoom="0.25510364"
   inkscape:cx="1754.189"
   inkscape:cy="1048.5934"
   inkscape:window-width="2048"
   inkscape:window-height="1080"
   inkscape:window-x="0"
   inkscape:window-y="0"
   inkscape:window-maximized="1"
   inkscape:current-layer="svg4" />
<style
   type="text/css"
   id="style1">
	.st0{fill:#FFFFFF;}
</style>

	
		
			
				<path
   d="M 824.2,348.7 799.6,222.1 743,348.8 h 81.2 M 1713,670.5 h -134 l -18,-403.7 -174.4,403.7 h -89.4 l -74.6,-365 -116.3,365 H 878.6 L 844.3,475.3 h -155 l -87.9,195.2 h -140 L 749,17.9 h 165.4 l 88,527.5 171.4,-527.5 h 132.6 l 65.5,357.5 151.8,-357.5 h 161 l 28.3,652.6"
   id="path1" />
				<polyline
   points="2097.5 670.5 2119.8 530.5 1885.7 530.5 1904.4 414.2 2107.9 414.2 2130.3 274.1 1924.6 274.1 1942.4 158 2176.3 158 2198.6 17.9 1827.6 17.9 1723.5 670.5 2097.5 670.5"
   id="polyline1" />
				<polyline
   points="3839 17.9 3682.7 17.9 3550.1 231 3466.5 17.9 3313.1 17.9 3471 362 3422.4 670.5 3556.5 670.5 3597.7 397.8 3839 17.9"
   id="polyline2" />
				<path
   d="m 3042.9,546.3 c 71,31.8 157.8,-30.5 194,-139.1 36.2,-108.5 8,-222.3 -63,-254 -70.9,-31.8 -157.7,30.6 -194,139.1 -36,108.5 -7.9,222.3 63,254 M 2840,288.1 C 2881.7,107.7 3035.9,-10.6 3184.4,23.6 3333.1,58 3419.7,232 3378.1,412.3 3336.4,592.8 3182.2,711 3033.7,676.8 2885.2,642.6 2798.3,468.6 2840,288.1"
   id="path2" />
				<path
   d="M 175.3,76 C 47.7,155.2 -13.8,275.6 2.6,439.6 c 19,190.2 265.2,309.9 473.9,189.4 18.2,-10.5 11.1,-9 17.9,-15 l 41.8,-265.1 h -249 L 268.1,471 h 104 l -11.9,65.6 c -59.6,23.8 -160.9,14.9 -204,-62.7 -27.3,-49.1 -52.7,-158.7 62.7,-259.2 93.9,-82 256.2,-96.8 350.1,-53.6 0,0 11.9,-68.6 20.9,-132.7 C 409.3,-34.2 269.2,17.9 175.3,76"
   id="path3" />
				<path
   d="m 2402.7,21.6 -103.6,647.6 h 301.6 c 124.3,0 305.8,-183.1 140.5,-332.7 170.1,-176 1.5,-313.4 -88.7,-314.9 -72.5,-1.3 -251.4,0 -251.4,0 h 1.6 m 74,391.8 H 2589 c 106.4,0 103.6,130.2 -14.8,130.2 h -118.4 l 20.9,-130.2 m 41.5,-254.2 h 87.2 c 94.6,0 75.4,121.3 -14.8,121.3 h -93.1 l 20.7,-121.3"
   id="path4" />
			
		
	

<g
   id="g4"
   transform="matrix(14.849375,0,0,14.849375,1563.115,646.87346)"><path
     d="m 48,30 v 12 c 0,0.552 -0.448,1 -1,1 H 27 c -0.552,0 -1,-0.448 -1,-1 V 30 c 0,-4.082 3.076,-7.454 7.03,-7.935 C 30.056,20.594 28,17.536 28,14 c 0,-4.962 4.038,-9 9,-9 4.962,0 9,4.038 9,9 0,3.536 -2.056,6.594 -5.03,8.065 C 44.924,22.546 48,25.918 48,30 Z M 14.97,22.065 C 17.944,20.594 20,17.536 20,14 20,9.038 15.962,5 11,5 6.038,5 2,9.038 2,14 2,17.536 4.056,20.594 7.03,22.065 3.076,22.546 0,25.918 0,30 v 12 c 0,0.552 0.448,1 1,1 h 20 c 0.552,0 1,-0.448 1,-1 V 30 c 0,-4.082 -3.076,-7.454 -7.03,-7.935 z"
     id="path1-3" /></g></svg>
