<?xml version="1.0" encoding="UTF-8"?>
<svg enable-background="new 0 0 3840 1052.6" version="1.1" viewBox="0 0 3840 1052.6" xml:space="preserve" xmlns="http://www.w3.org/2000/svg">
<style type="text/css">
	.st0{fill:#FF0000;}
	.st1{fill:#A7A9AC;}
	.st2{fill:#0072BC;}
	.st3{fill:#FFFFFF;}
	.st4{fill:#C4C4C4;}
</style>

	
		
			
				<rect transform="matrix(-1.837e-16 1 -1 -1.837e-16 1706.7 -722.37)" x="1178.2" y="307.5" width="72.6" height="369.4"/>
			<path d="M412.2,455.9h-91.4v450.6c0,40.4-33.1,73.5-73.5,73.5H39.8v72.6h231.2c78,0,141.3-63.2,141.3-141.3V455.9z"/>
			<path d="M1577.8,883.9h-91.4V602c0-40.4-33.1-73.5-73.5-73.5h-207.6v-72.6h231.2c78,0,141.3,63.2,141.3,141.3V883.9z"/>
			<path d="M898.3,883.9h-91.4V602c0-40.4-33.1-73.5-73.5-73.5H525.8v-72.6H757c78,0,141.3,63.2,141.3,141.3V883.9z"/>
			
				<rect transform="matrix(-1.837e-16 1 -1 -1.837e-16 2544.7 -1204.9)" x="1838.5" y="529.3" width="72.6" height="281.2"/>
			<path d="m898.3 706.2v-72.6h-269.5c-69.1 0-125.2 56-125.2 125.2 0 69.1 56 125.2 125.2 125.2h269.5v-72.6h-251.4c-28.7 0-51.9-23.2-51.9-51.9v-1.3c0-28.7 23.2-51.9 51.9-51.9h251.4z"/>
			<rect x="1246.2" y="455.9" width="91.4" height="428.1"/>
			<rect x="1005.9" y="455.9" width="91.4" height="428.1"/>
			<path d="m3698.7 455.9h-430.7v428.1h91.4v-355.5h148.9v355.5h91.4v-355.5h75.4c40.4 0 73.5 33.1 73.5 73.5v282h91.4v-286.9c0-78-63.2-141.2-141.3-141.2z"/>
			<path d="m207.5 528.5h204.7v-72.6h-237.5c-114.1 0-174.7 102.3-174.7 214s60.6 214 174.7 214h237.5v-72.6h-204.7c-17.6 0-104.9-8.7-104.9-141.4s87.3-141.4 104.9-141.4z"/>
			<path d="m1876.1 528.5h139.2v-72.6h-172.1c-114.1 0-174.7 102.3-174.7 214s60.6 214 174.7 214h172.1v-72.6h-139.2c-17.6 0-104.9-8.7-104.9-141.4s87.3-141.4 104.9-141.4z"/>
			<path d="m2508.3 528.5h139.2v-72.6h-172.1c-114.1 0-174.7 102.3-174.7 214s60.6 214 174.7 214h172.1v-72.6h-139.2c-17.6 0-104.9-8.7-104.9-141.4s87.3-141.4 104.9-141.4z"/>
			<path d="m2953.1 452.4c-137.6 0-225 80.5-225 225s87.4 225 225 225 225-80.4 225-225c-0.1-144.5-87.5-225-225-225zm0 381.1c-86 0-127.7-58.2-127.7-156 0-97.9 41.7-156 127.7-156s127.7 58.2 127.7 156c-0.1 97.8-41.7 156-127.7 156z"/>
			<circle cx="2151.1" cy="864.1" r="63.9"/>
			<path d="m2198.3 821c10.4 11.4 16.7 26.5 16.7 43 0 35.3-28.6 63.9-63.9 63.9-23.7 0-44.4-12.9-55.4-32.1"/>
			<path d="m2282.6 774.5c-12.1-21-77.8 6.7-147.5 59.8s-122.1 111.3-102.1 128.9c24.8 21.9 88.9-8.9 155.3-59 57.5-43.4 103.3-114 94.3-129.7zm-106 118.7c-57.6 43.5-117.6 69.1-132 58.1-18-13.6 32-64.1 92.5-110.1s117.1-74.6 125.8-58.7c6.5 11.8-36.4 73-86.3 110.7z"/>
			<circle cx="2093" cy="948.7" r="20.8"/>
			<path d="m2095.7 895.9c-5.4-9.4-8.5-20.2-8.5-31.8 0-35.3 28.6-63.9 63.9-63.9 18.7 0 35.5 8 47.2 20.9"/>
		
	
	
		<rect x="1238.2" width="101.7" height="353.6"/>
		<polygon points="958.9 86.7 1033.2 86.7 1033.2 87.8 1033.2 351.4 1033.2 353.6 1134.9 353.6 1134.9 351.4 1134.9 87.8 1134.9 86.7 1209.2 86.7 1209.2 0 958.9 0"/>
		<path d="m1518.7 0c-101.3 0-155.2 88.4-155.2 176.8s54 176.8 155.2 176.8v0h182.8v-220.2h-179.4v86.7h77.7v46.8h-51.8c-120.1 0-120.1-180.2 0-180.2h153.5v-86.7h-182.8v0z"/>
		<path d="m2820.7 148.5c-28.2-15-62.1 6.4-62.1 38.3v6.6c0 12.6 6.3 23.9 15.7 32.2 14 12.4 8.7 41.2-15.7 41.2h-461.6v-33.8c0-14-8-26.1-19.6-32 25.7-20.8 41.8-55.9 41.8-90.9 0-55-39.3-110.1-93.8-110.1h-213.2v239.5h101.7v-152.8h76.2c12.7 0 24 9.5 24.7 22.1 0.7 13.5-10 24.6-23.3 24.6h-49.5v86.7h28.6c13.7 0 24.8 11.1 24.8 24.8v108.7h563.3c73.4 0 122.6-55 122.6-110.1-0.2-37.4-23-74.9-60.6-95z"/>
		<path d="m1175.8 93.5c-18.4 0-33.4 15-33.4 33.4s15 33.4 33.4 33.4 33.4-15 33.4-33.4c0-18.5-15-33.4-33.4-33.4z"/>
		<path d="m992.3 93.5c-18.4 0-33.4 15-33.4 33.4s15 33.4 33.4 33.4 33.4-15 33.4-33.4c0-18.5-14.9-33.4-33.4-33.4z"/>
		<path d="m1840.6 243.5c0-12.9 10.5-23.4 23.4-23.4h129.5v-86.7h-129.5c-12.9 0-23.4-10.5-23.4-23.4s10.5-23.4 23.4-23.4h129.5v-86.6h-178.9c-50.4 0-91.2 40.9-91.2 91.2v13c0 40.1 31.4 72.5 41.3 72.5-9.9 0-41.3 32.5-41.3 72.5v13c0 50.4 40.8 91.2 91.2 91.2h299.4v-86.7h-249.9c-13.1 0.2-23.5-10.3-23.5-23.2z"/>
	

</svg>
