<?xml version="1.0" encoding="UTF-8"?>
<svg enable-background="new 0 0 3839 682.7" version="1.1" viewBox="0 0 3839 682.7" xml:space="preserve" xmlns="http://www.w3.org/2000/svg">
<style type="text/css">
	.st0{fill:#FFFFFF;}
</style>

	
		
			
				<path d="m824.2 348.7-24.6-126.6-56.6 126.7h81.2m888.8 321.7h-134l-18-403.7-174.4 403.7h-89.4l-74.6-365-116.3 365h-227.7l-34.3-195.2h-155l-87.9 195.2h-140l287.6-652.6h165.4l88 527.5 171.4-527.5h132.6l65.5 357.5 151.8-357.5h161l28.3 652.6"/>
				<polyline points="2097.5 670.5 2119.8 530.5 1885.7 530.5 1904.4 414.2 2107.9 414.2 2130.3 274.1 1924.6 274.1 1942.4 158 2176.3 158 2198.6 17.9 1827.6 17.9 1723.5 670.5 2097.5 670.5"/>
				<polyline points="3839 17.9 3682.7 17.9 3550.1 231 3466.5 17.9 3313.1 17.9 3471 362 3422.4 670.5 3556.5 670.5 3597.7 397.8 3839 17.9"/>
				<path d="m3042.9 546.3c71 31.8 157.8-30.5 194-139.1 36.2-108.5 8-222.3-63-254-70.9-31.8-157.7 30.6-194 139.1-36 108.5-7.9 222.3 63 254m-202.9-258.2c41.7-180.4 195.9-298.7 344.4-264.5 148.7 34.4 235.3 208.4 193.7 388.7-41.7 180.5-195.9 298.7-344.4 264.5s-235.4-208.2-193.7-388.7"/>
				<path d="m175.3 76c-127.6 79.2-189.1 199.6-172.7 363.6 19 190.2 265.2 309.9 473.9 189.4 18.2-10.5 11.1-9 17.9-15l41.8-265.1h-249l-19.1 122.1h104l-11.9 65.6c-59.6 23.8-160.9 14.9-204-62.7-27.3-49.1-52.7-158.7 62.7-259.2 93.9-82 256.2-96.8 350.1-53.6 0 0 11.9-68.6 20.9-132.7-180.6-62.6-320.7-10.5-414.6 47.6"/>
				<path d="m2402.7 21.6-103.6 647.6h301.6c124.3 0 305.8-183.1 140.5-332.7 170.1-176 1.5-313.4-88.7-314.9-72.5-1.3-251.4 0-251.4 0h1.6m74 391.8h112.3c106.4 0 103.6 130.2-14.8 130.2h-118.4l20.9-130.2m41.5-254.2h87.2c94.6 0 75.4 121.3-14.8 121.3h-93.1l20.7-121.3"/>
			
		
	

</svg>
