<?xml version="1.0" encoding="UTF-8"?>
<svg enable-background="new 0 0 3839.7 948.8" version="1.1" viewBox="0 0 3839.7 948.8" xml:space="preserve" xmlns="http://www.w3.org/2000/svg">
<style type="text/css">
	.st0{fill:none;stroke:#000000;stroke-width:6.1784;stroke-linecap:round;stroke-linejoin:round;stroke-miterlimit:10;}
	.st1{fill:#FFFFFF;}
</style>

	<polygon class="st1" points="1629.8 3.1 2209.8 3.1 2343.2 237.8 3615.9 237.8 3836.6 363.4 3836.6 656.2 3325.4 945.7 514.2 945.7 3.1 656.2 3.1 363.4 223.8 237.8 1496.5 237.8"/>
	
		<polygon class="st0" points="3577.9 802.7 3836.6 656.2 3813.9 642.9 3571.9 780.1"/>
		<polyline class="st0" points="3491.9 825.4 3319.5 923 3325.4 945.7 3577.9 802.7"/>
		<polygon class="st0" points="3319.5 923 520.1 923 514.2 945.7 3325.4 945.7"/>
		<polyline class="st0" points="261.8 802.7 514.2 945.7 520.1 923 347.8 825.4"/>
		<polygon class="st0" points="25.8 642.9 3.1 656.2 261.8 802.7 267.7 780.1"/>
		<polygon class="st0" points="3.1 363.4 3.1 656.2 25.8 642.9 25.8 376.6"/>
		<polygon class="st0" points="1643 25.8 1629.8 3.1 1496.5 237.8 1509.6 260.5"/>
		<polygon class="st0" points="1496.5 237.8 223.8 237.8 229.8 260.5 1509.6 260.5"/>
		<polygon class="st0" points="223.8 237.8 3.1 363.4 25.8 376.6 229.8 260.5"/>
		<polygon class="st0" points="3813.9 376.6 3813.9 642.9 3836.6 656.2 3836.6 363.4"/>
		<polygon class="st0" points="3615.9 237.8 3609.9 260.5 3813.9 376.6 3836.6 363.4"/>
		<polygon class="st0" points="2343.2 237.8 2330 260.5 3609.9 260.5 3615.9 237.8"/>
		<polygon class="st0" points="2209.8 3.1 2196.7 25.8 2330 260.5 2343.2 237.8"/>
		<polygon class="st0" points="1629.8 3.1 1643 25.8 2196.7 25.8 2209.8 3.1"/>
		
			<polygon class="st0" points="1643 25.8 1650.3 38.3 2189.4 38.3 2196.7 25.8"/>
			<polygon class="st0" points="3801.3 383.8 3801.3 635.6 3813.9 642.9 3813.9 376.6"/>
			<polygon class="st0" points="3571.9 780.1 3813.9 642.9 3801.3 635.6 3568.5 767.5"/>
			<polygon class="st0" points="3316.2 910.4 523.5 910.4 520.1 923 3319.5 923"/>
			<polygon class="st0" points="271.1 767.5 38.3 635.6 25.8 642.9 267.7 780.1"/>
			<polygon class="st0" points="25.8 376.6 25.8 642.9 38.3 635.6 38.3 383.8"/>
			<polygon class="st0" points="1650.3 38.3 1643 25.8 1509.6 260.5 1516.9 273"/>
			<polygon class="st0" points="1509.6 260.5 229.8 260.5 233.1 273 1516.9 273"/>
			<polygon class="st0" points="229.8 260.5 25.8 376.6 38.3 383.8 233.1 273"/>
			<polygon class="st0" points="3609.9 260.5 3606.5 273 3801.3 383.8 3813.9 376.6"/>
			<polygon class="st0" points="2330 260.5 2322.8 273 3606.5 273 3609.9 260.5"/>
			<polygon class="st0" points="2196.7 25.8 2189.4 38.3 2322.8 273 2330 260.5"/>
		
		<polygon class="st0" points="48.4 629.7 38.3 635.6 271.1 767.5 273.7 757.4"/>
		<polygon class="st0" points="38.3 383.8 38.3 635.6 48.4 629.7 48.4 389.7"/>
		<polygon class="st0" points="233.1 273 38.3 383.8 48.4 389.7 235.8 283.1"/>
		<polygon class="st0" points="1650.3 38.3 1516.9 273 1522.8 283.1 1656.2 48.4"/>
		<polygon class="st0" points="3568.5 767.5 3801.3 635.6 3791.3 629.7 3565.9 757.4"/>
		<polygon class="st0" points="3791.3 389.7 3791.3 629.7 3801.3 635.6 3801.3 383.8"/>
		<polygon class="st0" points="3606.5 273 3603.9 283.1 3791.3 389.7 3801.3 383.8"/>
		<polygon class="st0" points="2322.8 273 2316.9 283.1 3603.9 283.1 3606.5 273"/>
		<polygon class="st0" points="2189.4 38.3 2183.5 48.4 2316.9 283.1 2322.8 273"/>
		<polygon class="st0" points="1650.3 38.3 1656.2 48.4 2183.5 48.4 2189.4 38.3"/>
		<polygon class="st0" points="1516.9 273 233.1 273 235.8 283.1 1522.8 283.1"/>
		<polygon class="st0" points="3571.9 780.1 873 780.1 267.7 780.1 261.8 802.7 3577.9 802.7"/>
		<polygon class="st0" points="3568.5 767.5 271.1 767.5 267.7 780.1 3571.9 780.1"/>
		<polygon class="st0" points="3565.9 757.4 273.7 757.4 271.1 767.5 3568.5 767.5"/>
		<polygon class="st0" points="3577.9 802.7 261.8 802.7 347.8 825.4 3491.9 825.4"/>
		
			<path d="m1394.8 857.2h-27.8c-4.5 0.3-6.3 0.8-8.1 2.2-1.3 0.9-1.8 1.8-2.1 2.4-0.7 1.4-1 3.1-1.1 3.6-0.3 2.3-0.4 5.8-0.5 10.9 0.2 5.5 0.6 9.5 2 11.6 1.7 2.3 5 3 10.5 3.5h26.5c4.2-0.4 8.1-0.7 10.2-4.2 0.8-1.4 1.2-2.8 1.6-5.9v-14.1c-0.1-1.5-0.2-2.6-0.6-4-1.7-5.2-5.5-5.6-10.6-6z"/>
			<path d="m645.8 879.1h-22.8c-2.5 0.2-4.9 0.3-6.7 1.8-1.4 1-1.8 2.3-2.1 3.9 0 0.8-0.5 3.5 1.2 5.9 1.4 1.9 3 2.5 7.9 2.8h21.9c3.5-0.3 6.3-0.6 8-3.6 0.3-0.6 0.9-1.9 0.9-3.8 0-1.7-0.5-2.8-0.7-3.3-1.5-3.1-4.1-3.4-7.6-3.7z"/>
			<path d="m1910.9 857.4h-33.6v16.7h32c3.8 0 6.3-0.2 7.8-1 3-1.7 3-6.4 3-6.8 0-0.5 0-4.6-1.8-6.7-1.7-1.8-4.5-2-7.4-2.2z"/>
			<path d="m1194.2 857.7h-32.6v33.4h33.2c0.7 0 2.6 0.1 4.7-0.3 7.9-1.3 8.3-7.3 8.4-13.9v-8.1c-0.2-3-0.5-5.7-2.8-8.1-2.7-2.7-6.7-2.9-10.9-3z"/>
			<polygon points="2069.8 881.5 2097.1 881.5 2083.7 856.1"/>
			<path d="m784.4 880.4h-35.8v11.8h39c2.6-0.5 4.5-1 5.4-3.5 0.1-0.4 0.4-1.1 0.4-2.2 0-1.5-0.5-2.5-1.2-3.6-2-2.7-4.7-2.6-7.8-2.5z"/>
			<path d="m789.9 865.1c0.4-0.5 1.2-1.7 1.2-3.4 0-1.2-0.5-2.4-1.2-3.3-1.8-2.4-4-2.4-6.7-2.5h-34.4v11.4h33.9c3 0.1 5.4 0.2 7.2-2.2z"/>
			<path d="m347.8 825.4 172.3 97.6h2799.3l172.4-97.6h-3144zm228.7 81.5h-19.3l0.6-50.1-24.2 16.7-9-13.6 27.6-18.1h24.3v65.1zm94.4-9.4c-1.1 2.6-3.1 4.8-5.4 6.3-3.9 2.5-8.4 3-13.1 3.5-5.4 0.2-11 0.4-16.4 0.4-7.5 0-14.9-0.4-22.3-0.8-1-0.2-2.1-0.4-3.1-0.6-2.9-0.6-10.2-2.2-13.3-10.3-0.9-2.5-1.1-4.7-1.4-7.3v-14.6l0.6-14.2c0.5-4.7 0.9-7.8 4.2-11.5 5.3-5.9 13.2-6.5 15.3-6.7 6.1-0.3 12.1-0.6 18.1-0.6 7.7 0 15.4 0.5 23.1 1 2.9 0.6 4.8 1 5.8 1.3 3.3 1.1 7.5 3 8.5 11.2 0.2 1.9 0.2 3.9 0.3 5.8l-18.8-0.3c-0.2-0.9-0.5-2.6-2.6-3.7-2.3-1.2-4.3-1.1-9-1.3-1.4-0.1-2.8-0.2-4.2-0.2l-13.8 0.5c-2.4 0.3-4.8 0.6-6.8 2.3-1.5 1.3-2.1 2.8-2.1 6.7v8.2c1.8-3.1 2.8-4.2 6.2-5.4 3.4-1.1 8-1.3 16-1.4l18.6 0.6c1.1 0.1 2.3 0.2 3.4 0.3 1.3 0.2 8.2 0.9 11.3 5.8 1.6 2.6 2.5 6.7 2.5 13.6 0 5.4-0.7 9.3-1.6 11.4zm41.7-2.1h-23.1v-17.6h23.1v17.6zm97.2 5.9c-0.5 0.6-1.5 1.7-3 2.8-4 2.8-8.9 3-18.3 2.8h-59.5v-65.2h60.1c5.9 0 12.6 0.1 17.3 4.2 2.4 1.9 4.7 5.6 4.7 12.4 0 7.2-1.7 10.2-4.3 12.4-2 1.7-4.5 2.3-6.8 3 3.2 0.5 6.3 0.9 9 3 3 2.1 4.7 5.3 4.7 13 0 6.2-1.9 9.4-3.9 11.6zm40.9 5.6h-20.7v-65.1h20.7v65.1zm92.3-50.2h-29.3v50h-20.5v-49.9h-28.8v-15.1h78.6v15zm109.5 50.2h-26.5l-34.7-65.1h21.8l26.6 50 27.3-50h22.3l-36.8 65.1zm70.3 0h-20.7v-65.1h20.7v65.1zm105.3-28.3c0 1.6 0 3-0.1 4.6-0.6 11.8-3.8 17-8.8 20.1-4.9 3-9.7 3.3-15.2 3.5h-62.7v-65.1h60.6v0.1c1.8 0 3.5 0.1 5.3 0.3 10.3 0.9 14.9 4.9 17.3 9 3 5.2 3.4 11.4 3.6 17.1v10.4zm90.3-22.5h-52.9v10.9h50v13.7h-50v11.4h52.9v14.8h-72.7v-65.1h72.7v14.3zm107.7 22.1c-0.1 3-0.4 6.1-0.6 9.2-0.6 4.8-1.3 8.6-4.5 12.6-5 6.1-12.6 6.9-19.8 7.5-6.5 0.1-13 0.3-19.6 0.3-7.5 0-14.9-0.2-22.3-0.4-5.8-0.4-11.4-0.7-16.5-4.2-7.8-5.4-8-15.6-8-23.9l0.6-19.3c0.1-1 0.3-2 0.5-3 1-5.1 3.4-9.4 8-12.1 3.4-2 6.6-2.6 10.4-3.1 7.9-0.5 15.9-0.8 23.9-0.8 9.4 0 18.8 0.4 28.3 0.8 1 0.1 2 0.3 3 0.5 2.7 0.5 9.4 1.8 13.4 8.8 2.3 4.2 2.7 8.4 3 13.1 0.2 4.7 0.4 9.3 0.2 14zm133.2-22.1h-52.9v10.9h50v13.7h-50v11.4h52.9v14.8h-72.7v-65.1h72.7v14.3zm106.6 50.8h-31.9c-7.7-9.3-15.3-18.6-22.8-28.2-5.5-7.1-11-14.4-16.3-21.6v49.7h-19v-65.1h31.9c7.1 8.7 14.2 17.3 21.1 26 6.3 7.9 12.5 16.1 18.6 24.2l-0.4-29.8v-20.3h18.8v65.1zm90.4-50.2h-29.3v50h-20.5v-49.9h-28.8v-15.1h78.5v15zm84.2-0.6h-52.9v10.9h50v13.7h-50v11.4h52.9v14.8h-72.7v-65.1h72.7v14.3zm99.6 5.8c0 0.6 0 6.7-1.3 10.8-0.2 0.5-0.7 1.8-1.6 3-3.1 4.5-9.4 5.6-14.2 6.5 5.4 0 10.6 0.1 13.8 4.2 2.3 2.9 2.3 5.8 2.3 9.2v11.4h-20.2v-8.8c0-1.8-0.1-3.5-1.1-5.2-1.5-2.1-3.9-2.4-6.5-2.7h-34v16.6h-20.4v-65.1h59c6.6-0.4 13.1-0.6 18.3 3.5 1.8 1.4 2.9 3 3.2 3.7 2.8 4.7 2.7 12 2.7 12.9zm89.5-5.2h-29.3v50h-20.5v-49.9h-28.8v-15.1h78.5v15zm80.9 50.2-6.1-11.6h-41.9l-6.2 11.6h-22l36.1-65.1h26l36.6 65.1h-22.5zm54 0h-20.7v-65.1h20.7v65.1zm106.5 0h-31.9c-7.7-9.3-15.3-18.6-22.8-28.2-5.5-7.1-11-14.4-16.3-21.6v49.7h-19v-65.1h31.9c7.1 8.7 14.2 17.3 21.1 26 6.3 7.9 12.5 16.1 18.6 24.2l-0.4-29.8v-20.3h18.8v65.1zm127.6 0h-19.4v-49.2l-28.5 49.2h-16l-28.4-49.5v49.5h-19.1v-65.1h32.2l23.6 42.6 23.7-42.6h31.7v65.1zm89.2-50.8h-52.9v10.9h50v13.7h-50v11.4h52.9v14.8h-72.7v-65.1h72.7v14.3zm106.5 50.8h-31.9c-7.7-9.3-15.3-18.6-22.8-28.2-5.5-7.1-11-14.4-16.3-21.6v49.7h-19v-65.1h31.9c7.1 8.7 14.2 17.3 21.1 26 6.3 7.9 12.5 16.1 18.6 24.2l-0.4-29.8v-20.3h18.8v65.1zm90.4-50.2h-29.3v50h-20.4v-49.9h-28.8v-15.1h78.5v15zm134.5 43.7c-0.8 1.1-1.6 1.9-2.7 2.8-3 2.2-7 2.9-11.1 3.5-8 0.5-16 0.8-24 0.8-8.7 0-17.3-0.6-26.1-1-4.3-0.6-9.2-1.5-12.5-5-3.7-4-3.6-11.3-3.6-16.1l20.5 0.1c0 1.5 0 2.7 0.5 3.8 0.7 2.1 2.7 3 6.9 3.3 4.2 0.2 8.2 0.4 12.4 0.5 4.4 0.1 8.9-0.1 13.4-0.2 0.6 0 3.5 0.3 5.5-0.6 2-0.7 3.8-2.8 3.8-5 0-0.6-0.1-1.7-0.9-2.9-1.6-2.2-3.6-2.1-8.2-2.8-9.6-0.2-19.2-0.3-28.7-0.8-3-0.2-6.1-0.5-9.1-0.6-0.9-0.2-1.9-0.3-2.9-0.5-1.3-0.2-5.8-0.9-9-4.3-2-2.2-3.9-6.2-3.9-12.8 0-0.5 0-7.6 1.7-11.7 0.6-1.6 1.6-3 2.7-4.2 3.8-4.1 8.8-4.7 14.2-5.4 7.1-0.3 14.2-0.6 21.3-0.6 7.8 0 15.7 0.5 23.5 0.8l3.6 0.6c1.4 0.2 5.9 1 9.4 4.2 4.5 4.2 4.5 10 4.3 15.7l-19.7-0.1c-1.2-5-2.1-5.6-7.4-6.2-4.8-0.3-9.7-0.5-14.5-0.5-3.8 0-7.5 0.2-11.3 0.3-2.5 0.1-4.8 0.2-6.4 2.2-0.3 0.4-1.1 1.6-1.1 3s0.7 2.5 1.1 2.9c1.8 2.2 4 2.3 6.5 2.5l39 1.4c5.4 0.6 7.4 1.3 9.7 3 3.3 2.4 6.3 6.6 6.3 16.1 0.1 7.4-1.2 10.9-3.2 13.8zm69.2-16.3v22.8h-20.3v-22.8l-36.9-42.3h25.2l21.8 26.6 22-26.6h26l-37.8 42.3zm124.6 16.3c-0.8 1.1-1.6 1.9-2.7 2.8-3 2.2-7 2.9-11.1 3.5-8 0.5-16 0.8-24 0.8-8.7 0-17.3-0.6-26.1-1-4.3-0.6-9.2-1.5-12.5-5-3.7-4-3.6-11.3-3.6-16.1l20.5 0.1c0 1.5 0 2.7 0.5 3.8 0.7 2.1 2.7 3 6.9 3.3 4.2 0.2 8.2 0.4 12.4 0.5 4.4 0.1 8.9-0.1 13.4-0.2 0.6 0 3.5 0.3 5.5-0.6 2-0.7 3.8-2.8 3.8-5 0-0.6-0.1-1.7-0.9-2.9-1.6-2.2-3.6-2.1-8.2-2.8-9.6-0.2-19.2-0.3-28.7-0.8-3-0.2-6.1-0.5-9.1-0.6-0.9-0.2-1.9-0.3-2.9-0.5-1.3-0.2-5.8-0.9-9-4.3-2-2.2-3.9-6.2-3.9-12.8 0-0.5 0-7.6 1.7-11.7 0.6-1.6 1.6-3 2.7-4.2 3.8-4.1 8.8-4.7 14.2-5.4 7.1-0.3 14.2-0.6 21.3-0.6 7.8 0 15.7 0.5 23.5 0.8l3.6 0.6c1.4 0.2 5.9 1 9.4 4.2 4.5 4.2 4.5 10 4.3 15.7l-19.7-0.1c-1.2-5-2.1-5.6-7.4-6.2-4.8-0.3-9.7-0.5-14.5-0.5-3.8 0-7.5 0.2-11.3 0.3-2.5 0.1-4.8 0.2-6.4 2.2-0.3 0.4-1.1 1.6-1.1 3s0.7 2.5 1.1 2.9c1.8 2.2 4 2.3 6.5 2.5l39 1.4c5.4 0.6 7.4 1.3 9.7 3 3.3 2.4 6.3 6.6 6.3 16.1 0.1 7.4-1.2 10.9-3.2 13.8zm91.9-43.7h-29.3v50h-20.5v-49.9h-28.8v-15.1h78.5v15zm83.2-0.6h-52.9v10.9h50v13.7h-50v11.4h52.9v14.8h-72.7v-65.1h72.7v14.3zm126.7 50.8h-19.4v-49.2l-28.5 49.2h-16l-28.4-49.5v49.5h-19.1v-65.1h32.2l23.6 42.6 23.7-42.6h31.7v65.1z"/>
		
		
			<polygon points="1643.9 464.9 1643.9 353.7 1633.5 343.3 1628.6 338.5 1628.6 438.7 1638.7 455.9"/>
			<polygon points="1623.3 441.8 1435.9 335.7 1434.4 341.4 1432 350.9 1638.5 467.9"/>
			<polygon points="1296.6 349.3 1426 349.3 1430 334.1 1281.3 334.1 1284.4 337.2"/>
			<polygon points="1648.3 349.3 1764 349.3 1776.2 337.2 1779.3 334.1 1633 334.1 1636.1 337.2"/>
			<path d="m1096.3 405.9 4.1 15.3 84.2-47.7 33-18.6c0.1 0 0.1-0.1 0.2-0.1l25.6-14.5-57.9 15.3-89.2 50.3z"/>
			<path d="m1096.3 689.5 4.1 15.3 124.7-70.6c0.2-0.1 0.3-0.3 0.5-0.4l17.8-10-57.9 15.3-89.2 50.4z"/>
			<polygon points="1292.2 686.8 1292.2 353.7 1281.8 343.3 1276.9 338.5 1276.9 702.1 1281.8 697.2"/>
			<polygon points="1184.2 349.3 1241.8 334.1 887.5 334.1 891.6 349.3"/>
			<polygon points="767.7 421.3 752.5 412.4 752.5 702 755.6 698.9 767.7 686.8"/>
			<polygon points="772.1 691.1 761.7 701.6 756.9 706.4 1094.3 706.4 1090.4 691.1"/>
			<polygon points="885.6 350.9 881.5 335.7 755.6 407 770.8 415.9"/>
			<polygon points="1990 566 1974.7 550.8 1974.7 628.6 1990 613.4"/>
			<polygon points="1990 427.2 1974.7 411.9 1974.7 483.9 1990 468.6"/>
			<polygon points="1979.1 546.5 1986.5 553.8 1994.4 561.6 2111.1 561.6 2107 546.5"/>
			<path d="m2202.4 494.2-89.3 50.6 4 15.3 122.8-69.6c0.1 0 0.1-0.1 0.2-0.1l10.3-5.8 10-5.7-57.1 15.1-0.9 0.2z"/>
			<polygon points="1979.2 632.9 2266.6 632.9 2324.2 617.7 1994.4 617.7"/>
			<polygon points="1422 423.6 1432 440.8 1437.3 449.9 1625.5 556.5 1640.8 547.6"/>
			<polygon points="1412.3 691.2 1296.6 691.2 1284.4 703.3 1281.3 706.4 1427.6 706.4 1424.5 703.3"/>
			<polygon points="1416.7 426.7 1416.7 686.8 1427.1 697.2 1432 702.1 1432 453 1427.3 444.9"/>
			<polygon points="1643.9 552.9 1628.6 561.8 1628.6 702 1643.9 686.7"/>
			<polygon points="1768.4 353.7 1768.4 686.7 1783.7 702 1783.7 338.5 1778.8 343.3"/>
			<polygon points="197.7 407 213 415.9 235.9 402.9 327.6 350.9 323.7 335.7"/>
			<polygon points="338.7 632.9 557.2 632.9 541.9 617.7 354 617.7"/>
			<polygon points="560 627 561.5 628.6 561.5 537.5 546.3 552.7 546.3 613.4"/>
			<polygon points="334.3 411.9 334.3 628.6 335.9 627 349.6 613.4 349.6 427.2"/>
			<polygon points="701.3 464 686 479.3 686 619.3 701.3 628.2"/>
			<polygon points="588.7 407.5 338.7 407.5 354 422.8 592.8 422.8"/>
			<polygon points="568.2 689.5 572.2 704.8 698.2 633.5 682.9 624.6"/>
			<path d="m594.7 405.9 4.1 15.3 71.1-40.3 57.5-32.6 14.2-8.1-57.8 15.2h-0.1l-89 50.5z"/>
			<polygon points="333.7 349.3 682.5 349.3 740.1 334.1 329.7 334.1"/>
			<path d="m409.5 548.4h132.3l15.4-15.3h-113.6l-57.6 15.2h22.8c0.3 0 0.5 0 0.7 0.1z"/>
			<path d="m527.4 461.2-116.1 65.8c-0.1 0-0.1 0.1-0.2 0.1l-12.4 7-14.6 8.3 57.8-15.2 89.4-50.6-3.9-15.4z"/>
			<polygon points="896.6 632.9 1184.2 632.9 1241.8 617.7 911.8 617.7"/>
			<polygon points="907.5 566 892.3 550.8 892.3 628.6 907.5 613.4"/>
			<polygon points="896.6 546.5 911.8 561.6 1028.6 561.6 1024.6 546.5"/>
			<polygon points="907.5 468.6 907.5 427.1 895.3 415 892.3 411.9 892.3 483.8"/>
			<path d="m1030.6 544.9 4.1 15.3 111.3-63.1c0.2-0.1 0.3-0.3 0.5-0.4l31.3-17.7-57.7 15.2-89.5 50.7z"/>
			<polygon points="896.6 488.3 1118.3 488.3 1176.3 473 911.8 473"/>
			<path d="m1979.1 488.3h221.8l57.6-15.2h-33.2c-0.3 0-0.5 0-0.7-0.1h-230.1l-15.4 15.3z"/>
			<path d="M332,691.1c-0.3,0.1-0.5,0.1-0.8,0.1h-117L202,703.3l-3.1,3.1h367.3l-2.1-8.2l-1.8-7.1H332z"/>
			<polygon points="537.5 474.9 681.7 474.9 696.9 459.6 533.4 459.6"/>
			<polygon points="896.6 407.5 901.4 412.3 911.8 422.8 1094.3 422.8 1090.4 407.5"/>
			<polygon points="194.6 702.1 199.4 697.2 209.8 686.8 209.8 421.3 194.6 412.4"/>
			<polygon points="1648.3 691.1 1633 706.4 1779.3 706.4 1764 691.1"/>
			<polygon points="3570.7 349.3 3628.3 334.1 3217.9 334.1 3221.9 349.3"/>
			<polygon points="3215.8 350.9 3211.9 335.7 3085.9 407 3101.2 415.9"/>
			<polygon points="3237.8 427.2 3222.5 411.9 3222.5 483.9 3237.8 468.6"/>
			<polygon points="3010.7 686.7 3026 702 3026 338.5 3010.7 353.7"/>
			<polygon points="1979.1 407.5 1994.4 422.8 2176.9 422.8 2172.8 407.5"/>
			<polygon points="2890.6 349.3 3006.3 349.3 3014.2 341.5 3021.6 334.1 2875.3 334.1 2882.7 341.5"/>
			<path d="m2796.6 355.5-45.3 25.6-43.8 24.8 4.1 15.3 121.8-69c0.1-0.1 0.2-0.1 0.3-0.2l20.8-11.8-57.5 15.2c-0.1 0-0.3 0-0.4 0.1z"/>
			<polygon points="2890.6 691.1 2875.3 706.4 3021.6 706.4 3006.3 691.1"/>
			<polygon points="2886.2 353.7 2870.9 338.5 2870.9 702 2886.2 686.7"/>
			<polygon points="3226.9 407.5 3242.2 422.8 3481 422.8 3476.9 407.5"/>
			<polygon points="2451.5 407.5 2458.1 414.2 2466.7 422.8 2705.5 422.8 2701.5 407.5"/>
			<polygon points="3226.9 488.3 3569.9 488.3 3585.1 473 3242.2 473"/>
			<path d="m3571.9 355.5-45.2 25.6-43.8 24.8 4.1 15.3 114.1-64.7s0.1 0 0.1-0.1l28.6-16.2-57.9 15.3c0.1 0 0.1 0 0 0z"/>
			<polygon points="3574.2 619.3 3589.5 628.1 3589.5 477.4 3574.2 492.6"/>
			<polygon points="3099.6 685.3 3189.4 634.5 3185.3 619.3 3042 700.5 3099.2 685.4"/>
			<polygon points="3438 553.8 3445.4 546.5 3102.4 546.5 3094.5 554.3 3087.1 561.6 3430.1 561.6"/>
			<polygon points="3445.4 632.9 3436.3 624 3430.1 617.7 3191.3 617.7 3195.3 632.9"/>
			<path d="m3101.5 691.2-57.6 15.2h28.1c0.3 0 0.5 0 0.7 0.1h381.7l-4-15.3h-348.9z"/>
			<polygon points="3098 421.3 3082.8 412.4 3082.8 557.3 3098 542.1"/>
			<polygon points="3456.4 689.6 3460.4 704.8 3586.4 633.5 3571.1 624.6"/>
			<polygon points="3434.5 613.4 3449.7 628.6 3449.7 550.8 3434.5 566"/>
			<path d="m2267.8 355.5-45.2 25.6-43.8 24.8 4.1 15.3 122.8-69.6 20.1-11.4-58 15.3c0.1 0 0.1 0 0 0z"/>
			<polygon points="2440.4 350.9 2436.4 335.7 2310.5 407 2325.7 415.9"/>
			<polygon points="2659.1 613.4 2674.3 628.6 2674.3 550.8 2659.1 566"/>
			<polygon points="2462.3 427.1 2447.1 411.9 2447.1 483.9 2462.3 468.6"/>
			<path d="m2267.9 639.1-46.6 26.4-42.5 24 4.1 15.3 121.2-68.6 0.2-0.2 21.5-12.2-57.5 15.2c-0.1 0-0.3 0.1-0.4 0.1z"/>
			<polygon points="1876.3 402.9 1968.1 350.9 1964.1 335.7 1838.1 407 1853.4 415.9"/>
			<polygon points="2266.6 349.3 2324.2 334.1 1970.1 334.1 1974.1 349.3"/>
			<polygon points="1854.6 691.1 1839.3 706.4 2176.9 706.4 2172.8 691.1"/>
			<polygon points="1850.3 421.3 1835 412.4 1835 702 1850.3 686.7"/>
			<polygon points="2795.3 349.3 2852.9 334.1 2442.4 334.1 2446.4 349.3"/>
			<polygon points="2798.8 619.3 2814 628.1 2814 477.4 2798.8 492.6"/>
			<polygon points="2322.6 542.1 2322.6 421.3 2308.2 412.9 2307.4 412.4 2307.4 557.3 2322.1 542.6"/>
			<polygon points="2458.1 481.6 2451.5 488.3 2794.5 488.3 2808.1 474.5 2809.7 473 2466.7 473"/>
			<polygon points="2680.9 689.5 2685 704.8 2810.9 633.5 2795.7 624.6"/>
			<path d="m2326.4 691.1h-0.1c-0.1 0-0.1 0-0.2 0.1l-57.6 15.2h410.5l-4.1-15.3h-348.5z"/>
			<polygon points="2669.9 632.9 2654.7 617.7 2415.9 617.7 2419.9 632.9"/>
			<polygon points="2413.9 634.5 2409.9 619.3 2267 700.3 2324.5 685.1"/>
			<polygon points="2669.9 546.5 2326.9 546.5 2324.7 548.7 2311.7 561.6 2654.7 561.6"/>
		
		<path d="m3604.2 283.1h-1287l-133.4-234.7h-527.3l-133.4 234.7h-1287l-187.4 106.6v240l139.7 79.1v-301.8s0 0 0 0c0-0.1 0-0.3 0.1-0.4 0-0.1 0-0.3 0.1-0.4 0-0.1 0.1-0.2 0.1-0.4 0.1-0.1 0.1-0.3 0.2-0.4s0.2-0.2 0.2-0.3c0.1-0.1 0.2-0.2 0.2-0.3l0.3-0.3c0.1-0.1 0.2-0.2 0.3-0.2l134.2-76h0.1c0.1-0.1 0.2-0.1 0.3-0.1s0.2-0.1 0.3-0.1 0.2 0 0.3-0.1h0.4 0.1 415.6c4.2 0 7.7 2.7 8.8 6.8s-0.6 8.2-4.3 10.3h-0.1c-0.1 0.1-0.2 0.1-0.3 0.2l-14.7 8.3-11.1 6.3s-0.1 0-0.1 0.1l-46.6 26.4-74.6 42.2h-0.1c-0.2 0.1-0.3 0.1-0.5 0.2-0.1 0-0.1 0.1-0.2 0.1-0.2 0.1-0.5 0.1-0.7 0.1h-241v182.6h184.3v-57h-154.8c-0.5 0-0.9-0.1-1.3-0.2-3.8-0.4-6.9-3-7.9-6.7-1.1-4.1 0.6-8.2 4.3-10.3l15.3-8.6 132.3-74.9h0.1c0.1-0.1 0.2-0.1 0.3-0.1s0.2-0.1 0.3-0.1 0.2 0 0.3-0.1h0.4 0.1 175 0.1 0.3 0.2c0.1 0 0.2 0 0.2 0.1 0.1 0 0.1 0 0.2 0.1h0.1 0.1c0.1 0 0.1 0.1 0.2 0.1s0.1 0.1 0.2 0.1 0.1 0.1 0.2 0.1 0.1 0.1 0.2 0.1 0.1 0.1 0.2 0.2l0.2 0.2c0 0.1 0.1 0.1 0.1 0.2s0.1 0.1 0.1 0.2 0.1 0.1 0.1 0.2 0.1 0.1 0.1 0.2v0.1 0.1c0 0.1 0.1 0.1 0.1 0.2s0 0.2 0.1 0.2v0.2 0.2 0.1 177s0 0 0 0c0 0.1 0 0.3-0.1 0.4 0 0.1 0 0.3-0.1 0.4 0 0.1-0.1 0.2-0.1 0.4-0.1 0.1-0.1 0.3-0.2 0.4s-0.2 0.2-0.2 0.3c-0.1 0.1-0.2 0.2-0.2 0.3l-0.3 0.3c-0.1 0.1-0.2 0.2-0.3 0.2l-134.2 76h-0.1c-0.2 0.1-0.3 0.1-0.5 0.2-0.1 0-0.1 0.1-0.2 0.1-0.2 0.1-0.5 0.1-0.7 0.1h-375.3l79.1 44.8h3292.2l225.3-127.7v-240l-187.3-106.6zm-1475.3-178.8c4.6-13.3 16.7-21.9 30.7-21.9 14.1 0 26.2 8.6 30.7 21.9l56.2 161.6h-22.8v-0.1h-74.8v-21.5h67.4l-46.2-133c-2.4-6.9-8.7-7.4-10.5-7.4-1.9 0-8.1 0.5-10.5 7.4l-53.7 154.5h-22.8l56.3-161.5zm30.7 76.7-29.6 85h-22.8l52.3-150.4 40.9 117.7h-51.7v-21.5h21.4l-10.5-30.8zm-219.4-39.4c0-32.8 26.8-59.5 59.5-59.5h66v21.5h-66c-21 0-38 17.1-38 38v64.9c0 21 17.1 38 38 38h44.5v-76.1h-38.7v-21.5l60.2-0.1v119.1h-66c-32.8 0-59.5-26.8-59.5-59.5v-64.8zm55.6 68.4c0.6 0.6 1.8 1.6 3.8 1.6h11.8v-10.8h-6l0.1-21.5 27.5 0.1v53.7h-33.3c-7.2 0-13.9-2.9-19-8s-7.8-11.9-7.8-19v-64.8c0-7.1 2.7-13.9 7.8-19s11.8-7.9 18.9-8h66.1v21.7h-66c-1.9 0-5.3 3.4-5.3 5.4v64.9c-0.1 1.9 0.9 3.1 1.4 3.7zm-150.7 0c0.6 0.6 1.8 1.6 3.8 1.6h77.1v21.6h-77.1c-7.2 0-13.9-2.9-19-8s-7.8-11.9-7.8-19v-26.9l81.8 0.1v21.6l-60.3-0.1v5.4c0 1.9 1 3.1 1.5 3.7zm58.9-63.3v21.5l-81.9 0.2v-26.9c0-7.1 2.7-13.9 7.8-19s11.8-7.9 18.9-8h77.2v21.5h-77.1c-1.9 0-3.1 1-3.7 1.6s-1.6 1.9-1.5 3.8v5.4l60.3-0.1zm-268.6 65h77.1c2.9 0 5.3-2.5 5.3-5.4 0.1-2.9-2.4-5.4-5.3-5.4h-14.1c-32.7 0-59.5-26.7-59.5-59.5 0-32.7 26.7-59.5 59.5-59.5h77v21.5h-77c-21 0-38 17.1-38.1 38 0 21 17.1 38 38 38h14.2c14.8 0.1 26.8 12.2 26.7 27 0 14.7-12.1 26.7-26.8 26.7h-0.1l-77 0.1 0.1-21.5zm-0.1 32.7h77 0.2c10.1 0 19.6-3.9 26.8-11 7.2-7.2 11.3-16.7 11.3-26.9 0.1-10.2-3.8-19.8-11-27s-16.7-11.3-26.9-11.3h-14.3c-14.9 0-26.9-12.1-26.9-26.9s12.1-26.8 26.9-26.8h77v21.5h-77c-2.9 0-5.3 2.4-5.3 5.3s2.4 5.3 5.3 5.3h14.4c15.9 0.1 30.8 6.4 42 17.7s17.4 26.3 17.3 42.1c-0.1 15.9-6.4 30.8-17.7 42s-26.2 17.3-41.9 17.3h-0.3-77l0.1-21.3zm-387.9 384.2c-0.2 0.1-0.2 0.2-0.4 0.2l-147 83.4c-0.5 0.3-1 0.4-1.5 0.4h-0.1-349-0.5-0.2c-0.1 0-0.3-0.1-0.4-0.1h-0.1-0.1c-0.1 0-0.1-0.1-0.2-0.1s-0.1-0.1-0.2-0.1-0.1-0.1-0.2-0.1-0.1-0.1-0.2-0.1-0.1-0.1-0.2-0.2l-0.2-0.2c0-0.1-0.1-0.1-0.1-0.2s-0.1-0.1-0.1-0.2-0.1-0.1-0.1-0.2-0.1-0.1-0.1-0.2v-0.1-0.1c0-0.1-0.1-0.1-0.1-0.2s0-0.2-0.1-0.2v-0.2-0.2-0.1-302.8s0 0 0 0c0-0.1 0-0.3 0.1-0.4 0-0.1 0-0.3 0.1-0.4 0-0.1 0.1-0.3 0.2-0.4 0-0.1 0.1-0.2 0.1-0.3l0.3-0.3c0.1-0.1 0.1-0.2 0.2-0.3l0.3-0.3c0.1-0.1 0.2-0.2 0.3-0.2l134.1-76h0.1c0.1-0.1 0.2-0.1 0.3-0.1s0.2-0.1 0.3-0.1 0.2 0 0.3-0.1h0.4 0.1 359.4c4.2 0 7.7 2.7 8.8 6.8s-0.6 8.2-4.3 10.3h-0.1c-0.1 0-0.1 0.1-0.2 0.1l-59.6 33.7-87.6 49.7c-0.5 0.3-1 0.4-1.5 0.4h-0.1-184.7v37.8h263.5c4.2 0 7.7 2.7 8.8 6.8 1 3.9-0.5 7.8-3.8 10-0.3 0.2-0.6 0.5-1 0.6l-147.1 83.3c-0.5 0.3-1 0.4-1.5 0.4-0.2 0-0.5 0-0.7-0.1h-118.2v43.7h329.3c4.2 0 7.7 2.7 8.8 6.8 1.1 4-0.6 8.1-4.3 10.2zm542.5 80.9v0.1 0.2 0.2c0 0.1 0 0.2-0.1 0.2 0 0.1 0 0.1-0.1 0.2v0.1 0.1c0 0.1-0.1 0.1-0.1 0.2s-0.1 0.1-0.1 0.2-0.1 0.1-0.1 0.2-0.1 0.1-0.1 0.2-0.1 0.1-0.2 0.2l-0.2 0.2c-0.1 0-0.1 0.1-0.2 0.1s-0.1 0.1-0.2 0.1-0.1 0.1-0.2 0.1-0.1 0.1-0.2 0.1h-0.1-0.1c-0.1 0-0.3 0.1-0.4 0.1h-0.2c-0.2 0-0.3 0-0.5 0.1h-161.2c-0.2 0-0.3 0-0.5-0.1h-0.2c-0.1 0-0.3-0.1-0.4-0.1h-0.1-0.1c-0.1 0-0.1-0.1-0.2-0.1s-0.1-0.1-0.2-0.1-0.1-0.1-0.2-0.1-0.1-0.1-0.2-0.1-0.1-0.1-0.2-0.2l-0.2-0.2c0-0.1-0.1-0.1-0.1-0.2s-0.1-0.1-0.1-0.2-0.1-0.1-0.1-0.2-0.1-0.1-0.1-0.2v-0.1-0.1c0-0.1-0.1-0.1-0.1-0.2s0-0.2-0.1-0.2v-0.2-0.2-0.1-147.7l-184.3-104.4v252.1 0.1 0.2 0.2c0 0.1 0 0.1-0.1 0.2 0 0.1 0 0.2-0.1 0.2v0.1 0.1c0 0.1-0.1 0.1-0.1 0.2s-0.1 0.1-0.1 0.2-0.1 0.1-0.1 0.2-0.1 0.1-0.1 0.2l-0.4 0.4c-0.1 0-0.1 0.1-0.2 0.1s-0.1 0.1-0.2 0.1-0.1 0.1-0.2 0.1-0.1 0.1-0.2 0.1h-0.1-0.1c-0.1 0-0.3 0.1-0.4 0.1h-0.2c-0.2 0-0.3 0-0.5 0.1h-161.2c-0.2 0-0.3 0-0.5-0.1h-0.2c-0.1 0-0.3-0.1-0.4-0.1h-0.1-0.1c-0.1 0-0.1-0.1-0.2-0.1s-0.1-0.1-0.2-0.1-0.1-0.1-0.2-0.1-0.1-0.1-0.2-0.1-0.1-0.1-0.2-0.2l-0.2-0.2c0-0.1-0.1-0.1-0.1-0.2s-0.1-0.1-0.1-0.2-0.1-0.1-0.1-0.2-0.1-0.1-0.1-0.2v-0.1-0.1c0-0.1-0.1-0.1-0.1-0.2s0-0.1-0.1-0.2v-0.2-0.2-0.1-378.5-0.1-0.2-0.2c0-0.1 0-0.1 0.1-0.2 0-0.1 0-0.2 0.1-0.2v-0.1-0.1c0-0.1 0.1-0.1 0.1-0.2s0.1-0.1 0.1-0.2 0.1-0.1 0.1-0.2 0.1-0.1 0.1-0.2l0.4-0.4c0.1 0 0.1-0.1 0.2-0.1s0.1-0.1 0.2-0.1 0.1-0.1 0.2-0.1 0.1-0.1 0.2-0.1h0.1 0.1c0.1 0 0.1-0.1 0.2-0.1s0.2 0 0.2-0.1h0.2 0.3 0.1 160.2 0.1 0.4c0.1 0 0.2 0 0.3 0.1 0.1 0 0.2 0.1 0.3 0.1s0.2 0.1 0.3 0.1h0.1l187 105.9v-103.3-0.1-0.2-0.2c0-0.1 0-0.1 0.1-0.2 0-0.1 0-0.2 0.1-0.2v-0.1-0.1c0-0.1 0.1-0.1 0.1-0.2s0.1-0.1 0.1-0.2 0.1-0.1 0.1-0.2 0.1-0.1 0.1-0.2l0.4-0.4c0.1 0 0.1-0.1 0.2-0.1s0.1-0.1 0.2-0.1 0.1-0.1 0.2-0.1 0.1-0.1 0.2-0.1h0.1 0.1c0.1 0 0.1-0.1 0.2-0.1s0.2 0 0.2-0.1h0.2 0.3 0.1 161.2 0.1 0.3 0.2c0.1 0 0.2 0 0.2 0.1 0.1 0 0.1 0 0.2 0.1h0.1 0.1c0.1 0 0.1 0.1 0.2 0.1s0.1 0.1 0.2 0.1 0.1 0.1 0.2 0.1 0.1 0.1 0.2 0.1 0.1 0.1 0.2 0.2l0.2 0.2c0 0.1 0.1 0.1 0.1 0.2s0.1 0.1 0.1 0.2 0.1 0.1 0.1 0.2 0.1 0.1 0.1 0.2v0.1 0.1c0 0.1 0.1 0.1 0.1 0.2s0 0.1 0.1 0.2v0.2 0.2 0.1 378.5zm-0.5-503.1v-64.9c0-32.8 26.8-59.5 59.5-59.5h77v21.5h-77c-21 0-38 17.1-38 38v64.9c0 21 17.1 38 38 38h77v21.5h-77c-32.9 0-59.5-26.7-59.5-59.5zm392.9 505.8c-0.2 0.1-0.3 0.1-0.5 0.2-0.1 0-0.1 0.1-0.2 0.1-0.2 0.1-0.5 0.1-0.7 0.1h-349c-0.2 0-0.3 0-0.5-0.1h-0.2c-0.1 0-0.3-0.1-0.4-0.1h-0.1-0.1c-0.1 0-0.1-0.1-0.2-0.1s-0.1-0.1-0.2-0.1-0.1-0.1-0.2-0.1-0.1-0.1-0.2-0.1-0.1-0.1-0.2-0.2l-0.2-0.2c0-0.1-0.1-0.1-0.1-0.2s-0.1-0.1-0.1-0.2-0.1-0.1-0.1-0.2-0.1-0.1-0.1-0.2v-0.1-0.1c0-0.1-0.1-0.1-0.1-0.2s0-0.2-0.1-0.2v-0.2-0.2-0.1-302.7s0 0 0 0c0-0.1 0-0.3 0.1-0.4 0-0.1 0-0.3 0.1-0.4 0-0.1 0.1-0.2 0.1-0.4 0.1-0.1 0.1-0.3 0.2-0.4s0.2-0.2 0.2-0.3c0.1-0.1 0.2-0.2 0.2-0.3l0.3-0.3c0.1-0.1 0.2-0.2 0.3-0.2l134.2-76h0.1c0.1-0.1 0.2-0.1 0.3-0.1s0.2-0.1 0.3-0.1 0.2 0 0.3-0.1h0.4 0.1 359.4c4.2 0 7.7 2.7 8.8 6.8s-0.6 8.2-4.3 10.3h-0.1c-0.1 0.1-0.2 0.1-0.3 0.2l-20.5 11.6-11.5 6.5h-0.1l-115 65.1h-0.1c-0.2 0.1-0.3 0.1-0.5 0.2-0.1 0-0.1 0.1-0.2 0.1-0.2 0.1-0.5 0.1-0.7 0.1h-184.7v37.8h263c0.4 0 0.9 0.1 1.3 0.1 3.9 0.3 7 2.9 8.1 6.7 1.1 4.1-0.6 8.2-4.3 10.3l-11.1 6.3-136.5 77.3c-0.5 0.3-1 0.4-1.5 0.4-0.2 0-0.5 0-0.7-0.1h-118.2v43.7h329.2c4.2 0 7.7 2.7 8.8 6.8s-0.6 8.2-4.3 10.3h-0.1c-0.1 0.1-0.2 0.1-0.3 0.2l-147.3 83.5c0.1 0 0.1 0 0 0zm676.3-367.2c-0.2 0.1-0.3 0.2-0.4 0.2l-147.1 83.3c-0.5 0.3-1 0.4-1.5 0.4h-0.1-241v37.8h348.6 0.1 0.2 0.2c0.1 0 0.2 0 0.2 0.1 0.1 0 0.1 0 0.2 0.1h0.1 0.1c0.1 0 0.1 0.1 0.2 0.1s0.1 0.1 0.2 0.1 0.1 0.1 0.2 0.1 0.1 0.1 0.2 0.1 0.1 0.1 0.2 0.2l0.2 0.2c0 0.1 0.1 0.1 0.1 0.2s0.1 0.1 0.1 0.2 0.1 0.1 0.1 0.2 0.1 0.1 0.1 0.2v0.1 0.1c0 0.1 0.1 0.2 0.1 0.2v0.2 0.2 0.2 0.2 163.6c0 0.1 0 0.3-0.1 0.4 0 0.1 0 0.3-0.1 0.4 0 0.1-0.1 0.2-0.2 0.4-0.1 0.1-0.1 0.3-0.2 0.4l-0.3 0.3c-0.1 0.1-0.1 0.2-0.2 0.3s-0.2 0.2-0.4 0.3c-0.1 0.1-0.2 0.1-0.3 0.2l-134.1 76h-0.1c-0.2 0.1-0.3 0.1-0.5 0.2-0.1 0-0.1 0.1-0.2 0.1-0.2 0.1-0.5 0.1-0.7 0.1h-415.7c-4.2 0-7.7-2.7-8.8-6.8s0.6-8.2 4.3-10.3l40.7-23.1h0.1l106.7-60.4h0.1c0.1-0.1 0.2-0.1 0.3-0.1s0.2-0.1 0.3-0.1 0.2 0 0.3-0.1h0.4 0.1 241v-43.7h-348.6c-0.2 0-0.3 0-0.5-0.1h-0.2c-0.1 0-0.3-0.1-0.4-0.1h-0.1-0.1c-0.1 0-0.1-0.1-0.2-0.1s-0.1-0.1-0.2-0.1-0.1-0.1-0.2-0.1-0.1-0.1-0.2-0.1-0.1-0.1-0.2-0.2l-0.2-0.2c0-0.1-0.1-0.1-0.1-0.2s-0.1-0.1-0.1-0.2-0.1-0.1-0.1-0.2-0.1-0.1-0.1-0.2v-0.1-0.1c0-0.1-0.1-0.1-0.1-0.2s0-0.1-0.1-0.2v-0.2-0.2-0.1-157.9s0 0 0 0c0-0.1 0-0.3 0.1-0.4 0-0.1 0-0.3 0.1-0.4 0-0.1 0.1-0.2 0.2-0.4 0.1-0.1 0.1-0.3 0.2-0.4l0.3-0.3c0.1-0.1 0.1-0.2 0.2-0.3s0.2-0.2 0.4-0.3c0.1-0.1 0.2-0.1 0.3-0.2l134.1-76h0.1c0.1-0.1 0.2-0.1 0.3-0.1s0.2-0.1 0.3-0.1 0.2 0 0.3-0.1h0.4 0.1 415.7c4.2 0 7.7 2.7 8.8 6.8 1.5 4-0.3 8.1-3.9 10.2zm173.5 364.5v0.1 0.2 0.2c0 0.1 0 0.1-0.1 0.2 0 0.1 0 0.2-0.1 0.2v0.1 0.1c0 0.1-0.1 0.1-0.1 0.2s-0.1 0.1-0.1 0.2-0.1 0.1-0.1 0.2-0.1 0.1-0.1 0.2l-0.4 0.4c-0.1 0.1-0.1 0.1-0.2 0.1s-0.1 0.1-0.2 0.1-0.1 0.1-0.2 0.1-0.1 0.1-0.2 0.1h-0.1-0.1c-0.1 0-0.3 0.1-0.4 0.1h-0.2c-0.2 0-0.3 0-0.5 0.1h-161.2c-0.2 0-0.3 0-0.5-0.1h-0.2c-0.1 0-0.3-0.1-0.4-0.1h-0.1-0.1c-0.1 0-0.1-0.1-0.2-0.1s-0.1-0.1-0.2-0.1-0.1-0.1-0.2-0.1-0.1-0.1-0.2-0.1-0.1-0.1-0.2-0.2l-0.2-0.2c0-0.1-0.1-0.1-0.1-0.2s-0.1-0.1-0.1-0.2-0.1-0.1-0.1-0.2-0.1-0.1-0.1-0.2v-0.1-0.1c0-0.1-0.1-0.1-0.1-0.2s0-0.1-0.1-0.2v-0.2-0.2-0.1-378.5-0.1-0.2-0.2-0.2c0-0.1 0-0.2 0.1-0.2v-0.1-0.1c0-0.1 0.1-0.1 0.1-0.2s0.1-0.1 0.1-0.2 0.1-0.1 0.1-0.2 0.1-0.1 0.1-0.2l0.2-0.2c0.1-0.1 0.1-0.1 0.2-0.1 0.1-0.1 0.1-0.1 0.2-0.1s0.1-0.1 0.2-0.1 0.1-0.1 0.2-0.1 0.1-0.1 0.2-0.1h0.1 0.1c0.1 0 0.1-0.1 0.2-0.1s0.2 0 0.2-0.1h0.2 0.3 0.1 161.2 0.1 0.2 0.2c0.1 0 0.2 0 0.2 0.1 0.1 0 0.2 0 0.2 0.1h0.1 0.1c0.1 0 0.1 0.1 0.2 0.1s0.1 0.1 0.2 0.1 0.1 0.1 0.2 0.1 0.1 0.1 0.2 0.1 0.1 0.1 0.2 0.1l0.2 0.2c0 0.1 0.1 0.1 0.1 0.2s0.1 0.1 0.1 0.2 0.1 0.1 0.1 0.2 0.1 0.1 0.1 0.2v0.1 0.1c0 0.1 0.1 0.2 0.1 0.2v0.2 0.2 0.2 0.1 378.5zm601.9-364.5c-0.2 0.1-0.2 0.2-0.4 0.2l-147.1 83.3h-0.1c-0.2 0.1-0.3 0.1-0.5 0.2-0.1 0-0.1 0.1-0.2 0.1-0.2 0.1-0.5 0.1-0.7 0.1h-241v37.8h348.6 0.1 0.3 0.2c0.1 0 0.2 0 0.2 0.1 0.1 0 0.1 0 0.2 0.1h0.1 0.1c0.1 0 0.1 0.1 0.2 0.1s0.1 0.1 0.2 0.1 0.1 0.1 0.2 0.1 0.1 0.1 0.2 0.1 0.1 0.1 0.2 0.2l0.2 0.2c0 0.1 0.1 0.1 0.1 0.2s0.1 0.1 0.1 0.2 0.1 0.1 0.1 0.2 0.1 0.1 0.1 0.2v0.1 0.1c0 0.1 0.1 0.1 0.1 0.2s0 0.1 0.1 0.2v0.2 0.2 0.1 163.6s0 0 0 0c0 0.1 0 0.2-0.1 0.4 0 0.1 0 0.3-0.1 0.4 0 0.1-0.1 0.2-0.1 0.3-0.1 0.1-0.1 0.3-0.2 0.4s-0.1 0.2-0.2 0.3l-0.3 0.3c-0.1 0.1-0.2 0.2-0.3 0.2-0.1 0.1-0.2 0.2-0.3 0.2l-133.4 75.5c-0.6 0.6-1.4 0.9-2.2 0.9h-415.3c-0.4 0-0.9-0.1-1.3-0.1-3.9-0.3-7-2.9-8.1-6.7-1.1-4.1 0.6-8.2 4.3-10.3l29.5-16.7s0.1 0 0.1-0.1l118-66.8h0.1c0.1-0.1 0.2-0.1 0.3-0.1s0.2-0.1 0.3-0.1 0.2 0 0.3-0.1h0.4 0.1 241v-43.7h-348.6c-0.2 0-0.3 0-0.5-0.1h-0.2c-0.1 0-0.3-0.1-0.4-0.1h-0.1-0.1c-0.1 0-0.1-0.1-0.2-0.1s-0.1-0.1-0.2-0.1-0.1-0.1-0.2-0.1-0.1-0.1-0.2-0.1-0.1-0.1-0.2-0.1l-0.2-0.2c0-0.1-0.1-0.1-0.1-0.2s-0.1-0.1-0.1-0.2-0.1-0.1-0.1-0.2-0.1-0.1-0.1-0.2v-0.1-0.1c0-0.1-0.1-0.2-0.1-0.2v-0.2-0.2-0.2-0.1-157.6s0 0 0 0c0-0.1 0-0.2 0.1-0.4 0-0.1 0-0.3 0.1-0.4 0-0.1 0.1-0.2 0.1-0.3 0.1-0.1 0.1-0.3 0.2-0.4s0.1-0.2 0.2-0.3l0.3-0.3c0.1-0.1 0.2-0.2 0.3-0.2 0.1-0.1 0.2-0.2 0.3-0.2l134.2-76h0.1c0.1-0.1 0.2-0.1 0.3-0.1s0.2-0.1 0.3-0.1 0.2 0 0.3-0.1h0.4 0.1 415.6c4.2 0 7.7 2.7 8.8 6.8 1.1 3.8-0.6 7.9-4.2 10z"/>
	

</svg>
