<?xml version="1.0" encoding="UTF-8"?>
<svg enable-background="new 0 0 3839 1565.4" version="1.1" viewBox="0 0 3839 1565.4" xml:space="preserve" xmlns="http://www.w3.org/2000/svg">
<style type="text/css">
	.st0{fill:#FFFFFF;}
</style>

	
		
			<path d="M462.1,1099.5V818.8h189.1v727.3H462.1V1248h-273v298.1H0V818.8h189.1v280.7H462.1z"/>
			<path d="M963.6,1546.1H774.5V818.8h189.1V1546.1z"/>
			<path d="m1506.7 818.8h234.4l-289.4 344.4 315.4 383h-245l-244-315.4h-1.9v315.4h-189.1v-727.4h189.1v300h1.9l228.6-300z"/>
			<polygon points="2258.1 818.8 2051.6 818.8 1771.9 1546.1 1972.5 1546.1 2152.9 1043.5 2154.9 1043.5 2330.4 1546.1 2532 1546.1"/>
			<path d="m3195.6 1546.1h-235.4l-178.5-279.7h-1.9v279.7h-189.1v-727.3h282.6c143.7 0 252.7 68.5 252.7 223.8 0 100.3-55.9 187.1-159.2 205.5l228.8 298zm-415.7-401.3h18.3c61.7 0 131.2-11.6 131.2-90.7s-69.5-90.7-131.2-90.7h-18.3v181.4z"/>
			<path d="m3839 818.8v409c0 93.6-3.9 186.2-76.2 256.6-60.8 59.8-156.3 81-241.2 81s-180.4-21.2-241.2-81c-72.4-70.4-76.2-163-76.2-256.6v-409h189.1v383c0 94.5 6.8 197.7 128.3 197.7s128.3-103.2 128.3-197.7v-383h189.1z"/>
		
	
	
		<path class="st0" d="m2777.7 125.9c-23.1-73.4-92.4-125.9-172.1-125.9s-149 52.5-172.1 125.9l-60.8 180.5v-295.9h-318.9c-56.7 0-109.1 23.1-149 60.8v-60.8h-327.3c-60.8 0-115.4 25.2-155.3 67.1v-67.1h-310.5c-132.2 0-241.3 109.1-241.3 241.3 0 63 25.2 121.7 65 163.7h-65v281.1h310.5c88.1 0 163.6-46.2 207.7-117.5 35.7 69.2 107 117.5 190.9 117.5h329.5v-60.8c37.8 37.8 90.2 60.8 149 60.8h910.6l-190.9-570.7z"/>
		
			
				<path d="m1180.9 465.8h-262.2v81.8h262.3c50.3 0 92.3-42 92.3-92.3s-42-92.3-92.3-92.3h-67.2c-60.8 0-111.2-50.3-111.2-111.2s50.4-111.2 111.2-111.2h260.2v-81.8h-262.2c-107 0-193 86-193 193s86 193 193 193h67.1c6.3 0 10.5 4.2 10.5 10.5s-4.3 10.5-8.5 10.5z"/>
				<path d="m1111.7 243.4h262.3v-83.9h-262.3c-50.3 0-92.3 42-92.3 92.3s42 92.3 92.3 92.3h67.1c60.8 0 111.2 50.3 111.2 111.2s-50.3 111.2-111.2 111.2h-260.1v81.8h262.3c107 0 193-86 193-193s-86-193-193-193h-67.2c-6.3 0-10.5-4.2-10.5-10.5 0-4.2 4.2-8.4 8.4-8.4z"/>
			
			
				<path d="m2053.8 159.5c-35.7 0-63 27.3-63 63v262.3c0 35.7 27.3 63 63 63h170v-184.8h-130.1v81.8h48.3v18.9h-48.3c-10.5 0-18.9-8.4-18.9-18.9v-184.6c0-10.5 8.4-18.9 18.9-18.9h232.9v-81.8h-272.8z"/>
				<path d="m2569.9 547.6h190.9l-130.1-386.1c-4.2-10.5-12.6-18.9-25.2-18.9-10.5 0-21 8.4-25.2 16.8l-167.8 488.9h96.5l58.8-174.1v73.5l2.1-0.1zm33.6-176.2 27.3 83.9h-56.7l29.4-83.9z"/>
				<path d="m2731.5 144.8c-16.8-54.5-67.1-96.5-128-96.5s-111.2 39.8-125.9 94.4l-153.1 449v-329.4h-230.8v81.8h151.1v222.4h-188.9c-46.2 0-81.8-37.8-81.8-81.8v-262.3c0-46.2 37.8-81.8 81.8-81.8h270.7v-81.8h-272.8c-90.2 0-163.6 73.5-163.6 163.6v262.3c0 90.2 73.5 163.6 163.6 163.6h337.8l170-493.1c6.3-18.9 23.1-31.5 44.1-31.5s37.8 12.6 44.1 31.5l138.5 411.2h-218.2v81.8h331.5l-170.1-503.4z"/>
			
			
				<path d="m1577.5 566.6c-46.2 0-81.8-37.8-81.8-81.8v-262.4c0-46.2 37.8-81.8 81.8-81.8h281.1v-81.8h-281.1c-90.2 0-163.6 73.5-163.6 163.6v262.3c0 90.2 73.5 163.6 163.6 163.6h281.1v-81.8l-281.1 0.1z"/>
				<path d="m1596.4 446.9h203.5v-81.8h-285.4v121.7c0 35.7 27.3 63 63 63h281.1v-81.9h-243.4c-10.4-2.1-18.8-10.5-18.8-21z"/>
				<path d="m1799.9 262.3h-203.5c0-10.5 8.4-18.9 18.9-18.9h241.3v-83.9h-279.1c-35.7 0-63 27.3-63 63v121.7h285.4v-81.9z"/>
			
		
	

</svg>
