<?xml version="1.0" encoding="UTF-8"?>
<svg enable-background="new 0 0 3839 1397.3" version="1.1" viewBox="0 0 3839 1397.3" xml:space="preserve" xmlns="http://www.w3.org/2000/svg">
<style type="text/css">
	.st0{fill:#FFFFFF;}
</style>

	<rect width="3839" height="1397.3"/>
	
		
			
				<polygon class="st0" points="543.7 1102 335.7 1102 335.7 591.3 420.1 591.3 420.1 506 147.3 506 147.3 591.3 235.6 591.3 235.6 1102 147.3 1102 147.3 1187.2 635.9 1187.2 635.9 870.2 543.7 870.2"/>
			
			
				<polygon class="st0" points="2439.2 1102 2260.6 835.1 2424.5 591.3 2507.8 591.3 2507.8 506 2251.8 506 2251.8 591.3 2329.3 591.3 2212.5 763.9 2097.7 591.3 2172.3 591.3 2172.3 506 1907.4 506 1904.4 506 1633.7 506 1633.7 591.3 1726.9 591.3 1726.9 1035.7 1724.9 1035.7 1436.5 506 1214.8 506 1208.8 506 948.9 506 948.9 591.3 1032.3 591.3 897.9 801 751.7 591.3 835.1 591.3 835.1 506 561.3 506 561.3 591.3 642.8 591.3 841 877.2 841 1102 751.7 1102 751.7 1187.2 1032.3 1187.2 1032.3 1102 941 1102 941 877.2 1126.5 591.3 1208.8 591.3 1214.8 591.3 1304 591.3 1304 1102 1208.8 1102 1208.8 1187.2 1482.6 1187.2 1482.6 1102 1386.4 1102 1386.4 612.4 1388.4 612.4 1704.3 1194.3 1809.3 1194.3 1809.3 591.3 1904.4 591.3 1907.4 591.3 1990.8 591.3 2159.5 844.1 1990.8 1102 1900.5 1102 1900.5 1187.2 2166.4 1187.2 2166.4 1102 2085.9 1102 2207.6 917.4 2329.3 1102 2251.8 1102 2251.8 1187.2 2525.5 1187.2 2525.5 1102"/>
			
		
		
			<rect x="2547.4" y="733.4" width="227.8" height="227.8"/>
			<rect class="st0" x="2547.4" y="700" width="227.8" height="33.4"/>
			<rect class="st0" x="2547.4" y="961.2" width="227.8" height="16.7"/>
			<rect class="st0" x="2514" y="733.4" width="33.4" height="227.8"/>
			<rect class="st0" x="2775.2" y="733.4" width="33.4" height="227.8"/>
		
		
			<rect x="2748.1" y="399.2" width="227.8" height="227.8"/>
			<rect class="st0" x="2748.1" y="365.8" width="227.8" height="33.4"/>
			<rect class="st0" x="2748.1" y="627.1" width="227.8" height="16.7"/>
			<rect class="st0" x="2714.7" y="399.2" width="33.4" height="227.8"/>
			<rect class="st0" x="2975.9" y="399.2" width="33.4" height="227.8"/>
		
		
			<rect x="3099.6" y="348.2" width="227.8" height="227.8"/>
			<rect class="st0" x="3099.6" y="314.8" width="227.8" height="33.4"/>
			<rect class="st0" x="3099.6" y="576.1" width="227.8" height="16.7"/>
			<rect class="st0" x="3066.2" y="348.2" width="33.4" height="227.8"/>
			<rect class="st0" x="3327.4" y="348.2" width="33.4" height="227.8"/>
		
		
			<rect x="3430.5" y="563" width="227.8" height="227.8"/>
			<rect class="st0" x="3430.5" y="529.6" width="227.8" height="33.4"/>
			<rect class="st0" x="3430.5" y="790.9" width="227.8" height="16.7"/>
			<rect class="st0" x="3397" y="563" width="33.4" height="227.8"/>
			<rect class="st0" x="3658.3" y="563" width="33.4" height="227.8"/>
		
		
			<rect x="2878.3" y="882" width="450.2" height="450.2"/>
			<rect class="st0" x="2878.3" y="847.3" width="450.2" height="34.7"/>
			<rect class="st0" x="2843.5" y="882" width="34.7" height="450.2"/>
			<rect class="st0" x="3328.5" y="882" width="34.7" height="450.2"/>
			<rect class="st0" x="2878.3" y="1332.2" width="450.2" height="17.4"/>
		
		
			<path class="st0" d="m995.6 289.6c14.2 27 29.1 54.7 44.6 83.1 2-3.8 4.9-9.3 8.8-16.5s8.3-15.4 13.3-24.6c5-9.3 10.4-19.3 16.2-30.1s11.6-21.7 17.5-32.8 11.8-22 17.7-32.6c5.8-10.7 11.3-20.7 16.3-29.9h3.9c2.2 19.3 4.3 38 6.2 56.1 1.9 18 3.9 35.8 5.9 53.2s4 34.7 6 51.7 4.2 33.9 6.7 50.6c-2.4-0.4-4.8-0.6-7.1-0.6h-7.1s-4.8 0-7.1 0-4.7 0.2-7.1 0.6c-2.2-26.8-4.4-52.8-6.7-78-2.2-25.2-4.9-50.9-8.2-77.1h-0.6c-13.9 25.4-27.6 50.6-40.9 75.7-13.4 25.1-26.1 51.3-38.2 78.7h-2.7c-12.1-25.4-24.7-50.8-37.9-76.3s-26.4-51.5-39.7-78.1h-0.6c-1.4 12.5-3 26-4.7 40.6s-3.3 29-4.7 43.2-2.6 27.6-3.6 40.2-1.5 22.9-1.5 31c-3.2-0.4-6.8-0.6-10.6-0.6s-7.4 0.2-10.6 0.6c2.6-16.3 5.3-33.5 8.2-51.7 2.8-18.1 5.5-36.4 8.2-54.7 2.6-18.3 5-36.4 7.2-54.2s4.1-34.8 5.7-50.9h5.1c13.8 28.6 27.9 56.4 42.1 83.4z"/>
			<path class="st0" d="m1190.7 288.4c0-13.3-0.3-26.3-0.8-39.1s-1.1-25.8-1.7-39.1c4.8 0.4 9.7 0.8 14.7 1.1 4.9 0.3 9.8 0.4 14.7 0.4 2.4 0 5.3-0.1 8.8-0.3 3.4-0.2 6.9-0.3 10.4-0.4s6.9-0.2 10.1-0.4 5.9-0.3 8.2-0.3c3 0 6.8 0.1 11.2 0.3s9.1 0.8 14.1 1.8c4.9 1 9.8 2.5 14.7 4.5 4.8 2 9.2 4.9 13.2 8.8 3.9 3.8 7.1 8.6 9.5 14.4 2.4 5.7 3.6 12.8 3.6 21.3 0 13.3-2.9 24.1-8.6 32.3-5.7 8.3-12.8 14.7-21.2 19.3s-17.2 7.8-26.6 9.4-17.7 2.4-24.9 2.4c-4.6 0-8.9 0-12.7-0.1s-7.8-0.4-11.8-0.8v16.6c0 13.3 0.2 26.4 0.8 39.3 0.5 12.9 1.1 25.6 1.7 38.1-4.6-0.4-9.6-0.6-14.8-0.6s-10.2 0.2-14.8 0.6c0.6-12.5 1.2-25.2 1.7-38.1s0.8-26 0.8-39.3l-0.3-52.1zm24.7 22.7c6.8 1.6 14 2.4 21.5 2.4 6.2 0 12.7-0.7 19.3-2.1 6.7-1.4 12.7-4 18.3-7.7 5.5-3.7 10.1-8.9 13.6-15.4s5.3-15 5.3-25.2c0-8.7-1.2-15.7-3.6-21.2s-5.8-9.7-10.1-12.7-9.6-5.1-15.9-6.2c-6.2-1.1-13.3-1.7-21.2-1.7h-27.2v89.8z"/>
			<path class="st0" d="m1504.1 308.3c0-28.6-0.1-50.7-0.3-66.2s-0.7-26.2-1.5-32c2.2 0.4 4.3 0.8 6.3 1.1s4 0.4 6 0.4c2.6 0 5.6-0.5 9.1-1.5-0.6 7.1-1.2 15.5-1.8 25.2-0.6 9.8-1.1 20.2-1.5 31.4s-0.8 22.7-1.2 34.4c-0.4 11.8-0.7 23.2-0.9 34.3-0.2 13.5-2.3 25.6-6.2 36.3s-9.5 19.8-16.8 27.2c-7.2 7.5-16.2 13.1-26.8 16.9s-22.7 5.7-36.4 5.7c-30.2 0-52.2-6.9-65.9-20.6s-20.6-35.4-20.6-65c0-9.5 0.2-17.9 0.8-25.2 0.5-7.3 0.8-14.9 0.8-22.5 0-16.9-0.2-31.9-0.6-45s-0.8-24.2-1.2-33.2c2.4 0.4 5 0.8 7.9 1.1 2.8 0.3 5.4 0.4 7.9 0.4 2.2 0 4.4-0.2 6.5-0.4 2.1-0.3 4.3-0.7 6.5-1.1-0.4 4.4-0.8 10.2-1.2 17.4-0.4 7.1-0.8 15.3-1.2 24.3-0.4 9.1-0.7 18.8-0.9 29.3s-0.3 21.4-0.3 32.6c0 6.9 0.1 14 0.3 21.3 0.2 7.4 0.9 14.5 2.1 21.5 1.2 6.9 3.2 13.6 5.9 19.9 2.7 6.4 6.6 11.9 11.6 16.6s11.4 8.5 19 11.2c7.7 2.7 17.1 4.1 28.4 4.1 11.1 0 20.4-1.6 28-4.8s13.8-7.4 18.6-12.7c4.8-5.2 8.6-11.3 11.3-18.1s4.7-14 5.9-21.5 1.9-14.9 2.1-22.4c0.2-7.3 0.3-14.1 0.3-20.4z"/>
			<path class="st0" d="m1610.8 225.8c-5.2 0-10.7 0-16.5 0.1s-11.5 0.3-17.2 0.6-11.3 0.7-16.6 1.1-10.1 0.9-14.4 1.5c1-3.6 1.5-6.9 1.5-9.7 0-2.2-0.5-5.3-1.5-9.4 13.3 0.4 26.3 0.8 39 1.1s25.7 0.4 39 0.4 26.3-0.1 39-0.4 25.7-0.7 39-1.1c-1 4-1.5 7.2-1.5 9.7 0 2.6 0.5 5.7 1.5 9.4-4.2-0.6-9-1.1-14.4-1.5-5.3-0.4-10.9-0.8-16.6-1.1s-11.5-0.5-17.2-0.6-11.2-0.1-16.5-0.1c-0.6 20.8-0.9 41.6-0.9 62.6v52c0 13.3 0.2 26.4 0.8 39.3 0.5 12.9 1.1 25.6 1.7 38.1-4.6-0.4-9.6-0.6-14.8-0.6s-10.2 0.2-14.8 0.6c0.6-12.5 1.2-25.2 1.7-38.1s0.8-26 0.8-39.3v-52c-0.2-21-0.6-41.8-1.1-62.6z"/>
			<path class="st0" d="m1724.8 248.8c-0.5-12.9-1.1-25.8-1.7-38.7 9.1 0.4 18.1 0.8 27.1 1.1s18 0.4 27.1 0.4 18-0.1 26.9-0.4 17.8-0.6 26.9-1.1c-0.6 3-0.9 6-0.9 9.1s0.3 6 0.9 9.1c-6.4-0.4-12.3-0.8-17.7-1.2-5.3-0.4-11-0.8-16.9-1.2s-12.4-0.8-19.5-1.1-15.5-0.4-25.4-0.4c-0.2 6.4-0.4 12.6-0.8 18.4-0.3 5.8-0.4 12.5-0.4 19.9 0 7.9 0.1 15.5 0.2 23s0.2 13.1 0.2 16.9c8.9 0 16.8-0.1 23.9-0.3s13.5-0.4 19.3-0.8c5.8-0.3 11.2-0.6 16.2-0.9 4.9-0.3 9.6-0.7 14.1-1.1-0.6 3-0.9 6.1-0.9 9.4 0 3 0.3 6 0.9 9.1-5.2-0.6-11.3-1.1-18.3-1.5-6.9-0.4-13.9-0.6-20.8-0.8-6.9-0.1-13.5-0.2-19.6-0.3-6.2-0.1-11-0.2-14.7-0.2 0 1.8-0.1 3.8-0.2 5.9s-0.2 4.8-0.2 8v30c0 11.5 0.1 21 0.2 28.4 0.1 7.5 0.2 13.1 0.4 16.9h21.2c7.7 0 15.2-0.1 22.5-0.5 7.3-0.3 14.3-0.7 20.8-1.2 6.6-0.5 12.2-1.3 17.1-2.3-0.4 1.4-0.7 3-0.8 4.7s-0.2 3.3-0.2 4.7c0 3.2 0.3 5.9 0.9 7.9-9.1-0.4-18.1-0.6-27.1-0.6s-18.1 0-27.3 0h-27.5s-18.2 0.2-27.5 0.6c0.6-12.9 1.2-25.7 1.7-38.5s0.8-25.8 0.8-39.1v-52c-0.1-13.3-0.4-26.4-0.9-39.3z"/>
			<path class="st0" d="m1864.6 288.4c0-13.3-0.3-26.3-0.8-39.1s-1.1-25.8-1.7-39.1c5.8 0.4 11.6 0.8 17.2 1.1s11.4 0.4 17.2 0.4 11.6-0.2 17.2-0.8c5.6-0.5 11.4-0.8 17.2-0.8 8.5 0 16.5 0.8 24.2 2.4s14.4 4.3 20.1 8 10.3 8.6 13.6 14.7c3.3 6 5 13.6 5 22.7 0 9.7-2.2 18-6.5 24.9-4.3 7-9.6 12.7-15.9 17.2-6.2 4.5-12.9 8.1-20.1 10.6s-13.7 4.2-19.5 5c2.4 3 5.7 7.2 10 12.7s9 11.4 14.2 18 10.7 13.4 16.3 20.6c5.6 7.1 11.1 14 16.3 20.5 5.2 6.6 10.2 12.5 14.8 18 4.6 5.4 8.4 9.6 11.2 12.4-3-0.4-6-0.6-9.1-0.6h-9.1-8.8s-5.9 0.2-8.8 0.6c-3-4.2-7.6-10.6-13.8-19-6.2-8.5-12.9-17.5-20.4-27.2s-15.1-19.3-22.8-28.9c-7.8-9.6-14.9-17.7-21.3-24.3h-11.5v22.1c0 13.3 0.2 26.4 0.8 39.3 0.5 12.9 1.1 25.6 1.7 38.1-4.6-0.4-9.6-0.6-14.8-0.6s-10.2 0.2-14.8 0.6c0.6-12.5 1.2-25.2 1.7-38.1s0.8-26 0.8-39.3l0.2-52.1zm24.8 17.2c2.8 0.6 5.9 1 9.2 1.2s7 0.3 11 0.3c6.2 0 12.7-0.7 19.5-2.1s12.9-3.9 18.6-7.4c5.6-3.5 10.3-8.3 14.1-14.2 3.7-5.9 5.6-13.5 5.6-22.5 0-7.9-1.5-14.4-4.4-19.5s-6.7-9.2-11.3-12.2-9.7-5.1-15.1-6.2-10.8-1.7-16-1.7c-7.1 0-12.9 0.1-17.5 0.4s-8.6 0.7-11.8 1.1c-0.4 11.1-0.8 22.1-1.2 32.9-0.4 10.9-0.6 21.8-0.6 32.6l-0.1 17.3z"/>
			<path class="st0" d="m2037 389.5c2.7 3.7 6 7.1 10 10.1 3.9 3 8.5 5.5 13.8 7.4 5.2 1.9 11.1 2.9 17.5 2.9 6.6 0 12.6-1.2 18-3.5 5.3-2.3 9.9-5.4 13.6-9.4s6.6-8.6 8.6-13.9 3-11 3-17.1c0-9.3-2.4-16.6-7.1-22.1-4.7-5.4-10.6-10-17.7-13.6s-14.7-6.9-22.8-10c-8.2-3-15.8-6.8-22.8-11.3s-12.9-10.3-17.7-17.4c-4.7-7-7.1-16.5-7.1-28.4 0-8.5 1.5-16.2 4.5-23.1s7.4-12.9 13.2-18c5.7-5 12.6-9 20.7-11.8s17.1-4.2 27.2-4.2c9.7 0 18 1.2 25.1 3.5s13.6 5.9 19.6 10.7c-1.8 3.4-3.3 7.1-4.5 10.9s-2.4 8.7-3.6 14.5h-3.6c-1-2.8-2.4-5.9-4.1-9.2s-4-6.4-6.9-9.2-6.4-5.2-10.4-7.1-8.9-2.9-14.5-2.9-10.8 0.9-15.6 2.7c-4.7 1.8-8.9 4.4-12.4 7.7s-6.2 7.3-8.2 11.9c-1.9 4.6-2.9 9.7-2.9 15.1 0 9.5 2.4 16.9 7.1 22.4s10.6 10 17.7 13.8c7.1 3.7 14.7 7.1 22.8 10 8.2 2.9 15.8 6.5 22.8 10.7 7.1 4.2 12.9 9.7 17.7 16.3 4.7 6.7 7.1 15.5 7.1 26.6 0 9.3-1.7 18-5 26.3s-8.2 15.5-14.5 21.6c-6.4 6.1-14.1 10.9-23.3 14.2s-19.6 5-31.3 5c-12.5 0-22.6-1.7-30.4-5s-14.3-7.1-19.5-11.3c1.8-4.6 3.1-8.8 3.8-12.5s1.4-8.5 2-14.4h3.6c1.7 3.7 3.8 7.4 6.5 11.1z"/>
		
		
			<path class="st0" d="m866.5 395.8c-4.1-9.3-8.8-19.8-13.9-31.6s-10.6-24.5-16.5-38.2c-5.8-13.7-11.7-27.5-17.5-41.4s-11.6-27.6-17.2-41.2-10.9-26.3-15.7-37.9h-5.7c-15.7 36.1-31.3 71.5-46.8 106.4s-55.8 118.2-72.2 153.5h28c2.6-9.3 25.4-69.3 30.6-83.5s11.1-29.2 17.5-44.9l5.8-13.9 32.9-76.8s25.6 57.4 33.5 76.8c9.5 23.2 89.2 227.1 90.6 231.8 2.8-0.4 12.2-48 15.1-47.6-2.8-5.1-44.4-102.2-48.5-111.5z"/>
		
		
			<path class="st0" d="m633.7 409.8c-3.9 1.9-8.7 3.6-14.2 5.1s-11.7 2.9-18.6 4.1c-6.8 1.2-14 1.8-21.5 1.8-15.9 0-30.6-2.3-44.1-6.8s-25.1-11.4-34.9-20.7-17.4-20.6-23-34-8.3-28.7-8.3-45.8 2.8-32.4 8.3-45.8 13.3-24.7 23.3-34 21.9-16.3 35.8-21.2c13.9-4.8 29.2-7.2 45.9-7.2 13.3 0 25.4 1.4 36.4 4.1s20.7 6 29.2 9.8c-1.6 2.8-2.9 6.7-3.9 11.5s-1.8 8.9-2.4 12.1l-1.8 0.6c-2-2.4-4.8-5.1-8.5-8.2-3.6-3-7.9-5.9-12.7-8.8-4.8-2.8-10.3-5.2-16.3-7.1s-12.7-2.9-20-2.9c-11.9 0-22.9 1.9-33.1 5.7s-19 9.7-26.6 17.7-13.5 18-17.7 30.2-6.4 26.7-6.4 43.4 2.1 31.2 6.4 43.4 10.1 22.3 17.7 30.2c7.6 8 16.4 13.9 26.6 17.7s21.2 5.7 33.1 5.7c7.2 0 14-0.9 20.1-2.7s11.8-4 16.9-6.5 9.8-5.2 13.9-8.2c4.1-2.9 7.6-5.5 10.4-7.7l1.2 1.2-2.7 17.8c-1.7 1.9-4.6 3.6-8.5 5.5z"/>
		
		
			<rect class="st0" x="941.1" y="450.5" width="1737.4" height="14.7"/>
		
		
			<rect class="st0" x="3397.1" y="450.5" width="441.9" height="14.7"/>
		
		
			<rect class="st0" y="450.5" width="683.7" height="14.7"/>
		
		<polygon class="st0" points="897.2 545.7 910.7 554.7 952.2 450.5 935.1 450.5"/>
		<rect class="st0" x="899.8" y="543.8" width="10.9" height="10.9"/>
	

</svg>
