<?xml version="1.0" encoding="UTF-8"?>
<svg enable-background="new 0 0 3839 1424.3" version="1.1" viewBox="0 0 3839 1424.3" xml:space="preserve" xmlns="http://www.w3.org/2000/svg">
<style type="text/css">
	.st0{fill:url(#SVGID_1_);}
	.st1{fill:#FFFFFF;}
	.st2{fill:url(#SVGID_00000103948278464797492910000003440026176595456949_);}
	.st3{fill:url(#SVGID_00000124866464535724407890000000464830875843021461_);}
	.st4{fill:url(#SVGID_00000031207083975180100870000013760341173438714538_);}
	.st5{fill:url(#SVGID_00000101799430374029778830000017257566041085802388_);}
	.st6{fill:url(#SVGID_00000026149408272113015240000002738270057410224044_);}
	.st7{fill:url(#SVGID_00000049920934475769642230000018043537713158087831_);}
	.st8{fill:url(#SVGID_00000010285217823442644860000011282528560513619375_);}
	.st9{fill:url(#SVGID_00000009566358162150500340000015297957314152453763_);}
	.st10{fill:url(#SVGID_00000162323936936650263080000010352822251339677319_);}
	.st11{fill:url(#SVGID_00000072999315773574029600000002090817071581118638_);}
	.st12{fill:url(#SVGID_00000138565040605362281760000018296880841461222829_);}
	.st13{fill:url(#SVGID_00000096019273551009081740000016447270057393415348_);}
	.st14{fill:url(#SVGID_00000046321302172650993170000000141581969223043208_);}
	.st15{fill:url(#SVGID_00000136373266161981490270000005003959677970525106_);}
	.st16{fill:url(#SVGID_00000165920383566574516150000016449624270687397542_);}
</style>

	
		
			<path class="st1" d="m3817.4 744.6c-14.1-34-33.3-63.9-57.2-89-23.9-25.2-52.1-45.4-83.5-60.1-32.4-15.1-66.6-22.7-101.5-22.7h-1182.3c-34.9 0-69 7.7-101.5 22.7-31.5 14.7-59.6 34.9-83.5 60-16.8 17.7-31.3 37.8-43.3 60-10.5-29.3-25.3-54.4-44.5-74.8-23.4-24.8-53.2-42.8-88.5-53.6-31.5-9.6-68.7-14.4-110.8-14.4h-345.3v83.5c-4.1-5.4-8.4-10.6-12.9-15.4-23.4-24.8-53.2-42.9-88.5-53.6-31.5-9.6-68.7-14.4-110.8-14.4h-97.6c-41.6 0-78.5 4.9-109.8 14.5-34.8 10.7-64.5 28.6-88.1 53.3-23.3 24.3-40.6 55.6-51.3 92.8-9.7 33.7-14.6 74.6-14.6 121.4v157l-113.5-321.1c-5.1-15.1-12.5-29.7-22-43.4-9.7-14-21.6-26.7-35.5-37.7-14.5-11.5-31.6-20.7-50.6-27.2-18.8-6.4-39.6-9.6-62-9.6-23.2 0-44.2 3.3-62.5 9.9-18.4 6.6-34.8 15.9-48.9 27.7-12.3 10.3-23.2 22.1-32.4 35-9.3-13.1-20.5-25-33.3-35.5-14.2-11.5-30.5-20.7-48.7-27.3-18.3-6.6-39.3-9.9-62.5-9.9-23 0-44.1 3.3-62.6 9.7-18.7 6.5-35.5 15.6-50 27.1-14.1 11.2-26.1 24.2-35.6 38.5-8.7 13.1-15.9 26.9-21.3 41.2l-260.5 735h340.8l92.4-280.4 105.2 280.4h71.6l105.9-282.4 95.8 282.4h336.7l-7.3-20.7c4.6 1.9 9.4 3.6 14.2 5.2 31.5 10.3 68.7 15.5 110.6 15.5h97.6c42.4 0 79.9-5.2 111.6-15.5 35-11.3 64.6-29.8 87.9-54.7 4.5-4.8 8.7-10 12.7-15.3v85.5h345.3c42.4 0 79.9-5.2 111.6-15.5 35-11.3 64.6-29.8 87.9-54.7 18.7-20.1 33.4-44.8 43.7-73.5 12.1 22.6 26.8 43 43.8 60.9 24 25.2 52.1 45.4 83.5 60.1 32.4 15.1 66.6 22.8 101.5 22.8h340.7v-116.5c8.3 12 17.3 23.3 27.2 33.6 24 25.2 52.1 45.4 83.5 60.1 32.4 15.1 66.6 22.8 101.5 22.8h629.5c34.9 0 69.1-7.7 101.5-22.7 31.5-14.6 59.6-34.8 83.5-60.1 23.9-25.1 43.1-55.1 57.2-89 14.3-34.4 21.5-71.4 21.5-110.2v-287.5c-0.2-38.8-7.4-75.8-21.7-110.2zm-524.9 346h-259.2v-0.8h-14.5v-183.4h273.7v184.2z"/>
			<path d="m1627.3 854.7v-101.4h293.6c17.8 0 32.4 2.4 43.8 7.2s20.5 11.6 27.1 20.2c6.6 8.7 11.2 18.8 13.7 30.5s3.8 24.2 3.8 37.4v299.7c0 17.8-1.3 32.7-3.8 44.6-2.5 12-7 21.7-13.3 29.4-6.4 7.6-15.3 13.1-26.7 16.4s-26.1 5-43.8 5h-170.8v-364.5h106.8v243.3c0 13.2 6.4 19.8 19.1 19.8h16.8c6.1 0 11.1-1.8 14.9-5.3 3.8-3.6 5.7-8.4 5.7-14.5v-247.9c0-6.1-1.9-10.9-5.7-14.5-3.8-3.5-8.8-5.3-14.9-5.3l-266.3-0.1zm353 408.4c13.2-5.3 24-12.8 32.4-22.5s14.5-21.1 18.3-34.3 5.7-27.5 5.7-42.7v-330.2c0-15.3-1.9-29.5-5.7-42.7s-9.9-24.7-18.3-34.3c-8.4-9.7-19.3-17.2-32.8-22.5s-29.9-8-49.2-8h-303.5v-101.5h293.6c37.1 0 69 4.1 95.7 12.2s48.7 21.4 66 39.7 30 42.1 38.1 71.3 12.2 65 12.2 107.1v287.5c0 40.7-4.1 75.6-12.2 104.9-8.1 29.2-20.9 53.1-38.1 71.7-17.3 18.6-39.3 32.2-66 40.8-26.7 8.7-58.6 13-95.7 13h-293.6v-493.4h96.1v392h208.2c19.3-0.1 35.6-2.7 48.8-8.1z"/>
			<path d="m3787.2 1142.3c0 32-5.8 62.2-17.5 90.4s-27.3 52.6-46.9 73.2-42.2 36.9-67.9 48.8c-25.7 12-52.2 17.9-79.7 17.9h-311v-101.4h298.8c19.3 0 36.6-3.8 51.9-11.4s28.1-17.5 38.5-29.7 18.4-26 24-41.6c5.6-15.5 8.4-30.9 8.4-46.1v-287.6c0-15.3-2.8-30.6-8.4-46.1s-13.6-29.4-24-41.6-23.3-22.1-38.5-29.7c-15.3-7.6-32.5-11.4-51.9-11.4h-544.1v-101.6h556.3c27.5 0 54 6 79.7 17.9 25.7 12 48.3 28.2 67.9 48.8s35.2 45 46.9 73.2 17.5 58.3 17.5 90.4v287.6zm-443-156.4v-100.6h221.2v-10.7c0-6.1-1.6-10.9-5-14.5-3.3-3.5-6.5-5.3-9.5-5.3h-531.9v-101.5h534.1c17.8 0 33.3 3.6 46.5 10.7s24.2 16.3 32.8 27.5c8.7 11.2 15.1 23.8 19.4 37.7 4.3 14 6.5 27.6 6.5 40.8v115.9h-314.1zm314.1 141.1c0 13.2-2.2 26.8-6.5 40.8s-10.8 26.6-19.4 37.7c-8.6 11.2-19.6 20.3-32.8 27.5-13.2 7.1-28.7 10.7-46.5 10.7h-291.6v-101.4h289.3c3.1 0 6.2-1.8 9.5-5.3 3.3-3.6 5-8.4 5-14.5v-9.9h-221.2v-101.4h314.2v115.8z"/>
			<path d="m574.2 1037.8-109.1-292.1c-2-5.1-6.4-9.7-13-13.7-6.6-4.1-14-6.1-22.1-6.1-7.1 0-14.5 2-22.1 6.1s-12.2 8.7-13.7 13.7l-219.6 626.9h-101.5l235.6-665c4.1-10.7 9.4-21 16-30.9s14.9-18.8 24.8-26.7 21.5-14.1 34.7-18.7 28.5-6.9 45.8-6.9 32.3 2.3 45 6.9 23.9 10.8 33.6 18.7 17.9 16.8 24.8 26.7 12.8 20.2 17.9 30.9l22.9 45.8 22.9-45.8c5.6-10.7 11.8-21 18.7-30.9s15-18.8 24.4-26.7 20.5-14.1 33.2-18.7 27.7-6.9 45-6.9c16.8 0 31.9 2.3 45.4 6.9s25.2 10.8 35.1 18.7 18.3 16.8 25.2 26.7 12.1 20.2 15.6 30.9l235.6 665h-101.5l-219.7-626.9c-1.5-5.1-6.1-9.7-13.7-13.7-7.6-4.1-15-6.1-22.1-6.1-8.1 0-15.5 2-22.1 6.1s-10.9 8.7-13 13.7l-109 292.1zm0 334.8-144.2-384.4-126.6 384.4h-101.4l209-607.8c1-3.1 3.6-5.7 7.6-8 4.1-2.3 7.9-3.4 11.4-3.4 3.6 0 7.2 1.1 11.1 3.4 3.8 2.3 6.2 5 7.2 8l125.8 347 125.8-347c1-3.1 3.4-5.7 7.2-8s7.5-3.4 11.1-3.4c3.5 0 7.4 1.1 11.4 3.4 4.1 2.3 6.6 5 7.6 8l209 607.8h-97.6l-130.3-384.4-144.1 384.4z"/>
			<path d="m1171.3 1359.6c-26.4-8.6-48.4-22.2-66-40.8-17.5-18.6-30.5-42.4-38.9-71.7-8.4-29.2-12.6-64.2-12.6-104.9v-287.5c0-42.2 4.2-77.9 12.6-107.1s21.4-53 38.9-71.3 39.5-31.5 66-39.7c26.4-8.1 58-12.2 94.6-12.2h97.6c37.1 0 69 4.1 95.7 12.2s48.7 21.4 66 39.7 30 42.1 38.1 71.3 12.2 65 12.2 107.1v287.5c0 40.7-4.1 75.6-12.2 104.9-8.1 29.2-20.9 53.1-38.1 71.7-17.3 18.6-39.3 32.2-66 40.8-26.7 8.7-58.6 13-95.7 13h-97.6c-36.7 0-68.2-4.4-94.6-13zm202.8-88.5c19.3 0 35.6-2.7 48.8-8s24-12.8 32.4-22.5 14.5-21.1 18.3-34.3 5.7-27.5 5.7-42.7v-330.2c0-15.3-1.9-29.5-5.7-42.7s-9.9-24.7-18.3-34.3c-8.4-9.7-19.3-17.2-32.8-22.5s-29.9-8-49.2-8h-117.4c-19.3 0-35.7 2.7-49.2 8s-24.4 12.8-32.8 22.5-14.5 21.1-18.3 34.3-5.7 27.5-5.7 42.7v330.2c0 15.3 1.9 29.5 5.7 42.7s9.9 24.7 18.3 34.3c8.4 9.7 19.2 17.2 32.4 22.5s29.5 8 48.8 8h59.5 59.5zm-109-27.4c-17.8 0-32.4-1.6-43.8-5-11.4-3.3-20.3-8.8-26.7-16.4s-10.8-17.4-13.3-29.4c-2.5-11.9-3.8-26.8-3.8-44.6v-299.7c0-13.2 1.3-25.7 3.8-37.4s7.1-21.9 13.7-30.5 15.6-15.4 27.1-20.2c11.4-4.8 26-7.2 43.8-7.2h97.6c17.8 0 32.4 2.4 43.8 7.2s20.5 11.6 27.1 20.2c6.6 8.7 11.2 18.8 13.7 30.5s3.8 24.2 3.8 37.4v299.7c0 17.8-1.3 32.7-3.8 44.6-2.6 12-7 21.7-13.3 29.4-6.4 7.6-15.3 13.1-26.7 16.4s-26.1 5-43.8 5h-99.2zm74-101.4c6.1 0 10-1.8 11.8-5.3 1.8-3.6 2.7-8.4 2.7-14.5v-247.9c0-6.1-0.9-10.9-2.7-14.5-1.8-3.5-5.7-5.3-11.8-5.3h-48.8c-6.1 0-10 1.8-11.8 5.3-1.8 3.6-2.7 8.4-2.7 14.5v247.8c0 6.1 0.9 10.9 2.7 14.5s5.7 5.3 11.8 5.3l48.8 0.1z"/>
			<path d="m2180.9 854.7c0-32 5.8-62.2 17.5-90.4s27.3-52.6 46.9-73.2 42.2-36.9 67.9-48.8 52.2-17.9 79.7-17.9h289v101.4h-276.8c-19.3 0-36.6 3.8-51.9 11.4s-28.1 17.5-38.5 29.7-18.4 26.1-24 41.6-8.4 30.9-8.4 46.1v287.5c0 15.3 2.8 30.6 8.4 46.1s13.6 29.4 24 41.6 23.3 22.1 38.5 29.7c15.3 7.6 32.5 11.4 51.9 11.4h276.8v101.4h-289c-27.5 0-54-6-79.7-17.9s-48.3-28.2-67.9-48.8-35.2-45-46.9-73.2-17.5-58.3-17.5-90.4v-287.3zm128.8 131.2v-115.9c0-13.2 2.2-26.8 6.5-40.8s10.8-26.6 19.4-37.7c8.6-11.2 19.6-20.3 32.8-27.5 13.2-7.1 28.7-10.7 46.5-10.7h267v101.4h-264.6c-3.1 0-6.2 1.8-9.5 5.3-3.3 3.6-5 8.4-5 14.5v10.7h221.1v100.7h-314.2zm0 25.2h314.2v101.4h-221.2v9.9c0 6.1 1.6 10.9 5 14.5 3.3 3.6 6.5 5.3 9.5 5.3h264.7v101.4h-266.9c-17.8 0-33.3-3.6-46.5-10.7s-24.2-16.3-32.8-27.5c-8.7-11.2-15.1-23.8-19.4-37.7-4.3-14-6.5-27.6-6.5-40.8v-115.8h-0.1z"/>
			<path d="m3255.2 1372.6h-309.4c-27.5 0-54-6-79.7-17.9s-48.3-28.2-67.9-48.8-35.2-45-46.9-73.2-17.5-58.3-17.5-90.4v-517.9h101.4v517.8c0 15.3 2.8 30.6 8.4 46.1s13.6 29.4 24 41.6 23.3 22.1 38.5 29.7c15.3 7.6 32.5 11.4 51.9 11.4h297.2v101.6zm-273.6-230.3h269v101.4h-282.7c-17.8 0-33.3-3.6-46.5-10.7s-24.2-16.3-32.8-27.5c-8.7-11.2-15.1-23.8-19.4-37.7-4.3-14-6.5-27.6-6.5-40.8v-502.6h104.5v498c0 6.1 1.6 10.8 5 14.1 3.3 3.3 6.5 5 9.5 5v0.8h-0.1z"/>
			<rect class="st1" x="3240.8" y="1117.3" width="51.7" height="290.6"/>
		
		
			<path class="st1" d="m2486 81.5c-15-47.5-59.8-81.5-111.5-81.5-51.6 0-96.5 34-111.4 81.5l-39.4 116.9v-191.6h-206.6c-36.7 0-70.7 14.9-96.5 39.4v-39.4h-212c-39.4 0-74.7 16.3-100.6 43.5v-43.5h-201c-85.6 0-156.3 70.7-156.3 156.3 0 40.8 16.3 78.8 42.1 106h-42.1v182.1h201.1c57.1 0 106-29.9 134.5-76.1 23.1 44.8 69.3 76.1 123.7 76.1h213.4v-39.4c24.5 24.5 58.4 39.4 96.5 39.4h589.8l-123.7-369.7z"/>
			
				
					<path d="m1451.9 301.7h-169.9v53h169.9c32.6 0 59.8-27.2 59.8-59.8s-27.2-59.8-59.8-59.8h-43.5c-39.4 0-72-32.6-72-72s32.6-72 72-72h168.5v-53h-169.9c-69.3 0-125 55.7-125 125s55.7 125 125 125h43.5c4.1 0 6.8 2.7 6.8 6.8s-2.7 6.8-5.4 6.8z"/>
					<path d="m1407 157.6h169.9v-54.4h-169.9c-32.6 0-59.8 27.2-59.8 59.8s27.2 59.8 59.8 59.8h43.5c39.4 0 72 32.6 72 72s-32.6 72-72 72h-168.5v53h169.9c69.3 0 125-55.7 125-125s-55.7-125-125-125h-43.5c-4.1 0-6.8-2.7-6.8-6.8 0-2.6 2.7-5.4 5.4-5.4z"/>
				
				
					<path d="m2017.1 103.3c-23.1 0-40.8 17.7-40.8 40.8v169.9c0 23.1 17.7 40.8 40.8 40.8h110.1v-119.7h-84.3v53h31.3v12.2h-31.3c-6.8 0-12.2-5.4-12.2-12.2v-119.6c0-6.8 5.4-12.2 12.2-12.2h150.9v-53h-176.7z"/>
					<path d="m2351.4 354.7h123.7l-84.3-250.1c-2.7-6.8-8.2-12.2-16.3-12.2-6.8 0-13.6 5.4-16.3 10.9l-108.7 316.7h62.5l38.1-112.8v47.6h1.3v-0.1zm21.8-114.2 17.7 54.4h-36.7l19-54.4z"/>
					<path d="m2456.1 93.8c-10.9-35.3-43.5-62.5-82.9-62.5s-72 25.8-81.5 61.2l-99.2 290.8v-213.4h-149.6v53h97.8v144.1h-122.3c-29.9 0-53-24.5-53-53v-169.9c0-29.9 24.5-53 53-53h175.3v-53h-176.7c-58.4 0-106 47.6-106 106v169.9c0 58.4 47.6 106 106 106h218.9l110.1-319.4c4.1-12.2 14.9-20.4 28.5-20.4s24.5 8.2 28.5 20.4l89.7 266.4h-141.3v53h214.7l-110-326.2z"/>
				
				
					<path d="m1708.7 366.9c-29.9 0-53-24.5-53-53v-169.8c0-29.9 24.5-53 53-53h182.1v-53h-182.1c-58.4 0-106 47.6-106 106v169.9c0 58.4 47.6 106 106 106h182.1v-53h-182.1v-0.1z"/>
					<path d="m1720.9 289.5h131.8v-53h-184.8v78.8c0 23.1 17.7 40.8 40.8 40.8h182.1v-53h-157.6c-6.8-1.4-12.3-6.8-12.3-13.6z"/>
					<path d="m1852.8 169.9h-131.8c0-6.8 5.4-12.2 12.2-12.2h156.3v-54.4h-180.8c-23.1 0-40.8 17.7-40.8 40.8v78.8h184.8c0.1 0 0.1-53 0.1-53z"/>
				
			
		
	

</svg>
