<?xml version="1.0" encoding="UTF-8"?>
<svg enable-background="new 0 0 3839 2020.9" version="1.1" viewBox="0 0 3839 2020.9" xml:space="preserve" xmlns="http://www.w3.org/2000/svg" xmlns:xlink="http://www.w3.org/1999/xlink">
<style type="text/css">
	.st0{fill:#FFFFFF;}
	.st1{clip-path:url(#SVGID_00000040540826472857250300000004984787258104703647_);fill:#FFFFFF;}
	.st2{clip-path:url(#SVGID_00000155119505831088777000000001137564717178893990_);fill:#FFFFFF;}
	.st3{clip-path:url(#SVGID_00000041994940445314665120000008612654790073438645_);fill:#FFFFFF;}
	.st4{clip-path:url(#SVGID_00000095335788333243766850000008140194524175890082_);fill:#FFFFFF;}
	.st5{clip-path:url(#SVGID_00000096745103183601103020000010441936332635055778_);fill:#FFFFFF;}
	.st6{clip-path:url(#SVGID_00000004509514977805617120000010160097915583878024_);fill:#FFFFFF;}
	.st7{clip-path:url(#SVGID_00000066477041285404439730000013553234652455359121_);fill:#FFFFFF;}
	.st8{clip-path:url(#SVGID_00000023966042324559316270000018262538069278879147_);fill:#FFFFFF;}
	.st9{clip-path:url(#SVGID_00000056399529241100216850000010952452113322012325_);fill:#FFFFFF;}
	.st10{clip-path:url(#SVGID_00000134968690563063259780000013306218895444047283_);fill:#FFFFFF;}
	.st11{clip-path:url(#SVGID_00000038376773707616885660000016369511034886703274_);fill:#FFFFFF;}
	.st12{clip-path:url(#SVGID_00000030445696758984223890000006758026374011908489_);fill:#FFFFFF;}
	.st13{clip-path:url(#SVGID_00000119834121615218850360000008291128949962595998_);fill:#FFFFFF;}
	.st14{clip-path:url(#SVGID_00000030456442875244937020000004934184376159293316_);fill:#FFFFFF;}
	.st15{clip-path:url(#SVGID_00000053544256100105134780000011118137598719940268_);fill:#FFFFFF;}
	.st16{clip-path:url(#SVGID_00000123422737904795990310000000405203010481790115_);fill:#FFFFFF;}
	.st17{fill:#AA9644;stroke:#000000;stroke-width:33.9831;stroke-linecap:round;stroke-miterlimit:10;}
	.st18{fill:#199A40;stroke:#000000;stroke-width:33.9831;stroke-linecap:round;stroke-miterlimit:10;}
	.st19{fill:#D4BF7C;stroke:#000000;stroke-width:33.9831;stroke-linecap:round;stroke-miterlimit:10;}
	.st20{fill:#F4134B;stroke:#000000;stroke-width:33.9831;stroke-linecap:round;stroke-miterlimit:10;}
	
		.st21{clip-path:url(#SVGID_00000034799875912016459800000009716909285441797528_);fill:url(#path2694_00000101079558301887645500000006957047572122165934_);stroke:#000000;stroke-width:33.9831;stroke-linecap:round;stroke-miterlimit:10;}
	
		.st22{clip-path:url(#SVGID_00000150070586330035580750000001626205111072356542_);fill:url(#path2796_00000152232688230159358940000006962828226601986971_);}
	
		.st23{clip-path:url(#SVGID_00000031208814608798375030000008859984987873304493_);fill:url(#path2824_00000151513376494060405700000013669799540082000789_);}
	
		.st24{clip-path:url(#SVGID_00000163047960418942957880000001636916089416879511_);fill:url(#path2852_00000111164358846388361160000008307124412853281162_);}
	.st25{fill:#034693;}
	
		.st26{clip-path:url(#SVGID_00000003083772411918102600000001347683257651002286_);fill:url(#path2694_00000160874813372119223660000008953745570286981559_);stroke:#000000;stroke-width:33.9831;stroke-linecap:round;stroke-miterlimit:10;}
	
		.st27{clip-path:url(#SVGID_00000038389371638278023910000016643157101181695914_);fill:url(#path2796_00000076562995817374161350000011719451516626833058_);}
	
		.st28{clip-path:url(#SVGID_00000122002238099617473580000003325793277183918767_);fill:url(#path2824_00000064322227549715311130000007697648712438886292_);}
	
		.st29{clip-path:url(#SVGID_00000080178072278761476560000002663590020038753941_);fill:url(#path2852_00000084523108640559329230000002382844356017437596_);}
	.st30{fill:#AA9644;stroke:#000000;stroke-width:34.2866;stroke-linecap:round;stroke-miterlimit:10;}
	.st31{fill:#199A40;stroke:#000000;stroke-width:34.2866;stroke-linecap:round;stroke-miterlimit:10;}
	.st32{fill:#D4BF7C;stroke:#000000;stroke-width:34.2866;stroke-linecap:round;stroke-miterlimit:10;}
	.st33{fill:#F4134B;stroke:#000000;stroke-width:34.2866;stroke-linecap:round;stroke-miterlimit:10;}
	
		.st34{clip-path:url(#SVGID_00000088095564611963258550000006323323326441149110_);fill:url(#path2694_00000120527430402913014640000012187076373481568404_);stroke:#000000;stroke-width:34.2866;stroke-linecap:round;stroke-miterlimit:10;}
	
		.st35{clip-path:url(#SVGID_00000106127701460444806720000005738059391727274940_);fill:url(#path2796_00000058557429730183702810000011179707083546346373_);}
	
		.st36{clip-path:url(#SVGID_00000070090364208002252050000010639765911246000826_);fill:url(#path2824_00000148635168281818828410000002134230542848737947_);}
	
		.st37{clip-path:url(#SVGID_00000045577298743077280600000003931592201759520669_);fill:url(#path2852_00000111908543126453441770000012823863365158726538_);}
	
		.st38{clip-path:url(#SVGID_00000030479056207619439760000012058627067904285109_);fill:url(#path2694_00000067958727631724840900000006413623191194263168_);stroke:#000000;stroke-width:34.2866;stroke-linecap:round;stroke-miterlimit:10;}
	
		.st39{clip-path:url(#SVGID_00000008828824925446963630000013117975247001502865_);fill:url(#path2796_00000108288375185915500710000000332498197467572151_);}
	
		.st40{clip-path:url(#SVGID_00000031926514799951769890000001222660880633977514_);fill:url(#path2824_00000113343077714280007950000012211280025909487005_);}
	
		.st41{clip-path:url(#SVGID_00000169538671975047249050000010665428393352167057_);fill:url(#path2852_00000030472843924812587260000016604443764687522201_);}
	.st42{fill:none;}
	.st43{fill:#AA9644;}
	.st44{fill:#199A40;}
	.st45{fill:#D4BF7C;}
	.st46{fill:#F4134B;}
	
		.st47{clip-path:url(#SVGID_00000062870889138551893710000009626603730501283771_);fill:url(#path2694_00000093142071363805227930000010606613345132144816_);}
	
		.st48{clip-path:url(#SVGID_00000100380624765696982420000014542532496037643152_);fill:url(#path2796_00000175290668073679795420000009480786135696433832_);}
	
		.st49{clip-path:url(#SVGID_00000041983337866314308790000000645420307299274651_);fill:url(#path2824_00000179613885478506391130000004545284817696716461_);}
	
		.st50{clip-path:url(#SVGID_00000069392144952504237590000017429932234106547349_);fill:url(#path2852_00000145032299326615618190000011012605350605844617_);}
	
		.st51{clip-path:url(#SVGID_00000058576195413382676470000013621887838215648412_);fill:url(#path2694_00000163049866908629307620000014958332426175214746_);}
	
		.st52{clip-path:url(#SVGID_00000120537311850137930330000015042351922126548885_);fill:url(#path2796_00000082368323669475512830000001826356358711281537_);}
	
		.st53{clip-path:url(#SVGID_00000155861110024381551670000014635659262857081781_);fill:url(#path2824_00000149384307539914179870000011729819751083698586_);}
	
		.st54{clip-path:url(#SVGID_00000107575463321171556230000008906745317235573900_);fill:url(#path2852_00000131329240083655244070000014049145125672405138_);}
	
		.st55{clip-path:url(#SVGID_00000109732261407401417650000015300985691243363716_);fill:url(#path2694_00000152984584471110664550000002222468380663632522_);}
	
		.st56{clip-path:url(#SVGID_00000007389020568523435350000001032638256963158180_);fill:url(#path2796_00000101098561328778362720000016932413234549958581_);}
	
		.st57{clip-path:url(#SVGID_00000176000688493565248460000008569139493603311746_);fill:url(#path2824_00000064320786022703854130000008555870040600932029_);}
	
		.st58{clip-path:url(#SVGID_00000052790450128616758860000002867396018298217656_);fill:url(#path2852_00000097495460205717926950000015825129147754995338_);}
	
		.st59{clip-path:url(#SVGID_00000016775025412541823990000011242381341223971995_);fill:url(#path2694_00000140693846693686224140000010768121794148364952_);}
	
		.st60{clip-path:url(#SVGID_00000043450443242668235240000005336011463306190009_);fill:url(#path2796_00000057146813591192972550000003015286007772554119_);}
	
		.st61{clip-path:url(#SVGID_00000140014739877392112560000000645189520404643749_);fill:url(#path2824_00000066509253866431080420000015687706175018494379_);}
	
		.st62{clip-path:url(#SVGID_00000167360702203135228250000002933800957760083092_);fill:url(#path2852_00000153703705949442223340000011341275091255826354_);}
	.st63{fill:#FFFFFF;stroke:#000000;stroke-width:33.9831;stroke-linecap:round;stroke-miterlimit:10;}
	
		.st64{clip-path:url(#SVGID_00000067930762344766051150000015715747581245805993_);fill:#FFFFFF;stroke:#000000;stroke-width:33.9831;stroke-linecap:round;stroke-miterlimit:10;}
	.st65{clip-path:url(#SVGID_00000103226133473667429650000016138422027812639679_);fill:#FFFFFF;}
	.st66{clip-path:url(#SVGID_00000083809564757314293780000006892282625572244656_);fill:#FFFFFF;}
	.st67{clip-path:url(#SVGID_00000132792304971641993540000012963606533746241687_);fill:#FFFFFF;}
	
		.st68{clip-path:url(#SVGID_00000085238983159821909980000001104631744259355545_);fill:#FFFFFF;stroke:#000000;stroke-width:33.9831;stroke-linecap:round;stroke-miterlimit:10;}
	.st69{clip-path:url(#SVGID_00000083050101875212176680000006523854818456961178_);fill:#FFFFFF;}
	.st70{clip-path:url(#SVGID_00000079460918723802345990000012504323129620374434_);fill:#FFFFFF;}
	.st71{clip-path:url(#SVGID_00000006678908659042248660000000119677791563978369_);fill:#FFFFFF;}
	.st72{fill:#FFFFFF;stroke:#000000;stroke-width:34.2866;stroke-linecap:round;stroke-miterlimit:10;}
	
		.st73{clip-path:url(#SVGID_00000045616461975982369530000013744767113304448663_);fill:#FFFFFF;stroke:#000000;stroke-width:34.2866;stroke-linecap:round;stroke-miterlimit:10;}
	.st74{clip-path:url(#SVGID_00000092433111111268302580000010301109983334163363_);fill:#FFFFFF;}
	.st75{clip-path:url(#SVGID_00000035510843698740352480000003031658965456943533_);fill:#FFFFFF;}
	.st76{clip-path:url(#SVGID_00000032629436210276418920000016723835596875372929_);fill:#FFFFFF;}
	
		.st77{clip-path:url(#SVGID_00000176028239982071453940000011112049660503589268_);fill:#FFFFFF;stroke:#000000;stroke-width:34.2866;stroke-linecap:round;stroke-miterlimit:10;}
	.st78{clip-path:url(#SVGID_00000051372140319124585570000016613845556880202112_);fill:#FFFFFF;}
	.st79{clip-path:url(#SVGID_00000040538515090078270330000006387537960348966798_);fill:#FFFFFF;}
	.st80{clip-path:url(#SVGID_00000031164978081558114580000008491040159433916575_);fill:#FFFFFF;}
</style>

	
		
			
				<path class="st0" d="m1104.9 183.4c-13.4-42.6-53.5-72.9-99.7-72.9s-86.3 30.4-99.7 72.9l-35.3 104.5v-171.3h-184.6c-32.8 0-63.2 13.4-86.3 35.3v-35.3h-189.7c-35.3 0-66.8 14.6-90 38.9v-38.9h-179.8c-76.6 0-139.8 63.2-139.8 139.8 0 36.5 14.6 70.5 37.7 94.8h-37.7v162.8h179.9c51.1 0 94.8-26.7 120.3-68.1 20.7 40.1 62 68.1 110.6 68.1h190.8v-35.3c21.9 21.9 52.2 35.3 86.3 35.3h527.5l-110.5-330.6z"/>
				
					
						<path d="m180 380.4h-151.9v47.4h151.9c29.2 0 53.5-24.3 53.5-53.5s-24.3-53.5-53.5-53.5h-39c-35.3 0-64.4-29.2-64.4-64.4s29.2-64.4 64.4-64.4h150.7v-47.3h-151.9c-62 0-111.9 49.9-111.9 111.9s49.9 111.9 111.9 111.9h38.9c3.6 0 6.1 2.5 6.1 6.1 0 3.3-2.4 5.8-4.8 5.8z"/>
						<path d="m139.8 251.5h151.9v-48.6h-151.9c-29.2 0-53.5 24.3-53.5 53.5s24.3 53.5 53.5 53.5h38.9c35.3 0 64.4 29.2 64.4 64.4s-29.2 64.4-64.4 64.4h-150.6v47.4h151.9c62 0 111.9-49.9 111.9-111.9s-49.9-111.7-111.9-111.7h-39c-3.6 0-6.1-2.5-6.1-6.1 0.1-2.5 2.5-4.9 4.9-4.9z"/>
					
					
						<path d="m685.6 202.9c-20.7 0-36.5 15.8-36.5 36.5v151.9c0 20.7 15.8 36.5 36.5 36.5h98.5v-107.1h-75.4v47.4h28v10.9h-28c-6.1 0-10.9-4.8-10.9-10.9v-106.9c0-6.1 4.8-10.9 10.9-10.9h134.9v-47.4h-158z"/>
						<path d="m984.6 427.8h110.6l-75.4-223.6c-2.5-6.1-7.3-10.9-14.6-10.9-6.1 0-12.1 4.8-14.6 9.7l-97.3 283.2h55.9l34-100.9v42.6h1.4zm19.5-102.1 15.8 48.6h-32.9l17.1-48.6z"/>
						<path d="m1078.2 194.4c-9.7-31.6-38.9-55.9-74.1-55.9s-64.4 23.1-72.9 54.7l-88.7 260.1v-190.9h-133.8v47.4h87.5v128.9h-109.3c-26.7 0-47.4-21.9-47.4-47.4v-152c0-26.7 21.9-47.4 47.4-47.4h156.8v-47.4h-158c-52.2 0-94.8 42.6-94.8 94.8v151.9c0 52.2 42.6 94.8 94.8 94.8h195.7l98.5-285.6c3.6-10.9 13.4-18.2 25.5-18.2s21.9 7.3 25.5 18.2l80.2 238.3h-126.5v47.4h192.1l-98.5-291.7z"/>
					
					
						<path d="m409.7 438.7c-26.7 0-47.4-21.9-47.4-47.4v-152c0-26.7 21.9-47.4 47.4-47.4h162.8v-47.4h-162.8c-52.2 0-94.8 42.6-94.8 94.8v151.9c0 52.2 42.6 94.8 94.8 94.8h162.8v-47.3h-162.8z"/>
						<path d="m420.6 369.4h117.9v-47.4h-165.3v70.5c0 20.7 15.8 36.5 36.5 36.5h162.8v-47.4h-141c-6-1.2-10.9-6.2-10.9-12.2z"/>
						<path d="M538.5,262.4H420.6c0-6.1,4.8-10.9,10.9-10.9h139.8v-48.6H409.7c-20.7,0-36.5,15.8-36.5,36.5v70.5h165.3V262.4z"/>
					
				
			
		
	
	
		
			
				<path class="st0" d="m2241.6 432.2c74.5 76.8 253.6 341.8 292.3 515.9 42.8 192.7 12.9 623.5 12.9 623.5l98.5 30.2 92.8-30.2s-32.2-466.5-118.2-692.3c-43.6-114.5-120.4-285.9-311.6-447.1-53.9-55.4-62.4-31.3-66.7 0z"/>
				<path class="st0" d="m2379 90.3c58.1-4.3 144.1 10.7 165.6 103.2 62.3 30.1 113.4 55.5 153.2 109.1 49.4 66.7 31.7 146.7 20.8 183.5l-51.4-67.4c4.8-29-10.8-59.9-10.8-59.9s-19.8 24.5-29.3 35.8c-22.3-16.5-67.2-44.2-67.9-43.6 24.2 117.7 43.5 201.6-8.1 272.5l-11.3-37.1c1.6-25.8 8.1-69.3 8.1-69.3l-35.5 32.2-17.7-21c14.5-29 9.1-72.6 9.1-72.6l-46.2 35.5-22.6-23.7c5.4-31.2-8.6-66.7-8.6-66.7l-34.4 41.9c-34.4-14-87.1-17.2-153.7-4.3-35.1 6.8-107.5 31.2-136.5 44.1l-37.6-36.5s-4.3 33.3 3.2 69.9l-32.4 52.1-39-22.9s0.5 53.6 23.1 78.3l-3.7 26.2-31.8-17.6s0 46.2 25.8 75.2l-2.1 63.4c-48.4-9.7-100.3-69.6-106.4-159.1-7.5-110.7 59.1-193.5 59.1-193.5s-38.7 4.3-78.5 38.7l-45.2-32.2s-6.5 26.9 8.6 68.8l-36.5 69.9-41.9-32.3s-10.8 24.7 20.4 82.8l-16.6 65.2c-60.6-60.3-84.9-163.3-53.3-253.3 28-79.6 64.5-135.4 139.7-189.2-4.3-43 21.5-77.4 58-92.5 81.2-33.4 141.9-6.5 184.9 28 2.2-38.7-12.9-122.6 113.9-137.6 137.4-16.2 163.4 30.2 165.5 56z"/>
				<path class="st0" d="m3092.2 1728.5h-1294c244-106.5 504.9-162.9 757.5-171.3h185.8c118.9 10.5 260.8 100.2 350.7 171.3z"/>
				<path class="st0" d="m2249.5 438.1c25.8 11.3 53.2 80.6 33.9 132.2-11.4 30.4-35.6 62.2-85.5 51.6-53.2-11.3-78.6-62.3-66.1-104.8 16.1-54.9 77.5-96.6 117.7-79z"/>
				<path d="m2266.1 31c91.8 0 111.1 37.2 112.9 59.3 5.6-0.4 11.5-0.7 17.6-0.7 56.5 0 128.5 20.4 147.9 103.9 62.3 30.1 113.4 55.5 153.2 109.1 49.4 66.7 31.7 146.7 20.8 183.5l-51.4-67.4c4.8-29-10.8-59.9-10.8-59.9s-19.8 24.5-29.3 35.8c-22-16.3-66.2-43.6-67.9-43.6 24.2 117.7 43.5 201.6-8.1 272.5l-11.3-37.1c1.6-25.8 8.1-69.3 8.1-69.3l-35.5 32.2-17.7-21c14.5-29 9.1-72.6 9.1-72.6l-46.2 35.5-22.6-23.6c5.4-31.2-8.6-66.6-8.6-66.6l-34.4 41.9c-19.6-8-45-12.4-75.6-12.4-3.2 0-6.4 0-9.7 0.1l1.6 1.6c191.2 161.2 268 332.6 311.6 447.1 77.1 202.4 111 598.2 117.2 677.9h4.4c119 10.4 260.9 100.2 350.8 171.3h-1294c241.4-105.4 499.4-161.6 749.5-170.9 4.6-75.1 24.5-437.2-13.8-609.4-33.4-150-170.9-367.5-255.9-473.9 11.7 27.4 17.1 64.9 5.5 96-9.9 26.3-29.3 53.7-66.7 53.7-5.8 0-12-0.7-18.7-2.1-53.2-11.3-78.6-62.3-66.1-104.8 7-24 22.8-45.5 41.6-60.6-28.1 9-56.1 19.2-71.7 26.2l-37.6-36.5s-4.3 33.3 3.2 69.9l-32.4 52.1-39-22.9s0.5 53.6 23.1 78.3l-3.7 26.2-31.8-17.6s0 46.2 25.8 75.2l-2.2 63.4c-48.4-9.7-100.3-69.6-106.4-159.1-7.5-110.7 59.1-193.5 59.1-193.5s-38.7 4.3-78.5 38.7l-45.1-32.2s-6.4 26.9 8.6 68.8l-36.5 69.9-41.9-32.3s-10.7 24.7 20.4 82.8l-16.6 65.2c-60.6-60.3-84.9-163.3-53.3-253.3 27.9-79.6 64.5-135.4 139.7-189.2-4.3-43 21.5-77.4 58-92.5 26.2-10.8 50.2-15.3 72.2-15.3 46.3 0 83.5 19.9 112.7 43.2 2.1-38.7-12.9-122.6 113.9-137.6 19.7-2.3 37.1-3.4 52.5-3.4m0-31c-17.2 0-36.1 1.2-56.3 3.6-59.1 7-100.2 29.2-122.1 65.9-9.4 15.8-14.1 32.5-16.5 48-27.3-13.1-55.5-19.7-84.4-19.7-27.4 0-55.6 5.9-84 17.6-46.2 19-75.2 59.3-77.6 105.7-33.3 25.4-60 52.4-81.5 82.2-22.4 31.2-40.3 66.8-56.2 112.1-17.2 49.1-20.4 102.5-9 154.7 11 50.7 35.8 97.2 69.7 130.9 5.9 5.9 13.8 9 21.9 9 2.8 0 5.5-0.4 8.2-1.1 10.7-3 19-11.4 21.8-22.2l16.6-65.2c1.9-7.5 0.9-15.5-2.7-22.3-0.9-1.7-1.8-3.4-2.6-5 1.2-0.1 2.3-0.3 3.5-0.6 8.9-2 16.6-7.8 20.8-15.9l36.5-69.9c3.3-6.3 4.3-13.6 2.9-20.5 2 0.4 4.1 0.6 6.2 0.6 2.4 0 4.7-0.3 7-0.8-12.6 34.9-21.9 78.3-18.6 126.7 3.2 47.6 18.2 91 43.2 125.6 24.1 33.3 55.4 55.3 88.1 61.8 2 0.4 4.1 0.6 6.1 0.6 6.9 0 13.7-2.3 19.2-6.7 7.1-5.7 11.4-14.2 11.7-23.3l2.2-63.4c0.3-8-2.5-15.7-7.8-21.7-2.2-2.5-4.2-5.3-5.9-8.2 0.8-0.3 1.7-0.7 2.5-1.1 9.1-4.6 15.4-13.3 16.9-23.4l3.7-26.2c1.3-9.2-1.6-18.4-7.8-25.3-1-1.1-1.9-2.3-2.8-3.8 8.9-1.2 17.1-6.2 22.2-14.3l32.4-52.1c3.5-5.7 5.1-12.3 4.6-18.9 0.8 0.1 1.6 0.2 2.4 0.2-6.7 28.1-2 58.4 13.2 83.9 16.8 28.2 44.4 47.6 77.6 54.7 8.6 1.8 17.1 2.7 25.1 2.7 24.8 0 47.3-8.8 65-25.4 13-12.2 23.4-28.5 30.8-48.4 0.6-1.7 1.3-3.5 1.8-5.2 77.4 112.8 164.6 267.7 189.4 378.9 33.9 152.4 20.8 462.7 14.7 573-118.8 6-238.2 22.5-355.5 48.9-129.8 29.3-256.7 70.8-377.1 123.3-13.5 5.9-20.9 20.4-17.9 34.8s15.7 24.7 30.4 24.7h1294.1c13.2 0 25-8.4 29.3-20.8 4.3-12.5 0.3-26.3-10.1-34.5-59.2-46.8-207.1-153.7-345.6-175.2-4.7-55.4-14.3-156.5-30.1-269-24.2-172-53.4-303.8-86.9-391.7-24.4-63.9-56.4-137.4-105.2-214.7 0.7 0.2 1.5 0.3 2.3 0.5 1.7 0.3 3.4 0.4 5.1 0.4 9.8 0 19.2-4.7 25.1-12.8 47.5-65.3 43.6-138.2 27.6-225.7 1.7 1.2 3.3 2.4 4.9 3.5 5.5 4.1 12 6.1 18.4 6.1 3.3 0 6.5-0.5 9.6-1.5 0.8 4.8 2.8 9.5 5.9 13.5l51.4 67.4c5.9 7.8 15.1 12.2 24.7 12.2 1.9 0 3.7-0.2 5.6-0.5 11.5-2.1 20.8-10.5 24.1-21.7 24.4-82.4 15.6-155.3-25.6-210.8-42.1-56.7-95.3-84.9-152-112.4-12.4-38.7-36.7-69.1-70.9-88.4-33.9-19.1-71.2-24.1-98.1-24.6-6.1-12-15.3-22.7-27.1-31.4-24.8-18.2-61.3-27.4-108.5-27.4zm132.7 473.1c1.8-0.4 3.7-1 5.4-1.7 0.4 3.6 1.5 7.2 3.2 10.4-2.9-2.9-5.7-5.8-8.6-8.7zm115.7 137c-21.7-30.7-46.1-61.7-74-92.8 5.1 3.3 11 5.1 17 5.1 2.3 0 4.6-0.3 6.8-0.8-2.1 9.4 0.2 19.3 6.6 26.9l17.7 21c5.2 6.1 12.5 10 20.4 10.8-0.1 1.5-0.2 2.9-0.3 4.3-0.2 3.7 0.2 7.4 1.3 11l4.5 14.5z"/>
				
					
						<defs>
							<path id="f" d="m1281.2 1202.5c401.5-62.9 585.3-82.2 1340-125.8 754.2-43.5 1088.4 53.2 1136.8 62.9s67.7 35.5 30.5 43.3c-133.6 27.9-799.6 72.8-1336.6 193.8-196.3 44.2-735.3 154.8-1098.1 246.7-419.7 106.3-890.1 295.1-962.7 324.1s-135.4 62.9-157.5 26.8c-49.4-80.7-185.9-239.7-170.3-442.3 2.7-34.5 234.7-96.2 332.7-126.3 251.5-77.4 483.7-140.3 885.2-203.2"/>
						</defs>
						<clipPath id="d">
							<use xlink:href="#f"/>
						</clipPath>
						
							<path d="m47.7 2012.4v-977.1h3778.1v977.1h-3778.1z" clip-path="url(#d)" fill="#fff"/>
					
					<path d="m2992 1065.5c495.5 0 726.4 66.2 766 74.1 48.4 9.7 67.7 35.5 30.5 43.3-133.6 27.9-799.6 72.8-1336.6 193.8-196.3 44.2-735.3 154.8-1098.1 246.7-419.7 106.3-890.1 295.1-962.7 324.1-50.1 20.1-95.7 42.4-126.3 42.4-13.7 0-24.4-4.5-31.2-15.6-49.4-80.7-185.9-239.7-170.3-442.3 2.6-34.5 234.7-96.2 332.7-126.3 251.6-77.4 483.8-140.3 885.3-203.2s585.3-82.2 1340-125.8c137.2-7.9 260.4-11.2 370.7-11.2m0-31c-117.9 0-243.3 3.8-372.6 11.2-404.1 23.3-621.9 38.4-803.6 55.7-193.2 18.4-338.7 38.9-539.4 70.4-385 60.3-617.7 120.5-889.6 204.2-15.9 4.9-36 10.8-57.3 17.1-55.4 16.3-124.3 36.6-179.9 56.5-31.4 11.3-55.1 21.2-72.5 30.3-21.2 11.1-43.1 25.7-44.9 49.7-3.3 42.8-0.4 86.8 8.7 130.6 7.8 37.4 20.3 76 37.2 114.5 30.7 69.9 71.2 129.6 100.8 173.2 11.1 16.4 20.7 30.5 28.1 42.6 8.5 13.9 25.4 30.4 57.7 30.4 30.5 0 66.2-14.9 107.7-32.2 9.8-4.1 19.9-8.3 30.1-12.4l2.1-0.8c163.2-65.3 583.1-227.4 956.6-322 262.4-66.5 612.3-141.7 867.8-196.6 94.1-20.2 175.4-37.7 229.6-49.9 365.6-82.3 788.2-128.9 1067.8-159.8 130.4-14.4 224.6-24.8 268.3-33.9 41.1-8.6 44.2-36.1 44.2-44.4-0.1-28-28.1-50.3-74.9-59.6-3.3-0.7-8.9-2-15.9-3.6-36.3-8.5-111.8-26.1-236-41.8-153.2-19.5-328.3-29.4-520.1-29.4z"/>
				
				
					<defs>
						<path id="a" d="m2864.3 794.8c14.5 112.9-30.6 172.5-101.6 277.3-38.7 57.2-140.3 158-140.3 158s211.2-90.5 370.9-141.9c140.3-45.1 335.4-82.3 358-83.8 69.3-4.8 62.9 17.7 6.4 41.9-34.2 14.7-267.7 106.4-438.6 175.8-188.2 76.3-380.5 183.8-416 170.9-4.6-1.7-9.2-4-13.6-6.9-39.4-25.9-43.7-82.4-12.2-117.6 37.1-41.4 103.9-94.4 201.6-210.9 89.7-107 94.9-231.9-19.3-214.5-74.2 11.3-119.3 96.7-143.5 106.4-27.3 10.9-55-11.5-51.6-35.5 3.2-22.6 51.6-56.4 69.3-98.4 16.5-39 74.2-117.7 190.3-119.3 85.4-1.1 132.8 40.5 140.2 98.5"/>
					</defs>
					<clipPath id="h">
						<use xlink:href="#a"/>
					</clipPath>
					
						<path d="m2448.3 1405.9v-710.7h972.3v710.7h-972.3z" clip-path="url(#h)" fill="#fff"/>
				
				
					<defs>
						<path id="c" d="m2177.6 858.9c7.6 15.1 5.6 33.9 14.5 50 8.1 14.5-31.1 114.2-43.5 161.2-14.5 54.8-36 131.7-36 131.7s80.5-107.1 116.6-152.6c43.5-54.8 119.1-131.2 150-125.8 64.5 11.3 5.6 149-8.2 213.5-15.8 40.3-54.3 131.8-30.7 134.6 29.2 3.4 35.5-41.3 54.4-24.4 32.9 29.4-74.2 112.9-92.9 100.4-16.9-11.3-40.3 17.7-62.9-12.9-19.9-27-14.8-64.8 21.8-150.8 36.5-86 62.6-169 62.6-169s-51.5 55.3-111.8 141.9c-68.8 98.9-109.6 157-154.8 167.7-7.3 1.7-14.6-0.8-21.3-5-17.3-11-25.4-32-22.2-52.3 4.9-31.1 14-85.1 24.1-125.5 15.1-60.2 32.2-124.7 51.6-176.3-155.5 170.2-298.7 398-369.3 508.6-3.1 4.9-7.9 8.3-13.5 9.8-11.8 3.1-22.8 5.6-34.5 7.5-14 2.3-27.1-8.1-27.2-22.3-0.2-50 23.6-31 42.4-64.9 34.8-62.6 348.3-476.2 434.3-545 30.4-24.3 46.9-19.5 56.5-0.1"/>
					</defs>
					<clipPath id="e">
						<use xlink:href="#c"/>
					</clipPath>
					
						<path d="m1637.4 1494.2v-659.5h806.2v659.5h-806.2z" clip-path="url(#e)" fill="#fff"/>
				
				<path d="m2155.6 842.5c9.9 0 16.9 6.2 22 16.4 7.6 15.1 5.6 33.9 14.5 50 8.1 14.5-31.1 114.2-43.5 161.3-14.5 54.8-36 131.7-36 131.7s80.5-107.1 116.6-152.7c42.1-53 114.1-126.1 146.7-126 1.1 0 2.2 0.1 3.3 0.3 47 8.2 28.5 83.6 9.6 148.9-11.7 40.4-24.9 80.3-39.1 119.8-13.8 38.3-24.7 77.6-9.4 79.4 1.1 0.1 2.1 0.2 3.2 0.2 22.1 0 30.4-28.4 43-28.4 2.5 0 5.2 1.1 8.2 3.8 30.6 27.4-60.1 101.6-87.9 101.6-2.1 0-3.8-0.4-5.1-1.3-3.1-2-6.3-2.8-9.7-2.8-8.5 0-18 4.4-27.9 4.4-8.3 0-16.8-3.1-25.3-14.6-19.9-27-14.8-64.8 21.8-150.8 36.5-86 62.6-169 62.6-169s-51.5 55.3-111.8 141.9c-68.8 98.9-109.6 157-154.8 167.7-1.6 0.4-3.2 0.6-4.8 0.6-5.7 0-11.3-2.3-16.5-5.6-17.3-11-25.4-32-22.2-52.3 4.9-31.1 14-85.1 24.1-125.5 15.1-60.2 32.2-124.7 51.6-176.3-155.5 170.2-298.7 398-369.3 508.6-3.1 4.9-7.9 8.3-13.5 9.8-11.8 3.1-22.8 5.6-34.5 7.5-1.3 0.2-2.6 0.3-3.9 0.3-12.4 0-23.2-9.7-23.3-22.6-0.2-50 23.6-31 42.4-64.9 34.8-62.6 348.3-476.2 434.3-545 14.5-11.5 25.7-16.4 34.6-16.4m0-31c-16.7 0-34.3 7.6-53.8 23.2-53.3 42.6-174.2 193.7-241.4 280-94 120.5-182.1 241-200.6 274.2-3.6 6.5-6.3 8.1-12.3 11.7-6.7 4.1-16.9 10.3-24.3 22.9-6.8 11.5-9.9 25.9-9.8 45.5 0.1 29.5 24.5 53.4 54.3 53.4 3 0 5.9-0.2 8.9-0.7 11.7-1.9 23.2-4.4 37.3-8.1 13.2-3.4 24.5-11.6 31.8-23.1 3-4.7 6.2-9.7 9.5-14.9 57-89.3 152.1-238.4 260.8-376-3 11.7-6 23.3-8.8 34.5-10.5 42.1-20 98.4-24.7 128.1-5.2 33.2 9 65.9 36.2 83.2 10.8 6.9 22 10.5 33.2 10.5 4 0 8-0.5 11.9-1.4 53.3-12.7 94.8-67.9 158.5-159.3-28.5 71.4-36.8 119.2-8.5 157.7 16.6 22.5 36.5 27.2 50.2 27.2 8.8 0 16.2-1.8 22.2-3.2 1.1-0.3 2.3-0.6 3.5-0.8 5.2 2.4 11 3.6 17 3.6 24.1 0 53.2-20.4 68.5-32.5 15-12 41.8-36.2 52.2-63.4 8.7-22.8 4.2-45.2-12.1-59.8-10.8-9.7-21.7-11.7-28.9-11.7-4.2 0-8.1 0.6-11.6 1.7 6.4-18.9 34.1-100.1 39.3-117.9 8.1-27.6 17.3-58.9 22.1-87.7 6.6-39.3 3.9-66.9-8.5-87-9.6-15.5-24.6-25.4-43.3-28.6-2.8-0.5-5.7-0.7-8.6-0.7-14.8 0-40.2 5.3-90.7 51.2-26.2 23.8-56.2 56.2-80.3 86.5-5.6 7.1-12.3 15.6-19.5 24.9 3.2-10.3 7-21.6 10.8-33.3 26.4-80.1 34-107.7 23-127.7-2.2-4-3.3-10.1-4.6-17.3-1.7-9.6-3.7-20.4-9.3-31.5-14.4-29.1-37.3-33.4-49.6-33.4z"/>
				
					
						<defs>
							<path id="g" d="m1611.6 431.1c-28.6 112.2-62.3 286-63.9 422.8-1.2 101.9-6 285.6 0.5 382.3 35.5 5.9 58.6 26.9 59.7 49.5 1.8 38.7-30.6 46.8-53.2 55.6 4.8 108.8 14.5 189.5 57 280.8 17.2 30.1 17.5 60.6-17.2 79.5-47.3 25.8-49.5-15-111.8-6.5-18.1 2.5-64.5-4.3-96.7-55.9-42.8-68.5-47.3-176.3-75.2-294.6-146.2 0-206.4 68.8-457.9 43-40.9 53.7-68.3 95.6-137.6 193.5-98.9 139.7-142.5 207.4-204.3 242.9-71 40.9-129 32.2-173.1 27.1-18.4-2.1-41.9-37.9-24.7-61.5 118.2-162.5 219.3-273.1 316-402 0 0-217.1 30.1-238.1-43.5-19-66.9 70.4-76.9 104.8-117.7 50.2-59.6 135.4-23.7 245.1-25.8 118.2-146.2 251.5-296.7 376.2-434.3 159.5-176 404.1-472.1 451.5-468.7 60.1 4.5 56.9 78.7 42.9 133.5zm-251.5 320.3c-137.6 150.5-270.9 305.3-393.4 462.2 113.9-4.3 182.7 21.5 335.4 15 4.1-165 23.6-318.1 58-477.2"/>
						</defs>
						<clipPath id="b">
							<use xlink:href="#g"/>
						</clipPath>
						
							<path d="m295.8 1865.1v-1570.7h1333.3v1570.7h-1333.3z" clip-path="url(#b)" fill="#fff"/>
					
					<path d="m1567.8 297.8h0.8c60.2 4.3 57 78.5 43 133.3-28.6 112.2-62.3 286-63.9 422.8-1.2 101.9-6 285.6 0.5 382.3 35.5 5.9 58.6 26.9 59.7 49.5 1.8 38.7-30.6 46.8-53.2 55.6 4.8 108.8 14.5 189.5 57 280.8 17.2 30.1 17.5 60.6-17.2 79.5-11.7 6.4-20.6 8.7-28.3 8.7-20.6 0-33-16.3-66.8-16.3-5.1 0-10.6 0.4-16.7 1.2-2 0.3-4.4 0.4-7 0.4-21.2 0-61.1-10.5-89.8-56.3-42.8-68.5-47.3-176.3-75.2-294.5-123.1 0-185.2 48.8-352 48.8-31.3 0-66.2-1.7-105.9-5.8-40.8 53.7-68.3 95.6-137.6 193.5-98.9 139.7-142.5 207.4-204.3 243-43.7 25.2-82.6 31.6-116.3 31.6-21 0-39.9-2.5-56.9-4.4-18.4-2.1-41.9-37.9-24.7-61.5 118.2-162.5 219.3-273.1 316-402 0 0-43.9 6.1-94.2 6.1-61.5 0-132.4-9.1-143.9-49.6-19-66.9 70.4-76.9 104.8-117.7 23.1-27.4 53.5-34.6 90.4-34.6 40.9 0 89.7 8.9 145 8.9 3.2 0 6.5 0 9.7-0.1 118.3-146.2 251.6-296.7 376.3-434.3 158.6-175.2 401.4-468.9 450.7-468.9m-601.2 915.9c8.9-0.3 17.4-0.5 25.8-0.5 87.3 0 151.5 16.6 261.2 16.6 15.2 0 31.3-0.3 48.4-1 4.2-165.1 23.7-318.2 58.1-477.3-137.6 150.4-270.9 305.2-393.5 462.2m601.2-946.9c-24.2 0-56.2 18.8-147.8 114.8-60.1 63-132.5 145.4-202.6 225.1-44.1 50.2-85.8 97.6-123.3 139-97.6 107.7-240.8 267.6-368.1 424.2-26.4-0.3-51.2-2.6-75.3-4.8-22.7-2.1-44.2-4.1-64.6-4.1-35.2 0-80.1 5.2-114.1 45.6-8.2 9.8-24.4 18.9-40 27.8-19.2 10.9-39.1 22.1-53.8 38.8-19.7 22.2-25.6 49.8-17.1 79.6 8.4 29.5 33.6 50.1 74.9 61.4 26 7.1 59.3 10.7 98.9 10.7 9.3 0 18.3-0.2 27-0.5-28 35.7-56.6 70.8-86.3 107.2-59.1 72.5-120.2 147.4-187.6 240-13.8 19-15.8 43.6-5.4 67.3 10.5 23.9 30.7 40.8 51.5 43.3l4.7 0.5c16.4 1.9 34.9 4.1 55.8 4.1 46.9 0 90-11.7 131.7-35.7 61.5-35.4 103.2-94.6 186.2-212.4 8.8-12.5 18.1-25.6 27.9-39.5 24-34 42.8-60.8 59.3-84.5 26.7-38.3 45.6-65.4 67.3-94.4 32.1 2.8 62.9 4.3 91.6 4.3 93.3 0 156-14.9 211.2-28 39.5-9.4 74.4-17.7 116.1-20.1 6.1 28.7 11.1 56.8 16 84.1 13.7 77.1 25.5 143.7 57.7 195.2 15.7 25.2 35.8 44.2 59.8 56.5 24.3 12.5 45.7 14.4 56.3 14.4 4 0 7.7-0.2 11.3-0.7 4.4-0.6 8.6-0.9 12.5-0.9 12.7 0 20.3 3.2 29.8 7.2 9.6 4.1 21.6 9.1 36.9 9.1 13.7 0 27.8-4.1 43.2-12.4 27.4-14.9 37.9-35 41.9-49.2 6.2-21.9 2.1-46.6-12-71.7-36.1-78.1-47.2-148.6-52.5-245.9 9-3.9 18.4-8.9 26.9-16.3 17.7-15.3 26.4-36.6 25.2-61.6-0.9-19.8-10.8-38.7-27.8-53.1-9.4-8-20.6-14.4-33.1-19-3.5-79-1.6-200.3-0.2-291 0.4-24.2 0.7-47.1 1-66.8 1.5-130.1 33.5-299.9 62.9-415.5 4.3-17 9.5-42.7 9.4-68.9-0.1-29.1-6.5-52.7-19.2-70.3-14.1-19.5-35.2-30.8-61.1-32.6-1-0.3-2-0.3-3-0.3zm-537.6 916.3c84.2-105.7 176-214 277.9-328.1-20.3 115.6-32 227.4-36.2 343.5-6.2 0.1-12.3 0.2-18.3 0.2-56.4 0-100.4-4.5-142.8-8.8-27-2.7-53-5.4-80.6-6.8z"/>
				
				<path d="m2727.5 696.4c83.2 0 129.4 41.2 136.8 98.4 14.5 112.9-30.6 172.5-101.6 277.3-38.7 57.2-140.3 158-140.3 158s211.2-90.5 370.9-141.9c140.3-45.1 335.4-82.3 358-83.8 6.4-0.4 12.2-0.7 17.3-0.7 50.4 0 40.4 20.6-10.8 42.6-34.2 14.7-267.7 106.4-438.6 175.8-177.7 72.1-359.2 172-408.7 172-2.9 0-5.4-0.3-7.3-1.1-4.6-1.7-9.2-4-13.6-6.9-39.4-25.9-43.7-82.4-12.2-117.6 37.1-41.4 103.9-94.4 201.6-210.9 84-100.2 93.9-216.1 1-216.1-6.3 0-13.1 0.5-20.3 1.6-74.2 11.3-119.3 96.7-143.5 106.4-4.9 2-9.8 2.8-14.5 2.8-21.7 0-39.9-18.6-37.1-38.3 3.2-22.6 51.6-56.4 69.3-98.4 16.5-39 74.2-117.7 190.3-119.3 1 0.1 2.2 0.1 3.3 0.1m0.1-31h-4c-57.1 0.8-109.5 18.9-151.4 52.4-41.8 33.4-60.8 71.1-67 85.8-7.2 17-22.7 34.4-36.4 49.7-17.3 19.4-32.3 36.2-35.1 56.3-2.5 17.6 3 35.7 15.2 49.7 13.2 15.3 32.4 24 52.6 24 8.9 0 17.7-1.7 26.1-5.1 14.7-5.9 26.4-18.9 42.6-37 23.3-26 55.3-61.7 94-67.6 5.6-0.9 10.8-1.3 15.6-1.3 24.3 0 29.2 10.6 31.1 14.6 6.1 13 5 34.7-3 59.4-9.5 29.4-28.2 61.8-52.8 91.1-63.9 76.2-114.8 125.2-152 161-19.2 18.5-35.8 34.4-49 49.2-21.9 24.5-32.1 57.2-27.8 89.8 4 30.7 20.8 57.8 46.1 74.4 6.4 4.2 13.2 7.6 20 10.1 5.4 2 11.3 2.9 17.9 2.9 34.8 0 97.2-28.3 213.8-82.5 63.5-29.5 135.6-63 206.5-91.8 89.9-36.5 197.2-79.2 283.5-113.5 77.7-30.9 139.1-55.4 155.7-62.5 16.9-7.3 30.5-14.7 40.2-22 22.3-16.9 24.2-34.2 21.8-45.7-1.4-6.8-7.1-23.4-30.3-30.4-8.7-2.6-19.5-3.9-33-3.9-5.9 0-12.5 0.2-19.4 0.7-24.8 1.7-222.8 39.4-365.3 85.3-77.9 25.1-168.6 59.6-241 88.5 17.7-20.4 34.2-40.7 45.6-57.7 3.4-5 6.8-10 10.1-14.8 33.9-49.9 60.7-89.3 78.4-132.6 19.6-47.8 25.4-95.8 18.2-151.3-4.8-37.5-22.8-69.1-51.9-91.3-29.7-22.5-68.6-33.9-115.6-33.9z"/>
			
		
		<rect x="2392" y="459.6" width="21.9" height="32.5"/>
	

</svg>
