<?xml version="1.0" encoding="UTF-8"?>
<svg enable-background="new 0 0 3838.8 1490.6" version="1.1" viewBox="0 0 3838.8 1490.6" xml:space="preserve" xmlns="http://www.w3.org/2000/svg">
<style type="text/css">
	.st0{fill:#FFFFFF;}
	.st1{fill:url(#f);}
	.st2{fill:url(#SVGID_00000174600331843986657070000011841985390428356741_);}
	.st3{fill:url(#SVGID_00000154428039472088813120000011934661309145672867_);}
	.st4{fill:url(#SVGID_00000039125545078975288830000005542699239192012191_);}
	.st5{fill:url(#SVGID_00000124125344071233618170000005745435807904263833_);}
	.st6{fill:url(#SVGID_00000055665688483879786350000002887134734601288894_);}
	.st7{display:none;}
	.st8{display:inline;fill:url(#SVGID_00000139293530436271704500000008134567330488721328_);}
	.st9{display:inline;fill:url(#SVGID_00000093887700189950370520000013642429535038965167_);}
	.st10{display:inline;fill:url(#SVGID_00000163070162006213112370000015924049143410795950_);}
	.st11{display:inline;fill:url(#SVGID_00000133520497837006742070000002056336619605893265_);}
	.st12{display:inline;fill:url(#SVGID_00000047039610539401485580000014887012544440691334_);}
	.st13{fill:url(#SVGID_00000177447332037585061210000006052611044242179233_);}
	.st14{fill:url(#SVGID_00000029025821913822612020000006229834056597960860_);}
	.st15{fill:url(#SVGID_00000097499228111165591750000012106734824233292963_);}
	.st16{fill:url(#SVGID_00000119831164374236238800000012450625921322181284_);}
	.st17{fill:url(#SVGID_00000084516920556015837840000012226485380672981919_);}
	.st18{fill:url(#SVGID_00000103246434942397834230000014859539351219534227_);}
	.st19{fill:url(#SVGID_00000121970517505741210170000017892408201057686205_);}
	.st20{fill:url(#SVGID_00000090259553166602143210000018122525645975406223_);}
	.st21{fill:url(#SVGID_00000026871508342973119860000008749083647653944474_);}
	.st22{fill:url(#SVGID_00000085246998816438608430000015124129751484912537_);}
	.st23{fill:url(#SVGID_00000155850219546095184530000011321089748919786146_);}
	.st24{fill:url(#SVGID_00000114768744904927901670000009563521808297563277_);}
	.st25{display:inline;fill:url(#SVGID_00000109023908655534182800000016670803468121153664_);}
	.st26{display:inline;fill:url(#SVGID_00000099654323064782529150000009845955494669348000_);}
	.st27{display:inline;fill:url(#SVGID_00000039129508344314953780000000684297053883146431_);}
	.st28{display:inline;fill:url(#SVGID_00000058548594421826445810000009525719347357072562_);}
	.st29{display:inline;fill:url(#SVGID_00000100365048644288681170000015694463148411004308_);}
	.st30{fill:url(#SVGID_00000076599665063406103670000013595560765917854849_);}
	.st31{fill:url(#SVGID_00000004522882575579963250000010937770045068089245_);}
	.st32{fill:url(#SVGID_00000114072217358594977040000008083255919885749679_);}
	.st33{fill:url(#SVGID_00000096019825139874883410000003666661544129801151_);}
	.st34{fill:url(#SVGID_00000082338629256882254190000002589485446343177121_);}
	.st35{fill:url(#SVGID_00000078026888930430320340000009029365945576787864_);}
	.st36{fill:url(#SVGID_00000083068558216960741670000004023914760680588443_);}
	.st37{fill:url(#SVGID_00000116955363020483296670000004074099330556377267_);}
	.st38{fill:url(#SVGID_00000093155466048856145890000000799857343014123190_);}
	.st39{fill:url(#SVGID_00000041283709537367697690000003831112401707389327_);}
	.st40{fill:url(#SVGID_00000088821690419019580470000005236130439041797289_);}
	.st41{fill:url(#SVGID_00000070081791946486594690000005635096075750789307_);}
	.st42{display:inline;fill:url(#SVGID_00000006707648246110058060000014488377134533679807_);}
	.st43{display:inline;fill:url(#SVGID_00000131330801715461958650000015732508344844251551_);}
	.st44{display:inline;fill:url(#SVGID_00000099641004854003119560000011258833209688448183_);}
	.st45{display:inline;fill:url(#SVGID_00000046322446226562712490000010389338949855173556_);}
	.st46{display:inline;fill:url(#SVGID_00000017492107686997353520000003351988408674182792_);}
	.st47{fill:url(#SVGID_00000048475038397516888830000013248543823353495225_);}
	.st48{fill:url(#SVGID_00000098200077681691025790000010516399517656687021_);}
	.st49{fill:url(#SVGID_00000031925475392343458350000009174324398811301264_);}
	.st50{fill:url(#SVGID_00000106855746690184291940000009488393658789162931_);}
	.st51{fill:url(#SVGID_00000139286808811835207690000009925148965653107073_);}
	.st52{fill:url(#SVGID_00000122717441072246600670000003059166121714164151_);}
	.st53{fill:url(#SVGID_00000142855245208472538570000001411349511291164811_);}
	.st54{fill:url(#SVGID_00000059291240897827647500000015679173363069443758_);}
	.st55{fill:url(#SVGID_00000051371258939743279910000018324800611518112920_);}
	.st56{fill:url(#SVGID_00000083781109128112328650000014600049844623014299_);}
	.st57{fill:url(#SVGID_00000180368612672345575240000018261119357377419193_);}
	.st58{fill:url(#SVGID_00000131355640137548908830000016485701675014372760_);}
	.st59{display:inline;fill:url(#SVGID_00000053544769762280414670000011757270548719504574_);}
	.st60{display:inline;fill:url(#SVGID_00000147221155864286018860000007124514732029033865_);}
	.st61{display:inline;fill:url(#SVGID_00000058584665765191403420000003539840404790735798_);}
	.st62{display:inline;fill:url(#SVGID_00000088095522508493364190000011615138619221923258_);}
	.st63{display:inline;fill:url(#SVGID_00000162324085163332207730000004326449209038779804_);}
	.st64{fill:url(#SVGID_00000137101642073060928200000017119906085265796760_);}
	.st65{fill:url(#SVGID_00000116954145205761538550000011383761022240509865_);}
	.st66{fill:url(#SVGID_00000057855990397171426700000017687196552828149436_);}
	.st67{fill:url(#SVGID_00000043443161555921981220000007958892077269309616_);}
	.st68{fill:url(#SVGID_00000075144865107202792510000011521066649576213400_);}
	.st69{fill:url(#SVGID_00000075844200903045186420000001868134490614877350_);}
	.st70{fill:url(#SVGID_00000092444119687964343290000013145970253344822440_);}
	.st71{fill:url(#SVGID_00000098211295696391781520000003283710291200771721_);}
	.st72{fill:url(#SVGID_00000131368641003060766490000013853651009577803178_);}
	.st73{fill:url(#SVGID_00000183227418482057167240000012043379799865850792_);}
	.st74{fill:url(#SVGID_00000043424303354806350220000009643839146707081651_);}
	.st75{fill:url(#SVGID_00000134942733332902447470000004125537681671349899_);}
	.st76{display:inline;fill:url(#SVGID_00000095305327929043381260000004841456491686680251_);}
	.st77{display:inline;fill:url(#SVGID_00000182508775845117777100000004497437046461268153_);}
	.st78{display:inline;fill:url(#SVGID_00000117645242518524652120000012087802844488213942_);}
	.st79{display:inline;fill:url(#SVGID_00000095340794949555260780000011494589331611423913_);}
	.st80{display:inline;fill:url(#SVGID_00000031910104270099143790000006436810550834805396_);}
	.st81{fill:url(#SVGID_00000125599297974424911080000016999642983761822598_);}
	.st82{fill:url(#SVGID_00000140711676964131232530000011342437187007483558_);}
	.st83{fill:url(#SVGID_00000141440608862114933990000013666802423350403491_);}
	.st84{fill:url(#SVGID_00000076573993026657961480000005274287065236427666_);}
	.st85{fill:url(#SVGID_00000169553166978653318890000008616765742817053856_);}
	.st86{fill:url(#SVGID_00000044883728602894844930000016574174875627897777_);}
	.st87{fill:url(#SVGID_00000041977746230412713100000004650845680889474748_);}
	.st88{fill:url(#SVGID_00000009573708170636431630000008923359804588108694_);}
	.st89{fill:url(#SVGID_00000160892192418839754950000004303099276643996800_);}
	.st90{fill:url(#SVGID_00000070101077224063289010000000306364053900460722_);}
	.st91{fill:url(#SVGID_00000044165764248644717280000005226567493251944336_);}
	.st92{fill:url(#SVGID_00000015314752495603338540000016292397855617271979_);}
	.st93{display:inline;fill:url(#SVGID_00000052084172392018658430000012860722426859276172_);}
	.st94{display:inline;fill:url(#SVGID_00000014615014518454696960000006432683164507865222_);}
	.st95{display:inline;fill:url(#SVGID_00000129907514280499168850000003526578322444710813_);}
	.st96{display:inline;fill:url(#SVGID_00000125602326338967687240000007749099503325738428_);}
	.st97{display:inline;fill:url(#SVGID_00000179635764726887530000000003213625760222449841_);}
	.st98{fill:url(#SVGID_00000103962186900219973320000009150405544660950450_);}
	.st99{fill:url(#SVGID_00000090998377196064515330000016885059583025669294_);}
	.st100{fill:url(#SVGID_00000145748275812118595270000001517593953627065014_);}
	.st101{fill:url(#SVGID_00000176753898762426724870000014945001250359130301_);}
	.st102{fill:url(#SVGID_00000107567463349440611680000016057212866179729080_);}
	.st103{fill:url(#SVGID_00000176029991213884640930000011549090482248371370_);}
	.st104{fill:url(#SVGID_00000003821456576246598940000008466914624060129416_);}
	.st105{fill:url(#SVGID_00000080920139745516523320000004830955707093560704_);}
	.st106{fill:url(#SVGID_00000059276763931027193960000015971501336038626695_);}
	.st107{fill:url(#SVGID_00000171697538940811691840000001598278081030152075_);}
	.st108{fill:url(#SVGID_00000099653355720133055730000014563522954982094246_);}
	.st109{fill:url(#SVGID_00000016766346709255159480000011082696861431938228_);}
	.st110{display:inline;fill:url(#SVGID_00000145033644945594570890000005733513264615881368_);}
	.st111{display:inline;fill:url(#SVGID_00000039115552114406608230000017014400319094568381_);}
	.st112{display:inline;fill:url(#SVGID_00000134226800913823412710000011846723943477099189_);}
	.st113{display:inline;fill:url(#SVGID_00000102505069934613514860000004399116584249395886_);}
	.st114{display:inline;fill:url(#SVGID_00000085946718746367148330000007702337279510991236_);}
	.st115{fill:url(#SVGID_00000053503446031536398580000007747457586307653785_);}
	.st116{fill:url(#SVGID_00000137129726357664039300000006831865659798572165_);}
	.st117{fill:url(#SVGID_00000026155052552871152960000004041860558877157533_);}
	.st118{fill:url(#SVGID_00000017507985560843045120000006605518166132289457_);}
	.st119{fill:url(#SVGID_00000029044013348833343130000006552130713945888140_);}
	.st120{fill:url(#SVGID_00000022555872109996163990000002726061667543518909_);}
	.st121{fill:url(#SVGID_00000071554480385407199150000017330059197818299029_);}
	.st122{fill:url(#SVGID_00000181799040152399368170000008430277146707012521_);}
	.st123{fill:url(#SVGID_00000032638964522350813790000015875378602996200327_);}
	.st124{fill:url(#SVGID_00000176758561726691385800000011018650579193242537_);}
	.st125{fill:url(#SVGID_00000054256794450378073990000017309966111697606554_);}
	.st126{fill:url(#SVGID_00000182514923149952859310000015880005009709300364_);}
	.st127{display:inline;fill:url(#SVGID_00000099622050570822003860000001581351411568276128_);}
	.st128{display:inline;fill:url(#SVGID_00000059279242441525883560000015502402690159899009_);}
	.st129{display:inline;fill:url(#SVGID_00000034769320705440831230000008031246948930865032_);}
	.st130{display:inline;fill:url(#SVGID_00000011744109901344802740000013444848797283439760_);}
	.st131{display:inline;fill:url(#SVGID_00000129207063974358565560000013545289958798672541_);}
	.st132{fill:url(#SVGID_00000090283456533726533890000008942063816318530191_);}
	.st133{fill:url(#SVGID_00000173843404518381234350000008972462713278949276_);}
	.st134{fill:url(#SVGID_00000067924849245938332620000017026425729213731243_);}
	.st135{fill:url(#SVGID_00000024709675918721910640000011331434613270494893_);}
	.st136{fill:url(#SVGID_00000078745701780326303960000006475497572419918469_);}
	.st137{fill:url(#SVGID_00000158716091076595857820000009447098818030780601_);}
</style>

	
		
			<path class="st0" d="m2517.1 86c-15.8-50.2-63.1-86-117.6-86s-101.8 35.8-117.6 86l-41.6 123.3v-202.1h-217.9c-38.7 0-74.6 15.8-101.8 41.6v-41.6h-223.7c-41.6 0-78.9 17.2-106.1 45.9v-45.9h-212.2c-90.3 0-164.9 74.6-164.9 164.9 0 43 17.2 83.2 44.4 111.8h-44.4v192.1h212.3c60.2 0 111.8-31.5 142-80.3 24.4 47.3 73.1 80.3 130.5 80.3h225.1v-41.6c25.8 25.8 61.7 41.6 101.8 41.6h622.3l-130.6-390z"/>
			
				
					<path d="m1246.8 172.1c0 73.1 58.8 131.9 131.9 131.9h45.9c4.3 0 7.2 2.9 7.2 7.2s-2.9 7.2-5.7 7.2h-179.2v55.9h179.2c34.4 0 63.1-28.7 63.1-63.1s-28.7-63.1-63.1-63.1h-45.9c-41.6 0-76-34.4-76-76s34.4-76 76-76h177.8v-56h-179.2c-73.2 0-132 58.8-132 132zm68.9 0c0 34.4 28.7 63.1 63.1 63.1h45.9c41.6 0 76 34.4 76 76s-34.4 76-76 76h-177.8v55.9h179.2c73.1 0 131.9-58.8 131.9-131.9s-58.8-131.9-131.9-131.9h-45.9c-4.3 0-7.2-2.9-7.2-7.2 0-2.9 2.9-5.7 5.7-5.7h179.3v-57.4h-179.2c-34.5 0-63.1 28.7-63.1 63.1zm734-7.2h159.2v-55.9h-186.4c-24.4 0-43 18.6-43 43v179.2c0 24.4 18.6 43 43 43h116.1v-126.1h-88.9v55.9h33v12.9h-33c-7.2 0-12.9-5.7-12.9-12.9v-126.2c0-7.2 5.7-12.9 12.9-12.9zm456 209.3-88.9-263.8c-2.9-7.2-8.6-12.9-17.2-12.9-7.2 0-14.3 5.7-17.2 11.5l-114.7 334.1h66l40.1-119v50.2h131.9v-0.1zm-107.6-120.4 18.6 57.4h-38.7l20.1-57.4zm87.5-154.9c-11.5-37.3-45.9-66-87.5-66s-76 27.2-86 64.5l-104.7 306.8v-225h-157.7v55.9h103.2v152h-129c-31.5 0-55.9-25.8-55.9-55.9v-179.2c0-31.5 25.8-55.9 55.9-55.9h185v-56h-186.4c-61.7 0-111.8 50.2-111.8 111.8v179.2c0 61.7 50.2 111.8 111.8 111.8h230.9l116.1-337c4.3-12.9 15.8-21.5 30.1-21.5s25.8 8.6 30.1 21.5l94.6 281h-149.1v55.9h226.6l-116.2-343.9zm-900.5 53.1v179.2c0 61.7 50.2 111.8 111.8 111.8h192.1v-55.9h-192.1c-31.5 0-55.9-25.8-55.9-55.9v-179.2c0-31.5 25.8-55.9 55.9-55.9h192.1v-56h-192.1c-61.6 0-111.8 50.2-111.8 111.9zm124.8 153.4h139.1v-55.9h-195v83.2c0 24.4 18.6 43 43 43h192.1v-55.9h-166.3c-7.2-1.5-12.9-7.2-12.9-14.4zm12.9-139.1h164.9v-57.3h-190.7c-24.4 0-43 18.6-43 43v83.2h195v-55.9h-139.1c0-7.2 5.7-13 12.9-13z"/>
				
			
		
		
			<path class="st0" d="m931.2 722c-5.3-15.8-13.1-31.2-23.1-45.6-10.2-14.7-22.7-28-37.2-39.6-15.2-12.1-33.1-21.7-53.1-28.5-19.7-6.7-41.6-10.1-65-10.1-24.3 0-46.4 3.5-65.5 10.4-19.3 6.9-36.5 16.7-51.3 29.1-12.8 10.8-24.2 23-33.8 36.5-9.7-13.6-21.4-26-34.8-36.9-14.9-12.1-32-21.7-51.1-28.6-19.2-6.9-41.2-10.4-65.5-10.4-24.1 0-46.2 3.4-65.7 10.2-19.6 6.8-37.2 16.3-52.4 28.4-14.8 11.8-27.4 25.4-37.3 40.3-9.2 13.7-16.7 28.3-22.4 43.2l-0.2 0.6-272.8 769.6h357.5l96.6-293.3 110 293.3h75.3l110.8-295.3 100.2 295.3h353.2l-272.4-768.6z"/>
			
				
					
						<path class="st0" d="m601.8 1085.6-114.2-306c-2.1-5.3-6.7-10.1-13.6-14.4s-14.7-6.4-23.2-6.4c-7.5 0-15.2 2.1-23.2 6.4s-12.8 9.1-14.4 14.4l-230.1 656.7h-106.2l246.9-696.6c4.3-11.2 9.8-22 16.8-32.4 6.9-10.4 15.6-19.7 26-28s22.5-14.8 36.3-19.6 29.8-7.2 47.9-7.2 33.8 2.4 47.1 7.2 25 11.3 35.2 19.6c10.1 8.3 18.8 17.6 26 28s13.4 21.2 18.8 32.4l24 47.9 24-47.9c5.9-11.2 12.4-22 19.6-32.4s15.7-19.7 25.6-28c9.8-8.3 21.4-14.8 34.8-19.6 13.3-4.8 29-7.2 47.1-7.2 17.6 0 33.4 2.4 47.5 7.2s26.4 11.3 36.7 19.6c10.4 8.3 19.2 17.6 26.4 28s12.6 21.2 16.4 32.4l246.9 696.6h-106.3l-230.3-656.6c-1.6-5.3-6.4-10.1-14.4-14.4s-15.7-6.4-23.2-6.4c-8.5 0-16.3 2.1-23.2 6.4s-11.5 9.1-13.6 14.4l-114.1 305.9zm0 350.8-151-402.6-132.6 402.6h-106.3l218.9-636.7c1.1-3.2 3.7-6 8-8.4s8.3-3.6 12-3.6 7.6 1.2 11.6 3.6 6.5 5.2 7.6 8.4l131.8 363.5 131.8-363.5c1.1-3.2 3.6-6 7.6-8.4s7.9-3.6 11.6-3.6 7.7 1.2 12 3.6 6.9 5.2 8 8.4l218.9 636.7h-102.3l-136.6-402.6-151 402.6z"/>
						<path class="st0" d="m1326.4 1490.6c-44 0-83-5.5-116-16.3-36.3-11.8-67.1-31-91.7-57.1-24.3-25.7-42.3-58.5-53.5-97.4-10.1-35.3-15.3-77.4-15.3-124.8v-301.1c0-49.1 5.1-91.9 15.3-127.2 11.2-39.1 29.3-71.8 53.7-97.3 24.8-25.8 55.8-44.6 92.4-55.9 32.8-10.1 71.5-15.2 115.1-15.2h102.3c44 0 83.1 5.1 116.1 15.1 37 11.3 68.2 30.2 92.8 56.2 24.2 25.6 41.9 58.4 52.8 97.4 9.8 35.3 14.8 77.9 14.8 126.8v301.2c0 47.3-5 89.2-14.8 124.4-10.8 39-28.5 71.8-52.5 97.6-24.4 26.2-55.4 45.5-92.1 57.4-33.2 10.8-72.6 16.2-117 16.2h-102.4z"/>
						<path class="st0" d="m1227.3 1422.8c-27.7-9-50.7-23.3-69.1-42.7s-32-44.5-40.7-75.1c-8.8-30.6-13.2-67.2-13.2-109.8v-301.3c0-44.2 4.4-81.6 13.2-112.2s22.4-55.5 40.7-74.7c18.4-19.2 41.4-33 69.1-41.5s60.7-12.8 99.1-12.8h102.3c38.9 0 72.3 4.3 100.3 12.8s51 22.4 69.1 41.5c18.1 19.2 31.4 44.1 39.9 74.7s12.8 68 12.8 112.2v301.2c0 42.6-4.3 79.2-12.8 109.8s-21.8 55.7-39.9 75.1-41.1 33.7-69.1 42.7c-28 9.1-61.4 13.6-100.3 13.6h-102.3c-38.4 0.1-71.4-4.5-99.1-13.5zm212.5-92.7c20.2 0 37.3-2.8 51.1-8.4s25.2-13.4 34-23.6c8.8-10.1 15.2-22.1 19.2-35.9s6-28.8 6-44.7v-346c0-16-2-30.9-6-44.7s-10.4-25.8-19.2-35.9-20.2-18-34.4-23.6c-14.1-5.6-31.3-8.4-51.5-8.4h-123c-20.2 0-37.4 2.8-51.5 8.4s-25.6 13.5-34.4 23.6-15.2 22.1-19.2 35.9c-4 13.9-6 28.8-6 44.7v345.9c0 16 2 30.9 6 44.7 4 13.9 10.4 25.8 19.2 35.9s20.1 18 34 23.6c13.8 5.6 30.9 8.4 51.1 8.4h62.3l62.3 0.1zm-114.2-28.8c-18.6 0-34-1.7-45.9-5.2-12-3.5-21.3-9.2-28-17.2s-11.3-18.2-14-30.8c-2.7-12.5-4-28.1-4-46.7v-314c0-13.8 1.3-26.9 4-39.1s7.5-22.9 14.4-32c6.9-9 16.4-16.1 28.4-21.2s27.3-7.6 45.9-7.6h102.2c18.6 0 34 2.5 45.9 7.6 12 5.1 21.4 12.1 28.4 21.2 6.9 9.1 11.7 19.7 14.4 32s4 25.3 4 39.1v314c0 18.6-1.3 34.2-4 46.7s-7.3 22.8-14 30.8-16 13.7-28 17.2-27.3 5.2-45.9 5.2h-103.8zm77.5-106.2c6.4 0 10.5-1.9 12.4-5.6s2.8-8.8 2.8-15.2v-259.6c0-6.4-0.9-11.4-2.8-15.2-1.9-3.7-6-5.6-12.4-5.6h-51.1c-6.4 0-10.5 1.9-12.4 5.6s-2.8 8.8-2.8 15.2v259.6c0 6.4 0.9 11.5 2.8 15.2s6 5.6 12.4 5.6h51.1z"/>
						<path class="st0" d="m1650.6 1490.6v-892.3h361.9c44 0 83.1 5.1 116.1 15.1 37 11.3 68.2 30.2 92.8 56.2 24.2 25.6 41.9 58.4 52.8 97.4 9.8 35.3 14.8 77.9 14.8 126.8v301.2c0 47.3-5 89.2-14.8 124.4-10.8 39-28.5 71.8-52.5 97.6-24.4 26.2-55.4 45.5-92.1 57.4-33.2 10.8-72.6 16.2-117 16.2h-362z"/>
						<path class="st0" d="m2074.8 1321.7c13.8-5.6 25.2-13.4 34-23.6 8.8-10.1 15.2-22.1 19.2-35.9s6-28.8 6-44.7v-346c0-16-2-30.9-6-44.7s-10.4-25.8-19.2-35.9-20.2-18-34.3-23.6-31.3-8.4-51.5-8.4h-318v-106.2h307.6c38.9 0 72.3 4.3 100.3 12.8s51 22.4 69.1 41.5c18.1 19.2 31.4 44.1 39.9 74.7s12.8 68 12.8 112.2v301.2c0 42.6-4.3 79.2-12.8 109.8s-21.8 55.7-39.9 75.1-41.1 33.7-69.1 42.7c-28 9.1-61.4 13.6-100.3 13.6h-307.7v-516.8h100.7v410.6h218.1c20.2 0 37.2-2.8 51.1-8.4zm-369.9-427.8v-106.2h307.6c18.6 0 34 2.5 45.9 7.6 12 5.1 21.4 12.1 28.4 21.2 6.9 9.1 11.7 19.7 14.4 32s4 25.3 4 39.1v314c0 18.6-1.3 34.2-4 46.7s-7.3 22.8-14 30.8-16 13.7-28 17.2-27.3 5.2-45.9 5.2h-178.9v-382h111.8v254.8c0 13.9 6.7 20.8 20 20.8h17.6c6.4 0 11.6-1.9 15.6-5.6s6-8.8 6-15.2v-259.6c0-6.4-2-11.4-6-15.2-4-3.7-9.2-5.6-15.6-5.6h-278.9z"/>
						<path class="st0" d="m2507 1490.6c-36.6 0-72.4-8-106.4-23.9-33-15.3-62.4-36.5-87.6-63-25-26.3-45.2-57.7-59.9-93.3-14.9-36-22.5-74.9-22.5-115.5v-301c0-40.6 7.6-79.5 22.5-115.5 14.7-35.6 34.9-67 59.9-93.3 25.1-26.4 54.6-47.6 87.6-63 34-15.8 69.8-23.9 106.4-23.9h357.1v350h-60.7v192.4h60.7v350h-357.1z"/>
						<path class="st0" d="m2284.9 893.9c0-33.6 6.1-65.1 18.4-94.7 12.2-29.6 28.6-55.1 49.1-76.7s44.2-38.6 71.1-51.1 54.7-18.8 83.5-18.8h302.8v106.3h-290c-20.2 0-38.3 4-54.3 12s-29.4 18.4-40.3 31.2-19.3 27.3-25.2 43.5c-5.9 16.3-8.8 32.4-8.8 48.3v301.2c0 16 2.9 32.1 8.8 48.3 5.9 16.3 14.2 30.8 25.2 43.5 10.9 12.8 24.4 23.2 40.3 31.2 16 8 34.1 12 54.3 12h290v106.2h-302.8c-28.8 0-56.6-6.3-83.5-18.8s-50.6-29.6-71.1-51.1c-20.5-21.6-36.9-47.1-49.1-76.7-12.3-29.6-18.4-61.1-18.4-94.7v-301.1zm135 137.4v-121.4c0-13.8 2.3-28.1 6.8-42.7s11.3-27.8 20.4-39.5c9-11.7 20.5-21.3 34.4-28.8 13.8-7.5 30.1-11.2 48.7-11.2h279.6v106.2h-277.2c-3.2 0-6.5 1.9-10 5.6s-5.2 8.8-5.2 15.2v11.2h231.7v105.5l-329.2-0.1zm0 26.4h329.1v106.2h-231.7v10.4c0 6.4 1.7 11.5 5.2 15.2s6.8 5.6 10 5.6h277.2v106.3h-279.6c-18.6 0-34.9-3.7-48.7-11.2-13.9-7.5-25.3-17-34.4-28.8-9.1-11.7-15.9-24.9-20.4-39.5s-6.8-28.9-6.8-42.7l0.1-121.5z"/>
						<path class="st0" d="m3086.2 1490.6c-36.6 0-72.4-8-106.4-23.9-33-15.3-62.4-36.5-87.6-63-25-26.3-45.2-57.7-59.9-93.3-14.9-36-22.5-74.9-22.5-115.5v-596.6h353.1v541.6h15.2v0.8h265.2v350h-357.1z"/>
						<path class="st0" d="m3388.9 1436.4h-302.8c-28.8 0-56.6-6.3-83.5-18.8s-50.6-29.6-71.1-51.1c-20.5-21.6-36.9-47.1-49.1-76.7-12.3-29.6-18.4-61.1-18.4-94.7v-542.4h106.3v542.4c0 16 2.9 32.1 8.8 48.3 5.9 16.3 14.2 30.8 25.2 43.5 10.9 12.8 24.4 23.2 40.3 31.2 16 8 34.1 12 54.3 12h290v106.3zm-265.2-241.3h265.2v106.3h-279.6c-18.6 0-34.9-3.7-48.7-11.2-13.9-7.5-25.3-17-34.4-28.8-9.1-11.7-15.9-24.9-20.4-39.5s-6.8-28.9-6.8-42.7v-526.5h109.4v521.7c0 6.4 1.7 11.3 5.2 14.8s6.8 5.2 10 5.2v0.7h0.1z"/>
						<path class="st0" d="m3497.7 1490.6v-542.3h-120.7v-350h185.4c36.6 0 72.4 8 106.4 23.8 33 15.4 62.5 36.5 87.6 63 25 26.3 45.2 57.7 59.9 93.3 14.9 36 22.5 74.9 22.5 115.5v596.8h-341.1z"/>
					
					
						
							
								<linearGradient id="f" x1="-921.62" x2="-921.62" y1="8638.6" y2="7854.7" gradientTransform="matrix(1 0 0 -1 1523.5 9291.1)" gradientUnits="userSpaceOnUse">
								<stop stop-color="#23BFD4" offset="0"/>
								<stop stop-color="#3F4DA0" offset=".7031"/>
							</linearGradient>
							<path class="st1" d="m601.8 1085.6-114.2-306c-2.1-5.3-6.7-10.1-13.6-14.4s-14.7-6.4-23.2-6.4c-7.5 0-15.2 2.1-23.2 6.4s-12.8 9.1-14.4 14.4l-230.1 656.7h-106.2l246.9-696.6c4.3-11.2 9.8-22 16.8-32.4 6.9-10.4 15.6-19.7 26-28s22.5-14.8 36.3-19.6 29.8-7.2 47.9-7.2 33.8 2.4 47.1 7.2 25 11.3 35.2 19.6c10.1 8.3 18.8 17.6 26 28s13.4 21.2 18.8 32.4l24 47.9 24-47.9c5.9-11.2 12.4-22 19.6-32.4s15.7-19.7 25.6-28c9.8-8.3 21.4-14.8 34.8-19.6 13.3-4.8 29-7.2 47.1-7.2 17.6 0 33.4 2.4 47.5 7.2s26.4 11.3 36.7 19.6c10.4 8.3 19.2 17.6 26.4 28s12.6 21.2 16.4 32.4l246.9 696.6h-106.3l-230.3-656.6c-1.6-5.3-6.4-10.1-14.4-14.4s-15.7-6.4-23.2-6.4c-8.5 0-16.3 2.1-23.2 6.4s-11.5 9.1-13.6 14.4l-114.1 305.9zm0 350.8-151-402.6-132.6 402.6h-106.3l218.9-636.7c1.1-3.2 3.7-6 8-8.4s8.3-3.6 12-3.6 7.6 1.2 11.6 3.6 6.5 5.2 7.6 8.4l131.8 363.5 131.8-363.5c1.1-3.2 3.6-6 7.6-8.4s7.9-3.6 11.6-3.6 7.7 1.2 12 3.6 6.9 5.2 8 8.4l218.9 636.7h-102.3l-136.6-402.6-151 402.6z"/>
						
						
							
								<linearGradient id="l" x1="-146" x2="-146" y1="8638.4" y2="7854.8" gradientTransform="matrix(1 0 0 -1 1523.5 9291.1)" gradientUnits="userSpaceOnUse">
								<stop stop-color="#23BFD4" offset="0"/>
								<stop stop-color="#3F4DA0" offset=".7031"/>
							</linearGradient>
							<path d="m1227.3 1422.8c-27.7-9-50.7-23.3-69.1-42.7s-32-44.5-40.7-75.1c-8.8-30.6-13.2-67.2-13.2-109.8v-301.3c0-44.2 4.4-81.6 13.2-112.2s22.4-55.5 40.7-74.7c18.4-19.2 41.4-33 69.1-41.5s60.7-12.8 99.1-12.8h102.3c38.9 0 72.3 4.3 100.3 12.8s51 22.4 69.1 41.5c18.1 19.2 31.4 44.1 39.9 74.7s12.8 68 12.8 112.2v301.2c0 42.6-4.3 79.2-12.8 109.8s-21.8 55.7-39.9 75.1-41.1 33.7-69.1 42.7c-28 9.1-61.4 13.6-100.3 13.6h-102.3c-38.4 0.1-71.4-4.5-99.1-13.5zm212.5-92.7c20.2 0 37.3-2.8 51.1-8.4s25.2-13.4 34-23.6c8.8-10.1 15.2-22.1 19.2-35.9s6-28.8 6-44.7v-346c0-16-2-30.9-6-44.7s-10.4-25.8-19.2-35.9-20.2-18-34.4-23.6c-14.1-5.6-31.3-8.4-51.5-8.4h-123c-20.2 0-37.4 2.8-51.5 8.4s-25.6 13.5-34.4 23.6-15.2 22.1-19.2 35.9c-4 13.9-6 28.8-6 44.7v345.9c0 16 2 30.9 6 44.7 4 13.9 10.4 25.8 19.2 35.9s20.1 18 34 23.6c13.8 5.6 30.9 8.4 51.1 8.4h62.3l62.3 0.1zm-114.2-28.8c-18.6 0-34-1.7-45.9-5.2-12-3.5-21.3-9.2-28-17.2s-11.3-18.2-14-30.8c-2.7-12.5-4-28.1-4-46.7v-314c0-13.8 1.3-26.9 4-39.1s7.5-22.9 14.4-32c6.9-9 16.4-16.1 28.4-21.2s27.3-7.6 45.9-7.6h102.2c18.6 0 34 2.5 45.9 7.6 12 5.1 21.4 12.1 28.4 21.2 6.9 9.1 11.7 19.7 14.4 32s4 25.3 4 39.1v314c0 18.6-1.3 34.2-4 46.7s-7.3 22.8-14 30.8-16 13.7-28 17.2-27.3 5.2-45.9 5.2h-103.8zm77.5-106.2c6.4 0 10.5-1.9 12.4-5.6s2.8-8.8 2.8-15.2v-259.6c0-6.4-0.9-11.4-2.8-15.2-1.9-3.7-6-5.6-12.4-5.6h-51.1c-6.4 0-10.5 1.9-12.4 5.6s-2.8 8.8-2.8 15.2v259.6c0 6.4 0.9 11.5 2.8 15.2s6 5.6 12.4 5.6h51.1z" fill="url(#l)"/>
						
						
							
								<linearGradient id="h" x1="446.33" x2="446.33" y1="8638.4" y2="7854.8" gradientTransform="matrix(1 0 0 -1 1523.5 9291.1)" gradientUnits="userSpaceOnUse">
								<stop stop-color="#23BFD4" offset="0"/>
								<stop stop-color="#3F4DA0" offset=".7031"/>
							</linearGradient>
							<path d="m2074.8 1321.7c13.8-5.6 25.2-13.4 34-23.6 8.8-10.1 15.2-22.1 19.2-35.9s6-28.8 6-44.7v-346c0-16-2-30.9-6-44.7s-10.4-25.8-19.2-35.9-20.2-18-34.3-23.6-31.3-8.4-51.5-8.4h-318v-106.2h307.6c38.9 0 72.3 4.3 100.3 12.8s51 22.4 69.1 41.5c18.1 19.2 31.4 44.1 39.9 74.7s12.8 68 12.8 112.2v301.2c0 42.6-4.3 79.2-12.8 109.8s-21.8 55.7-39.9 75.1-41.1 33.7-69.1 42.7c-28 9.1-61.4 13.6-100.3 13.6h-307.7v-516.8h100.7v410.6h218.1c20.2 0 37.2-2.8 51.1-8.4zm-369.9-427.8v-106.2h307.6c18.6 0 34 2.5 45.9 7.6 12 5.1 21.4 12.1 28.4 21.2 6.9 9.1 11.7 19.7 14.4 32s4 25.3 4 39.1v314c0 18.6-1.3 34.2-4 46.7s-7.3 22.8-14 30.8-16 13.7-28 17.2-27.3 5.2-45.9 5.2h-178.9v-382h111.8v254.8c0 13.9 6.7 20.8 20 20.8h17.6c6.4 0 11.6-1.9 15.6-5.6s6-8.8 6-15.2v-259.6c0-6.4-2-11.4-6-15.2-4-3.7-9.2-5.6-15.6-5.6h-278.9z" fill="url(#h)"/>
						
						
							
								<linearGradient id="j" x1="1023.9" x2="1023.9" y1="8638.5" y2="7854.8" gradientTransform="matrix(1 0 0 -1 1523.5 9291.1)" gradientUnits="userSpaceOnUse">
								<stop stop-color="#23BFD4" offset="0"/>
								<stop stop-color="#3F4DA0" offset=".7031"/>
							</linearGradient>
							<path d="m2284.9 893.9c0-33.6 6.1-65.1 18.4-94.7 12.2-29.6 28.6-55.1 49.1-76.7s44.2-38.6 71.1-51.1 54.7-18.8 83.5-18.8h302.8v106.3h-290c-20.2 0-38.3 4-54.3 12s-29.4 18.4-40.3 31.2-19.3 27.3-25.2 43.5c-5.9 16.3-8.8 32.4-8.8 48.3v301.2c0 16 2.9 32.1 8.8 48.3 5.9 16.3 14.2 30.8 25.2 43.5 10.9 12.8 24.4 23.2 40.3 31.2 16 8 34.1 12 54.3 12h290v106.2h-302.8c-28.8 0-56.6-6.3-83.5-18.8s-50.6-29.6-71.1-51.1c-20.5-21.6-36.9-47.1-49.1-76.7-12.3-29.6-18.4-61.1-18.4-94.7v-301.1zm135 137.4v-121.4c0-13.8 2.3-28.1 6.8-42.7s11.3-27.8 20.4-39.5c9-11.7 20.5-21.3 34.4-28.8 13.8-7.5 30.1-11.2 48.7-11.2h279.6v106.2h-277.2c-3.2 0-6.5 1.9-10 5.6s-5.2 8.8-5.2 15.2v11.2h231.7v105.5l-329.2-0.1zm0 26.4h329.1v106.2h-231.7v10.4c0 6.4 1.7 11.5 5.2 15.2s6.8 5.6 10 5.6h277.2v106.3h-279.6c-18.6 0-34.9-3.7-48.7-11.2-13.9-7.5-25.3-17-34.4-28.8-9.1-11.7-15.9-24.9-20.4-39.5s-6.8-28.9-6.8-42.7l0.1-121.5z" fill="url(#j)"/>
						
						
							
								<linearGradient id="i" x1="1602.9" x2="1602.9" y1="8638.4" y2="7854.7" gradientTransform="matrix(1 0 0 -1 1523.5 9291.1)" gradientUnits="userSpaceOnUse">
								<stop stop-color="#23BFD4" offset="0"/>
								<stop stop-color="#3F4DA0" offset=".7031"/>
							</linearGradient>
							<path d="m3388.9 1436.4h-302.8c-28.8 0-56.6-6.3-83.5-18.8s-50.6-29.6-71.1-51.1c-20.5-21.6-36.9-47.1-49.1-76.7-12.3-29.6-18.4-61.1-18.4-94.7v-542.4h106.3v542.4c0 16 2.9 32.1 8.8 48.3 5.9 16.3 14.2 30.8 25.2 43.5 10.9 12.8 24.4 23.2 40.3 31.2 16 8 34.1 12 54.3 12h290v106.3zm-265.2-241.3h265.2v106.3h-279.6c-18.6 0-34.9-3.7-48.7-11.2-13.9-7.5-25.3-17-34.4-28.8-9.1-11.7-15.9-24.9-20.4-39.5s-6.8-28.9-6.8-42.7v-526.5h109.4v521.7c0 6.4 1.7 11.3 5.2 14.8s6.8 5.2 10 5.2v0.7h0.1z" fill="url(#i)"/>
						
						
							<linearGradient id="k" x1="2084.4" x2="2084.4" y1="7854.7" y2="8638.5" gradientTransform="matrix(1 0 0 -1 1523.5 9291.1)" gradientUnits="userSpaceOnUse">
							<stop stop-color="#1C639E" offset="0"/>
							<stop stop-color="#26B3CF" offset="1"/>
						</linearGradient>
						<path d="m3784.5 1436.4h-106.3v-542.5c0-16-2.9-32.1-8.8-48.3s-14.2-30.8-25.2-43.5c-10.9-12.8-24.4-23.2-40.3-31.2-16-8-34.1-12-54.3-12h-118.3v-106.3h131.1c28.8 0 56.6 6.3 83.5 18.8s50.6 29.6 71.1 51.1c20.5 21.6 36.9 47.1 49.1 76.7 12.3 29.6 18.4 61.1 18.4 94.7v542.5zm-232.4-262.1v-259.6c0-6.4-1.7-11.4-5.2-15.2-3.5-3.7-6.8-5.6-10-5.6h-105.5v-106.2h107.9c18.6 0 34.9 3.7 48.7 11.2 13.9 7.5 25.3 17.1 34.4 28.8s15.9 24.9 20.4 39.5c4.5 14.7 6.8 28.9 6.8 42.7v235.6m-0.1-48.1v339h-97.5v-272.4" fill="url(#k)"/>
					
					
						
							<g class="st7">
								
									<linearGradient id="e" x1="-921.62" x2="-921.62" y1="8638.6" y2="7854.7" gradientTransform="matrix(1 0 0 -1 1523.5 9291.1)" gradientUnits="userSpaceOnUse">
									<stop stop-color="#0094BF" offset="0"/>
									<stop stop-color="#0090BD" stop-opacity=".5" offset=".028659"/>
									<stop stop-color="#282A71" offset="1"/>
								</linearGradient>
								<path d="m601.8 1085.6-114.2-306c-2.1-5.3-6.7-10.1-13.6-14.4s-14.7-6.4-23.2-6.4c-7.5 0-15.2 2.1-23.2 6.4s-12.8 9.1-14.4 14.4l-230.1 656.7h-106.2l246.9-696.6c4.3-11.2 9.8-22 16.8-32.4 6.9-10.4 15.6-19.7 26-28s22.5-14.8 36.3-19.6 29.8-7.2 47.9-7.2 33.8 2.4 47.1 7.2 25 11.3 35.2 19.6c10.1 8.3 18.8 17.6 26 28s13.4 21.2 18.8 32.4l24 47.9 24-47.9c5.9-11.2 12.4-22 19.6-32.4s15.7-19.7 25.6-28c9.8-8.3 21.4-14.8 34.8-19.6 13.3-4.8 29-7.2 47.1-7.2 17.6 0 33.4 2.4 47.5 7.2s26.4 11.3 36.7 19.6c10.4 8.3 19.2 17.6 26.4 28s12.6 21.2 16.4 32.4l246.9 696.6h-106.3l-230.3-656.6c-1.6-5.3-6.4-10.1-14.4-14.4s-15.7-6.4-23.2-6.4c-8.5 0-16.3 2.1-23.2 6.4s-11.5 9.1-13.6 14.4l-114.1 305.9zm0 350.8-151-402.6-132.6 402.6h-106.3l218.9-636.7c1.1-3.2 3.7-6 8-8.4s8.3-3.6 12-3.6 7.6 1.2 11.6 3.6 6.5 5.2 7.6 8.4l131.8 363.5 131.8-363.5c1.1-3.2 3.6-6 7.6-8.4s7.9-3.6 11.6-3.6 7.7 1.2 12 3.6 6.9 5.2 8 8.4l218.9 636.7h-102.3l-136.6-402.6-151 402.6z" fill="url(#e)"/>
								
									<linearGradient id="a" x1="-146" x2="-146" y1="8638.4" y2="7854.8" gradientTransform="matrix(1 0 0 -1 1523.5 9291.1)" gradientUnits="userSpaceOnUse">
									<stop stop-color="#0094BF" offset="0"/>
									<stop stop-color="#0090BD" stop-opacity=".5" offset=".028659"/>
									<stop stop-color="#282A71" offset="1"/>
								</linearGradient>
								<path d="m1227.3 1422.8c-27.7-9-50.7-23.3-69.1-42.7s-32-44.5-40.7-75.1c-8.8-30.6-13.2-67.2-13.2-109.8v-301.3c0-44.2 4.4-81.6 13.2-112.2s22.4-55.5 40.7-74.7c18.4-19.2 41.4-33 69.1-41.5s60.7-12.8 99.1-12.8h102.3c38.9 0 72.3 4.3 100.3 12.8s51 22.4 69.1 41.5c18.1 19.2 31.4 44.1 39.9 74.7s12.8 68 12.8 112.2v301.2c0 42.6-4.3 79.2-12.8 109.8s-21.8 55.7-39.9 75.1-41.1 33.7-69.1 42.7c-28 9.1-61.4 13.6-100.3 13.6h-102.3c-38.4 0.1-71.4-4.5-99.1-13.5zm212.5-92.7c20.2 0 37.3-2.8 51.1-8.4s25.2-13.4 34-23.6c8.8-10.1 15.2-22.1 19.2-35.9s6-28.8 6-44.7v-346c0-16-2-30.9-6-44.7s-10.4-25.8-19.2-35.9-20.2-18-34.4-23.6c-14.1-5.6-31.3-8.4-51.5-8.4h-123c-20.2 0-37.4 2.8-51.5 8.4s-25.6 13.5-34.4 23.6-15.2 22.1-19.2 35.9c-4 13.9-6 28.8-6 44.7v345.9c0 16 2 30.9 6 44.7 4 13.9 10.4 25.8 19.2 35.9s20.1 18 34 23.6c13.8 5.6 30.9 8.4 51.1 8.4h62.3l62.3 0.1zm-114.2-28.8c-18.6 0-34-1.7-45.9-5.2-12-3.5-21.3-9.2-28-17.2s-11.3-18.2-14-30.8c-2.7-12.5-4-28.1-4-46.7v-314c0-13.8 1.3-26.9 4-39.1s7.5-22.9 14.4-32c6.9-9 16.4-16.1 28.4-21.2s27.3-7.6 45.9-7.6h102.2c18.6 0 34 2.5 45.9 7.6 12 5.1 21.4 12.1 28.4 21.2 6.9 9.1 11.7 19.7 14.4 32s4 25.3 4 39.1v314c0 18.6-1.3 34.2-4 46.7s-7.3 22.8-14 30.8-16 13.7-28 17.2-27.3 5.2-45.9 5.2h-103.8zm77.5-106.2c6.4 0 10.5-1.9 12.4-5.6s2.8-8.8 2.8-15.2v-259.6c0-6.4-0.9-11.4-2.8-15.2-1.9-3.7-6-5.6-12.4-5.6h-51.1c-6.4 0-10.5 1.9-12.4 5.6s-2.8 8.8-2.8 15.2v259.6c0 6.4 0.9 11.5 2.8 15.2s6 5.6 12.4 5.6h51.1z" fill="url(#a)"/>
								
									<linearGradient id="b" x1="446.33" x2="446.33" y1="8638.4" y2="7854.8" gradientTransform="matrix(1 0 0 -1 1523.5 9291.1)" gradientUnits="userSpaceOnUse">
									<stop stop-color="#0094BF" offset="0"/>
									<stop stop-color="#0090BD" stop-opacity=".5" offset=".028659"/>
									<stop stop-color="#282A71" offset="1"/>
								</linearGradient>
								<path d="m2074.8 1321.7c13.8-5.6 25.2-13.4 34-23.6 8.8-10.1 15.2-22.1 19.2-35.9s6-28.8 6-44.7v-346c0-16-2-30.9-6-44.7s-10.4-25.8-19.2-35.9-20.2-18-34.3-23.6-31.3-8.4-51.5-8.4h-318v-106.2h307.6c38.9 0 72.3 4.3 100.3 12.8s51 22.4 69.1 41.5c18.1 19.2 31.4 44.1 39.9 74.7s12.8 68 12.8 112.2v301.2c0 42.6-4.3 79.2-12.8 109.8s-21.8 55.7-39.9 75.1-41.1 33.7-69.1 42.7c-28 9.1-61.4 13.6-100.3 13.6h-307.7v-516.8h100.7v410.6h218.1c20.2 0 37.2-2.8 51.1-8.4zm-369.9-427.8v-106.2h307.6c18.6 0 34 2.5 45.9 7.6 12 5.1 21.4 12.1 28.4 21.2 6.9 9.1 11.7 19.7 14.4 32s4 25.3 4 39.1v314c0 18.6-1.3 34.2-4 46.7s-7.3 22.8-14 30.8-16 13.7-28 17.2-27.3 5.2-45.9 5.2h-178.9v-382h111.8v254.8c0 13.9 6.7 20.8 20 20.8h17.6c6.4 0 11.6-1.9 15.6-5.6s6-8.8 6-15.2v-259.6c0-6.4-2-11.4-6-15.2-4-3.7-9.2-5.6-15.6-5.6h-278.9z" fill="url(#b)"/>
								
									<linearGradient id="d" x1="1023.9" x2="1023.9" y1="8638.5" y2="7854.8" gradientTransform="matrix(1 0 0 -1 1523.5 9291.1)" gradientUnits="userSpaceOnUse">
									<stop stop-color="#0094BF" offset="0"/>
									<stop stop-color="#0090BD" stop-opacity=".5" offset=".028659"/>
									<stop stop-color="#282A71" offset="1"/>
								</linearGradient>
								<path d="m2284.9 893.9c0-33.6 6.1-65.1 18.4-94.7 12.2-29.6 28.6-55.1 49.1-76.7s44.2-38.6 71.1-51.1 54.7-18.8 83.5-18.8h302.8v106.3h-290c-20.2 0-38.3 4-54.3 12s-29.4 18.4-40.3 31.2-19.3 27.3-25.2 43.5c-5.9 16.3-8.8 32.4-8.8 48.3v301.2c0 16 2.9 32.1 8.8 48.3 5.9 16.3 14.2 30.8 25.2 43.5 10.9 12.8 24.4 23.2 40.3 31.2 16 8 34.1 12 54.3 12h290v106.2h-302.8c-28.8 0-56.6-6.3-83.5-18.8s-50.6-29.6-71.1-51.1c-20.5-21.6-36.9-47.1-49.1-76.7-12.3-29.6-18.4-61.1-18.4-94.7v-301.1zm135 137.4v-121.4c0-13.8 2.3-28.1 6.8-42.7s11.3-27.8 20.4-39.5c9-11.7 20.5-21.3 34.4-28.8 13.8-7.5 30.1-11.2 48.7-11.2h279.6v106.2h-277.2c-3.2 0-6.5 1.9-10 5.6s-5.2 8.8-5.2 15.2v11.2h231.7v105.5l-329.2-0.1zm0 26.4h329.1v106.2h-231.7v10.4c0 6.4 1.7 11.5 5.2 15.2s6.8 5.6 10 5.6h277.2v106.3h-279.6c-18.6 0-34.9-3.7-48.7-11.2-13.9-7.5-25.3-17-34.4-28.8-9.1-11.7-15.9-24.9-20.4-39.5s-6.8-28.9-6.8-42.7l0.1-121.5z" fill="url(#d)"/>
								
									<linearGradient id="c" x1="1602.9" x2="1602.9" y1="8638.4" y2="7854.7" gradientTransform="matrix(1 0 0 -1 1523.5 9291.1)" gradientUnits="userSpaceOnUse">
									<stop stop-color="#0094BF" offset="0"/>
									<stop stop-color="#0090BD" stop-opacity=".5" offset=".028659"/>
									<stop stop-color="#282A71" offset="1"/>
								</linearGradient>
								<path d="m3388.9 1436.4h-302.8c-28.8 0-56.6-6.3-83.5-18.8s-50.6-29.6-71.1-51.1c-20.5-21.6-36.9-47.1-49.1-76.7-12.3-29.6-18.4-61.1-18.4-94.7v-542.4h106.3v542.4c0 16 2.9 32.1 8.8 48.3 5.9 16.3 14.2 30.8 25.2 43.5 10.9 12.8 24.4 23.2 40.3 31.2 16 8 34.1 12 54.3 12h290v106.3zm-265.2-241.3h265.2v106.3h-279.6c-18.6 0-34.9-3.7-48.7-11.2-13.9-7.5-25.3-17-34.4-28.8-9.1-11.7-15.9-24.9-20.4-39.5s-6.8-28.9-6.8-42.7v-526.5h109.4v521.7c0 6.4 1.7 11.3 5.2 14.8s6.8 5.2 10 5.2v0.7h0.1z" fill="url(#c)"/>
							</g>
							
								
									
								<path d="m601.8 1085.6-114.2-306c-2.1-5.3-6.7-10.1-13.6-14.4s-14.7-6.4-23.2-6.4c-7.5 0-15.2 2.1-23.2 6.4s-12.8 9.1-14.4 14.4l-230.1 656.7h-106.2l246.9-696.6c4.3-11.2 9.8-22 16.8-32.4 6.9-10.4 15.6-19.7 26-28s22.5-14.8 36.3-19.6 29.8-7.2 47.9-7.2 33.8 2.4 47.1 7.2 25 11.3 35.2 19.6c10.1 8.3 18.8 17.6 26 28s13.4 21.2 18.8 32.4l24 47.9 24-47.9c5.9-11.2 12.4-22 19.6-32.4s15.7-19.7 25.6-28c9.8-8.3 21.4-14.8 34.8-19.6 13.3-4.8 29-7.2 47.1-7.2 17.6 0 33.4 2.4 47.5 7.2s26.4 11.3 36.7 19.6c10.4 8.3 19.2 17.6 26.4 28s12.6 21.2 16.4 32.4l246.9 696.6h-106.3l-230.3-656.6c-1.6-5.3-6.4-10.1-14.4-14.4s-15.7-6.4-23.2-6.4c-8.5 0-16.3 2.1-23.2 6.4s-11.5 9.1-13.6 14.4l-114.1 305.9zm0 350.8-151-402.6-132.6 402.6h-106.3l218.9-636.7c1.1-3.2 3.7-6 8-8.4s8.3-3.6 12-3.6 7.6 1.2 11.6 3.6 6.5 5.2 7.6 8.4l131.8 363.5 131.8-363.5c1.1-3.2 3.6-6 7.6-8.4s7.9-3.6 11.6-3.6 7.7 1.2 12 3.6 6.9 5.2 8 8.4l218.9 636.7h-102.3l-136.6-402.6-151 402.6z" fill="url(#e)"/>
								
									
								<path d="m1227.3 1422.8c-27.7-9-50.7-23.3-69.1-42.7s-32-44.5-40.7-75.1c-8.8-30.6-13.2-67.2-13.2-109.8v-301.3c0-44.2 4.4-81.6 13.2-112.2s22.4-55.5 40.7-74.7c18.4-19.2 41.4-33 69.1-41.5s60.7-12.8 99.1-12.8h102.3c38.9 0 72.3 4.3 100.3 12.8s51 22.4 69.1 41.5c18.1 19.2 31.4 44.1 39.9 74.7s12.8 68 12.8 112.2v301.2c0 42.6-4.3 79.2-12.8 109.8s-21.8 55.7-39.9 75.1-41.1 33.7-69.1 42.7c-28 9.1-61.4 13.6-100.3 13.6h-102.3c-38.4 0.1-71.4-4.5-99.1-13.5zm212.5-92.7c20.2 0 37.3-2.8 51.1-8.4s25.2-13.4 34-23.6c8.8-10.1 15.2-22.1 19.2-35.9s6-28.8 6-44.7v-346c0-16-2-30.9-6-44.7s-10.4-25.8-19.2-35.9-20.2-18-34.4-23.6c-14.1-5.6-31.3-8.4-51.5-8.4h-123c-20.2 0-37.4 2.8-51.5 8.4s-25.6 13.5-34.4 23.6-15.2 22.1-19.2 35.9c-4 13.9-6 28.8-6 44.7v345.9c0 16 2 30.9 6 44.7 4 13.9 10.4 25.8 19.2 35.9s20.1 18 34 23.6c13.8 5.6 30.9 8.4 51.1 8.4h62.3l62.3 0.1zm-114.2-28.8c-18.6 0-34-1.7-45.9-5.2-12-3.5-21.3-9.2-28-17.2s-11.3-18.2-14-30.8c-2.7-12.5-4-28.1-4-46.7v-314c0-13.8 1.3-26.9 4-39.1s7.5-22.9 14.4-32c6.9-9 16.4-16.1 28.4-21.2s27.3-7.6 45.9-7.6h102.2c18.6 0 34 2.5 45.9 7.6 12 5.1 21.4 12.1 28.4 21.2 6.9 9.1 11.7 19.7 14.4 32s4 25.3 4 39.1v314c0 18.6-1.3 34.2-4 46.7s-7.3 22.8-14 30.8-16 13.7-28 17.2-27.3 5.2-45.9 5.2h-103.8zm77.5-106.2c6.4 0 10.5-1.9 12.4-5.6s2.8-8.8 2.8-15.2v-259.6c0-6.4-0.9-11.4-2.8-15.2-1.9-3.7-6-5.6-12.4-5.6h-51.1c-6.4 0-10.5 1.9-12.4 5.6s-2.8 8.8-2.8 15.2v259.6c0 6.4 0.9 11.5 2.8 15.2s6 5.6 12.4 5.6h51.1z" fill="url(#a)"/>
								
									
								<path d="m2074.8 1321.7c13.8-5.6 25.2-13.4 34-23.6 8.8-10.1 15.2-22.1 19.2-35.9s6-28.8 6-44.7v-346c0-16-2-30.9-6-44.7s-10.4-25.8-19.2-35.9-20.2-18-34.3-23.6-31.3-8.4-51.5-8.4h-318v-106.2h307.6c38.9 0 72.3 4.3 100.3 12.8s51 22.4 69.1 41.5c18.1 19.2 31.4 44.1 39.9 74.7s12.8 68 12.8 112.2v301.2c0 42.6-4.3 79.2-12.8 109.8s-21.8 55.7-39.9 75.1-41.1 33.7-69.1 42.7c-28 9.1-61.4 13.6-100.3 13.6h-307.7v-516.8h100.7v410.6h218.1c20.2 0 37.2-2.8 51.1-8.4zm-369.9-427.8v-106.2h307.6c18.6 0 34 2.5 45.9 7.6 12 5.1 21.4 12.1 28.4 21.2 6.9 9.1 11.7 19.7 14.4 32s4 25.3 4 39.1v314c0 18.6-1.3 34.2-4 46.7s-7.3 22.8-14 30.8-16 13.7-28 17.2-27.3 5.2-45.9 5.2h-178.9v-382h111.8v254.8c0 13.9 6.7 20.8 20 20.8h17.6c6.4 0 11.6-1.9 15.6-5.6s6-8.8 6-15.2v-259.6c0-6.4-2-11.4-6-15.2-4-3.7-9.2-5.6-15.6-5.6h-278.9z" fill="url(#b)"/>
								
									
								<path d="m2284.9 893.9c0-33.6 6.1-65.1 18.4-94.7 12.2-29.6 28.6-55.1 49.1-76.7s44.2-38.6 71.1-51.1 54.7-18.8 83.5-18.8h302.8v106.3h-290c-20.2 0-38.3 4-54.3 12s-29.4 18.4-40.3 31.2-19.3 27.3-25.2 43.5c-5.9 16.3-8.8 32.4-8.8 48.3v301.2c0 16 2.9 32.1 8.8 48.3 5.9 16.3 14.2 30.8 25.2 43.5 10.9 12.8 24.4 23.2 40.3 31.2 16 8 34.1 12 54.3 12h290v106.2h-302.8c-28.8 0-56.6-6.3-83.5-18.8s-50.6-29.6-71.1-51.1c-20.5-21.6-36.9-47.1-49.1-76.7-12.3-29.6-18.4-61.1-18.4-94.7v-301.1zm135 137.4v-121.4c0-13.8 2.3-28.1 6.8-42.7s11.3-27.8 20.4-39.5c9-11.7 20.5-21.3 34.4-28.8 13.8-7.5 30.1-11.2 48.7-11.2h279.6v106.2h-277.2c-3.2 0-6.5 1.9-10 5.6s-5.2 8.8-5.2 15.2v11.2h231.7v105.5l-329.2-0.1zm0 26.4h329.1v106.2h-231.7v10.4c0 6.4 1.7 11.5 5.2 15.2s6.8 5.6 10 5.6h277.2v106.3h-279.6c-18.6 0-34.9-3.7-48.7-11.2-13.9-7.5-25.3-17-34.4-28.8-9.1-11.7-15.9-24.9-20.4-39.5s-6.8-28.9-6.8-42.7l0.1-121.5z" fill="url(#d)"/>
								
									
								<path d="m3388.9 1436.4h-302.8c-28.8 0-56.6-6.3-83.5-18.8s-50.6-29.6-71.1-51.1c-20.5-21.6-36.9-47.1-49.1-76.7-12.3-29.6-18.4-61.1-18.4-94.7v-542.4h106.3v542.4c0 16 2.9 32.1 8.8 48.3 5.9 16.3 14.2 30.8 25.2 43.5 10.9 12.8 24.4 23.2 40.3 31.2 16 8 34.1 12 54.3 12h290v106.3zm-265.2-241.3h265.2v106.3h-279.6c-18.6 0-34.9-3.7-48.7-11.2-13.9-7.5-25.3-17-34.4-28.8-9.1-11.7-15.9-24.9-20.4-39.5s-6.8-28.9-6.8-42.7v-526.5h109.4v521.7c0 6.4 1.7 11.3 5.2 14.8s6.8 5.2 10 5.2v0.7h0.1z" fill="url(#c)"/>
								
									<linearGradient id="g" x1="2084.4" x2="2084.4" y1="8638.5" y2="7854.7" gradientTransform="matrix(1 0 0 -1 1523.5 9291.1)" gradientUnits="userSpaceOnUse">
									<stop stop-color="#0094BF" offset="0"/>
									<stop stop-color="#0090BD" stop-opacity=".5" offset=".028659"/>
									<stop stop-color="#282A71" offset="1"/>
								</linearGradient>
								<path d="m3784.5 1436.4h-106.3v-542.5c0-16-2.9-32.1-8.8-48.3s-14.2-30.8-25.2-43.5c-10.9-12.8-24.4-23.2-40.3-31.2-16-8-34.1-12-54.3-12h-118.3v-106.3h131.1c28.8 0 56.6 6.3 83.5 18.8s50.6 29.6 71.1 51.1c20.5 21.6 36.9 47.1 49.1 76.7 12.3 29.6 18.4 61.1 18.4 94.7v542.5zm-232.4-262.1v-259.6c0-6.4-1.7-11.4-5.2-15.2-3.5-3.7-6.8-5.6-10-5.6h-105.5v-106.2h107.9c18.6 0 34.9 3.7 48.7 11.2 13.9 7.5 25.3 17.1 34.4 28.8s15.9 24.9 20.4 39.5c4.5 14.7 6.8 28.9 6.8 42.7v235.6m-0.1-48.1v339h-97.5v-272.4" fill="url(#g)"/>
							
						
					
					
						
							<path d="m601.8 1085.6-114.2-306c-2.1-5.3-6.7-10.1-13.6-14.4s-14.7-6.4-23.2-6.4c-7.5 0-15.2 2.1-23.2 6.4s-12.8 9.1-14.4 14.4l-230.1 656.7h-106.2l246.9-696.6c4.3-11.2 9.8-22 16.8-32.4 6.9-10.4 15.6-19.7 26-28s22.5-14.8 36.3-19.6 29.8-7.2 47.9-7.2 33.8 2.4 47.1 7.2 25 11.3 35.2 19.6c10.1 8.3 18.8 17.6 26 28s13.4 21.2 18.8 32.4l24 47.9 24-47.9c5.9-11.2 12.4-22 19.6-32.4s15.7-19.7 25.6-28c9.8-8.3 21.4-14.8 34.8-19.6 13.3-4.8 29-7.2 47.1-7.2 17.6 0 33.4 2.4 47.5 7.2s26.4 11.3 36.7 19.6c10.4 8.3 19.2 17.6 26.4 28s12.6 21.2 16.4 32.4l246.9 696.6h-106.3l-230.3-656.6c-1.6-5.3-6.4-10.1-14.4-14.4s-15.7-6.4-23.2-6.4c-8.5 0-16.3 2.1-23.2 6.4s-11.5 9.1-13.6 14.4l-114.1 305.9zm0 350.8-151-402.6-132.6 402.6h-106.3l218.9-636.7c1.1-3.2 3.7-6 8-8.4s8.3-3.6 12-3.6 7.6 1.2 11.6 3.6 6.5 5.2 7.6 8.4l131.8 363.5 131.8-363.5c1.1-3.2 3.6-6 7.6-8.4s7.9-3.6 11.6-3.6 7.7 1.2 12 3.6 6.9 5.2 8 8.4l218.9 636.7h-102.3l-136.6-402.6-151 402.6z"/>
							<path d="m1227.3 1422.8c-27.7-9-50.7-23.3-69.1-42.7s-32-44.5-40.7-75.1c-8.8-30.6-13.2-67.2-13.2-109.8v-301.3c0-44.2 4.4-81.6 13.2-112.2s22.4-55.5 40.7-74.7c18.4-19.2 41.4-33 69.1-41.5s60.7-12.8 99.1-12.8h102.3c38.9 0 72.3 4.3 100.3 12.8s51 22.4 69.1 41.5c18.1 19.2 31.4 44.1 39.9 74.7s12.8 68 12.8 112.2v301.2c0 42.6-4.3 79.2-12.8 109.8s-21.8 55.7-39.9 75.1-41.1 33.7-69.1 42.7c-28 9.1-61.4 13.6-100.3 13.6h-102.3c-38.4 0.1-71.4-4.5-99.1-13.5zm212.5-92.7c20.2 0 37.3-2.8 51.1-8.4s25.2-13.4 34-23.6c8.8-10.1 15.2-22.1 19.2-35.9s6-28.8 6-44.7v-346c0-16-2-30.9-6-44.7s-10.4-25.8-19.2-35.9-20.2-18-34.4-23.6c-14.1-5.6-31.3-8.4-51.5-8.4h-123c-20.2 0-37.4 2.8-51.5 8.4s-25.6 13.5-34.4 23.6-15.2 22.1-19.2 35.9c-4 13.9-6 28.8-6 44.7v345.9c0 16 2 30.9 6 44.7 4 13.9 10.4 25.8 19.2 35.9s20.1 18 34 23.6c13.8 5.6 30.9 8.4 51.1 8.4h62.3l62.3 0.1zm-114.2-28.8c-18.6 0-34-1.7-45.9-5.2-12-3.5-21.3-9.2-28-17.2s-11.3-18.2-14-30.8c-2.7-12.5-4-28.1-4-46.7v-314c0-13.8 1.3-26.9 4-39.1s7.5-22.9 14.4-32c6.9-9 16.4-16.1 28.4-21.2s27.3-7.6 45.9-7.6h102.2c18.6 0 34 2.5 45.9 7.6 12 5.1 21.4 12.1 28.4 21.2 6.9 9.1 11.7 19.7 14.4 32s4 25.3 4 39.1v314c0 18.6-1.3 34.2-4 46.7s-7.3 22.8-14 30.8-16 13.7-28 17.2-27.3 5.2-45.9 5.2h-103.8zm77.5-106.2c6.4 0 10.5-1.9 12.4-5.6s2.8-8.8 2.8-15.2v-259.6c0-6.4-0.9-11.4-2.8-15.2-1.9-3.7-6-5.6-12.4-5.6h-51.1c-6.4 0-10.5 1.9-12.4 5.6s-2.8 8.8-2.8 15.2v259.6c0 6.4 0.9 11.5 2.8 15.2s6 5.6 12.4 5.6h51.1z"/>
							<path d="m2074.8 1321.7c13.8-5.6 25.2-13.4 34-23.6 8.8-10.1 15.2-22.1 19.2-35.9s6-28.8 6-44.7v-346c0-16-2-30.9-6-44.7s-10.4-25.8-19.2-35.9-20.2-18-34.3-23.6-31.3-8.4-51.5-8.4h-318v-106.2h307.6c38.9 0 72.3 4.3 100.3 12.8s51 22.4 69.1 41.5c18.1 19.2 31.4 44.1 39.9 74.7s12.8 68 12.8 112.2v301.2c0 42.6-4.3 79.2-12.8 109.8s-21.8 55.7-39.9 75.1-41.1 33.7-69.1 42.7c-28 9.1-61.4 13.6-100.3 13.6h-307.7v-516.8h100.7v410.6h218.1c20.2 0 37.2-2.8 51.1-8.4zm-369.9-427.8v-106.2h307.6c18.6 0 34 2.5 45.9 7.6 12 5.1 21.4 12.1 28.4 21.2 6.9 9.1 11.7 19.7 14.4 32s4 25.3 4 39.1v314c0 18.6-1.3 34.2-4 46.7s-7.3 22.8-14 30.8-16 13.7-28 17.2-27.3 5.2-45.9 5.2h-178.9v-382h111.8v254.8c0 13.9 6.7 20.8 20 20.8h17.6c6.4 0 11.6-1.9 15.6-5.6s6-8.8 6-15.2v-259.6c0-6.4-2-11.4-6-15.2-4-3.7-9.2-5.6-15.6-5.6h-278.9z"/>
							<path d="m2284.9 893.9c0-33.6 6.1-65.1 18.4-94.7 12.2-29.6 28.6-55.1 49.1-76.7s44.2-38.6 71.1-51.1 54.7-18.8 83.5-18.8h302.8v106.3h-290c-20.2 0-38.3 4-54.3 12s-29.4 18.4-40.3 31.2-19.3 27.3-25.2 43.5c-5.9 16.3-8.8 32.4-8.8 48.3v301.2c0 16 2.9 32.1 8.8 48.3 5.9 16.3 14.2 30.8 25.2 43.5 10.9 12.8 24.4 23.2 40.3 31.2 16 8 34.1 12 54.3 12h290v106.2h-302.8c-28.8 0-56.6-6.3-83.5-18.8s-50.6-29.6-71.1-51.1c-20.5-21.6-36.9-47.1-49.1-76.7-12.3-29.6-18.4-61.1-18.4-94.7v-301.1zm135 137.4v-121.4c0-13.8 2.3-28.1 6.8-42.7s11.3-27.8 20.4-39.5c9-11.7 20.5-21.3 34.4-28.8 13.8-7.5 30.1-11.2 48.7-11.2h279.6v106.2h-277.2c-3.2 0-6.5 1.9-10 5.6s-5.2 8.8-5.2 15.2v11.2h231.7v105.5l-329.2-0.1zm0 26.4h329.1v106.2h-231.7v10.4c0 6.4 1.7 11.5 5.2 15.2s6.8 5.6 10 5.6h277.2v106.3h-279.6c-18.6 0-34.9-3.7-48.7-11.2-13.9-7.5-25.3-17-34.4-28.8-9.1-11.7-15.9-24.9-20.4-39.5s-6.8-28.9-6.8-42.7l0.1-121.5z"/>
							<path d="m3388.9 1436.4h-302.8c-28.8 0-56.6-6.3-83.5-18.8s-50.6-29.6-71.1-51.1c-20.5-21.6-36.9-47.1-49.1-76.7-12.3-29.6-18.4-61.1-18.4-94.7v-542.4h106.3v542.4c0 16 2.9 32.1 8.8 48.3 5.9 16.3 14.2 30.8 25.2 43.5 10.9 12.8 24.4 23.2 40.3 31.2 16 8 34.1 12 54.3 12h290v106.3zm-265.2-241.3h265.2v106.3h-279.6c-18.6 0-34.9-3.7-48.7-11.2-13.9-7.5-25.3-17-34.4-28.8-9.1-11.7-15.9-24.9-20.4-39.5s-6.8-28.9-6.8-42.7v-526.5h109.4v521.7c0 6.4 1.7 11.3 5.2 14.8s6.8 5.2 10 5.2v0.7h0.1z"/>
							<path d="m3784.5 1436.4h-106.3v-542.5c0-16-2.9-32.1-8.8-48.3s-14.2-30.8-25.2-43.5c-10.9-12.8-24.4-23.2-40.3-31.2-16-8-34.1-12-54.3-12h-118.3v-106.3h131.1c28.8 0 56.6 6.3 83.5 18.8s50.6 29.6 71.1 51.1c20.5 21.6 36.9 47.1 49.1 76.7 12.3 29.6 18.4 61.1 18.4 94.7v542.5zm-232.4-262.1v-259.6c0-6.4-1.7-11.4-5.2-15.2-3.5-3.7-6.8-5.6-10-5.6h-105.5v-106.2h107.9c18.6 0 34.9 3.7 48.7 11.2 13.9 7.5 25.3 17.1 34.4 28.8s15.9 24.9 20.4 39.5c4.5 14.7 6.8 28.9 6.8 42.7v235.6m-0.1-48.1v339h-97.5v-272.4"/>
						
					
				
			
		
		<rect class="st0" x="2782.5" y="939.9" width="51.1" height="217.9"/>
	

</svg>
