<?xml version="1.0" encoding="UTF-8"?>
<svg enable-background="new 0 0 3839 1300" version="1.1" viewBox="0 0 3839 1300" xml:space="preserve" xmlns="http://www.w3.org/2000/svg">
<style type="text/css">
	.st0{fill:#FFFFFF;}
	.st1{fill:#FFFFFA;}
	.st2{fill:#FF0000;}
</style>

	<rect width="3203.9" height="1299.9"/>
	
		<polygon class="st0" points="2271.8 428.4 2033.2 428.4 2033.2 193.4 2302.3 193.4"/>
		<rect class="st0" x="1318" y="871.5" width="476" height="234.9"/>
		<rect class="st0" x="1587.7" y="532.5" width="206.2" height="234.9"/>
		<path class="st0" d="m1587.7 767.4c-382.6 0-382.6-574 0-574v234.9c-69.4 0-69.4 104.1 0 104.1v235z"/>
		<path class="st0" d="m1793.9 532.5c382.6 0 382.6 574 0 574v-234.9c69.4 0 69.4-104.1 0-104.1v-235z"/>
		<polygon class="st0" points="2950.7 1106.4 2302.3 193.4 2097.8 311.2 2662.6 1106.4"/>
		<polygon class="st0" points="1994.1 1106.4 2642.6 193.4 2930.7 193.4 2282.3 1106.4"/>
		<rect class="st0" x="1587.7" y="193.4" width="486.9" height="234.9"/>
		<polygon class="st0" points="496.6 1106.4 608.7 695.2 720.9 1106.4 932.9 1106.4 1044.9 695.2 1157.1 1106.4 1400.6 1106.4 1151.6 193.4 938.4 193.4 826.9 602.1 715.4 193.4 502.1 193.4 253 1106.4"/>
	
	<path d="m3281 732.2c1.2-88.6 12.1-160.2 53.4-211 41.3-51 111.6-80.1 228-80.1 225.6 0 276.5 105.6 276.5 234.1 0 116.5-42.5 190.5-106.8 254.7l-133.4 129.8c-19.4 19.4-47.3 44.9-55.8 70.4h296.1v169.9h-565.3c0-118.9 30.3-228 128.6-328.7l150.5-152.9c43.7-43.7 60.7-76.4 60.7-140.7 0-72.8-23.1-95.9-58.2-95.9-31.5 0-63.1 17-63.1 114.1v36.4h-211.2v-0.1z"/>

</svg>
