<?xml version="1.0" encoding="UTF-8"?>
<svg enable-background="new 0 0 3839 1076.9" version="1.1" viewBox="0 0 3839 1076.9" xml:space="preserve" xmlns="http://www.w3.org/2000/svg">
<style type="text/css">
	.st0{fill:#FFFFFF;}
	.st1{fill:#FFFFFA;}
	.st2{fill:#FF0000;}
</style>

	<rect width="2654.3" height="1076.9"/>
	
		
			
				<polygon class="st1" points="1882.1 354.9 1684.5 354.9 1684.5 160.3 1907.4 160.3"/>
			
			
				<rect class="st1" x="1091.9" y="722" width="394.3" height="194.6"/>
			
			
				<rect class="st1" x="1315.4" y="441.2" width="170.9" height="194.6"/>
			
			
				<path class="st1" d="m1315.4 635.7c-317 0-317-475.5 0-475.5v194.6c-57.5 0-57.5 86.2 0 86.2v194.7z"/>
			
			
				<path class="st1" d="m1486.2 441.2c317 0 317 475.5 0 475.5v-194.6c57.5 0 57.5-86.2 0-86.2v-194.7z"/>
			
			
				<polygon class="st1" points="2444.7 916.6 1907.4 160.3 1737.9 257.8 2205.8 916.6"/>
			
			
				<polygon class="st1" points="1652.1 916.6 2189.3 160.3 2428.1 160.3 1890.8 916.6"/>
			
			
				<rect class="st1" x="1315.4" y="160.3" width="403.4" height="194.6"/>
			
			
				<polygon class="st1" points="411.4 916.6 504.3 575.9 597.2 916.6 772.8 916.6 865.7 575.9 958.7 916.6 1160.4 916.6 954.1 160.3 777.4 160.3 685 498.9 592.6 160.3 416 160.3 209.6 916.6"/>
			
		
	
	<path d="m2718.2 606.5c1-73.4 10.1-132.7 44.2-174.9 34.2-42.2 92.5-66.3 189-66.3 187 0 229.1 87.5 229.1 193.9 0 96.5-35.2 157.8-88.5 211l-110.6 107.8c-16.1 16.1-39.2 37.2-46.2 58.3h245.2v140.7h-468.3c0-98.5 25.1-189 106.6-272.3l124.6-126.7c36.2-36.2 50.3-63.3 50.3-116.6 0-60.3-19.1-79.4-48.2-79.4-26.1 0-52.3 14.1-52.3 94.5v30.2l-174.9-0.2z"/>
	<polygon points="3839 676.4 3607.6 676.4 3607.6 445 3438.5 445 3438.5 676.4 3207.1 676.4 3207.1 845.5 3438.5 845.5 3438.5 1076.9 3607.6 1076.9 3607.6 845.5 3839 845.5"/>

</svg>
