<?xml version="1.0" encoding="UTF-8"?>
<svg enable-background="new 0 0 3840.1 1068.6" version="1.1" viewBox="0 0 3840.1 1068.6" xml:space="preserve" xmlns="http://www.w3.org/2000/svg">
<style type="text/css">
	.st0{fill:#A21F2C;}
	.st1{fill:#FFFFFF;}
</style>

	
		<path d="M0.5-1.3v491.1H171V141.4h280.4v348.3h170.5V145.6c0-81.2-65.8-147-147-147H0.5z"/>
		<path d="m699.7-1.3v122.2h484.8v52h-337.8c-81.2 0-147 65.8-147 147v22.9c0 81.2 65.8 147 147 147h508.2v-344c0-81.2-65.8-147-147-147h-508.2zm170.4 368.9v-72.6h314.3v72.6h-314.3z"/>
		
			<path d="M1449.9-1.3v491.1h170.5V141.4h193.3v348.3h170.5V141.4h193.3v348.3H2348V145.6c0-81.2-65.8-147-147-147H1449.9z"/>
			<path d="m2433.4 145.6v197c0 81.2 65.8 147 147 147h467.1v-142.6h-443.6v-205.6h443.6v-142.7h-467.1c-81.3 0-147 65.7-147 146.9z"/>
			<path d="m3133.1 145.6v197c0 81.2 65.8 147 147 147h412.5c81.2 0 147-65.8 147-147v-197c0-81.2-65.8-147-147-147h-412.4c-81.4 0.1-147.1 65.8-147.1 147zm170.4 222v-246.8h365.6v246.7h-365.6z"/>
		
	
	
		<path d="m56.1 680.5h127.3c15.5 0 30.2 6.5 44.1 19.6s20.8 28.9 20.8 47.6c0 7-2.5 12.9-7.4 17.7s-10.4 7.3-16.4 7.3c-8.3 0-14.1-1.9-17.2-5.7s-6.1-10.8-8.9-21.1-9.1-15.4-18.8-15.4h-120.9c-5.8 0-8.7 1.9-8.7 5.6-0.2 2.4 1 5.1 3.6 8.2l181.6 231.6c8.8 11.2 13.1 23.3 13.1 36.1 0 14.5-5.3 27.3-15.9 38.4s-22.4 16.6-35.3 16.6h-131.7c-17.5 0-32.6-6.6-45.5-19.9-13-13.3-19.4-27.9-19.4-43.8 0-18.2 8.5-27.3 25.6-27.3 6.6 0 12.2 2.4 16.9 7.1 4.6 4.7 7 10.3 7 16.7 0 5.2 1.8 9.6 5.4 13.1s8.1 5.2 13.5 5.2h121.6c5.2 0 7.8-2.1 7.8-6.2 0.1-2-1-4.5-3.6-7.6l-181.4-231.7c-8.5-11-12.8-23.1-12.8-36.1 0-15.1 5.4-28.3 16.3-39.4 10.9-11 24-16.6 39.3-16.6z"/>
		<path d="m598.5 881.5v161.1c0 6.8-2.4 12.6-7.3 17.3-4.8 4.8-10.6 7.1-17.2 7.1-7 0-12.9-2.4-17.7-7.1s-7.3-10.5-7.3-17.3v-161l-98.3-124.4v-51.8c0-7 2.4-12.9 7.1-17.7 4.8-4.8 10.5-7.3 17.3-7.3s12.7 2.5 17.6 7.5 7.4 10.9 7.4 17.7v33.6l73.3 94.2 74.5-94.1v-34c0-6.8 2.4-12.6 7.3-17.6 4.8-4.9 10.6-7.4 17.2-7.4 6.4 0 12.1 2.3 17 6.8 4.9 4.6 7.4 10.6 7.4 18.2v51.2l-98.3 125z"/>
		<path d="m954.3 680.5h127.3c15.5 0 30.2 6.5 44.1 19.6s20.8 28.9 20.8 47.6c0 7-2.5 12.9-7.4 17.7s-10.4 7.3-16.4 7.3c-8.3 0-14.1-1.9-17.2-5.7s-6.1-10.8-8.9-21.1-9.1-15.4-18.8-15.4h-121c-5.8 0-8.7 1.9-8.7 5.6-0.1 2.4 1 5.1 3.6 8.2l181.5 231.6c8.7 11.2 13.1 23.3 13.1 36.1 0 14.5-5.3 27.3-15.9 38.4s-22.3 16.6-35.3 16.6h-131.6c-17.5 0-32.6-6.6-45.5-19.9s-19.3-27.9-19.3-43.8c0-18.2 8.5-27.3 25.6-27.3 6.6 0 12.2 2.4 16.9 7.1s7 10.3 7 16.7c0 5.2 1.8 9.6 5.4 13.1s8.1 5.2 13.5 5.2h121.6c5.2 0 7.9-2.1 7.9-6.2 0.1-2-1-4.5-3.6-7.6l-181.5-231.7c-8.6-11-12.8-23.1-12.8-36.1 0-15.1 5.4-28.3 16.3-39.4 10.8-11 23.9-16.6 39.3-16.6z"/>
		<path d="m1347.7 747v-66h246.6v66.6c0 6.8-2.4 12.6-7.3 17.3-4.8 4.8-10.6 7.1-17.2 7.1-6.8 0-12.7-2.4-17.6-7.3-4.9-4.8-7.4-10.6-7.4-17.2v-17.7h-49.4v312.6c0 6.8-2.4 12.6-7.3 17.3-4.8 4.8-10.6 7.1-17.2 7.1-7 0-12.9-2.4-17.7-7.1-4.8-4.8-7.3-10.5-7.3-17.3v-312.5h-49.5v17.2c0 6.8-2.4 12.6-7.1 17.3-4.8 4.8-10.5 7.1-17.3 7.1s-12.6-2.4-17.3-7.1c-4.6-4.8-7-10.6-7-17.4z"/>
		<path d="m2018.9 729.9h-172.8v119h74.5c6.6 0 12.3 2.4 17.2 7.3 4.8 4.8 7.3 10.6 7.3 17.2 0 7-2.4 12.9-7.1 17.7-4.8 4.8-10.5 7.3-17.3 7.3h-74.5v119.8h173.4c6.6 0 12.3 2.4 17.2 7.1 4.8 4.8 7.3 10.5 7.3 17.3s-2.5 12.6-7.4 17.3c-4.9 4.8-10.8 7.1-17.6 7.1h-221.5v-386.5h221.5c6.8 0 12.7 2.5 17.6 7.4s7.4 10.8 7.4 17.6c0 6.6-2.5 12.3-7.4 17.2-5.1 4.7-11 7.2-17.8 7.2z"/>
		<path d="m2344.6 832.2v-12.5l-50.6-72.1v294.8c0 6.8-2.4 12.6-7.1 17.3-4.8 4.8-10.5 7.1-17.3 7.1s-12.6-2.4-17.3-7.3c-4.8-4.8-7.1-10.6-7.1-17.2v-361.8h63.2l60 87.6 62-87.6h62v362c0 6.8-2.5 12.6-7.4 17.3-4.9 4.8-10.8 7.1-17.6 7.1-6.6 0-12.3-2.4-17.2-7.3-4.8-4.8-7.3-10.6-7.3-17.2v-293.6l-49.4 69.8v13.7c0 6.6-2.4 12.3-7.3 17.2-4.8 4.8-10.6 7.3-17.2 7.3-6.8 0-12.6-2.4-17.3-7.3s-7.1-10.7-7.1-17.3z"/>
		<path d="m3366 1066.4h-222.1v-168.7c0-13.6 4.8-25.2 14.4-34.9s21.1-14.5 34.5-14.5h148.2v-119h-174.5c-7 0-12.8-2.4-17.5-7.1s-7-10.5-7-17.3 2.3-12.6 7-17.3 10.5-7.1 17.5-7.1h174.5c13.6 0 25.2 4.8 34.9 14.4s14.5 21.1 14.5 34.5v119c0 13.8-4.9 25.4-14.5 35.1-9.7 9.6-21.3 14.4-34.9 14.4h-148.4v119.8h173.4c6.6 0 12.3 2.4 17.2 7.1 4.8 4.8 7.3 10.5 7.3 17.3s-2.4 12.6-7.3 17.3c-4.9 4.6-10.6 7-17.2 7z"/>
		<path d="m3815.1 1066.4h-222.1v-168.7c0-13.6 4.8-25.2 14.4-34.9s21.1-14.5 34.5-14.5h148.3v-119h-174.6c-7 0-12.8-2.4-17.5-7.1s-7-10.5-7-17.3 2.3-12.6 7-17.3 10.5-7.1 17.5-7.1h174.4c13.6 0 25.2 4.8 34.9 14.4s14.5 21.1 14.5 34.5v119c0 13.8-4.9 25.4-14.5 35.1-9.7 9.6-21.3 14.4-34.9 14.4h-148.3v119.8h173.4c6.6 0 12.3 2.4 17.2 7.1 4.8 4.8 7.3 10.5 7.3 17.3s-2.4 12.6-7.3 17.3c-4.9 4.6-10.6 7-17.2 7z"/>
	

</svg>
