<?xml version="1.0" encoding="UTF-8"?>
<svg enable-background="new 0 0 3839 1208.9" version="1.1" viewBox="0 0 3839 1208.9" xml:space="preserve" xmlns="http://www.w3.org/2000/svg">
<style type="text/css">
	.st0{fill:#FFFFFF;}
</style>

	
		
			<rect x="2994.5" y="575.4" width="96.7" height="582"/>
			<polygon points="2789.5 575.4 2446.5 972.6 2103.6 575.4 2103.6 1157.4 2200.3 1157.4 2200.3 835.4 2446.5 1120.6 2692.8 835.4 2692.8 1157.4 2789.5 1157.4"/>
			
				<rect transform="matrix(-1 -7.5213e-8 7.5213e-8 -1 1048.3 1634.4)" x="475.8" y="575.4" width="96.7" height="483.5"/>
			<rect transform="matrix(-1 -7.6079e-8 7.6079e-8 -1 96.683 1825.8)" y="668.4" width="96.7" height="489.1"/>
			<rect transform="matrix(7.6569e-8 -1 1 7.6569e-8 -74.66 1918)" x="873.3" y="750.2" width="96.7" height="492.2"/>
			<polygon points="572.5 1032.5 572.5 1157.4 0 688.4 0 563.4"/>
			<path d="m1674.5 536.2c-185.7 0-336.3 150.6-336.3 336.3s150.6 336.3 336.3 336.3 336.3-150.6 336.3-336.3-150.6-336.3-336.3-336.3zm0 96.7c-132.3 0-239.6 107.3-239.6 239.6s107.3 239.6 239.6 239.6 239.6-107.3 239.6-239.6-107.3-239.6-239.6-239.6zm0 461.9c-122.6 0-222.3-99.7-222.3-222.3s99.7-222.3 222.3-222.3 222.3 99.7 222.3 222.3-99.8 222.3-222.3 222.3zm0 17.4c-132.3 0-239.6-107.3-239.6-239.6s107.3-239.6 239.6-239.6 239.6 107.3 239.6 239.6-107.3 239.6-239.6 239.6z"/>
			<polygon points="785.2 1157.4 1000.7 763.8 1216.1 1157.4 1326.3 1157.4 1000.7 562.4 675 1157.4"/>
		
		
			
				<rect transform="matrix(5.2035e-8 -1 1 5.2035e-8 2562.6 4780.9)" x="3623.4" y="941.9" width="96.7" height="334.5"/>
			<path d="m3796 638.4c-42.2-47.9-96.4-73.2-156.7-73.2-71.9 0-134.8 36.8-174.7 67.4l68.4 68.7c47.1-33.3 128-71.1 191.2 0.5 94.4 106.9-189.8 335.9-268.9 392.7v62.9h76.3c78.4-58.9 289-230 306.3-382.5 5.7-51.7-8.8-99-41.9-136.5z"/>
		
	
	
		
			<path class="st0" d="M2491.6,83.9C2476.2,35,2430,0,2376.9,0s-99.3,35-114.7,83.9l-40.6,120.3V7H2009     c-37.8,0-72.7,15.4-99.3,40.6V7h-218.2c-40.6,0-76.9,16.8-103.5,44.8V7h-207c-88.1,0-160.9,72.7-160.9,160.9     c0,42,16.8,81.1,43.4,109.1h-43.4v187.4h207c58.7,0,109.1-30.8,138.5-78.3c23.8,46.2,71.3,78.3,127.3,78.3h219.6v-40.6     c25.2,25.2,60.1,40.6,99.3,40.6h607.1L2491.6,83.9z"/>
			
				
					<path d="m1427.1 310.5h-174.8v54.6h174.8c33.6 0 61.5-28 61.5-61.5s-28-61.5-61.5-61.5h-44.8c-40.6 0-74.1-33.6-74.1-74.1s33.6-74.1 74.1-74.1h173.4v-54.7h-174.7c-71.3 0-128.7 57.3-128.7 128.7s57.3 128.7 128.7 128.7h44.8c4.2 0 7 2.8 7 7-0.1 4.1-2.9 6.9-5.7 6.9z"/>
					<path d="m1381 162.3h174.8v-55.9h-174.8c-33.6 0-61.5 28-61.5 61.5s28 61.5 61.5 61.5h44.8c40.6 0 74.1 33.6 74.1 74.1s-33.6 74.1-74.1 74.1h-173.4v54.6h174.8c71.3 0 128.7-57.3 128.7-128.7s-57.3-128.7-128.7-128.7h-44.8c-4.2 0-7-2.8-7-7 0-2.7 2.8-5.5 5.6-5.5z"/>
				
				
					<path d="m2009 106.3c-23.8 0-42 18.2-42 42v174.8c0 23.8 18.2 42 42 42h113.3v-123.1h-86.7v54.6h32.2v12.6h-32.2c-7 0-12.6-5.6-12.6-12.6v-123.2c0-7 5.6-12.6 12.6-12.6h155.3v-54.6h-181.9z"/>
					<path d="m2353.1 365.1h127.3l-86.7-257.4c-2.8-7-8.4-12.6-16.8-12.6-7 0-14 5.6-16.8 11.2l-111.9 325.9h64.3l39.2-116.1v49h1.4zm22.4-117.5 18.2 55.9h-37.8l19.6-55.9z"/>
					<path d="m2460.8 96.5c-11.2-36.4-44.8-64.3-85.3-64.3-40.6 0-74.1 26.6-83.9 62.9l-102.1 299.3v-219.6h-153.9v54.6h100.7v148.3h-125.9c-30.8 0-54.6-25.2-54.6-54.6v-174.8c0-30.8 25.2-54.6 54.6-54.6h180.4v-54.5h-181.8c-60.1 0-109.1 49-109.1 109.1v174.8c0 60.1 49 109.1 109.1 109.1h225.2l113.3-328.7c4.2-12.6 15.4-21 29.4-21s25.2 8.4 29.4 21l92.3 274.2h-145.5v54.6h221l-113.3-335.8z"/>
				
				
					<path d="m1691.5 377.7c-30.8 0-54.6-25.2-54.6-54.6v-174.8c0-30.8 25.2-54.6 54.6-54.6h187.4v-54.5h-187.4c-60.1 0-109.1 49-109.1 109.1v174.8c0 60.1 49 109.1 109.1 109.1h187.4v-54.6h-187.4z"/>
					<path d="m1704.1 297.9h135.7v-54.6h-190.2v81.1c0 23.8 18.2 42 42 42h187.4v-54.6h-162.3c-7-1.3-12.6-6.9-12.6-13.9z"/>
					<path d="m1839.8 174.8h-135.7c0-7 5.6-12.6 12.6-12.6h160.9v-55.9h-186c-23.8 0-42 18.2-42 42v81.1h190.2v-54.6z"/>
				
			
		
	

</svg>
