<?xml version="1.0" encoding="UTF-8"?>
<svg enable-background="new 0 0 3839 1500.9" version="1.1" viewBox="0 0 3839 1500.9" xml:space="preserve" xmlns="http://www.w3.org/2000/svg">
<style type="text/css">
	.st0{fill:#FFFFFF;}
</style>

	
		
			
				<path class="st0" d="m2628.6 104c-19.1-60.7-76.3-104-142.2-104s-123.1 43.3-142.2 104l-50.2 149.1v-244.4h-263.5c-46.8 0-90.2 19.1-123.1 50.3v-50.3h-270.5c-50.3 0-95.4 20.8-128.3 55.5v-55.5h-256.6c-109.2 0-199.4 90.2-199.4 199.4 0 52 20.8 100.6 53.7 135.2h-53.7v232.3h256.6c72.8 0 135.2-38.1 171.6-97.1 29.5 57.2 88.4 97.1 157.8 97.1h272.2v-50.3c31.2 31.2 74.5 50.3 123.1 50.3h752.4l-157.7-471.6z"/>
				
					
						<path d="m1309.2 384.9h-216.7v67.6h216.7c41.6 0 76.3-34.7 76.3-76.3s-34.7-76.3-76.3-76.3h-55.5c-50.3 0-91.9-41.6-91.9-91.9s41.6-91.9 91.9-91.9h215v-67.6h-216.7c-88.4 0-159.5 71.1-159.5 159.5s71.1 159.5 159.5 159.5h55.5c5.2 0 8.7 3.5 8.7 8.7s-3.5 8.7-7 8.7z"/>
						<path d="m1252 201.1h216.7v-69.3h-216.7c-41.6 0-76.3 34.7-76.3 76.3s34.7 76.3 76.3 76.3h55.5c50.3 0 91.9 41.6 91.9 91.9s-41.6 91.9-91.9 91.9h-215v67.6h216.7c88.4 0 159.5-71.1 159.5-159.5s-71.1-159.5-159.5-159.5h-55.5c-5.2 0-8.7-3.5-8.7-8.7 0.1-3.5 3.6-7 7-7z"/>
					
					
						<path d="m2030.5 131.8c-29.5 0-52 22.5-52 52v216.7c0 29.5 22.5 52 52 52h140.4v-152.6h-107.5v67.6h39.9v15.6h-39.9c-8.7 0-15.6-6.9-15.6-15.6v-152.5c0-8.7 6.9-15.6 15.6-15.6h192.4v-67.6h-225.3z"/>
						<path d="m2456.9 452.5h157.8l-107.5-319c-3.5-8.7-10.4-15.6-20.8-15.6-8.7 0-17.3 6.9-20.8 13.9l-138.7 403.9h79.7l48.5-143.9v60.7h1.8zm27.8-145.6 22.5 69.3h-46.8l24.3-69.3z"/>
						<path d="m2590.4 119.6c-13.9-45.1-55.5-79.7-105.8-79.7s-91.9 32.9-104 78l-126.6 371v-272.2h-190.7v67.6h124.8v183.8h-156c-38.1 0-67.6-31.2-67.6-67.6v-216.7c0-38.1 31.2-67.6 67.6-67.6h223.6v-67.7h-225.4c-74.5 0-135.2 60.7-135.2 135.2v216.7c0 74.5 60.7 135.2 135.2 135.2h279.1l140.6-407.3c5.2-15.6 19.1-26 36.4-26s31.2 10.4 36.4 26l114.4 339.8h-180.3v67.6h273.9l-140.4-416.1z"/>
					
					
						<path d="m1636.9 468.1c-38.1 0-67.6-31.2-67.6-67.6v-216.7c0-38.1 31.2-67.6 67.6-67.6h232.3v-67.7h-232.3c-74.5 0-135.2 60.7-135.2 135.2v216.7c0 74.5 60.7 135.2 135.2 135.2h232.3v-67.6h-232.3z"/>
						<path d="m1652.5 369.3h168.2v-67.6h-235.8v100.6c0 29.5 22.5 52 52 52h232.3v-67.6h-201.1c-8.6-1.8-15.6-8.8-15.6-17.4z"/>
						<path d="m1820.7 216.7h-168.2c0-8.7 6.9-15.6 15.6-15.6h199.4v-69.3h-230.6c-29.5 0-52 22.5-52 52v100.6h235.8v-67.7z"/>
					
				
			
		
	
	<rect x="839" y="1176.8" width="611.3" height="120.1"/>
	
		<rect x="3718.9" y="714.2" width="120.1" height="722.8"/>
		<polygon points="3464.2 714.2 3038.3 1207.4 2612.5 714.2 2612.5 1437 2732.6 1437 2732.6 1036.9 3038.3 1391.2 3344.1 1036.9 3344.1 1437 3464.2 1437"/>
		<rect x="591" y="714.2" width="120.1" height="600.4"/>
		<rect y="829.6" width="120.1" height="607.4"/>
		<polygon points="711 1281.8 711 1437 0 854.4 0 699.2"/>
		<path d="m2079.5 665.5c-230.6 0-417.7 187-417.7 417.7s187 417.7 417.7 417.7c230.6 0 417.7-187 417.7-417.7s-187-417.7-417.7-417.7zm0 120.1c-164.4 0-297.6 133.2-297.6 297.6s133.2 297.6 297.6 297.6 297.6-133.2 297.6-297.6-133.2-297.6-297.6-297.6zm0 573.6c-152.3 0-276-123.9-276-276 0-152.3 123.9-276 276-276 152.3 0 276 123.9 276 276 0.1 152.2-123.8 276-276 276zm0 21.6c-164.4 0-297.6-133.2-297.6-297.6s133.2-297.6 297.6-297.6 297.6 133.2 297.6 297.6c0 164.3-133.2 297.6-297.6 297.6z"/>
		<polygon points="975.2 1437 1242.7 948.1 1510.3 1437 1647.1 1437 1242.7 698 838.3 1437"/>
	

</svg>
