<?xml version="1.0" encoding="UTF-8"?>
<svg enable-background="new 0 0 3839 1386.5" version="1.1" viewBox="0 0 3839 1386.5" xml:space="preserve" xmlns="http://www.w3.org/2000/svg">
<style type="text/css">
	.st0{display:none;}
	.st1{display:inline;}
	.st2{fill:#C2AC6D;}
	.st3{fill:#FFFFFF;}
	.st4{fill:#F91716;}
	.st5{fill-rule:evenodd;clip-rule:evenodd;fill:#F91716;}
	.st6{fill-rule:evenodd;clip-rule:evenodd;}
	.st7{fill-rule:evenodd;clip-rule:evenodd;fill:#FFFFFF;}
</style>

	
		
			<path d="M643.3,16h-195v25.6h25.4c34.1,0,61.7,31.8,61.7,65.7v316.4L202.9,16H0v25.6c45.3,0,81.1,40.9,81.1,86.3v443.4     c0,45.3-47.8,60.4-81.1,60.4v25.6h220.4v-25.6c-41.3-0.2-63.1-5.9-77.2-19.2c-14.1-13.4-17.9-31.1-17.9-55.4V141.5l430.5,524.9     h23.5V108c0-33.1,25.9-61.2,64-62.6V16z"/>
			<circle cx="1943.7" cy="334.6" r="74.4"/>
			<path d="m2362.6 357.3v31h24.2c39.3 0 50.5 19 50.5 52.9v151.6c-9 11-39.7 24.8-83 24.8-8.8 0-59-1-96.5-31.8-39.2-32.2-65.6-97.4-65.6-252.4 0-201.8 71-287.3 173.9-287.3 33.5 0 147 22.6 195.3 168.6h30.3v-210.6h-28.6c-3.6 28.3-26 44-68.3 26.4-63.9-26.5-121-30.5-162.8-30.5-164.6 0-304.9 152.5-304.9 334.6 0 209.8 158.4 332.7 328.5 332.7 80.6 0 166.1-18.6 233.8-52.9v-173.2c0-40.6 28.3-52.9 66.5-52.9v-31h-293.3z"/>
			
				<path d="m1185.2 459.4c-15.9 87.9-91.7 156.5-176.7 154.3h-73.4c-23 0-41.7-18.7-41.7-41.7v-224.8h20.1c60 0 98.3 50.2 98.3 136.6h26.3v-311.1h-26.3c0 76-32.1 130.9-98.4 130.9h-20.1v-249.1h105.5c142 0 146.8 126.5 146.8 142.8h28.3v-181.3h-511.7v25.5h36.1c27.6 0 50 26.1 50 53.6v472.1c0 49.7-32.6 61-60.2 61h-25.9v29.2h519.1l29.2-198h-25.3z"/>
				<path d="m1533.5 9.3c-184.6 0-326.7 135.9-326.7 331.3s142.2 331.3 326.7 331.3c184.6 0 326.8-135.9 326.8-331.3s-142.2-331.3-326.8-331.3zm0 619.7c-88.7 0-160.4-81.2-160.4-288.5s71.9-288.4 160.4-288.4c88.7 0 160.4 81.2 160.4 288.5 0.2 207.2-71.7 288.4-160.4 288.4z"/>
			
			
				<path d="m3163.9 459.4c-15.9 87.9-91.7 156.5-176.7 154.3h-73.4c-23 0-41.7-18.7-41.7-41.7v-224.8h20.1c60 0 98.3 50.2 98.3 136.6h26.3v-311.1h-26.3c0 76-32.1 130.9-98.4 130.9h-20.1v-249.1h105.5c142 0 146.8 126.5 146.8 142.8h28.3v-181.3h-511.7v25.5h36.1c27.6 0 50 26.1 50 53.6v472.1c0 49.7-32.6 61-60.2 61h-25.9v29.2h519.1l29.2-198h-25.3z"/>
				<path d="m3512.2 9.3c-184.6 0-326.7 135.9-326.7 331.3s142.2 331.3 326.7 331.3c184.6 0 326.8-135.9 326.8-331.3s-142.2-331.3-326.8-331.3zm0 619.7c-88.7 0-160.4-81.2-160.4-288.5s71.9-288.5 160.4-288.5c88.7 0 160.4 81.2 160.4 288.5 0.2 207.3-71.7 288.5-160.4 288.5z"/>
			
		
	
	
		
			
				
					<path class="st6" d="m2673.2 980.1h-332.1v-93.9h208.7l20.6 35.7h142.3l-39.8-69c-25.5-44.1-72.5-71.3-123.5-71.3h-248.2c-35.3 0-91.2 28.6-91.2 63.8v179.6c0 35.2 61.8 59.5 106.7 59.5h347.7l54.2 93.9h-377.4v-35.7h-131.2v62c0 43.2 26.2 78.2 103 78.2h475.3c59 0 95.9-63.9 66.4-115l-71.9-124.6c-22.6-39.1-64.4-63.2-109.6-63.2z"/>
					
						<path class="st6" d="m1485.3 820.3-125.8 217.9v-179.2c0-42.7-34.6-77.3-77.3-77.3h-51.2c-27.6 0-53.1 14.7-66.9 38.6l-267.2 462.7h142.3l197.1-341.3v272.6c0 38 30.8 68.8 68.8 68.8h15.7c24.6 0 47.3-13.1 59.5-34.4l168-290.9v325.2h131.1v-437.2c0-45.9-43.5-64-78.9-64h-48.3c-27.5-0.1-53.1 14.7-66.9 38.5z"/>
					
					
						<path class="st6" d="m2032.5 1221.6 164.4-439.8h-123.5l-129.6 346.6-129.6-346.7h-123.5l164.4 439.8c13.8 37 49.2 61.5 88.6 61.5 39.7 0 75-24.5 88.8-61.4z"/>
					
					<path class="st6" d="m1140.5 1327.1c-1.3-4.7-3.8-9-7.3-12.5-16.4-16.3-42.9-16.5-59.6-0.7-16.6-15.8-43.2-15.6-59.6 0.7-3.5 3.5-6 7.8-7.3 12.5-0.3 0.9-0.4 1.5-0.4 1.7v57.6h17v-56.7c10.3-14.2 31.5-14.2 41.8 0v56.7h17v-56.7c10.3-14.2 31.5-14.2 41.8 0v56.7h17v-57.6c-0.1-0.1-0.2-0.8-0.4-1.7z"/>
					<path class="st6" d="m2752.1 1327.1c-1.3-4.7-3.8-9-7.3-12.5-16.4-16.3-42.9-16.5-59.6-0.7-16.6-15.8-43.2-15.6-59.6 0.7-3.5 3.5-6 7.8-7.3 12.5-0.3 0.9-0.4 1.5-0.4 1.7v57.6h17v-56.7c10.3-14.2 31.5-14.2 41.8 0v56.7h17v-56.7c10.3-14.2 31.5-14.2 41.8 0v56.7h17v-57.6c0-0.1-0.1-0.8-0.4-1.7z"/>
					<path class="st6" d="m1290.3 1369.5c-4.3 0-8.5-2.8-8.5-8.5v-58.8h-17v58.8c0 17 12.7 25.4 25.4 25.4h62.4v-17h-62.3z"/>
					<rect class="st6" x="1464.8" y="1302.2" width="17" height="84.2"/>
					<rect class="st6" x="1686.5" y="1302.2" width="17" height="84.2"/>
					<polygon class="st6" points="1457.3 1302.2 1417.2 1302.2 1400.3 1302.2 1359.7 1302.2 1359.7 1319.2 1400.3 1319.2 1400.3 1386.4 1417.2 1386.4 1417.2 1319.2 1457.3 1319.2"/>
					<polygon class="st6" points="2501.6 1302.2 2461.5 1302.2 2444.6 1302.2 2404 1302.2 2404 1319.2 2444.6 1319.2 2444.6 1386.4 2461.5 1386.4 2461.5 1319.2 2501.6 1319.2"/>
					<path class="st6" d="m1240.1 1302.2v58.8c0 5.6-4.3 8.5-8.5 8.5h-52.6c-4.3 0-8.5-2.8-8.5-8.5v-58.8h-17v58.8c0 17 12.7 25.4 25.4 25.4h52.6c12.7 0 25.4-8.5 25.4-25.4v-58.8h-16.8z"/>
					<path class="st6" d="m1789.7 1302.2h-77.5v84.2h77.5c17 0 25.4-12.7 25.4-25.4v-33.4c0-12.7-8.5-25.4-25.4-25.4zm0 67.3h-60.6v-50.3h60.6c5.6 0 8.5 4.3 8.5 8.5v33.4c0 4.2-2.8 8.4-8.5 8.4z"/>
					<path class="st6" d="m1922.8 1319.2v-17h-74.9c-17 0-25.4 12.7-25.4 25.4v33.4c0 12.7 8.5 25.4 25.4 25.4h74.9v-17h-74.9c-5.6 0-8.5-4.3-8.5-8.5v-8.2h82.9v-17h-82.9v-8.2c0-4.3 2.8-8.5 8.5-8.5h74.9z"/>
					<path class="st6" d="m2608.8 1319.2v-17h-74.9c-17 0-25.4 12.7-25.4 25.4v33.4c0 12.7 8.5 25.4 25.4 25.4h74.9v-17h-74.9c-5.6 0-8.5-4.3-8.5-8.5v-8.2h82.9v-17h-82.9v-8.2c0-4.3 2.8-8.5 8.5-8.5h74.9z"/>
					<path class="st6" d="m2105.1 1319.2h74.5v-17h-74.5c-33.7 0-33.7 50.6 0 50.6h49.2c11.1 0 11.1 16.7 0 16.7h-74.5v17h74.5c33.7 0 33.7-50.6 0-50.6h-49.2c-11.2 0-11.2-16.7 0-16.7z"/>
					<path class="st6" d="m2321.1 1319.2h74.5v-17h-74.5c-33.7 0-33.7 50.6 0 50.6h49.2c11.1 0 11.1 16.7 0 16.7h-74.5v17h74.5c33.7 0 33.7-50.6 0-50.6h-49.2c-11.1 0-11.1-16.7 0-16.7z"/>
					<path class="st6" d="m2007.3 1302.2h-53.1c-17 0-25.4 12.7-25.4 25.4v33.4c0 12.7 8.5 25.4 25.4 25.4h53.1c17 0 25.4-12.7 25.4-25.4v-33.4c0-12.7-8.5-25.4-25.4-25.4zm-53.1 67.3c-5.6 0-8.5-4.3-8.5-8.5v-33.4c0-4.3 2.8-8.5 8.5-8.5h53.1c5.6 0 8.5 4.3 8.5 8.5v33.4c0 4.3-2.8 8.5-8.5 8.5h-53.1z"/>
					<polygon class="st6" points="1659.3 1302.2 1621 1366 1582.7 1302.2 1562.9 1302.2 1613.5 1386.4 1628.5 1386.4 1679.1 1302.2"/>
				
			
			<path d="m2272.8 1302.5v26.2c0 4.3-2.8 8.5-8.5 8.5h-51.2c-5.6 0-8.5-4.3-8.5-8.5v-26.2h-17v26.2c0 12.7 8.5 25.4 25.4 25.4h17.1v32.1h17v-32.1h17.1c17 0 25.4-12.7 25.4-25.4v-26.2h-16.8z"/>
		
	

</svg>
