<?xml version="1.0" encoding="UTF-8"?>
<svg enable-background="new 0 0 3840 699.7" version="1.1" viewBox="0 0 3840 699.7" xml:space="preserve" xmlns="http://www.w3.org/2000/svg">
<style type="text/css">
	.st0{fill-rule:evenodd;clip-rule:evenodd;}
	.st1{fill-rule:evenodd;clip-rule:evenodd;fill:#E40603;}
	.st2{fill-rule:evenodd;clip-rule:evenodd;fill:#FFFFFF;}
</style>

	<path class="st0" d="m1775.9 0c-62.6 0-79.1 0.1-92.9 13.9-8.4 7.6-10.5 15.6-10.5 27.3v76.8c0 11.6 2.1 20.5 10.5 28.1 13.8 13 29.5 13.9 92.1 13.9 62.7 0 79.1-0.9 92.9-13.9 8.4-7.6 10.5-16.5 10.5-28.1v-76.8c0-11.8-2.1-19.8-10.5-27.3-13.8-13.8-29.5-13.9-92.1-13.9zm-343.4 2.3v155.4h46.1v-118.4l0.7 1.5 94.7 116.8h79.4v-155.3h-46.1v117.9l-0.7-2.2-94-115.7h-80.1zm465.4 0v155.4h49v-155.4h-49zm49.1 75.6 89.1 79.7h70.8l-101.1-79.7 89.9-75.6h-65.1l-83.6 75.6zm168.8-75.6v155.4h49v-155.4h-49zm143.8 0-85.7 155.4h54.3l14.6-26.6h96.2l14.2 26.6h54.3l-85-155.4h-62.9zm-528.7 36.3h89.5c11 0 14.6 2.1 14.6 9.7v63.3c0 4.8-4 9-15 9h-89.1c-10.9 0-14.2-2.2-14.2-9v-63.3c0-5.4 3.3-9.7 14.2-9.7zm559.8 2.2 30.3 56.5h-60.7l30.4-56.5z"/>
	
		<path class="st0" d="m814.4 431.9c-42.7 0-77.6 24.7-77.6 55.7 0 31.1 34.9 56.8 77.6 56.8 43 0 77.6-25.7 77.6-56.8s-34.5-55.7-77.6-55.7z"/>
		<path class="st0" d="m967.6 359.2v254c0 47.8 38.7 86.5 86.5 86.5h546.3c47.8 0 86.5-38.7 86.5-86.5v-163.8h-446.5v73.6h323.9v88.3h-474.1v-250.3h1117v88.3h-370.1v73.7h370.1v176.7h122.6v-340.5c0-47.8-38.7-86.5-86.5-86.5h-1189.2c-47.7 0-86.5 38.7-86.5 86.5z"/>
		
			<path class="st0" d="m2413.2 359.2v254c0 47.8 38.7 86.5 86.5 86.5h546.3c47.8 0 86.5-38.7 86.5-86.5v-1.8l-1.8-162h-444.7v73.6h322.1v88.3h-472.3v-250.3h1304.2v-88.3h-1340.3c-47.7 0-86.5 38.7-86.5 86.5z"/>
			<polygon class="st0" points="3317.2 523 3710.2 523 3710.2 449.4 3194.6 449.4 3196.6 699.7 3840 699.7 3840 611.3 3317.2 611.3"/>
		
		<path class="st0" d="M530,272.8v276.4l-353-233.4c-24.3-20-59.7-43.2-102.1-43.2c-70.4,0-74.8,45-74.8,69.4v357.6h122.6V423    L476,656.5c24.3,20,59.3,43.2,101.7,43.2c70.4,0,74.8-45,74.8-69.4V272.8H530z"/>
	

</svg>
