<?xml version="1.0" encoding="UTF-8"?>
<svg enable-background="new 0 0 3839 734.1" version="1.1" viewBox="0 0 3839 734.1" xml:space="preserve" xmlns="http://www.w3.org/2000/svg">
<style type="text/css">
	.st0{fill:#FFFFFF;}
	.st1{clip-path:url(#SVGID_2_);}
	.st2{fill:#EC1E24;stroke:url(#SVGID_3_);stroke-width:3.6108;stroke-miterlimit:10;}
	.st3{fill:#EC1E24;stroke:url(#SVGID_4_);stroke-width:3.6108;stroke-miterlimit:10;}
	.st4{fill:#E4E4E4;}
	.st5{fill:#EC1E24;stroke:url(#SVGID_5_);stroke-width:3.6108;stroke-miterlimit:10;}
	.st6{fill:#EC1E24;}
	.st7{fill:#F06922;}
	.st8{clip-path:url(#SVGID_7_);}
	.st9{fill:#EC1E24;stroke:url(#SVGID_8_);stroke-width:3.6108;stroke-miterlimit:10;}
	.st10{fill:#EC1E24;stroke:url(#SVGID_9_);stroke-width:3.6108;stroke-miterlimit:10;}
	.st11{fill:#EC1E24;stroke:url(#SVGID_10_);stroke-width:3.6108;stroke-miterlimit:10;}
	.st12{clip-path:url(#SVGID_12_);}
	.st13{fill:url(#SVGID_13_);}
	.st14{fill:#EC1E24;stroke:url(#SVGID_14_);stroke-width:3.6109;stroke-miterlimit:10;}
	.st15{fill:#EC1E24;stroke:url(#SVGID_15_);stroke-width:3.6109;stroke-miterlimit:10;}
	.st16{fill:#EC1E24;stroke:url(#SVGID_16_);stroke-width:3.6109;stroke-miterlimit:10;}
	.st17{clip-path:url(#SVGID_18_);}
	.st18{fill:url(#SVGID_19_);}
	.st19{fill:#EC1E24;stroke:url(#SVGID_20_);stroke-width:3.6109;stroke-miterlimit:10;}
	.st20{fill:#EC1E24;stroke:url(#SVGID_21_);stroke-width:3.6109;stroke-miterlimit:10;}
	.st21{fill:#EC1E24;stroke:url(#SVGID_22_);stroke-width:3.6109;stroke-miterlimit:10;}
	.st22{clip-path:url(#SVGID_24_);}
	.st23{fill:#13E1DB;stroke:url(#SVGID_25_);stroke-width:3.6108;stroke-miterlimit:10;}
	.st24{fill:#13E1DB;stroke:url(#SVGID_26_);stroke-width:3.6108;stroke-miterlimit:10;}
	.st25{fill:#1B1B1B;}
	.st26{fill:#13E1DB;stroke:url(#SVGID_27_);stroke-width:3.6108;stroke-miterlimit:10;}
	.st27{fill:#13E1DB;}
	.st28{fill:#0F96DD;}
	.st29{clip-path:url(#SVGID_29_);}
	.st30{fill:#13E1DB;stroke:url(#SVGID_30_);stroke-width:3.6108;stroke-miterlimit:10;}
	.st31{fill:#13E1DB;stroke:url(#SVGID_31_);stroke-width:3.6108;stroke-miterlimit:10;}
	.st32{fill:#13E1DB;stroke:url(#SVGID_32_);stroke-width:3.6108;stroke-miterlimit:10;}
	.st33{clip-path:url(#SVGID_34_);}
	.st34{fill:url(#SVGID_35_);}
	.st35{fill:#13E1DB;stroke:url(#SVGID_36_);stroke-width:3.6109;stroke-miterlimit:10;}
	.st36{fill:#13E1DB;stroke:url(#SVGID_37_);stroke-width:3.6109;stroke-miterlimit:10;}
	.st37{fill:#13E1DB;stroke:url(#SVGID_38_);stroke-width:3.6109;stroke-miterlimit:10;}
	.st38{clip-path:url(#SVGID_40_);}
	.st39{fill:url(#SVGID_41_);}
	.st40{fill:#13E1DB;stroke:url(#SVGID_42_);stroke-width:3.6109;stroke-miterlimit:10;}
	.st41{fill:#13E1DB;stroke:url(#SVGID_43_);stroke-width:3.6109;stroke-miterlimit:10;}
	.st42{fill:#13E1DB;stroke:url(#SVGID_44_);stroke-width:3.6109;stroke-miterlimit:10;}
</style>

	
		<path d="m3769.5 109.5h-105.5l-46 52.2h151.6c23.1 0 23.1 34.6 0 34.6h-136.2l-46 52.2-39.1 44.3-54.9 62.2h219.2l54.9-62.2h-148.2l39.1-44.3h111.2c92.6 0.1 92.6-139-0.1-139z"/>
		
			<path d="m1287.2 734.1-69.8-176.4h-35.3c-35.7 0-68.2-20.8-83.1-53.3l-138-301h188.6l72.4 195.7c4.3 11.7 15.5 19.5 28 19.5h4.7c20.3 0 34.7-19.8 28.4-39.2l-57.3-176.1h178.5l70.2 297.1c6.9 29.2-15.2 57.2-45.2 57.2h-40.2l51.8 176.4"/>
		
		<path d="m3180.2 418.2c-5.7 7.3-14.4 11.6-23.7 11.6-24.5 0-38.6-27.8-24.1-47.6l130.9-178.9h-223.3l-184.4 302.3c-16.9 27.7 3 63.3 35.5 63.3h49.4l-114.2 165.2h180.5l136.6-165.2h65.7c11.9 0 23.3-5.1 31.2-14.1l309.7-351.4h-203.9l-165.9 214.8z"/>
		<path d="m2327.2 734.1h350.1l70.9-123h-134.9c-21.8 0-36.2-22.5-27.2-42.3l5.1-11.1h187.9l80.2-139.1h-158.1c-21.8 0-36.2-22.5-27.2-42.3l5.1-11.1h214.2l90.2-161.8h-484.6l-171.7 530.7z"/>
		<path d="m1991 284.4-14.3 212.7c-2.2 32.8 23.8 60.6 56.7 60.6h133l-5.4 29c-2.6 14.2-15 24.5-29.4 24.5h-162.6l-8.3 123h289.3c18.5 0 34.8-12.2 39.9-30l64.4-221.8c9.3-31.9-14.7-63.7-47.8-63.7h-124.6c-18.4 0-32.4-16.4-29.5-34.6l3-18.8h233l47-161.8h-357.6c-45.8-0.1-83.7 35.3-86.8 80.9z"/>
		<path d="m1477.4 307.9 41.3 196.1c6.6 31.3 34.2 53.7 66.1 53.7h191.7l1.2 21.8c1 17.2-12.7 31.6-29.8 31.6h-206.7l25.9 123h304.1c22.5 0 40.9-17.9 41.6-40.4l5.5-196c1.2-43.3-33.6-79.1-76.9-79.1h-154.9c-15.2 0-27.9-11.3-29.7-26.4l-3.2-27.1h268.4l4.6-161.8h-364.4c-55 0.1-96.2 50.7-84.8 104.6z"/>
		<path d="M935.3,262c-17.4-35.9-53.7-58.7-93.6-58.7H485.4l111.8,161.8h229.5c10.8,0,20.8,5.9,26.1,15.3l104.1,186.2    c11.1,19.9-3.3,44.5-26.1,44.5h-26.6L786.9,418.6H634.1L852,734.1h245.4c30.7,0,50.8-32.1,37.4-59.7L935.3,262z"/>
		<path d="m463.8 256.5c-24.1-33.3-62.7-53.1-103.8-53.1h-330.4c-26 0-39.3 31-21.5 49.9l423.2 448.3c19.6 20.8 46.9 32.5 75.4 32.5h220.5c33.9 0 53.6-38.4 33.7-65.9l-297.1-411.7zm61.2 354.6c-18.9 0-36.9-8.3-49.2-22.6l-149.3-174c-16.6-19.4-2.9-49.4 22.7-49.4h10.8c19.7 0 38.4 9 50.7 24.4l137.7 173c15.6 19.7 1.7 48.6-23.4 48.6z"/>
	
	
		<polygon points="1472.2 109.3 1429.6 3.2 1429.4 2.6 1397.4 2.6 1397.4 144 1419.9 144 1419.3 30.1 1464.1 144 1479.8 144 1524.6 30.1 1524 143.2 1524 144 1546.3 144 1546.3 2.6 1514.5 2.6"/>
		<path d="m1736.3 91.8h60c-2.2 9-7.8 17.3-15.9 23.3-8.6 6.7-19.6 10.2-31.7 10.2-32.7 0-50.3-27-50.3-52.3 0-33.5 25.9-51.6 50.3-51.6 10.7 0 20.4 3.1 28.9 9.3 4.8 3.5 9 7.8 12.6 13l0.3 0.4h26.9l-0.5-1.2c-10.5-25.3-38.3-42.9-67.8-42.9-41.8 0-74.5 32-74.5 73 0 41.3 32.6 73.7 74.3 73.7 30 0 57.1-16.6 68.9-42.2 5.7-12.5 6.3-26.3 6.3-31.7v-0.9h-87.8v19.9z"/>
		<polygon points="1926 106.9 1855.1 3 1854.9 2.6 1832.6 2.6 1832.6 144 1855.8 144 1855.5 39.6 1926.9 143.7 1927.2 144 1948.9 144 1948.9 2.6 1925.6 2.6"/>
		<polygon points="2165.9 2.6 2126 113.4 2086.4 3.2 2086.2 2.6 2061.3 2.6 2114.2 144 2137.5 144 2190.8 2.6"/>
		<path d="m2253.7 0c-42.1 0-73.9 31.9-73.9 74.1v0.2c0 40.6 32.4 72.4 73.7 72.4 41.7 0 74.3-32.2 74.3-73.3s-32.5-73.4-74.1-73.4zm50.1 73.5c0 32.4-25.3 51.8-49.7 51.8-28.8 0-50.5-22.3-50.5-52v-0.2c0-29 22.1-51.8 50.3-51.8 31.2 0.1 49.9 26.6 49.9 52.2z"/>
		<polygon points="2392.9 70.7 2437.4 2.6 2410.3 2.6 2378.8 52.3 2347.2 2.6 2319.8 2.6 2365 70.3 2316.1 144 2342.9 144 2378.1 88 2414.2 144 2441.6 144"/>
		<path d="m1629.3 2.6h-21.4l-58.1 141.4h26.1l12.8-33 3.7-10.9h51l3.7 10.9 13.2 33h26l-57-141.4zm-11.6 29.2 18.5 48.6h-36.8l18.3-48.6z"/>
		<path d="m2031.8 2.6h-21.4l-58 141.4h26.1l12.8-33 3.7-10.9h51l3.7 10.9 13.2 33h26l-57.1-141.4zm-11.5 29.2 18.5 48.6h-36.8l18.3-48.6z"/>
	

</svg>
