<?xml version="1.0" encoding="UTF-8"?>
<svg enable-background="new 0 0 3839 566.7" version="1.1" viewBox="0 0 3839 566.7" xml:space="preserve" xmlns="http://www.w3.org/2000/svg">
<style type="text/css">
	.st0{display:none;}
	.st1{display:inline;}
	.st2{fill:#FFFFFF;}
	.st3{fill:#C30207;}
</style>

	
		<rect x="2323.2" y="237.2" width="164.6" height="93"/>
		<path d="m2694.9 0c-99.5 0-180.2 80.7-180.2 180.2 0 97.9 77.9 177.4 175.2 180.1l-87.1 195.2h122l135.7-303.9c9.5-21.9 14.7-46 14.7-71.3-0.1-99.7-80.8-180.3-180.3-180.3zm0 249c-38 0-68.8-30.8-68.8-68.8s30.8-68.8 68.8-68.8 68.8 30.8 68.8 68.8-30.8 68.8-68.8 68.8z"/>
		<path d="m3245 166.6c0-90.5-75.8-163.8-169.2-163.8s-169.2 73.3-169.2 163.8c0 40.9 15.6 78.1 41.1 106.8-30.7 30.9-49.7 72.8-49.7 119.1 0 95 79.6 172.1 177.7 172.1 98.2 0 177.7-77 177.7-172.1 0-46.3-19-88.2-49.7-119.1 25.8-28.7 41.3-66 41.3-106.8zm-169.2-55.8c30.8 0 55.7 25 55.7 55.7s-25 55.7-55.7 55.7c-30.8 0-55.7-25-55.7-55.7s25-55.7 55.7-55.7zm0 340.9c-35.7 0-64.6-28.9-64.6-64.6s28.9-64.6 64.6-64.6 64.6 28.9 64.6 64.6-28.9 64.6-64.6 64.6z"/>
		<path d="m3473.5 11.9c-121.4 0-195.6 86.3-195.6 271.8s74.2 271.8 195.6 271.8 195.6-86.3 195.6-271.8-74.2-271.8-195.6-271.8zm78.7 272.1c-0.1 116.7-25.4 168.7-78.7 168.7-53.2 0-78.6-52-78.7-168.7v-0.3-0.3c0.1-116.7 25.4-168.7 78.7-168.7 53.2 0 78.6 52 78.7 168.7v0.3 0.3z"/>
		<path d="m2325.8 435.9c-12.3 2.8-23 7-61.4 7-59 0-143.4-52.9-143.4-159.2s84.4-159.2 143.4-159.2c38.3 0 49.1 4.1 61.4 7v-126.2c-15.8-2.7-35.8-4.6-65.4-4.6-131.4 0-273.2 108.2-273.2 283s141.8 283 273.2 283c29.6 0 49.6-2 65.4-4.6v-126.2z"/>
		<rect x="3718.7" y="11.9" width="120.3" height="543.5"/>
		<path d="m1804.9 11.9h-184.4v543.5h120.3v-428.3h54.6c32.5 0 58.9 26.4 58.9 58.9s-26.4 58.9-58.9 58.9h-23.9v114h33.4c95.8 0 178.4-77.7 178.4-173.4s-82.6-173.6-178.4-173.6z"/>
	
	
		<polygon points="472.6 150.6 568.8 96.2 451.3 27.2 390.5 317.3 134.4 31.3 14.6 166.6 51.3 170.1 77.3 199 0 566.7 141.7 495 75.2 434.2 115.6 241.8 389.4 547.6"/>
		<path d="m995.4 43.4h-419.5c-3.6 0-4.6 5.1-1.1 6.3 33.2 11.8 58.8 29.8 55.4 45.7l-31.8 151.7c-3.9 18.6-35.4 26.6-64.4 30-4.6 0.6-4.7 7.3-0.1 8 37.3 6 50.8 13.7 52.6 18.5l-35 166.7c-5.6 26.6-43.9 33-77.1 44.9-3.4 1.2-2.5 6.3 1.1 6.3h457.1l32.1-152.8c1-5.1-5.8-7.8-8.5-3.4-26.4 42.4-85.7 125.3-145 125.3h-106l41.5-197.9h27c41.5 0 70.5 64 80.2 88.6 1 2.7 5 2.3 5.6-0.5l42.2-201.3c0.7-3.1-3.3-4.9-5.2-2.4-19.3 24.8-70.8 84.7-118.1 84.7h-25.4l39.3-187.5h110.9c57.4 0 76.2 61.4 83.4 137.2 0.6 6.2 9.4 6.7 10.7 0.7l35.3-168.7-37.2-0.1z"/>
		<path d="m1357.3 521.4 100.3-193.7c3-5.5-1.7-7.5-6.4-3.5-190.7 158-318.3 14.5-299.6-79.2 20.6-102.6 101.6-153.4 176.5-170.3l78.3 100.8 70.4-34.4-53.8-117.5c-168.4-8-383 97.7-393.2 291.3-4.9 96.4 88.4 289.7 327.5 206.5z"/>
	

</svg>
