<?xml version="1.0" encoding="UTF-8"?>
<svg enable-background="new 0 0 3832.8 1303.6" version="1.1" viewBox="0 0 3832.8 1303.6" xml:space="preserve" xmlns="http://www.w3.org/2000/svg" xmlns:xlink="http://www.w3.org/1999/xlink">
<style type="text/css">
	.st0{fill:#444444;}
	.st1{fill:none;stroke:#BCBCBC;stroke-width:40.0464;stroke-linecap:round;stroke-miterlimit:10;}
	.st2{fill:#BCBCBC;}
	.st3{fill:#FFDD34;}
	.st4{fill:#7B46CE;}
	.st5{fill:none;stroke:#7B46CE;stroke-width:40.0464;stroke-linecap:round;stroke-miterlimit:10;}
	.st6{fill:#FF3ABD;}
	.st7{fill:#FFFFFF;}
	.st8{fill:none;stroke:#000000;stroke-width:37.9695;stroke-linecap:round;stroke-miterlimit:10;}
	.st9{clip-path:url(#SVGID_00000044165229644250605270000002461059939811564479_);}
	.st10{fill:none;stroke:#000000;stroke-width:6.6258;stroke-miterlimit:10;}
	.st11{clip-path:url(#SVGID_00000075870461068461649020000009065712839635979702_);}
	.st12{fill:none;stroke:#000000;stroke-width:6.2764;stroke-miterlimit:10;}
	.st13{fill:none;stroke:#000000;stroke-width:6.2897;stroke-miterlimit:10;}
	.st14{fill:none;stroke:#000000;stroke-width:40.6866;stroke-linecap:round;stroke-miterlimit:10;}
	.st15{clip-path:url(#SVGID_00000134217945060083557660000014799696507042459522_);}
	.st16{clip-path:url(#SVGID_00000107557625170635439550000012931107144976419519_);}
	.st17{fill:none;stroke:#FFFFFF;stroke-width:6.2764;stroke-miterlimit:10;}
</style>

	
		<path d="M1433.8,8.2h78.2c17.9,0,39,16.7,48.4,25.9l137.1,152.1V8.2h46.6V251h-81.6c-17.2,0.1-33.7-7.1-45.3-19.8l-137-152.4V251    h-46.4V8.2z"/>
		<path d="m2405.2 252.5c-56 7.4-112.6 8.6-168.8 3.7-33.1-2-65.5-10.6-95.3-25.3-37.6-19.4-49.5-63.1-49-102.8 0.4-36.6 11.2-75.6 43.9-96.9 21.4-14 44.3-18.7 68.5-23.1 66.3-11.7 132.6-9.1 197.3-2v34.6c-76.3-14.8-156.8-11.1-184.2 23.9-13.6 17.6-20.5 39.5-19.5 61.8 0 33 11.2 82.8 78.2 92.5 43.6 6.4 86.7 1.6 128.6-6.1l0.3 39.7z"/>
		<path d="m1927.7 214.9c6.8 0 111.7 0.5 147.9 0v36.3c-72.7 2.8-142.5 4.1-216 1-62.2-2.6-72.9-33.8-74.4-64v-180h286.6v34.5h-185.2v61.8h169.2v33.8h-169.2c0 18.3 0.6 39 0.8 42.8 1 23.5 11.9 32.2 40.6 33.8"/>
	
	
		<path d="m1126.3 360.8h-243.3v936h95.3v-258.7h148.1c451.5 0 451.5-677.3-0.1-677.3zm0 582.1h-148.1v-486.8h148.1c324.5 0 324.5 486.8 0 486.8z"/>
		<path d="m1990.6 1208.3c-217.3 0-393.3-176.1-393.3-393.3s176.1-393.3 393.3-393.3c147.3 0 275.6 81 342.9 200.8h106.2c-74.7-174.1-247.7-296.1-449.1-296.1-269.9 0-488.6 218.8-488.6 488.6s218.8 488.6 488.6 488.6c201.5 0 374.4-122 449.2-296.2h-106.2c-67.5 119.9-195.7 200.9-343 200.9z"/>
		<rect x="2379" y="723.6" width="133.7" height="182.8"/>
		<polygon points="3055.6 878.2 3055.6 694.4 2779.2 694.4 2779.2 528.1 3055.6 528.1 3055.6 344.3 2779.2 344.3 2636.3 344.3 2595.4 344.3 2595.4 1280.8 2779.2 1280.8 2779.2 878.2"/>
		<polygon points="3543.1 779.2 3794.2 344.3 3581.9 344.3 3437.1 595.3 3292.2 344.3 3079.9 344.3 3331 779.2 3041.3 1280.8 3253.5 1280.8 3437.1 962.9 3620.6 1280.8 3832.8 1280.8"/>
		
			
				<path class="st7" d="m7 1077.3v-406l30.8-18.1v-14.4l296.2-173.7c-6.2-6.6-9.8-15.4-9.8-24.7 0-19.8 16.1-36 36-36 1.8 0 3.7 0.1 5.5 0.4v-1c0-19.8 16.1-36 36-36 19.8 0 36 16.1 36 36 0 7.1-2.1 13.7-5.6 19.3 3.1 0.4 6.2 0.9 9.2 1.4-2.8-4.9-4-10.5-3.3-16.2 1.6-13 12.7-22.8 25.8-22.8 1.1 0 2.1 0.1 3.2 0.2 67.7 8.4 135.7 32.1 186.7 65.1 28 18.2 50.2 38.6 66 60.6 18.2 25.4 27.4 52.4 27.4 80.2 0 30.9-7.9 61.2-23.5 90-15 27.8-36.9 53.6-65.1 76.8-2.9 18.2-9.3 35.7-18.9 52-13.5 22.9-29.1 36.3-32.3 38.9-1.2 1-4.2 3.6-8.8 7.1-3.1 14.7-9.1 29.2-18 43.3-7.9 12.5-17.7 24-29.2 34.3-1.2 4.3-2.7 8.6-4.5 12.7-4.8 11.2-11.6 21.6-20.2 31l232.3-136.2v203.5l-30.9 18v14.4l-360.5 211.3-360.5-211.4zm382.6-29.6c-2.1-2.5-3.8-5.5-4.9-8.8-2-6.2-1.6-12.8 1-18.7-7.4 0.6-14.9 0.9-22.6 0.9-6.7 0-13.4-0.2-20-0.7l46.5 27.3zm107.6-267.8c1.6 0.9 3.1 1.9 4.6 2.9 0.2-0.1 0.5-0.1 0.7-0.2-1.7-0.9-3.5-1.8-5.3-2.7zm-91.5-72.8c27.1 0 57 5 84.3 14 28 9.3 52.4 22.5 71 38.3l4.8-2.4c-0.4-2.5-0.8-5-1.3-7.4-4.5-21-31.3-44.9-71.8-63.8-26.8-12.5-57.6-22-87.5-27v48.3h0.5zm135.2-54.6c30.8 18.1 53.1 39.3 65.3 62l-0.3-1.5c-4.2-19.9-28.3-42.2-65-60.5zm-135.7-86.2c48 0.7 104.1 14 150.9 35.8 42.4 19.8 72.9 44.3 89.1 71.4 5.5-14.9 8.2-30.1 8.2-45.3 0-16.7-6-33.5-17.7-50-12-16.7-29.5-32.6-52-47.3-44.6-28.9-104.6-49.7-164.8-57.2-5.2-0.6-9.9-2.8-13.8-6.1v98.7h0.1zm191.8-88.1c5.1 3 10.1 6 15 9.2 28 18.2 50.2 38.6 66 60.7 5.5 7.6 10.1 15.4 14 23.4-2.8-10-7.8-19.9-14.8-29.8-12-16.8-29.5-32.6-52-47.3-8.8-5.7-18.3-11.1-28.2-16.2z"/>
				<path d="m401.5 374.8c16 0 29 13 29 29s-13 29-29 29c-5.5 0-10.6-1.5-14.9-4.1 1.6 3.6 2.5 7.6 2.5 11.8v0.5l9.1-5.4v137.7h3.2c47.8 0 104.5 13.2 151.7 35.2 47.8 22.3 80.1 51 92.6 81.7 9.7-20 14.7-40.8 14.7-61.9 0-18.2-6.4-36.4-19-54-12.5-17.5-30.6-34-53.9-49.1-45.4-29.5-106.6-50.7-167.7-58.2-10.4-1.3-17.8-10.8-16.5-21.2 1.2-9.6 9.4-16.7 18.8-16.7 0.8 0 1.6 0 2.4 0.1 66.7 8.2 133.6 31.6 183.7 64.1 27.3 17.7 48.9 37.5 64.1 58.8 16 22.5 24.7 46.1 25.9 70.4 2.4-10.2 3.6-20.5 3.6-30.9 0-18.2-6.4-36.4-19-54-12.5-17.5-30.6-34-53.9-49.1-45.4-29.4-106.6-50.7-167.7-58.2-10.4-1.3-17.8-10.8-16.5-21.2 1.2-9.6 9.4-16.7 18.8-16.7 0.8 0 1.6 0 2.3 0.1 66.7 8.2 133.6 31.6 183.7 64.1 27.3 17.7 48.9 37.5 64.1 58.8 17.3 24.2 26.1 49.8 26.1 76.1 0 59.9-31 116.9-88 163.1-2.6 18.2-8.8 35.7-18.4 52.1-12.9 22-27.7 34.6-30.8 37-1.2 1-4.9 4.1-10.7 8.5-2.7 14.4-8.5 29.2-17.5 43.5-7.9 12.5-17.9 24.1-29.5 34.2-1.2 4.6-2.7 9.2-4.7 13.8-9.6 22.2-27.4 41-51.5 54.6-5 7.1-10.9 13.7-17.7 19.8l280.7-164.6v187.3l-30.8 18.1v14.4l-353.3 207.4-353.5-207.4v-398l30.8-18.1v-14.4l301.6-176.9c-9.1-4.9-15.3-14.5-15.3-25.5 0-16 13-29 29-29 5.5 0 10.6 1.5 14.9 4.1-1.6-3.6-2.5-7.6-2.5-11.8 0-15.9 13-28.9 29-28.9m206.8 365c2.1-1.5 4.2-2.9 6.3-4.4 0.2-0.2 0.4-0.5 0.6-0.7 0-7.6-0.9-15.3-2.5-23.2-5-23.5-32.6-48.5-75.6-68.7-42.4-19.8-93.2-31.6-135.7-31.6h-3.2v1.1c38 4.8 78.4 16.3 113.5 32.7 54.6 25.5 88.9 59.2 96.6 94.8m-210.1-25.6c2.5 0 5-0.1 7.5-0.1 52 0 115.5 18.6 154.2 53.7 4.5-2.2 9-4.4 13.4-6.8-0.4-4.2-1.1-8.5-2-12.9-5-23.5-32.6-48.5-75.6-68.7-30.3-14.1-64.8-24.1-97.5-28.7v63.5m102.4 76.3c6.3-1.9 12.6-3.9 18.8-6-7.3-4.8-15.6-9.3-24.7-13.3-27.4-12.1-59.8-19.1-89.1-19.1-2.5 0-5 0-7.5 0.1v1c35.9 5 73.3 17.6 102.5 37.3m-99.2 15c13.1 0 26.5-0.9 40-2.6-13.8-5.1-28.5-9-43.3-11.4v14h3.3m143.4 33c3.1-1.9 6.1-3.8 8.8-5.6 0.6-0.8 1.1-1.6 1.7-2.4-0.1-0.7-0.2-1.5-0.3-2.2-4 2.2-8.1 4.4-12.2 6.4 0.7 1.2 1.4 2.5 2 3.8m-89.3 38.4c6.5-1.6 12.9-3.4 19.2-5.4-2.4-1.2-5-2.3-7.6-3.4-1.8-0.8-3.7-1.5-5.5-2.2-6.3 1.7-12.7 3.3-19.1 4.8 4.4 1.8 8.7 3.9 13 6.2m-91.9 42.8c1.8 0 3.6 0 5.4-0.1-25.8-2.1-49.5-6.5-70.4-13.1l-1.5 0.9c2.3 2.7 5.4 5.5 9.2 8.1 17.8 2.7 37.1 4.2 57.3 4.2m-0.5 56.4c3.7 0 7.3-0.1 10.8-0.3-26.4-2.8-50.8-9.1-70.6-18.6-3.9-1.8-7.4-3.7-10.7-5.6-13.6-2.4-26.5-5.6-38.4-9.6 12.1 16.4 52 34.1 108.9 34.1m-145-20.8-0.6-1.2-0.7 0.4 1.3 0.8m180.1 105.6 25-14.7c-2.6 1-5.3 1.9-8 2.8-1.9 0.6-3.9 0.9-5.8 0.9-8 0-15.5-5.1-18.1-13.2-3.2-10 2.2-20.7 12.2-23.9 2.8-0.9 5.9-2 9.3-3.4-15.8 3.1-32.4 4.7-49.8 4.7-18.4 0-36.3-1.7-53.1-4.9l88.3 51.7m3.3-700.1c-21.5 0-39.4 15.9-42.5 36.6-23.2 0.6-41.9 19.6-41.9 43 0 8.2 2.3 16 6.5 22.7l-286 167.7-6.9 4.1v14.3l-23.9 14-6.8 4.1v414.1l6.9 4.1 353.4 207.3 7.1 4.2 7.1-4.2 353.3-207.3 6.9-4.1v-14.3l23.9-14 6.9-4.1v-219.7l-21.1 12.4-194.4 114c1-2 2-4.1 2.9-6.2 1.6-3.8 3-7.7 4.2-11.6 11.4-10.4 21.1-22 29-34.5 8.8-14 14.9-28.4 18.3-43 3.5-2.8 5.9-4.7 7-5.7 4.7-3.8 20.2-17.4 33.9-40.7 9.6-16.3 16-33.7 19.3-51.8 27.9-23.4 49.6-49.3 64.7-77.2 16.1-29.8 24.3-61.2 24.3-93.3 0-29.3-9.6-57.6-28.7-84.3-16.3-22.8-39.1-43.8-67.9-62.5-51.5-33.6-120.7-57.7-189.3-66.2-1.3-0.2-2.7-0.3-4.1-0.3-8.6 0-16.5 3.3-22.4 8.8-6.5-15.5-21.8-26.4-39.7-26.4zm10.7 198.6v-79.9c1.9 0.6 3.9 1 5.9 1.3 59.1 7.3 118.1 27.8 161.8 56.1 21.8 14.1 38.6 29.4 50.1 45.4 10.9 15.2 16.4 30.7 16.4 45.9 0 9.8-1.2 19.6-3.6 29.4-18.1-23.4-46.4-44.4-83.7-61.8-45.5-21.3-99.6-34.6-146.9-36.4zm0 140.8v-33c26.7 5.2 53.7 13.8 77.5 25 19.9 9.3 36.7 19.9 48.6 30.7 9 8.2 15.2 16.4 18 23.9-17.9-13.2-39.7-24.2-64.2-32.3-25.7-8.6-53.9-13.6-79.9-14.3zm-42.3 327.8c2.2-0.1 4.5-0.1 6.7-0.2-0.1 1.3-0.2 2.7-0.1 4.1l-6.6-3.9z"/>
			
			
				<path class="st8" d="m422.2 448.1c125.6 15.5 257.2 87.5 257.2 180.2 0 136.2-179.4 232.9-319.4 232.9-130.5 0-236.4-53-236.4-116.8s105.9-115.5 236.4-115.5c90.5 0 216.1 50.7 229.9 115.3 16.4 76.9-40.8 121.8-40.8 121.8s-83.8 72.8-185.4 72.8-175-34.7-175-82.5 73.9-86.6 175.5-86.6c62.9 0 140.6 29.3 163.7 77.5 23 48-31.2 148-164.8 148-72.7 0-131.6-28.1-131.6-62.7s58.9-60.4 131.6-60.4c41.9 0 104.3 21.9 120 54.8 12 25.2-0.8 80.6-73.7 104.1"/>
				<circle cx="360.1" cy="440.4" r="29"/>
				<polygon points="14 675.3 14 1073.3 367.4 866.1 367.4 468"/>
				<polygon points="367.4 1093.3 367.4 1280.6 720.8 1073.3 720.8 886.1"/>
				<polygon points="367.4 1093.3 367.4 1280.6 14 1073.3 14 886.1"/>
				<polygon class="st7" points="44.8 642.9 44.8 1040.9 398.2 833.7 398.2 435.6"/>
				<circle class="st7" cx="401.5" cy="403.8" r="29"/>
				
					<path class="st7" d="m450.8 1013.3c-8 0-15.5-5.1-18.1-13.2-3.2-10 2.2-20.7 12.2-23.9 2.8-0.9 6-2 9.3-3.4-15.8 3.1-32.4 4.7-49.8 4.7-37.9 0-73.9-7.2-101.2-20.2-43-20.5-49.4-47.3-49.4-61.5 0-2.6 0.2-5.6 0.8-8.9-28.3-17.7-43.6-41.1-43.6-67.3 0-6.5 0.9-12.8 2.8-18.9-43.9-24.9-67.8-57.5-67.8-93 0-38.5 28.4-73.6 79.9-98.8 47.2-23.1 109.5-35.8 175.5-35.8 47.8 0 104.5 13.2 151.7 35.2 54.8 25.6 89.1 59.4 96.7 95.2 0.1 0.5 0.2 0.9 0.3 1.4 33.7-34.4 51.7-73.4 51.7-113.4 0-18.2-6.4-36.4-19-54-12.5-17.5-30.6-34-53.9-49.1-45.4-29.4-106.6-50.7-167.7-58.2-10.4-1.3-17.8-10.8-16.5-21.2s10.8-17.8 21.2-16.5c66.7 8.2 133.6 31.6 183.7 64.1 27.3 17.7 48.9 37.5 64.1 58.8 17.3 24.2 26.1 49.8 26.1 76.1 0 59.9-31 116.9-88 163.1-2.6 18.2-8.8 35.7-18.4 52.1-12.9 22-27.7 34.6-30.8 37-1.2 1-4.9 4.1-10.7 8.5-2.7 14.4-8.5 29.2-17.5 43.5-7.9 12.5-17.9 24.1-29.5 34.2-1.2 4.6-2.7 9.2-4.7 13.8-13.4 31.1-43 55.5-83.5 68.5-1.9 0.8-3.9 1.1-5.9 1.1zm-155-107.7c12 16.2 51.9 34.1 108.9 34.1 33.5 0 63.3-6.7 88.5-19.9 5.8-3.1 11.3-6.4 16.5-10.1 0-4-0.6-7.3-1.5-9.8-30 12-65.2 21.2-103 21.2-41.3 0-78.6-5.4-109.4-15.5zm19.7-33.7c25.6 7.3 56.4 11.2 89.6 11.2 24.5 0 48.1-4.7 69.6-11.6-2.4-1.2-5-2.3-7.6-3.4-20.2-8.5-43.6-13.6-62.5-13.6-32.8 0-63.1 5.5-85.2 15.5-1.3 0.6-2.6 1.2-3.9 1.9zm-66.2-54.5c-0.1 0.8-0.1 1.5-0.1 2.3 0 15 12.6 26.7 24.9 34.6 7.1-6.6 16.7-13 29.6-18.8 1-0.4 2-0.9 3-1.3-20.3-4.3-39.6-9.9-57.4-16.8zm234.6 16.6c12.4 5.4 24 11.9 33.9 19.7 15-7.5 27.8-15.3 37.7-22-0.3-4.7-1.4-9.1-3.2-12.9-0.8-1.7-1.7-3.4-2.8-5.1-21.4 8.5-43.5 15.3-65.6 20.3zm-211.9-48.7c37.5 13.2 82.4 20.3 129.5 20.3 38.2 0 79.1-7.5 118-21.1-7.3-4.8-15.6-9.3-24.7-13.3-27.4-12.1-59.8-19.1-89.1-19.1-45.7 0-87.4 8.3-117.3 23.3-6.1 3.1-11.6 6.4-16.4 9.9zm312.3 12.7c0.8 1.4 1.5 2.9 2.2 4.3 0.5 1 0.9 2 1.3 3 3.4-3.9 7.4-9 11.3-15.2-4.9 2.8-9.8 5.4-14.8 7.9zm-182.9-186.8c-60.3 0-116.7 11.3-158.8 31.9-37.2 18.2-58.6 41.8-58.6 64.6 0 21.1 17.9 42.8 49.5 60.5 9.7-10 22.3-19.1 37.7-26.8 35.1-17.7 82.9-27.4 134.4-27.4 52 0 115.5 18.6 154.2 53.7 15.1-7.2 29.6-15.4 43.3-24.4 4.2-2.7 8.2-5.5 12.1-8.4 0-7.7-0.8-15.5-2.5-23.4-5-23.5-32.6-48.5-75.6-68.7-42.4-19.8-93.2-31.6-135.7-31.6z"/>
				
				<polygon class="st7" points="398.2 1060.9 398.2 1248.2 751.7 1040.9 751.7 853.7"/>
				<polygon class="st7" points="398.2 1060.9 398.2 1248.2 44.8 1040.9 44.8 853.7"/>
				
					
						<defs>
							<polygon id="b" points="89.8 1014.5 398.2 833.7 398.2 535.9 89.8 535.9"/>
						</defs>
						<clipPath id="a">
							<use xlink:href="#b"/>
						</clipPath>
						<g clip-path="url(#a)">
							
								<path class="st7" d="m450.8 1016.6c-9.7 0-18.2-6.2-21.2-15.4-1.8-5.7-1.3-11.7 1.4-17 0.9-1.8 2.1-3.4 3.4-4.9-9.7 1.1-19.7 1.6-29.8 1.6-38.4 0-74.9-7.3-102.7-20.5-44.6-21.3-51.3-49.5-51.3-64.5 0-2.4 0.2-4.9 0.5-7.3-28.4-18.3-43.3-42.1-43.3-68.9 0-5.8 0.7-11.7 2.2-17.3-43.4-25.3-67.3-58.8-67.3-94.6 0-39.8 29-76 81.7-101.7 47.6-23.3 110.5-36.1 176.9-36.1 48.3 0 105.5 13.3 153.1 35.5 53.4 24.9 87.8 57.8 97.4 92.9 30.5-32.8 46.5-69.6 46.5-106.7 0-17.5-6.2-35-18.4-52.1s-30.1-33.3-53-48.2c-45-29.2-105.6-50.2-166.3-57.7-5.9-0.7-11.2-3.7-14.8-8.4s-5.3-10.5-4.5-16.5c1.4-11.2 10.9-19.6 22.1-19.6 0.9 0 1.8 0.1 2.8 0.2 67.1 8.3 134.6 31.8 185.1 64.6 27.6 17.9 49.5 38 65 59.7 17.7 24.8 26.7 51 26.7 78 0 30.3-7.7 60-23 88.3-15 27.7-36.9 53.5-65.2 76.6-2.8 18.2-9 35.7-18.6 52-13.2 22.5-28.5 35.5-31.5 37.9-1.3 1.1-4.6 3.9-9.8 7.8-2.9 14.7-8.9 29.3-17.7 43.4-7.9 12.5-17.8 24-29.4 34.3-1.2 4.5-2.7 8.9-4.6 13.3-13.8 32-44.1 57-85.5 70.4-2.2 0.5-4.5 0.9-6.9 0.9zm-142.6-103.9c18 12.8 52.8 23.6 96.5 23.6 33 0 62.2-6.6 87-19.5 5.1-2.7 10.1-5.7 14.7-8.9-0.1-1.4-0.2-2.6-0.4-3.7-34.3 13.3-68.1 20.1-100.8 20.1-36.1 0.1-68.6-3.8-97-11.6zm17.1-41.6c23.5 5.7 50.9 8.7 79.8 8.7 19.3 0 39.5-3 60.2-8.9-19.7-8.2-42.3-13.1-60.6-13.1-30.3 0-58.2 4.7-79.4 13.3zm-72.6-48.9c1.3 11.9 11.7 21.5 21.2 27.9 6.3-5.4 13.9-10.4 22.6-14.8-15.4-3.7-30.1-8-43.8-13.1zm241.3 12.8c9 4.5 17.1 9.4 24.2 14.7 11.5-5.9 22.9-12.5 33.8-19.7-0.4-3.6-1.3-6.9-2.7-9.8l-1.2-2.4c-17.8 6.9-35.9 12.7-54.1 17.2zm-214.6-50.7c36.1 11.8 78.1 18 122.1 18 35.2 0 73.2-6.4 110.3-18.7-5.7-3.4-11.8-6.5-18.3-9.4-27-11.9-58.9-18.8-87.8-18.8-45.2 0-86.4 8.2-115.9 23-3.6 1.8-7.1 3.8-10.4 5.9zm122-169.8c-59.8 0-115.7 11.2-157.3 31.6-36 17.6-56.7 40.1-56.7 61.7 0 19.1 16.6 39.6 45.7 56.4 9.7-9.6 22.1-18.2 36.8-25.6 35.6-17.9 83.8-27.7 135.9-27.7 26.7 0 56.3 4.9 83.2 13.8 28.5 9.4 53.2 23 71.6 39.2 14.4-7 28.1-14.8 40.9-23.2 3.6-2.4 7.2-4.8 10.6-7.3-0.1-6.9-0.9-14-2.4-21.1-4.8-22.5-31.7-46.7-73.8-66.3-42.2-19.8-92.4-31.5-134.5-31.5z"/>
								<path d="m463.6 392.5c0.8 0 1.6 0 2.3 0.1 66.7 8.2 133.6 31.6 183.7 64.1 27.3 17.7 48.9 37.5 64.1 58.8 17.3 24.2 26.1 49.8 26.1 76.1 0 59.9-31 116.9-88 163.1-2.6 18.2-8.8 35.7-18.4 52.1-12.9 22-27.7 34.6-30.8 37-1.2 1-4.9 4.1-10.7 8.5-2.7 14.4-8.5 29.2-17.5 43.5-7.9 12.5-17.9 24.1-29.5 34.2-1.2 4.6-2.7 9.2-4.7 13.8-13.4 31.1-43 55.5-83.5 68.5-1.9 0.6-3.9 0.9-5.8 0.9-8 0-15.5-5.1-18.1-13.2-3.2-10 2.2-20.7 12.2-23.9 2.8-0.9 6-2 9.3-3.4-15.8 3.1-32.4 4.7-49.8 4.7-37.9 0-73.9-7.2-101.2-20.2-43-20.5-49.4-47.3-49.4-61.5 0-2.6 0.2-5.6 0.8-8.9-28.3-17.7-43.6-41.1-43.6-67.3 0-6.5 0.9-12.8 2.8-18.9-43.9-24.9-67.8-57.5-67.8-93 0-38.5 28.4-73.6 79.9-98.8 47.2-23.1 109.5-35.8 175.5-35.8 47.8 0 104.5 13.2 151.7 35.2 54.8 25.6 89.1 59.4 96.7 95.2 0.1 0.5 0.2 0.9 0.3 1.4 33.7-34.4 51.7-73.4 51.7-113.4 0-18.2-6.4-36.4-19-54-12.5-17.5-30.6-34-53.9-49.1-45.4-29.5-106.6-50.7-167.7-58.2-10.4-1.3-17.8-10.8-16.5-21.2 1.1-9.4 9.3-16.4 18.8-16.4m-229.9 375.7c9.7-10 22.3-19.1 37.7-26.8 35.1-17.7 82.9-27.4 134.4-27.4 52 0 115.5 18.6 154.2 53.7 15.1-7.2 29.6-15.4 43.3-24.4 4.2-2.7 8.2-5.5 12.1-8.4 0-7.7-0.8-15.5-2.5-23.4-5-23.5-32.6-48.5-75.6-68.7-42.4-19.8-93.2-31.6-135.7-31.6-60.3 0-116.7 11.3-158.8 31.9-37.2 18.2-58.6 41.8-58.6 64.6 0 21.1 17.9 42.8 49.5 60.5m167.7 37.3c38.2 0 79.1-7.5 118-21.1-7.3-4.8-15.6-9.3-24.7-13.3-27.4-12.1-59.8-19.1-89.1-19.1-45.7 0-87.4 8.3-117.3 23.3-6.1 3.1-11.6 6.4-16.4 9.9 37.6 13.2 82.4 20.3 129.5 20.3m197.7-15.3c-4.9 2.7-9.8 5.4-14.9 7.9 0.8 1.4 1.5 2.9 2.2 4.3 0.5 1 0.9 2 1.3 3 3.5-3.9 7.6-9 11.4-15.2m-81.4 63.4c15-7.5 27.8-15.3 37.7-22-0.3-4.7-1.4-9.1-3.2-12.9-0.8-1.7-1.7-3.4-2.8-5.1-21.4 8.5-43.4 15.3-65.6 20.3 12.4 5.4 24.1 12 33.9 19.7m-243.5 0.6c7.1-6.6 16.7-13 29.6-18.8 1-0.4 2-0.9 3-1.3-20.4-4.2-39.7-9.8-57.4-16.7-0.1 0.8-0.1 1.5-0.1 2.3-0.1 14.9 12.5 26.6 24.9 34.5m130.8 28.9c24.5 0 48.1-4.7 69.6-11.6-2.4-1.2-5-2.3-7.6-3.4-20.2-8.5-43.6-13.6-62.5-13.6-32.8 0-63.1 5.5-85.2 15.5-1.4 0.6-2.7 1.2-3.9 1.9 25.6 7.3 56.4 11.2 89.6 11.2m0 38c-41.2 0-78.4-5.3-109.4-15.5 12 16.2 51.9 34.1 108.9 34.1 33.5 0 63.3-6.7 88.5-19.9 5.8-3.1 11.3-6.4 16.5-10.1 0-4-0.6-7.3-1.5-9.8-29.9 12-65.2 21.2-103 21.2m58.6-535.3c-12.9 0-23.8 9.7-25.4 22.5-0.8 6.8 1 13.5 5.2 18.9s10.3 8.8 17.1 9.7c60.2 7.4 120.3 28.3 164.9 57.2 22.6 14.6 40.1 30.6 52.1 47.3 11.8 16.5 17.8 33.4 17.8 50.2 0 34.7-14.4 69.1-41.8 100.2-11.9-33.9-46-65.3-97.5-89.3-48-22.4-105.8-35.8-154.5-35.8-67 0-130.3 12.9-178.4 36.4-53.9 26.4-83.6 63.5-83.6 104.7 0 19 6.3 37.3 18.7 54.4 11.3 15.5 27.5 29.6 48 41.8-1.1 5.2-1.7 10.4-1.7 15.7 0 14.3 4.1 27.9 12.3 40.4 7.3 11.2 17.6 21.3 30.8 30.1-0.2 1.9-0.3 3.8-0.3 5.7 0 7.6 1.7 19.4 9.6 31.9 8.9 14 23.5 26 43.5 35.5 28.2 13.5 65.2 20.9 104.1 20.9 7.9 0 15.6-0.3 23.2-0.9-2.9 6-3.3 12.7-1.3 19 3.4 10.6 13.2 17.7 24.4 17.7 2.7 0 5.3-0.4 7.9-1.2 42.3-13.7 73.4-39.3 87.5-72.2 1.8-4.2 3.3-8.4 4.5-12.8 11.5-10.3 21.4-21.8 29.3-34.3 8.9-14.1 14.9-28.6 17.9-43.3 4.7-3.6 7.7-6.1 8.9-7.2 3.2-2.6 18.8-15.9 32.3-38.8 9.6-16.3 15.9-33.8 18.8-52 28.2-23.2 50-49 65.1-76.8 15.5-28.7 23.4-59 23.4-89.8 0-27.7-9.2-54.6-27.3-80-15.7-22-37.9-42.4-65.9-60.6-50.9-33-118.9-56.7-186.5-65.1-1 0-2.1-0.1-3.1-0.1zm-231 374.2c-26.7-15.9-41.9-34.8-41.9-52.2 0-9.7 4.6-19.7 13.6-29.6 9.5-10.4 23.7-20.5 41.2-29.1 41.2-20.1 96.6-31.2 155.9-31.2 41.6 0 91.3 11.6 132.9 31 20.5 9.6 38 20.6 50.4 31.9 11.9 10.8 19.4 21.9 21.5 32.1 1.3 6.3 2.1 12.6 2.3 18.7-3 2.1-6 4.2-9.1 6.2-12.1 8-25 15.4-38.5 22.1-18.6-15.9-43.1-29.1-71.1-38.4-27.2-9-57.1-14-84.2-14-52.5 0-101.3 10-137.4 28.1-13.9 7-25.9 15.2-35.6 24.4zm54.9 23.3c1.3-0.7 2.6-1.4 3.9-2 29-14.6 69.7-22.6 114.4-22.6 28.4 0 59.9 6.7 86.4 18.5 4 1.7 7.8 3.6 11.4 5.5-34.4 10.6-69.5 16.2-102.1 16.2-40.9 0-80-5.3-114-15.6zm215.6 52.8c14.6-3.9 29.1-8.6 43.3-14.1 0.9 1.9 1.5 4.1 1.9 6.4-9.7 6.3-19.7 12.2-29.9 17.5-4.7-3.5-9.8-6.8-15.3-9.8zm-229.4 9.8c-6.7-4.8-13.4-11.1-16.3-18.5 9.6 3.4 19.6 6.4 30 9-5 3-9.6 6.1-13.7 9.5zm63.6 24.4c19.1-6 42.4-9.2 67.3-9.2 15 0 33 3.4 49.8 9.2-16.9 4.1-33.4 6.2-49.3 6.2-24.2 0-47.2-2.2-67.8-6.2zm67.7 57.4c28.2 0 57.4-5 86.9-14.9-0.6 0.4-1.3 0.7-1.9 1-24.2 12.7-53 19.1-85.4 19.1-32.1 0-55.3-5.7-69.1-10.6-0.6-0.2-1.2-0.4-1.7-0.6 21.8 4 45.7 6 71.2 6z"/>
							
						</g>
					
				
			
			<line class="st10" x1="398.2" x2="398.2" y1="1254.7" y2="1011.8"/>
			<path d="m226.9 948.9-2.7 2.2-185-108.5-1.2-19.5c-2.2-0.1-4.4 0-6.6 0l1.5 23.5 192 112.6 8-6.5c-2.1-1.2-4.1-2.5-6-3.8z"/>
		
	

</svg>
