<?xml version="1.0" encoding="UTF-8"?>
<svg width="1074.7pt" height="138.97pt" version="1.1" viewBox="0 0 1074.7 138.97" xml:space="preserve" xmlns="http://www.w3.org/2000/svg" xmlns:cc="http://creativecommons.org/ns#" xmlns:dc="http://purl.org/dc/elements/1.1/" xmlns:rdf="http://www.w3.org/1999/02/22-rdf-syntax-ns#"><metadata><rdf:RDF><cc:Work rdf:about=""><dc:format>image/svg+xml</dc:format><dc:type rdf:resource="http://purl.org/dc/dcmitype/StillImage"/></cc:Work></rdf:RDF></metadata><g transform="translate(373.03 -630.88)" fill="#fff"><g stroke-miterlimit="2.3"><path d="m-127.4 676.4c0-7.8047-1.3008-14.742-3.6856-20.379-2.6016-5.6367-5.8535-10.406-9.7559-14.092-4.1192-3.6856-8.8887-6.5039-14.092-8.2383-5.2031-1.7344-10.623-2.6016-16.26-2.6016h-201.84v26.883h47.695v84.768h-47.695v27.1h129.64v-27.1h-51.814v-22.98h122.92c5.6367 0 11.273-0.65039 16.693-2.3848 5.4199-1.7344 10.189-4.3359 14.309-7.8047s7.3711-7.8047 9.9727-13.441c2.6016-5.4199 3.9024-11.924 3.9024-19.729zm-32.52-0.65039c0 2.168-0.43359 4.3359-1.084 6.5039-0.6504 2.168-1.7344 3.9024-3.4688 5.4199-1.7344 1.7344-3.9023 3.0352-6.5039 3.9023-2.6016 1.084-5.8535 1.5176-9.7559 1.5176l-114.47 0.2168v-35.338h114.69c4.3359 0 7.8047 0.65039 10.406 1.5176 2.6016 1.084 4.7695 2.3848 6.2871 4.1191 1.5176 1.7344 2.6016 3.4688 3.0352 5.6367 0.4336 2.168 0.86719 4.3359 0.86719 6.5039z" stroke-linecap="round" stroke-linejoin="round" stroke-width="20.647" style="font-variant-ligatures:no-common-ligatures;paint-order:stroke markers fill"/><path d="m145.94 699.39c0-22.98-6.5039-40.324-19.078-51.598-12.791-11.273-32.736-16.91-59.619-16.91h-164.12v26.232h47.262v85.635h-47.262v27.1h172.14c9.9727 0 19.512-1.3008 28.184-3.9024 8.6719-2.6016 16.043-6.7207 22.33-12.357s11.273-12.791 14.742-21.896c3.4688-8.8887 5.4199-19.729 5.4199-32.303zm-33.387-1.9512c0 7.3711-0.86719 13.875-2.168 19.512-1.5176 5.6367-4.1191 10.406-7.5879 14.309-3.4688 3.9024-8.4551 6.7207-14.525 8.6719-6.2871 1.9512-14.092 2.8184-23.631 2.8184h-84.334v-85.635h84.334c9.1055 0 16.91 0.86719 23.197 2.6016 6.0703 1.7344 11.057 4.1192 14.742 7.5879 3.4688 3.4688 6.0703 7.5879 7.5879 12.574 1.5176 5.2031 2.3848 11.057 2.3848 17.561z" stroke-linecap="round" stroke-linejoin="round" stroke-width="20.647" style="font-variant-ligatures:no-common-ligatures;paint-order:stroke markers fill"/><path d="m421.22 676.4c0-7.8047-1.3008-14.742-3.6856-20.379-2.6016-5.6367-5.8535-10.406-9.7559-14.092-4.1191-3.6856-8.8887-6.5039-14.092-8.2383-5.2031-1.7344-10.623-2.6016-16.26-2.6016h-201.84v26.883h47.695v84.768h-47.695v27.1h129.64v-27.1h-51.814v-22.98h122.92c5.6367 0 11.273-0.65039 16.693-2.3848 5.4199-1.7344 10.189-4.3359 14.309-7.8047 4.1191-3.4688 7.3711-7.8047 9.9727-13.441 2.6016-5.4199 3.9023-11.924 3.9023-19.729zm-32.52-0.65039c0 2.168-0.43359 4.3359-1.084 6.5039s-1.7344 3.9024-3.4688 5.4199c-1.7344 1.7344-3.9024 3.0352-6.5039 3.9023-2.6016 1.084-5.8535 1.5176-9.7559 1.5176l-114.47 0.2168v-35.338h114.69c4.3359 0 7.8047 0.65039 10.406 1.5176 2.6016 1.084 4.7695 2.3848 6.2871 4.1191 1.5176 1.7344 2.6016 3.4688 3.0352 5.6367 0.43359 2.168 0.86718 4.3359 0.86718 6.5039z" stroke-linecap="round" stroke-linejoin="round" stroke-width="20.647" style="font-variant-ligatures:no-common-ligatures;paint-order:stroke markers fill"/><path d="m701.62 769.84v-27.1h-50.514v-111.87h-74.795v26.232h45.961v85.635h-51.381v27.1z" stroke-linecap="round" stroke-linejoin="round" stroke-width="20.647" style="font-variant-ligatures:no-common-ligatures;paint-order:stroke markers fill"/><path d="m450.47 704.97h81v26.25h-81z" stroke-linecap="square" stroke-width="3.9454" style="paint-order:stroke markers fill"/></g></g></svg>
