<?xml version="1.0" encoding="UTF-8"?>
<svg enable-background="new 0 0 3840 372.8" version="1.1" viewBox="0 0 3840 372.8" xml:space="preserve" xmlns="http://www.w3.org/2000/svg">
<style type="text/css">
	.st0{fill:#FFFFFF;}
</style>

	
		<path d="m2866.4 253.8c-35.2 32.4-116.3 27.9-161 27.9h-143.1v91.1h-113.5v-372.8h255.4c20.7 0 40.8 0 61.5 0.6 36.3 0.6 77.7 4.5 105.1 31.3 25.7 25.2 25.7 80.5 25.7 113.5 0.1 35.1-2.2 82.6-30.1 108.4zm-134.7-159.9c-8.9 0-18.4-0.6-27.4-0.6h-142v95h168.8c43.6 0 51.4-7.8 51.4-50.9 0-40.7-14.5-42.9-50.8-43.5z"/>
		<path d="M2927.8,372.8V0h412.5v87.8h-300.7V142h285.6v81.6h-285.6v59.8h302.9v89.4H2927.8z"/>
		<path d="M3674,95v277.8h-119.1V95h-166V0H3840v95H3674z"/>
	
	
		
			<path d="m2069.9 120.5h-43.6v125.1h45.5v-65.4c0-17.1 10.4-25.6 29.4-25.6 18.9 0 23.7 5.7 24.6 21.8h42.7c0-42.7-5.7-58.8-51.2-58.8-27.5 0-37 5.7-47.4 26.5v-23.6zm209.5 100.5c-43.6 0-50.2-3.8-50.2-25.6h119.5c-1.9-60.6-1.9-74.9-82.5-74.9-68.3 0-83.5 12.3-83.5 66.4 0 50.3 19.9 62.6 74.9 63.5 61.6 0 91-2.9 91-43.6h-44.6c-1.9 9.4-5.6 14.2-24.6 14.2zm-51.2-52.2c1.9-13.3 5.7-18 36-18 33.2 0 37.9 1.9 39.8 18h-75.8zm-1695.3 4.8h45.5c-3.8-42.7-16.1-53.1-79.6-53.1-72.1 0-88.2 11.4-88.2 64.5s15.2 65.4 82.5 65.4c71.1 0 85.3-9.5 85.3-54.1h-45.5c0 12.3-4.7 18-39.8 18-30.3 0-37-7.6-37-32.2 0-23.7 6.6-23.7 42.7-23.7 26.5 0 31.2 2.9 34.1 15.2zm1057.2 7.5c0-51.2-15.2-61.6-88.2-61.6-78.7 0-88.2 13.3-88.2 66.3 0 53.1 13.3 64.5 88.2 64.5 79.7 0.1 88.2-13.2 88.2-69.2zm-129.9 2.9c0-25.6 5.7-28.4 38.9-28.4 37 0 43.6 0.9 43.6 28.4 0 25.6-4.7 30.3-39.8 30.3-38 0.1-42.7-3.7-42.7-30.3zm538.5-2.9c0-51.2-14.2-61.6-87.2-61.6-77.8 0-87.2 12.3-87.2 65.4 0 54 13.3 65.4 87.2 65.4 79.6 0.1 87.2-13.2 87.2-69.2zm-128.9 2.9c0-25.6 5.7-28.4 38.9-28.4 37 0 43.6 0.9 43.6 28.4 0 25.6-4.7 30.3-39.8 30.3-38 0.1-42.7-3.7-42.7-30.3zm-1089.4-2.9c0-51.2-14.2-61.6-87.2-61.6-78.7 0-88.2 12.3-88.2 65.4 0 54 13.3 65.4 88.2 65.4 79.6 0.1 87.2-13.2 87.2-69.2zm-128.1 2.9c0-25.6 5.7-28.4 37.9-28.4 37 0 43.6 0.9 43.6 28.4 0 25.6-4.8 30.3-39.8 30.3-36.9 0.1-41.7-3.7-41.7-30.3zm1096.1-116.6v73c-10.4-14.2-19.9-21.8-57.8-21.8-60.7 0-72.1 16.1-72.1 65.4 0 50.3 16.1 64.5 74.9 64.5 37 0 48.4-9.5 56.9-25.6v22.7h45.5v-178.2h-47.4zm-33.2 87.2c25.6 0 34.1 3.8 34.1 23.7 0 30.4-1.9 33.2-37.9 33.2s-45.5-1-45.5-26.6c0-29.3 11.4-30.3 49.3-30.3zm-862.8-34.1h-42.7v125.1h45.5v-64.5c0-18.9 9.5-25.6 35.1-25.6 23.7 0 30.3 8.5 30.3 32.2v57.8h46.5v-66.3c0-18 14.2-23.7 36-23.7 20.9 0 30.3 5.7 30.3 23.7v66.3h45.5v-73.9c0-37-22.8-54-64.5-54-36 0-49.3 13.3-54.1 27.5-9.5-16.1-22.7-27.5-58.8-27.5-34.1 0-43.6 11.4-49.3 32.2l0.2-29.3zm306.3 0h-42.7v125.1h45.5v-64.5c0-18.9 11.4-25.6 34.1-25.6 23.7 0 30.3 7.6 30.3 32.2v57.8h46.5v-66.3c0-18 13.3-23.7 35.1-23.7 20.9 0 31.3 6.6 31.3 23.7v66.3h45.5v-73.9c0-37-22.7-54-64.5-54-36 0-48.4 12.3-54 27.5-9.5-16.1-22.8-27.5-58.8-27.5-33.2 0-41.7 11.4-48.3 32.2v-29.3z"/>
			
				<path d="M204.7,261.6c-12.4,7-26.8,11-42.1,11c-47.5,0-86.2-38.7-86.2-86.2s38.7-86.2,86.2-86.2c15.3,0,29.6,4,42.1,11V29.3      c-13.4-3.6-27.5-5.5-42-5.5C72.8,23.8,0,96.6,0,186.4S72.8,349,162.6,349c14.5,0,28.6-1.9,42-5.5V261.6z"/>
				
					
						<rect x="204.7" y="115.4" width="68.2" height="65.1"/>
						<polygon points="346.4 115.4 281.3 180.5 251.4 180.5 251.4 115.4"/>
					
					
						<rect x="204.7" y="192.3" width="68.2" height="65.1"/>
						<polygon points="346.4 257.4 281.3 192.3 251.4 192.3 251.4 257.4"/>
					
				
			
		
	

</svg>
