<?xml version="1.0" encoding="UTF-8"?>
<svg enable-background="new 0 0 3839 832.6" version="1.1" viewBox="0 0 3839 832.6" xml:space="preserve" xmlns="http://www.w3.org/2000/svg">
<style type="text/css">
	.st0{fill:#FFFFFF;}
	.st1{fill:#00439B;}
</style>

	<path d="m645.6 66.3c148.8 51.1 199.2 114.7 199.2 258 0 139.6-86.2 192.6-195.8 139.6v-260.1c0-30.5-5.6-58.6-34.3-66.5-22-7.2-35.5 13.3-35.5 43.8v651.5l-175.8-55.8v-776.8c74.8 13.8 183.6 46.6 242.2 66.3m-33.1 754.5 384.1-138s51.6-19 72.7-45.6c21.1-26.5 11.8-65.1-71.2-91.3-73.6-27.9-167.3-37.4-243.8-29.1-76.5 8.6-131 27.8-131 27.8l-10.8 3.7v105.6l188.4-66.4c32.1-11.5 79.2-13.9 105.3-5.4 26 8.5 21.1 24.8-11 36.3l-282.7 100.7v101.7zm-531.5-112.4c91.3 30.1 184 36 271 21.8 5.7-0.9 11.8-1.9 17.3-2.8v-91.4l-87 31.5c-32.1 11.5-79.2 14-105.3 5.4-25.9-8.5-21.1-24.8 11-36.3l181.3-64.9v-102l-252 89.5s-60.9 20-96.9 46.5c-38.7 28.8-24.5 78.7 60.6 102.7"/>
	<path d="m3038.9 197.1h-335.5c-97.3 0-144.9 60-144.9 138.1v237.2c0 48.3-22.9 83.1-71.3 83.1h-315.3c-2 0-3.6 1.6-3.6 3.6v47.7c0 2 1.6 3.6 3.6 3.6h351.8c97.3 0 145-59.8 145-137.9v-237.4c0-48.4 22.9-83.2 71.2-83.2h299c2 0 3.6-1.6 3.6-3.6v-47.6c-0.1-2-1.7-3.6-3.6-3.6"/>
	<path d="m2047.8 197.2h-606.9c-2 0-3.6 1.6-3.6 3.6v47.6c0 2 1.6 3.6 3.7 3.6h570.5c48.3 0 71.3 34.8 71.3 83.2s-22.9 83.1-71.3 83.1h-451.3c-70 0-122.8 58.9-122.8 137v151.6c0 2 1.6 3.6 3.6 3.6h102.9c2 0 3.6-1.6 3.6-3.6v-151.7c0-48.4 27.9-82.1 67.9-82.1h432.6c97.3 0 145-59.8 145-137.9-0.3-78-47.9-138-145.2-138"/>
	<path d="m3835.3 600.7-106.6-0.1h3.7c-2 0-3.7-1.7-3.7-3.6v-345.3c0-53-36.7-70.4-88.3-38.5l-618.5 379.8c-24.3 14.9-32.5 31.7-26.6 44.2 5.1 10.8 18.4 18.2 45.2 18.2h574.5c1.6 0.1 2.9 1.3 3.2 2.7v48.4c0 2 1.7 3.7 3.6 3.7h103.3c1.9 0 3.6-1.7 3.6-3.7v-47.4c0-2 1.7-3.7 3.6-3.7h102.9c2 0 3.7-1.6 3.7-3.6v-47.6c0.1-1.9-1.6-3.5-3.6-3.5m-216.9-3.9c0 2.1-1.7 3.7-3.6 3.7h-481.6c-3.9 0-5.9-1-6.5-2.5-0.5-2.2 0.7-3.9 3.5-5.8l479.3-295.1c3.3-2 8.9-1.7 8.9 4.9v294.8z"/>

</svg>
