<?xml version="1.0" encoding="UTF-8"?>
<svg enable-background="new 0 0 3839 865.3" version="1.1" viewBox="0 0 3839 865.3" xml:space="preserve" xmlns="http://www.w3.org/2000/svg">
<style type="text/css">
	.st0{fill:#FFFFFF;}
	.st1{fill:#00439B;}
</style>

	<path d="m419.1 0v807.4l182.8 57.9v-677c0-31.9 14.2-53.1 37-45.8 29.9 8.3 35.6 37.7 35.6 69.2v270.4c113.8 55.1 203.4 0 203.4-145.4 0-148.5-52.5-214.6-207.1-267.8-60.9-20.3-173.9-54.5-251.7-68.9"/>
	<path d="m636.6 747.3 293.6-104.5c33.2-12.3 38.3-29 11.4-37.8-27.3-8.9-76-6.4-109.6 5.7l-195.4 68.9v-110l11.2-3.7s56.6-20.1 136.1-28.7c79.4-8.7 176.8 1.1 253.3 30 86.2 27.4 95.9 67.3 74.1 95.1-22.1 27.5-75.8 47.4-75.8 47.4l-398.9 143.3v-105.7z"/>
	<path d="m84.1 736.1c-88.4-24.6-103.1-76.6-62.8-106.7 37.2-27.5 100.6-48.1 100.6-48.1l261.9-93.4v106.3l-188.3 67.5c-33.3 12-38.3 28.7-11.5 37.5 27.3 9.1 75.9 6.7 109.3-5.6l90.5-32.6v94.8c-5.8 1-12.3 2-18.3 3-90.3 14.9-186.4 8.8-281.4-22.7"/>
	<path d="m2463.9 692.2c77.1 0 139.6-62.4 139.6-139.5v-240.1c0-46.5 37.7-84.1 84.1-84.1h270.7c2 0 3.7-1.7 3.7-3.7v-48c0-2-1.7-3.7-3.7-3.7h-326.2c-77.1 0-139.6 62.5-139.6 139.5v240.1c0 46.4-37.6 84.1-84.1 84.1h-267c-2.1 0-3.7 1.6-3.7 3.7v48c0 2 1.7 3.7 3.7 3.7h322.5z"/>
	<path d="m3074.1 368.1v-191.3c0-2 1.7-3.7 3.7-3.7h737.3c2 0 3.7 1.7 3.7 3.7v48c0 2-1.6 3.7-3.7 3.7h-626.4c-2.1 0-3.7 1.7-3.7 3.7v124.7c0 22.1 17.8 40 39.9 40h466.4c81.6 0 147.7 66.1 147.7 147.7s-66.1 147.7-147.7 147.7h-613.5c-2 0-3.7-1.7-3.7-3.7v-48c0-2 1.7-3.7 3.7-3.7h558c50.9 0 92.1-41.2 92.3-92 0.2-51-42.1-92.7-93-92.7h-476.8c-46.5 0-84.2-37.7-84.2-84.1"/>
	<path d="m1979 396.7c46.5 0 84.1-37.7 84.1-84.1 0-46.5-37.6-84.1-84.1-84.1h-565.6c-2 0-3.7-1.7-3.7-3.7v-48c0-2 1.7-3.7 3.7-3.7h621.1c77.1 0 139.6 62.5 139.6 139.6s-62.5 139.6-139.6 139.6h-429.7c-46.5 0-84.1 37.7-84.1 84.1v152.3c0 2-1.6 3.7-3.7 3.7h-103.5c-2 0-3.7-1.6-3.7-3.7v-152.5c0-77.1 62.5-139.5 139.6-139.5h429.6z"/>

</svg>
