<?xml version="1.0" encoding="UTF-8"?>
<svg enable-background="new 0 0 3839 926.7" version="1.1" viewBox="0 0 3839 926.7" xml:space="preserve" xmlns="http://www.w3.org/2000/svg">
<style type="text/css">
	.st0{fill:#FFFFFF;}
</style>

	
		<path class="st0" d="m3784.1 843.4c32-10.1 54.9-40.3 54.9-75.1s-22.9-65-54.9-75.1l-78.7-26.5h129.1v-139.1c0-24.7-10.1-47.6-26.5-65h26.5v-142.8c0-26.5-11-50.3-29.3-67.7h29.3v-135.6c0-57.7-47.6-105.3-105.3-105.3-27.5 0-53.1 11-71.4 28.4v-28.4h-122.7v135.5c0 38.4 20.1 71.4 51.3 90.6-30.2 15.6-51.3 46.7-51.3 83.3v143.7h26.5c-16.5 16.5-26.5 39.4-26.5 65v397.3l249-83.2z"/>
		
			
				<path d="m3635.8 146.7v-114.4h-35.7v114.4c0 22 18.3 40.3 40.3 40.3s40.3-18.3 40.3-40.3v-29.3c0-26.5 22-48.5 48.5-48.5 26.6 0 48.5 22 48.5 48.5v113.5h35.7v-114.4c0-46.7-37.5-84.2-84.2-84.2s-84.2 37.5-84.2 84.2v29.3c0 2.7-1.8 4.6-4.6 4.6s-4.6-1.9-4.6-3.7z"/>
				<path d="m3732.8 116.5v114.5h36.6v-114.5c0-22-18.3-40.3-40.3-40.3s-40.3 18.3-40.3 40.3v29.3c0 26.5-22 48.5-48.5 48.5-26.6 0-48.5-22-48.5-48.5v-113.5h-35.7v114.4c0 46.7 37.5 84.2 84.2 84.2s84.2-37.5 84.2-84.2v-29.3c0-2.7 1.8-4.6 4.6-4.6 1.9 0.1 3.7 1.9 3.7 3.7z"/>
			
			
				<path d="m3769.4 527.5c0-15.6-11.9-27.5-27.5-27.5h-114.4c-15.6 0-27.5 11.9-27.5 27.5v74.2h80.6v-56.8h-35.7v21.1h-8.3v-21.1c0-4.6 3.7-8.3 8.3-8.3h80.5c4.6 0 8.3 3.7 8.3 8.3v101.6h35.7v-119z"/>
				<path d="m3600.1 752.7v83.3l168.4-56.8c4.6-1.8 8.3-5.5 8.3-11 0-4.6-3.7-9.2-7.3-11l-213.3-73.2v42.1l76 25.6h-32v1h-0.1zm76.9 14.7-36.6 11.9v-24.7l36.6 12.8z"/>
				<path d="m3775.8 823.2c23.8-7.3 42.1-29.3 42.1-55.8 0-26.6-17.4-48.5-41.2-54.9l-195.9-66.8h143.7v-100.8h-35.7v65.9h-97v-82.4c0-20.1 16.5-35.7 35.7-35.7h114.5c20.1 0 35.7 16.5 35.7 35.7v118.1h35.7v-119c0-39.4-32-71.4-71.4-71.4h-114.4c-39.4 0-71.4 32-71.4 71.4v147.4l215.1 74.2c8.3 2.7 13.7 10.1 13.7 19.2s-5.5 16.5-13.7 19.2l-179.4 60.4v-95.2h-35.7v144.6l219.6-74.1z"/>
			
			
				<path d="m3591.8 319.7c0-20.1 16.5-35.7 35.7-35.7h114.5c20.1 0 35.7 16.5 35.7 35.7v122.7h35.7v-122.7c0-39.4-32-71.4-71.4-71.4h-114.4c-39.4 0-71.4 32-71.4 71.4v122.7h35.7l-0.1-122.7z"/>
				<path d="m3644 328v88.8h35.7v-124.5h-53.1c-15.6 0-27.5 11.9-27.5 27.5v122.7h35.7v-106.3c1-4.5 4.6-8.2 9.2-8.2z"/>
				<path d="m3724.6 416.8v-88.8c4.6 0 8.3 3.7 8.3 8.3v105.3h36.6v-121.8c0-15.6-11.9-27.5-27.5-27.5h-53.1v124.5h35.7z"/>
			
		
	
	
		<path d="m393.9 317h21c5.9 19.8 30.2 29 114.8 29 206.9 0 262.8-52.4 262.8-102.1 0-53.6-72.5-106.8-231.2-106.8-203.9 0-344.5 85.8-344.5 124.3 0 8 3 15.1 5.9 21l-18.1 11.5-159.6-161.6 21-9.2c5.9 3.6 13.6 7.1 22.8 7.1 43.8 0 135.8-130.2 486.3-130.2 246.2 0 432.1 102.1 432.1 235.9 0 79-55.9 140.6-152.4 162.8v2.4c127 34.9 214.6 101.2 214.6 211.3 0 149.8-190.3 256.9-483.3 256.9-394.2 0-480.4-104.5-531.6-104.5-12.1 0-21 4.7-30.2 10.4l-24.3-7.2 120.8-199.8 22.8 10.4c0 3.6-1.5 8-1.5 13.9 0 45.3 167.5 139.4 418.5 139.4 190.3 0 294.5-51.2 294.5-124.3 0-63.9-78.4-133.5-297.5-133.5-113.4 0-137.3 12.7-142.1 33.7h-21v-190.8h-0.6z"/>
		<path d="m1108.1 171.7 21-12.7c3 3.6 9.2 5.9 18.1 5.9 42.3 0 155.7-164.9 477.4-164.9 187.4 0 421.5 82.6 421.5 243.9 0 309-576.8 276.4-731.1 471.8h728.1c33.1 0 45.3-9.2 45.3-27.8h21v195h-21c0-16.3-12.1-25.5-45.3-25.5h-969.6c0-424.1 758.3-405.5 758.3-605.3 0-75.5-113.4-115.1-216.1-115.1-173.7-0.3-321.7 111.3-321.7 162.5 0 10.4 5.9 17.5 12.1 23.4l-19.5 13.9-178.5-165.1z"/>
		<path d="m2165.6 857.1v-16.3c37.9-2.4 48.2-19.8 77-48.8l377.7-372.9-356.4-364.6c-9.2-9.2-22.8-26.6-60.4-26.6v-16.7h356.4v16.3c-19.5 0-31.7 4.7-31.7 16.3 0 4.7 7.7 13.9 22.8 29l205.4 211.3 214.6-212.5c12.1-12.7 21-22.2 21-29 0-9.2-12.1-15.1-25.7-15.1v-16.3h335.3v16.3c-49.7 1.2-69.6 21-98.3 48.8l-329.4 326.5 380.6 389.2c30.2 31.4 40.8 47.7 81.7 48.8v16.3h-353.4v-16.3c22.8 0 28.7-3.6 28.7-15.1 0-10.4-25.7-33.7-54.5-62.7l-220.5-224.3-267.3 264.9c-7.7 8-13.6 11.5-13.6 22.2 0 9.2 12.1 15.1 31.7 15.1v16.3h-321.7z"/>
	

</svg>
