<?xml version="1.0" encoding="UTF-8"?>
<svg enable-background="new 0 0 3839 1574.9" version="1.1" viewBox="0 0 3839 1574.9" xml:space="preserve" xmlns="http://www.w3.org/2000/svg">
<style type="text/css">
	.st0{fill:#107C10;}
	.st1{fill:#FFFFFF;}
	.st2{fill:#666666;}
	.st3{fill:#999999;}
</style>

	
		<g transform="translate(-87.941 -88)">
			<rect x="719.7" y="88" width="3207.2" height="1574.9"/>
			<path class="st1" d="m3044.2 911.4 122.8-168.8c-40.3-9.4-78.6-25.9-113.1-48.8-34.1-25.9-53.2-67.1-50.9-109.9-1.8-43.2 19.1-84.2 55-108.3 47.8-28.4 103-41.8 158.5-38.3 215.9 0 272.1 113.5 310.3 161.6l115.8-159.2c-19.6-31.9-44.3-60.3-73.3-84-80.6-66.6-199.4-99.9-356.2-99.9-138 0-245.9 30.3-323.6 90.8-76.4 57.4-120 148.5-116.8 244 0.1 161.9 90.5 264.1 271.5 320.8zm595.3-8.5c-54.1-48.2-137.9-85.9-251.5-113.2l-124.2 170.7c65 13 126.8 38.5 182.1 75 34.8 24 54.7 64.4 52.5 106.6 2.6 50.2-20.7 98.3-61.7 127.4-53.5 32.8-115.9 48.2-178.5 44.1-179.5 0-264.2-59.5-350.6-214.4l-123.9 170.3c22.1 45.5 54 85.6 93.3 117.4 88.4 72.2 213.3 108.3 374.5 108.3 151.3 0 269.2-31.9 353.7-95.8 84.2-63.1 131.7-163.9 126.8-269 4.5-85.8-29.4-169.1-92.5-227.4zm-1067.5 565.6h-51.8v-1186.1h51.6l0.2 1186.1zm-1520.2-1191.7c17-0.8 33.4 6.8 43.7 20.4 21.4 36.5 20.6 82-2 117.7-12.5 14.6-31.1 22.7-50.3 21.8h-0.3v-36.3h0.3c11.1 0.9 21.9-3.6 29.2-12.1 6.5-10.4 9.6-22.7 8.7-35 0.6-10-1.8-20-7.1-28.6-4.7-6.5-12.4-10.2-20.4-9.8-6.7-0.3-13.1 2.8-17 8.3-5.3 9.5-8.9 19.9-10.5 30.7l-3.2 16.1c-2.3 17.1-9.4 33.1-20.4 46.3-9.9 10.3-23.6 15.9-37.9 15.5-15.5 0.5-30.3-6.6-39.7-18.9-10.6-15.3-15.8-33.7-14.7-52.3-1.4-20.5 4.3-40.8 16.2-57.6 11.3-13.3 28-20.8 45.5-20.7h0.3v35.7h-0.2c-9.2 0-17.9 3.9-24 10.8-5.9 9.3-8.6 20.2-7.8 31.1-0.5 8.9 1.6 17.7 6.2 25.4 3.9 5.7 10.4 9 17.3 8.7 6.8 0.3 13.3-2.7 17.5-8.1 5.4-8.9 9-18.8 10.4-29.2l3.2-16.7c2.4-17.7 9.4-34.4 20.1-48.7 9.6-9.9 23.1-15.3 36.9-14.5zm-36.9 1046.8c-10.7 14.2-17.7 31-20.1 48.7l-3.2 16.7c-1.5 10.3-5 20.2-10.4 29.2-4.2 5.4-10.7 8.4-17.5 8.1-6.9 0.3-13.4-3-17.3-8.7-4.6-7.7-6.7-16.5-6.2-25.4-0.9-10.9 1.8-21.9 7.8-31.1 6.1-6.9 14.8-10.8 24-10.8h0.3v-36h-0.3c-17.5-0.2-34.1 7.4-45.5 20.7-11.9 16.7-17.6 37.1-16.2 57.6-1.1 18.6 4.1 37 14.7 52.3 9.4 12.4 24.2 19.4 39.7 18.9 14.3 0.5 28-5.2 37.9-15.5 11-13.2 18.1-29.3 20.4-46.3l3.2-16.1c1.6-10.8 5.1-21.2 10.5-30.7 3.9-5.5 10.3-8.7 17-8.3 8-0.4 15.7 3.3 20.4 9.8 5.2 8.6 7.7 18.6 7.1 28.6 0.9 12.3-2.2 24.5-8.7 35-7.2 8.5-18.1 13-29.2 12.1h-0.3v36.1h0.3c19.2 0.9 37.8-7.1 50.3-21.8 22.7-35.8 23.5-81.2 2-117.7-10.3-13.6-26.7-21.2-43.7-20.4-14-0.8-27.5 4.7-37 15zm91.9-467.9v38c-7.1 3.7-15 5.4-23 5.2l-21 0.8c-8.7-0.5-17.4 2.3-24.2 7.8-5.1 6.4-7.5 14.4-6.8 22.5v47h75.1v36.9h-192.4v-87.1c0-4.2 0.2-8.3 0.6-12.5v4c0.4-13 4.2-25.7 11-36.8l-1.6 2c1.4-2.3 2.9-4.5 4.6-6.6 9.7-11.9 24.5-18.5 39.8-17.8 20.7-1.4 39.6 11.6 45.8 31.4 2.3-8.2 7.3-15.3 14.3-20.2 8.1-4.6 17.3-7 26.7-6.9l28.5-1.6c7.8 0.2 15.5-1.8 22.2-5.8l0.4-0.3zm-133.9 41.4c-7.9-0.5-15.6 2.8-20.8 8.7-5.2 7.1-7.8 15.9-7.2 24.7v46.7h57.6v-48.3c0.5-8.5-2.2-17-7.6-23.6-5.8-5.8-13.8-8.8-22-8.2zm-58.3-118.6h192.4v-36.9h-192.4v36.9zm33.2-267.8h-33.2v141.7h192.4v-141.7h-33.2v105h-49.1v-94.9h-31.7v94.9h-45.3l0.1-105zm0 582.3h-33.2v141.7h192.4v-141.7h-33.2v105h-49.1v-95h-31.7v94.9h-45.3l0.1-104.9zm242.6 375.5h255.2l193.9-266.5-127.6-175.4-321.5 441.9zm1118.3-1186h-255.2l-158.6 218 127.6 175.4 286.2-393.4zm-827.8 0h-255.3l863 1185.9h255.2l-862.9-1185.9z"/>
		</g>
	
	
		<polygon points="436.7 1180.8 436.7 1253.3 264.9 1377.9 436.7 1502.4 436.7 1574.9 214.4 1414.1 9.5 1562.3 9.5 1489.8 164 1377.9 9.5 1265.9 9.5 1193.4 214.4 1341.6"/>
		<path d="m252.2 821.4c-17.3 11-30 30-39.4 53.6-20.5-36.3-52-55.2-93-55.2-33.1 0-59.9 11-80.4 34.7-18.9 23.6-30 56.8-30 99.3v192.3h181.3v55.2l55.2 39.4v-94.6h190.8v-200.2c0-45.7-11-80.4-33.1-105.6-20.5-23.6-50.4-36.3-88.3-36.3-23.6 0-44.1 6.3-63.1 17.4zm-184.4 260.1v-123c0-23.6 4.7-42.6 15.8-55.2s25.2-18.9 44.1-18.9c22.1 0 37.8 6.3 48.9 18.9 9.5 12.6 15.8 30 15.8 55.2v123h-124.6zm294.8-190.8c11 14.2 17.3 33.1 17.3 59.9v130.8h-134v-130.8c0-26.8 6.3-47.3 17.3-59.9 11-14.2 28.4-20.5 50.4-20.5s38 6.3 49 20.5z"/>
		<path d="m132.4 379.9c-26.8 9.5-50.4 23.6-70.9 42.6s-36.3 41-45.7 66.2c-11.1 25.2-15.8 53.6-15.8 85.1s6.3 59.9 15.8 85.1 25.2 47.3 45.7 66.2 44.1 33.1 70.9 42.6 56.8 14.2 89.9 14.2 63.1-4.7 89.9-14.2 50.4-23.6 70.9-42.6c20.5-18.9 36.3-41 45.7-66.2 11-25.2 15.8-53.6 15.8-85.1s-6.3-59.9-15.8-85.1-25.2-47.3-45.7-66.2-44.1-33.1-70.9-42.6-56.8-14.2-89.9-14.2c-31.5 0-63.1 4.8-89.9 14.2zm209.7 89.9c28.4 25.2 44.1 59.9 44.1 102.5s-14.2 77.2-44.1 102.5c-30 26.8-69.4 39.4-119.8 39.4-48.9 0-89.9-12.6-119.8-39.4-30-25.2-44.1-59.9-44.1-102.5s14.2-77.2 44.1-102.5c28.4-25.2 69.4-37.8 119.8-37.8s91.4 12.6 119.8 37.8z"/>
		<polygon points="214.4 159.2 9.5 11 9.5 83.6 164 195.5 9.5 307.4 9.5 379.9 214.4 231.7 436.7 394.1 436.7 321.6 264.9 197.1 436.7 72.5 436.7 0"/>
	

</svg>
