<?xml version="1.0" encoding="UTF-8"?>
<svg enable-background="new 0 0 3839 1189.8" version="1.1" viewBox="0 0 3839 1189.8" xml:space="preserve" xmlns="http://www.w3.org/2000/svg">
<style type="text/css">
	.st0{fill:#FFFFFF;}
</style>

	
		
			<path d="m387 552.6h-252.7-43.2-18c-38.2-0.3-38.2-60.1 0-60.4h18 380.6v-84.5h-379.6c-50.8 0-92.1 41.3-92.1 92.2v45.1c0 50.9 41.3 92.1 92.1 92.1h252.8 43.2 18c38.2 0.3 38.2 60.1 0 60.4h-18-380.6v84.5h379.5c50.9 0 92.1-41.3 92.1-92.1v-45.2c0.1-50.8-41.2-92.1-92.1-92.1z"/>
			<path d="m943.1 407.7h-294.2c-50.9 0-92.2 41.3-92.2 92.1v190.2c0 50.9 41.3 92.1 92.2 92.1h294.3c50.9 0 92.2-41.3 92.2-92.1v-190.2c-0.1-50.8-41.4-92.1-92.3-92.1zm47.6 259.7c0 15-9.6 30-28.7 30.2h-17.9-296.3-17.9c-19.1-0.2-28.7-15.2-28.7-30.2v-145c0-15 9.6-30 28.7-30.2h17.9 296.3 17.9c19.1 0.2 28.7 15.2 28.7 30.2v145z"/>
			<path d="m2014.2 407.7h-312.7c-15.5 0-28.1 12.6-28.1 28.1v318.2c0 15.5 12.6 28.1 28.1 28.1h312.7c91.8 0 166.2-74.4 166.2-166.2v-41.9c0-91.9-74.4-166.3-166.2-166.3zm118.7 200c-1.8 47.9-42.2 89.8-90.1 89.8h-309c-8.8 0-15.9-7.1-15.9-15.9v-173.4c0-8.8 7.1-15.9 15.9-15.9h308.6c51.3 0 92.3 38.6 90.4 89.8l0.1 25.6z"/>
		
		<path d="m1302.3 637.2h17.9 43.2 143.6c50.9 0 92.2-41.2 92.2-92.1v-45.2c0-50.9-41.3-92.1-92.2-92.1h-294.2c-50.9 0-92.2 41.3-92.2 92.1v282.2h44.5v-259.7c0-15 9.6-30 28.7-30.2h17.9 296.3 17.9c38.2 0.3 38.2 60.1 0 60.4h-17.9-14.2-172.7c-50.9 0-92.2 41.2-92.2 92.1v45.3c0 50.9 41.3 92.1 92.2 92.1h270.5v-84.5h-271.5-17.9c-38.1-0.4-38.1-60.1 0.1-60.4z"/>
	
	
		
			<path d="m2500.7 40.9c-3.5-17.8-17.8-26.8-35.3-26.8-30 0-42.7 24.7-42.7 51 0 28.8 12.7 52.8 42.9 52.8 22.1 0 34.8-15.5 36.4-36.4h16.8c-3.2 31.4-22.8 50.5-54.5 50.5-39.2 0-58.2-28.9-58.2-65.6 0-36.5 20.8-66.4 59.6-66.4 26.3 0 48 14.1 51.9 40.9h-16.9z"/>
			<path d="M2530.3,37.8h14.1V57h0.4c7.2-14.6,17.3-21.9,33.5-21.4v15.9c-24.2,0-33,13.8-33,36.9V129h-15V37.8z"/>
			<path d="m2660.4 100.1c-4.1 20.1-18.5 31.1-39 31.1-29.1 0-42.9-20.1-43.8-48 0-27.4 18-47.5 42.9-47.5 32.3 0 42.2 30.2 41.3 52.2h-68.3c-0.5 15.9 8.5 30 28.4 30 12.4 0 21-6 23.6-17.8h14.9zm-14.4-25.5c-0.7-14.3-11.5-25.8-26.3-25.8-15.7 0-25.1 11.8-26.1 25.8h52.4z"/>
			<path d="m2753 128.6c-2.6 1.6-6 2.5-10.8 2.5-7.8 0-12.7-4.2-12.7-14.1-8.3 9.7-19.4 14.1-32.1 14.1-16.6 0-30.2-7.4-30.2-25.6 0-20.6 15.4-25.1 30.9-28.1 16.6-3.2 30.7-2.1 30.7-13.4 0-13.1-10.8-15.2-20.3-15.2-12.7 0-22.1 3.9-22.8 17.3h-15c0.9-22.6 18.4-30.5 38.6-30.5 16.4 0 34.2 3.7 34.2 25.1v46.9c0 7.1 0 10.2 4.8 10.2 1.2 0 2.6-0.2 4.6-0.9v11.7zm-24.4-46.7c-5.8 4.2-17.1 4.4-27.2 6.2-9.9 1.8-18.4 5.3-18.4 16.4 0 9.9 8.5 13.4 17.6 13.4 19.8 0 27.9-12.4 27.9-20.6v-15.4z"/>
			<path d="M2781.2,37.8h18.2V51h-18.2v56.6c0,6.9,1.9,8.1,11.3,8.1h6.9V129h-11.5c-15.5,0-21.7-3.2-21.7-19.9V51h-15.5V37.8h15.5     V10.4h15V37.8z"/>
			<path d="M2824.2,21.4h-15V3h15V21.4z M2809.2,37.8h15V129h-15V37.8z"/>
			<path d="m2881.8 129h-16.1l-33.9-91.2h16.8l25.6 76.1h0.4l24.9-76.1h15.7l-33.4 91.2z"/>
			<path d="m2996.9 100.1c-4.1 20.1-18.5 31.1-39 31.1-29.1 0-42.9-20.1-43.8-48 0-27.4 18-47.5 42.9-47.5 32.3 0 42.2 30.2 41.3 52.2h-68.3c-0.5 15.9 8.5 30 28.4 30 12.4 0 21-6 23.6-17.8h14.9zm-14.5-25.5c-0.7-14.3-11.5-25.8-26.3-25.8-15.7 0-25.1 11.8-26.1 25.8h52.4z"/>
			<path d="m3148.7 40.9c-3.5-17.8-17.8-26.8-35.3-26.8-30 0-42.7 24.7-42.7 51 0 28.8 12.7 52.8 42.9 52.8 22.1 0 34.8-15.5 36.4-36.4h16.8c-3.2 31.4-22.8 50.5-54.5 50.5-39.2 0-58.2-28.9-58.2-65.6 0-36.5 20.8-66.4 59.6-66.4 26.3 0 48 14.1 51.9 40.9h-16.9z"/>
			<path d="m3218.5 35.6c28.9 0 44.3 21 44.3 47.8 0 26.6-15.4 47.6-44.3 47.6s-44.3-21-44.3-47.6c0-26.8 15.4-47.8 44.3-47.8zm0 82.3c15.7 0 28.4-12.4 28.4-34.4 0-22.2-12.7-34.6-28.4-34.6s-28.4 12.4-28.4 34.6c0 22 12.7 34.4 28.4 34.4z"/>
			<path d="m3274.3 37.8h14.1v13.4h0.4c6.7-10.2 16.9-15.5 29.5-15.5 11.1 0 21.4 4.4 25.1 15.5 6.2-9.7 16.9-15.5 28.6-15.5 18.2 0 30.4 7.6 30.4 26.5v66.8h-15v-59.8c0-11.3-3-20.3-17.6-20.3-14.5 0-23.8 9.2-23.8 23.3v56.8h-15v-59.8c0-11.8-3.7-20.3-17.1-20.3-17.8 0-24.4 16.4-24.4 23.3v56.8h-15v-91.2z"/>
			<path d="m3418.9 37.8h15v12.4h0.4c4.9-10.1 16.6-14.5 29.1-14.5 28.1 0 42 22.2 42 48s-13.8 47.5-41.6 47.5c-9.4 0-22.8-3.5-29.5-14.3h-0.4v47.1h-15v-126.2zm42.4 11.1c-20.1 0-27.9 17.3-27.9 34.4 0 18 8.1 34.6 28.8 34.6 20.5 0 27.4-17.5 27.4-35.3-0.1-17.1-8.9-33.7-28.3-33.7z"/>
			<path d="m3592.4 129h-14.1v-14.5h-0.4c-6.4 11.3-16.6 16.6-29.6 16.6-24 0-31.4-13.8-31.4-33.4v-60h15v61.8c0 11.1 7.1 18.4 18.5 18.4 18.2 0 27-12.2 27-28.6v-51.5h15v91.2z"/>
			<path d="M3630.1,37.8h18.2V51h-18.2v56.6c0,6.9,1.9,8.1,11.3,8.1h6.9V129h-11.5c-15.5,0-21.7-3.2-21.7-19.9V51h-15.5V37.8h15.5     V10.4h15V37.8z"/>
			<path d="m3733.1 100.1c-4.1 20.1-18.5 31.1-39 31.1-29.1 0-42.9-20.1-43.8-48 0-27.4 18-47.5 42.9-47.5 32.3 0 42.2 30.2 41.3 52.2h-68.3c-0.5 15.9 8.5 30 28.4 30 12.4 0 21-6 23.6-17.8h14.9zm-14.4-25.5c-0.7-14.3-11.5-25.8-26.3-25.8-15.7 0-25.1 11.8-26.1 25.8h52.4z"/>
			<path d="M3744.7,37.8h14.1V57h0.4c7.2-14.6,17.3-21.9,33.5-21.4v15.9c-24.2,0-33,13.8-33,36.9V129h-15V37.8z"/>
		
		
			<path d="m3138.8 375c0-104.5-84.7-189.2-189.2-189.2-76.6 0-142.5 45.7-172.3 111.2-29.7-65.5-95.6-111.2-172.2-111.2-64.3 0-121.1 32.2-155.3 81.2v-64.2h-34v513.8h34v-341.6c0-85.7 69.5-155.3 155.2-155.3s155.3 69.5 155.3 155.3v341.6h34v-341.6c0-85.7 69.5-155.3 155.3-155.3 85.7 0 155.2 69.5 155.2 155.3v341.7h34v-341.7z"/>
			<path d="m3457.1 374.5 36.3-154.8h299.3v-34h-326.3l-48.5 206.8-3.4 14.6h16.2c206.7 0 374.4 167.6 374.4 374.3s-167.6 374.3-374.4 374.3h-12.8v34h12.8c225.5 0 408.3-182.8 408.3-408.3 0-216.5-168.8-393.3-381.9-406.9z"/>
			<path d="m3230.2 537.4c-9.2 0-16.7 7.5-16.7 16.7s7.5 16.6 16.7 16.6 16.6-7.5 16.6-16.6c0.1-9.2-7.4-16.7-16.6-16.7z"/>
			<path d="m3271.8 537.4c-9.2 0-16.6 7.5-16.6 16.7s7.5 16.6 16.6 16.6c9.2 0 16.6-7.5 16.6-16.6 0-9.2-7.4-16.7-16.6-16.7z"/>
			<path d="m3313.3 537.4c-9.2 0-16.7 7.5-16.7 16.7s7.5 16.6 16.7 16.6 16.6-7.5 16.6-16.6c0.1-9.2-7.4-16.7-16.6-16.7z"/>
			<path d="m3354.8 537.4c-9.2 0-16.6 7.5-16.6 16.7s7.5 16.6 16.6 16.6 16.6-7.5 16.6-16.6c0.1-9.2-7.4-16.7-16.6-16.7z"/>
			<path d="m3230.2 579c-9.2 0-16.7 7.5-16.7 16.6 0 9.2 7.5 16.7 16.7 16.7s16.6-7.5 16.6-16.7c0.1-9.2-7.4-16.6-16.6-16.6z"/>
			<path d="m3271.8 579c-9.2 0-16.6 7.5-16.6 16.6 0 9.2 7.5 16.7 16.6 16.7 9.2 0 16.6-7.5 16.6-16.7s-7.4-16.6-16.6-16.6z"/>
			<path d="m3313.3 579c-9.2 0-16.7 7.5-16.7 16.6 0 9.2 7.5 16.7 16.7 16.7s16.6-7.5 16.6-16.7c0.1-9.2-7.4-16.6-16.6-16.6z"/>
			<path d="m3354.8 579c-9.2 0-16.6 7.5-16.6 16.6 0 9.2 7.5 16.7 16.6 16.7s16.6-7.5 16.6-16.7c0.1-9.2-7.4-16.6-16.6-16.6z"/>
			<path d="m3230.2 620.5c-9.2 0-16.7 7.5-16.7 16.6 0 9.2 7.5 16.6 16.7 16.6s16.6-7.5 16.6-16.6c0.1-9.2-7.4-16.6-16.6-16.6z"/>
			<ellipse cx="3271.8" cy="637.1" rx="16.6" ry="16.6"/>
			<path d="m3313.3 620.5c-9.2 0-16.7 7.5-16.7 16.6 0 9.2 7.5 16.6 16.7 16.6s16.6-7.5 16.6-16.6c0.1-9.2-7.4-16.6-16.6-16.6z"/>
			<ellipse cx="3354.8" cy="637.1" rx="16.6" ry="16.6"/>
			<path d="m3230.2 662c-9.2 0-16.7 7.5-16.7 16.6s7.5 16.6 16.7 16.6 16.6-7.5 16.6-16.6-7.4-16.6-16.6-16.6z"/>
			<ellipse cx="3271.8" cy="678.7" rx="16.6" ry="16.6"/>
			<path d="m3313.3 662c-9.2 0-16.7 7.5-16.7 16.6s7.5 16.6 16.7 16.6 16.6-7.5 16.6-16.6-7.4-16.6-16.6-16.6z"/>
			<ellipse cx="3354.8" cy="678.7" rx="16.6" ry="16.6"/>
		
	

</svg>
