<?xml version="1.0" encoding="UTF-8"?>
<svg enable-background="new 0 0 3839 1126.3" version="1.1" viewBox="0 0 3839 1126.3" xml:space="preserve" xmlns="http://www.w3.org/2000/svg">
<style type="text/css">
	.st0{fill:#30348D;}
	.st1{fill:#F16140;}
	.st2{fill:#FFFFFF;}
</style>

	
		
			<polygon points="1902.9 75.5 2189.7 98.7 2189.7 49.9 1902.9 26.7"/>
			
				<path d="m1602.8 125h202.2v32.1h-102.4v48.3h-88.6v56.8h85.3c22.5 0 40.7-21.6 40.7-48.3v-8.4h72.1c22.5 0 40.7-21.6 40.7-48.3v-80.4h-250v48.2z"/>
				<rect x="1002" y="109.6" width="214.8" height="56.8"/>
				<rect x="2646.9" y="112.8" width="216.5" height="56.8"/>
				<polygon points="3118.7 20 3047 20 3047 52.7 2924 52.7 2924 101 3047 101 3047 262.2 3118.7 262.2 3118.7 101 3256 101 3256 52.7 3118.7 52.7"/>
				<rect x="3139.8" width="56.3" height="37.8"/>
				<rect x="3214.3" width="56.3" height="37.8"/>
				<path d="m3211.1 133.5h-52.2v18.6c0 80.1 41.4 110.1 75.6 110.1h21.5v-48.3c-20.8-0.1-44.9-30.3-44.9-80.4z"/>
				<path d="m2916.1 213.8v48.3h21.5c34.1 0 75.6-30 75.6-110.1v-18.6h-52.2c0 50.2-24 80.4-44.9 80.4z"/>
				<path d="m2326.9 20h-2.7v16c0 28.7-10.5 49.4-24.9 56.1l-10.3 2.3-0.5 16.5-1.2 40.3h17.6c34.6 0 62.6-33.3 62.6-74.4h179.6v39.4h-165.8l-15.6 56.8h162.7v3.2c0 16.1-11 29.2-24.6 29.2h-184v56.8h184.2c62.5 0 90.3-67.3 90.3-102.7v-11.2-128.3h-267.4z"/>
				<polygon points="1902.9 237.3 2189.7 260.6 2189.7 211.8 1902.9 188.5"/>
				<polygon points="1902.9 156.4 2189.7 179.6 2189.7 130.9 1902.9 107.6"/>
				<path d="m1280.8 76.8h243.6v51.6c0 36.9-35.3 77-83.3 77h-137.4v56.8h168.7c43.8 0 82.5-40.7 84.3-113h0.2v-129.2h-276v56.8z"/>
				<path d="m722.1 76.8h200.5v51.6c0 36.9-35.3 77-83.3 77h-137.4v56.8h168.7c43.8 0 82.5-40.7 84.3-113h0.2v-129.2h-233v56.8z"/>
				<polyline points="922.2 209.5 973.7 270.7 1040.8 270.1 950.1 162.2"/>
			
		
	
	<polygon points="1786.9 1125.8 1883.8 1125.8 2014.4 385.1 1917.5 385.1"/>
	<polygon points="1779.4 385.1 1779.4 385.2 1574.8 776.3 1508.2 385.2 1508.2 385.1 1411.4 385.1 1280.8 1125.8 1377.6 1125.8 1456.1 681 1495 1125.8 1531.4 1125.8 1727.2 681 1648.8 1125.8 1745.7 1125.8 1876.3 385.1"/>
	<path d="m708.6 891.9 0.5-2.7 88.9-504.1h-96.9l-81.8 463.9c-11 62.5-50.4 113.1-88.1 113.1-37.6 0-59.2-50.6-48.2-113.1l81.8-463.8h-96.8l-89.4 506.8c-21.3 123.6-5.2 233.9 123.7 233.9 129-0.1 184-110.4 206.3-234z"/>
	<polygon points="954 829.5 981.8 672.3 885.1 672.3 908 542.4 1004.7 542.4 1032.4 385.1 935.7 385.1 887.3 385.1 838.8 385.1 708.2 1125.8 805.1 1125.8 857.3 829.5"/>
	<path d="m1159.6 382.7-275.5 743.1h98.7l44.3-119.6h136.6l2.1 119.6h98.7l-13.4-743.1h-91.5zm-74.1 466.2 71.9-194 3.5 194h-75.4z"/>
	<polygon points="2475.6 542.4 2503.3 385.1 2247.7 385.1 2219.9 542.4 2291.1 542.4 2188.2 1125.8 2285.1 1125.8 2388 542.4"/>
	<path d="m2778.6 891.9 0.5-2.7 88.9-504.1h-96.9l-81.8 463.9c-11 62.4-50.4 113.1-88 113.1s-59.2-50.6-48.2-113.1l81.8-463.8h-96.9l-89.4 506.8c-21.3 123.6-5.2 233.9 123.7 233.9 129-0.1 184-110.4 206.3-234z"/>
	<path d="m270.9 663.6c-58.1-44.4-59.4-121.3 58.6-121.3h84.5l26.9-157.3h-117c-126.3 0-169.9 122.4-190.3 204.6-17.6 70.5-18.5 140.5 21.4 182.5l47.7 39.2c58.1 44.4 59.4 157-58.6 157h-68.4l-75.7 157.4s94.8-1 131.2 0c115.3 3.2 171.1-106.2 199.7-209 16.8-60.5 34.4-167-12.4-213.8l-47.6-39.3z"/>
	<path d="m3126.9 611.9c13.7-85 4.7-138.3-11.1-171.6-16.1-34.2-51.6-55.1-89.4-55.1h-126.8l-130.6 740.6h96.9l44.6-252.9 37.2 252.9h97.9l-43.9-298.8c71.7-36.4 101.5-68 125.2-215.1zm-98.3 26.6c-13.1 68-46.4 87.1-78.2 87.1h-13.9l32.3-183.2c40 0 74.5 19.7 59.8 96.1z"/>
	<path d="m3363.8 732.1c26.6-42.7 51.6-101.3 65.8-180.8 23.3-130.2-48.1-166.2-99.6-166.2h-127.2l-130.6 740.7c38.3 0.7 99.7 0.4 140.2 0.1 38.8-0.3 76.5-15 103.4-43 29.8-31.1 46-78.1 62.8-172.4 14.8-83.3 4.8-137.2-10.6-170.6-1.3-2.7-2.7-5.3-4.2-7.8zm-66.1 173.2c-3.9 21.9-11 37.4-17.3 47.6-6 9.7-16.5 15.7-27.9 15.7h-55.6l23.7-134.4h46.4s38.9 25.4 30.7 71.1zm31.5-291.7c-4.6 25.4-15 42.2-23.3 52-6.1 7.2-15.2 11.2-24.6 11.2h-32.9l23.7-134.4h31.4s33.9 25.5 25.7 71.2z"/>
	<path d="m3695.4 385.1c-109.6 0-227.7 165.9-263.8 370.6s23.5 370.6 133.1 370.6 227.7-165.9 263.8-370.6c36-204.7-23.5-370.6-133.1-370.6zm36.2 370.4c-20.7 117.7-83 213.1-139.1 213.1s-84.7-95.4-64-213.1 83-213.1 139.1-213.1 84.8 95.4 64 213.1z"/>

</svg>
