<?xml version="1.0" encoding="UTF-8"?>
<svg enable-background="new 0 0 3839 1091.7" version="1.1" viewBox="0 0 3839 1091.7" xml:space="preserve" xmlns="http://www.w3.org/2000/svg">
<style type="text/css">
	.st0{fill:#C1C1C1;}
	.st1{fill:#E60008;}
	.st2{clip-path:url(#SVGID_2_);}
	.st3{fill:url(#SVGID_3_);}
	.st4{fill:url(#SVGID_4_);}
	.st5{opacity:0.8;fill:url(#SVGID_5_);}
	.st6{fill:url(#SVGID_6_);}
	.st7{fill:#FFFFFF;}
	.st8{fill:#FFF200;}
	.st9{fill:#DE0204;}
	.st10{clip-path:url(#SVGID_8_);}
	.st11{fill:url(#SVGID_11_);}
	.st12{fill:url(#SVGID_12_);}
	.st13{opacity:0.8;fill:url(#SVGID_13_);}
	.st14{fill:url(#SVGID_14_);}
	.st15{clip-path:url(#SVGID_16_);}
	.st16{fill:url(#SVGID_19_);}
	.st17{fill:url(#SVGID_20_);}
	.st18{opacity:0.8;fill:url(#SVGID_21_);}
	.st19{fill:url(#SVGID_22_);}
</style>

	<path d="m2270.4 290.03c10.85 41.52 37.76 83.97 155.13 83.97 6.54 0 13.4-0.13 20.38-0.39l2.12-0.08c2.77-0.11 6.14-0.26 9.81-0.26 18.87 0 22.93 4.12 23.1 4.3 0.23 0.25 0.68 1.82 0.47 4.84-2.56 36.77-90.4 70-148.93 80.88l-37.94 7 90.23 127.39 16.04-3.63c126.87-28.67 161.91-149.91 162.71-209.66 1.6-57.25-41.48-91.83-118.18-94.87-28.69-1.14-82.09-3.25-89.62-8.97-0.24-0.34-0.96-1.65-2.43-6.48-20.56-67.86 119.5-128.1 120.9-128.68l22.72-9.38-55.68-136.01-25.56 19.42c-7.38 5.6-180.26 138.74-145.76 268.73l0.49 1.88z"/>
	<path d="m2134.5 691.96c41.6 0 96.57 7.1 145.17 21.18 16.93-17.34 36.64-37.55 50.79-52.08-80.53-61.97-202.08-99.96-318.23-99.96-226.57 0-372.85 118.88-372.85 260.97 0 177.8 176.23 260.97 309.44 260.97 113.96 0 229.96-27.98 318.75-73.43l-14.89-94.58c-61.51 25.4-130.79 42.82-180.61 42.82-63.9 0-137.92-39.71-137.92-125 0.01-68.15 91.68-140.89 200.35-140.89z"/>
	<path d="m3096 540.75h-212.35l-11.38 41.84c-65.56-18.97-135.81-29.2-200.09-29.2-226.56 0-360.64 149.05-360.64 311.4 0 133.08 112.98 226.9 246.2 226.9 87.34 0 155.7-15.97 211.59-65.21 0.58-0.51 1.22-0.98 1.81-1.49 11.9 25.07 40 59.81 110.64 59.05 77.66-0.83 107.63-23.86 110.65-31.59l26.69-98.16h-35.58l112.46-413.54zm-260.89 174.56-48.91 183.8c-9.71 35.7-95.21 69.78-166.41 47.15-35.6-11.31-48.74-38.09-52.98-62.05-3.83-21.63-0.15-43.89 9.14-63.8 6.19-13.27 16.29-34.89 32.13-68.73 38.33-81.9 240.6-86.25 227.03-36.37z"/>
	<path d="m3791.4 619.27c-91.66-124.18-346.28-42.85-387.55-28.63l13.57-49.89h-212.35l-147.74 543.29h212.35l100.87-370.94c24.49-9.46 98.32-35.95 157.36-35.95 0 0 120.04-9.7 111.79 112.45-3.33 49.24-19.46 105.96-45.91 171.01l-57.4 123.43h195.13c175.26-311.15 90.76-422.94 59.88-464.77z"/>
	<path d="m1420.1 464.18c-312.73-82.64-575.74 223.54-841.9 619.87h443.59c86.5-161.02 241.41-425.19 371.17-404.56 62.58 9.95 75.52 189.28-11.82 404.56h136.34c135.74-442.57 43.5-582.64-97.38-619.87z"/>
	<ellipse cx="1265.5" cy="955.87" rx="133.55" ry="28.36"/>
	<path d="m1697.5 579.01c32.15-23.53 68.56-42.62 108.41-57.21-39.72-43.73-97.03-71.18-160.75-71.18-27.17 0-53.15 5.03-77.12 14.15 17.35 17.29 32.34 37.09 44.79 59.49 15.97 28.72 27.58 61.57 34.91 98.61 14.77-15.64 31.31-30.36 49.76-43.86z"/>
	<path d="m2711.7 508.04c0.01 0 0.01 0 0 0 48.88 0 95.14-21.89 123.77-58.55 1.48-1.89 2.89-3.82 4.25-5.77l-1.02 31.32 87.18 10.25 12.1-102.94c21.12 11.55 45.09 19.17 70.32 22.14 7.85 0.92 15.8 1.39 23.62 1.39 0.01 0 0 0 0 0 53.67 0 100.18-20.89 128.22-54.19l23.05 109.53 214.06-83.43-3.03 68.38 80.9 8.55 16.36-119.82c23.09 12.82 49.8 21.35 78.23 24.74 8.83 1.06 17.8 1.59 26.64 1.59 4.34 0 8.71-0.13 13.05-0.38 10.81 4.61 18.34 11.55 22.95 21.09 11.44 23.67 3.3 59.09-0.78 70.66l-9.63 26.81 99.3 20.2 4.18-25.21c10.81-65.16-4.98-113.35-23.8-142.88 29.37-19.73 47.66-47.48 51.45-79.19 8.38-70.24-60.24-136.39-152.97-147.45-8.89-1.06-17.87-1.6-26.71-1.6-19.85 0-39.07 2.65-56.97 7.78l-106.73-14.04-7.25 163.58-152.44 82.1-9.36-44.48 116.42-40.11-29.24-84.89-105.82 36.46-9.17-43.59 139.22-32.66-20.98-118.33-220.79 99.61 10.43 49.57c-22.95-14.72-50.54-24.88-80.83-28.44-7.8-0.92-15.7-1.38-23.47-1.38-18.83 0-37.13 2.66-54.3 7.81l-112.16-13.19-4.5 138.48-30.86-123.33-87.1 21.79 44.67 178.57c4.84 19.33 1.89 36.6-8.53 49.95-11.35 14.55-30.84 23.58-50.86 23.59-13.15 0-44.82-4.37-54.96-44.92l-54.01-215.87-87.1 21.79 54.01 215.88c17.45 69.71 71.47 113.03 140.99 113.03zm797.59-303.64 10.27-6.29c14.28-8.74 34.32-13.75 54.98-13.75 5.29 0 10.66 0.32 15.97 0.95 23.49 2.8 45.77 11.81 61.12 24.72 12.45 10.47 18.91 22.24 17.7 32.3-2.18 18.27-32.46 37.82-74.07 37.82-5.29 0-10.66-0.32-15.96-0.95-26.21-3.13-50.86-14.02-65.95-29.14l-9.06-9.08 5-36.58zm-554.36 33.79 7.92-5.41c14.09-9.63 33.73-15.16 53.87-15.16 4.47 0 8.99 0.27 13.46 0.79 22.16 2.61 43.15 11.71 57.58 24.99 12.28 11.29 18.53 24.51 17.15 36.26-2.79 23.73-35.73 43.04-73.43 43.04-4.47 0-8.99-0.27-13.46-0.79-24.74-2.91-47.98-13.97-62.16-29.59l-6.45-7.1 5.52-47.03z"/>
	<path d="m657.7 657.26c0.1-0.26 0.04-0.3 0.11-0.52 49.03-122.74 24.02-268.19-75.28-367.67-133.09-133.34-349.06-133.54-482.4-0.45-133.33 133.08-133.54 349.06-0.45 482.39 99.29 99.47 244.69 124.76 367.51 75.97 0.23-0.07 0.28-0.01 0.55-0.11 110.05-40.21 201.82 12.23 201.82 12.23s-52.28-91.86-11.86-201.84z"/>
	<ellipse transform="matrix(.9239 -.3827 .3827 .9239 -57.518 314.83)" cx="762.63" cy="302" rx="63.55" ry="63.55"/>
	<path d="m523.18 147.52c31.78 14.9 82-25.19 96.9-56.97s1.22-69.62-30.56-84.52-69.62-1.22-84.52 30.56-13.6 96.03 18.18 110.93z"/>
	<path d="m648.3 219.94c39.81-17.1 121.12-53.76 139.42-75.36 24.46-28.88 20.88-72.12-7.99-96.58-28.88-24.46-72.12-20.88-96.58 7.99-18.3 21.6-41.09 107.83-51.41 149.91-2.4 9.73 7.35 17.99 16.56 14.04z"/>

</svg>
