<?xml version="1.0" encoding="UTF-8"?>
<svg enable-background="new 0 0 3839 1706.2" version="1.1" viewBox="0 0 3839 1706.2" xml:space="preserve" xmlns="http://www.w3.org/2000/svg">
<style type="text/css">
	.st0{fill:#FF0000;}
	.st1{fill:#FFFFFF;}
</style>

	
		<path d="m3816.3 1474.6-65.98-102.53c49.31-53.05 76.29-124.26 76.3-198.87 0.03-155.23-116.32-295.97-308.62-288.47v0.16h-203.88c-78.74 0-142.57 63.83-142.57 142.57v524.22c0 78.74 63.83 142.57 142.57 142.57s142.57-63.83 142.57-142.57v-91.1h11.52l108.31 168.32c42.61 66.21 130.83 85.35 197.04 42.74s85.34-130.83 42.74-197.04zm-298.3-345v-0.17c29.82 0 36.53 30.81 36.53 43.7 0.01 12.89-6.71 43.7-36.53 43.7v-0.96h-61.31v-86.27h61.31z"/>
	
	
		<path d="m3070.3 485.18v191.31c0 78.74 63.83 142.57 142.57 142.57s142.57-63.83 142.57-142.57v-191.31l197.51-243.55c49.6-61.16 40.23-150.93-20.93-200.53s-150.93-40.23-200.53 20.93l-118.62 146.26-118.61-146.25c-49.6-61.16-139.38-70.53-200.53-20.93-61.16 49.6-70.53 139.37-20.93 200.53l197.5 243.54z"/>
	
	
		<path d="m2012.7 816.72c78.67 14.35 153.48-38.63 166.35-117.21l20.69-126.36 77.07 166.43c22.44 48.45 70.98 79.47 124.38 79.47 53.41 0 101.94-31.01 124.38-79.47l77.08-166.43 20.69 126.36c12.87 78.58 87.69 131.57 166.36 117.2 77.22-14.09 126.95-90.47 114.27-167.93l-83.83-511.95c-12.06-73.64-75.55-127.8-150.17-128.1-59.75-0.24-114.16 34.37-139.26 88.59l-129.51 279.66-129.5-279.65c-25.11-54.23-79.52-88.84-139.28-88.6-74.63 0.3-138.13 54.47-150.19 128.12l-83.8 511.92c-12.69 77.48 37.04 153.86 114.27 167.95z"/>
	
	
		<path d="m1428.2 831.43c289.08 5.65 449.5-199.57 449.51-415.65 0.01-216.09-160.41-421.31-449.51-415.67-289.08-5.65-449.5 199.57-449.51 415.65 0.01 216.09 160.41 421.31 449.51 415.67zm0-586.65c98.47 0 178.29 76.56 178.29 171s-79.83 171-178.29 171c-98.47 0-178.29-76.56-178.29-171s79.83-171 178.29-171z"/>
	
	
		<path d="m2670.3 853.56c-289.08-5.65-449.5 199.57-449.51 415.65 0 216.09 160.41 421.31 449.51 415.67 289.08 5.65 449.5-199.57 449.51-415.65 0-216.09-160.42-421.31-449.51-415.67zm0 586.66c-98.47 0-178.29-76.56-178.29-171s79.83-171 178.29-171c98.47 0 178.29 76.56 178.29 171s-79.83 171-178.29 171z"/>
	
	
		<path d="m413.96 254h104.67v422.49c0 78.74 63.83 142.57 142.57 142.57s142.57-63.83 142.57-142.57v-422.49h91.32c67.59 0 122.38-54.79 122.38-122.38s-54.79-122.37-122.38-122.37h-481.13c-67.59 0-122.37 54.79-122.37 122.38s54.79 122.37 122.37 122.37z"/>
	
	
		<path d="m603.5 884.44h-481.12c-67.59 0-122.38 54.79-122.38 122.37s54.79 122.37 122.38 122.37h104.67v422.49c0 78.74 63.83 142.57 142.57 142.57s142.57-63.83 142.57-142.57v-422.49h91.32c67.59 0 122.38-54.79 122.38-122.37s-54.8-122.37-122.39-122.37z"/>
	
	
		<path d="m2259.4 1006.8c0-67.59-54.79-122.38-122.38-122.38h-481.12c-67.59 0-122.38 54.79-122.38 122.38s54.79 122.37 122.38 122.37h104.67v422.49c0 78.74 63.83 142.57 142.57 142.57s142.57-63.83 142.57-142.57v-422.49h91.32c67.58 0 122.37-54.78 122.37-122.37z"/>
	
	
		<path d="m1360 891.61c-78.74 0-142.57 63.83-142.57 142.57v323.72h0.01c0 21.07-4.2 40.3-12.26 56.53-30.89 62.18-116.95 62.59-147.13 0.07-7.69-15.93-11.69-35.01-11.69-56.59v-323.72c0-78.74-63.83-142.57-142.57-142.57s-142.57 63.83-142.57 142.57v323.72h0.01c8.29 247.11 197.21 348.31 370.67 348.31s362.37-101.2 370.67-348.31v-323.72c-0.01-78.75-63.84-142.58-142.57-142.58z"/>
	

</svg>
