<?xml version="1.0" encoding="UTF-8"?>
<svg enable-background="new 0 0 3840 1650.9" version="1.1" viewBox="0 0 3840 1650.9" xml:space="preserve" xmlns="http://www.w3.org/2000/svg">
<style type="text/css">
	.st0{fill:#887EC9;}
	.st1{fill:#6B4284;}
	.st2{fill:#FFFFFF;}
</style>

	<rect x="3414.2" y="699.1" width="124" height="437.2"/>
	<rect x="1323.5" y="699.1" width="124" height="437.2"/>
	<rect x="1110.1" y="699.1" width="124" height="437.2"/>
	<rect x="189.7" y="699.1" width="124" height="437.2"/>
	
		<rect transform="matrix(-1.837e-16 1 -1 -1.837e-16 4375.3 -2879)" x="3578.1" y="535.3" width="98.1" height="425.8"/>
	
		<rect transform="matrix(-1.837e-16 1 -1 -1.837e-16 4501 -2665.6)" x="3534.3" y="748.6" width="98.1" height="338.1"/>
	
		<rect transform="matrix(-1.837e-16 1 -1 -1.837e-16 4714.4 -2539.8)" x="3578.1" y="874.4" width="98.1" height="425.8"/>
	
		<rect transform="matrix(-1.837e-16 1 -1 -1.837e-16 2272.5 -776.2)" x="1475.3" y="547.4" width="98.1" height="401.6"/>
	
		<rect transform="matrix(-1.837e-16 1 -1 -1.837e-16 2422.7 -587.28)" x="1455.9" y="736.3" width="98.1" height="362.9"/>
	<path d="m1855.2 699.1c-50.4 0-91.2 40.8-91.2 91.2v254.8c0 50.4 40.8 91.2 91.2 91.2h335.3c50.4 0 91.2-40.8 91.2-91.2v-254.8c0-50.4-40.8-91.2-91.2-91.2h-335.3zm302.5 339.1h-269.7v-241h269.7v241z"/>
	<path d="m2864.9 790.3v254.8c0 50.4 40.8 91.2 91.2 91.2h321c50.4 0 91.2-40.8 91.2-91.2v-78.3h-131.3v71.5h-248.1v-241.1h248.1v71.5h131.3v-78.3c0-50.4-40.8-91.2-91.2-91.2h-321c-50.4-0.1-91.2 40.7-91.2 91.1z"/>
	<rect transform="matrix(-1.837e-16 1 -1 -1.837e-16 999.84 496.43)" x="202.7" y="496.4" width="98.1" height="503.4"/>
	<path d="m1182.5 1252.4c0 10.7-8.6 19.3-19.4 19.3-10.7 0-19.4-8.7-19.4-19.3 0-10.8 8.7-19.4 19.4-19.4s19.4 8.6 19.4 19.4z"/>
	<path d="m2208.2 1252.4c0 10.7-8.7 19.3-19.4 19.3s-19.4-8.7-19.4-19.3c0-10.8 8.7-19.4 19.4-19.4s19.4 8.6 19.4 19.4z"/>
	<rect x="103.6" y="1193.9" width="40.6" height="23.4"/>
	<path d="m303.7 1222v88.8h30v-93.5h64.1v93.5h30v-88.8c0-15.5-12.6-28.1-28.1-28.1h-67.9c-15.5 0-28.1 12.6-28.1 28.1z"/>
	<rect x="303.7" y="1240.6" width="124" height="23.4"/>
	
		<path d="m1938 1222v88.8h30v-93.5h64.1v93.5h30v-88.8c0-15.5-12.6-28.1-28.1-28.1h-67.9c-15.5 0-28.1 12.6-28.1 28.1z"/>
		<rect x="1938" y="1240.6" width="124" height="23.4"/>
	
	
		<rect x="498.9" y="1193.9" width="30" height="116.9"/>
		<rect x="622.9" y="1193.9" width="30" height="116.9"/>
	
	<path d="m836.6 1217.3v-23.4h-96c-15.5 0-28.1 12.6-28.1 28.1v60.7c0 15.5 12.6 28.1 28.1 28.1h96v-23.4h-94.1v-70.1h94.1z"/>
	<path d="m903.9 1222v60.7c0 15.5 12.6 28.1 28.1 28.1h67.9c15.5 0 28.1-12.6 28.1-28.1v-60.7c0-15.5-12.6-28.1-28.1-28.1h-67.9c-15.6 0-28.1 12.6-28.1 28.1zm94 65.4h-64.1v-70.1h64.1v70.1z"/>
	
		<rect x="1533.3" y="1240.6" width="94.1" height="23.4"/>
		<path d="m1652.4 1217.3v-23.4h-96c-15.5 0-28.1 12.6-28.1 28.1v60.7c0 15.5 12.6 28.1 28.1 28.1h96v-23.4h-94.1v-70.1h94.1z"/>
	
	
		<rect x="1786.5" y="1240.6" width="70.7" height="23.4"/>
		<path d="m1763.2 1217.3h94.1v-23.4h-96c-15.5 0-28.1 12.6-28.1 28.1v60.7c0 15.5 12.6 28.1 28.1 28.1h67.9c15.5 0 28.1-12.6 28.1-28.1v-42.1h-30v46.8h-64.1v-70.1z"/>
	
	
		<rect x="103.6" y="1193.9" width="30" height="116.9"/>
		<rect x="197.7" y="1193.9" width="30" height="116.9"/>
		<polygon points="144.4 1193.9 139.2 1193.9 123.5 1204.9 197.7 1310.8 220.3 1310.8 224.3 1308"/>
	
	<path d="m3612.7 1222v60.7c0 15.5 12.6 28.1 28.1 28.1h67.9c15.5 0 28.1-12.6 28.1-28.1v-60.7c0-15.5-12.6-28.1-28.1-28.1h-67.9c-15.5 0-28.1 12.6-28.1 28.1zm94.1 65.4h-64.1v-70.1h64.1v70.1z"/>
	<path d="m3414.2 1193.9v116.9h96c15.5 0 28.1-12.6 28.1-28.1v-60.7c0-15.5-12.6-28.1-28.1-28.1h-96zm94.1 93.5h-64.1v-70.1h64.1v70.1z"/>
	
		<rect x="3041" y="1240.6" width="94.1" height="23.4"/>
		<path d="m3165 1217.3v-23.4h-96c-15.5 0-28.1 12.6-28.1 28.1v60.7c0 15.5 12.6 28.1 28.1 28.1h96v-23.4h-94v-70.1h94z"/>
	
	
		<rect x="2333.6" y="1193.9" width="40.6" height="23.4"/>
		
			<rect x="2333.6" y="1193.9" width="30" height="116.9"/>
			<rect x="2427.7" y="1193.9" width="30" height="116.9"/>
			<polygon points="2374.4 1193.9 2369.2 1193.9 2353.5 1204.9 2427.7 1310.8 2450.3 1310.8 2454.3 1308"/>
		
	
	
		
			<rect x="2539.4" y="1193.9" width="30" height="116.9"/>
		
	
	
		
			<rect x="2891.9" y="1193.9" width="30" height="116.9"/>
		
	
	
		<rect x="3215.8" y="1193.9" width="40.6" height="23.4"/>
		
			<rect x="3215.8" y="1193.9" width="30" height="116.9"/>
			<rect x="3309.8" y="1193.9" width="30" height="116.9"/>
			<polygon points="3256.5 1193.9 3251.3 1193.9 3235.6 1204.9 3309.8 1310.8 3332.4 1310.8 3336.4 1308"/>
		
	
	
		<rect x="2653.7" y="1193.9" width="40.6" height="23.4"/>
		
			<rect x="2653.7" y="1193.9" width="30" height="116.9"/>
			<rect x="2747.7" y="1193.9" width="30" height="116.9"/>
			<polygon points="2694.4 1193.9 2689.2 1193.9 2673.5 1204.9 2747.7 1310.8 2770.3 1310.8 2774.3 1308"/>
		
	
	<polygon points="605.7 1193.9 575.9 1280.6 546 1193.9 521.3 1193.9 561.6 1310.8 590.2 1310.8 630.5 1193.9"/>
	<rect x="2844.9" y="1193.9" width="124" height="23.4"/>
	
		<polygon points="1938 184 1938 184 1938 184 1938 184 2203.9 651.2 2308.6 651.2 1938 0 1567.4 651.2 1672.1 651.2"/>
		<polygon points="2877.4 1650.9 2711.1 1358.6 2606.4 1358.6 2720.9 1559.9 1155.1 1559.9 1269.6 1358.6 1164.9 1358.6 998.6 1650.9"/>
	
	<path d="m1447.6 1217.3v-23.4h-96c-15.5 0-28.1 12.6-28.1 28.1v14c0 15.5 12.6 28.1 28.1 28.1h66v23.4h-94.1v23.4h96c15.5 0 28.1-12.6 28.1-28.1v-14c0-15.5-12.6-28.1-28.1-28.1h-66v-23.4h94.1z"/>
	<path d="m732.8 881.4v85.9l202 169.1h152.8l-187.4-157h36.5c50.4 0 91.2-40.8 91.2-91.2v-97.9c0-50.4-40.8-91.2-91.2-91.2h-389v437.2h124v-339.1h231.6v84.2h-170.5z"/>
	<path d="m2518.7 881.4v85.9l202 169.1h152.8l-187.4-156.9h36.5c50.4 0 91.2-40.8 91.2-91.2v-97.9c0-50.4-40.8-91.2-91.2-91.2h-388.9v437.2h124v-339.2h231.6v84.2h-170.6z"/>

</svg>
