<?xml version="1.0" encoding="UTF-8"?>
<svg enable-background="new 0 0 3839 1400.5" version="1.1" viewBox="0 0 3839 1400.5" xml:space="preserve" xmlns="http://www.w3.org/2000/svg">
<style type="text/css">
	.st0{fill:#020202;}
	.st1{fill:#FFFFFF;}
	.st2{clip-path:url(#SVGID_00000109010147951214303650000006574226974013202057_);}
	.st3{fill:#243787;}
	.st4{fill:#231F20;}
	.st5{fill:#F17100;}
	.st6{fill:#E50069;}
	.st7{fill:#FCEC01;}
	.st8{fill:#00771F;}
	.st9{fill:#89BC27;}
	.st10{clip-path:url(#SVGID_00000178176005822663667410000005347748237699062164_);}
	.st11{clip-path:url(#SVGID_00000178207143902254304670000017068346350001825196_);}
	.st12{fill:#EA1E04;}
	.st13{clip-path:url(#SVGID_00000110456998035524970070000004406388718174919556_);}
	.st14{clip-path:url(#SVGID_00000024686108187864084440000008320724105690773684_);}
	.st15{clip-path:url(#SVGID_00000097463726322877194300000012771321741538087858_);}
	.st16{clip-path:url(#SVGID_00000135689465752039478980000004122194816706555013_);}
	.st17{clip-path:url(#SVGID_00000048487441388840720650000017753123508306491554_);}
	.st18{clip-path:url(#SVGID_00000086684731595912308650000014042532594519581112_);}
</style>

	
		
			
				<polygon class="st0" points="930.7 242 865.1 242 789.6 317.5 865.1 317.5 1009.2 317.5 1009.2 1200.6 1009.2 1391.6 1084.7 1316.1 1084.7 1190 1084.7 242"/>
				<path d="m1009.2 1400.5c-1.1 0-2.3-0.2-3.4-0.7-3.3-1.4-5.5-4.6-5.5-8.2v-1065.3h-210.7c-3.6 0-6.8-2.2-8.2-5.5s-0.6-7.1 1.9-9.6l75.5-75.5c1.7-1.7 3.9-2.6 6.2-2.6h219.5c4.9 0 8.8 4 8.8 8.8v1074.2c0 2.3-0.9 4.6-2.6 6.2l-75.5 75.5c-1.4 1.8-3.7 2.7-6 2.7zm-198.3-1091.8h198.2c4.9 0 8.8 4 8.8 8.8v1052.9l57.8-57.8v-1061.7h-206.9l-57.9 57.8z"/>
			
			
				<polygon class="st0" points="194.6 242 84.5 242 8.9 317.5 93.5 317.5 230 317.5 332.4 1174.8 374.7 821 305.5 242"/>
				<path d="m332.4 1183.7c-4.5 0-8.2-3.3-8.8-7.8l-101.4-849.6h-213.3c-3.6 0-6.8-2.2-8.2-5.5s-0.6-7.1 1.9-9.6l75.5-75.5c1.7-1.7 3.9-2.6 6.2-2.6h221.1c4.5 0 8.2 3.3 8.8 7.8l69.2 579c0.1 0.7 0.1 1.4 0 2.1l-42.3 353.8c-0.4 4.5-4.2 7.9-8.7 7.9zm-302.1-875h199.7c4.5 0 8.2 3.3 8.8 7.8l93.6 783.9 33.4-279.4-68.1-570.2h-209.6l-57.8 57.9z"/>
			
			
				<polygon class="st0" points="620.5 242 510.2 242 434.8 317.5 501.2 317.5 655.9 317.5 536.6 1316.1 536.6 1316.1 527.6 1391.6 603.1 1316.1 610.1 1257.7 610.1 1257.7 731.4 242"/>
				<path d="m527.6 1400.5c-1.3 0-2.6-0.3-3.9-0.9-3.4-1.6-5.4-5.3-4.9-9l127.1-1064.3h-211.1c-3.6 0-6.8-2.2-8.2-5.5s-0.6-7.1 1.9-9.6l75.5-75.5c1.7-1.7 3.9-2.6 6.2-2.6h221.1c2.5 0 4.9 1.1 6.6 3s2.5 4.4 2.2 6.9l-128.2 1074.2c-0.2 2-1.1 3.8-2.5 5.2l-75.5 75.5c-1.8 1.7-4 2.6-6.3 2.6zm-71.5-1091.8h199.7c2.5 0 4.9 1.1 6.6 3s2.5 4.4 2.2 6.9l-125.2 1048.7 55.3-55.3 126.8-1061.2h-207.6l-57.8 57.9z"/>
			
		
		
			<polygon class="st1" points="230 317.5 305.5 242 84.5 242 8.9 317.5"/>
			<path d="m230 326.3h-221.1c-3.6 0-6.8-2.2-8.2-5.5s-0.6-7.1 1.9-9.6l75.5-75.5c1.7-1.7 3.9-2.6 6.2-2.6h221.1c3.6 0 6.8 2.2 8.2 5.5s0.6 7.1-1.9 9.6l-75.5 75.5c-1.6 1.6-3.9 2.6-6.2 2.6zm-199.7-17.6h196.1l57.8-57.8h-196.1l-57.8 57.8z"/>
		
		
			<polygon class="st1" points="510.2 242 731.4 242 655.9 317.5 434.8 317.5"/>
			<path d="m655.9 326.3h-221.1c-3.6 0-6.8-2.2-8.2-5.5s-0.6-7.1 1.9-9.6l75.5-75.5c1.7-1.7 3.9-2.6 6.2-2.6h221.1c3.6 0 6.8 2.2 8.2 5.5s0.6 7.1-1.9 9.6l-75.5 75.5c-1.6 1.6-3.9 2.6-6.2 2.6zm-199.8-17.6h196.1l57.8-57.8h-196.1l-57.8 57.8z"/>
		
		
			<polygon class="st1" points="865.1 242 789.6 317.5 1009.2 317.5 1084.7 242"/>
			<path d="m789.6 326.3c-3.6 0-6.8-2.2-8.2-5.5s-0.6-7.1 1.9-9.6l75.5-75.5c1.7-1.7 3.9-2.6 6.2-2.6h219.5c3.6 0 6.8 2.2 8.2 5.5s0.6 7.1-1.9 9.6l-75.5 75.5c-1.7 1.7-3.9 2.6-6.2 2.6h-219.5zm79.2-75.5-57.8 57.8h194.5l57.8-57.8h-194.5z"/>
		
		
			
				<path class="st0" d="m2932.2 242h-220.9c-43.8 0-83.5 16.8-113.3 44.2h-0.1l-1.2 1.2c-2.6 2.4-5 4.9-7.4 7.4l-67.7 67.7c3.7-3.5 7.6-6.8 11.7-9.9 4-3.1 8.1-6 12.4-8.7 0.2-0.1 0.4-0.2 0.6-0.4 4.1-2.6 8.3-5 12.6-7.3 0.5-0.3 1.1-0.5 1.7-0.8 4-2 8.1-3.9 12.3-5.6 1.1-0.4 2.2-0.8 3.3-1.2 3.8-1.4 7.5-2.8 11.4-4 1.8-0.5 3.6-0.9 5.4-1.4 3.3-0.9 6.6-1.8 10-2.5 2.8-0.6 5.7-0.9 8.6-1.3 2.5-0.4 4.9-0.8 7.5-1.1 5.5-0.5 11.1-0.8 16.7-0.8h220.9c5.2 0 10.4 0.3 15.5 0.8 1.5 0.1 3 0.3 4.5 0.5 3.8 0.4 7.5 1 11.2 1.7 1.5 0.3 2.9 0.5 4.3 0.8 9.8 2.1 19.3 5.1 28.4 8.8 1.3 0.5 2.6 1.1 3.9 1.7 3.3 1.5 6.6 3.1 9.9 4.8 1.3 0.7 2.5 1.3 3.8 2 4.3 2.4 8.5 4.9 12.5 7.6 4.5 3 8.8 6.3 12.9 9.7 4.4 3.7 8.6 7.6 12.7 11.6 1.3 1.3 2.5 2.8 3.8 4.2 2.6 2.8 5.2 5.7 7.6 8.7 1.4 1.7 2.7 3.6 4 5.4 2.1 2.8 4.2 5.7 6.1 8.7 1.3 2 2.5 4 3.7 6.1 1.7 3 3.4 6 5 9 1.1 2.2 2.1 4.3 3.1 6.5 1.4 3.1 2.7 6.3 4 9.6 0.9 2.3 1.7 4.5 2.5 6.8 1.1 3.4 2.1 6.9 3 10.4 0.6 2.2 1.2 4.5 1.7 6.8 0.8 3.9 1.5 7.8 2 11.8 0.3 2 0.7 3.9 0.9 6 0.6 6 1 12 1 18.2v316.7c0 36.7-12 71.6-33.2 100.1l55.1-52.6v-0.1c33.7-31.4 53.6-75.7 53.6-122.9v-316.9c0-92.7-75.1-168-168-168z"/>
				<path d="m2991.7 911.1h-0.4c-2.4-0.1-4.7-1.2-6.3-3-2.7-3.1-3-7.8-0.5-11.1 20.6-27.7 31.4-60.5 31.4-94.9v-316.6c0-5.6-0.3-11.3-1-17.4-0.1-1.1-0.3-2.1-0.5-3.2l-0.4-2.5c-0.5-3.8-1.1-7.5-1.9-11.2-0.3-1.5-0.7-2.9-1.1-4.4l-0.5-2c-0.9-3.3-1.8-6.6-2.8-9.8-0.7-2.2-1.5-4.2-2.3-6.3-1.2-3.2-2.5-6.2-3.8-9.2-0.9-2.1-1.9-4.1-3-6.2-1.5-2.9-3.1-5.8-4.7-8.6-1.3-2.2-2.3-4-3.5-5.7-1.8-2.8-3.8-5.5-5.8-8.2l-1.2-1.6c-0.9-1.2-1.7-2.3-2.6-3.5-2.3-2.8-4.7-5.5-7.2-8.2l-1.6-1.7c-0.7-0.8-1.3-1.5-2-2.2-4.1-4.1-8-7.7-12-11-3.9-3.2-8-6.3-12.3-9.2-3.8-2.6-7.8-4.9-11.8-7.2l-2.6-1.4c-4-2.1-7.1-3.6-10.3-5l-3.7-1.6c-8.7-3.6-17.7-6.4-26.9-8.4l-3.1-0.6c-4.5-0.8-8-1.4-11.6-1.8l-4.2-0.5c-4.9-0.5-9.7-0.7-14.7-0.7h-220.9c-5.2 0-10.5 0.3-15.8 0.8-1.5 0.1-2.9 0.4-4.4 0.6l-5.1 0.8c-1.9 0.3-3.9 0.5-5.8 0.9-2.7 0.5-5.3 1.2-8 1.9l-3.8 1c-1 0.2-1.9 0.5-2.9 0.7-3.7 1.1-7.3 2.4-10.9 3.8l-3.1 1.1c-4 1.6-7.8 3.4-11.7 5.3-0.1 0-1 0.5-1.1 0.5-4.6 2.3-8.6 4.7-12.4 7.1-4.6 2.9-8.5 5.7-12.3 8.6l-0.1 0.1c-3.8 3-7.5 6.1-11.1 9.4-0.6 0.6-1.3 1.1-2.1 1.4-3.9 2-8.6 0.8-11.1-2.7s-2.1-8.3 0.9-11.4l67.7-67.7c2.3-2.5 5-5.1 7.6-7.6l1-1c0.4-0.4 0.8-0.7 1.2-1 32.6-29.5 74.6-45.8 118.5-45.8h220.9c97.6 0 176.9 79.4 176.9 176.9v316.5c0 48.5-20.3 95.3-55.6 128.7-0.2 0.3-0.5 0.6-0.7 0.8l-55.1 52.6c-1.3 1.7-3.5 2.6-5.8 2.6zm-355.9-602.4h220.9c5.5 0 10.9 0.3 16.3 0.8l4.7 0.5c4 0.5 7.9 1.1 11.8 1.8l4.6 0.9c10.2 2.2 20.3 5.3 29.9 9.3l4.1 1.8c3.6 1.6 7 3.2 10.4 5 1.9 1 3 1.5 4 2.1 4.5 2.5 8.9 5.1 13.1 8 4.7 3.2 9.3 6.6 13.6 10.2 4.5 3.7 8.8 7.7 13.3 12.3 0.9 0.9 1.8 1.9 2.7 2.9l1.3 1.5c2.8 3 5.5 6 8 9.2 1.1 1.4 2.1 2.7 3.1 4.1l1.1 1.5c2.2 3 4.4 6 6.4 9.1 1.3 1.9 2.5 4 3.7 6 2.1 3.5 3.8 6.6 5.5 9.9 1.2 2.3 2.3 4.5 3.3 6.9 1.5 3.3 2.9 6.7 4.2 10.1 0.9 2.4 1.8 4.8 2.6 7.2 1.2 3.6 2.2 7.2 3.2 10.9l0.5 1.9c0.5 1.7 0.9 3.5 1.3 5.2 0.9 4.1 1.5 8.2 2.1 12.4l0.3 2.1c0.2 1.4 0.5 2.8 0.6 4.2 0.7 6.7 1.1 13 1.1 19.1v316.7c0 19.5-3.2 38.6-9.3 56.8l15.6-14.9c0.3-0.3 0.5-0.6 0.9-0.9 32.3-30.1 50.8-72.5 50.8-116.5v-316.8c0-87.8-71.5-159.3-159.3-159.3h-220.9c-39.8 0-77.9 14.9-107.4 41.9-0.2 0.2-0.4 0.4-0.7 0.6l-0.3 0.3c-2.6 2.4-5 4.8-7.2 7.2l-17.5 17.5c2.3-0.8 4.6-1.6 6.9-2.3 1.2-0.4 2.5-0.7 3.8-1l3.4-0.9c3-0.8 6-1.6 9-2.2 2.3-0.5 4.5-0.8 6.8-1.1l4.7-0.7c1.8-0.3 3.6-0.6 5.4-0.8 5.9-0.2 11.8-0.5 17.6-0.5zm410.8 541h0.1-0.1z"/>
			
			
				<path class="st1" d="m3197.6 485.6v738c0 92.9 75.3 168 168 168h220.9c92.9 0 168-75.3 168-168v-738c0-92.9-75.3-168-168-168h-220.9c-92.7-0.1-168 75.1-168 168zm219.5 692.5v-647c0-21.9 17.8-39.7 39.7-39.7h38.6c21.9 0 39.7 17.8 39.7 39.7v647c0 21.9-17.8 39.7-39.7 39.7h-38.6c-21.9 0-39.7-17.8-39.7-39.7z"/>
				<path d="m3586.6 1400.5h-220.9c-97.6 0-176.9-79.4-176.9-176.9v-738c0-97.6 79.4-176.9 176.9-176.9h220.9c97.6 0 176.9 79.4 176.9 176.9v738c0 97.5-79.4 176.9-176.9 176.9zm-221-1074.2c-87.8 0-159.3 71.5-159.3 159.3v738c0 87.8 71.5 159.3 159.3 159.3h220.9c87.8 0 159.3-71.5 159.3-159.3v-738c0-87.8-71.5-159.3-159.3-159.3h-220.9zm129.8 900.3h-38.6c-26.8 0-48.5-21.8-48.5-48.5v-647c0-26.8 21.8-48.5 48.5-48.5h38.6c26.8 0 48.5 21.8 48.5 48.5v647c0.1 26.7-21.7 48.5-48.5 48.5zm-38.6-726.4c-17 0-30.9 13.8-30.9 30.9v647c0 17 13.8 30.9 30.9 30.9h38.6c17 0 30.9-13.8 30.9-30.9v-647c0-17-13.8-30.9-30.9-30.9h-38.6z"/>
			
			
				
					
						<path class="st0" d="m3699.1 1348.1 0.1 0.2 2.8-2.8c-0.9 0.9-1.9 1.7-2.9 2.6z"/>
					
					
						<path class="st0" d="m3830.2 410c0-92.9-75.3-168-168-168h-220.9c-44.3 0-84.4 17.2-114.4 45.2l-0.6 0.1-82.4 82.3 0.3 0.1c30.6-32.1 73.7-52.1 121.5-52.1h220.9c23.2 0 45.3 4.7 65.4 13.2 24.7 10.4 46.3 26.7 63.3 46.9 1.2 1.4 2.3 2.9 3.4 4.4 7.4 9.4 13.8 19.7 19.1 30.6 10.7 22.1 16.9 46.8 16.9 73.1v738c0 44.8-17.6 85.4-46.2 115.5l72.1-72.2 3.8-3.8v-0.1c28.3-30 45.8-70.5 45.8-115v-738.2z"/>
						<path d="m3708.5 1347.8c-2.2 0-4.4-0.8-6.2-2.5-3.5-3.4-3.6-8.9-0.3-12.4 28.2-29.8 43.8-68.6 43.8-109.4v-738c0-24-5.4-47.3-16-69.2-5-10.4-11.1-20.2-18.1-29l-1.1-1.4c-0.7-0.9-1.4-1.8-2.1-2.7-16.2-19.3-37-34.7-60-44.4-19.6-8.3-40.5-12.5-62-12.5h-220.9c-43.8 0-84.7 17.5-115.1 49.4-2.1 2.2-5.2 3.2-8.1 2.6-3.2-0.6-5.9-3-6.9-6.1-0.9-3.1-0.2-6.5 2.1-8.8l82.4-82.3c0.7-0.7 1.4-1.2 2.3-1.6 32.7-29.8 74.8-46.2 118.9-46.2h220.9c97.6 0 176.9 79.4 176.9 176.9v738c0 44.8-16.9 87.6-47.6 120.4-0.2 0.3-0.5 0.6-0.8 0.9l-76 76c-1.6 1.5-3.9 2.3-6.1 2.3zm-342.9-1039.1h220.9c23.9 0 47.1 4.7 68.9 13.9 25.6 10.8 48.6 27.9 66.6 49.3 0.9 1.1 1.7 2.2 2.6 3.3l1 1.3c7.7 9.8 14.5 20.7 20.1 32.2 11.8 24.4 17.8 50.2 17.8 76.9v738c0 19.9-3.3 39.3-9.7 57.7l23.6-23.5c0.2-0.2 0.4-0.5 0.6-0.7 28-29.6 43.4-68.3 43.4-109v-738.1c0-87.8-71.5-159.3-159.3-159.3h-220.9c-40.3 0-78.8 15.2-108.4 42.8-0.5 0.5-1.2 0.9-1.8 1.3l-23.5 23.5c18.5-6.3 38.1-9.6 58.1-9.6z"/>
					
				
				
					<path class="st0" d="m3456.8 491.4c-21.9 0-39.7 17.8-39.7 39.7v647c0 21.9 17.8 39.7 39.7 39.7h38.6c21.9 0 39.7-17.8 39.7-39.7v-35.8h-2.8c-21.9 0-39.7-17.8-39.7-39.7v-611.2h-35.8z"/>
				
			
			
				<path class="st0" d="m2726.9 491.4c-21.9 0-39.7 17.8-39.7 39.7v161.8l75.5-75.5v-126h-35.8z"/>
				<path d="m2687.3 701.6c-1.1 0-2.3-0.2-3.4-0.7-3.3-1.4-5.5-4.6-5.5-8.2v-161.6c0-26.8 21.8-48.5 48.5-48.5h35.8c4.9 0 8.8 4 8.8 8.8v126c0 2.3-0.9 4.6-2.6 6.2l-75.5 75.5c-1.6 1.6-3.8 2.5-6.1 2.5zm39.6-201.4c-17 0-30.9 13.8-30.9 30.9v140.5l57.8-57.8v-113.6h-26.9z"/>
			
			
				<path class="st0" d="m2762.7 1142.3v-95.3l-55.2 30.8c-12.6 7-20.3 20.3-20.3 34.7v105.3h337.5v173.9l75.5-75.5v-173.9h-337.5z"/>
				<path d="m3024.8 1400.5c-1.1 0-2.3-0.2-3.4-0.7-3.3-1.4-5.5-4.6-5.5-8.2v-165h-328.7c-4.9 0-8.8-4-8.8-8.8v-105.3c0-17.6 9.5-33.8 24.9-42.4l55.2-30.8c2.7-1.5 6.1-1.5 8.8 0.1s4.4 4.5 4.4 7.6v86.4h328.6c4.9 0 8.8 4 8.8 8.8v173.9c0 2.3-0.9 4.6-2.6 6.2l-75.5 75.5c-1.6 1.8-3.9 2.7-6.2 2.7zm-328.7-191.6h328.7c4.9 0 8.8 4 8.8 8.8v152.6l57.8-57.8v-161.5h-328.7c-4.9 0-8.8-4-8.8-8.8v-80.2l-42 23.5c-9.8 5.4-15.8 15.8-15.8 26.9v96.5z"/>
			
			
				<path class="st0" d="m2512.7 371.3-2.6 2.6 0.1 0.1c0.9-1 1.7-1.8 2.5-2.7z"/>
			
			
				<path class="st1" d="m3662.1 242h-221c-44.3 0-84.4 17.2-114.4 45.2l-0.6 0.1-82.4 82.3 0.3 0.1c30.6-32.1 73.7-52.1 121.5-52.1h220.9c23.2 0 45.3 4.7 65.4 13.2 18.3 7.7 34.9 18.7 49.2 32l75.5-75.5c-29.9-28-70.2-45.3-114.4-45.3z"/>
				<path d="m3244.2 378.4c-0.6 0-1.2-0.1-1.7-0.2-3.2-0.6-5.9-3-6.9-6.1-0.9-3.1-0.2-6.5 2.1-8.8l82.4-82.3c0.7-0.7 1.4-1.2 2.3-1.6 32.7-29.8 74.8-46.2 118.9-46.2h220.9c44.8 0 87.6 16.9 120.6 47.7 1.8 1.6 2.8 3.9 2.8 6.3s-0.9 4.7-2.6 6.4l-75.5 75.5c-3.4 3.4-8.8 3.4-12.3 0.2-13.8-12.9-29.5-23.1-46.6-30.4-19.6-8.3-40.5-12.5-62-12.5h-220.9c-43.8 0-84.7 17.5-115.1 49.4-1.7 1.6-4 2.6-6.4 2.6zm121.4-69.7h220.9c23.9 0 47.1 4.7 68.9 13.9 16.4 6.9 31.7 16.4 45.4 28l62.9-62.9c-28.6-23.9-64.4-36.9-101.7-36.9h-220.9c-40.3 0-78.8 15.2-108.4 42.8-0.5 0.5-1.2 0.9-1.8 1.3l-23.5 23.5c18.6-6.4 38.2-9.7 58.2-9.7z"/>
			
			
				<polygon class="st1" points="2687.3 1217.8 2762.7 1142.3 3100.2 1142.3 3024.8 1217.8"/>
				<path d="m3024.8 1226.6h-337.5c-3.6 0-6.8-2.2-8.2-5.5s-0.6-7.1 1.9-9.6l75.5-75.5c1.7-1.7 3.9-2.6 6.2-2.6h337.6c3.6 0 6.8 2.2 8.2 5.5s0.6 7.1-1.9 9.6l-75.5 75.5c-1.7 1.7-3.9 2.6-6.3 2.6zm-316.3-17.7h312.6l57.8-57.8h-312.6l-57.8 57.8z"/>
			
			
				<path class="st1" d="m2988.4 381.1 75.5-75.5c-30.8-38.8-78.3-63.7-131.6-63.7h-220.9c-43.8 0-83.5 16.8-113.3 44.2h-0.1l-1.2 1.2c-2.6 2.4-5 4.9-7.4 7.4l-67.7 67.7c30-27.9 70.1-45 114.3-45h220.9c34.8 0 67.2 10.6 94 28.7 4.5 3 8.8 6.3 12.9 9.7 9 7.5 17.3 16 24.6 25.3z"/>
				<path d="m2988.4 389.9h-0.5c-2.5-0.1-4.8-1.4-6.4-3.3-7-8.9-14.9-16.9-23.5-24-3.9-3.2-8-6.3-12.3-9.2-26.3-17.8-57.1-27.2-89.1-27.2h-220.9c-40.2 0-78.6 15.2-108.3 42.7-3.5 3.3-9 3.1-12.4-0.3-3.3-3.5-3.3-9 0.1-12.4l67.7-67.7c2.3-2.5 5-5.1 7.6-7.6l1-1c0.4-0.4 0.8-0.7 1.2-1 32.6-29.5 74.6-45.8 118.5-45.8h220.9c54.2 0 104.7 24.5 138.6 67.1 2.8 3.5 2.5 8.6-0.7 11.7l-75.5 75.5c-1.4 1.6-3.7 2.5-6 2.5zm-352.6-81.2h220.9c35.5 0 69.7 10.5 98.9 30.2 4.7 3.2 9.3 6.6 13.6 10.2 7 5.8 13.6 12.2 19.7 19.1l62.9-62.9c-30.3-34.7-73.5-54.4-119.7-54.4h-221c-39.8 0-77.9 14.9-107.4 41.9-0.2 0.2-0.4 0.4-0.7 0.6l-0.3 0.3c-2.6 2.4-5 4.8-7.2 7.2l-17.4 17.4c18.5-6.3 37.9-9.6 57.7-9.6z"/>
			
			
				<path class="st1" d="m2467.7 485.5v207.2h219.5v-161.6c0-21.9 17.8-39.7 39.7-39.7h38.6c21.9 0 39.7 17.8 39.7 39.7v260c0 14.4-7.8 27.6-20.3 34.7l-231 129.1c-53.2 29.7-86.2 85.9-86.2 146.8v290.2h557v-173.9h-337.5v-105.3c0-14.4 7.8-27.6 20.3-34.7l231-129.1c53.2-29.7 86.2-85.9 86.2-146.8v-316.6c0-92.9-75.3-168-168-168h-220.9c-92.8 0-168.1 75.2-168.1 168z"/>
				<path d="m3024.8 1400.5h-557c-4.9 0-8.8-4-8.8-8.8v-290.2c0-64.1 34.8-123.3 90.7-154.5l231-129.1c9.8-5.4 15.8-15.8 15.8-26.9v-260c0-17-13.8-30.9-30.9-30.9h-38.6c-17 0-30.9 13.8-30.9 30.9v161.8c0 4.9-4 8.8-8.8 8.8h-219.5c-4.9 0-8.8-4-8.8-8.8v-207.3c0-97.6 79.4-176.9 176.9-176.9h220.9c97.6 0 176.9 79.4 176.9 176.9v316.6c0 64.1-34.8 123.3-90.7 154.5l-231 129.1c-9.8 5.4-15.8 15.8-15.8 26.9v96.4h328.7c4.9 0 8.8 4 8.8 8.8v173.9c-0.1 4.8-4 8.8-8.9 8.8zm-548.3-17.7h539.4v-156.3h-328.7c-4.9 0-8.8-4-8.8-8.8v-105.3c0-17.6 9.5-33.8 24.9-42.4l231-129.1c50.3-28.1 81.6-81.4 81.6-139.1v-316.3c0-87.8-71.5-159.3-159.3-159.3h-220.9c-87.8 0-159.3 71.5-159.3 159.3v198.4h201.8v-152.9c0-26.8 21.8-48.5 48.5-48.5h38.6c26.8 0 48.5 21.8 48.5 48.5v260c0 17.6-9.5 33.8-24.9 42.4l-231 129.1c-50.3 28.1-81.6 81.4-81.6 139.1v281.3l0.2-0.1z"/>
			
			
				<path class="st0" d="m2656.9 897.2 128.1-71.5c1.6-0.9 3.1-1.8 4.5-2.9 9.9-7.4 15.9-19.2 15.9-31.7v-10l-175.9 98.3c-11.6 6.5-22.2 14.3-31.8 23l-1.3 1.3c-2.7 2.6-5.4 5.2-8 8l-66.8 66.7h0.1c9.7-9 20.4-16.9 32.2-23.5l103-57.7z"/>
				<path d="m2521.6 987c-0.7 0-1.4-0.1-2-0.2-3.1-0.7-5.6-3.1-6.5-6.2s-0.1-6.4 2.2-8.7l66.8-66.7c2.5-2.7 5.3-5.4 8.2-8.2l1.1-1.1c0.2-0.2 0.5-0.4 0.7-0.6 10.1-9.2 21.2-17.3 33-23.8l175.9-98.3c2.7-1.5 6.1-1.5 8.8 0.1s4.4 4.5 4.4 7.6v10c0 15.2-7.3 29.7-19.4 38.8-1.7 1.3-3.5 2.5-5.5 3.6l-231.1 129.1c-10.8 6-21.1 13.5-30.5 22.3-1.7 1.5-3.9 2.3-6.1 2.3zm81.8-78.1-0.9 0.9c-2.8 2.6-5.3 5.1-7.7 7.7l-9.6 9.6 195.4-109.2c1.2-0.7 2.4-1.4 3.5-2.3 6.3-4.7 10.5-11.7 11.9-19.4l-162.3 90.7c-10.8 6-20.9 13.3-30.1 21.8l-0.2 0.2zm53.5-11.7z"/>
			
		
		
			
				<path class="st0" d="m1668.3 1348.1 0.1 0.2 2.8-2.8c-0.9 0.9-1.9 1.7-2.9 2.6z"/>
			
		
		<rect class="st1" x="789.6" y="317.5" width="219.5" height="1074.2"/>
		
			<path d="m1009.2 1400.5h-219.6c-4.9 0-8.8-4-8.8-8.8v-1074.2c0-4.9 4-8.8 8.8-8.8h219.5c4.9 0 8.8 4 8.8 8.8v1074.2c0.1 4.8-3.8 8.8-8.7 8.8zm-210.8-17.7h201.8v-1056.5h-201.8v1056.5z"/>
		
		<polygon class="st1" points="434.8 317.5 332.4 1174.8 230 317.5 8.9 317.5 137.1 1391.6 306.5 1391.6 358.3 1391.6 527.6 1391.6 655.9 317.5"/>
		
			<path d="m527.6 1400.5h-390.5c-4.5 0-8.2-3.3-8.8-7.8l-128.1-1074.1c-0.3-2.5 0.5-5 2.2-6.9s4.1-3 6.6-3h221c4.5 0 8.2 3.3 8.8 7.8l93.6 783.9 93.6-783.9c0.5-4.4 4.3-7.8 8.8-7.8h221.1c2.5 0 4.9 1.1 6.6 3s2.5 4.4 2.2 6.9l-128.3 1074.1c-0.6 4.4-4.3 7.8-8.8 7.8zm-382.6-17.7h374.7l126.2-1056.5h-203.3l-101.5 849.5c-0.5 4.4-4.3 7.8-8.8 7.8s-8.2-3.3-8.8-7.8l-101.3-849.5h-203.3l126.1 1056.5z"/>
		
		<path class="st1" d="m1838.8 1077.1c-41.5 23.3-89.2 36.6-140.1 36.6-158.4 0-287.2-128.9-287.2-287.2s128.9-287.2 287.2-287.2c50.9 0 98.6 13.3 140.1 36.6v-272.6c-44.7-11.9-91.6-18.4-140.1-18.4-299.1 0-541.6 242.5-541.6 541.6s242.5 541.6 541.6 541.6c48.5 0 95.4-6.5 140.1-18.4v-272.6z"/>
		
			<path d="m1698.8 1377c-303.5 0-550.5-246.9-550.5-550.5s246.9-550.5 550.5-550.5c48 0 95.9 6.3 142.4 18.7 3.9 1 6.6 4.5 6.6 8.5v272.7c0 3.1-1.7 6-4.4 7.6s-6.1 1.6-8.8 0.1c-41.4-23.2-88.3-35.5-135.8-35.5-153.5 0-278.3 124.9-278.3 278.3s124.9 278.3 278.3 278.3c47.5 0 94.4-12.3 135.8-35.5 2.7-1.5 6.1-1.5 8.8 0.1s4.4 4.5 4.4 7.6v272.7c0 4-2.7 7.5-6.6 8.5-46.6 12.6-94.5 18.9-142.4 18.9zm0-1083.2c-293.8 0-532.8 239-532.8 532.8s239 532.8 532.8 532.8c44.2 0 88.4-5.5 131.3-16.4v-251.2c-40.7 20.2-85.7 30.8-131.3 30.8-163.2 0-296-132.8-296-296s132.8-296 296-296c45.5 0 90.6 10.6 131.3 30.8v-251.2c-43-10.9-87.2-16.4-131.3-16.4z"/>
		
		
			
				<path class="st0" d="m1483.7 754.4c0-60.8 19-117.2 51.4-163.6-74.6 51.9-123.5 138.3-123.5 235.7 0 158.4 128.9 287.2 287.2 287.2 50.9 0 98.6-13.3 140.1-36.6v272.8l72.1-72.1v-272.8c-41.5 23.3-89.3 36.6-140.1 36.6-158.4 0-287.2-128.8-287.2-287.2z"/>
				<path d="m1838.8 1358.6c-1.1 0-2.3-0.2-3.4-0.7-3.3-1.4-5.5-4.6-5.5-8.2v-258c-40.7 20.2-85.8 30.8-131.3 30.8-163.2 0-296-132.8-296-296 0-96.7 47.6-187.5 127.3-243 3.5-2.4 8.3-2 11.3 1s3.4 7.8 1 11.3c-32.6 46.8-49.8 101.7-49.8 158.7 0 153.5 124.9 278.3 278.3 278.3 47.5 0 94.4-12.3 135.8-35.5 2.7-1.5 6.1-1.5 8.8 0.1s4.4 4.5 4.4 7.6v272.7c0 2.3-0.9 4.6-2.6 6.2l-72.1 72.1c-1.6 1.7-3.9 2.6-6.2 2.6zm0-290.3c1.5 0 3.1 0.4 4.5 1.2 2.7 1.6 4.4 4.5 4.4 7.6v251.4l54.5-54.5v-254.4c-40.7 20.2-85.7 30.8-131.3 30.8-163.2 0-296-132.8-296-296 0-43.7 9.5-86.2 27.8-125.2-52.2 51.9-82.3 122.8-82.3 197.2 0 153.5 124.9 278.3 278.3 278.3 47.5 0 94.4-12.3 135.8-35.5 1.3-0.6 2.8-0.9 4.3-0.9z"/>
			
			
				<path class="st0" d="m1770.8 212.8c-167.9 0-318 76.5-417.4 196.4 93.8-77.7 214-124.3 345.3-124.3 48.5 0 95.4 6.5 140.1 18.4v272.7l72.1-72.1v-272.7c-44.7-11.9-91.6-18.4-140.1-18.4z"/>
				<path d="m1838.8 584.9c-1.1 0-2.3-0.2-3.4-0.7-3.3-1.4-5.5-4.6-5.5-8.2v-265.9c-42.9-10.9-87-16.4-131.3-16.4-123.8 0-244.4 43.4-339.6 122.3-3.5 2.9-8.7 2.7-11.9-0.6-3.2-3.2-3.5-8.4-0.6-11.9 105.1-126.9 259.6-199.6 424.2-199.6 48 0 95.9 6.3 142.4 18.7 3.9 1 6.6 4.5 6.6 8.5v272.7c0 2.3-0.9 4.6-2.6 6.2l-72.1 72c-1.6 2-3.9 2.9-6.2 2.9zm-140-308.8c48 0 95.9 6.3 142.4 18.7 3.9 1 6.6 4.5 6.6 8.5v251.4l54.5-54.5v-262.2c-42.9-10.9-87-16.4-131.3-16.4-128 0-249.8 45.5-345.5 127.2 82.6-47.3 177-72.7 273.3-72.7z"/>
			
		
		
			<path class="st1" d="m1838.8 303.3 72.1-72.1c-44.7-11.9-91.6-18.4-140.1-18.4-167.9 0-318 76.5-417.4 196.4 93.8-77.7 214-124.3 345.3-124.3 48.5 0 95.4 6.5 140.1 18.4z"/>
			<path d="m1353.6 418c-2.3 0-4.5-0.9-6.3-2.6-3.2-3.2-3.5-8.4-0.6-11.9 105.1-126.9 259.6-199.6 424.2-199.6 48 0 95.9 6.3 142.4 18.7 3.1 0.8 5.4 3.2 6.3 6.2 0.8 3.1-0.1 6.3-2.3 8.5l-72.1 72.1c-2.2 2.2-5.5 3.1-8.5 2.3-45-12-91.3-18.1-137.8-18.1-123.8 0-244.4 43.4-339.6 122.3-1.8 1.4-3.8 2.1-5.7 2.1zm417.2-196.4c-128 0-249.8 45.5-345.5 127.2 82.8-47.3 177.1-72.7 273.3-72.7 46.3 0 92.5 5.9 137.4 17.4l57.5-57.5c-40.1-9.5-81.3-14.4-122.7-14.4z"/>
		
		
			<path class="st0" d="m1838.8 1077.1 72.1-72.1c-41.5 23.3-89.3 36.6-140.1 36.6-158.4 0-287.2-128.9-287.2-287.2 0-60.8 19-117.2 51.4-163.6-74.6 51.9-123.5 138.3-123.5 235.7 0 158.4 128.9 287.2 287.2 287.2 50.9 0 98.6-13.3 140.1-36.6z"/>
			<path d="m1698.8 1122.6c-163.2 0-296-132.8-296-296 0-96.7 47.6-187.5 127.3-243 3.5-2.4 8.3-2 11.3 1s3.4 7.8 1 11.3c-32.6 46.8-49.8 101.7-49.8 158.7 0 153.5 124.9 278.3 278.3 278.3 47.5 0 94.4-12.3 135.8-35.5 3.8-2.2 8.7-1.2 11.4 2.4 2.7 3.5 2.3 8.5-0.8 11.6l-72.1 72.1c-0.6 0.6-1.2 1.1-1.9 1.5-44.2 24.5-94.1 37.6-144.5 37.6zm-196.1-493.3c-52.2 51.9-82.3 122.8-82.3 197.2 0 153.5 124.9 278.3 278.3 278.3 47.1 0 93.6-12.1 134.7-34.9l36.8-36.8c-31.8 11.4-65.5 17.3-99.4 17.3-163.2 0-296-132.8-296-296 0-43.7 9.6-86.2 27.9-125.1zm336.1 447.8z"/>
		
		
			<polygon class="st1" points="2066 846.3 1994.4 846.3 1838.8 846.3 1838.8 1062.9 1994.4 1062.9 2066 1062.9 2311 1062.9 2094.1 846.3"/>
			<path d="m2311 1071.8h-472.1c-4.9 0-8.8-4-8.8-8.8v-216.6c0-4.9 4-8.8 8.8-8.8h255.3c2.3 0 4.6 0.9 6.2 2.6l216.6 216.6c2.5 2.5 3.3 6.3 1.9 9.6-1.1 3.2-4.4 5.4-7.9 5.4zm-463.4-17.7h441.9l-198.9-199h-242.8v199h-0.2z"/>
		
		
			<polygon class="st0" points="2138.2 774.2 2066.4 774.2 1910.9 774.2 1838.8 846.3 1910.9 846.3 1939.3 846.3 1994.4 846.3 2066 846.3 2094.1 846.3 2238.8 990.8 2311 1062.9 2383 990.8 2166.4 774.2"/>
			<path d="m2311 1071.8c-2.3 0-4.6-0.9-6.2-2.6l-214.1-214.1h-251.7c-3.6 0-6.8-2.2-8.2-5.5s-0.6-7.1 1.9-9.6l72.1-72.1c1.7-1.7 3.9-2.6 6.2-2.6h255.3c2.3 0 4.6 0.9 6.2 2.6l216.6 216.6c3.4 3.4 3.4 9 0 12.5l-72.1 72.1c-1.4 1.7-3.7 2.7-6 2.7zm-450.9-234.3h234c2.3 0 4.6 0.9 6.2 2.6l210.4 210.4 59.6-59.6-207.8-207.8h-248l-54.4 54.4z"/>
		
		
			<polygon class="st1" points="2094.1 846.3 2166.4 774.2 1910.9 774.2 1838.8 846.3"/>
			<path d="m2094.1 855.1h-255.3c-3.6 0-6.8-2.2-8.2-5.5s-0.6-7.1 1.9-9.6l72.1-72.1c1.7-1.7 3.9-2.6 6.2-2.6h255.3c3.6 0 6.8 2.2 8.2 5.5s0.6 7.1-1.9 9.6l-72.1 72.1c-1.6 1.7-3.8 2.6-6.2 2.6zm-234-17.6h230.3l54.5-54.5h-230.3l-54.5 54.5z"/>
		
		
			<polygon class="st1" points="1994.4 590.2 2066 590.2 2311 590.2 2383 518.1 2138.2 518.1 2066.4 518.1 1910.9 518.1 1838.8 590.2 1910.9 590.2"/>
			<path d="m2311 599h-472.1c-3.6 0-6.8-2.2-8.2-5.5s-0.6-7.1 1.9-9.6l72.1-72.1c1.7-1.7 3.9-2.6 6.2-2.6h472.1c3.6 0 6.8 2.2 8.2 5.5s0.6 7.1-1.9 9.6l-72.1 72.1c-1.6 1.7-3.9 2.6-6.2 2.6zm-450.9-17.6h447.1l54.5-54.5h-447.1l-54.5 54.5z"/>
		
		
			<polygon class="st1" points="2066 806.8 2094.1 806.8 2311 590.2 2066 590.2 1994.4 590.2 1838.8 590.2 1838.8 806.8 1994.4 806.8"/>
			<path d="m2094.1 815.7h-255.3c-4.9 0-8.8-4-8.8-8.8v-216.7c0-4.9 4-8.8 8.8-8.8h472.2c3.6 0 6.8 2.2 8.2 5.5s0.6 7.1-1.9 9.6l-216.7 216.6c-1.9 1.6-4.1 2.6-6.5 2.6zm-246.5-17.7h242.8l199-198.9h-441.9l0.1 198.9z"/>
		
	
	
		<path d="m123.3 101.6c-2.1-19.2-23.4-18.7-38.5-18.7-8.1 0-25.3 0.3-31.9 5.8-6.3 5.3-6.3 18.9-6.3 26.3 0 7.1 0.3 16.6 5.8 21.8 6.6 6.3 24.8 6.9 33.1 6.9 5.8 0 11.3 0 17.1-0.8 11.6-1.6 18.4-5 20.3-17.4h47.5c-0.5 14-1.3 27.4-11.6 37.9-10.8 11.3-27.4 13.7-42.4 14.5-11.3 0.5-22.3 0.8-33.7 0.8-20.3 0-49.2 0.5-66.6-11.6-16.9-11.8-16-36.6-16-54.7 0-17.9-0.3-39.2 14.7-51.8 16.4-13.7 50.3-12.6 70.3-12.6s54.7-0.8 71.3 12.6c4.4 3.7 7.4 7.4 9.8 12.9 3.9 9.2 4.2 18.2 4.4 28.2h-47.3v-0.1z"/>
		<path d="m367.5 135.3c-1 12.1-4.2 22.9-13.7 31.1-16 14-54 12.4-73.7 12.4-20.6 0-56.9 1.8-73.7-12.4-4.7-3.9-7.6-8.1-10-13.7-5.3-12.9-4.4-29.2-4.4-42.9 0-6.9 0-14 0.8-20.8 1-11.8 5.5-22.3 15.2-29.7 15.8-12.1 53.4-11.3 72.1-11.3 18.9 0 56.1-0.8 72.1 11.3 4.4 3.4 7.4 6.9 10 11.8 6.8 12.1 6.1 27.7 6.1 41 0 7.6-0.3 15.5-0.8 23.2zm-51.5-45.5c-6.9-6.6-26.8-6.9-35.5-6.9-8.4 0-17.1 0.3-25.3 1.8-16.3 3.2-16.6 15.8-16.6 30 0 6.9-0.3 16 4.7 21.3 7.1 7.6 27.7 7.6 37.1 7.6 8.9 0 18.4 0 27.1-2.4 14.5-3.9 14.2-17.1 14.2-30 0-7-0.2-16.2-5.7-21.4z"/>
		<path d="m618.9 175.6v-58.2c0-26.8-2.9-34.5-31.6-34.5-32.1 0-34.5 12.6-34.5 41.3v51.3h-46.6v-66.9c0-22.6-9.8-25.8-30.8-25.8-33.1 0-35.3 11.8-35.3 41.3v51.3h-46.6v-124.4h43.9v18.7h2.1c8.7-19.2 31.9-21.8 50.5-21.8 23.7 0 44.5 3.9 56.6 26 9.5-23.2 31.6-26 54-26 18.2 0 38.5 2.1 51.6 16 4.4 4.7 7.9 9.8 9.8 16 3.7 12.1 3.4 25 3.4 37.4v58.1l-46.5 0.2z"/>
		<path d="m917.6 175.6v-58.2c0-26.8-2.9-34.5-31.6-34.5-32.1 0-34.5 12.6-34.5 41.3v51.3h-46.6v-66.9c0-22.6-9.8-25.8-30.8-25.8-33.1 0-35.3 11.8-35.3 41.3v51.3h-46.6v-124.4h43.9v18.7h2.1c8.7-19.2 31.9-21.8 50.5-21.8 23.7 0 44.5 3.9 56.6 26 9.6-23.2 31.7-26 54-26 18.2 0 38.5 2.1 51.6 16 4.5 4.7 7.9 9.8 9.8 16 3.7 12.1 3.4 25 3.4 37.4v58.1l-46.5 0.2z"/>
		<path d="m1163.9 135.3c-1 12.1-4.2 22.9-13.7 31.1-16 14-54 12.4-73.7 12.4-20.6 0-56.9 1.8-73.7-12.4-4.7-3.9-7.6-8.1-10-13.7-5.3-12.9-4.5-29.2-4.5-42.9 0-6.9 0-14 0.8-20.8 1-11.8 5.5-22.3 15.2-29.7 15.8-12.1 53.4-11.3 72.1-11.3 18.9 0 56.1-0.8 72.1 11.3 4.4 3.4 7.4 6.9 10 11.8 6.8 12.1 6.1 27.7 6.1 41 0.1 7.6-0.2 15.5-0.7 23.2zm-51.6-45.5c-6.9-6.6-26.8-6.9-35.5-6.9-8.4 0-17.1 0.3-25.3 1.8-16.3 3.2-16.6 15.8-16.6 30 0 6.9-0.3 16 4.7 21.3 7.1 7.6 27.7 7.6 37.1 7.6 8.9 0 18.4 0 27.1-2.4 14.5-3.9 14.2-17.1 14.2-30 0.1-7-0.2-16.2-5.7-21.4z"/>
		<path d="m1318.7 175.6v-16.3h-2.4c-3.2 5.3-5.5 8.7-10.8 11.8-11.6 7.1-31.1 7.6-44.2 7.6-19.2 0-45.3 0.3-60.6-13.2-13.7-12.1-13.4-36.1-13.4-52.9 0-19.5 0.5-43.2 18.4-55.3 15.8-10.5 37.9-9.5 56.1-9.5 13.7 0 28.7-0.3 40.8 6.9 6.1 3.4 8.1 6.9 11.6 12.9h1.8v-67.6h46.6v175.6h-43.9zm-4.8-81.1c-5.5-12.6-25.5-11.6-36.8-11.6-11.6 0-35-1.3-40.8 11.8-2.1 5.3-2.4 12.1-2.4 17.6 0 7.4-0.3 18.7 5.3 24.5 6.3 6.9 26.6 6.9 35 6.9 9.5 0 21.1-0.5 30-3.4 12.6-3.9 12.4-16 12.4-27.4-0.1-5.8-0.4-12.9-2.7-18.4z"/>
		<path d="m1563.4 135.3c-1 12.1-4.2 22.9-13.7 31.1-16 14-54 12.4-73.7 12.4-20.6 0-56.9 1.8-73.7-12.4-4.7-3.9-7.6-8.1-10-13.7-5.3-12.9-4.4-29.2-4.4-42.9 0-6.9 0-14 0.8-20.8 1-11.8 5.5-22.3 15.2-29.7 15.8-12.1 53.4-11.3 72.1-11.3 18.9 0 56.1-0.8 72.1 11.3 4.4 3.4 7.4 6.9 10 11.8 6.8 12.1 6.1 27.7 6.1 41 0 7.6-0.3 15.5-0.8 23.2zm-51.6-45.5c-6.9-6.6-26.8-6.9-35.5-6.9-8.4 0-17.1 0.3-25.3 1.8-16.3 3.2-16.6 15.8-16.6 30 0 6.9-0.3 16 4.7 21.3 7.1 7.6 27.7 7.6 37.1 7.6 8.9 0 18.4 0 27.1-2.4 14.5-3.9 14.2-17.1 14.2-30 0.1-7-0.2-16.2-5.7-21.4z"/>
		<path d="m1733.6 106.3h-43.7c0-18.4-6.1-23.4-24.5-23.4-28.7 0-29.5 18.2-29.5 41v51.6h-46.6v-124.5h43.9v18.7h2.1c10.8-19.2 28.2-21.8 48.4-21.8 14.5 0 31.9 1.8 41.6 14 8.7 10.8 8.4 26.3 8.4 39.5 0.2 1.5-0.1 3.3-0.1 4.9z"/>
		<path d="m1919.4 123.4h-121.6c0 7.1-0.3 15.2 5.8 20.3 6.3 5 24 5.3 31.6 5.3s28.9 0.3 33.9-5.3c2.1-2.1 2.7-5 3.2-7.9h46.3c-1 11.8-3.4 21.1-12.4 29.2-16 14.5-54.5 13.7-74.8 13.7-18.4 0-49.2 0.3-64.5-11.6-4.7-3.7-7.9-7.9-10.5-13.2-5.8-12.1-5.3-27.1-5.3-40 0-7.9 0-15.8 0.8-23.4 1.3-12.6 5.5-24 16-31.6 16.3-11.8 49-11 68.2-11 17.6 0 36.8-0.5 54 4.4 27.7 8.1 29.5 33.4 29.5 58.4 0.1 4.3 0.1 8.5-0.2 12.7zm-46.5-28.4c0-4.7-0.3-8.4-3.7-12.1-5.5-6.1-24.5-6.1-32.1-6.1-7.1 0-14.2 0-21.1 1-13.2 1.8-17.9 6.9-18.2 20h75l0.1-2.8z"/>
	

</svg>
