<?xml version="1.0" encoding="UTF-8"?>
<svg enable-background="new 0 0 3839 850.1" version="1.1" viewBox="0 0 3839 850.1" xml:space="preserve" xmlns="http://www.w3.org/2000/svg">
<style type="text/css">
	.st0{display:none;}
	.st1{display:inline;}
	.st2{fill:#FF1F1F;}
	.st3{fill:#FFFFFF;}
	.st4{fill:#FF1F1F;stroke:#FF1F1F;stroke-width:12.9372;stroke-miterlimit:10;}
	.st5{fill:none;stroke:#FF1F1F;stroke-width:12.9372;stroke-miterlimit:10;}
	.st6{fill:#FF1F1F;stroke:#000000;stroke-width:4.5925;stroke-miterlimit:10;}
	.st7{fill:#FF6A15;stroke:#000000;stroke-width:4.5925;stroke-miterlimit:10;}
	.st8{fill:#FFB40A;stroke:#000000;stroke-width:4.5925;stroke-miterlimit:10;}
	.st9{fill:#FFFF00;stroke:#000000;stroke-width:4.5925;stroke-miterlimit:10;}
	.st10{fill:#FFFFFF;stroke:#FFFFFF;stroke-width:12.9372;stroke-miterlimit:10;}
	.st11{fill:none;stroke:#FFFFFF;stroke-width:12.9372;stroke-miterlimit:10;}
	.st12{fill:#FF0074;stroke:#000000;stroke-width:4.5925;stroke-miterlimit:10;}
	.st13{fill:#FF803A;stroke:#000000;stroke-width:4.5925;stroke-miterlimit:10;}
	.st14{fill:#FFFFFF;stroke:#000000;stroke-width:4.5925;stroke-miterlimit:10;}
	.st15{fill:#FF0074;stroke:#000000;stroke-width:7.2529;stroke-miterlimit:10;}
	.st16{fill:#FF803A;stroke:#000000;stroke-width:7.2529;stroke-miterlimit:10;}
	.st17{fill:#FFFF00;stroke:#000000;stroke-width:7.2529;stroke-miterlimit:10;}
	.st18{fill:#FFFFFF;stroke:#000000;stroke-width:7.2529;stroke-miterlimit:10;}
	.st19{fill:#FF1F1F;stroke:#000000;stroke-width:6.6981;stroke-miterlimit:10;}
	.st20{fill:#FF6A15;stroke:#000000;stroke-width:6.6981;stroke-miterlimit:10;}
	.st21{fill:#FFB40A;stroke:#000000;stroke-width:6.6981;stroke-miterlimit:10;}
	.st22{fill:#FFFF00;stroke:#000000;stroke-width:6.6981;stroke-miterlimit:10;}
	.st23{fill:#FF1F1F;stroke:#FF1F1F;stroke-width:20.3455;stroke-miterlimit:10;}
	.st24{fill:none;stroke:#FF1F1F;stroke-width:20.3455;stroke-miterlimit:10;}
	.st25{fill:#FF1F1F;stroke:#000000;stroke-width:7.2224;stroke-miterlimit:10;}
	.st26{fill:#FF6A15;stroke:#000000;stroke-width:7.2224;stroke-miterlimit:10;}
	.st27{fill:#FFB40A;stroke:#000000;stroke-width:7.2224;stroke-miterlimit:10;}
	.st28{fill:#FFFF00;stroke:#000000;stroke-width:7.2224;stroke-miterlimit:10;}
	.st29{fill:#FFFFFF;stroke:#FFFFFF;stroke-width:20.3455;stroke-miterlimit:10;}
	.st30{fill:none;stroke:#FFFFFF;stroke-width:20.3455;stroke-miterlimit:10;}
	.st31{fill:#FF0074;stroke:#000000;stroke-width:7.2224;stroke-miterlimit:10;}
	.st32{fill:#FF803A;stroke:#000000;stroke-width:7.2224;stroke-miterlimit:10;}
	.st33{fill:#FFFFFF;stroke:#000000;stroke-width:7.2224;stroke-miterlimit:10;}
	.st34{stroke:#000000;stroke-width:12.9372;stroke-miterlimit:10;}
	.st35{fill:none;stroke:#000000;stroke-width:12.9372;stroke-miterlimit:10;}
	.st36{stroke:#000000;stroke-width:20.3455;stroke-miterlimit:10;}
	.st37{fill:none;stroke:#000000;stroke-width:20.3455;stroke-miterlimit:10;}
	.st38{fill:none;stroke:#000000;stroke-width:7.2529;stroke-miterlimit:10;}
	.st39{fill:none;stroke:#000000;stroke-width:4.5925;stroke-miterlimit:10;}
	.st40{fill:none;stroke:#000000;stroke-width:7.2224;stroke-miterlimit:10;}
	.st41{fill:none;stroke:#FFFFFF;stroke-width:7.2529;stroke-miterlimit:10;}
	.st42{fill:none;stroke:#FFFFFF;stroke-width:4.5925;stroke-miterlimit:10;}
	.st43{fill:none;stroke:#FFFFFF;stroke-width:7.2224;stroke-miterlimit:10;}
	.st44{fill:#FF1F1F;stroke:#000000;stroke-width:4.5799;stroke-miterlimit:10;}
	.st45{fill:#FF6A15;stroke:#000000;stroke-width:4.5799;stroke-miterlimit:10;}
	.st46{fill:#FFB40A;stroke:#000000;stroke-width:4.5799;stroke-miterlimit:10;}
	.st47{fill:#FFFF00;stroke:#000000;stroke-width:4.5799;stroke-miterlimit:10;}
	.st48{fill:#FF0074;stroke:#000000;stroke-width:4.5799;stroke-miterlimit:10;}
	.st49{fill:#FF803A;stroke:#000000;stroke-width:4.5799;stroke-miterlimit:10;}
	.st50{fill:#FFFFFF;stroke:#000000;stroke-width:4.5799;stroke-miterlimit:10;}
	.st51{fill:#FF0074;}
	.st52{fill:#FF803A;}
	.st53{fill:#FFFF00;}
	.st54{fill:#FF6A15;}
	.st55{fill:#FFB40A;}
	.st56{fill:none;stroke:#000000;stroke-width:4.5799;stroke-miterlimit:10;}
	.st57{fill:none;stroke:#FFFFFF;stroke-width:4.5799;stroke-miterlimit:10;}
</style>
<g class="st0">
	<g class="st1">
		
			<rect class="st36" transform="matrix(-1.837e-16 1 -1 -1.837e-16 1350.2 -396.5)" x="828" y="454.8" width="90.7" height="44.2"/>
		
			<rect class="st36" transform="matrix(-1.837e-16 1 -1 -1.837e-16 1868.8 -915.12)" x="1346.6" y="391.8" width="90.7" height="170"/>
		
			<rect class="st36" transform="matrix(-1.837e-16 1 -1 -1.837e-16 2671.2 -1717.6)" x="2149.1" y="450.2" width="90.7" height="53.3"/>
		<path class="st36" d="m3044.4 569.5 64.6-64.6c-36.8-44.4-89.9-74.8-150.2-82v91.8c35 6.9 65.3 27 85.6 54.8z"/>
		
			
				<rect class="st36" transform="matrix(-1.837e-16 1 -1 -1.837e-16 1702.1 -44.606)" x="828" y="806.6" width="90.7" height="44.2"/>
			
				<rect class="st36" transform="matrix(-1.837e-16 1 -1 -1.837e-16 2220.7 -563.23)" x="1346.6" y="743.7" width="90.7" height="170"/>
			<rect class="st36" x="551.8" y="431.5" width="90.7" height="442.6"/>
			<rect class="st36" x="705.8" y="431.5" width="90.7" height="442.6"/>
			
				<path d="m895.4 874.1v-90.7c174.1 0 174.1-261.2 0-261.2v-90.7c295.1 0 295.1 442.6 0 442.6z"/>
				<path class="st37" d="m895.4 874.1v-90.7c174.1 0 174.1-261.2 0-261.2v-90.7c295.1 0 295.1 442.6 0 442.6z"/>
			
			<rect class="st36" x="1161.5" y="431.5" width="90.7" height="442.6"/>
			
				<rect class="st36" transform="matrix(-1.837e-16 1 -1 -1.837e-16 2044.7 -739.17)" x="1346.6" y="567.8" width="90.7" height="170"/>
			
				<rect class="st36" transform="matrix(-1.837e-16 1 -1 -1.837e-16 2847.2 -1541.6)" x="2149.1" y="626.1" width="90.7" height="53.3"/>
			<rect class="st36" x="2022.3" y="431.5" width="90.7" height="442.6"/>
			<path class="st36" d="m2221 698.1v-90.7c56.2 0 56.2-85.3 0-85.3v-90.7c177.2 0.1 177.2 266.7 0 266.7z"/>
			<path class="st36" d="m1611.7 624.3c12.7-64 69.2-112.3 137-112.3s124.3 48.3 137 112.3h91.8c-13.6-114.3-110.8-203-228.8-203s-215.2 88.7-228.8 203h91.8z"/>
			<path class="st36" d="m1885.7 679.1c-12.7 64-69.2 112.3-137 112.3s-124.3-48.3-137-112.3h-91.8c13.6 114.3 110.8 203 228.8 203s215.2-88.7 228.8-203h-91.8z"/>
			<polygon class="st36" points="415.5 431.5 312.9 633.1 363.8 733.1 517.2 431.5"/>
			<polygon class="st36" points="282.1 693.5 148.8 431.5 47 431.5 282.1 893.5 333 793.5"/>
			<path class="st36" d="m2904 788.7c-64-12.7-112.3-69.2-112.3-137s48.3-124.3 112.3-137v-91.8c-114.3 13.6-203 110.8-203 228.8s88.7 215.2 203 228.8v-91.8z"/>
			<path class="st36" d="m3044.4 733.9c-20.3 27.8-50.5 47.8-85.5 54.8v91.8c60.3-7.1 113.4-37.5 150.2-82l-64.7-64.6z"/>
			<polygon class="st36" points="2513.6 707.8 2467.5 798.5 2649.1 798.5 2630.6 707.8"/>
			<polygon class="st36" points="2367.5 874.1 2470.1 672.5 2419.2 572.5 2265.8 874.1"/>
			<polygon class="st36" points="2500.8 612.1 2634.2 874.1 2735.9 874.1 2500.8 412.1 2450 512.1"/>
			
				
					<polygon class="st33" points="3886 607.4 3710.1 607.4 3710.1 431.5 3619.4 431.5 3619.4 607.4 3443.5 607.4 3443.5 698.1 3619.4 698.1 3619.4 874.1 3710.1 874.1 3710.1 698.1 3886 698.1"/>
					<polygon class="st33" points="3808.2 607.4 3632.2 607.4 3632.2 431.5 3541.6 431.5 3541.6 607.4 3365.6 607.4 3365.6 698.1 3541.6 698.1 3541.6 874.1 3632.2 874.1 3632.2 698.1 3808.2 698.1"/>
					<polygon class="st33" points="3730.4 607.4 3554.4 607.4 3554.4 431.5 3463.7 431.5 3463.7 607.4 3287.8 607.4 3287.8 698.1 3463.7 698.1 3463.7 874.1 3554.4 874.1 3554.4 698.1 3730.4 698.1"/>
				
				<polygon class="st33" points="3652.5 607.4 3476.6 607.4 3476.6 431.5 3385.9 431.5 3385.9 607.4 3209.9 607.4 3209.9 698.1 3385.9 698.1 3385.9 874.1 3476.6 874.1 3476.6 698.1 3652.5 698.1"/>
			
		
		
			<path d="m2276.3 61.4c-26.2 0-79.2 0.3-79.2 0v230.5h64.4l0.4-57.6h28.8c61.4 0 93.7-29.6 93.7-86.4 0-62.5-40.3-86.5-108.1-86.5zm0 129.6h-14.4v-86.4c3.8-0.2 11 0 14.4 0 32.5 0 44.3 16.6 44.3 44.6 0 28.9-10 41.8-44.3 41.8z"/>
			<polygon points="1700 291.9 1700 198.2 1635.1 198.2 1635.1 291.9 1570.3 291.9 1570.3 61.4 1635.1 61.4 1635.1 155 1700 155 1700 61.4 1764.8 61.4 1764.8 291.9"/>
			<polygon points="1815.3 291.9 1815.3 61.4 1872.9 61.4 1880.1 61.4 1880.1 291.9"/>
			<polygon points="2052.5 291.9 1930.5 291.9 1930.5 61.4 1995.4 61.4 1995.4 248.7 2060.2 248.7"/>
			<rect x="2081.8" y="61.4" width="64.8" height="230.5"/>
			<path d="m2470.8 119v7.2c0 35.4 108 19.1 108 93.6 0 55.9-38.5 72-93.6 72-21.7 0-56.7-4-79.2-7.2v-50.4c19.9 10.2 57.6 14.4 79.2 14.4 24.4 0 28.8-7.6 28.8-21.6 0-39.7-108.1-22.6-108.1-100.9 0-45.4 44.4-64.8 97.7-64.8 37.8 0 43.6 3.5 60.8 7.2v43.2c-15.4-6.5-36.8-7.2-57.6-7.2-18.9 0.1-36 2.4-36 14.5z"/>
			<path d="m1433.4 61.4c-26.2 0-79.2 0.3-79.2 0v230.5h64.5l0.4-57.6h28.8c61.4 0 93.7-29.6 93.7-86.4-0.1-62.5-40.4-86.5-108.2-86.5zm0 129.6h-14.4v-86.4c3.9-0.2 11 0 14.4 0 32.5 0 44.3 16.6 44.3 44.6 0 28.9-9.9 41.8-44.3 41.8z"/>
		
	</g>
</g>

	
		
			
				<rect transform="matrix(-1.837e-16 1 -1 -1.837e-16 1251.8 -425.17)" x="793.4" y="391.3" width="90.2" height="43.9"/>
			<path d="m870.6 468.5h-64.2v-110.4h64.2v110.4zm-44-20.2h23.7v-70h-23.7v70z"/>
		
		
			
				<rect transform="matrix(-1.837e-16 1 -1 -1.837e-16 1767.7 -941.07)" x="1309.3" y="328.8" width="90.2" height="169.1"/>
			<path d="m1449.1 468.5h-189.3v-110.4h189.3v110.4zm-169.2-20.2h148.9v-70h-148.9v70z"/>
		
		
			
				<rect transform="matrix(-1.837e-16 1 -1 -1.837e-16 2565.9 -1739.3)" x="2107.5" y="386.8" width="90.2" height="53"/>
			<path d="m2189.2 468.5h-73.2v-110.4h73.2v110.4zm-53-20.2h32.8v-70h-32.8v70z"/>
		
		
			<path d="m2998.1 505.5 64.3-64.3c-36.6-44.2-89.4-74.4-149.4-81.5v91.3c34.9 6.9 65 26.8 85.1 54.5z"/>
			<path d="m2996.9 521-7-9.6c-19.2-26.3-47.2-44.3-78.9-50.6l-8.1-1.6v-111l11.3 1.3c61.1 7.2 116.5 37.5 156 85.1l5.9 7.1-79.2 79.3zm-73.7-78.1c29.6 7.6 55.9 24.1 75.8 47.4l49.6-49.6c-33.1-36.8-77-61-125.4-69.3v71.5z"/>
		
		
			
				
					<rect transform="matrix(-1.837e-16 1 -1 -1.837e-16 1601.8 -75.115)" x="793.4" y="741.4" width="90.2" height="43.9"/>
				<path d="m870.6 818.6h-64.2v-110.5h64.2v110.5zm-44-20.2h23.7v-70h-23.7v70z"/>
			
			
				
					<rect transform="matrix(-1.837e-16 1 -1 -1.837e-16 2117.7 -591.02)" x="1309.3" y="678.8" width="90.2" height="169.1"/>
				<path d="m1449.1 818.6h-189.3v-110.5h189.3v110.5zm-169.2-20.2h148.9v-70h-148.9v70z"/>
			
			
				<rect x="518.6" y="368.2" width="90.2" height="440.3"/>
				<path d="m619 818.6h-110.5v-460.5h110.5v460.5zm-90.2-20.2h70v-420h-70v420z"/>
			
			
				<rect x="671.8" y="368.2" width="90.2" height="440.3"/>
				<path d="m772.1 818.6h-110.4v-460.5h110.5v460.5zm-90.2-20.2h70v-420h-70v420z"/>
			
			
				<path d="m860.4 808.5v-90.2c173.2 0 173.2-259.8 0-259.8v-90.2c293.6-0.1 293.6 440.2 0 440.2z"/>
				
					<path d="m860.4 818.6h-10.1v-110.5h10.1c37.2 0 68.2-12.9 89.9-37.2 19.3-21.7 29.9-51 29.9-82.6 0-57.7-37.5-119.8-119.8-119.8h-10.1v-110.4h10.1c71 0 130.7 25 172.7 72.2 37.1 41.8 57.6 97.9 57.6 158.1s-20.5 116.3-57.6 158.1c-42 47.1-101.7 72.1-172.7 72.1zm10.2-90.5v70.1c60.6-2.2 111.4-24.7 147.4-65.2 33.8-38.1 52.5-89.4 52.5-144.6s-18.6-106.5-52.5-144.6c-36-40.5-86.8-63-147.4-65.2v70.1c38.7 2.2 71.3 17.2 94.9 43.7 22.6 25.4 35 59.5 35 96s-12.4 70.6-35 96c-23.6 26.5-56.3 41.5-94.9 43.7z"/>
				
			
			
				<rect x="1125.1" y="368.2" width="90.2" height="440.3"/>
				<path d="m1225.4 818.6h-110.4v-460.5h110.5v460.5zm-90.2-20.2h70v-420h-70v420z"/>
			
			
				
					<rect transform="matrix(-1.837e-16 1 -1 -1.837e-16 1942.7 -766.05)" x="1309.3" y="503.8" width="90.2" height="169.1"/>
				<path d="m1449.1 643.6h-189.3v-110.5h189.3v110.5zm-169.2-20.3h148.9v-70h-148.9v70z"/>
			
			
				
					<rect transform="matrix(-1.837e-16 1 -1 -1.837e-16 2741 -1564.3)" x="2107.5" y="561.8" width="90.2" height="53"/>
				<path d="m2189.2 643.6h-73.2v-110.5h73.2v110.5zm-53-20.3h32.8v-70h-32.8v70z"/>
			
			
				<rect x="1981.4" y="368.2" width="90.2" height="440.3"/>
				<path d="m2081.7 818.6h-110.5v-460.5h110.5v460.5zm-90.2-20.2h70v-420h-70v420z"/>
			
			
				<path d="m2179.1 633.4v-90.2c55.9 0 55.9-84.8 0-84.8v-90.2c176.3 0 176.3 265.2 0 265.2z"/>
				<path d="m2179.1 643.6h-10.1v-110.5h10.1c15.6 0 23.4-7.9 27.3-14.6 6.1-10.6 6.1-24.8 0-35.4-3.8-6.6-11.7-14.6-27.3-14.6h-10.1v-110.4h10.1c43.8 0 80.7 15.5 106.7 44.9 22.9 25.9 35.6 60.7 35.6 97.9s-12.6 72-35.6 97.9c-26 29.3-62.9 44.8-106.7 44.8zm10.1-91.1v70.5c76.8-4.9 111.9-65.6 111.9-122.2s-35.1-117.3-111.9-122.2v70.5c14.9 2.6 27.2 11 34.7 23.8 9.8 16.9 9.8 38.8 0 55.7-7.4 12.9-19.7 21.3-34.7 23.9z"/>
			
			
				<path d="m1573 560c12.7-63.7 68.9-111.7 136.3-111.7s123.6 48 136.3 111.7h91.3c-13.5-113.8-110.3-202-227.6-202-117.4 0-214.1 88.2-227.6 201.9h91.3z"/>
				<path d="m1948.2 570.1h-111l-1.6-8.1c-11.9-60-65.1-103.6-126.4-103.6s-114.4 43.6-126.4 103.6l-1.6 8.1h-111l1.3-11.3c14.2-120.2 116.4-210.9 237.6-210.9s223.4 90.7 237.6 210.9l1.5 11.3zm-94.6-20.3h71.5c-17.9-104.4-108.8-181.7-215.9-181.7s-198 77.3-215.9 181.7h71.5c16.8-65.2 76.3-111.7 144.4-111.7 68.2 0 127.6 46.5 144.4 111.7z"/>
			
			
				<path d="m1845.6 614.5c-12.7 63.7-68.9 111.7-136.3 111.7s-123.6-48-136.3-111.7h-91.3c13.5 113.7 110.2 201.9 227.6 201.9s214.1-88.2 227.6-201.9h-91.3z"/>
				<path d="m1709.3 826.5c-121.2 0-223.4-90.7-237.6-210.9l-1.3-11.3h111l1.6 8.1c11.9 60 65.1 103.6 126.4 103.6s114.4-43.6 126.4-103.6l1.6-8.1h111l-1.3 11.3c-14.5 120.3-116.6 210.9-237.8 210.9zm-215.9-201.9c17.9 104.4 108.8 181.7 215.9 181.7s198-77.3 215.9-181.7h-71.5c-16.8 65.2-76.2 111.7-144.4 111.7-68.1 0-127.5-46.5-144.4-111.7h-71.5z"/>
			
			
				<polygon points="383 368.2 280.9 568.7 331.6 668.2 484.2 368.2"/>
				<path d="m331.6 690.5-62-121.8 107.2-210.7h123.9l-169.1 332.5zm-39.3-121.8 39.3 77.2 136.2-267.6h-78.5l-97 190.4z"/>
			
			
				<polygon points="250.4 628.8 117.7 368.2 16.5 368.2 250.4 827.8 301 728.3"/>
				<path d="M250.4,850.1L0,358.1h123.9l127.6,250.8l0,0l60.8,119.5L250.4,850.1z M33,378.3l217.4,427.1l39.3-77.2l-178.1-350H33z"/>
			
			
				<path d="m2858.5 723.5c-63.7-12.7-111.7-68.9-111.7-136.3s48-123.6 111.7-136.3v-91.3c-113.7 13.5-201.9 110.2-201.9 227.6s88.2 214.1 201.9 227.6v-91.3z"/>
				<path d="m2868.7 826.2-11.3-1.3c-120.2-14.2-210.9-116.4-210.9-237.6s90.7-223.4 210.9-237.6l11.3-1.3v111l-8.1 1.6c-60 11.9-103.6 65.1-103.6 126.4s43.6 114.4 103.6 126.4l8.1 1.6v110.8zm-20.3-454.9c-104.4 17.9-181.7 108.8-181.7 215.9s77.3 198 181.7 215.9v-71.5c-65.2-16.8-111.7-76.3-111.7-144.4s46.5-127.5 111.7-144.4v-71.5z"/>
			
			
				<path d="m2998.1 669c-20.2 27.7-50.3 47.6-85.1 54.5v91.3c59.9-7.1 112.8-37.3 149.4-81.5l-64.3-64.3z"/>
				<path d="m2902.9 826.2v-111l8.1-1.6c31.7-6.3 59.7-24.3 78.9-50.6l7-9.6 79.2 79.2-5.9 7.1c-39.4 47.6-94.8 77.9-156 85.1l-11.3 1.4zm20.3-94.6v71.5c48.4-8.3 92.4-32.6 125.4-69.3l-49.6-49.6c-19.9 23.3-46.3 39.8-75.8 47.4z"/>
			
			
				<polygon points="2470.2 643.1 2424.3 733.3 2605 733.3 2586.5 643.1"/>
				<path d="m2617.4 743.4h-209.6l56.2-110.5h130.8l22.6 110.5zm-176.6-20.2h151.8l-14.3-70h-101.9l-35.6 70z"/>
			
			
				<polygon points="2324.8 808.5 2426.9 607.9 2376.3 508.5 2223.6 808.5"/>
				<path d="m2331 818.6h-123.9l169.2-332.4 62 121.8-107.3 210.6zm-90.9-20.2h78.5l96.9-190.4-39.3-77.2-136.1 267.6z"/>
			
			
				<polygon points="2457.5 547.8 2590.1 808.5 2691.3 808.5 2457.5 348.9 2406.9 448.4"/>
				<path d="m2707.8 818.6h-123.9l-127.6-250.8-60.8-119.5 62-121.8 250.3 492.1zm-111.5-20.2h78.5l-217.4-427.1-39.3 77.2 40.4 79.5 137.8 270.4z"/>
			
			
				
					
						<polygon class="st3" points="3835.4 543.2 3660.4 543.2 3660.4 368.2 3570.2 368.2 3570.2 543.2 3395.1 543.2 3395.1 633.4 3570.2 633.4 3570.2 808.5 3660.4 808.5 3660.4 633.4 3835.4 633.4"/>
						<path d="m3664 812.1h-97.4v-175.1h-175v-97.4h175v-175h97.4v175h175v97.4h-175v175.1zm-90.2-7.2h83v-175h175v-83h-175v-175h-83v175h-175v83h175v175z"/>
					
					
						<polygon class="st3" points="3758 543.2 3582.9 543.2 3582.9 368.2 3492.7 368.2 3492.7 543.2 3317.7 543.2 3317.7 633.4 3492.7 633.4 3492.7 808.5 3582.9 808.5 3582.9 633.4 3758 633.4"/>
						<path d="m3586.5 812.1h-97.4v-175.1h-175v-97.4h175v-175h97.4v175h175v97.4h-175v175.1zm-90.2-7.2h83v-175h175v-83h-175v-175h-83v175h-175v83h175v175z"/>
					
					
						<polygon class="st3" points="3680.5 543.2 3505.5 543.2 3505.5 368.2 3415.3 368.2 3415.3 543.2 3240.3 543.2 3240.3 633.4 3415.3 633.4 3415.3 808.5 3505.5 808.5 3505.5 633.4 3680.5 633.4"/>
						<path d="m3509.1 812.1h-97.4v-175.1h-175v-97.4h175v-175h97.4v175h175v97.4h-175v175.1zm-90.2-7.2h83v-175h175v-83h-175v-175h-83v175h-175v83h175v175z"/>
					
				
				
					<polygon class="st3" points="3603.1 543.2 3428.1 543.2 3428.1 368.2 3337.9 368.2 3337.9 543.2 3162.8 543.2 3162.8 633.4 3337.9 633.4 3337.9 808.5 3428.1 808.5 3428.1 633.4 3603.1 633.4"/>
					<path d="m3431.7 812.1h-97.4v-175.1h-175v-97.4h175v-175h97.4v175h175v97.4h-175v175.1zm-90.3-7.2h83v-175h175v-83h-175v-175h-83v175h-175v83h175v175z"/>
				
			
		
		
			<path d="m2234.1 0c-26.1 0-78.8 0.3-78.8 0v229.3h64.1l0.4-57.3h28.7c61.1 0 93.2-29.5 93.2-86-0.1-62.1-40.2-86-107.6-86zm0 129h-14.3v-86c3.8-0.2 11 0 14.3 0 32.4 0 44.1 16.6 44.1 44.4 0 28.7-9.9 41.6-44.1 41.6z"/>
			<polygon points="1660.8 229.3 1660.8 136.2 1596.3 136.2 1596.3 229.3 1531.8 229.3 1531.8 0 1596.3 0 1596.3 93.2 1660.8 93.2 1660.8 0 1725.3 0 1725.3 229.3"/>
			<polygon points="1775.5 229.3 1775.5 0 1832.8 0 1840 0 1840 229.3"/>
			<polygon points="2011.4 229.3 1890.1 229.3 1890.1 0 1954.6 0 1954.6 186.3 2019.1 186.3"/>
			<rect x="2040.6" width="64.5" height="229.3"/>
			<path d="m2427.6 57.3v7.2c0 35.2 107.5 19 107.5 93.2 0 55.6-38.3 71.7-93.2 71.7-21.6 0-56.4-4-78.8-7.2v-50.2c19.8 10.2 57.3 14.3 78.8 14.3 24.3 0 28.7-7.6 28.7-21.5 0-39.5-107.5-22.5-107.5-100.3 0-45.2 44.2-64.5 97.2-64.5 37.6 0 43.4 3.5 60.5 7.2v43c-15.3-6.5-36.6-7.2-57.3-7.2-18.9 0-35.9 2.3-35.9 14.3z"/>
			<path d="m1395.6 0c-26.1 0-78.8 0.3-78.8 0v229.3h64.1l0.4-57.3h28.7c61.1 0 93.2-29.5 93.2-86-0.1-62.1-40.1-86-107.6-86zm0 129h-14.3v-86c3.8-0.2 11 0 14.3 0 32.4 0 44.1 16.6 44.1 44.4 0 28.7-9.9 41.6-44.1 41.6z"/>
		
	

</svg>
