<?xml version="1.0" encoding="UTF-8"?>
<svg enable-background="new 0 0 3839 707.9" version="1.1" viewBox="0 0 3839 707.9" xml:space="preserve" xmlns="http://www.w3.org/2000/svg">
<style type="text/css">
	.st0{fill:#FFFFFF;}
	.st1{fill:#00439B;}
</style>

	
		
			<path d="m1217.2 475.4v130.4c0 1.8 1.5 3.2 3.1 3.2h83.9c1.6 0 3-1.4 3-3.2v-130.4c0-37.9 20-64.4 48.1-64.4h221.3c70.5 0 114.3-45.3 114.3-118.8 0-73.4-43.7-119.3-114.3-119.3h-356.2c-1.7 0-3.2 1.4-3.2 3.2v47.5c0 1.8 1.5 3.3 3.2 3.3h328.4c32.2 0 50.8 23.7 50.8 65.2s-18.6 65.4-50.8 65.4h-235.4c-54.3-0.1-96.2 50.5-96.2 117.9"/>
		
		
			<path d="m1994.6 226.8h167.6c1.8 0 3.4-1.5 3.4-3.3v-47.5c0-1.9-1.6-3.3-3.4-3.3l-195.3 0.1c-70.6 0-114.2 45.7-114.2 119.2v197.8c0 41.5-18.1 65.2-50.6 65.2h-172.1c-1.8 0-3.2 1.7-3.2 3.4v47.4c0 1.8 1.4 3.2 3.2 3.2h200.2c70 0 113.7-45.7 113.7-119.1v-197.9c0.1-41.6 18.8-65.2 50.7-65.2"/>
		
		
			<path d="m2802.8 605.8c0 1.8 1.5 3.2 3.2 3.2h84.9c1.7 0 3.1-1.4 3.1-3.2v-429.5c0-2-1.4-3.3-3.1-3.3h-84.9c-1.7 0-3.2 1.3-3.2 3.3v429.5z"/>
		
		
			<path d="m2537.6 561 204.8-384.5c1-1.9 0-3.8-1.8-3.8h-52.4c-1.8 0-3.7 1.3-4.6 2.9l-165.6 308c-11.9 22.9-32.4 25.5-44.9 2.7l-166.6-310.7c-0.7-1.6-3-2.9-4.8-2.9h-92.7c-2.2 0-3 2-1.9 4.1l205 384.2c11.9 22 26.2 36.5 41.4 43.2 24.2 11.4 50.8 3 71.9-24.4 4.3-5.6 8.3-11.8 12.2-18.8"/>
		
		
			<path d="m3380.1 173h-423.5c-1.9 0-3.2 1.3-3.2 3.3v46.9c0 1.6 1.3 3.2 3.2 3.2h161.1c3.1 0 5.8 2.6 5.8 5.8v373.7c0 1.8 1.4 3.2 3.2 3.2h83.1c2 0 3.4-1.4 3.4-3.2v-373.7c0-3.3 2.5-5.8 5.8-5.8h161.1c1.9 0 3.3-1.5 3.3-3.2v-46.9c0-2.1-1.5-3.3-3.3-3.3"/>
		
		
			<path d="m3838.5 605.3-204.7-384.3c-11.7-22.2-26.4-36.5-41.4-43.5-24.4-11-50.6-2.7-72.1 24.6-4.4 5.4-8.4 11.9-12.1 19l-206.7 384.5c-0.9 1.8 0 3.6 2.2 3.6h54c1.6 0 3.8-1.2 4.7-2.8l44.2-82.3 0.1-0.2c1.4-2.8 5.2-5.1 8.4-5.1h269.8c3 0 6.5 2.2 8.3 4.8l0.2 0.4 44.2 82.4c0.6 1.6 2.9 2.8 4.6 2.8h94.6c2.2 0 2.7-2 1.7-3.9m-183.1-140h-210.8c-3.7 0-5.1-2.5-3.5-5.6h0.1l86.4-161.4c12.3-22.6 32.5-25.4 44.9-2.8l86.7 164.8c1.1 2.7-0.3 5-3.8 5"/>
		
	
	<path d="m17.1 515c-32.4 24.4-20.6 66.8 50.7 87.2 76.5 25.5 154.1 30.6 227 18.5 4.7-0.8 9.9-1.6 14.5-2.5v-77.6l-72.9 26.8c-26.9 9.8-66.3 11.8-88.1 4.6s-17.7-21 9.2-30.9l151.8-55.2v-86.8l-211 76.2c-0.1 0-51.2 17-81.2 39.7z"/>
	<path d="m835.9 464c-61.6-23.7-140-31.8-204.2-24.6-64 7.2-109.7 23.6-109.7 23.6l-9.2 3.1v89.8l157.8-56.4c26.9-9.8 66.3-11.8 88.1-4.6s17.7 21-9.2 30.9l-236.7 85.6v86.5l321.7-117.3s43.3-16.1 60.9-38.7c17.7-22.8 9.9-55.6-59.5-77.9z"/>
	<path d="m543.6 173.2v221.2c91.8 45 163.9-0.1 163.9-118.7 0-121.8-42.2-175.9-166.9-219.3-49-16.8-140.2-44.7-202.8-56.4v660.4l147.2 47.5v-553.9c0-26 11.4-43.3 29.9-37.3 23.9 6.7 28.7 30.6 28.7 56.5z"/>

</svg>
