<?xml version="1.0" encoding="UTF-8"?>
<svg enable-background="new 0 0 3839 747.9" version="1.1" viewBox="0 0 3839 747.9" xml:space="preserve" xmlns="http://www.w3.org/2000/svg">
<style type="text/css">
	.st0{fill:#FF2727;}
	.st1{fill:#B5B5B5;}
	.st2{fill:#02A5F4;}
	.st3{fill:#FF64B5;}
	.st4{fill:#688AFF;}
	.st5{fill:#FFD52F;}
	.st6{fill:#FFFFFF;}
</style>

	
		<path d="M863.8,339.3C659.4-49.1,264.6-61.1,128.4,89.8C95.2,126.7-18.2,337.7,296.4,535.9C132.8,584.3,0,396,0,396    c204.3,388.4,599,400.4,735.3,249.4c33.2-36.8,146.6-247.9-168.1-446C731,151.1,863.8,339.3,863.8,339.3z M615.1,533.2    c-62,68.6-194.3,50.2-295.4-41.3c-101.3-91.4-133.1-221-71.2-289.7S442.8,152,544,243.4S677.1,464.5,615.1,533.2z"/>
		<ellipse transform="matrix(.6701 -.7423 .7423 .6701 -158.39 527.28)" cx="514" cy="441.8" rx="92.4" ry="136.4"/>
		<path d="m1540.3 84.8h-154.6l-71.2 49.8-17.2 80.6c-2.5 11.6 6.4 22.5 18.2 22.5h154.7l71.2-49.8 17.2-80.6c2.3-11.6-6.5-22.5-18.3-22.5zm-59.1 34-14.3 66.9-42 29.4h-41.2c-6 0-10.4-5.5-9.2-11.3l14.3-67 41.9-29.3h41.2c6.1 0 10.5 5.5 9.3 11.3z"/>
		<path d="m1778.7 84.8h-181.7l-32.6 152.9h39.2l41.9-29.3 21.5-100.9h67.7c10.7 0 18.6 9.8 16.4 20.3l-23.5 110h74.8l23.4-109.9c4.7-22.2-17.5-43.1-47.1-43.1z"/>
		<path d="m3791.3 84.8h-181.8l-32.5 152.8h39.2l41.9-29.3 21.5-100.9h67.7c10.7 0 18.6 9.8 16.4 20.3l-23.5 110h74.8l23.4-109.9c4.8-22.1-17.4-43-47.1-43z"/>
		<polygon points="1264.7 0 1222.8 29.3 1189.5 185.7 1147.5 215 1126.6 215 1166.2 29.3 1172.5 0 1133.3 0 1091.4 29.3 1091.4 29.3 1058 185.7 1016.1 215 995.2 215 1034.8 29.3 1034.8 29.3 1041.1 0 1001.9 0 960.1 29.3 915.6 237.6 972.3 237.6 990.3 237.6 1046.9 237.6 1121.8 237.6 1178.4 237.6 1192.7 237.6 1194 236.7 1263.8 187.9 1303.9 0"/>
		<polygon points="3224.8 107.5 3208.1 185.7 3166.1 215 3151 215 3178.8 84.8 3131.6 84.8 3099.2 107.5 3082.5 185.7 3040.5 215 3025.4 215 3053.2 84.8 3006 84.8 2973.6 107.5 2945.8 237.6 3211.2 237.6 3282.4 187.9 3304.4 84.8 3257.2 84.8"/>
		<path d="m2097.9 87.3c5.8-3.8 11.2-8.1 16.1-13 20.1-20.2 35.1-47 35.1-47h-79.5s-15 26.7-35.1 47c-3.8 3.9-8.1 7.3-12.5 10.5h-92.8l-71.2 49.8-17.2 80.6c-2.5 11.6 6.4 22.5 18.2 22.5h215.1l29.1-136.6c1.3-5.6-1.1-10.8-5.3-13.8zm-73.2 31.5-20.5 96.3h-76.9c-6 0-10.4-5.5-9.2-11.3l14.3-67 41.9-29.3h41.3c5.9 0 10.4 5.5 9.1 11.3z"/>
		<path d="m2352.9 84.8h-151.9l-71.2 49.8-17.2 80.6c-2.5 11.6 6.4 22.5 18.2 22.5h152.7l31.5-22.7h-116c-6 0-10.4-5.5-9.2-11.3l5.2-24.5h109.3l72.7-50.9 2.3-10.9c3.7-16.7-9.2-32.6-26.4-32.6zm-40.4 34-3 14-31.8 22.5h-77.6l3.9-18.5 41.9-29.3h57.4c6 0 10.5 5.5 9.2 11.3z"/>
		<path d="m2569.4 137.7c-1 2.9-2.3 5.7-3.9 8.3l-5.9 9.3h50.7l34.6-24.2c0-18.9-10.2-46.2-53.5-46.2h-118.8l-71.2 49.8-22 103.1h74.8l21.5-100.9 41.9-29.3h30c15.6-0.1 26.7 15.2 21.8 30.1z"/>
		<path d="m2896.8 96h-97.7c-9.8-0.3-16.5-6.6-14.9-19.2 3.6-28.3 27.8-43.2 40-43.2h108.9l47.9-33.6h-180.5c-57.3 0-88.9 42.4-95.6 97.5-4.9 22.7 12.5 44.2 35.7 44.2h97.7c9.8 0.3 16.5 6.6 15 19.2-3.5 27.8-26.9 42.6-39.2 43.2h-222.3l-48 33.6h112.8l-0.1 0.1h180.5c57.3 0 88.9-42.4 95.6-97.5 4.8-22.8-12.5-44.3-35.8-44.3z"/>
		<path d="m3501.3 84.8h-88.5c-43.6 0-81.5 30.5-90.4 73.2-9.2 43.8-3.8 82.7 57.8 79.7h43.8l32.3-22.6h-35.5c-18.4 0-32.1-17-28.3-35l5.2-24.2c6-28.3 31-48.5 59.9-48.5h38.9l-27.8 130.2h74.8l32.6-152.9h-63.4l-11.4 0.1z"/>
		
			<path d="m1920.7 330.1-37.6 137.7c-8.5 30.8-53.7 24.7-53.7-7.3v-47.2c0-46.6-52.6-52.1-52.6-52.1-113.6 0-186.5 132.4-185.9 201.6 0 63.1 33 130.5 118.5 115.2 55.7-9.9 104.7-55.9 104.7-55.9 1.4-1.4 2.9-2.9 4.2-4.3 26.3-26.8 69.2 5.6 50.7 38.2-60 94-411.8 150.7-411.8-106.2 0-100.5 111.1-296.3 466.9-232l-3.4 12.3z"/>
			<path d="m2557.7 687.8-39.2 28.5c-78.1 49.3-192.3 17.1-190-85 0.2-11.1 2.3-22.1 5.2-32.9l64.1-234.4c6-22.3 20.7-41.7 41.3-52.1 44.4-22.6 76.4 14.7 69 47.4l-64.7 236.5c-25.8 89.4 22.9 100.9 44.1 87l50.3-36.6 38.5 0.5-4.3 32.5-14.3 8.6z"/>
			<path d="m3082.7 563.1 13.1-47.9c7.4-32.6-24.6-70-69-47.4-20.6 10.4-35.2 29.8-41.3 52.1l-40.3 147.8-2.7 9.9c-10.6 38.5 19.1 54.8 48.7 58.9 41.4 5.8 49.7-13.6 52.4-26.9 1.2-5.7 3-11.4 5.8-16.6 24.5-44.4 59.1-83 89-110.8 23.5-21.8 61.7-13.1 73.1 16.8l4.1 10.6c6.5 17 30.9 15.8 35.7-1.8l42.2-154.3c-60.7-7.5-139.9 16.5-210.8 109.6z"/>
			<path d="m2701.5 439c24.8-4.9 40.6 25.3 22.5 43-75.1 73.5-91 215.4-1 215.4 90.8 0 115.1-174.4 41.4-193.2-27.3-5.5-10-13.4-2.3-17.3 66.1-33.5 175-46.6 171.6 71.8-2.2 73.5-91.4 189.2-238 189.2-96.6 0-162.6-55.6-162.6-137.1 0.2-70.4 75.1-153.3 168.4-171.8z"/>
			<path d="m2071.8 439c24.8-4.9 40.6 25.3 22.5 43-75.1 73.5-91 215.4-1 215.4 90.8 0 115.1-174.4 41.4-193.2-27.3-5.5-10-13.4-2.3-17.3 66.1-33.5 175-46.6 171.6 71.8-2.2 73.5-91.4 189.2-238 189.2-96.6 0-162.6-55.6-162.6-137.1 0.1-70.4 75-153.3 168.4-171.8z"/>
		
	

</svg>
