<?xml version="1.0" encoding="UTF-8"?>
<svg enable-background="new 0 0 3840 654.4" version="1.1" viewBox="0 0 3840 654.4" xml:space="preserve" xmlns="http://www.w3.org/2000/svg">
<style type="text/css">
	.st0{fill:#ED001D;}
	.st1{fill:#FFFFFF;}
</style>

	
		
			
				<g transform="matrix(0 1.546 1.546 0 415.67 649.33)">
					<path d="m-226.2 119.3v-100h-58.2v-51.7h152.2v51.7h-61.1v100h61.1v51.7h-152.2v-51.7h58.2"/>
				</g>
				<g transform="matrix(0 1.546 1.546 0 451.89 657.95)">
					<path d="m-198.9 233.9-59.1 36 59.1 34.9v-70.9m-91.1 15.9 152.2-92.7v39.5l-31.1 19v106.9l31.1 18.4v63.1l-152.2-92.7v-61.5"/>
				</g>
				<g transform="matrix(0 1.546 1.546 0 550.35 651.37)">
					<path d="m-219.8 545.3c-16.1 12.3-39.8 10.6-53.3-13-12.6-22-17.3-64.1-17.3-90.4 0-42 2.9-69.1 6.8-92.1h150v51.7h-127.3c-3.7 18.6-3.8 37.5-3.4 44.6 0.9 20.5 4.1 32.1 10.6 41.3 6.8 9.5 21.8 12.1 32.3-0.2 7.8-9.3 13.9-28.1 7.5-70.1l9.7-5.9 70.5 79.5v70.3l-61.1-70.7c-2.1 17-8.9 42.7-25 55"/>
				</g>
				<g transform="matrix(0 1.546 1.546 0 346.12 647.86)">
					<path d="m-230.9-100.8c-5.8-29.8-9.4-55.2-19.1-55.2-10.7 0-13.5 20.5-10.4 49.6 2.9 27.5 10.1 53.4 20.4 77.6l-30.1 18.4c-7.4-19.5-17-59.8-18.1-96.4-1.2-40.1 2.4-107.7 42.9-110.6 37.1-2.7 45.9 50.2 54 84.8 7.9 33.8 10.7 65.5 22.4 65.5 8.2 0 14.6-11.2 12.4-40.7-2.7-35.5-12.4-65.8-27.4-96l32.9-20c13.1 33.5 23.6 77.3 24.2 116.9 0.8 47-6.8 100.1-47.1 101.3-33.3 0.9-45.1-34-57-95.2"/>
				</g>
				<g transform="matrix(0 1.546 1.546 0 594.19 651.04)">
					<path d="m-220.8 684c7.3-8.9 9.9-22 9.8-42.6-0.1-15.2-2.8-30.9-5.7-43.7h-43.9c-3.7 18.6-3.7 37.8-3.4 44.9 0.9 20.6 4.4 32.7 10.7 41.6 6.5 9.3 22.1 12.5 32.5-0.2m-52 45.2c-12.5-21-17.3-60.5-17.3-90.7 0-42.1 2.9-69.4 6.8-92.5h150v51.7h-55c2.7 16 4.2 36 4.1 53.3-0.4 42.3-10.3 73.7-25.9 88-22.1 20.5-48.9 13.6-62.7-9.8"/>
				</g>
			
		
	
	
		
			<path d="m2101.1 346.7-307.7 307.7h485.4l-177.7-307.7zm-11.8 90 93.7 162.4h-256.1l162.4-162.4z"/>
			<path d="M2521.5,0l177.7,307.7L3006.8,0H2521.5z M2617.3,55.3h256.1L2711,217.7L2617.3,55.3z"/>
		
		<path d="m3206.9 0-166.7 166.8h183.8l-185.8 321.7-285.3-0.3-281.8-488.2h-519.7l377.8 654.4h1133l377.8-654.4h-633.1zm223.4 599.1h-1069.2l-314-543.8h392l282 488.5h348.9l249.6-432.3h-146.1l56.2-56.2h514.4l-313.8 543.8z"/>
	

</svg>
