<?xml version="1.0" encoding="UTF-8"?>
<svg enable-background="new 0 0 3839 763.3" version="1.1" viewBox="0 0 3839 763.3" xml:space="preserve" xmlns="http://www.w3.org/2000/svg">
<style type="text/css">
	.st0{opacity:0.49;}
	.st1{clip-path:url(#SVGID_2_);}
	.st2{clip-path:url(#SVGID_6_);}
	.st3{fill:url(#SVGID_7_);}
	.st4{opacity:0.15;fill:#FFFFFF;}
	.st5{opacity:7.000000e-02;fill:#FFFFFF;}
	.st6{clip-path:url(#SVGID_9_);}
	.st7{fill:url(#SVGID_10_);}
	.st8{clip-path:url(#SVGID_12_);}
	.st9{fill:url(#SVGID_13_);}
	.st10{opacity:7.000000e-02;fill:url(#SVGID_14_);}
	.st11{clip-path:url(#SVGID_16_);}
	.st12{fill:url(#SVGID_17_);}
	.st13{fill:url(#SVGID_18_);}
	.st14{fill:url(#SVGID_19_);}
	.st15{fill:url(#SVGID_20_);}
	.st16{fill:url(#SVGID_21_);}
	.st17{fill:url(#SVGID_22_);}
	.st18{fill:url(#SVGID_23_);}
	.st19{fill:url(#SVGID_24_);}
	.st20{fill:#737373;}
	.st21{fill:#107C10;}
	.st22{clip-path:url(#SVGID_26_);}
	.st23{clip-path:url(#SVGID_30_);}
	.st24{fill:url(#SVGID_31_);}
	.st25{clip-path:url(#SVGID_33_);}
	.st26{fill:url(#SVGID_34_);}
	.st27{clip-path:url(#SVGID_36_);}
	.st28{fill:url(#SVGID_37_);}
	.st29{opacity:7.000000e-02;fill:url(#SVGID_38_);}
	.st30{clip-path:url(#SVGID_40_);}
	.st31{fill:url(#SVGID_41_);}
	.st32{fill:url(#SVGID_42_);}
	.st33{fill:url(#SVGID_43_);}
	.st34{fill:url(#SVGID_44_);}
	.st35{fill:url(#SVGID_45_);}
	.st36{fill:url(#SVGID_46_);}
	.st37{fill:url(#SVGID_47_);}
	.st38{fill:url(#SVGID_48_);}
	.st39{clip-path:url(#SVGID_50_);}
	.st40{clip-path:url(#SVGID_54_);}
	.st41{fill:url(#SVGID_55_);}
	.st42{clip-path:url(#SVGID_57_);}
	.st43{fill:url(#SVGID_58_);}
	.st44{clip-path:url(#SVGID_60_);}
	.st45{fill:url(#SVGID_61_);}
	.st46{opacity:7.000000e-02;fill:url(#SVGID_62_);}
	.st47{clip-path:url(#SVGID_64_);}
	.st48{fill:url(#SVGID_65_);}
	.st49{fill:url(#SVGID_66_);}
	.st50{fill:url(#SVGID_67_);}
	.st51{fill:url(#SVGID_68_);}
	.st52{fill:url(#SVGID_69_);}
	.st53{fill:url(#SVGID_70_);}
	.st54{fill:url(#SVGID_71_);}
	.st55{fill:url(#SVGID_72_);}
	.st56{fill:#FFFFFF;}
	.st57{clip-path:url(#SVGID_74_);}
	.st58{clip-path:url(#SVGID_78_);}
	.st59{fill:url(#SVGID_79_);}
	.st60{clip-path:url(#SVGID_81_);}
	.st61{fill:url(#SVGID_82_);}
	.st62{clip-path:url(#SVGID_84_);}
	.st63{fill:url(#SVGID_85_);}
	.st64{opacity:7.000000e-02;fill:url(#SVGID_86_);}
	.st65{clip-path:url(#SVGID_88_);}
	.st66{fill:url(#SVGID_89_);}
	.st67{fill:url(#SVGID_90_);}
	.st68{fill:url(#SVGID_91_);}
	.st69{fill:url(#SVGID_92_);}
	.st70{fill:url(#SVGID_93_);}
	.st71{fill:url(#SVGID_94_);}
	.st72{fill:url(#SVGID_95_);}
	.st73{fill:url(#SVGID_96_);}
	.st74{fill:#666666;}
	.st75{fill:#999999;}
</style>

	<polygon points="3135.1 247.7 3406.7 615.9 3457.8 616 3457.8 157.9 3406.8 157.9 3406.8 534.1 3129.6 157.6 3084.2 157.5 3084.2 615.6 3135.1 615.6"/>
	<path d="m2819.2 147.2c-128.8 0-218.9 98.5-218.9 239.6 0 141.3 90 239.8 218.9 239.8 128.7 0 218.4-98.5 218.4-239.8 0-141.1-89.7-239.6-218.4-239.6m0 430.8c-98.1 0-166.9-78.6-166.9-191.2 0-112.5 68.8-191.1 166.9-191.1 98 0 166.3 78.7 166.3 191.1 0 112.6-68.3 191.2-166.3 191.2"/>
	<polygon points="3835.8 202.4 3835.8 157.6 3515.1 157.6 3515.1 616 3839 616 3839 571.2 3566.5 571.2 3566.5 401.6 3818.7 401.6 3818.7 356.8 3566.5 356.8 3566.5 202.4"/>
	<polygon points="2179.2 157.8 2310.3 335.9 2441.3 157.8 2501.5 157.8 2340.8 376.2 2517 616.4 2456.7 616.4 2310.3 417.6 2163.9 616.4 2103.6 616.4 2279.7 376.2 2118.9 157.8"/>
	<path d="m1650.5 393.5c-9.6-8.1-20-14.5-30-19.1 33.3-18.1 55.1-52.2 55.1-91.8 0-29.3-10.8-124.7-149.1-124.7h-186.2v197.7h-62c-8.1 10.5-26.3 35.7-33.3 46h95.3v214.8h186.2c100.9 0 163.5-51.2 163.5-133.9 0-36.1-13.6-66.8-39.5-89m-258.7-187.8h134.7c36.5 0 97.5 9.1 97.5 72.9 0 48.2-35.6 77-97.5 77h-134.7v-149.9zm134.7 362.8h-134.7v-166.9h134.7c51.1 0 112.2 14.1 112.2 79.9 0 75.7-70.3 87-112.2 87"/>
	<path d="m1932.2 147.3c-128.8 0-218.8 98.5-218.8 239.6 0 141.3 90 239.7 218.8 239.7 128.7 0 218.4-98.5 218.4-239.7 0.1-141.1-89.7-239.6-218.4-239.6m0 430.7c-98.1 0-166.8-78.6-166.8-191.2 0-112.5 68.7-191.1 166.8-191.1 98 0 166.3 78.6 166.3 191.1 0.1 112.6-68.3 191.2-166.3 191.2"/>
	<polygon points="917.4 157.9 1078.1 376.2 901.9 616.3 962.3 616.3 1108.6 417.6 1255 616.3 1315.3 616.3 1139 376.2 1299.9 157.9 1239.6 157.9 1108.5 336 977.5 157.9"/>
	
		
			<circle class="st74" cx="142.7" cy="107.2" r="0"/>
			<path d="m383.3 306.3-1.7-1.3-1.7 1.3c-115.1 88-309.7 301.3-250.5 362.2 67.7 59.2 154 94.8 250.5 94.8h1.7s0 0 0 0h1.7c96.5 0 182.8-35.5 250.5-94.8 59.3-60.9-135.4-274.2-250.5-362.2z"/>
			<path d="m0 381.6c0 87.2 29.3 167.6 78.5 231.9 0.9 0 1.7-0.7 1.8-1.6v-0.1c0.1-0.6 0-1.3-0.2-1.8-2.5-8.2-3.5-17.4-3.3-27.5 2.1-101.1 130.9-288.2 199.9-371l1.5-1.9-1.5-1.5c-90.6-89.3-134-100.9-151.6-100.2-5.4 0.2-9.6 0.2-11.5 2-70.1 69.3-113.6 165.4-113.6 271.7z"/>
			<path d="m763.3 381.6c0 87.2-29.3 167.6-78.5 231.9-0.9 0-1.7-0.7-1.8-1.6v-0.1c-0.1-0.6 0-1.3 0.2-1.8 2.5-8.2 3.5-17.4 3.3-27.5-2.1-101.1-130.9-288.2-199.9-371l-1.5-1.9 1.5-1.5c90.6-89.3 134-100.9 151.6-100.2 5.4 0.2 9.6 0.2 11.5 2 70.1 69.3 113.6 165.4 113.6 271.7z"/>
			<path d="m580 55.5c-57.8-35.2-125.7-55.5-198.4-55.5s-140.5 20.3-198.3 55.5c-1.1 0.8-5 3.7-0.9 2.9l4.7-0.9c16-3.3 33.7-2.9 51.7-0.4 65.1 11.4 133.4 49.3 141.2 54.5 0 0 1.2 0.8 1.7 1.1 0.5-0.3 1.7-1.1 1.7-1.1 7.8-5.2 76.2-43.1 141.2-54.5 18-2.6 35.7-2.9 51.7 0.4l4.7 0.9c4.1 0.9 0.1-2.1-1-2.9z"/>
		
	

</svg>
