<?xml version="1.0" encoding="UTF-8"?>
<!DOCTYPE svg  PUBLIC '-//W3C//DTD SVG 1.1//EN'  'http://www.w3.org/Graphics/SVG/1.1/DTD/svg11.dtd' [
	<!ENTITY ns_extend "http://ns.adobe.com/Extensibility/1.0/">
	<!ENTITY ns_ai "http://ns.adobe.com/AdobeIllustrator/10.0/">
	<!ENTITY ns_graphs "http://ns.adobe.com/Graphs/1.0/">
	<!ENTITY ns_vars "http://ns.adobe.com/Variables/1.0/">
	<!ENTITY ns_imrep "http://ns.adobe.com/ImageReplacement/1.0/">
	<!ENTITY ns_sfw "http://ns.adobe.com/SaveForWeb/1.0/">
	<!ENTITY ns_custom "http://ns.adobe.com/GenericCustomNamespace/1.0/">
	<!ENTITY ns_adobe_xpath "http://ns.adobe.com/XPath/1.0/">
]>
<svg enable-background="new 0 0 3839 1159.29" version="1.1" viewBox="0 0 3839 1159.3" xml:space="preserve" xmlns="http://www.w3.org/2000/svg">
<style type="text/css">
	.st0{fill:#FFFFFF;}
	.st1{fill:url(#a);}
	.st2{fill:url(#SVGID_00000129924596887224545960000000902490348135382445_);}
	.st3{fill:url(#SVGID_00000074399735283451608550000017032223200678830503_);}
	.st4{fill:url(#SVGID_00000165220618700443607330000013107160536480358787_);}
	.st5{fill:url(#SVGID_00000045598220239514878100000003370341953331010202_);}
	.st6{fill:url(#SVGID_00000091726651838687448180000008230961201802412982_);}
	.st7{fill:url(#SVGID_00000031888413488986796680000000965725067125483188_);}
	.st8{fill:url(#SVGID_00000088110838234049279170000009111787079051904128_);}
	.st9{fill:url(#SVGID_00000092454319769803960470000006529376903648833928_);}
	.st10{fill:url(#SVGID_00000054948827420497414800000012205119576328125853_);}
	.st11{fill:url(#SVGID_00000098195002794768800990000016625770333095055501_);}
	.st12{fill:url(#SVGID_00000133526485464810312890000013276602179157164221_);}
	.st13{fill:url(#SVGID_00000013185882508604414270000014058125895877900961_);}
	.st14{fill:url(#SVGID_00000012474750392113998150000002613305285110030739_);}
</style>
<switch>
	<foreignObject width="1" height="1" requiredExtensions="http://ns.adobe.com/AdobeIllustrator/10.0/">
		
	</foreignObject>
	<g>
		
			<path d="m3675.8 1159.3h-3512.7c-90.11 0-163.16-73.05-163.16-163.16v-832.97c0-90.11 73.05-163.16 163.16-163.16h3512.7c90.12 0 163.17 73.05 163.17 163.16v832.96c0 90.12-73.05 163.17-163.16 163.17z"/>
			
				
					
						<polygon class="st0" points="3603.8 395.69 3415.1 548.46 3227.2 395.69 3120.9 395.69 3362.9 591.15 3120.9 786.61 3227.2 786.61 3415.1 632.9 3603.8 786.61 3709.2 786.61 3468.2 591.15 3709.2 395.69"/>
					
					
						<path class="st0" d="m3089.6 591.15c0-87.29-22.77-151.79-66.4-195.46h-386.14c-45.55 43.67-68.32 108.17-68.32 195.46 0 87.27 22.77 151.79 68.32 195.46h386.14c43.63-43.67 66.4-109.13 66.4-195.46zm-64.52 0c0 29.42-6.62 59.76-18.98 91.09l-18.02 40.79h-316.89l-18.02-40.79c-13.28-31.33-18.98-61.67-18.98-91.09 0-46.48 12.35-90.15 37-130.94h316.89c24.67 40.79 37 84.46 37 130.94z"/>
					
					
						<path class="st0" d="m2470.1 607.29v-32.26l28.46-15.2c-6.66-73.05-28.46-128.06-65.46-164.14h-386.15c-37 35.12-59.77 90.15-65.47 163.18h-62.6v64.53h62.6c5.7 73.04 28.46 127.14 65.47 163.2h386.15c37-37.02 58.81-91.09 65.46-163.2l-28.46-16.11zm-72.11-147.08c17.08 29.42 29.4 61.67 35.1 98.66h-386.15c5.7-36.99 17.07-69.25 35.1-98.66h315.95zm35.11 163.2c-5.7 37-18.02 70.21-35.1 99.62h-315.95c-18.03-29.42-29.41-62.62-35.1-99.62h386.15z"/>
					
					
						<polygon class="st0" points="1706.4 591.15 1947.3 395.69 1841.1 395.69 1653.2 548.46 1464.4 395.69 1360.1 395.69 1600.1 591.15 1360.1 786.61 1464.4 786.61 1653.2 632.9 1841.1 786.61 1947.3 786.61"/>
					
				
			
			
				
					
						<linearGradient id="a" x1="880.56" x2="1266.3" y1="618.93" y2="578.39" gradientUnits="userSpaceOnUse">
							<stop stop-color="#fff" stop-opacity=".7" offset="3.0368e-7"/>
							<stop stop-color="#fff" stop-opacity=".4" offset=".2533"/>
							<stop stop-color="#fff" stop-opacity=".3585" offset=".3308"/>
							<stop stop-color="#fff" stop-opacity="0" offset="1"/>
						</linearGradient>
						<path class="st1" d="m1313.7 1029.4c-94.34-92.48-178.72-187.32-254.49-285.02-48.45-62.61-109.84-148.23-184.8-256.73l-9-13.04s237.54-245.67 257.2-266.42c22.97-24.7 47.06-50.71 72.58-78.37"/>
						
							<linearGradient id="b" x1="721.76" x2="721.76" y1="354.6" y2="129.84" gradientUnits="userSpaceOnUse">
							<stop stop-color="#fff" stop-opacity=".5" offset=".0024832"/>
							<stop stop-color="#fff" stop-opacity=".3" offset=".2796"/>
							<stop stop-color="#fff" stop-opacity="0" offset="1"/>
						</linearGradient>
						<path d="m1195.2 129.84c-33.48 24.81-75.42 50.21-126.2 75.98-79.76 41.82-195.45 90.73-347.18 148.79h-0.07c-151.73-58.07-267.42-106.97-347.18-148.8-50.79-25.76-92.73-51.16-126.2-75.98" fill="url(#b)"/>
						
							<linearGradient id="c" x1="865.4" x2="1313.7" y1="752.05" y2="752.05" gradientUnits="userSpaceOnUse">
							<stop stop-color="#fff" stop-opacity=".2" offset="0"/>
							<stop stop-color="#fff" stop-opacity=".9" offset="1"/>
						</linearGradient>
						<path d="m874.4 487.69-9-13.04 0.02 49.22 0.77 1.12c103.15 158.35 256.49 337.9 353.65 445.84 29.76 18.99 61.09 38.55 93.85 58.61-5.9-5.78-11.75-11.57-17.57-17.37-55.28-55.09-107.07-111.02-155.67-167.89-5.12-5.99-10.2-11.98-15.24-17.99-22.7-27.04-44.69-54.29-66-81.77-48.47-62.61-109.86-148.23-184.81-256.73z" fill="url(#c)"/>
						
							<linearGradient id="g" x1="129.84" x2="578.12" y1="752.05" y2="752.05" gradientUnits="userSpaceOnUse">
							<stop stop-color="#fff" stop-opacity=".7" offset=".4507"/>
							<stop stop-color="#fff" stop-opacity=".4" offset=".8982"/>
						</linearGradient>
						<path d="m569.12 487.69 9-13.04-0.02 49.22-0.77 1.12c-103.15 158.35-256.49 337.9-353.65 445.84-29.76 18.99-61.09 38.55-93.85 58.61 5.9-5.78 11.75-11.57 17.57-17.37 55.28-55.09 107.07-111.02 155.67-167.89 5.12-5.99 10.2-11.98 15.24-17.99 22.7-27.04 44.69-54.29 66-81.77 48.47-62.61 109.86-148.23 184.81-256.73z" fill="url(#g)"/>
						
							<linearGradient id="i" x1="248.35" x2="721.76" y1="259.78" y2="259.78" gradientUnits="userSpaceOnUse">
							<stop stop-color="#fff" stop-opacity=".8" offset="0"/>
							<stop stop-color="#fff" stop-opacity=".15" offset="1"/>
						</linearGradient>
						<path d="m248.35 129.86c19.61 21.26 38.37 41.54 56.44 61 103.7 62.44 266.04 146.54 416.97 198.85l0.01-35.08c-95.89-36.69-177.39-69.73-244.53-99.63-1.84-0.82-3.66-1.63-5.48-2.45-19.57-8.77-37.9-17.27-54.97-25.51-4.33-2.09-8.57-4.16-12.74-6.22-3.44-1.7-6.82-3.38-10.15-5.05-6.67-3.35-13.12-6.67-19.35-9.93-4.76-2.42-9.44-4.83-14.05-7.24-26.1-13.65-49.72-27.19-70.9-40.59-1.25-0.79-2.48-1.58-3.71-2.36-4.18-2.68-8.26-5.35-12.25-8.01-8.91-5.97-17.34-11.9-25.29-17.78v0z" fill="url(#i)"/>
						
							<linearGradient id="f" x1="721.76" x2="1195.2" y1="259.78" y2="259.78" gradientUnits="userSpaceOnUse">
							<stop stop-color="#fff" stop-opacity=".15" offset="0"/>
							<stop stop-color="#fff" stop-opacity=".7887" offset=".9826"/>
							<stop stop-color="#fff" stop-opacity=".8" offset="1"/>
						</linearGradient>
						<path d="m1195.2 129.86c-19.61 21.26-38.37 41.54-56.44 61-103.7 62.44-266.04 146.54-416.97 198.85l-0.01-35.08c95.89-36.69 177.39-69.73 244.53-99.63 1.84-0.82 3.66-1.63 5.48-2.45 19.57-8.77 37.9-17.27 54.97-25.51 4.33-2.09 8.57-4.16 12.74-6.22 3.44-1.7 6.82-3.38 10.15-5.05 6.67-3.35 13.12-6.67 19.35-9.93 4.76-2.42 9.44-4.83 14.05-7.24 26.1-13.65 49.72-27.19 70.9-40.59 1.25-0.79 2.48-1.58 3.71-2.36 4.18-2.68 8.26-5.35 12.25-8.01 8.91-5.97 17.34-11.9 25.29-17.78v0z" fill="url(#f)"/>
					
				
				
					<linearGradient id="h" x1="877.86" x2="1141.4" y1="336.71" y2="620.7" gradientUnits="userSpaceOnUse">
					<stop stop-color="#fff" stop-opacity=".35" offset="0"/>
					<stop stop-color="#fff" stop-opacity=".9" offset=".5448"/>
				</linearGradient>
				<path d="m1138.7 190.86c-103.7 62.44-266.04 146.53-416.97 198.84l-0.01 205.8c46.2 40.93 94.2 81.07 143.65 120.58l-0.02-241.43s237.54-245.67 257.2-266.42c5.33-5.72 10.71-11.51 16.15-17.37z" fill="url(#h)"/>
				
					<linearGradient id="e" x1="382.71" x2="633.43" y1="546.51" y2="252.06" gradientUnits="userSpaceOnUse">
					<stop stop-color="#fff" stop-opacity=".7" offset=".2419"/>
					<stop stop-color="#fff" stop-opacity=".35" offset=".8656"/>
				</linearGradient>
				<path d="m721.76 389.7c-150.93-52.31-313.27-136.41-416.97-198.85 5.44 5.86 10.82 11.66 16.14 17.37 9.77 6.18 9.76 6.18-0.01 0 19.66 20.76 257.2 266.42 257.2 266.42l-0.02 241.43c49.45-39.51 97.44-79.65 143.65-120.58v-189.36l0.01-16.43z" fill="url(#e)"/>
				
					<linearGradient id="j" x1="914.4" x2="1044.7" y1="507.36" y2="847.06" gradientUnits="userSpaceOnUse">
					<stop stop-color="#fff" stop-opacity=".4" offset=".1018"/>
					<stop stop-color="#fff" stop-opacity=".7" offset=".9239"/>
				</linearGradient>
				<path d="m866.18 524.99-0.77-1.12v192.21c94.58 75.56 204.94 155.28 311.54 226.68l0.06 0.06c6.11 4.07 12.1 8.18 18.24 12.23 15.26 9.87 31.99 20.51 24.57 15.78-97.14-107.94-250.48-287.48-353.64-445.84z" fill="url(#j)"/>
				
					<linearGradient id="d" x1="544.55" x2="349.77" y1="580.24" y2="925.56" gradientUnits="userSpaceOnUse">
					<stop stop-color="#fff" stop-opacity=".5" offset=".1319"/>
					<stop stop-color="#fff" stop-opacity=".7" offset=".5772"/>
				</linearGradient>
				<path d="m578.11 499.26-0.01 24.61-0.77 1.12c-103.15 158.35-256.49 337.9-353.65 445.84-29.76 18.99-12.36 8.1 24.58-15.78 6.15-4.05 12.13-8.16 18.24-12.23l0.06-0.06c106.6-71.4 216.97-151.11 311.54-226.68v-192.21l0.01-49.22v24.61z" fill="url(#d)"/>
			
		
	</g>
</switch>

</svg>
