<?xml version="1.0" encoding="UTF-8"?>
<svg enable-background="new 0 0 3840 1239.2" version="1.1" viewBox="0 0 3840 1239.2" xml:space="preserve" xmlns="http://www.w3.org/2000/svg">
<style type="text/css">
	.st0{fill:#F60F0E;}
	.st1{fill:#FFFFFF;}
</style>

	
		<rect x="683.6" width="118" height="93.4"/>
		
			<rect x="683.6" y="128.1" width="118" height="391.3"/>
			<rect x="3039.4" y="128.1" width="118" height="391.3"/>
			<rect x="2198" width="118" height="519.3"/>
			<polygon points="950.8 128.1 832.8 128.1 832.8 221.4 832.8 519.3 950.8 519.3 950.8 221.4 1366.2 221.4 1366.2 519.3 1484.2 519.3 1484.2 221.4 1484.2 128.1 1366.2 128.1"/>
			<polygon points="3840 128.1 3306.6 128.1 3188.6 128.1 3188.6 221.4 3188.6 519.3 3306.6 519.3 3306.6 221.4 3840 221.4"/>
			<polygon points="1 153.8 0 153.8 0 277 0 370.4 0 371.7 118 371.7 118 370.4 533.4 370.4 533.4 426 1 426 1 519.3 533.4 519.3 651.4 519.3 652.4 519.3 652.4 426 651.4 426 651.4 370.4 651.4 277 651.4 275.7 533.4 275.7 533.4 277 118 277 118 221.4 652.4 221.4 652.4 128.1 1 128.1"/>
			<polygon points="1515.4 128.1 1515.4 221.4 1515.4 426 1515.4 519.3 1633.4 519.3 2166.7 519.3 2166.7 426 1633.4 426 1633.4 221.4 2166.7 221.4 2166.7 128.1 1633.4 128.1"/>
			<path d="m2998.5 128.1h-651.3v93.4h538.6v55.5h-538.6v242.4h661v-391.3h-9.7zm-533.3 297.9v-55.6h420.6v55.6h-420.6z"/>
		
		<rect x="3039.4" width="118" height="93.4"/>
	
	
		<path d="m1085.8 1127.3 310.4-371.2h-286.1v-107h455.5v100.5l-310.4 371.2h318.5v107h-487.9v-100.5z"/>
		<path d="m1778.7 924.7-173.4-275.6h137.2l105.5 184.8 109.3-184.8h129.7l-172.6 276.4 187.7 302.3h-141l-117.6-200.2-119.9 200.2h-133.4l188.5-303.1z"/>
		<path d="m2332.1 649.1c143.9 0 193.5 97.3 193.5 152.4 0 55.9-29.8 101.3-84.3 119.2v1.6c68.6 15.4 108.3 67.3 108.3 138.6 0 119.2-109.1 178.3-216.6 178.3-111.6 0-219.9-55.1-219.9-177.5 0-72.1 41.3-123.2 109.1-139.4v-1.6c-56.2-15.4-85.2-60.8-85.2-116.7 0-102.2 100.9-154.9 195.1-154.9zm0.9 503.4c56.2 0 99.2-38.9 99.2-95.6 0-54.3-44.6-90.8-99.2-90.8-57 0-102.5 31.6-102.5 90-0.1 58.3 46.2 96.4 102.5 96.4zm-0.9-263.5c48 0 86.8-25.9 86.8-74.6 0-29.2-14.1-78.6-86.8-78.6-47.1 0-88.5 28.4-88.5 78.6 0.1 49.5 41.4 74.6 88.5 74.6z"/>
		<path d="M2627,649.1h127.3v578.7H2627V649.1z"/>
	

</svg>
